<svg width="80" height="80" viewBox="0 0 80 80" fill="none" xmlns="http://www.w3.org/2000/svg">
<path d="M60.8899 18L31.0599 69.67L18.9399 62.67L48.7699 11L60.8899 18Z" fill="#6A9A23"/>
<path d="M53.9698 14L41.7798 29.06L50.4498 36.07L60.8898 17.99L53.9698 14Z" fill="#E56E00"/>
<path d="M29.0699 45.1101L18.9399 62.6601L26.3099 66.9201L37.7799 51.6501L29.0699 45.1101Z" fill="#AF59E1"/>
<path d="M37.96 29.5599L23.71 41.0899L37.78 51.6399L30.14 61.8199L3 41.4699L29.96 19.6699L37.96 29.5699V29.5599ZM76.74 40.9699L49.6 61.3299L41.96 51.1499L56.03 40.5999L41.78 29.0699L49.78 19.1699L76.74 40.9699Z" fill="#4B4D51"/>
<path d="M49.7798 19.1599L41.7798 29.0599L50.4498 36.0699L56.8998 24.9199L49.7798 19.1599Z" fill="#101214"/>
<path d="M37.7802 51.6501L29.0702 45.1101L22.6602 56.2201L30.1402 61.8301L37.7802 51.6501Z" fill="#101214"/>
</svg>
