<svg width="80" height="80" viewBox="0 0 80 80" fill="none" xmlns="http://www.w3.org/2000/svg">
<path d="M60.8899 18L31.0599 69.67L18.9399 62.67L48.7699 11L60.8899 18Z" fill="#6A9A23"/>
<path d="M53.9698 14L41.7798 29.06L50.4498 36.07L60.8898 17.99L53.9698 14Z" fill="#FCA700"/>
<path d="M29.0699 45.11L18.9399 62.66L26.3099 66.92L37.7799 51.65L29.0699 45.11Z" fill="#AF59E1"/>
<path d="M37.96 29.56L23.71 41.09L37.78 51.64L30.14 61.82L3 41.47L29.96 19.67L37.96 29.57V29.56ZM76.74 40.97L49.6 61.33L41.96 51.15L56.03 40.6L41.78 29.07L49.78 19.17L76.74 40.97Z" fill="#DDDEE1"/>
<path d="M49.7798 19.16L41.7798 29.06L50.4498 36.07L56.8998 24.92L49.7798 19.16Z" fill="#101214"/>
<path d="M37.7802 51.65L29.0702 45.11L22.6602 56.22L30.1402 61.83L37.7802 51.65Z" fill="#101214"/>
</svg>
