<svg width="40" height="40" viewBox="0 0 40 40" fill="none" xmlns="http://www.w3.org/2000/svg">
<g clip-path="url(#clip0_226_8425)">
<g clip-path="url(#clip1_226_8425)">
<path d="M40 0H0V40H40V0Z" fill="#82B536"/>
<path d="M34.821 23.6401C34.671 22.7801 34.441 21.8901 34.131 20.9801C33.811 20.0601 33.451 19.2201 33.041 18.4601C30.591 13.9301 26.551 12.2401 22.061 13.2901C21.551 13.4101 21.041 13.5701 20.521 13.7601C20.091 13.6401 19.651 13.5201 19.191 13.4501C18.401 13.3201 17.581 13.2601 16.721 13.2701C15.831 13.2801 14.971 13.3701 14.151 13.5401C9.55103 14.4601 6.31103 17.7101 5.53103 22.9001C5.40103 23.7801 5.33103 24.7101 5.35103 25.7001C5.36103 26.6701 5.45103 27.5901 5.60103 28.4501C6.51103 33.6101 9.83103 36.7701 14.461 37.5501C15.281 37.6901 16.141 37.7501 17.031 37.7401C17.891 37.7301 18.711 37.6401 19.491 37.4901C19.511 37.4901 19.521 37.4901 19.541 37.4801C21.251 38.0901 23.141 38.1701 25.121 37.7101C25.921 37.5301 26.731 37.2601 27.551 36.9101C28.341 36.5701 29.071 36.1801 29.751 35.7401C33.721 33.1501 35.711 28.8401 34.811 23.6601L34.821 23.6401Z" fill="#AE2A19"/>
<path d="M19.3795 14.0901C20.6795 14.2801 21.0895 13.2301 19.6295 12.7601C18.6095 12.4501 17.5095 12.3301 16.3295 12.3201C15.1495 12.3201 13.8595 12.4801 12.4595 12.9201C10.8795 13.4601 10.0095 14.1001 9.31953 14.6701C8.62953 15.2601 8.07953 15.7901 7.35953 16.6501C6.13953 18.0901 5.02953 20.4301 4.62953 22.6201C4.18953 24.8101 4.25953 26.7501 4.29953 27.5101C4.30953 27.7401 4.33953 27.9601 4.37953 28.1801C4.54953 28.9501 4.88953 31.1901 6.44953 33.5601C7.21953 34.7301 8.31953 35.8901 9.65953 36.7501C10.9895 37.6301 12.5395 38.1901 14.0495 38.5001C14.9895 38.6901 15.9395 38.7501 16.8895 38.7501C17.3595 38.7501 17.8395 38.7201 18.3095 38.6801C18.5495 38.6601 18.7795 38.6301 19.0195 38.5901L19.4595 38.5201L19.8395 38.6301C20.0595 38.6901 20.2895 38.7501 20.5095 38.7901C20.9595 38.8801 21.4195 38.9401 21.8795 38.9801C23.5795 39.0801 25.0395 38.7801 26.2795 38.3401C27.5295 37.9001 28.5895 37.3201 29.5595 36.6301C30.6095 35.8301 29.9995 35.0701 28.9495 35.5901C27.9595 36.0501 26.9295 36.4201 25.7895 36.7201C24.6495 37.0001 23.4095 37.2001 22.0095 37.1101C21.7595 37.0901 21.4495 37.0501 21.0895 36.9601C20.9095 36.9201 20.7095 36.8601 20.5095 36.7901C20.2195 36.6901 19.9195 36.5701 19.5795 36.4501C19.4495 36.4701 19.3095 36.5001 19.1695 36.5201C18.9995 36.5501 18.9995 36.5401 18.8995 36.5501C18.7495 36.5601 18.5995 36.5701 18.4395 36.5901C18.1195 36.6101 17.7695 36.6201 17.4095 36.6201C16.6795 36.6201 15.8595 36.5701 14.9995 36.4401C14.4895 36.3501 13.9695 36.2801 13.4695 36.1701C12.3795 35.9601 11.2395 35.5201 10.2895 34.8501C9.32953 34.1901 8.53953 33.3301 7.99953 32.4801C7.44953 31.6301 7.10953 30.8101 6.90953 30.2101C6.70953 29.6101 6.62953 29.2501 6.62953 29.2501C6.62953 29.2501 6.48953 28.7101 6.34953 27.8201C6.21953 26.9301 6.12953 25.6701 6.21953 24.3101C6.30953 22.9501 6.58953 21.4901 7.09953 20.2401C7.59953 18.9901 8.29953 17.9601 8.91953 17.2901C9.84953 16.2701 10.7395 15.7301 11.4195 15.3601C12.1195 15.0101 12.6295 14.8101 13.0195 14.6901C14.2095 14.3101 15.3295 14.1201 16.3795 14.0401C17.4295 13.9601 18.4195 13.9501 19.3595 14.0801L19.3795 14.0901Z" fill="#101214"/>
<path d="M21.5703 16.3101L25.4603 15.5801C25.4603 15.5801 32.2403 17.5401 30.8303 25.6101L26.2303 26.9301C26.2303 26.9301 28.6503 20.5001 21.5803 16.3101H21.5703Z" fill="white"/>
<path d="M20.9395 4.65998C19.2195 6.50998 18.4795 8.88998 18.7495 11.03C20.9095 11.14 23.2195 10.24 24.9495 8.38998C26.6795 6.53998 27.4095 4.15998 27.1395 2.01998C24.9795 1.90998 22.6695 2.80998 20.9395 4.65998Z" fill="#164B35"/>
<path d="M15.4414 8.19993C15.1514 8.22993 14.9014 9.31993 15.0314 9.48993C15.2514 9.73993 15.4914 9.91993 15.8414 10.0999C16.2514 10.2499 16.4614 10.0999 16.7114 10.2799C17.1714 10.5499 17.6114 11.3199 17.6614 11.5199C17.6714 11.5499 17.6914 11.5699 17.7114 11.5899C17.8814 11.6799 18.6114 12.2699 18.7714 13.0199C18.9314 13.5099 18.9914 13.8399 19.0014 14.0099C19.0814 14.4099 19.1414 14.7199 19.3514 15.0599C19.4614 15.2399 20.4214 15.3699 20.5514 15.1599C20.7714 14.7799 20.9414 14.3599 20.8614 13.7899C20.8614 13.5699 21.0314 13.0699 20.8814 12.3799C20.8414 12.2699 20.7814 12.1699 20.7014 12.0899C20.3714 11.7099 20.0314 11.2999 19.7914 10.9599C19.5214 10.6499 19.3614 10.3999 19.3614 10.3999C19.3614 10.3999 19.0714 10.0699 18.6814 9.72993C18.2914 9.37993 17.7914 9.02993 17.4814 8.85993C17.0214 8.57993 16.7814 8.47993 16.6414 8.40993C16.2014 8.20993 15.8214 8.15993 15.4314 8.20993L15.4414 8.19993Z" fill="#101214"/>
<path d="M30.412 21.48C30.572 21.69 31.682 21.51 31.732 21.22C31.822 20.81 31.802 20.38 31.652 19.87C31.392 19.31 31.132 19.26 30.972 18.89C30.702 18.27 30.292 17.12 30.122 16.85C30.102 16.81 30.082 16.77 30.042 16.74C29.812 16.52 28.742 15.66 27.722 15.06C26.982 14.69 26.482 14.54 26.222 14.47C25.612 14.3 25.122 14.35 24.662 14.52C24.402 14.61 24.362 15.58 24.552 15.72C24.902 15.97 25.242 16.13 25.702 16.27C25.882 16.32 26.172 16.68 26.612 16.96C26.682 17 26.772 17.02 26.862 17.03C27.272 17.05 27.672 17.25 27.942 17.47C28.082 17.57 28.192 17.68 28.252 17.76C28.322 17.84 28.362 17.89 28.362 17.89C28.362 17.89 28.622 18.16 28.882 18.53C29.152 18.9 29.402 19.37 29.532 19.67C29.742 20.11 29.802 20.34 29.862 20.47C30.002 20.89 30.172 21.19 30.392 21.49L30.412 21.48Z" fill="#101214"/>
</g>
</g>
<defs>
<clipPath id="clip0_226_8425">
<rect width="40" height="40" fill="white"/>
</clipPath>
<clipPath id="clip1_226_8425">
<rect width="40" height="40" fill="white"/>
</clipPath>
</defs>
</svg>
