<svg width="40" height="40" viewBox="0 0 40 40" fill="none" xmlns="http://www.w3.org/2000/svg">
<g clip-path="url(#clip0_226_8438)">
<g clip-path="url(#clip1_226_8438)">
<path d="M40 0H0V40H40V0Z" fill="#164B35"/>
<path d="M2.17969 5.60998C2.30969 5.99998 6.50969 29.25 6.50969 29.25L26.7097 15.65L17.5497 0.22998L2.17969 5.60998Z" fill="white"/>
<path d="M35.6291 21.6399H34.5691C34.0091 20.2599 33.1891 19.0299 32.1291 17.9899L31.9091 12.1499L26.9291 14.9499C25.0991 14.3599 23.0291 14.0399 20.7391 14.0399C11.8791 14.0599 6.02908 18.8599 6.03908 26.1299C6.03908 30.7599 8.40908 34.3799 12.3891 36.3999V40.0899H16.8791V37.8599C18.0891 38.0799 19.3791 38.1999 20.7491 38.1899C22.3191 38.1899 23.7891 38.0199 25.1391 37.7399V40.0899H29.6291V36.1199C32.5791 34.4799 34.5291 31.9199 35.1791 28.6699H35.6291C36.3191 28.6699 36.8691 28.1099 36.8691 27.4299V22.8899C36.8691 22.1999 36.3091 21.6499 35.6291 21.6499V21.6399Z" fill="#FFC716"/>
<path d="M3.07928 7.31C5.67928 11.31 10.1293 12.18 14.2693 9.49C17.8793 7.15 19.1193 3.52 17.6893 0H2.26928C1.25928 2.27 1.48928 4.86 3.07928 7.31Z" fill="#FCA700"/>
<mask id="mask0_226_8438" style="mask-type:luminance" maskUnits="userSpaceOnUse" x="-1" y="0" width="41" height="41">
<path d="M39.4805 0.0200195H-0.519531V40.02H39.4805V0.0200195Z" fill="white"/>
</mask>
<g mask="url(#mask0_226_8438)">
<path d="M18.2014 16.9001C18.4114 16.7501 18.2714 15.6401 18.0114 15.5701C17.6314 15.4601 17.2414 15.4401 16.7514 15.5301C16.2114 15.7101 16.1414 15.9701 15.7814 16.0501C15.1814 16.2201 14.0514 16.3301 13.7814 16.3901C13.7414 16.3901 13.7014 16.4101 13.6714 16.4301C13.4314 16.5901 12.4014 17.2901 11.5114 17.9001C10.9214 18.3801 10.5814 18.7101 10.4114 18.8901C10.0114 19.3101 9.82145 19.7401 9.75145 20.2001C9.71145 20.4601 10.5114 20.9901 10.7314 20.9001C11.1214 20.7301 11.4214 20.5301 11.7614 20.1901C11.8914 20.0501 12.3514 19.9801 12.7914 19.6801C12.8614 19.6301 12.9214 19.5701 12.9714 19.4801C13.1614 19.1101 13.5014 18.8101 13.7914 18.6201C14.0814 18.4301 14.3214 18.3401 14.3214 18.3401C14.3214 18.3401 14.6614 18.1701 15.0814 18.0001C15.5014 17.8201 16.0214 17.6601 16.3314 17.5701C16.7914 17.4301 17.0314 17.3901 17.1714 17.3501C17.6014 17.2501 17.9114 17.1001 18.2214 16.9001H18.2014Z" fill="#101214"/>
<path d="M28.3407 22.27C28.2107 22.26 27.1107 22.46 27.0507 22.67C26.9707 22.95 27.0207 23.29 27.2707 23.59C27.6207 23.88 27.8407 23.72 28.0307 23.87C28.3707 24.09 28.9507 24.51 29.1107 24.59C29.1307 24.6 29.1607 24.61 29.1807 24.61C29.3707 24.57 30.0007 24.49 30.7307 24.3C31.2307 24.11 31.4907 23.84 31.6107 23.73C31.8907 23.43 31.9407 23.11 31.8507 22.82C31.8107 22.65 30.9107 22.27 30.7707 22.28C30.5207 22.31 30.3607 22.33 30.2807 22.4C30.2407 22.44 30.0307 22.27 29.9607 22.24C29.9407 22.24 29.9407 22.26 29.9407 22.3C29.9007 22.71 29.4007 22.62 29.4307 22.6C29.4207 22.62 28.8807 22.53 28.8007 22.44C28.7107 22.39 28.6907 22.36 28.6707 22.34C28.6207 22.29 28.5207 22.29 28.3307 22.25L28.3407 22.27Z" fill="#101214"/>
<path d="M7.35137 25.1002C7.84137 24.9802 7.71137 23.8702 7.38137 23.7502C6.89137 23.5702 6.42137 23.3902 5.81137 23.1302C5.11137 22.8702 4.82137 22.9202 4.42137 22.5702C4.07137 22.2902 3.78137 21.7702 3.87137 21.5202C3.92137 21.2802 4.14137 21.1402 4.25137 21.0602C4.28137 21.0402 4.30137 21.0202 4.32137 20.9902C4.34137 20.9602 4.36137 20.9202 4.40137 20.8702C4.44137 20.8202 4.43137 20.8402 4.44137 20.8002C4.44137 20.8102 4.42137 20.7802 4.41137 20.7302C4.41137 20.7002 4.41137 20.7202 4.41137 20.7002C4.41137 20.7002 4.39137 20.7802 4.41137 20.7502C4.44137 20.7502 4.54137 20.8102 4.53137 20.8602C4.53137 20.9002 4.53137 21.0002 4.34137 21.1402C4.03137 21.4002 3.98137 21.3902 3.73137 21.4102C3.51137 21.4102 3.30137 21.3602 3.16137 21.3302C2.48137 21.1502 1.90137 20.9302 1.28137 20.7602C0.951375 20.6602 0.331375 21.4102 0.581375 21.7402C1.04137 22.3102 1.63137 22.8302 2.67137 23.1402C2.88137 23.1902 3.18137 23.3502 3.68137 23.4302C3.93137 23.4702 4.24137 23.4902 4.60137 23.4102C4.78137 23.3702 4.97137 23.3102 5.17137 23.2102C5.34137 23.1202 5.48137 23.0302 5.64137 22.9202C5.84137 22.7702 6.03137 22.5702 6.16137 22.3202C6.46137 21.8102 6.63137 21.0102 6.40137 20.3602C6.19137 19.7102 5.71137 19.2402 5.19137 19.0202C4.66137 18.7802 4.09137 18.8602 3.77137 18.9802C3.43137 19.1002 3.29137 19.2302 3.29137 19.2302C3.29137 19.2302 3.23137 19.2702 3.13137 19.3502C3.04137 19.4302 2.94137 19.5202 2.82137 19.6602C2.58137 19.9402 2.25137 20.3902 2.14137 21.0502C2.01137 21.7202 2.27137 22.4502 2.59137 22.9002C2.91137 23.3702 3.27137 23.6802 3.54137 23.9002C4.36137 24.5302 4.83137 24.7002 5.10137 24.8302C5.95137 25.1802 6.70137 25.2302 7.37137 25.0802L7.35137 25.1002Z" fill="#101214"/>
<path d="M6.31047 0.680101C6.50047 0.250101 5.71047 -0.549899 5.22047 -0.109899C4.58047 0.510101 4.02047 1.4401 3.98047 2.7501C4.00047 3.4801 4.18047 3.9101 4.33047 4.2601C4.50047 4.6001 4.64047 4.8801 4.84047 5.2901C5.18047 5.9701 5.70047 6.8501 6.42047 7.5201C7.11047 8.2001 7.95047 8.5901 8.27047 8.7101C8.37047 8.7501 8.47047 8.7701 8.57047 8.7901C8.93047 8.8401 9.96047 8.9601 11.1005 8.6001C12.2505 8.2601 13.4105 7.5701 14.3405 6.6601C15.6305 5.3101 15.8505 3.9901 15.9105 3.4101C15.9905 2.6701 15.8705 2.0301 15.6605 1.4901C15.4605 0.950101 15.1705 0.510101 14.8405 0.150101C14.4605 -0.259899 13.6805 0.330101 13.8005 0.750101C14.0005 1.5401 14.1405 2.2801 14.0505 3.2101C14.0005 3.5801 13.6205 4.2601 12.8905 5.0001C12.7705 5.1201 12.6605 5.2601 12.5605 5.4101C12.1105 6.0601 11.2705 6.6001 10.5905 6.7801C10.2505 6.8801 9.95047 6.9001 9.74047 6.9101C9.53047 6.9001 9.41047 6.8901 9.41047 6.8901C9.41047 6.8901 8.66047 6.8801 7.90047 6.4001C7.12047 5.9601 6.45047 5.0001 6.20047 4.4101C5.81047 3.5201 5.85047 3.0501 5.84047 2.7901C5.85047 1.9701 6.05047 1.3401 6.30047 0.690101L6.31047 0.680101Z" fill="#101214"/>
</g>
</g>
</g>
<defs>
<clipPath id="clip0_226_8438">
<rect width="40" height="40" fill="white"/>
</clipPath>
<clipPath id="clip1_226_8438">
<rect width="40" height="40" fill="white"/>
</clipPath>
</defs>
</svg>
