<svg width="40" height="40" viewBox="0 0 40 40" fill="none" xmlns="http://www.w3.org/2000/svg">
<g clip-path="url(#clip0_226_8624)">
<g clip-path="url(#clip1_226_8624)">
<path d="M40 0H0V40H40V0Z" fill="#94C748"/>
<path d="M20.4598 17L30.3398 0H10.5898L20.4598 17Z" fill="#82B536"/>
<path d="M30.8895 9.08984H9.76953V36.6098H30.8895V9.08984Z" fill="#AE2A19"/>
<path d="M29.4012 9.08993V7.31993H24.7513C24.4813 6.56993 23.8513 6.04993 22.8513 5.73993C22.1713 5.52993 21.3413 5.42993 20.3413 5.42993C19.3413 5.42993 18.5013 5.52993 17.8313 5.72993C16.7813 6.02993 16.1412 6.56993 15.9012 7.32993H11.2812V9.09993H9.78125V23.6599H30.9012V9.09993H29.4012V9.08993Z" fill="white"/>
<path d="M21.1186 11.67C20.9986 11.47 19.8886 11.47 19.7686 11.67C19.5986 11.96 19.5186 12.26 19.5086 12.66C19.5586 13.1 19.7886 13.21 19.7686 13.51C19.7686 14.02 19.4586 14.87 19.3786 15.08C19.3686 15.11 19.3686 15.14 19.3786 15.17C19.4186 15.39 19.5886 16.35 19.5086 17.17C19.5086 17.75 19.5086 18.11 19.5086 18.3C19.5086 18.75 19.6286 19.08 19.8386 19.4C19.9586 19.58 20.9286 19.58 21.0386 19.4C21.2486 19.07 21.3686 18.74 21.3686 18.3C21.3686 18.13 21.6386 17.77 21.6786 17.26C21.6786 17.18 21.6686 17.09 21.6286 17.01C21.2686 16.3 21.3686 15.38 21.3686 15.38C21.3686 15.38 21.3686 14 21.3686 13.42C21.3686 12.98 21.3686 12.77 21.3686 12.64C21.3686 12.25 21.2686 11.94 21.1086 11.65L21.1186 11.67Z" fill="#101214"/>
<path d="M24.0694 16.02C24.2594 15.9 24.2594 14.79 24.0694 14.67C23.7994 14.5 23.5294 14.42 23.1694 14.41C22.7594 14.46 22.6594 14.69 22.3894 14.67C21.9194 14.67 21.1394 14.36 20.9494 14.28C20.9194 14.27 20.8894 14.27 20.8694 14.28C20.6694 14.32 19.7894 14.49 19.0294 14.41C18.4994 14.41 18.1594 14.41 17.9894 14.41C17.5794 14.41 17.2794 14.53 16.9794 14.74C16.8194 14.86 16.8194 15.83 16.9794 15.94C17.2794 16.15 17.5794 16.27 17.9894 16.27C18.1494 16.27 18.4794 16.54 18.9494 16.58C19.0294 16.58 19.0994 16.57 19.1794 16.53C19.8294 16.17 20.6694 16.27 20.6694 16.27C20.6694 16.27 21.9294 16.27 22.4594 16.27C22.8594 16.27 23.0494 16.27 23.1694 16.27C23.5294 16.27 23.8094 16.17 24.0694 16.01V16.02Z" fill="#101214"/>
<path d="M24.0694 31.6999C24.2594 31.5799 24.2594 30.4699 24.0694 30.3499C23.7994 30.1799 23.5294 30.0999 23.1694 30.0899C22.7594 30.1399 22.6594 30.3699 22.3894 30.3499C21.9194 30.3499 21.1394 30.0399 20.9494 29.9599C20.9194 29.9499 20.8894 29.9499 20.8694 29.9599C20.6694 29.9999 19.7894 30.1699 19.0294 30.0899C18.4994 30.0899 18.1594 30.0899 17.9894 30.0899C17.5794 30.0899 17.2794 30.2099 16.9794 30.4199C16.8194 30.5399 16.8194 31.5099 16.9794 31.6199C17.2794 31.8299 17.5794 31.9499 17.9894 31.9499C18.1494 31.9499 18.4794 32.2199 18.9494 32.2599C19.0294 32.2599 19.0994 32.2499 19.1794 32.2099C19.8294 31.8499 20.6694 31.9499 20.6694 31.9499C20.6694 31.9499 21.9294 31.9499 22.4594 31.9499C22.8594 31.9499 23.0494 31.9499 23.1694 31.9499C23.5294 31.9499 23.8094 31.8499 24.0694 31.6899V31.6999Z" fill="#101214"/>
<path d="M10.9913 36.17C9.21125 36.29 9.21125 37.4 10.9913 37.52C13.5113 37.69 16.1512 37.77 19.5512 37.78C23.4012 37.73 24.3612 37.5 26.9712 37.52C28.2612 37.53 29.7712 37.55 31.5512 37.57C31.5612 36.82 31.5712 36.04 31.5912 35.27C31.6012 34.77 31.6212 34.26 31.6312 33.76C31.6612 32.76 31.7012 31.77 31.7312 30.87C31.8012 29.06 31.8612 27.57 31.8912 26.89C31.9012 26.62 31.9012 26.36 31.8912 26.09C31.8712 25.16 31.8313 22.69 31.7812 19.55C31.7713 17.98 31.7512 16.25 31.7412 14.46C31.7412 12.33 31.7412 10.14 31.7512 8.01001C31.6312 8.01001 31.3612 8.01001 31.0812 8.01001C25.6412 8.01001 22.2813 8.01001 20.5213 8.01001C16.6513 8.01001 13.7613 8.13001 10.9213 8.34001C9.36125 8.46001 9.36125 9.43001 10.9213 9.54001C13.7613 9.75001 16.6513 9.87001 20.5213 9.87001C22.0113 9.87001 25.1812 10.14 29.5512 10.18C29.5512 10.18 29.5512 10.18 29.5612 10.18C29.5612 10.18 29.5812 10.18 29.6012 10.18V10.33L29.6213 10.62L29.6512 11.21C29.6712 11.61 29.6813 12.01 29.7013 12.41C29.7313 13.22 29.7513 14.04 29.7812 14.85C29.8112 16.47 29.8312 18.05 29.8512 19.43C29.8512 22.2 29.8512 24.2 29.8512 24.2V35.89H26.2512C22.4512 35.89 20.6313 35.89 19.5013 35.89C16.1013 35.89 13.4612 35.99 10.9412 36.15L10.9913 36.17Z" fill="#101214"/>
</g>
</g>
<defs>
<clipPath id="clip0_226_8624">
<rect width="40" height="40" fill="white"/>
</clipPath>
<clipPath id="clip1_226_8624">
<rect width="40" height="40" fill="white"/>
</clipPath>
</defs>
</svg>
