<svg width="40" height="40" viewBox="0 0 40 40" fill="none" xmlns="http://www.w3.org/2000/svg">
<g clip-path="url(#clip0_226_8457)">
<g clip-path="url(#clip1_226_8457)">
<path d="M40 0H0V40H40V0Z" fill="#1868DB"/>
<path d="M33.6395 32.98C30.5495 20.39 25.3595 9.89997 20.2695 2.46997L20.5795 32.98H33.6395Z" fill="#AE2A19"/>
<path d="M19.3795 32.9799H6.51953L19.3795 11.1299V32.9799Z" fill="white"/>
<path d="M4.82031 35.1799L8.47031 39.9799L35.2903 40.4699V35.1799H20.0003H4.82031Z" fill="#09326C"/>
<path d="M34.7491 36.3801C35.5291 36.2601 35.5291 35.1501 34.7491 35.0301C33.6491 34.8601 32.4891 34.7801 30.9991 34.7701C29.3091 34.8201 28.8891 35.0501 27.7491 35.0301C25.8191 35.0301 22.5591 34.7201 21.7791 34.6401C21.6591 34.6301 21.5491 34.6301 21.4291 34.6401C20.5991 34.6801 16.9491 34.8501 13.8091 34.7701C11.5891 34.7701 10.2191 34.7701 9.49906 34.7701C7.80906 34.7701 6.53906 34.8901 5.29906 35.1001C4.61906 35.2201 4.61906 36.1901 5.29906 36.3001C6.53906 36.5101 7.80906 36.6301 9.49906 36.6301C10.1591 36.6301 11.5291 36.9001 13.4591 36.9401C13.7791 36.9401 14.0891 36.9301 14.3991 36.8901C17.0991 36.5301 20.5991 36.6301 20.5991 36.6301C20.5991 36.6301 25.8291 36.6301 28.0291 36.6301C29.6891 36.6301 30.4891 36.6301 30.9791 36.6301C32.4691 36.6301 33.6291 36.5301 34.7291 36.3701L34.7491 36.3801Z" fill="#101214"/>
<path d="M20.6694 2.92008C20.5494 2.05008 19.4394 2.05008 19.3194 2.92008C19.1494 4.15008 19.0694 5.44008 19.0594 7.09008C19.1094 8.97008 19.3394 9.43008 19.3194 10.7101C19.3194 12.8601 19.0094 16.4901 18.9294 17.3601C18.9194 17.4901 18.9194 17.6201 18.9294 17.7501C18.9694 18.6801 19.1394 22.7401 19.0594 26.2301C19.0594 28.7001 19.0594 30.2301 19.0594 31.0301C19.0594 32.9201 19.1794 34.3201 19.3894 35.7101C19.5094 36.4701 20.4794 36.4701 20.5894 35.7101C20.7994 34.3301 20.9194 32.9201 20.9194 31.0301C20.9194 30.3001 21.1894 28.7701 21.2294 26.6201C21.2294 26.2701 21.2194 25.9201 21.1794 25.5701C20.8194 22.5701 20.9194 18.6601 20.9194 18.6601C20.9194 18.6601 20.9194 12.8401 20.9194 10.3801C20.9194 8.53008 20.9194 7.64008 20.9194 7.09008C20.9194 5.43008 20.8194 4.14008 20.6594 2.92008H20.6694Z" fill="#101214"/>
<path d="M20.1773 9.68003C20.0273 9.84003 20.4373 10.88 20.4973 10.99C20.5973 11.13 20.7473 11.21 20.9373 11.2C21.1573 11.14 21.2073 10.9 21.3673 10.93C21.6373 10.93 22.1073 11.24 22.2173 11.32C22.2373 11.33 22.2473 11.33 22.2673 11.32C22.3873 11.28 22.9173 11.12 23.3773 11.22C23.6973 11.23 23.8973 11.24 24.0073 11.24C24.2573 11.24 24.4473 11.14 24.6473 10.94C24.7573 10.83 24.8173 9.86003 24.7173 9.74003C24.5473 9.52003 24.3673 9.39003 24.1073 9.37003C24.0073 9.37003 23.8173 9.09003 23.5273 9.03003C23.4773 9.03003 23.4273 9.03003 23.3873 9.08003C22.9673 9.42003 22.4373 9.31003 22.4373 9.31003C22.4373 9.31003 21.6473 9.29003 21.2973 9.31003C21.0273 9.32003 20.9073 9.33003 20.8273 9.33003C20.5773 9.36003 20.3873 9.46003 20.1973 9.68003H20.1773Z" fill="#101214"/>
<path d="M20.3292 19.89C19.9492 20.08 20.4692 21.11 20.5292 21.22C20.7992 21.36 21.1692 21.43 21.6192 21.42C22.1292 21.35 22.2692 21.13 22.6192 21.15C23.2192 21.15 24.2392 21.46 24.4792 21.54C24.5192 21.55 24.5492 21.55 24.5892 21.54C24.8492 21.5 25.9892 21.34 26.9692 21.44C27.6592 21.45 28.0892 21.46 28.3192 21.46C28.8492 21.46 29.2492 21.36 29.6292 21.16C29.8292 21.05 29.9092 20.08 29.6792 19.96C29.2892 19.73 28.8892 19.61 28.3592 19.59C28.1492 19.59 27.7292 19.31 27.1192 19.25C27.0192 19.25 26.9192 19.25 26.8192 19.3C25.9592 19.65 24.8592 19.53 24.8592 19.53C24.8592 19.53 23.2092 19.53 22.5092 19.52C21.9792 19.53 21.7292 19.54 21.5692 19.54C21.0892 19.56 20.7292 19.66 20.3292 19.87V19.89Z" fill="#101214"/>
<path d="M20.4082 29.4C19.9082 29.6 20.4682 30.63 20.5582 30.74C20.9582 30.88 21.4282 30.95 22.0282 30.94C22.7082 30.88 22.8782 30.65 23.3382 30.67C24.1282 30.67 25.4482 30.98 25.7682 31.06C25.8182 31.07 25.8582 31.07 25.9082 31.06C26.2482 31.02 27.7382 30.86 29.0182 30.96C29.9282 30.97 30.4882 30.98 30.7782 30.98C31.4682 30.98 31.9882 30.88 32.4882 30.69C32.7482 30.58 32.8282 29.62 32.5382 29.49C32.0282 29.26 31.5082 29.14 30.8182 29.12C30.5482 29.12 29.9882 28.84 29.1982 28.78C29.0682 28.78 28.9382 28.78 28.8082 28.83C27.6982 29.18 26.2582 29.07 26.2582 29.07C26.2582 29.07 24.1082 29.07 23.2082 29.06C22.5182 29.07 22.1882 29.08 21.9882 29.08C21.3682 29.1 20.8982 29.2 20.4082 29.41V29.4Z" fill="#101214"/>
</g>
</g>
<defs>
<clipPath id="clip0_226_8457">
<rect width="40" height="40" fill="white"/>
</clipPath>
<clipPath id="clip1_226_8457">
<rect width="40" height="40" fill="white"/>
</clipPath>
</defs>
</svg>
