<svg width="40" height="40" viewBox="0 0 40 40" fill="none" xmlns="http://www.w3.org/2000/svg">
<g clip-path="url(#clip0_226_8707)">
<g clip-path="url(#clip1_226_8707)">
<path d="M40 0H0V40H40V0Z" fill="#94C748"/>
<path d="M18.1702 33.0701H11.4302L11.4102 37.7401L14.7302 35.3301L18.0502 37.7401L18.1702 33.0701Z" fill="#164B35"/>
<path d="M10.3125 3.86011V4.77011H31.3525V30.9101H32.3825V3.86011H10.3125Z" fill="#AE2A19"/>
<path d="M10.3131 4.77002L9.70312 6.21002H29.5831V31.61H31.3531V4.77002H10.3131Z" fill="white"/>
<path d="M7.51172 6.21011L10.3117 3.86011L12.0017 4.24011L9.20172 6.98011L7.51172 6.21011Z" fill="#AE2A19"/>
<path d="M29.5817 6.21021H7.51172V33.2602H29.5817V6.21021Z" fill="#AE2A19"/>
<path d="M12.2117 18.0102C11.8617 18.1302 11.8617 19.2402 12.2117 19.3602C12.7017 19.5302 13.2117 19.6102 13.8817 19.6202C14.6317 19.5702 14.8217 19.3402 15.3217 19.3602C16.1817 19.3602 17.6317 19.6702 17.9817 19.7502C18.0317 19.7602 18.0817 19.7602 18.1317 19.7502C18.5017 19.7102 20.1217 19.5402 21.5217 19.6202C22.5117 19.6202 23.1217 19.6202 23.4417 19.6202C24.1917 19.6202 24.7617 19.5002 25.3117 19.2902C25.6117 19.1702 25.6117 18.2002 25.3117 18.0902C24.7617 17.8802 24.1917 17.7602 23.4417 17.7602C23.1517 17.7602 22.5417 17.4902 21.6817 17.4502C21.5417 17.4502 21.4017 17.4602 21.2617 17.5002C20.0617 17.8602 18.5017 17.7602 18.5017 17.7602C18.5017 17.7602 16.1817 17.7602 15.1917 17.7602C14.4517 17.7602 14.1017 17.7602 13.8817 17.7602C13.2217 17.7602 12.7017 17.8602 12.2117 18.0202V18.0102Z" fill="#101214"/>
<path d="M29.603 30.57C29.523 30.69 29.523 31.8 29.603 31.92C29.713 32.09 29.833 32.17 29.983 32.18C30.153 32.13 30.203 31.9 30.313 31.92C30.513 31.92 30.843 32.23 30.923 32.31C30.933 32.32 30.943 32.32 30.963 32.31C31.043 32.27 31.423 32.1 31.743 32.18C31.973 32.18 32.113 32.18 32.183 32.18C32.353 32.18 32.483 32.06 32.613 31.85C32.683 31.73 32.683 30.76 32.613 30.65C32.483 30.44 32.353 30.32 32.183 30.32C32.113 30.32 31.973 30.05 31.773 30.01C31.743 30.01 31.713 30.02 31.673 30.06C31.393 30.42 31.043 30.32 31.043 30.32C31.043 30.32 30.513 30.32 30.283 30.32C30.113 30.32 30.033 30.32 29.983 30.32C29.833 30.32 29.713 30.42 29.603 30.58V30.57Z" fill="#101214"/>
<path d="M32.1413 4.92011C32.7313 4.80011 32.7313 3.69011 32.1413 3.57011C31.3013 3.40011 30.4113 3.32011 29.2713 3.31011C27.9813 3.36011 27.6613 3.59011 26.7813 3.57011C25.3013 3.57011 22.8113 3.26011 22.2113 3.18011C22.1213 3.17011 22.0313 3.17011 21.9413 3.18011C21.3013 3.22011 18.5113 3.39011 16.1113 3.31011C14.4113 3.31011 13.3613 3.31011 12.8113 3.31011C12.4213 3.31011 12.0413 3.32011 11.7513 3.32011C10.9713 4.14011 10.8613 4.31011 10.5713 4.69011C10.3113 5.03011 10.0913 5.36011 9.88127 5.70011C9.60127 6.16011 10.2913 6.83011 10.7413 6.54011C11.0713 6.32011 11.4013 6.09011 11.7313 5.83011C11.8913 5.69011 12.0613 5.55011 12.2413 5.41011C12.4713 5.21011 12.4613 5.23011 12.5313 5.17011C12.5513 5.17011 12.5813 5.17011 12.6113 5.18011C12.6313 5.18011 12.6513 5.18011 12.8013 5.18011C13.3013 5.18011 14.3513 5.45011 15.8413 5.49011C16.0813 5.49011 16.3213 5.48011 16.5613 5.44011C18.6313 5.08011 21.3113 5.18011 21.3113 5.18011C21.3113 5.18011 25.3113 5.18011 27.0013 5.18011C28.2713 5.18011 28.8813 5.18011 29.2613 5.18011C30.4013 5.18011 31.2913 5.08011 32.1313 4.92011H32.1413Z" fill="#101214"/>
<path d="M12.1403 22.09C11.8803 22.21 11.8803 23.32 12.1403 23.44C12.5003 23.61 12.8803 23.69 13.3703 23.7C13.9303 23.65 14.0603 23.42 14.4403 23.44C15.0803 23.44 16.1503 23.75 16.4103 23.83C16.4503 23.84 16.4903 23.84 16.5203 23.83C16.7903 23.79 17.9903 23.62 19.0303 23.7C19.7603 23.7 20.2103 23.7 20.4503 23.7C21.0103 23.7 21.4203 23.58 21.8303 23.37C22.0603 23.25 22.0603 22.28 21.8303 22.17C21.4203 21.96 21.0003 21.84 20.4503 21.84C20.2303 21.84 19.7803 21.57 19.1403 21.53C19.0403 21.53 18.9303 21.54 18.8303 21.58C17.9403 21.94 16.7903 21.84 16.7903 21.84C16.7903 21.84 15.0703 21.84 14.3403 21.84C13.7903 21.84 13.5303 21.84 13.3703 21.84C12.8803 21.84 12.5003 21.94 12.1403 22.1V22.09Z" fill="#101214"/>
<path d="M25.9514 15.97L25.1714 11.01L11.6914 11.56V15.97H25.9514Z" fill="white"/>
<path d="M25.1714 11.01L11.6914 11.56V13.49H25.5614L25.1714 11.01Z" fill="#164B35"/>
</g>
</g>
<defs>
<clipPath id="clip0_226_8707">
<rect width="40" height="40" fill="white"/>
</clipPath>
<clipPath id="clip1_226_8707">
<rect width="40" height="40" fill="white"/>
</clipPath>
</defs>
</svg>
