<svg width="40" height="40" viewBox="0 0 40 40" fill="none" xmlns="http://www.w3.org/2000/svg">
<g clip-path="url(#clip0_226_8286)">
<g clip-path="url(#clip1_226_8286)">
<path d="M40 0H0V40H40V0Z" fill="#BF63F3"/>
<path d="M5.60156 7.51001V32.61H34.3916V7.51001H5.60156Z" fill="white"/>
<path d="M15.3024 33.4099C15.3124 33.1799 14.4024 32.5299 14.1924 32.6499C13.8824 32.8099 13.6324 33.0299 13.4124 33.3799C13.2124 33.8099 13.3724 34.0199 13.2024 34.2899C12.9524 34.7499 12.3024 35.4399 12.1524 35.6099C12.1324 35.6399 12.1124 35.6599 12.1124 35.6999C12.0624 35.9299 11.8524 36.9299 11.5524 37.7299C11.3824 38.3199 11.3024 38.6799 11.2624 38.8699C11.1724 39.3199 11.2124 39.6899 11.3624 40.0499C11.4424 40.2499 12.4024 40.4099 12.5524 40.2599C12.8124 39.9899 12.9924 39.6999 13.0924 39.2899C13.1324 39.1299 13.4624 38.8599 13.6424 38.4199C13.6724 38.3499 13.6724 38.2699 13.6524 38.1799C13.4824 37.4299 13.9024 36.6499 13.9024 36.6499C13.9024 36.6499 14.0324 36.3499 14.1824 35.9899C14.3424 35.6299 14.5524 35.2199 14.6824 34.9799C14.8724 34.6199 14.9724 34.4499 15.0324 34.3399C15.2124 34.0199 15.2924 33.7399 15.3124 33.4099H15.3024Z" fill="#101214"/>
<path d="M27.3817 40.2C27.5317 40.37 28.6317 40.1899 28.7117 39.9599C28.8217 39.6399 28.8517 39.3099 28.7717 38.9199C28.6117 38.4799 28.3617 38.43 28.3117 38.13C28.1817 37.63 28.2017 36.7 28.1917 36.46C28.1917 36.43 28.1917 36.39 28.1717 36.37C28.0517 36.16 27.5417 35.3 27.2217 34.49C26.9417 33.95 26.7517 33.62 26.6517 33.45C26.4117 33.05 26.1217 32.82 25.7517 32.66C25.5517 32.57 24.7617 33.14 24.7617 33.34C24.7617 33.72 24.8417 34.03 25.0417 34.4C25.1217 34.54 25.0617 34.96 25.2317 35.4C25.2617 35.47 25.3117 35.53 25.3817 35.58C26.0017 36.01 26.2217 36.8699 26.2217 36.8699C26.2217 36.8699 26.3317 37.17 26.4617 37.54C26.5817 37.91 26.7117 38.3499 26.7817 38.6199C26.8817 39.0199 26.9317 39.21 26.9617 39.33C27.0517 39.69 27.1917 39.95 27.4017 40.2H27.3817Z" fill="#101214"/>
<path d="M7.60156 9.51001V18.5L9.09156 16.4C10.8616 13.9 14.5816 13.9 16.3516 16.4L19.1616 20.37C20.7316 22.58 23.8916 22.89 25.8516 21.03C27.4216 19.54 29.7916 19.43 31.4916 20.66V9.52001H7.60156V9.51001Z" fill="#1868DB"/>
<path d="M24.612 16.55C24.642 16.38 24.662 16.19 24.662 16C24.662 15.81 24.642 15.61 24.612 15.44C24.422 14.39 23.702 13.75 22.682 13.58C22.512 13.55 22.322 13.54 22.132 13.54C21.942 13.54 21.742 13.56 21.562 13.59C20.542 13.76 19.822 14.4 19.632 15.44C19.602 15.62 19.582 15.8 19.582 16C19.582 16.2 19.602 16.38 19.632 16.55C19.822 17.59 20.542 18.23 21.562 18.4C21.742 18.43 21.932 18.45 22.132 18.45C22.332 18.45 22.502 18.44 22.682 18.41C23.702 18.24 24.432 17.6 24.612 16.55Z" fill="white"/>
<path d="M31.5033 30.6099V20.6499C29.7933 19.4199 27.4233 19.5399 25.8633 21.0199C23.9033 22.8799 20.7333 22.5699 19.1733 20.3599L16.3633 16.3899C14.5933 13.8899 10.8733 13.8899 9.10328 16.3899L7.61328 18.4899V30.5999H31.5133L31.5033 30.6099Z" fill="#D8A0F7"/>
<path d="M20.5912 3.85998C20.4712 3.76998 19.3612 3.76998 19.2412 3.85998C19.0712 3.98998 18.9912 4.13998 18.9812 4.31998C19.0312 4.52998 19.2612 4.57998 19.2412 4.71998C19.2412 4.95998 18.9312 5.34998 18.8512 5.44998C18.8413 5.45998 18.8413 5.47998 18.8512 5.48998C18.8912 5.58998 19.0612 6.03998 18.9812 6.41998C18.9812 6.68998 18.9812 6.85998 18.9812 6.94998C18.9812 7.15998 19.1012 7.30998 19.3112 7.45998C19.4312 7.53998 20.4012 7.53998 20.5112 7.45998C20.7212 7.30998 20.8412 7.14998 20.8412 6.94998C20.8412 6.86998 21.1112 6.69998 21.1512 6.46998C21.1512 6.42998 21.1412 6.38998 21.1012 6.35998C20.7412 6.02998 20.8412 5.59998 20.8412 5.59998C20.8412 5.59998 20.8412 4.95998 20.8412 4.68998C20.8412 4.48998 20.8412 4.38998 20.8412 4.32998C20.8412 4.14998 20.7412 4.00998 20.5812 3.86998L20.5912 3.85998Z" fill="#101214"/>
<path d="M6.63297 32.03C5.26297 32.15 5.26297 33.26 6.63297 33.38C8.57297 33.55 10.623 33.63 13.243 33.64C16.223 33.59 16.963 33.36 18.973 33.38C22.383 33.38 28.123 33.69 29.513 33.77C29.713 33.78 29.923 33.78 30.133 33.77C30.363 33.77 30.723 33.76 31.373 33.74C32.263 33.74 33.553 33.72 35.483 33.7C35.473 32.92 35.443 31.16 35.413 28.98C35.393 27.31 35.393 25.31 35.413 23.42C35.413 19.51 35.413 17.08 35.413 15.82C35.413 12.83 35.293 10.6 35.083 8.41001C34.963 7.21001 33.993 7.21001 33.883 8.41001C33.673 10.6 33.553 12.84 33.553 15.82C33.553 16.98 33.283 19.4 33.243 22.82C33.243 23.38 33.253 23.93 33.293 24.48C33.403 25.87 33.463 27.37 33.503 28.79C33.523 29.9 33.543 30.94 33.563 31.76C32.343 31.76 31.583 31.75 31.583 31.75C31.583 31.75 22.353 31.75 18.463 31.75C15.533 31.75 14.123 31.75 13.253 31.75C10.623 31.75 8.58297 31.85 6.64297 32.01L6.63297 32.03Z" fill="#101214"/>
</g>
</g>
<defs>
<clipPath id="clip0_226_8286">
<rect width="40" height="40" fill="white"/>
</clipPath>
<clipPath id="clip1_226_8286">
<rect width="40" height="40" fill="white"/>
</clipPath>
</defs>
</svg>
