<svg width="40" height="40" viewBox="0 0 40 40" fill="none" xmlns="http://www.w3.org/2000/svg">
<g clip-path="url(#clip0_226_8658)">
<g clip-path="url(#clip1_226_8658)">
<path d="M40 0H0V40H40V0Z" fill="#164B35"/>
<path d="M33.4305 26.8101C32.9005 25.6601 32.2605 24.6401 31.5005 23.7801C31.9905 23.2101 32.4105 22.5701 32.7405 21.8701C33.3705 20.5601 33.7205 19.0301 33.7205 17.2301C33.7205 15.4301 33.3605 13.8601 32.7205 12.5301C32.6405 12.3601 32.5305 12.2001 32.4405 12.0401L30.4605 1.36011L24.1005 6.80011C22.8405 6.57011 21.5105 6.45011 20.1405 6.45011C20.0905 6.45011 20.0505 6.45011 20.0005 6.45011C19.9505 6.45011 19.9105 6.45011 19.8605 6.45011C18.4905 6.45011 17.1605 6.57011 15.9005 6.80011L9.54047 1.37011L7.56047 12.0401C7.47047 12.2101 7.37047 12.3601 7.28047 12.5401C6.65047 13.8601 6.28047 15.4201 6.28047 17.2401C6.28047 19.0601 6.64047 20.5701 7.26047 21.8801C7.60047 22.5801 8.02047 23.2201 8.50047 23.7901C7.73047 24.6501 7.09047 25.6701 6.57047 26.8201C5.39047 29.3101 4.73047 32.4901 4.73047 36.5001V40.1401H35.2605V36.5001C35.2605 32.4801 34.6005 29.3101 33.4205 26.8201L33.4305 26.8101Z" fill="#FFC716"/>
<path d="M28.4694 39.2501C28.4694 34.4601 25.1794 31.3301 20.1694 31.3401C15.1594 31.3501 11.8594 34.5001 11.8594 39.2601C11.8594 39.5601 11.8694 39.8501 11.8994 40.1401H28.4394C28.4594 39.8501 28.4794 39.5601 28.4794 39.2601L28.4694 39.2501Z" fill="#FCA700"/>
<path d="M27.0589 14.9602C27.1889 15.0002 28.2989 14.8402 28.3689 14.6302C28.4689 14.3502 28.4489 14.0102 28.2189 13.6702C27.8989 13.3302 27.6489 13.4502 27.4489 13.2602C27.0989 12.9702 26.3989 12.5102 26.2189 12.4402C26.1889 12.4302 26.1689 12.4202 26.1389 12.4302C25.9189 12.4502 25.1389 12.5702 24.3789 12.8802C23.8589 13.1602 23.6189 13.4902 23.4989 13.6402C23.2389 14.0302 23.2289 14.4102 23.3789 14.7202C23.4589 14.9002 24.4289 15.0202 24.5589 14.9702C24.7989 14.8702 24.9389 14.8302 25.0089 14.7402C25.0489 14.6902 25.2889 14.8202 25.3789 14.8302C25.3989 14.8302 25.3989 14.8102 25.3989 14.7602C25.3989 14.5602 25.5389 14.4402 25.6689 14.4302C25.7989 14.3902 25.8989 14.4202 25.8989 14.4302C25.8989 14.4302 26.0489 14.4302 26.1989 14.4602C26.3489 14.4902 26.4789 14.5602 26.5389 14.6102C26.6389 14.6802 26.6689 14.7202 26.6889 14.7502C26.7589 14.8302 26.8689 14.8702 27.0589 14.9502V14.9602Z" fill="#101214"/>
<path d="M15.3714 14.9602C15.5014 15.0002 16.6114 14.8402 16.6814 14.6302C16.7814 14.3502 16.7614 14.0102 16.5314 13.6702C16.2114 13.3302 15.9614 13.4502 15.7614 13.2602C15.4114 12.9702 14.7114 12.5102 14.5314 12.4402C14.5014 12.4302 14.4814 12.4202 14.4514 12.4302C14.2314 12.4502 13.4514 12.5702 12.6914 12.8802C12.1714 13.1602 11.9314 13.4902 11.8114 13.6402C11.5514 14.0302 11.5414 14.4102 11.6914 14.7202C11.7714 14.9002 12.7414 15.0202 12.8714 14.9702C13.1114 14.8702 13.2514 14.8302 13.3214 14.7402C13.3614 14.6902 13.6014 14.8202 13.6914 14.8302C13.7114 14.8302 13.7114 14.8102 13.7114 14.7602C13.7114 14.5602 13.8514 14.4402 13.9914 14.4302C14.1214 14.3902 14.2214 14.4202 14.2214 14.4302C14.2214 14.4302 14.3714 14.4302 14.5214 14.4602C14.6714 14.4902 14.8014 14.5602 14.8614 14.6102C14.9614 14.6802 14.9914 14.7202 15.0114 14.7502C15.0814 14.8302 15.1914 14.8702 15.3814 14.9502L15.3714 14.9602Z" fill="#101214"/>
<path d="M13.7412 17.5901C13.5812 17.4301 12.4712 17.5901 12.4312 17.9201C12.3712 18.3701 12.4612 18.8801 12.8212 19.4101C13.3012 19.9601 13.6112 19.8801 13.9512 20.1701C14.5512 20.6501 15.7512 21.2301 16.0612 21.2801C16.1012 21.2901 16.1512 21.3001 16.1912 21.3001C16.3512 21.3001 16.7912 21.2801 17.3312 21.1701C17.8612 21.1101 18.5212 20.9101 19.1212 20.6401C19.9512 20.2001 20.3312 19.6901 20.5012 19.4501C20.9212 18.8501 20.9912 18.2701 20.8812 17.7701C20.8212 17.4801 19.8512 17.3701 19.7012 17.5201C19.4212 17.8101 19.2112 18.0401 18.9912 18.3401C18.8912 18.4701 18.5112 18.5201 18.1612 18.6601C18.1012 18.6801 18.0512 18.7301 18.0112 18.8001C17.8212 19.0901 17.4412 19.2701 17.1112 19.2901C16.7912 19.3501 16.5612 19.3201 16.5612 19.3101C16.5612 19.3101 16.4712 19.3101 16.3312 19.2901C16.1912 19.2901 16.0012 19.2801 15.8012 19.2301C15.4012 19.1501 15.0112 18.9501 14.8112 18.8001C14.5012 18.5801 14.4112 18.4201 14.3412 18.3301C14.1412 18.0601 13.9612 17.8401 13.7312 17.6001L13.7412 17.5901Z" fill="#101214"/>
<path d="M20.5693 17.5901C20.4093 17.4301 19.2993 17.5901 19.2593 17.9201C19.1993 18.3701 19.2893 18.8801 19.6493 19.4101C20.1293 19.9601 20.4393 19.8801 20.7793 20.1701C21.3793 20.6501 22.5793 21.2301 22.8893 21.2801C22.9293 21.2901 22.9793 21.3001 23.0293 21.3001C23.1893 21.3001 23.6293 21.2801 24.1693 21.1701C24.6993 21.1101 25.3593 20.9101 25.9593 20.6401C26.7893 20.2001 27.1693 19.6901 27.3393 19.4501C27.7593 18.8501 27.8293 18.2701 27.7193 17.7701C27.6593 17.4801 26.6893 17.3701 26.5393 17.5201C26.2593 17.8101 26.0493 18.0401 25.8293 18.3401C25.7293 18.4701 25.3493 18.5201 24.9993 18.6601C24.9393 18.6801 24.8893 18.7301 24.8493 18.8001C24.6593 19.0901 24.2793 19.2701 23.9493 19.2901C23.6293 19.3501 23.3993 19.3201 23.3993 19.3101C23.3993 19.3101 23.3093 19.3101 23.1693 19.2901C23.0293 19.2901 22.8393 19.2801 22.6393 19.2301C22.2393 19.1501 21.8493 18.9501 21.6493 18.8001C21.3393 18.5801 21.2493 18.4201 21.1793 18.3301C20.9793 18.0601 20.7993 17.8401 20.5693 17.6001V17.5901Z" fill="#101214"/>
<path d="M21.4008 15.0801H18.8008L20.1008 17.4801L21.4008 15.0801Z" fill="#164B35"/>
<path d="M9.54031 1.37012L10.7803 8.60012L7.82031 10.5401L9.54031 1.37012Z" fill="white"/>
<path d="M30.4392 1.37012L29.1992 8.60012L32.1592 10.5401L30.4392 1.37012Z" fill="white"/>
</g>
</g>
<defs>
<clipPath id="clip0_226_8658">
<rect width="40" height="40" fill="white"/>
</clipPath>
<clipPath id="clip1_226_8658">
<rect width="40" height="40" fill="white"/>
</clipPath>
</defs>
</svg>
