<svg width="40" height="40" viewBox="0 0 40 40" fill="none" xmlns="http://www.w3.org/2000/svg">
<g clip-path="url(#clip0_226_8543)">
<g clip-path="url(#clip1_226_8543)">
<path d="M39.9688 -0.0400391H-0.03125V39.96H39.9688V-0.0400391Z" fill="#AE2A19"/>
<path d="M18.5023 -0.0400391L13.9023 14.62L27.0123 27.72L39.9723 23.65V-0.0400391H18.5023Z" fill="#D8A0F7"/>
<path d="M28.5017 29.25L28.5117 29.22L12.0717 12.78L12.0417 12.79L4.51172 36.78L28.5017 29.25Z" fill="white"/>
<path d="M4.51172 36.7801L20.9817 31.6101L9.68172 20.3201L4.51172 36.7801Z" fill="#BF63F3"/>
<path d="M19.898 11.1839L17.2539 11.7305L17.8005 14.3746L20.4446 13.828L19.898 11.1839Z" fill="#AE2A19"/>
<path d="M37.2027 15.8548L34.5586 16.4014L35.1052 19.0455L37.7493 18.4989L37.2027 15.8548Z" fill="#AE2A19"/>
<path d="M29.9822 23.78C30.0022 23.69 30.0022 23.6 30.0022 23.5C30.0022 23.4 30.0022 23.31 29.9822 23.22C29.8922 22.7 29.5322 22.38 29.0222 22.3C28.9322 22.29 28.8422 22.28 28.7522 22.28C28.6622 22.28 28.5622 22.28 28.4722 22.3C27.9622 22.38 27.6022 22.7 27.5122 23.22C27.4922 23.31 27.4922 23.4 27.4922 23.5C27.4922 23.6 27.4922 23.69 27.5122 23.78C27.6022 24.3 27.9622 24.62 28.4722 24.7C28.5622 24.71 28.6522 24.72 28.7522 24.72C28.8522 24.72 28.9422 24.72 29.0222 24.7C29.5322 24.62 29.8922 24.3 29.9822 23.78Z" fill="white"/>
<path d="M36.9119 3.09985C36.9319 3.00985 36.9319 2.91985 36.9319 2.81985C36.9319 2.71985 36.9319 2.62985 36.9119 2.53985C36.8219 2.01985 36.4619 1.69985 35.9519 1.61985C35.8619 1.60985 35.7719 1.59985 35.6819 1.59985C35.5919 1.59985 35.4919 1.59985 35.4019 1.61985C34.8919 1.69985 34.5319 2.01985 34.4419 2.53985C34.4219 2.62985 34.4219 2.71985 34.4219 2.81985C34.4219 2.91985 34.4219 3.00985 34.4419 3.09985C34.5319 3.61985 34.8919 3.93985 35.4019 4.01985C35.4919 4.02985 35.5819 4.03985 35.6819 4.03985C35.7819 4.03985 35.8719 4.03985 35.9519 4.01985C36.4619 3.93985 36.8219 3.61985 36.9119 3.09985Z" fill="white"/>
<path d="M27.4119 10.97C27.4319 10.88 27.4319 10.79 27.4319 10.69C27.4319 10.59 27.4319 10.5 27.4119 10.41C27.3219 9.88997 26.9619 9.56997 26.4519 9.48997C26.3619 9.47997 26.2719 9.46997 26.1819 9.46997C26.0919 9.46997 25.9919 9.46997 25.9019 9.48997C25.3919 9.56997 25.0319 9.88997 24.9419 10.41C24.9219 10.5 24.9219 10.59 24.9219 10.69C24.9219 10.79 24.9219 10.88 24.9419 10.97C25.0319 11.49 25.3919 11.81 25.9019 11.89C25.9919 11.9 26.0819 11.91 26.1819 11.91C26.2819 11.91 26.3719 11.91 26.4519 11.89C26.9619 11.81 27.3219 11.49 27.4119 10.97Z" fill="white"/>
<path d="M23.8725 16.8098C23.3125 16.6598 22.8525 17.6798 23.2625 18.0098C23.8525 18.4898 24.5225 18.9898 25.6025 19.4298C26.2325 19.6398 26.6925 19.6598 27.0825 19.6698C27.4825 19.6498 27.8225 19.6298 28.3225 19.5498C29.2025 19.4298 30.2725 18.7698 30.8525 17.9398C31.1625 17.5298 31.3925 17.0798 31.5125 16.6398C31.6425 16.1998 31.6525 15.7698 31.6025 15.5098C31.5825 15.3598 31.5425 15.2098 31.4725 15.0598C31.2925 14.5098 30.0725 13.1998 28.3425 13.7898C27.5625 14.0698 26.9225 14.6998 26.6225 15.5198C26.3125 16.3498 26.4625 17.3398 26.9125 18.0398C27.5925 18.9898 28.3425 19.2898 28.8525 19.5498C29.3925 19.7898 29.7825 19.8898 30.0525 19.9598C31.3225 20.2798 32.2825 20.2498 33.2025 20.0798C33.7225 19.9698 33.6825 18.9998 33.2425 18.8798C32.4225 18.6298 31.5925 18.4398 30.5425 18.1598C30.3425 18.0998 30.0425 17.9498 29.7125 17.7298C29.3825 17.5198 29.0125 17.2098 28.8225 16.9398C28.7425 16.8498 28.7125 16.7898 28.6225 16.7198C28.4625 16.5698 28.4025 16.3498 28.4725 16.0998C28.5525 15.8598 28.7625 15.6498 28.9425 15.5998C29.2925 15.4698 29.5525 15.7598 29.5225 15.7198C29.5225 15.7198 29.5825 15.7598 29.6225 15.8598C29.6725 15.9398 29.6925 16.2398 29.5325 16.6198C29.3825 16.9898 29.0925 17.3998 28.7825 17.6198C28.4725 17.8698 28.1525 17.9598 27.8825 17.9898C27.0525 18.0498 26.5325 17.7698 26.2625 17.6998C25.3825 17.3598 24.6425 17.0298 23.8725 16.8298V16.8098Z" fill="#101214"/>
<path d="M22.381 9.55992C22.591 9.72992 23.601 9.23992 23.591 8.95992C23.581 8.56992 23.581 8.32992 23.591 8.14992C23.541 7.92992 23.381 7.71992 23.501 7.52992C23.591 7.34992 23.791 7.25992 24.061 7.19992C24.331 7.13992 24.711 7.07992 24.871 7.02992C24.921 7.01992 24.961 6.99992 25.001 6.96992C25.121 6.85992 25.611 6.54992 25.981 5.90992C26.311 5.29992 26.531 4.53992 26.421 3.71992C26.311 3.16992 26.131 2.84992 26.031 2.63992C25.941 2.45992 25.881 2.31992 25.831 2.22992C25.691 1.88992 25.581 1.82992 25.441 1.48992C25.361 1.32992 24.461 0.93992 24.271 1.18992C23.921 1.58992 23.821 2.32992 24.111 2.96992C24.191 3.19992 24.251 3.81992 24.261 4.07992C24.261 4.12992 24.281 4.14992 24.331 4.18992C24.531 4.31992 24.501 4.71992 24.391 4.89992C24.301 5.07992 24.131 5.15992 24.131 5.15992C24.131 5.15992 23.941 5.29992 23.431 5.53992C23.181 5.66992 22.861 5.84992 22.581 6.10992C22.301 6.35992 22.111 6.67992 22.001 6.89992C21.701 7.56992 21.711 7.95992 21.711 8.18992C21.741 8.91992 22.081 9.34992 22.371 9.57992L22.381 9.55992Z" fill="#101214"/>
<path d="M39.3601 7.45002C39.4201 7.17002 38.5301 6.50002 38.2801 6.65002C37.9201 6.86002 37.6901 6.99002 37.4901 7.08002C37.2801 7.24002 37.1501 7.48002 36.9001 7.46002C36.6801 7.46002 36.4701 7.31002 36.2801 7.09002C36.0801 6.86002 35.8401 6.54002 35.7101 6.41002C35.6701 6.37002 35.6401 6.34002 35.5901 6.32002C35.4301 6.25002 34.9101 5.95002 34.1301 5.91002C33.7501 5.90002 33.3801 5.93002 33.0001 6.03002C32.6201 6.13002 32.2101 6.30002 31.8701 6.54002C31.4101 6.90002 31.2001 7.23002 31.0401 7.43002C30.9101 7.61002 30.8101 7.74002 30.7401 7.83002C30.4801 8.14002 30.4501 8.28002 30.1801 8.57002C30.0601 8.72002 30.1301 9.69002 30.4501 9.74002C30.9901 9.86002 31.7301 9.59002 32.1801 9.02002C32.3601 8.83002 32.9001 8.47002 33.1601 8.31002C33.2001 8.28002 33.2301 8.25002 33.2401 8.18002C33.2901 7.93002 33.7001 7.77002 33.9301 7.78002C34.1601 7.78002 34.3201 7.91002 34.3201 7.91002C34.3201 7.91002 34.5601 8.03002 35.0301 8.40002C35.2701 8.57002 35.6001 8.79002 35.9801 8.92002C36.3501 9.06002 36.7301 9.08002 36.9901 9.08002C37.7601 9.04002 38.1201 8.84002 38.3401 8.73002C39.0101 8.35002 39.2401 7.83002 39.3401 7.44002L39.3601 7.45002Z" fill="#101214"/>
<path d="M12.4219 14C12.6919 12.75 11.6319 12.42 11.1319 13.6C10.4319 15.27 9.78187 17.06 9.04187 19.38C8.26187 22.03 8.28187 22.76 7.69187 24.54C6.74187 27.56 4.85187 32.56 4.39187 33.77C4.32187 33.95 4.26187 34.13 4.21187 34.31C4.07187 34.77 3.84188 35.52 2.92188 38.54C3.83188 38.24 6.03188 37.5 8.77188 36.58C10.5519 35.99 12.6919 35.3 14.7119 34.7C18.1819 33.6 20.3219 32.92 21.4419 32.56C24.0819 31.71 26.0319 30.98 27.9019 30.16C28.9319 29.71 28.6419 28.79 27.5419 29.01C25.5319 29.42 23.5219 29.94 20.8719 30.77C19.8419 31.09 17.6219 31.52 14.5819 32.43C14.0819 32.58 13.6019 32.75 13.1219 32.95C11.5519 33.59 9.78187 34.23 8.20187 34.77C7.54187 34.99 6.92188 35.2 6.38188 35.38C6.20188 35.44 6.04187 35.49 5.93187 35.52C5.99187 35.36 6.02187 35.27 6.02187 35.27C6.02187 35.27 8.39188 27.74 9.39188 24.56C10.2019 21.96 10.5919 20.71 10.8419 19.94C11.5619 17.61 12.0519 15.77 12.4319 14H12.4219Z" fill="#101214"/>
<path d="M27.7218 29.71C28.2318 30.05 29.0418 29.28 28.6918 28.77C28.2018 28.05 27.6218 27.35 26.8118 26.53C25.8418 25.64 25.4418 25.57 24.8318 24.93C23.7618 23.87 22.1818 21.87 21.8018 21.38C21.7418 21.31 21.6818 21.24 21.6118 21.18C21.1218 20.75 18.9818 18.87 17.3018 17.09C16.0718 15.87 15.3118 15.12 14.9118 14.73C13.9718 13.81 13.1918 13.19 12.3518 12.66C11.8918 12.37 11.2218 13.07 11.5118 13.53C12.0518 14.36 12.6718 15.14 13.5918 16.07C13.9518 16.43 14.5218 17.37 15.5618 18.46C15.7318 18.64 15.9218 18.8 16.1218 18.94C17.8618 20.16 19.7218 22.15 19.7218 22.15C19.7218 22.15 22.6018 25.01 23.8218 26.22C24.7418 27.13 25.1818 27.56 25.4518 27.83C26.2818 28.64 26.9818 29.21 27.7018 29.7L27.7218 29.71Z" fill="#101214"/>
</g>
</g>
<defs>
<clipPath id="clip0_226_8543">
<rect width="40" height="40" fill="white"/>
</clipPath>
<clipPath id="clip1_226_8543">
<rect width="40" height="40" fill="white"/>
</clipPath>
</defs>
</svg>
