<svg width="40" height="40" viewBox="0 0 40 40" fill="none" xmlns="http://www.w3.org/2000/svg">
<g clip-path="url(#clip0_226_8524)">
<g clip-path="url(#clip1_226_8524)">
<path d="M40 0H0V40H40V0Z" fill="#1868DB"/>
<path d="M40.0003 0H3.32031C6.67031 6.84 13.3103 17.81 22.6103 21.2C29.6903 23.78 35.0103 23.65 40.0003 21.97V0Z" fill="#669DF1"/>
<path d="M28.5588 23.0201C32.7506 23.0201 36.1488 19.6219 36.1488 15.4301C36.1488 11.2382 32.7506 7.84009 28.5588 7.84009C24.3669 7.84009 20.9688 11.2382 20.9688 15.4301C20.9688 19.6219 24.3669 23.0201 28.5588 23.0201Z" fill="#FCA700"/>
<path d="M29.9698 19.33C29.8498 19.33 29.7398 19.33 29.6298 19.33C27.8898 13.8 24.2298 11.49 18.7798 11.49C12.4998 11.49 8.49984 14.63 7.16984 22.3C7.15984 22.3 7.14984 22.3 7.12984 22.3C4.23984 22.3 2.19984 24.53 1.58984 28.75H38.0598C37.1798 22.57 34.1898 19.32 29.9698 19.32V19.33Z" fill="white"/>
<path d="M14.668 22.09C14.498 21.99 13.408 22.25 13.418 22.61C13.438 23.08 13.658 23.61 14.148 24.01C14.748 24.41 14.998 24.24 15.368 24.44C16.008 24.73 17.098 25.18 17.378 25.26C17.418 25.27 17.458 25.28 17.498 25.28C17.808 25.25 19.008 25.15 20.178 24.87C20.988 24.61 21.458 24.25 21.678 24.07C22.208 23.62 22.408 23.12 22.448 22.63C22.468 22.35 21.588 21.94 21.408 22.03C21.058 22.21 20.798 22.38 20.498 22.61C20.368 22.71 19.998 22.66 19.598 22.74C19.528 22.76 19.468 22.79 19.408 22.85C19.148 23.11 18.738 23.23 18.408 23.26C18.068 23.3 17.828 23.26 17.828 23.26C17.828 23.26 17.458 23.26 17.038 23.2C16.618 23.15 16.158 23.01 15.918 22.9C15.558 22.74 15.428 22.63 15.348 22.56C15.098 22.37 14.918 22.24 14.668 22.07V22.09Z" fill="#101214"/>
<path d="M13.4891 19.4901C13.6091 19.5201 14.6991 19.7601 14.8291 19.6401C15.0091 19.4901 15.0991 19.2801 15.0591 19.0101C14.9191 18.7001 14.6691 18.7301 14.5791 18.5401C14.4791 18.3901 14.3391 18.1501 14.1591 17.9601C13.9791 17.7701 13.7891 17.6301 13.7191 17.5901C13.6991 17.5801 13.6791 17.5701 13.6491 17.5701C13.4791 17.6001 12.8091 17.6601 12.1891 18.1301C11.8091 18.5101 11.7691 18.8101 11.7191 18.9301C11.6491 19.2501 11.7691 19.4701 11.9991 19.6301C12.1291 19.7201 13.0791 19.5201 13.1991 19.4901C13.3891 19.4201 13.5691 19.4201 13.4891 19.4001C13.4391 19.4001 13.3191 19.3301 13.2991 19.3101C13.2991 19.3101 13.3491 19.4001 13.3791 19.5401C13.3791 19.5301 13.3891 19.5401 13.3891 19.5401C13.3891 19.5401 13.4091 19.4101 13.4291 19.3701C13.4691 19.2701 13.4891 19.2901 13.4291 19.3201C13.3691 19.3601 13.2791 19.3901 13.2391 19.3901C13.2191 19.3901 13.3291 19.4101 13.4891 19.4601V19.4901Z" fill="#101214"/>
<path d="M22.2586 19.4901C22.3786 19.5201 23.4686 19.7601 23.5986 19.6401C23.7786 19.4901 23.8686 19.2801 23.8286 19.0101C23.6886 18.7001 23.4386 18.7301 23.3486 18.5401C23.2486 18.3901 23.1086 18.1501 22.9286 17.9601C22.7486 17.7701 22.5586 17.6301 22.4886 17.5901C22.4686 17.5801 22.4486 17.5701 22.4186 17.5701C22.2486 17.6001 21.5786 17.6601 20.9586 18.1301C20.5786 18.5101 20.5386 18.8101 20.4886 18.9301C20.4186 19.2501 20.5386 19.4701 20.7686 19.6301C20.8986 19.7201 21.8486 19.5201 21.9686 19.4901C22.1586 19.4201 22.3386 19.4201 22.2586 19.4001C22.2086 19.4001 22.0886 19.3301 22.0686 19.3101C22.0686 19.3101 22.1186 19.4001 22.1486 19.5401C22.1486 19.5301 22.1586 19.5401 22.1586 19.5401C22.1586 19.5401 22.1786 19.4101 22.1986 19.3701C22.2386 19.2701 22.2586 19.2901 22.1986 19.3201C22.1386 19.3601 22.0486 19.3901 22.0086 19.3901C21.9886 19.3901 22.0986 19.4101 22.2586 19.4601V19.4901Z" fill="#101214"/>
<path d="M5.89844 23.0801C6.66844 22.8101 7.12844 22.5601 7.13844 22.2301C7.14844 21.9501 6.61844 21.5601 5.52844 21.7801C3.97844 22.1201 2.61844 23.3101 1.82844 24.7701C1.62844 25.1401 1.43844 25.5201 1.28844 25.9201C1.20844 26.1201 1.12844 26.3201 1.07844 26.5301L0.978438 26.8401L0.928438 27.0001L0.868437 27.2501C0.708438 27.9601 0.568438 28.7101 0.438438 29.5001L0.408438 29.6501C0.408438 29.6501 0.368437 29.7701 0.448437 29.7501H0.748437L1.34844 29.7701C1.74844 29.7801 2.17844 29.7701 2.59844 29.7801C3.17844 29.7801 3.71844 29.7601 4.19844 29.7501C4.62844 29.7401 5.00844 29.7201 5.36844 29.7101C6.08844 29.6701 6.68844 29.6501 7.24844 29.6201C8.36844 29.5601 9.31844 29.5101 10.7084 29.5201C15.4084 29.5201 23.3384 29.8301 25.2484 29.9101C25.5284 29.9201 25.8184 29.9201 26.0984 29.9101C27.1084 29.8901 29.8384 29.8501 33.2684 29.8001C34.1284 29.8001 35.0284 29.7801 35.9584 29.7801C36.6184 29.7801 37.2884 29.7801 37.9784 29.7801C38.4084 29.7601 38.8984 29.8001 39.2684 29.7401C39.1884 29.3001 39.1184 28.8501 39.0384 28.4101C38.9584 27.9801 38.8984 27.4901 38.7984 27.1101L38.6284 26.3601C38.4784 25.8601 38.3584 25.3601 38.1684 24.8701C37.8284 23.8801 37.3784 22.9101 36.7884 22.0301C36.0384 20.8901 34.9984 19.8601 33.7184 19.2101C33.0884 18.8601 32.3984 18.6501 31.7084 18.4801C31.3584 18.4301 31.0084 18.3501 30.6584 18.3401H30.4284L30.3684 18.3301L30.2784 18.0801C30.2584 18.0101 30.2784 18.0401 30.2084 17.9001L30.0484 17.5201C29.8484 17.0101 29.5884 16.5201 29.3284 16.0301C28.2084 14.0901 26.6484 12.6501 24.9784 11.8901C23.3184 11.0901 21.6584 10.8801 20.0784 10.8601C18.3284 10.9001 18.4084 11.8801 19.9884 12.0601C22.8484 12.4801 25.7884 13.5801 27.6984 16.9501C27.8384 17.2301 28.0284 17.5701 28.1884 18.0101C28.2784 18.2601 28.3484 18.4201 28.4784 18.8001C28.6284 19.2601 28.7884 19.7601 28.9584 20.3001C29.3084 20.3001 29.6984 20.3001 30.1084 20.3201C30.2484 20.3301 30.3884 20.3401 30.5284 20.3601C30.6284 20.3601 30.7284 20.3901 30.8284 20.4101C31.2284 20.4801 31.6584 20.6001 32.0884 20.7801C32.9384 21.1401 33.8184 21.7301 34.5384 22.6701C34.9684 23.1701 35.3084 23.7701 35.6684 24.3501C36.0184 25.0101 36.3584 25.7301 36.5884 26.5101C36.6584 26.7001 36.7184 26.9001 36.7684 27.1001L36.8484 27.4001L36.8884 27.5501V27.5901C36.9284 27.6701 36.9584 27.7601 36.9884 27.8601L36.7184 27.8901C36.3184 27.8901 35.9284 27.9001 35.5384 27.9101C34.7184 27.9101 33.9284 27.9301 33.1884 27.9301C30.2384 27.9301 28.0984 27.9301 28.0984 27.9301C28.0984 27.9301 15.3684 27.9301 9.99844 27.9301C6.03844 27.9301 4.13844 27.9301 2.96844 27.9301C2.86844 27.9101 2.67844 27.9701 2.63844 27.9001C2.64844 27.7901 2.66844 27.6701 2.69844 27.5301C2.69844 27.5201 2.71844 27.4301 2.74844 27.3301L2.81844 27.0601C2.85844 26.8801 2.91844 26.7101 2.97844 26.5401C3.08844 26.2001 3.21844 25.8801 3.36844 25.5801C3.94844 24.3701 4.80844 23.4801 5.90844 23.0801H5.89844Z" fill="#101214"/>
</g>
</g>
<defs>
<clipPath id="clip0_226_8524">
<rect width="40" height="40" fill="white"/>
</clipPath>
<clipPath id="clip1_226_8524">
<rect width="40" height="40" fill="white"/>
</clipPath>
</defs>
</svg>
