<svg width="40" height="40" viewBox="0 0 40 40" fill="none" xmlns="http://www.w3.org/2000/svg">
<g clip-path="url(#clip0_226_8472)">
<g clip-path="url(#clip1_226_8472)">
<path d="M0 40L40 40L40 0L0 0L0 40Z" fill="#1868DB"/>
<path d="M40.1609 3.90991H9.46094V39.9999H40.1609V3.90991Z" fill="white"/>
<path d="M40.1605 7.71997V9.36997H12.7305L32.0105 40H40.1605V7.71997Z" fill="#1868DB"/>
<path d="M40.1609 3.90991H9.46094V9.36991H40.1609V3.90991Z" fill="#09326C"/>
<path d="M27.662 15.3598C28.052 15.2398 28.052 14.1298 27.662 14.0098C27.112 13.8398 26.532 13.7598 25.792 13.7498C24.952 13.7998 24.742 14.0298 24.172 14.0098C23.212 14.0098 21.582 13.6998 21.192 13.6198C21.132 13.6098 21.072 13.6098 21.022 13.6198C20.602 13.6598 18.782 13.8298 17.212 13.7498C16.102 13.7498 15.422 13.7498 15.062 13.7498C14.212 13.7498 13.582 13.8698 12.962 14.0798C12.622 14.1998 12.622 15.1698 12.962 15.2798C13.582 15.4898 14.212 15.6098 15.062 15.6098C15.392 15.6098 16.072 15.8798 17.042 15.9198C17.202 15.9198 17.352 15.9098 17.512 15.8698C18.862 15.5098 20.612 15.6098 20.612 15.6098C20.612 15.6098 23.222 15.6098 24.322 15.6098C25.152 15.6098 25.552 15.6098 25.792 15.6098C26.532 15.6098 27.112 15.5098 27.662 15.3498V15.3598Z" fill="#101214"/>
<path d="M39.8009 15.3598C40.0009 15.2398 40.0009 14.1298 39.8009 14.0098C39.5209 13.8398 39.2209 13.7598 38.8409 13.7498C38.4109 13.7998 38.3009 14.0298 38.0009 14.0098C37.5009 14.0098 36.6709 13.6998 36.4609 13.6198C36.4309 13.6098 36.4009 13.6098 36.3709 13.6198C36.1609 13.6598 35.2209 13.8298 34.4109 13.7498C33.8409 13.7498 33.4909 13.7498 33.3009 13.7498C32.8609 13.7498 32.5409 13.8698 32.2209 14.0798C32.0409 14.1998 32.0409 15.1698 32.2209 15.2798C32.5409 15.4898 32.8609 15.6098 33.3009 15.6098C33.4709 15.6098 33.8209 15.8798 34.3209 15.9198C34.4009 15.9198 34.4809 15.9098 34.5609 15.8698C35.2509 15.5098 36.1509 15.6098 36.1509 15.6098C36.1509 15.6098 37.4909 15.6098 38.0609 15.6098C38.4909 15.6098 38.6909 15.6098 38.8209 15.6098C39.2009 15.6098 39.5009 15.5098 39.7809 15.3498L39.8009 15.3598Z" fill="#101214"/>
<path d="M23.3811 23.6398C22.9511 23.7598 22.9511 24.8698 23.3811 24.9898C23.9911 25.1598 24.6311 25.2398 25.4511 25.2498C26.3811 25.1998 26.6111 24.9698 27.2511 24.9898C28.3211 24.9898 30.1211 25.2998 30.5511 25.3798C30.6111 25.3898 30.6811 25.3898 30.7411 25.3798C31.2011 25.3398 33.2211 25.1698 34.9511 25.2498C36.1811 25.2498 36.9411 25.2498 37.3311 25.2498C38.2711 25.2498 38.9711 25.1298 39.6511 24.9198C40.0311 24.7998 40.0311 23.8298 39.6511 23.7198C38.9611 23.5098 38.2611 23.3898 37.3311 23.3898C36.9711 23.3898 36.2111 23.1198 35.1411 23.0798C34.9711 23.0798 34.7911 23.0898 34.6211 23.1298C33.1311 23.4898 31.1911 23.3898 31.1911 23.3898C31.1911 23.3898 28.3011 23.3898 27.0811 23.3898C26.1611 23.3898 25.7211 23.3898 25.4511 23.3898C24.6311 23.3898 23.9911 23.4898 23.3811 23.6498V23.6398Z" fill="#101214"/>
<path d="M34.4722 33.0698C34.3322 33.1898 34.3322 34.2998 34.4722 34.4198C34.6722 34.5898 34.8722 34.6698 35.1422 34.6798C35.4422 34.6298 35.5122 34.3998 35.7222 34.4198C36.0622 34.4198 36.6422 34.7298 36.7822 34.8098C36.8022 34.8198 36.8222 34.8198 36.8422 34.8098C36.9922 34.7698 37.6422 34.5998 38.2022 34.6798C38.5922 34.6798 38.8422 34.6798 38.9722 34.6798C39.2722 34.6798 39.5022 34.5598 39.7222 34.3498C39.8422 34.2298 39.8422 33.2598 39.7222 33.1498C39.5022 32.9398 39.2722 32.8198 38.9722 32.8198C38.8522 32.8198 38.6122 32.5498 38.2622 32.5098C38.2022 32.5098 38.1522 32.5198 38.0922 32.5598C37.6122 32.9198 36.9922 32.8198 36.9922 32.8198C36.9922 32.8198 36.0622 32.8198 35.6722 32.8198C35.3722 32.8198 35.2322 32.8198 35.1422 32.8198C34.8822 32.8198 34.6722 32.9198 34.4722 33.0798V33.0698Z" fill="#101214"/>
<path d="M23.19 33.0698C23.02 33.1898 23.02 34.2998 23.19 34.4198C23.44 34.5898 23.69 34.6698 24.02 34.6798C24.4 34.6298 24.49 34.3998 24.74 34.4198C25.17 34.4198 25.89 34.7298 26.07 34.8098C26.1 34.8198 26.12 34.8198 26.15 34.8098C26.34 34.7698 27.15 34.5998 27.85 34.6798C28.34 34.6798 28.65 34.6798 28.81 34.6798C29.19 34.6798 29.47 34.5598 29.74 34.3498C29.89 34.2298 29.89 33.2598 29.74 33.1498C29.46 32.9398 29.18 32.8198 28.81 32.8198C28.66 32.8198 28.36 32.5498 27.93 32.5098C27.86 32.5098 27.79 32.5198 27.72 32.5598C27.12 32.9198 26.34 32.8198 26.34 32.8198C26.34 32.8198 25.18 32.8198 24.69 32.8198C24.32 32.8198 24.14 32.8198 24.03 32.8198C23.7 32.8198 23.44 32.9198 23.2 33.0798L23.19 33.0698Z" fill="#101214"/>
<path d="M12.8114 33.09C12.6514 33.21 12.6514 34.32 12.8114 34.44C13.0314 34.61 13.2714 34.69 13.5714 34.7C13.9114 34.65 14.0014 34.42 14.2314 34.44C14.6214 34.44 15.2914 34.75 15.4514 34.83C15.4714 34.84 15.5014 34.84 15.5214 34.83C15.6914 34.79 16.4314 34.62 17.0714 34.7C17.5214 34.7 17.8014 34.7 17.9514 34.7C18.2914 34.7 18.5514 34.58 18.8014 34.37C18.9414 34.25 18.9414 33.28 18.8014 33.17C18.5514 32.96 18.2914 32.84 17.9514 32.84C17.8214 32.84 17.5414 32.57 17.1414 32.53C17.0814 32.53 17.0114 32.54 16.9514 32.58C16.4014 32.94 15.6914 32.84 15.6914 32.84C15.6914 32.84 14.6314 32.84 14.1814 32.84C13.8414 32.84 13.6814 32.84 13.5814 32.84C13.2814 32.84 13.0414 32.94 12.8214 33.1L12.8114 33.09Z" fill="#101214"/>
<path d="M12.8114 23.6699C12.6514 23.7899 12.6514 24.8999 12.8114 25.0199C13.0314 25.1899 13.2714 25.2699 13.5714 25.2799C13.9114 25.2299 14.0014 24.9999 14.2314 25.0199C14.6214 25.0199 15.2914 25.3299 15.4514 25.4099C15.4714 25.4199 15.5014 25.4199 15.5214 25.4099C15.6914 25.3699 16.4314 25.1999 17.0714 25.2799C17.5214 25.2799 17.8014 25.2799 17.9514 25.2799C18.2914 25.2799 18.5514 25.1599 18.8014 24.9499C18.9414 24.8299 18.9414 23.8599 18.8014 23.7499C18.5514 23.5399 18.2914 23.4199 17.9514 23.4199C17.8214 23.4199 17.5414 23.1499 17.1414 23.1099C17.0814 23.1099 17.0114 23.1199 16.9514 23.1599C16.4014 23.5199 15.6914 23.4199 15.6914 23.4199C15.6914 23.4199 14.6314 23.4199 14.1814 23.4199C13.8414 23.4199 13.6814 23.4199 13.5814 23.4199C13.2814 23.4199 13.0414 23.5199 12.8214 23.6799L12.8114 23.6699Z" fill="#101214"/>
<path d="M14.2715 6.24001C14.2315 6.14001 14.1815 6.04001 14.1215 5.94001C14.0615 5.84001 13.9915 5.75001 13.9215 5.66001C13.5015 5.18001 12.9315 5.06001 12.3515 5.29001C12.2515 5.33001 12.1515 5.38001 12.0515 5.44001C11.9515 5.50001 11.8515 5.57001 11.7715 5.64001C11.2915 6.04001 11.1115 6.60001 11.3415 7.19001C11.3815 7.29001 11.4315 7.39001 11.4915 7.50001C11.5515 7.61001 11.6115 7.69001 11.6815 7.77001C12.1015 8.25001 12.6715 8.36001 13.2515 8.14001C13.3515 8.10001 13.4615 8.05001 13.5615 7.99001C13.6615 7.93001 13.7515 7.87001 13.8315 7.80001C14.3115 7.40001 14.4915 6.84001 14.2615 6.25001L14.2715 6.24001Z" fill="#BF63F3"/>
<path d="M20.0606 6.24001C20.0206 6.14001 19.9706 6.04001 19.9106 5.94001C19.8506 5.84001 19.7806 5.75001 19.7106 5.66001C19.2906 5.18001 18.7206 5.06001 18.1406 5.29001C18.0406 5.33001 17.9406 5.38001 17.8406 5.44001C17.7406 5.50001 17.6406 5.57001 17.5606 5.64001C17.0806 6.04001 16.9006 6.60001 17.1306 7.19001C17.1706 7.29001 17.2206 7.39001 17.2806 7.50001C17.3406 7.61001 17.4006 7.69001 17.4706 7.77001C17.8906 8.25001 18.4606 8.36001 19.0406 8.14001C19.1406 8.10001 19.2506 8.05001 19.3506 7.99001C19.4506 7.93001 19.5406 7.87001 19.6206 7.80001C20.1006 7.40001 20.2806 6.84001 20.0506 6.25001L20.0606 6.24001Z" fill="#1868DB"/>
<path d="M25.8614 6.24001C25.8214 6.14001 25.7714 6.04001 25.7114 5.94001C25.6514 5.84001 25.5814 5.75001 25.5114 5.66001C25.0914 5.18001 24.5214 5.06001 23.9414 5.29001C23.8414 5.33001 23.7414 5.38001 23.6414 5.44001C23.5414 5.50001 23.4414 5.57001 23.3614 5.64001C22.8814 6.04001 22.7014 6.60001 22.9314 7.19001C22.9714 7.29001 23.0214 7.39001 23.0814 7.50001C23.1414 7.61001 23.2014 7.69001 23.2714 7.77001C23.6914 8.25001 24.2614 8.36001 24.8414 8.14001C24.9414 8.10001 25.0514 8.05001 25.1514 7.99001C25.2514 7.93001 25.3414 7.87001 25.4214 7.80001C25.9014 7.40001 26.0814 6.84001 25.8514 6.25001L25.8614 6.24001Z" fill="white"/>
</g>
</g>
<defs>
<clipPath id="clip0_226_8472">
<rect width="40" height="40" fill="white"/>
</clipPath>
<clipPath id="clip1_226_8472">
<rect width="40" height="40" fill="white"/>
</clipPath>
</defs>
</svg>
