<svg width="40" height="40" viewBox="0 0 40 40" fill="none" xmlns="http://www.w3.org/2000/svg">
<g clip-path="url(#clip0_226_8302)">
<g clip-path="url(#clip1_226_8302)">
<path d="M40 0H0V40H40V0Z" fill="#1868DB"/>
<path d="M38.9187 24.2C39.1487 22.89 39.2787 21.5 39.2787 20.02C39.2787 18.54 39.1587 17.11 38.9187 15.79C37.4987 7.89996 32.0188 3.02996 24.3288 1.77996C23.0188 1.56996 21.6387 1.45996 20.2087 1.45996C18.7787 1.45996 17.2887 1.57996 15.9187 1.80996C8.21875 3.08996 2.74875 7.93996 1.32875 15.79C1.08875 17.12 0.96875 18.53 0.96875 20.02C0.96875 21.51 1.08875 22.89 1.32875 24.2C2.73875 32.04 8.21875 36.9 15.9187 38.18C17.2787 38.41 18.7187 38.53 20.2087 38.53C21.6987 38.53 23.0188 38.42 24.3288 38.21C32.0288 36.96 37.5187 32.08 38.9287 24.2H38.9187Z" fill="#09326C"/>
<path d="M35.8681 23.51C36.0681 22.41 36.1681 21.25 36.1681 20.01C36.1681 18.77 36.0681 17.58 35.8681 16.47C34.6781 9.85996 30.0881 5.77996 23.6481 4.72996C22.5481 4.54996 21.3981 4.45996 20.1981 4.45996C18.9981 4.45996 17.7481 4.55996 16.6081 4.74996C10.1581 5.82996 5.57812 9.88996 4.38812 16.47C4.18812 17.58 4.07812 18.76 4.07812 20.01C4.07812 21.26 4.17813 22.41 4.37813 23.51C5.55813 30.08 10.1481 34.15 16.6081 35.23C17.7481 35.42 18.9481 35.52 20.1981 35.52C21.4481 35.52 22.5481 35.43 23.6481 35.25C30.0981 34.2 34.6981 30.12 35.8781 23.51H35.8681Z" fill="#AE2A19"/>
<path d="M33.2583 22.93C33.4183 22.01 33.5083 21.04 33.5083 20.01C33.5083 18.98 33.4183 17.98 33.2583 17.05C32.2683 11.53 28.4383 8.13003 23.0583 7.26003C22.1383 7.11003 21.1783 7.03003 20.1783 7.03003C19.1783 7.03003 18.1383 7.11003 17.1783 7.27003C11.7983 8.17003 7.97828 11.56 6.98828 17.04C6.81828 17.97 6.73828 18.95 6.73828 20C6.73828 21.05 6.82828 22 6.98828 22.92C7.97828 28.4 11.7983 31.8 17.1883 32.69C18.1383 32.85 19.1383 32.93 20.1883 32.93C21.2383 32.93 22.1483 32.85 23.0683 32.7C28.4483 31.82 32.2883 28.42 33.2683 22.91L33.2583 22.93Z" fill="white"/>
<path d="M20.7084 8.47996C20.5884 7.86996 19.4784 7.86996 19.3584 8.47996C19.1884 9.33996 19.1084 10.25 19.0984 11.42C19.1484 12.74 19.3784 13.07 19.3584 13.97C19.3584 15.48 19.0484 18.04 18.9684 18.65C18.9584 18.74 18.9584 18.83 18.9684 18.92C19.0084 19.57 19.1784 22.43 19.0984 24.89C19.0984 26.63 19.0984 27.7 19.0984 28.27C19.0984 29.6 19.2184 30.59 19.4284 31.56C19.5484 32.09 20.5184 32.09 20.6284 31.56C20.8384 30.59 20.9584 29.59 20.9584 28.27C20.9584 27.75 21.2284 26.68 21.2684 25.16C21.2684 24.91 21.2584 24.67 21.2184 24.42C20.8584 22.3 20.9584 19.56 20.9584 19.56C20.9584 19.56 20.9584 15.46 20.9584 13.73C20.9584 12.43 20.9584 11.8 20.9584 11.42C20.9584 10.25 20.8584 9.34996 20.6984 8.47996H20.7084Z" fill="#101214"/>
<path d="M31.6295 20.58C32.2395 20.46 32.2395 19.35 31.6295 19.23C30.7695 19.06 29.8595 18.98 28.6895 18.97C27.3695 19.02 27.0395 19.25 26.1395 19.23C24.6295 19.23 22.0695 18.92 21.4595 18.84C21.3695 18.83 21.2795 18.83 21.1895 18.84C20.5395 18.88 17.6795 19.05 15.2195 18.97C13.4795 18.97 12.4095 18.97 11.8395 18.97C10.5095 18.97 9.51953 19.09 8.54953 19.3C8.00953 19.42 8.00953 20.39 8.54953 20.5C9.51953 20.71 10.5195 20.83 11.8395 20.83C12.3595 20.83 13.4295 21.1 14.9495 21.14C15.1995 21.14 15.4395 21.13 15.6895 21.09C17.8095 20.73 20.5495 20.83 20.5495 20.83C20.5495 20.83 24.6495 20.83 26.3795 20.83C27.6795 20.83 28.3095 20.83 28.6895 20.83C29.8595 20.83 30.7595 20.73 31.6295 20.57V20.58Z" fill="#101214"/>
<path d="M11.918 28.45C15.798 26.88 19.538 24.26 22.968 22.31C24.918 18.89 27.538 15.14 29.108 11.26C25.148 12.53 21.378 15.14 17.948 17.29C15.798 20.72 13.188 24.49 11.918 28.45Z" fill="#1868DB"/>
</g>
</g>
<defs>
<clipPath id="clip0_226_8302">
<rect width="40" height="40" fill="white"/>
</clipPath>
<clipPath id="clip1_226_8302">
<rect width="40" height="40" fill="white"/>
</clipPath>
</defs>
</svg>
