<svg width="40" height="40" viewBox="0 0 40 40" fill="none" xmlns="http://www.w3.org/2000/svg">
<g clip-path="url(#clip0_226_8844)">
<g clip-path="url(#clip1_226_8844)">
<path d="M40 0H0V40H40V0Z" fill="#82B536"/>
<path d="M3.91016 10.47V40H36.2602C34.9402 35.84 34.2502 31.29 34.2502 26.38C34.2502 20.81 35.1702 15.24 36.9502 10.47H3.91016Z" fill="white"/>
<path d="M27.6905 12.8599C28.1105 12.9699 28.5705 13.0299 29.0505 13.0299C29.5305 13.0299 29.9505 12.9799 30.3505 12.8699C31.2205 12.6299 31.9405 12.1299 32.2905 11.2999C32.4505 10.9299 32.5405 10.4899 32.5405 9.97991C32.5405 9.46991 32.4505 9.01991 32.2805 8.63991C31.9205 7.80991 31.2105 7.29991 30.3405 7.06991C29.9305 6.95991 29.4905 6.90991 29.0405 6.90991C28.5605 6.90991 28.1005 6.95991 27.6805 7.07991C26.8005 7.31991 26.0905 7.81991 25.7405 8.64991C25.5805 9.02991 25.4805 9.46991 25.4805 9.98991C25.4805 10.5099 25.5705 10.9399 25.7305 11.3099C26.0905 12.1399 26.7905 12.6399 27.6805 12.8799L27.6905 12.8599Z" fill="#FCA700"/>
<path d="M22.4405 12.8599C22.8605 12.9699 23.3205 13.0299 23.8005 13.0299C24.2805 13.0299 24.7005 12.9799 25.1005 12.8699C25.9705 12.6299 26.6905 12.1299 27.0405 11.2999C27.2005 10.9299 27.2905 10.4899 27.2905 9.97991C27.2905 9.46991 27.2005 9.01991 27.0305 8.63991C26.6705 7.80991 25.9605 7.29991 25.0905 7.06991C24.6805 6.95991 24.2405 6.90991 23.7905 6.90991C23.3105 6.90991 22.8505 6.95991 22.4305 7.07991C21.5505 7.31991 20.8405 7.81991 20.4905 8.64991C20.3305 9.02991 20.2305 9.46991 20.2305 9.98991C20.2305 10.5099 20.3205 10.9399 20.4805 11.3099C20.8405 12.1399 21.5405 12.6399 22.4305 12.8799L22.4405 12.8599Z" fill="#FFC716"/>
<path d="M23.4217 32.74C24.0717 32.92 24.7917 33 25.5317 33C26.2717 33 26.9317 32.92 27.5617 32.75C28.9217 32.38 30.0317 31.5999 30.5917 30.2999C30.8417 29.7199 30.9917 29.04 30.9917 28.24C30.9917 27.44 30.8417 26.74 30.5917 26.15C30.0317 24.86 28.9217 24.07 27.5717 23.7C26.9417 23.53 26.2517 23.45 25.5417 23.45C24.7917 23.45 24.0817 23.5299 23.4317 23.7099C22.0617 24.0799 20.9617 24.86 20.4117 26.15C20.1617 26.74 20.0117 27.43 20.0117 28.24C20.0117 29.05 20.1517 29.7199 20.4017 30.2999C20.9517 31.5899 22.0517 32.37 23.4317 32.74H23.4217Z" fill="#FCA700"/>
<path d="M17.1905 12.8599C17.6105 12.9699 18.0705 13.0299 18.5505 13.0299C19.0305 13.0299 19.4505 12.9799 19.8505 12.8699C20.7205 12.6299 21.4405 12.1299 21.7905 11.2999C21.9505 10.9299 22.0405 10.4899 22.0405 9.97991C22.0405 9.46991 21.9505 9.01991 21.7805 8.63991C21.4205 7.80991 20.7105 7.29991 19.8405 7.06991C19.4305 6.95991 18.9905 6.90991 18.5405 6.90991C18.0605 6.90991 17.6005 6.95991 17.1805 7.07991C16.3005 7.31991 15.5905 7.81991 15.2405 8.64991C15.0805 9.02991 14.9805 9.46991 14.9805 9.98991C14.9805 10.5099 15.0705 10.9399 15.2305 11.3099C15.5905 12.1399 16.2905 12.6399 17.1805 12.8799L17.1905 12.8599Z" fill="#FCA700"/>
<path d="M4.92032 20.03C3.82032 20.13 3.85032 21.24 4.88032 21.38C5.62032 21.48 6.42032 21.59 7.34032 21.58C8.25032 21.56 9.36032 21.42 10.4603 20.75C11.0703 20.36 11.4503 19.9 11.7403 19.52C12.0103 19.13 12.2303 18.78 12.3603 18.26C12.4203 18.01 12.4603 17.67 12.3203 17.3C12.1803 16.93 11.8803 16.67 11.6303 16.55C11.1003 16.32 10.7703 16.29 10.2203 16.27C9.76032 16.29 9.25032 16.42 8.79032 16.74C8.33032 17.05 7.94032 17.58 7.82032 18.19C7.71032 18.81 7.77032 19.39 8.15032 20.01C8.53032 20.56 9.02032 20.86 9.46032 21.08C9.91032 21.3 10.3403 21.42 10.7503 21.52C11.1703 21.61 11.5003 21.69 12.0103 21.67C12.9003 21.62 13.4603 21.35 13.7503 21.23C13.9303 21.15 14.0903 21.06 14.2403 20.97C14.5203 20.8 14.9803 20.46 15.5203 20.06C16.0403 19.67 16.7703 19.2 17.1803 19.18C17.3603 19.18 17.5103 19.24 17.7903 19.48C18.0703 19.73 18.2703 20.1 18.7303 20.67C18.9603 20.95 19.3003 21.25 19.6803 21.43C20.0603 21.62 20.4403 21.71 20.8003 21.77C21.1003 21.82 21.6103 21.83 22.0103 21.73C22.4003 21.62 22.7503 21.47 23.0303 21.3C23.8303 20.8 24.3303 20.29 24.7803 19.91C25.2203 19.52 25.6003 19.29 25.7803 19.24C25.8803 19.2 25.9003 19.24 25.9403 19.26C25.9503 19.27 25.9903 19.32 26.0603 19.46C26.1403 19.59 26.2103 19.72 26.2803 19.83C26.4603 20.11 26.6703 20.44 27.0003 20.72C27.3203 20.99 27.7203 21.21 28.1103 21.3C28.9003 21.5 29.6003 21.33 30.1503 21.09C31.2603 20.58 31.9603 19.76 32.3603 18.81C32.5703 18.27 32.3603 17.92 32.1003 17.86C31.8303 17.79 31.5303 17.93 31.3003 18.24C30.4803 19.35 28.5603 20.33 27.8803 18.86C27.7503 18.67 27.7203 18.48 27.3503 17.97C27.1703 17.73 26.9103 17.51 26.5903 17.36C26.2603 17.23 25.8703 17.19 25.4503 17.26C24.6803 17.4 24.1203 17.77 23.6103 18.14C23.1103 18.51 22.6503 18.91 22.2003 19.23C21.9103 19.44 21.6503 19.6 21.4803 19.68C21.4403 19.69 21.3903 19.73 21.3503 19.73L21.2903 19.75H21.1603C20.9803 19.75 20.8303 19.74 20.7003 19.71C20.4603 19.65 20.2903 19.53 20.0003 19.17C19.7203 18.81 19.3703 18.32 18.9003 17.95C18.4203 17.54 17.7203 17.29 17.1003 17.32C15.8803 17.44 15.2503 17.97 14.7903 18.23C14.3503 18.52 14.1003 18.69 14.1003 18.69C14.1003 18.69 13.7303 18.96 13.1703 19.3C12.8903 19.48 12.5603 19.63 12.2303 19.74C12.0603 19.79 11.9003 19.81 11.7503 19.81C11.5803 19.81 11.3103 19.78 11.0903 19.74C10.6303 19.66 10.1503 19.51 9.84032 19.3C9.52032 19.08 9.48032 18.95 9.47032 18.62C9.47032 18.12 10.0603 17.83 10.5503 17.94C10.6503 17.95 10.7403 17.97 10.7903 17.99C10.8803 17.99 10.7803 18.09 10.9703 17.86C11.0603 17.75 11.1103 17.77 11.0203 17.78C10.9603 17.79 10.9003 17.79 10.8003 17.78C10.6803 17.78 10.7703 17.78 10.7403 17.79C10.7103 17.93 10.5103 18.23 10.3403 18.43C10.0003 18.84 9.71032 19.05 9.49032 19.19C8.09032 20.04 6.45032 19.91 4.94032 20.06L4.92032 20.03Z" fill="#101214"/>
<path d="M4.8605 27.78C4.1705 27.55 3.6105 28.51 4.2605 28.99C4.4905 29.16 4.9305 29.38 5.3905 29.39C5.6205 29.4 5.8105 29.39 6.0005 29.35C6.1805 29.32 6.3405 29.29 6.6005 29.19C7.4105 28.83 7.8705 28.36 8.2905 28.17C8.4105 28.11 8.4205 28.1 8.4405 28.08C8.4605 28.06 8.4905 28.05 8.5205 28.05C8.5805 28.04 8.6405 28.05 8.7005 28.07C8.7405 28.07 8.8405 28.24 8.9705 28.48C9.1505 28.8 9.3705 29.13 9.7705 29.36C9.7905 29.37 9.8205 29.39 9.8605 29.41C10.2005 29.57 10.6605 29.62 11.0505 29.57C11.4005 29.53 11.7205 29.44 12.0305 29.34C12.6505 29.14 13.2105 28.85 13.6505 28.72C14.6005 28.4 15.3805 28.44 15.5005 28.53C15.5405 28.56 15.6005 28.56 15.6205 28.56C15.6905 28.58 15.6805 28.54 15.7405 28.6C15.7805 28.64 15.8205 28.77 15.8305 28.96C15.8505 29.15 15.8305 29.5 15.8005 29.72C15.7505 30.2 15.5405 30.7 15.1505 31.07C14.9605 31.25 14.7105 31.41 14.5905 31.44C14.5405 31.45 14.4905 31.44 14.4605 31.41C14.4105 31.35 14.4005 31.37 14.4305 31.16C14.4905 30.97 14.5405 30.76 14.6905 30.61C14.9505 30.28 15.3305 30.07 15.5705 29.94C16.8005 29.34 17.9705 29.06 19.0705 28.77C19.6705 28.63 19.7105 27.66 19.0005 27.57C17.7405 27.47 16.4105 27.49 14.7205 28.28C14.4005 28.47 13.8505 28.64 13.2005 29.26C12.8905 29.57 12.5505 30.01 12.3905 30.6C12.3005 30.9 12.2505 31.26 12.2605 31.63C12.2905 31.84 12.3205 32.05 12.3505 32.26C12.4305 32.45 12.5305 32.65 12.6305 32.85C12.9505 33.34 13.5305 33.58 14.0805 33.61C14.2305 33.61 14.3905 33.61 14.5405 33.59L15.0005 33.46C15.3105 33.38 15.5205 33.24 15.7405 33.11C16.1205 32.84 16.4705 32.55 16.7305 32.19C17.2805 31.51 17.5905 30.68 17.6705 29.98C17.7205 29.62 17.7305 29.33 17.7505 29.05C17.7305 28.73 17.7305 28.46 17.6505 28.2C17.6105 27.95 17.4905 27.74 17.4205 27.6C17.3605 27.46 17.2905 27.39 17.2905 27.39C17.0005 26.98 16.5505 26.73 16.1405 26.61C15.7305 26.51 15.3405 26.48 14.9905 26.52C14.2905 26.58 13.6705 26.77 13.0905 27.01C12.8105 27.13 12.5005 27.27 12.2505 27.4C12.0105 27.52 11.7705 27.64 11.5405 27.73C11.3105 27.82 11.0805 27.9 10.8905 27.93C10.7805 27.95 10.7405 27.95 10.7105 27.95C10.6705 27.95 10.6305 27.95 10.6005 27.93C10.5705 27.91 10.5505 27.9 10.5305 27.87C10.5105 27.85 10.5005 27.83 10.4905 27.81L10.4305 27.69C10.3705 27.56 10.2905 27.35 10.1405 27.1C9.8605 26.65 9.4605 26.39 9.0905 26.3C8.3405 26.09 7.7405 26.36 7.4905 26.49C6.6605 26.94 6.2305 27.44 5.9105 27.62C5.8805 27.65 5.7605 27.7 5.6505 27.74C5.5505 27.78 5.4605 27.81 5.3905 27.82C5.2605 27.86 5.1305 27.86 4.8905 27.78H4.8605Z" fill="#101214"/>
</g>
</g>
<defs>
<clipPath id="clip0_226_8844">
<rect width="40" height="40" fill="white"/>
</clipPath>
<clipPath id="clip1_226_8844">
<rect width="40" height="40" fill="white"/>
</clipPath>
</defs>
</svg>
