<svg width="40" height="40" viewBox="0 0 40 40" fill="none" xmlns="http://www.w3.org/2000/svg">
<g clip-path="url(#clip0_226_8509)">
<g clip-path="url(#clip1_226_8509)">
<path d="M40 0.0200195H0V40.02H40V0.0200195Z" fill="#FCA700"/>
<path d="M31.2981 13.93C30.2181 7.89998 26.0281 4.18998 20.1681 3.22998C19.1681 3.06998 18.1181 2.97998 17.0281 2.97998C15.8881 2.97998 14.7981 3.06998 13.7581 3.23998C7.87813 4.22998 3.69813 7.92998 2.60812 13.92C2.42812 14.93 2.32812 16.01 2.32812 17.15C2.32812 18.27 2.41812 19.34 2.59812 20.34C3.66813 26.32 7.84812 30.04 13.7381 31.02C14.7781 31.19 15.8681 31.28 17.0081 31.29C18.0981 31.29 19.1481 31.21 20.1481 31.04C26.0281 30.09 30.2181 26.37 31.2981 20.35C31.4781 19.35 31.5681 18.29 31.5681 17.16C31.5681 16.02 31.4781 14.94 31.2881 13.93H31.2981Z" fill="white"/>
<path d="M39.9977 40.09V24.21C39.5277 24.1 39.0277 24.11 38.5777 24.17C36.8977 24.42 35.8977 25.36 35.5977 26.96C35.4977 27.47 35.5477 27.99 35.6877 28.48C34.6277 28.49 33.5877 28.58 32.5977 28.74C32.5377 28.49 32.4577 28.25 32.3277 28.03C31.4877 26.53 30.2077 25.91 28.5377 26.18C27.6977 26.31 26.7677 26.66 25.7377 27.23C24.7077 27.81 23.9177 28.41 23.3677 29.04C22.2477 30.31 22.0777 31.68 22.8777 33.09C22.9677 33.25 23.0777 33.4 23.1877 33.54C22.4577 34.3 21.7877 35.15 21.1877 36.08C21.1377 36.06 21.0977 36.03 21.0477 36.01C19.4377 35.4 18.0577 35.75 16.9477 37.03C16.3877 37.67 15.8977 38.54 15.4777 39.64C15.4277 39.77 15.3877 39.89 15.3477 40.02L39.9977 40.09Z" fill="#09326C"/>
<path d="M24.9084 39.3299C24.7984 39.8099 25.8084 40.2799 26.1084 39.9499C26.5384 39.4699 26.9384 38.9599 27.3984 38.2799C27.8784 37.4799 27.8584 37.1599 28.2884 36.6899C28.6384 36.2799 29.1984 35.8199 29.7384 35.5199C30.2684 35.1999 30.7584 35.0499 30.9484 34.9999C31.0084 34.9899 31.0584 34.9599 31.0984 34.9299C31.2684 34.8199 31.7384 34.5599 32.3784 34.4399C32.6984 34.3799 33.0484 34.3899 33.4184 34.4399L33.9684 34.5799C34.1984 34.6599 34.4484 34.7499 34.7184 34.8199C35.1784 34.9299 35.7384 34.9999 36.3184 34.8999C36.8984 34.8099 37.4484 34.5199 37.8484 34.1999H37.8584C37.8584 34.1999 37.8884 34.1599 37.9684 34.1499C38.0584 34.1399 38.2084 34.1499 38.3684 34.1599C38.6984 34.1999 39.0884 34.2699 39.5284 34.2799C40.0584 34.2799 40.1184 33.2999 39.8384 33.1199C39.5584 32.9399 39.2584 32.7199 38.8284 32.5399C38.6084 32.4499 38.3584 32.3599 38.0284 32.3299C37.6984 32.2999 37.2484 32.3599 36.8884 32.5899C36.8484 32.6199 36.7984 32.6499 36.6884 32.7199C36.5584 32.7899 36.3584 32.8499 36.1484 32.8499C35.9284 32.8499 35.7284 32.8099 35.3584 32.7199C35.2284 32.6899 35.0784 32.6699 34.9184 32.6599C34.6084 32.6599 33.9984 32.5399 33.5284 32.5099C33.2784 32.5099 33.0384 32.5099 32.7984 32.4999C32.5684 32.5199 32.3384 32.5499 32.1284 32.5699C31.2984 32.6899 30.7384 32.9099 30.7384 32.9099C30.7384 32.9099 29.8884 33.1999 29.0484 33.7999C28.1984 34.3899 27.3784 35.2399 26.9384 35.7599C26.2684 36.5599 26.0084 36.9799 25.8384 37.2199C25.3384 37.9899 25.0584 38.6499 24.8984 39.3299H24.9084Z" fill="#101214"/>
<path d="M26.6799 17.5899L27.9399 17.3699C29.5099 17.1499 29.9699 16.2599 29.7599 15.0499C29.5599 13.9099 28.8299 13.2599 27.2599 13.5299L26.2099 13.7199C25.8899 12.6899 25.4199 11.7699 24.8099 10.9899L25.3699 10.3199C26.4299 9.13987 26.2199 8.15987 25.2699 7.36987C24.3899 6.62987 23.3999 6.58987 22.3799 7.80987L21.7299 8.58987C20.9299 8.21987 20.0399 7.94987 19.0899 7.79987C19.0199 7.78987 18.9399 7.77987 18.8599 7.76987V6.55987C18.9199 4.96987 18.1199 4.36987 16.8899 4.36987C15.7399 4.36987 14.9599 4.97987 14.9599 6.55987V7.78987C14.9099 7.78987 14.8499 7.79987 14.7999 7.80987C13.8299 7.96987 12.9199 8.24987 12.0999 8.62987L11.4599 7.85987C10.4799 6.60987 9.47994 6.64987 8.53994 7.43987C7.65994 8.17987 7.44994 9.13987 8.46994 10.3599L9.03994 11.0399C8.42994 11.8199 7.96994 12.7499 7.65994 13.7799L6.62994 13.5999C5.06994 13.2699 4.33994 13.9499 4.12994 15.1599C3.92994 16.2999 4.38994 17.1699 5.95994 17.4399L7.21994 17.6599C7.23994 18.1899 7.28994 18.6999 7.37994 19.1899C7.45994 19.6399 7.57994 20.0699 7.70994 20.4899L6.63994 21.1099C5.23994 21.8599 5.10994 22.8499 5.71994 23.9099C6.29994 24.9099 7.20994 25.2799 8.57994 24.4799L9.71994 23.8199C10.3699 24.4699 11.1199 25.0099 11.9799 25.4199L11.4599 26.8599C10.8599 28.3299 11.3999 29.1699 12.5599 29.5899C13.6399 29.9799 14.5799 29.6799 15.1199 28.1899L15.7399 26.4799L15.4899 26.3899C15.9699 26.4399 16.4699 26.4799 16.9799 26.4799C17.4599 26.4799 17.9199 26.4499 18.3799 26.3999L18.2299 26.4499L18.8499 28.1599C19.3399 29.6699 20.2899 29.9699 21.4499 29.5499C22.5299 29.1599 23.0599 28.3199 22.5099 26.8299L21.9899 25.3899C22.8399 24.9699 23.5899 24.4199 24.2299 23.7599L25.3599 24.4099C26.7099 25.2499 27.6299 24.8699 28.2399 23.7999C28.8199 22.7999 28.6799 21.8299 27.2999 21.0299L26.1999 20.3899C26.3199 19.9999 26.4299 19.6099 26.5099 19.1799C26.5999 18.6699 26.6499 18.1299 26.6699 17.5699L26.6799 17.5899Z" fill="#1868DB"/>
<path d="M22.9283 14.96C23.2783 15.89 24.4083 15.83 24.2183 14.57C23.9183 12.87 22.6983 10.95 20.3883 10.01C19.0783 9.50997 18.2183 9.56997 17.5083 9.56997C16.7883 9.52997 16.1883 9.70997 15.3083 9.74997C13.8383 9.92997 11.7583 10.71 10.5083 12.24C9.24827 13.73 8.87827 15.46 8.83827 16.07C8.80827 16.26 8.78827 16.45 8.77827 16.63C8.72827 16.97 8.79827 17.59 8.89827 18.41C8.98827 19.22 9.26827 20.26 9.87827 21.28C10.4683 22.31 11.4583 23.27 12.6383 23.88C13.8083 24.51 15.1283 24.78 16.3683 24.84C16.8083 24.9 17.2283 24.86 17.6283 24.82C18.0283 24.78 18.4083 24.78 18.7583 24.7C19.4783 24.57 20.1083 24.37 20.6383 24.12C21.7183 23.64 22.3983 23.04 22.8183 22.61C23.8183 21.57 24.3083 20.36 24.5083 19.29C24.6283 18.75 24.5883 18.22 24.6083 17.72C24.6383 17.22 24.5383 16.73 24.4483 16.26C24.2383 15.2 23.2883 15.46 23.2483 16.37C23.1483 18.01 22.9283 19.81 21.4783 21.31C20.9383 21.9 19.3883 22.75 16.9083 22.68C16.5183 22.64 16.1183 22.62 15.7183 22.64C14.8683 22.64 13.9683 22.41 13.2183 21.99C12.4583 21.57 11.8683 20.95 11.4983 20.3C11.1183 19.66 10.9483 19.01 10.8683 18.55C10.8283 18.07 10.8083 17.79 10.8083 17.79C10.8083 17.79 10.8083 17.69 10.7783 17.5C10.7783 17.41 10.7583 17.29 10.7483 17.16C10.7583 17.03 10.7683 16.87 10.7883 16.7C10.8283 16.03 10.9083 15.08 11.3683 14.21C11.7883 13.33 12.5283 12.55 13.3983 12.07C14.2683 11.6 15.2083 11.36 15.9283 11.33C18.0983 11.15 19.1183 11.53 19.6683 11.75C21.3983 12.46 22.3483 13.64 22.9083 14.96H22.9283Z" fill="#101214"/>
<path d="M20.7189 16.2199C20.4389 14.6399 19.3389 13.6699 17.7989 13.4099C17.5389 13.3699 17.2589 13.3499 16.9789 13.3499C16.6789 13.3499 16.3889 13.3699 16.1189 13.4199C14.5789 13.6799 13.4789 14.6499 13.1989 16.2199C13.1489 16.4899 13.1289 16.7699 13.1289 17.0699C13.1289 17.3599 13.1489 17.6399 13.1989 17.9099C13.4789 19.4799 14.5789 20.4499 16.1189 20.7099C16.3889 20.7599 16.6789 20.7799 16.9789 20.7799C17.2689 20.7799 17.5389 20.7599 17.7989 20.7199C19.3389 20.4699 20.4389 19.4899 20.7189 17.9199C20.7689 17.6599 20.7889 17.3799 20.7889 17.0799C20.7889 16.7799 20.7689 16.4999 20.7189 16.2299V16.2199Z" fill="white"/>
</g>
</g>
<defs>
<clipPath id="clip0_226_8509">
<rect width="40" height="40" fill="white"/>
</clipPath>
<clipPath id="clip1_226_8509">
<rect width="40" height="40" fill="white"/>
</clipPath>
</defs>
</svg>
