<svg width="40" height="40" viewBox="0 0 40 40" fill="none" xmlns="http://www.w3.org/2000/svg">
<g clip-path="url(#clip0_226_8494)">
<g clip-path="url(#clip1_226_8494)">
<path d="M40 0H0V40H40V0Z" fill="#FFC716"/>
<path d="M29.57 35.45L0 35.8499V40H30.11L29.57 35.45Z" fill="#09326C"/>
<path d="M0 12.5V15.99H31.47L31.49 15.98L13.09 3.95996L0 12.5Z" fill="#1868DB"/>
<path d="M6.38156 16.75H2.10156V38.18H6.38156V16.75Z" fill="white"/>
<path d="M16.2917 16.75H12.0117V38.18H16.2917V16.75Z" fill="white"/>
<path d="M26.1902 16.75H21.9102V38.18H26.1902V16.75Z" fill="white"/>
<path d="M0.611094 15.59C-0.208906 15.71 -0.208906 16.82 0.611094 16.94C1.77109 17.11 2.98109 17.19 4.54109 17.2C6.31109 17.15 6.75109 16.92 7.95109 16.94C9.98109 16.94 13.3911 17.25 14.2211 17.33C14.3411 17.34 14.4611 17.34 14.5911 17.33C15.4611 17.29 19.2911 17.12 22.5911 17.2C24.9211 17.2 26.3611 17.2 27.1111 17.2C28.8911 17.2 30.2111 17.08 31.5211 16.87C32.2411 16.75 32.2411 15.78 31.5211 15.67C30.2211 15.46 28.8911 15.34 27.1111 15.34C26.4211 15.34 24.9811 15.07 22.9511 15.03C22.6211 15.03 22.2911 15.04 21.9611 15.08C19.1311 15.44 15.4511 15.34 15.4511 15.34C15.4511 15.34 9.96109 15.34 7.65109 15.34C5.91109 15.34 5.07109 15.34 4.55109 15.34C2.99109 15.34 1.77109 15.44 0.621094 15.6L0.611094 15.59Z" fill="#101214"/>
<path d="M2.61078 16.1599C2.49078 15.5799 1.38078 15.5799 1.26078 16.1599C1.09078 16.9799 1.01078 17.8299 1.00078 18.9399C1.05078 20.1899 1.28078 20.4999 1.26078 21.3499C1.26078 22.7799 0.950781 25.1999 0.870781 25.7799C0.860781 25.8699 0.860781 25.9499 0.870781 26.0399C0.910781 26.6599 1.08078 29.3599 1.00078 31.6899C1.00078 33.3299 1.00078 34.3499 1.00078 34.8799C1.00078 36.1399 1.12078 37.0699 1.33078 37.9899C1.45078 38.4999 2.42078 38.4999 2.53078 37.9899C2.74078 37.0699 2.86078 36.1299 2.86078 34.8799C2.86078 34.3899 3.13078 33.3799 3.17078 31.9399C3.17078 31.7099 3.16078 31.4699 3.12078 31.2399C2.76078 29.2399 2.86078 26.6399 2.86078 26.6399C2.86078 26.6399 2.86078 22.7599 2.86078 21.1299C2.86078 19.8999 2.86078 19.3099 2.86078 18.9399C2.86078 17.8399 2.76078 16.9799 2.60078 16.1599H2.61078Z" fill="#101214"/>
<path d="M12.5327 16.1599C12.4127 15.5799 11.3027 15.5799 11.1827 16.1599C11.0127 16.9799 10.9327 17.8299 10.9227 18.9399C10.9727 20.1899 11.2027 20.4999 11.1827 21.3499C11.1827 22.7799 10.8727 25.1999 10.7927 25.7799C10.7827 25.8699 10.7827 25.9499 10.7927 26.0399C10.8327 26.6599 11.0027 29.3599 10.9227 31.6899C10.9227 33.3299 10.9227 34.3499 10.9227 34.8799C10.9227 36.1399 11.0427 37.0699 11.2527 37.9899C11.3727 38.4999 12.3427 38.4999 12.4527 37.9899C12.6627 37.0699 12.7827 36.1299 12.7827 34.8799C12.7827 34.3899 13.0527 33.3799 13.0927 31.9399C13.0927 31.7099 13.0827 31.4699 13.0427 31.2399C12.6827 29.2399 12.7827 26.6399 12.7827 26.6399C12.7827 26.6399 12.7827 22.7599 12.7827 21.1299C12.7827 19.8999 12.7827 19.3099 12.7827 18.9399C12.7827 17.8399 12.6827 16.9799 12.5227 16.1599H12.5327Z" fill="#101214"/>
<path d="M22.4506 16.1599C22.3306 15.5799 21.2206 15.5799 21.1006 16.1599C20.9306 16.9799 20.8506 17.8299 20.8406 18.9399C20.8906 20.1899 21.1206 20.4999 21.1006 21.3499C21.1006 22.7799 20.7906 25.1999 20.7106 25.7799C20.7006 25.8699 20.7006 25.9499 20.7106 26.0399C20.7506 26.6599 20.9206 29.3599 20.8406 31.6899C20.8406 33.3299 20.8406 34.3499 20.8406 34.8799C20.8406 36.1399 20.9606 37.0699 21.1706 37.9899C21.2906 38.4999 22.2606 38.4999 22.3706 37.9899C22.5806 37.0699 22.7006 36.1299 22.7006 34.8799C22.7006 34.3899 22.9706 33.3799 23.0106 31.9399C23.0106 31.7099 23.0006 31.4699 22.9606 31.2399C22.6006 29.2399 22.7006 26.6399 22.7006 26.6399C22.7006 26.6399 22.7006 22.7599 22.7006 21.1299C22.7006 19.8999 22.7006 19.3099 22.7006 18.9399C22.7006 17.8399 22.6006 16.9799 22.4406 16.1599H22.4506Z" fill="#101214"/>
</g>
</g>
<defs>
<clipPath id="clip0_226_8494">
<rect width="40" height="40" fill="white"/>
</clipPath>
<clipPath id="clip1_226_8494">
<rect width="40" height="40" fill="white"/>
</clipPath>
</defs>
</svg>
