<svg width="40" height="40" viewBox="0 0 40 40" fill="none" xmlns="http://www.w3.org/2000/svg">
<g clip-path="url(#clip0_226_8563)">
<g clip-path="url(#clip1_226_8563)">
<path d="M40 0H0V40H40V0Z" fill="#FCA700"/>
<path d="M31.2034 0C24.7586 4.7342 18.8942 10.1204 14.0605 15.3862C7.68576 22.327 3.0623 29.0371 0 35.4965V40H10.0876C12.3192 33.4704 16.5924 26.6098 23.1674 19.4483C27.8008 14.3932 33.6252 9.19759 40 4.9348V0H31.2034Z" fill="white"/>
<path d="M19.8605 22.7401L8.48047 18.6301V27.5101C11.5205 29.7001 15.5405 31.0401 19.9505 31.0401C24.3605 31.0401 28.3805 29.7001 31.4205 27.5101V18.5701L19.8605 22.7401Z" fill="#1868DB"/>
<path d="M19.8617 9.30005L1.26172 16.02L19.8617 22.74L38.4617 16.02L19.8617 9.30005Z" fill="#669DF1"/>
<path d="M2.17176 15.73C1.18176 15.5 0.801761 16.55 1.71176 17C3.00176 17.64 4.38176 18.23 6.19176 18.89C8.26176 19.58 8.85176 19.55 10.2318 20.08C12.5818 20.93 16.4418 22.65 17.3718 23.07C17.5118 23.13 17.6518 23.19 17.7918 23.23C17.8818 23.26 18.0018 23.3 18.2518 23.38C18.5718 23.49 19.0618 23.66 19.8518 23.94C20.3718 23.74 21.6218 23.25 23.1818 22.64C24.5718 22.11 26.2418 21.5 27.8218 20.96C30.5218 19.98 32.1918 19.38 33.0618 19.06C35.1218 18.31 36.6218 17.64 38.0618 16.9C38.8518 16.49 38.5218 15.58 37.6518 15.77C36.0718 16.12 34.4818 16.57 32.4218 17.3C31.6218 17.59 29.8618 17.94 27.4818 18.75C27.0918 18.88 26.7218 19.04 26.3518 19.21C25.1418 19.8 23.7618 20.37 22.5318 20.85C21.9118 21.08 21.3318 21.31 20.8218 21.5C20.4318 21.64 20.0918 21.76 19.8518 21.85C19.6018 21.75 19.4718 21.7 19.4718 21.7C19.4718 21.7 13.1018 19.4 10.4218 18.42C8.39176 17.69 7.42176 17.34 6.82176 17.13C5.01176 16.48 3.57176 16.06 2.17176 15.73Z" fill="#101214"/>
<path d="M34.1419 37.5499C34.3819 37.6299 35.1719 36.8399 35.1019 36.5999C35.0019 36.2499 35.1219 36.2399 35.1119 36.1599C35.0619 36.0299 34.8419 35.9699 34.9619 35.8299C35.0319 35.7099 35.4019 35.5599 35.8019 35.0899C35.9919 34.8599 36.1119 34.5899 36.1819 34.3599C36.2419 34.1399 36.2819 33.9599 36.2919 33.8599C36.2919 33.7999 36.2919 33.7399 36.2919 33.6799C36.2619 33.5699 36.2119 33.3499 36.0819 33.0999C35.9619 32.8499 35.7319 32.5599 35.5319 32.3899C35.3319 32.2099 35.1819 32.0899 35.1419 32.0299C35.1019 31.9799 35.1119 31.9799 35.1219 31.9199C35.1219 31.8199 35.1219 31.8199 35.1319 31.7899C35.1319 31.7699 35.2119 31.6899 35.2719 31.6299C35.4019 31.4799 35.6119 31.2499 35.7519 30.9299C35.8919 30.6099 35.9019 30.2699 35.8219 29.9899C35.7219 29.6699 34.7519 29.7799 34.6219 29.8699C34.3519 30.0799 34.3119 29.9399 33.9319 30.3199C33.8619 30.3999 33.6819 30.4599 33.4319 30.7199C33.1919 30.9499 32.9319 31.4299 32.9219 31.9099C32.9219 32.0699 32.9419 32.2299 33.0319 32.3999C33.1919 32.7399 33.4419 33.0699 33.6719 33.2799C33.8919 33.4799 34.0619 33.5999 34.1519 33.6799C34.3219 33.8399 34.2619 33.8599 34.2819 33.8799C34.2819 33.8799 34.2819 33.8999 34.3019 33.9399C34.3019 33.9999 34.3019 34.0899 34.2819 34.1399C34.2619 34.1999 34.2419 34.2399 34.1019 34.3799C33.9719 34.5099 33.7619 34.7099 33.6219 34.9199C33.4019 35.2399 33.3119 35.5499 33.2819 35.7699C33.2519 35.9899 33.2519 36.1299 33.2619 36.2399C33.2919 36.9599 33.8219 37.4499 34.1519 37.5299L34.1419 37.5499Z" fill="#101214"/>
<path d="M21.4028 14.69C20.7628 14.71 20.6028 15.82 21.2028 16.02C22.0628 16.31 22.9828 16.54 24.1728 16.72C25.5328 16.87 25.9028 16.69 26.8228 16.85C28.3728 17.08 30.9428 17.77 31.5628 17.94C31.6528 17.97 31.7428 17.98 31.8428 17.99C32.0028 18.01 32.2928 18.03 32.7728 18.08C33.0128 18.11 33.2928 18.14 33.6228 18.18C33.8628 18.21 33.7828 18.19 33.8228 18.19H33.8828C33.8828 18.19 33.9028 18.19 33.9128 18.22C33.9128 18.27 33.9228 18.16 33.9328 18.56C33.9328 19.14 33.9328 19.84 33.9128 20.5C33.9128 22.3 33.9128 23.42 33.9128 24C33.9128 25.37 34.0328 26.4 34.2428 27.41C34.3628 27.96 35.3328 27.96 35.4428 27.41C35.6528 26.4 35.7728 25.37 35.7728 24C35.7728 23.47 36.0428 22.35 36.0828 20.78C36.0828 20.52 36.0728 20.27 36.0328 20.01C35.9628 19.56 35.9028 19.09 35.8628 18.62L35.8328 18.27C35.8328 18.07 35.8228 17.86 35.8128 17.66C35.8028 17.27 35.7928 16.89 35.7828 16.52C34.8428 16.39 34.0228 16.28 33.4328 16.2C33.0228 16.13 32.7828 16.09 32.7828 16.09C32.7828 16.09 28.5828 15.47 26.8128 15.2C25.4828 15.01 24.8328 14.91 24.4428 14.85C23.2428 14.68 22.3028 14.63 21.3928 14.66L21.4028 14.69Z" fill="#101214"/>
<path d="M36.6417 28.2199C36.6017 28.1099 36.5517 27.9999 36.4817 27.8899C36.4117 27.7799 36.3417 27.6799 36.2717 27.5899C35.8217 27.0599 35.1917 26.9399 34.5717 27.1899C34.4617 27.2299 34.3617 27.2799 34.2517 27.3499C34.1417 27.4199 34.0417 27.4899 33.9517 27.5599C33.4317 27.9899 33.2417 28.5999 33.4817 29.2399C33.5217 29.3499 33.5717 29.4599 33.6417 29.5699C33.7117 29.6799 33.7817 29.7799 33.8517 29.8699C34.3017 30.3899 34.9217 30.5099 35.5517 30.2699C35.6617 30.2299 35.7717 30.1699 35.8817 30.1099C35.9917 30.0499 36.0817 29.9799 36.1717 29.8999C36.6917 29.4699 36.8817 28.8599 36.6417 28.2099V28.2199Z" fill="#1868DB"/>
<path d="M21.6417 14.59C21.6017 14.48 21.5517 14.37 21.4817 14.26C21.4117 14.15 21.3417 14.05 21.2717 13.96C20.8217 13.43 20.1917 13.31 19.5717 13.56C19.4617 13.6 19.3617 13.65 19.2517 13.72C19.1417 13.79 19.0417 13.86 18.9517 13.93C18.4317 14.36 18.2417 14.97 18.4817 15.61C18.5217 15.72 18.5717 15.83 18.6417 15.94C18.7117 16.05 18.7817 16.15 18.8517 16.24C19.3017 16.76 19.9217 16.88 20.5517 16.64C20.6617 16.6 20.7717 16.54 20.8817 16.48C20.9917 16.42 21.0817 16.35 21.1717 16.27C21.6917 15.84 21.8817 15.23 21.6417 14.58V14.59Z" fill="#101214"/>
</g>
</g>
<defs>
<clipPath id="clip0_226_8563">
<rect width="40" height="40" fill="white"/>
</clipPath>
<clipPath id="clip1_226_8563">
<rect width="40" height="40" fill="white"/>
</clipPath>
</defs>
</svg>
