<svg width="40" height="40" viewBox="0 0 40 40" fill="none" xmlns="http://www.w3.org/2000/svg">
<g clip-path="url(#clip0_226_8343)">
<g clip-path="url(#clip1_226_8343)">
<path d="M40 0H0V40H40V0Z" fill="#82B536"/>
<mask id="mask0_226_8343" style="mask-type:luminance" maskUnits="userSpaceOnUse" x="0" y="0" width="40" height="40">
<path d="M40 0H0V40H40V0Z" fill="white"/>
</mask>
<g mask="url(#mask0_226_8343)">
<mask id="mask1_226_8343" style="mask-type:luminance" maskUnits="userSpaceOnUse" x="-1" y="-1" width="41" height="41">
<path d="M39.9492 -0.0200195H-0.0507812V39.98H39.9492V-0.0200195Z" fill="white"/>
</mask>
<g mask="url(#mask1_226_8343)">
<path d="M11.3403 12.22H3.32031V39.97H11.3403V12.22Z" fill="#94C748"/>
<path d="M23.9809 5.12988H15.9609V39.9799H23.9809V5.12988Z" fill="#94C748"/>
<path d="M36.6216 0.109863H28.6016V39.9799H36.6216V0.109863Z" fill="#94C748"/>
<path d="M20.2 10.37L23.94 14.25C22.67 15.29 20.84 16.7 18.53 18.24C14.98 20.61 11.25 22.68 7.43 24.37C5.03 25.44 2.54 26.37 0 27.19V37.63C3.95 36.52 7.81 35.14 11.49 33.5C15.82 31.57 20.05 29.2299 24.07 26.5499C27.09 24.5299 29.39 22.72 30.89 21.46L34.52 25.2299L38.27 7.69995L23.62 9.85995L20.18 10.37H20.2Z" fill="#FCA700"/>
<path d="M20.2 10.3699L23.94 14.2499C22.67 15.2899 20.84 16.6999 18.53 18.2399C14.98 20.6099 11.25 22.6799 7.43 24.3699C5.03 25.4399 2.54 26.3699 0 27.1899V32.0799C23.06 23.6599 33.73 11.6999 36.65 7.93994L23.63 9.85994L20.19 10.3699H20.2Z" fill="white"/>
</g>
<path d="M30.5205 22.5399C31.1405 21.8799 30.4205 21.0299 29.6705 21.4899C28.6005 22.1499 27.5205 22.8699 26.1605 23.8499C24.6505 24.9999 24.3805 25.4499 23.2905 26.1499C21.4805 27.3799 18.1505 28.9699 17.3305 29.3099C17.2105 29.3599 17.0905 29.4199 16.9805 29.4899C16.1905 29.9899 12.6205 32.0599 9.31055 33.3199C7.00055 34.2799 5.54055 34.7899 4.78055 35.0599C2.98055 35.6999 1.65055 36.2299 0.360547 36.8199C-0.349453 37.1399 -0.0894533 38.0799 0.690547 37.9799C2.12055 37.7899 3.55055 37.4599 5.39055 36.8299C6.10055 36.5799 7.69055 36.2999 9.78055 35.4999C10.1205 35.3699 10.4505 35.2099 10.7605 35.0299C12.1205 34.2499 13.7105 33.4399 14.9605 32.7999C16.2005 32.1599 17.1005 31.6999 17.1005 31.6999C17.1005 31.6999 18.4305 30.9999 20.0105 30.0799C21.5905 29.1699 23.4005 28.0199 24.4505 27.3099C26.0405 26.2399 26.7805 25.6999 27.2405 25.3599C28.6205 24.3499 29.6205 23.4499 30.5005 22.5299L30.5205 22.5399Z" fill="#101214"/>
<path d="M30.6512 20.9599C30.6512 20.9599 30.0012 22.0099 30.2612 22.2199C30.2712 22.2399 30.3312 22.2599 30.3912 22.2799C30.4312 22.2799 30.4112 22.2999 30.5412 22.3099C30.5912 22.3099 30.6412 22.3099 30.6812 22.3099C30.7212 22.3099 30.7512 22.3099 30.9412 22.2399C31.2512 22.0799 31.4212 21.7899 31.4112 21.4499C31.4112 21.3299 31.4012 21.3199 31.3812 21.2499C31.3712 21.1999 31.3412 21.1199 31.3412 21.1199C31.3012 21.0199 31.2712 20.9599 31.2512 20.9299C31.2512 20.9099 31.2412 20.8899 31.2412 20.8899L30.7412 21.2699L30.7312 21.2899C30.7112 21.3099 30.6912 21.3299 30.6712 21.3499C30.6512 21.3799 30.5212 21.4099 30.5612 21.4299C30.5212 21.4299 30.4812 21.5399 30.4312 21.5899C30.3412 21.7099 30.2412 21.8299 30.1412 21.9499L30.0112 22.1099C30.0112 22.1099 30.0012 22.1199 29.9912 22.1299V22.1499C30.0012 22.1799 30.0112 22.1999 30.0312 22.2299C30.0912 22.3399 30.1712 22.4399 30.2812 22.5399C30.5612 22.7099 30.7712 22.5799 30.9212 22.7399C31.2012 22.9699 31.4912 23.5999 31.5512 23.7599C31.5612 23.7799 31.5812 23.7999 31.6012 23.8099C31.7512 23.8799 32.3912 24.1799 32.8112 24.6099C33.1412 24.8699 33.3412 25.0299 33.4512 25.1099C33.7112 25.2999 33.9612 25.3599 34.2812 25.3399C34.4512 25.3299 35.0612 24.5699 35.0312 24.3999C34.9812 24.0899 34.8612 23.8499 34.6212 23.6399C34.5212 23.5599 34.4912 23.1899 34.2312 22.9299C34.1912 22.8899 34.1312 22.8599 34.0612 22.8599C33.4412 22.8299 32.9912 22.3299 32.9912 22.3299C32.9912 22.3299 32.2312 21.7099 31.9112 21.4399C31.6712 21.2399 31.5512 21.1499 31.4812 21.0899C31.3712 20.9999 31.2612 20.9399 31.1512 20.8999L31.0612 20.8699C31.0612 20.8699 31.0612 20.8799 30.9712 20.8199H30.9612V20.8099C30.9412 20.7999 30.9012 20.7699 30.8012 20.7299C30.7512 20.7099 30.6812 20.6899 30.5512 20.6899C30.4312 20.6899 30.2312 20.7399 30.0812 20.8799C29.7812 21.1999 29.8612 21.4499 29.8612 21.5199C29.8812 21.6099 29.9012 21.6599 29.9012 21.6699V21.6999L29.9512 21.7599C30.0212 21.8699 30.0112 21.8299 30.0112 21.8399H30.0212L30.1412 21.7499L30.3112 21.6299L30.3912 21.5799C30.4512 21.5499 30.4612 21.5299 30.5112 21.5099C30.5712 21.4699 30.6212 21.4999 30.5912 21.4799C30.5712 21.4399 30.5912 21.3899 30.6012 21.2899C30.6212 21.1999 30.6512 21.1099 30.6912 20.9699L30.6512 20.9599Z" fill="#101214"/>
<path d="M33.9512 24.5101C33.9812 24.8701 34.9912 25.3601 35.2612 24.8301C35.5712 24.2301 35.8012 23.6001 35.9912 22.7601C36.1412 21.8001 35.9712 21.5101 36.1312 20.8701C36.3612 19.7801 37.0412 18.0101 37.2112 17.5801C37.2312 17.5201 37.2512 17.4501 37.2612 17.3801C37.3212 16.9001 37.5712 14.8101 38.0212 13.0501C38.2712 11.8001 38.4312 11.0201 38.5112 10.6201C38.7012 9.66006 38.7312 8.93006 38.6712 8.19006C38.6312 7.80006 37.6912 7.57006 37.4912 7.94006C37.1412 8.60006 36.8812 9.29006 36.6712 10.2501C36.5912 10.6201 36.1712 11.3401 35.9012 12.4201C35.8612 12.6001 35.8412 12.7801 35.8412 12.9601C35.8812 14.5601 35.3812 16.5101 35.3812 16.5101C35.3812 16.5101 34.7612 19.4501 34.5012 20.7001C34.3012 21.6301 34.2112 22.0801 34.1512 22.3601C33.9812 23.2001 33.9212 23.8601 33.9412 24.5101H33.9512Z" fill="#101214"/>
</g>
</g>
</g>
<defs>
<clipPath id="clip0_226_8343">
<rect width="40" height="40" fill="white"/>
</clipPath>
<clipPath id="clip1_226_8343">
<rect width="40" height="40" fill="white"/>
</clipPath>
</defs>
</svg>
