<svg width="40" height="40" viewBox="0 0 40 40" fill="none" xmlns="http://www.w3.org/2000/svg">
<g clip-path="url(#clip0_226_8639)">
<g clip-path="url(#clip1_226_8639)">
<path d="M40 0H0V40H40V0Z" fill="#82B536"/>
<path d="M33.0622 28.4601C33.2822 22.4201 30.2522 20.1201 25.5822 20.1201C21.1922 20.1201 18.2422 22.4201 18.2422 28.4601L18.2622 35.4401H33.0822L33.0622 28.4601Z" fill="white"/>
<path d="M21.5505 28.4601C21.7705 22.4201 18.7405 20.1201 14.0705 20.1201C9.68047 20.1201 6.73047 22.4201 6.73047 28.4601L6.75047 35.4401H21.5705L21.5505 28.4601Z" fill="#164B35"/>
<path d="M27.3005 28.4601C27.5205 22.4201 24.4905 20.1201 19.8205 20.1201C15.4305 20.1201 12.4805 22.4201 12.4805 28.4601L12.5005 35.4401H27.3205L27.3005 28.4601Z" fill="#FCA700"/>
<path d="M31.302 12.88C31.372 12.48 31.412 12.06 31.412 11.62C31.412 11.18 31.372 10.74 31.302 10.34C30.872 7.95001 29.212 6.48001 26.892 6.11001C26.492 6.05001 26.082 6.01001 25.652 6.01001C25.222 6.01001 24.772 6.05001 24.352 6.11001C22.022 6.50001 20.372 7.96001 19.942 10.34C19.872 10.74 19.832 11.17 19.832 11.62C19.832 12.07 19.872 12.49 19.942 12.88C20.372 15.25 22.022 16.72 24.352 17.11C24.762 17.18 25.192 17.21 25.652 17.21C26.112 17.21 26.502 17.18 26.892 17.11C29.222 16.73 30.882 15.26 31.302 12.88Z" fill="white"/>
<path d="M20.1614 12.88C20.2314 12.48 20.2714 12.06 20.2714 11.62C20.2714 11.18 20.2314 10.74 20.1614 10.34C19.7314 7.95001 18.0714 6.48001 15.7514 6.11001C15.3514 6.05001 14.9414 6.01001 14.5114 6.01001C14.0814 6.01001 13.6314 6.05001 13.2114 6.11001C10.8814 6.50001 9.23141 7.96001 8.80141 10.34C8.73141 10.74 8.69141 11.17 8.69141 11.62C8.69141 12.07 8.73141 12.49 8.80141 12.88C9.23141 15.25 10.8814 16.72 13.2114 17.11C13.6214 17.18 14.0514 17.21 14.5114 17.21C14.9714 17.21 15.3614 17.18 15.7514 17.11C18.0814 16.73 19.7414 15.26 20.1614 12.88Z" fill="#164B35"/>
<path d="M25.7317 12.88C25.8017 12.48 25.8417 12.06 25.8417 11.62C25.8417 11.18 25.8017 10.74 25.7317 10.34C25.3017 7.95001 23.6417 6.48001 21.3217 6.11001C20.9217 6.05001 20.5117 6.01001 20.0817 6.01001C19.6517 6.01001 19.2017 6.05001 18.7817 6.11001C16.4517 6.50001 14.8017 7.96001 14.3717 10.34C14.3017 10.74 14.2617 11.17 14.2617 11.62C14.2617 12.07 14.3017 12.49 14.3717 12.88C14.8017 15.25 16.4517 16.72 18.7817 17.11C19.1917 17.18 19.6217 17.21 20.0817 17.21C20.5417 17.21 20.9317 17.18 21.3217 17.11C23.6517 16.73 25.3117 15.26 25.7317 12.88Z" fill="#FCA700"/>
<path d="M25.7317 12.88C25.8017 12.48 25.8417 12.06 25.8417 11.62C25.8417 11.18 25.8017 10.74 25.7317 10.34C25.3017 7.95001 23.6417 6.48001 21.3217 6.11001C20.9217 6.05001 20.5117 6.01001 20.0817 6.01001C19.6517 6.01001 19.2017 6.05001 18.7817 6.11001C16.4517 6.50001 14.8017 7.96001 14.3717 10.34C14.3017 10.74 14.2617 11.17 14.2617 11.62C14.2617 12.07 14.3017 12.49 14.3717 12.88C14.8017 15.25 16.4517 16.72 18.7817 17.11C19.1917 17.18 19.6217 17.21 20.0817 17.21C20.5417 17.21 20.9317 17.18 21.3217 17.11C23.6517 16.73 25.3117 15.26 25.7317 12.88Z" fill="#FCA700"/>
<path d="M27.3322 35.4401L27.3122 28.4601C27.5322 22.4201 24.5022 20.1201 19.8322 20.1201C15.4422 20.1201 12.4922 22.4201 12.4922 28.4601L12.5122 35.4401" fill="#FCA700"/>
<path d="M25.2114 12.1401C25.2614 12.9701 26.3514 13.2801 26.5514 12.2501C26.6314 11.8901 26.6914 11.5201 26.6714 11.1401C26.6614 10.7601 26.6914 10.3601 26.6114 9.9401C26.4814 9.1101 26.1614 8.1901 25.4914 7.3401C24.6914 6.4001 23.9514 6.0901 23.3714 5.8501C22.7714 5.6301 22.2514 5.5201 21.5114 5.3701C20.8814 5.3201 20.1414 5.1701 19.3714 5.2501C18.6014 5.2501 17.7714 5.3801 17.0214 5.6601C15.4714 6.1701 14.4114 7.3601 14.1014 7.8301C14.0114 7.9701 13.9114 8.1201 13.8414 8.2701C13.7114 8.5501 13.4914 9.0701 13.3514 9.7701C13.2614 10.1201 13.2614 10.5101 13.2314 10.9401C13.2214 11.1501 13.2114 11.3701 13.1914 11.6001C13.2114 11.8301 13.2314 12.0601 13.2614 12.3001C13.3014 13.2501 13.6114 14.3401 14.2214 15.3201C14.8314 16.3001 15.7714 17.1001 16.7714 17.5701C18.2214 18.2201 19.4514 18.2201 20.4014 18.2201C21.3614 18.1701 22.0614 18.0401 22.5414 17.8801C23.6714 17.5301 24.5714 16.8701 25.1914 16.1101C25.8014 15.3401 26.1314 14.4901 26.2514 13.6701C26.3614 12.7401 25.3714 12.6701 25.0914 13.3401C24.5114 14.5701 23.6214 15.5601 21.9714 16.0901C21.6514 16.2001 21.1114 16.2401 20.4114 16.2001C20.0614 16.2201 19.6814 16.1101 19.2614 16.0601C18.8414 16.0201 18.4114 15.8701 17.9814 15.7101C17.7114 15.5901 17.4314 15.4901 17.1614 15.3601C15.9614 14.8801 15.1414 13.4101 15.1314 12.1101C15.1114 11.9501 15.1014 11.8001 15.0814 11.6501C15.0814 11.5001 15.1014 11.3601 15.1114 11.2301C15.1314 10.9601 15.1514 10.7301 15.1714 10.5401C15.2414 10.1601 15.3214 9.9501 15.3214 9.9501C15.3214 9.9501 15.4014 9.6201 15.6314 9.1601C15.8714 8.7001 16.3014 8.1201 16.9514 7.6901C18.2614 6.7601 20.4214 6.8101 21.5214 7.0301C22.3614 7.2301 22.9014 7.5401 23.2714 7.8101C23.6414 8.0901 23.8514 8.3201 24.0014 8.5101C24.9214 9.6501 25.0814 10.9601 25.1814 12.1501L25.2114 12.1401Z" fill="#101214"/>
<path d="M26.7409 34.6901C26.8609 35.7001 27.9809 35.6901 28.0909 34.6901C28.2509 33.2601 28.3309 31.7701 28.3409 29.8401C28.2709 27.6801 28.1309 27.0301 27.8809 25.4801C27.6709 24.1801 27.0509 22.2901 25.7309 21.0701C24.4609 19.8101 22.9309 19.4001 22.4009 19.2201C22.2409 19.1801 22.0709 19.1401 21.9009 19.1201C21.2909 19.0601 19.7309 18.8601 17.7109 19.2601C16.7109 19.4701 15.5909 19.8701 14.6109 20.6101C13.6209 21.3301 12.8409 22.3701 12.3709 23.4301C11.7409 24.9401 11.6009 26.2201 11.5109 27.1901C11.4809 27.6801 11.4809 28.1101 11.4609 28.4701C11.4609 28.8101 11.4609 29.1001 11.4609 29.3301C11.4809 31.5301 11.6009 33.1701 11.8109 34.7801C11.9309 35.6701 12.9009 35.6601 13.0109 34.7801C13.2209 33.1701 13.3309 31.5301 13.3309 29.3301C13.3509 28.4601 13.4609 26.7101 14.2309 24.6701L14.6109 23.7101C14.9009 23.0401 15.3809 22.4101 16.0209 21.9601C16.6509 21.5101 17.4109 21.2401 18.1009 21.1101C18.8009 20.9601 19.4309 20.9501 19.8809 20.9501C20.3309 20.9701 20.6009 20.9801 20.6009 20.9801C20.6009 20.9801 21.0009 21.0001 21.6109 21.1001C22.2309 21.1901 23.0509 21.4101 23.8109 21.8501C24.5809 22.2801 25.2209 23.0001 25.6309 23.8001C26.0409 24.6001 26.2609 25.4501 26.3309 26.1101C26.4809 27.0901 26.4509 27.8601 26.4509 28.4501C26.4509 29.0601 26.4509 29.4801 26.4509 29.8001C26.4609 31.7401 26.5609 33.2401 26.7309 34.6701L26.7409 34.6901Z" fill="#101214"/>
</g>
</g>
<defs>
<clipPath id="clip0_226_8639">
<rect width="40" height="40" fill="white"/>
</clipPath>
<clipPath id="clip1_226_8639">
<rect width="40" height="40" fill="white"/>
</clipPath>
</defs>
</svg>
