<svg width="40" height="40" viewBox="0 0 40 40" fill="none" xmlns="http://www.w3.org/2000/svg">
<g clip-path="url(#clip0_226_9142)">
<g clip-path="url(#clip1_226_9142)">
<path d="M40 0H0V40H40V0Z" fill="#FCA700"/>
<path d="M34.8895 37.0501C33.8795 32.3501 33.3395 27.1001 33.3395 21.3901C33.3395 15.6801 33.8895 9.98009 34.9595 5.09009H7.05953C6.53953 10.2001 6.26953 15.5701 6.26953 21.1701C6.26953 26.7701 6.51953 32.0201 6.99953 37.0401H34.8895V37.0501Z" fill="#09326C"/>
<path d="M7.00031 37.05H34.8903C34.5003 35.22 34.2003 33.28 33.9503 31.29H6.57031C6.68031 33.24 6.82031 35.17 7.00031 37.05Z" fill="#1868DB"/>
<path d="M27.7092 7.97008L26.9292 3.08008L13.4492 3.62008V7.97008H27.7092Z" fill="#1868DB"/>
<path d="M29.4612 23.13C29.5612 22.49 29.6112 21.82 29.6012 21.1C29.5912 20.38 29.5212 19.69 29.4012 19.05C28.6612 15.23 25.9612 12.9 22.2212 12.34C21.5812 12.25 20.9112 12.2 20.2212 12.21C19.4912 12.21 18.8012 12.29 18.1412 12.41C14.4112 13.09 11.7912 15.48 11.1512 19.3C11.0412 19.95 10.9913 20.63 11.0013 21.36C11.0113 22.09 11.0812 22.75 11.2012 23.39C11.9412 27.19 14.6312 29.51 18.3812 30.09C19.0412 30.19 19.7412 30.24 20.4712 30.23C21.2012 30.22 21.8312 30.16 22.4712 30.05C26.2012 29.39 28.8412 26.99 29.4712 23.15L29.4612 23.13Z" fill="white"/>
<path d="M25.7013 28.1801C25.7813 23.9301 23.6313 22.3501 20.3413 22.4101C17.2613 22.4601 15.2113 24.1201 15.2913 28.3601V29.0801C16.2213 29.5601 17.2513 29.9001 18.3813 30.0701C19.0413 30.1701 19.7413 30.2201 20.4713 30.2101C21.1713 30.2101 21.8313 30.1401 22.4713 30.0301C23.6813 29.8201 24.7713 29.4201 25.7213 28.8401V28.1801H25.7013Z" fill="#1868DB"/>
<path d="M23.4721 19.4001C23.5121 19.1801 23.5221 18.9401 23.5221 18.6901C23.5221 18.4401 23.4921 18.2001 23.4521 17.9701C23.1921 16.6401 22.2521 15.8201 20.9421 15.6301C20.7221 15.6001 20.4821 15.5801 20.2421 15.5801C20.0021 15.5801 19.7421 15.6101 19.5121 15.6501C18.2121 15.8901 17.2921 16.7201 17.0721 18.0501C17.0321 18.2801 17.0121 18.5101 17.0221 18.7701C17.0321 19.0301 17.0521 19.2601 17.0921 19.4801C17.3521 20.8101 18.2921 21.6201 19.6021 21.8201C19.8321 21.8601 20.0721 21.8701 20.3321 21.8701C20.5921 21.8701 20.8121 21.8401 21.0321 21.8101C22.3321 21.5801 23.2521 20.7401 23.4721 19.4001Z" fill="#1868DB"/>
<path d="M27.5292 8.81C27.8992 8.69 27.8992 7.58 27.5292 7.46C27.0092 7.29 26.4692 7.21 25.7692 7.2C24.9792 7.25 24.7792 7.48 24.2392 7.46C23.3292 7.46 21.7992 7.15 21.4292 7.07C21.3792 7.06 21.3192 7.06 21.2692 7.07C20.8792 7.11 19.1592 7.28 17.6892 7.2C16.6492 7.2 15.9992 7.2 15.6592 7.2C14.8592 7.2 14.2692 7.32 13.6892 7.53C13.3692 7.65 13.3692 8.62 13.6892 8.73C14.2692 8.94 14.8692 9.06 15.6592 9.06C15.9692 9.06 16.6092 9.33 17.5192 9.37C17.6692 9.37 17.8192 9.36 17.9592 9.32C19.2292 8.96 20.8792 9.06 20.8792 9.06C20.8792 9.06 23.3392 9.06 24.3692 9.06C25.1492 9.06 25.5292 9.06 25.7592 9.06C26.4592 9.06 26.9992 8.96 27.5192 8.8L27.5292 8.81Z" fill="#101214"/>
<path d="M14.0711 33.31C13.7211 33.43 13.7211 34.54 14.0711 34.66C14.5611 34.83 15.0811 34.91 15.7511 34.92C16.5111 34.87 16.6911 34.64 17.2011 34.66C18.0611 34.66 19.5211 34.97 19.8711 35.05C19.9211 35.06 19.9711 35.06 20.0311 35.05C20.4011 35.01 22.0411 34.84 23.4411 34.92C24.4311 34.92 25.0511 34.92 25.3711 34.92C26.1311 34.92 26.6911 34.8 27.2511 34.59C27.5611 34.47 27.5611 33.5 27.2511 33.39C26.6911 33.18 26.1311 33.06 25.3711 33.06C25.0811 33.06 24.4611 32.79 23.6011 32.75C23.4611 32.75 23.3211 32.76 23.1811 32.8C21.9711 33.16 20.4011 33.06 20.4011 33.06C20.4011 33.06 18.0611 33.06 17.0711 33.06C16.3311 33.06 15.9711 33.06 15.7511 33.06C15.0811 33.06 14.5711 33.16 14.0711 33.32V33.31Z" fill="#101214"/>
</g>
</g>
<defs>
<clipPath id="clip0_226_9142">
<rect width="40" height="40" fill="white"/>
</clipPath>
<clipPath id="clip1_226_9142">
<rect width="40" height="40" fill="white"/>
</clipPath>
</defs>
</svg>
