<svg width="40" height="40" viewBox="0 0 40 40" fill="none" xmlns="http://www.w3.org/2000/svg">
<g clip-path="url(#clip0_226_9109)">
<g clip-path="url(#clip1_226_9109)">
<path d="M40 0H0V40H40V0Z" fill="#94C748"/>
<path d="M29.1303 39.35C29.2503 40.21 30.3603 40.21 30.4803 39.35C30.6503 38.13 30.7303 36.84 30.7403 35.18C30.6903 33.3 30.4603 32.84 30.4803 31.57C30.4803 29.42 30.7903 25.8 30.8703 24.93C30.8803 24.8 30.8803 24.67 30.8703 24.54C30.8303 23.62 30.6603 19.56 30.7403 16.07C30.7403 13.6 30.7403 12.08 30.7403 11.28C30.7403 9.40004 30.6203 7.99004 30.4103 6.61004C30.2903 5.85004 29.3203 5.85004 29.2103 6.61004C29.0003 7.99004 28.8803 9.40004 28.8803 11.28C28.8803 12.01 28.6103 13.54 28.5703 15.69C28.5703 16.04 28.5803 16.39 28.6203 16.74C28.9803 19.74 28.8803 23.64 28.8803 23.64C28.8803 23.64 28.8803 29.45 28.8803 31.91C28.8803 33.76 28.8803 34.65 28.8803 35.19C28.8803 36.84 28.9803 38.13 29.1403 39.36L29.1303 39.35Z" fill="#101214"/>
<path d="M22.478 39.35C22.598 40.21 23.708 40.21 23.828 39.35C23.998 38.13 24.078 36.84 24.088 35.18C24.038 33.3 23.808 32.84 23.828 31.57C23.828 29.42 24.138 25.8 24.218 24.93C24.228 24.8 24.228 24.67 24.218 24.54C24.178 23.62 24.008 19.56 24.088 16.07C24.088 13.6 24.088 12.08 24.088 11.28C24.088 9.40004 23.968 7.99004 23.758 6.61004C23.638 5.85004 22.668 5.85004 22.558 6.61004C22.348 7.99004 22.228 9.40004 22.228 11.28C22.228 12.01 21.958 13.54 21.918 15.69C21.918 16.04 21.928 16.39 21.968 16.74C22.328 19.74 22.228 23.64 22.228 23.64C22.228 23.64 22.228 29.45 22.228 31.91C22.228 33.76 22.228 34.65 22.228 35.19C22.228 36.84 22.328 38.13 22.488 39.36L22.478 39.35Z" fill="#101214"/>
<path d="M15.8295 39.35C15.9495 40.21 17.0595 40.21 17.1795 39.35C17.3495 38.13 17.4295 36.84 17.4395 35.18C17.3895 33.3 17.1595 32.84 17.1795 31.57C17.1795 29.42 17.4895 25.8 17.5695 24.93C17.5795 24.8 17.5795 24.67 17.5695 24.54C17.5295 23.62 17.3595 19.56 17.4395 16.07C17.4395 13.6 17.4395 12.08 17.4395 11.28C17.4395 9.40004 17.3195 7.99004 17.1095 6.61004C16.9895 5.85004 16.0195 5.85004 15.9095 6.61004C15.6995 7.99004 15.5795 9.40004 15.5795 11.28C15.5795 12.01 15.3095 13.54 15.2695 15.69C15.2695 16.04 15.2795 16.39 15.3195 16.74C15.6795 19.74 15.5795 23.64 15.5795 23.64C15.5795 23.64 15.5795 29.45 15.5795 31.91C15.5795 33.76 15.5795 34.65 15.5795 35.19C15.5795 36.84 15.6795 38.13 15.8395 39.36L15.8295 39.35Z" fill="#101214"/>
<path d="M5.37812 30.4702C4.47812 30.5902 4.47812 31.7002 5.37812 31.8202C6.64812 31.9902 7.98813 32.0702 9.70813 32.0802C11.6581 32.0302 12.1381 31.8002 13.4581 31.8202C15.6881 31.8202 19.4581 32.1302 20.3581 32.2102C20.4881 32.2202 20.6281 32.2202 20.7581 32.2102C21.7181 32.1702 25.9381 32.0002 29.5581 32.0802C32.1181 32.0802 33.7081 32.0802 34.5381 32.0802C36.4981 32.0802 37.9581 31.9602 39.3881 31.7502C40.1781 31.6302 40.1781 30.6602 39.3881 30.5502C37.9481 30.3402 36.4881 30.2202 34.5381 30.2202C33.7781 30.2202 32.1981 29.9502 29.9581 29.9102C29.5981 29.9102 29.2281 29.9202 28.8681 29.9602C25.7481 30.3202 21.6981 30.2202 21.6981 30.2202C21.6981 30.2202 15.6581 30.2202 13.1081 30.2202C11.1881 30.2202 10.2681 30.2202 9.69812 30.2202C7.97812 30.2202 6.63812 30.3202 5.36812 30.4802L5.37812 30.4702Z" fill="#101214"/>
<path d="M5.37812 23.82C4.47812 23.94 4.47812 25.05 5.37812 25.17C6.64812 25.34 7.98813 25.42 9.70813 25.43C11.6581 25.38 12.1381 25.15 13.4581 25.17C15.6881 25.17 19.4581 25.48 20.3581 25.56C20.4881 25.57 20.6281 25.57 20.7581 25.56C21.7181 25.52 25.9381 25.35 29.5581 25.43C32.1181 25.43 33.7081 25.43 34.5381 25.43C36.4981 25.43 37.9581 25.31 39.3881 25.1C40.1781 24.98 40.1781 24.01 39.3881 23.9C37.9481 23.69 36.4881 23.57 34.5381 23.57C33.7781 23.57 32.1981 23.3 29.9581 23.26C29.5981 23.26 29.2281 23.27 28.8681 23.31C25.7481 23.67 21.6981 23.57 21.6981 23.57C21.6981 23.57 15.6581 23.57 13.1081 23.57C11.1881 23.57 10.2681 23.57 9.69812 23.57C7.97812 23.57 6.63812 23.67 5.36812 23.83L5.37812 23.82Z" fill="#101214"/>
<path d="M5.37812 17.1701C4.47812 17.2901 4.47812 18.4001 5.37812 18.5201C6.64812 18.6901 7.98813 18.7701 9.70813 18.7801C11.6581 18.7301 12.1381 18.5001 13.4581 18.5201C15.6881 18.5201 19.4581 18.8301 20.3581 18.9101C20.4881 18.9201 20.6281 18.9201 20.7581 18.9101C21.7181 18.8701 25.9381 18.7001 29.5581 18.7801C32.1181 18.7801 33.7081 18.7801 34.5381 18.7801C36.4981 18.7801 37.9581 18.6601 39.3881 18.4501C40.1781 18.3301 40.1781 17.3601 39.3881 17.2501C37.9481 17.0401 36.4881 16.9201 34.5381 16.9201C33.7781 16.9201 32.1981 16.6501 29.9581 16.6101C29.5981 16.6101 29.2281 16.6201 28.8681 16.6601C25.7481 17.0201 21.6981 16.9201 21.6981 16.9201C21.6981 16.9201 15.6581 16.9201 13.1081 16.9201C11.1881 16.9201 10.2681 16.9201 9.69812 16.9201C7.97812 16.9201 6.63812 17.0201 5.36812 17.1801L5.37812 17.1701Z" fill="#101214"/>
<path d="M36.1683 37.8201H10.1783L8.48828 11.8401H37.8483L36.1683 37.8201Z" fill="#1868DB"/>
<path d="M33.8084 35.4699H12.5284L11.1484 14.1899H35.1884L33.8084 35.4699Z" fill="white"/>
<path d="M31.6973 33.3601H14.6373L13.5273 16.3H32.8073L31.6973 33.3601Z" fill="#09326C"/>
</g>
</g>
<defs>
<clipPath id="clip0_226_9109">
<rect width="40" height="40" fill="white"/>
</clipPath>
<clipPath id="clip1_226_9109">
<rect width="40" height="40" fill="white"/>
</clipPath>
</defs>
</svg>
