<svg width="40" height="40" viewBox="0 0 40 40" fill="none" xmlns="http://www.w3.org/2000/svg">
<g clip-path="url(#clip0_226_9021)">
<g clip-path="url(#clip1_226_9021)">
<path d="M0 40H40V0H0V40Z" fill="#1868DB"/>
<path d="M28.7791 23.6199L27.6191 26.2099H4.78906V30.1999L15.3091 33.8699H36.4291V26.3499V26.2099V23.6199H28.7791Z" fill="#FCA700"/>
<path d="M18.2805 12.3899H13.9805V20.2299H18.2805V12.3899Z" fill="#FCA700"/>
<path d="M24.6008 12.3799H20.3008V20.2199H24.6008V12.3799Z" fill="#FCA700"/>
<path d="M30.9289 12.3799H26.6289V20.2199H30.9289V12.3799Z" fill="#FCA700"/>
<path d="M0 31.0698C3.33 31.0898 3.32 33.0898 6.65 33.0998C9.98 33.1098 9.99 31.1198 13.32 31.1298C16.65 31.1398 16.64 33.1498 19.97 33.1598C23.3 33.1598 23.31 31.1798 26.65 31.1898C29.99 31.1998 29.98 33.2098 33.31 33.2198C36.64 33.2298 36.66 31.2398 39.99 31.2498V39.9998H0V31.0498V31.0698Z" fill="#8FB8F6"/>
<path d="M5.38906 27.06C4.58906 27.18 4.58906 28.29 5.38906 28.41C6.52906 28.58 7.72906 28.66 9.26906 28.67C11.0191 28.62 11.4491 28.39 12.6391 28.41C14.6391 28.41 18.0091 28.72 18.8291 28.8C18.9491 28.81 19.0691 28.81 19.1891 28.8C20.0491 28.76 23.8291 28.59 27.0791 28.67C29.3791 28.67 30.7991 28.67 31.5391 28.67C33.2891 28.67 34.6091 28.55 35.8891 28.34C36.5991 28.22 36.5991 27.25 35.8891 27.14C34.5991 26.93 33.2891 26.81 31.5391 26.81C30.8591 26.81 29.4391 26.54 27.4291 26.5C27.0991 26.5 26.7791 26.51 26.4491 26.55C23.6491 26.91 20.0191 26.81 20.0191 26.81C20.0191 26.81 14.5991 26.81 12.3191 26.81C10.5991 26.81 9.76906 26.81 9.25906 26.81C7.71906 26.81 6.51906 26.91 5.37906 27.07L5.38906 27.06Z" fill="#101214"/>
<path d="M28.7803 23.62H33.4603V20.24H10.5703V26.21H27.6203L28.7803 23.62Z" fill="white"/>
<path d="M14.0591 18.7099C13.9491 18.8299 13.9491 19.9399 14.0591 20.0599C14.2191 20.2299 14.3791 20.3099 14.5891 20.3199C14.8291 20.2699 14.8891 20.0399 15.0491 20.0599C15.3191 20.0599 15.7791 20.3699 15.8891 20.4499C15.9091 20.4599 15.9191 20.4599 15.9391 20.4499C16.0591 20.4099 16.5691 20.2399 17.0091 20.3199C17.3191 20.3199 17.5191 20.3199 17.6191 20.3199C17.8591 20.3199 18.0391 20.1999 18.2091 19.9899C18.3091 19.8699 18.3091 18.8999 18.2091 18.7899C18.0391 18.5799 17.8591 18.4599 17.6191 18.4599C17.5291 18.4599 17.3291 18.1899 17.0591 18.1499C17.0191 18.1499 16.9691 18.1599 16.9291 18.1999C16.5491 18.5599 16.0591 18.4599 16.0591 18.4599C16.0591 18.4599 15.3191 18.4599 15.0091 18.4599C14.7791 18.4599 14.6591 18.4599 14.5891 18.4599C14.3791 18.4599 14.2191 18.5599 14.0591 18.7199V18.7099Z" fill="#101214"/>
<path d="M20.3794 18.7099C20.2694 18.8299 20.2694 19.9399 20.3794 20.0599C20.5394 20.2299 20.6994 20.3099 20.9094 20.3199C21.1494 20.2699 21.2094 20.0399 21.3694 20.0599C21.6394 20.0599 22.0994 20.3699 22.2094 20.4499C22.2294 20.4599 22.2394 20.4599 22.2594 20.4499C22.3794 20.4099 22.8894 20.2399 23.3394 20.3199C23.6494 20.3199 23.8494 20.3199 23.9494 20.3199C24.1894 20.3199 24.3694 20.1999 24.5394 19.9899C24.6394 19.8699 24.6394 18.8999 24.5394 18.7899C24.3594 18.5799 24.1894 18.4599 23.9494 18.4599C23.8594 18.4599 23.6594 18.1899 23.3894 18.1499C23.3494 18.1499 23.2994 18.1599 23.2594 18.1999C22.8794 18.5599 22.3794 18.4599 22.3794 18.4599C22.3794 18.4599 21.6394 18.4599 21.3294 18.4599C21.0994 18.4599 20.9794 18.4599 20.9094 18.4599C20.6994 18.4599 20.5394 18.5599 20.3794 18.7199V18.7099Z" fill="#101214"/>
<path d="M26.7114 18.7099C26.6014 18.8299 26.6014 19.9399 26.7114 20.0599C26.8714 20.2299 27.0314 20.3099 27.2414 20.3199C27.4814 20.2699 27.5414 20.0399 27.7014 20.0599C27.9714 20.0599 28.4314 20.3699 28.5414 20.4499C28.5614 20.4599 28.5714 20.4599 28.5914 20.4499C28.7114 20.4099 29.2214 20.2399 29.6614 20.3199C29.9714 20.3199 30.1714 20.3199 30.2714 20.3199C30.5114 20.3199 30.6914 20.1999 30.8614 19.9899C30.9614 19.8699 30.9614 18.8999 30.8614 18.7899C30.6914 18.5799 30.5114 18.4599 30.2714 18.4599C30.1814 18.4599 29.9814 18.1899 29.7114 18.1499C29.6714 18.1499 29.6214 18.1599 29.5814 18.1999C29.2014 18.5599 28.7114 18.4599 28.7114 18.4599C28.7114 18.4599 27.9714 18.4599 27.6614 18.4599C27.4314 18.4599 27.3114 18.4599 27.2414 18.4599C27.0314 18.4599 26.8714 18.5599 26.7114 18.7199V18.7099Z" fill="#101214"/>
<path d="M28.2603 11.3499C28.2903 12.4899 29.3903 12.7499 29.6103 11.3899C29.7203 10.4399 29.6903 9.38992 29.2703 8.28992C28.8603 7.19992 27.9603 6.07992 26.6303 5.47992C25.1103 4.84992 24.0803 4.97992 23.2503 5.08992C22.4203 5.26992 21.7203 5.44992 20.7803 6.06992C20.3903 6.34992 19.9703 6.73992 19.7103 7.33992C19.4403 7.93992 19.4803 8.68992 19.7103 9.27992C19.9303 9.85992 20.3203 10.3999 20.8503 10.7899C21.3803 11.1799 22.0403 11.3899 22.6703 11.4099C23.9203 11.4799 25.2003 10.7499 25.6703 9.64992C26.1203 8.60992 25.8903 7.67992 25.7403 7.28992C25.6703 7.01992 25.5303 6.82992 25.4103 6.59992C25.1703 6.23992 24.6803 5.61992 23.9203 5.05992C23.1703 4.48992 22.1903 3.94992 21.0503 3.51992C18.7703 2.64992 15.8703 2.27992 13.2203 2.51992C9.46034 2.92992 7.36034 4.09992 6.29034 4.62992C3.77034 5.99992 2.23034 7.53992 0.980336 9.15992C0.290336 10.0699 1.05034 10.6799 1.86034 9.97992C3.35034 8.71992 4.89034 7.49992 7.17034 6.27992C8.06034 5.81992 10.0603 5.08992 12.9203 4.75992L14.3203 4.57992C16.3303 4.28992 18.7203 4.61992 20.4003 5.28992C21.2503 5.61992 21.9103 6.00992 22.3503 6.30992C22.7803 6.61992 22.9903 6.83992 22.9903 6.83992C22.9903 6.83992 23.0903 6.90992 23.2103 7.05992C23.3503 7.19992 23.5403 7.41992 23.7003 7.68992C24.0403 8.21992 24.1303 8.99992 23.4803 9.39992C23.1503 9.59992 22.6803 9.67992 22.2703 9.56992C21.8603 9.44992 21.5203 9.18992 21.3203 8.78992C21.1203 8.38992 21.1103 8.10992 21.2603 7.85992C21.4003 7.59992 21.7103 7.34992 22.0103 7.19992C22.9503 6.71992 23.8803 6.73992 24.4903 6.79992C25.1203 6.86992 25.5303 7.03992 25.8203 7.16992C27.6103 8.00992 28.1303 9.72992 28.2403 11.3399L28.2603 11.3499Z" fill="#101214"/>
</g>
</g>
<defs>
<clipPath id="clip0_226_9021">
<rect width="40" height="40" fill="white"/>
</clipPath>
<clipPath id="clip1_226_9021">
<rect width="40" height="40" fill="white"/>
</clipPath>
</defs>
</svg>
