<svg width="40" height="40" viewBox="0 0 40 40" fill="none" xmlns="http://www.w3.org/2000/svg">
<g clip-path="url(#clip0_226_9075)">
<g clip-path="url(#clip1_226_9075)">
<path d="M40 0H0V40H40V0Z" fill="#1868DB"/>
<path d="M40 39.9999V28.9299C39.01 29.8999 37.78 30.3599 36.35 30.3599C32.81 30.3599 30.37 27.7099 26.83 24.1599C22.18 19.0699 16.86 14.8699 7.12 14.8699C4.6 14.8699 2.22 15.2399 0 15.9599V39.9899H40V39.9999Z" fill="#09326C"/>
<path d="M36.2789 15.3499C35.0489 8.50993 30.2989 4.28993 23.6289 3.20993C22.4889 3.02993 21.2989 2.92993 20.0589 2.92993C18.8189 2.92993 17.5189 3.02993 16.3389 3.22993C9.66891 4.33993 4.92891 8.54993 3.69891 15.3499C3.48891 16.4999 3.37891 17.7199 3.37891 19.0199C3.37891 20.3199 3.48891 21.4999 3.68891 22.6399C4.90891 29.4299 9.65891 33.6499 16.3389 34.7599C17.5189 34.9599 18.7589 35.0599 20.0589 35.0599C21.3589 35.0599 22.4889 34.9699 23.6289 34.7799C30.2989 33.6899 35.0589 29.4699 36.2789 22.6399C36.4789 21.4999 36.5889 20.2999 36.5889 19.0199C36.5889 17.7399 36.4789 16.4999 36.2789 15.3499ZM26.1789 20.3799C25.7189 22.9799 23.9089 24.5799 21.3689 24.9999C20.9389 25.0699 20.4789 25.1099 20.0089 25.1099C19.5389 25.1099 19.0489 25.0699 18.5989 24.9999C16.0589 24.5799 14.2489 22.9699 13.7889 20.3899C13.7089 19.9599 13.6689 19.4999 13.6689 19.0099C13.6689 18.5199 13.7089 18.0499 13.7889 17.6199C14.2589 15.0299 16.0589 13.4299 18.5989 13.0099C19.0489 12.9299 19.5189 12.8999 20.0089 12.8999C20.4989 12.8999 20.9389 12.9399 21.3689 13.0099C23.8989 13.4199 25.7089 15.0299 26.1789 17.6299C26.2589 18.0699 26.2989 18.5299 26.2989 19.0199C26.2989 19.5099 26.2589 19.9599 26.1789 20.3999V20.3799Z" fill="white"/>
<path d="M26.27 19.6997C26.25 19.9297 26.22 20.1597 26.18 20.3697C25.72 22.9697 23.91 24.5697 21.37 24.9897C21.17 25.0197 20.96 25.0197 20.75 25.0397L28.8 33.0897C31.15 31.8697 33.05 30.1097 34.39 27.8297L26.26 19.6997H26.27Z" fill="#BF63F3"/>
<path d="M11.3792 4.80981C8.99922 5.99981 7.06922 7.72981 5.69922 9.97981L13.7392 18.0198C13.7592 17.8798 13.7692 17.7398 13.7992 17.5998C14.2692 15.0098 16.0692 13.4098 18.6092 12.9898C18.8892 12.9398 19.1792 12.9198 19.4792 12.8998L11.3792 4.80981Z" fill="#BF63F3"/>
<path d="M28.7111 4.83984L20.6211 12.9298C20.8711 12.9498 21.1311 12.9498 21.3711 12.9898C23.9011 13.3998 25.7111 15.0098 26.1811 17.6098C26.2111 17.7898 26.2311 17.9698 26.2511 18.1598L34.3411 10.0698C32.9911 7.79984 31.0711 6.04984 28.7111 4.83984Z" fill="#BF63F3"/>
<path d="M11.2806 33.1198L19.3306 25.0698C19.0806 25.0498 18.8406 25.0198 18.6006 24.9798C16.0606 24.5598 14.2506 22.9498 13.7906 20.3698C13.7606 20.1898 13.7406 20.0098 13.7206 19.8198L5.64062 27.8998C7.00063 30.1598 8.92062 31.9098 11.2806 33.1098V33.1198Z" fill="#BF63F3"/>
<path d="M6.3687 9.56002C6.0787 9.44002 5.2987 10.24 5.4187 10.52C5.5987 10.92 5.8387 11.29 6.2287 11.68C6.7087 12.08 6.9887 12.03 7.2687 12.34C7.7787 12.84 8.4187 13.91 8.5787 14.17C8.5987 14.21 8.6287 14.24 8.6687 14.27C8.9187 14.46 9.9987 15.29 10.7787 16.16C11.3687 16.73 11.7287 17.09 11.9187 17.28C12.3687 17.71 12.7887 17.96 13.2587 18.14C13.5187 18.23 14.1987 17.54 14.0987 17.28C13.9187 16.81 13.6687 16.39 13.2187 15.95C13.0487 15.78 12.8687 15.23 12.3887 14.69C12.3087 14.6 12.2187 14.53 12.0987 14.48C11.1287 14.04 10.2787 13.05 10.2787 13.05C10.2787 13.05 8.8987 11.69 8.3187 11.11C7.8787 10.68 7.6687 10.47 7.5387 10.35C7.1387 9.97002 6.7687 9.73002 6.3687 9.56002Z" fill="#101214"/>
<path d="M20.7993 12.54C20.6893 12.83 21.4993 13.59 21.7793 13.47C22.1793 13.29 22.5393 13.04 22.9193 12.64C23.3093 12.15 23.2493 11.88 23.5593 11.59C24.0493 11.07 25.0993 10.41 25.3593 10.25C25.3993 10.23 25.4293 10.2 25.4493 10.16C25.6293 9.91 26.4293 8.81 27.2893 8.02C27.8493 7.42 28.1993 7.05 28.3793 6.86C28.7993 6.4 29.0393 5.98 29.1993 5.5C29.2893 5.24 28.5793 4.57 28.3193 4.67C27.8493 4.86 27.4493 5.12 27.0093 5.57C26.8393 5.75 26.2993 5.93 25.7793 6.42C25.6893 6.5 25.6293 6.6 25.5793 6.71C25.1593 7.68 24.1993 8.55 24.1993 8.55C24.1993 8.55 22.8693 9.95 22.3093 10.54C21.8893 10.99 21.6893 11.2 21.5693 11.34C21.1993 11.74 20.9693 12.12 20.8093 12.53L20.7993 12.54Z" fill="#101214"/>
<path d="M26.6596 19.76C26.3696 19.63 25.5796 20.43 25.7096 20.72C25.8896 21.13 26.1396 21.51 26.5396 21.91C27.0296 22.33 27.3096 22.27 27.5996 22.6C28.1196 23.12 28.7796 24.21 28.9396 24.48C28.9596 24.52 28.9896 24.55 29.0296 24.58C29.2796 24.77 30.3896 25.63 31.1796 26.53C31.7796 27.12 32.1496 27.49 32.3496 27.68C32.8096 28.13 33.2296 28.39 33.7196 28.57C33.9896 28.67 34.6696 27.98 34.5696 27.72C34.3796 27.24 34.1196 26.82 33.6696 26.36C33.4896 26.18 33.3096 25.63 32.8196 25.07C32.7396 24.98 32.6396 24.91 32.5296 24.85C31.5496 24.38 30.6696 23.37 30.6696 23.37C30.6696 23.37 29.2596 21.96 28.6696 21.37C28.2196 20.93 27.9996 20.71 27.8696 20.58C27.4596 20.19 27.0896 19.94 26.6696 19.76H26.6596Z" fill="#101214"/>
<path d="M11.0687 32.67C10.9587 32.96 11.7787 33.72 12.0587 33.59C12.4587 33.41 12.8087 33.15 13.1887 32.76C13.5687 32.27 13.5087 32 13.8187 31.71C14.2987 31.19 15.3487 30.52 15.5987 30.36C15.6387 30.34 15.6687 30.31 15.6887 30.27C15.8687 30.02 16.6587 28.92 17.4987 28.13C18.0487 27.53 18.3987 27.16 18.5787 26.96C18.9987 26.5 19.2287 26.08 19.3887 25.6C19.4787 25.34 18.7687 24.68 18.5087 24.78C18.0387 24.97 17.6387 25.23 17.2087 25.69C17.0387 25.87 16.4987 26.05 15.9887 26.55C15.9087 26.63 15.8387 26.73 15.7887 26.84C15.3787 27.82 14.4287 28.69 14.4287 28.69C14.4287 28.69 13.1187 30.1 12.5587 30.69C12.1487 31.14 11.9487 31.36 11.8187 31.49C11.4487 31.9 11.2287 32.27 11.0687 32.68V32.67Z" fill="#101214"/>
</g>
</g>
<defs>
<clipPath id="clip0_226_9075">
<rect width="40" height="40" fill="white"/>
</clipPath>
<clipPath id="clip1_226_9075">
<rect width="40" height="40" fill="white"/>
</clipPath>
</defs>
</svg>
