<svg width="40" height="40" viewBox="0 0 40 40" fill="none" xmlns="http://www.w3.org/2000/svg">
<g clip-path="url(#clip0_226_8591)">
<g clip-path="url(#clip1_226_8591)">
<path d="M40 0H0V40H40V0Z" fill="#1868DB"/>
<path d="M40.0586 -0.159912H0.0585938V12.3201C2.69859 18.7601 8.26859 22.7901 15.5986 24.0201C17.1686 24.2801 18.8186 24.4201 20.5386 24.4201C22.2586 24.4201 23.7786 24.2901 25.2886 24.0501C31.9586 22.9701 37.1786 19.5301 40.0586 14.0301V-0.159912Z" fill="#8FB8F6"/>
<path d="M33.4594 25.3701C35.2294 23.1301 36.2094 20.2701 36.2094 16.9101C36.1994 8.52011 29.9994 3.04011 20.5394 3.06011C11.0794 3.08011 4.84939 8.59011 4.85939 16.9201C4.85939 20.4301 5.97939 23.4301 7.94939 25.7401H7.92939C7.92939 25.7401 8.00939 25.8301 8.15939 26.0001C8.18939 26.0301 8.21939 26.0601 8.23939 26.0901C8.97939 26.8801 11.0394 28.9101 14.5694 30.9401C16.2294 31.9001 17.2994 34.1001 17.5594 35.9901C17.6994 37.0201 17.8094 38.2201 17.8294 39.4901H23.2394C23.2594 38.2201 23.3694 37.0201 23.5094 35.9901C23.7594 34.0901 24.8494 31.9201 26.4994 30.9401C29.0794 29.4001 30.8194 28.0201 31.9194 27.0101C31.9994 26.9401 32.0794 26.8601 32.1594 26.7801C32.3994 26.5501 32.6094 26.3501 32.7794 26.1701C32.8594 26.0801 32.9494 26.0001 33.0294 25.9101C33.3494 25.5601 33.4994 25.3601 33.4994 25.3601H33.4794L33.4594 25.3701Z" fill="#FFC716"/>
<path d="M26.5793 21.1302C26.3193 17.5102 23.4493 15.6902 20.5693 15.6602C20.5693 15.6602 20.5493 15.6602 20.5393 15.6602C20.5393 15.6602 20.5193 15.6602 20.5093 15.6602C17.6293 15.6902 14.7593 17.5102 14.4993 21.1302C14.4793 21.3902 14.5593 23.1702 14.5593 23.4302C14.5593 27.5402 19.6893 28.4502 20.2493 28.8002L20.3593 28.5802C20.3593 28.5802 20.5693 28.9102 20.5793 28.9102L20.4693 29.0202L20.7993 28.6902C21.3593 28.3402 27.1493 27.2202 27.1493 23.1102C27.1493 22.8402 26.5993 21.4002 26.5793 21.1302Z" fill="white"/>
<path d="M21.3404 38.6101C21.4304 40.1101 22.5404 40.1601 22.6904 38.6301C22.9004 36.4701 22.9204 34.1701 22.8404 31.3001C22.7804 29.6801 22.7204 28.7001 22.7604 27.8701C22.7904 27.0401 22.8704 26.3301 23.3004 25.4501C23.6604 24.7001 24.2904 23.9401 25.1204 23.2801C25.5504 22.9801 26.0604 22.5601 26.2704 22.5501C26.4504 22.5201 26.5604 22.6201 26.5904 22.7601C26.6504 22.9601 26.6104 23.3001 26.4504 23.5901C26.2704 23.9401 26.0204 24.3001 25.7904 24.5901C25.3204 25.1801 24.8404 25.5501 24.5804 25.7601L24.1104 26.1201C23.5804 26.5401 21.9404 27.7401 19.5204 27.5201C18.3704 27.4201 16.9804 26.9501 16.1604 26.1201C15.7604 25.7201 15.5704 25.2001 15.6504 24.8901C15.7104 24.4801 16.1204 24.1401 16.2404 24.1901C16.3504 24.1901 16.5104 24.2401 16.6904 24.4701C16.8704 24.7001 17.0304 25.0501 17.1504 25.4001C17.3804 26.1401 17.5504 26.9001 17.6704 27.5401C17.9104 28.8501 18.0104 29.8301 18.0704 30.5101C18.3504 33.7201 18.3904 36.1501 18.5204 38.5701C18.6004 39.9301 19.5704 39.9201 19.7204 38.6101C20.0104 36.2001 20.2104 33.7001 19.9404 30.3401C19.8804 29.6901 19.8504 28.6801 19.6904 27.3401C19.6004 26.6701 19.4804 25.9201 19.2804 25.0901C19.1704 24.6501 19.0204 24.1801 18.7604 23.6801C18.5004 23.1901 18.0904 22.5901 17.3104 22.2201C16.8204 21.9901 16.2104 21.9201 15.6504 22.0701C15.0904 22.2201 14.6604 22.5501 14.3504 22.9101C14.0204 23.3101 13.8004 23.7601 13.6804 24.2501C13.5604 24.7301 13.5804 25.3301 13.7204 25.7901C14.0104 26.7401 14.6504 27.4401 15.3004 27.9201C16.6404 28.8801 18.0904 29.2701 19.4004 29.3901C20.7104 29.5101 21.8404 29.3001 22.6104 29.0801C23.3804 28.8401 23.8004 28.6301 23.8004 28.6301C23.8004 28.6301 24.4604 28.3501 25.3604 27.6801C26.2504 27.0001 27.3904 25.9401 28.1404 24.3101C28.3404 23.8501 28.4604 23.3101 28.3904 22.7301C28.3404 22.1801 28.0204 21.4501 27.4104 21.1001C26.8304 20.7101 26.0004 20.7701 25.4804 21.0201C24.9204 21.2801 24.6504 21.5601 24.3104 21.8101C22.9904 22.8201 21.9704 24.1901 21.5704 25.3501C20.9704 27.0801 20.9904 28.3601 20.9404 29.3001C20.9404 30.2401 20.9404 30.8801 20.9604 31.3601C21.0504 34.2701 21.2104 36.4901 21.3304 38.6201L21.3404 38.6101Z" fill="#101214"/>
<path d="M23.8984 35.8H17.1484V39.96H23.8984V35.8Z" fill="white"/>
<path d="M17.2267 35.31C17.0867 35.42 16.9867 36.54 17.2067 36.66C17.4567 36.83 17.7267 36.92 18.0667 36.93C18.4567 36.88 18.5467 36.65 18.8067 36.68C19.2467 36.68 19.9867 36.99 20.1667 37.07C20.1967 37.08 20.2167 37.08 20.2467 37.07C20.4367 37.03 21.2667 36.86 21.9867 36.94C22.4967 36.94 22.8067 36.93 22.9767 36.92C23.3667 36.9 23.6567 36.79 23.9667 36.56C24.4467 36.36 23.7767 35.5 23.8767 35.36C23.6167 35.16 23.3267 35.05 22.9467 35.05C22.7967 35.05 22.4867 34.79 22.0467 34.74C21.9767 34.74 21.9067 34.75 21.8367 34.79C21.2267 35.16 20.4367 35.05 20.4367 35.05C20.4367 35.05 19.2467 35.05 18.7467 35.04C18.3667 35.04 18.1867 35.04 18.0767 35.04C17.7367 35.04 17.4767 35.13 17.2267 35.29V35.31Z" fill="#101214"/>
<path d="M17.2267 38.55C17.0867 38.66 16.9867 39.78 17.2067 39.9C17.4567 40.07 17.7267 40.16 18.0667 40.17C18.4567 40.12 18.5467 39.89 18.8067 39.92C19.2467 39.92 19.9867 40.23 20.1667 40.31C20.1967 40.32 20.2167 40.32 20.2467 40.31C20.4367 40.27 21.2667 40.1 21.9867 40.18C22.4967 40.18 22.8067 40.17 22.9767 40.16C23.3667 40.14 23.6567 40.03 23.9667 39.8C24.4467 39.6 23.7767 38.74 23.8767 38.6C23.6167 38.4 23.3267 38.29 22.9467 38.29C22.7967 38.29 22.4867 38.03 22.0467 37.98C21.9767 37.98 21.9067 37.99 21.8367 38.03C21.2267 38.4 20.4367 38.29 20.4367 38.29C20.4367 38.29 19.2467 38.29 18.7467 38.28C18.3667 38.28 18.1867 38.28 18.0767 38.28C17.7367 38.28 17.4767 38.37 17.2267 38.53V38.55Z" fill="#101214"/>
<path d="M36.0492 10.0101C36.0092 10.1601 36.4992 11.1601 36.6392 11.2201C36.8392 11.3101 37.0092 11.3201 37.1892 11.2401C37.3592 11.1001 37.3092 10.8701 37.4492 10.8201C37.6692 10.7101 38.1892 10.8001 38.3092 10.8301C38.3292 10.8301 38.3392 10.8301 38.3492 10.8201C38.4292 10.7401 38.7792 10.3801 39.1792 10.2701C39.4392 10.1401 39.5892 10.0601 39.6792 10.0201C39.8692 9.92005 39.9692 9.74005 40.0192 9.48005C40.0492 9.34005 39.6192 8.46005 39.4892 8.40005C39.2492 8.28005 39.0592 8.25005 38.8592 8.34005C38.7792 8.38005 38.5092 8.21005 38.2592 8.28005C38.2192 8.29005 38.1892 8.33005 38.1692 8.38005C38.0192 8.86005 37.5692 8.97005 37.5692 8.97005C37.5692 8.97005 36.9592 9.26005 36.7092 9.39005C36.5192 9.49005 36.4292 9.53005 36.3692 9.56005C36.1992 9.65005 36.1092 9.80005 36.0492 10.0101Z" fill="#101214"/>
<path d="M33.1267 6.08007C33.1267 6.24007 33.9367 7.02007 34.0967 7.02007C34.3267 7.02007 34.5067 6.96007 34.6667 6.81007C34.7967 6.60007 34.6667 6.39007 34.8067 6.29007C34.9967 6.09007 35.5567 5.96007 35.6867 5.93007C35.7067 5.93007 35.7167 5.92007 35.7267 5.90007C35.7767 5.78007 36.0267 5.28007 36.4067 5.01007C36.6267 4.77007 36.7667 4.63007 36.8367 4.55007C37.0067 4.37007 37.0467 4.15007 37.0267 3.88007C37.0167 3.73007 36.3167 3.05007 36.1567 3.04007C35.8767 3.02007 35.6667 3.08007 35.4867 3.25007C35.4167 3.32007 35.0867 3.28007 34.8567 3.45007C34.8167 3.48007 34.7967 3.52007 34.7967 3.59007C34.7867 4.13007 34.3567 4.42007 34.3567 4.42007C34.3567 4.42007 33.8267 4.97007 33.5967 5.20007C33.4267 5.38007 33.3467 5.46007 33.2967 5.51007C33.1467 5.67007 33.0967 5.85007 33.1067 6.09007L33.1267 6.08007Z" fill="#101214"/>
<path d="M29.0374 3.40013C29.1074 3.54013 30.1274 3.99013 30.2674 3.95013C30.4774 3.89013 30.6174 3.79013 30.7074 3.61013C30.7474 3.39013 30.5574 3.25013 30.6374 3.12013C30.7374 2.89013 31.1874 2.63013 31.3074 2.57013C31.3274 2.57013 31.3374 2.55013 31.3374 2.53013C31.3374 2.42013 31.3774 1.92013 31.6174 1.58013C31.7274 1.32013 31.7974 1.15013 31.8374 1.07013C31.9174 0.870126 31.8774 0.670126 31.7474 0.440126C31.6774 0.310126 30.7874 -0.0798741 30.6474 -0.0498741C30.3874 0.0101259 30.2174 0.110126 30.1174 0.310126C30.0774 0.390126 29.7674 0.440126 29.6174 0.650126C29.5974 0.680126 29.5974 0.730126 29.6174 0.780126C29.8074 1.25013 29.5274 1.62013 29.5274 1.62013C29.5274 1.62013 29.2474 2.23013 29.1374 2.49013C29.0574 2.69013 29.0174 2.78013 28.9874 2.84013C28.9174 3.02013 28.9374 3.19013 29.0274 3.39013L29.0374 3.40013Z" fill="#101214"/>
</g>
</g>
<defs>
<clipPath id="clip0_226_8591">
<rect width="40" height="40" fill="white"/>
</clipPath>
<clipPath id="clip1_226_8591">
<rect width="40" height="40" fill="white"/>
</clipPath>
</defs>
</svg>
