<svg width="40" height="40" viewBox="0 0 40 40" fill="none" xmlns="http://www.w3.org/2000/svg">
<g clip-path="url(#clip0_226_8682)">
<g clip-path="url(#clip1_226_8682)">
<path d="M40 0H0V40H40V0Z" fill="#1868DB"/>
<path d="M30.2905 25.6001C23.4105 25.6001 19.0405 28.2201 17.5805 34.6201C17.5705 34.6201 17.5505 34.6201 17.5405 34.6201C14.3805 34.6201 12.1405 36.4801 11.4805 40.0001H40.0005V28.8201C37.7905 26.5901 34.5405 25.6001 30.2905 25.6001Z" fill="white"/>
<path d="M40 0H0V10.19C0.29 10.2 0.57 10.22 0.87 10.22C2.06 10.22 3.17 10.11 4.23 9.9C7.95 14 13.04 16.12 19.12 16.12C25.2 16.12 30.11 14.25 33.95 9.65C35.29 10.03 36.72 10.22 38.25 10.22C38.85 10.22 39.43 10.18 40 10.13V0Z" fill="#8FB8F6"/>
<path d="M33.9303 39.36L25.0603 21.27L32.5103 17.62L8.82031 2L17.6903 20.09L10.2303 23.75L33.9303 39.36Z" fill="#FFC716"/>
<path d="M9.54142 2.28993C9.08142 1.67993 8.09142 2.19993 8.35142 2.92993C8.72142 3.95993 9.17142 4.99993 9.86142 6.27993C10.6914 7.70993 11.0914 7.95993 11.5914 8.95993C12.4914 10.6199 13.7214 13.5799 14.0214 14.2899C14.0614 14.3999 14.1214 14.4999 14.1714 14.5899C14.3714 14.9299 14.9014 15.8299 15.5814 16.9799C15.9114 17.5599 16.2714 18.1999 16.6414 18.8599C16.8014 19.1599 16.9714 19.4699 17.1414 19.7799C17.1614 19.8299 17.1814 19.8699 17.1914 19.9099C17.1914 19.9099 17.1714 19.9099 17.1614 19.9099C15.6114 20.5699 14.6514 20.9699 14.1514 21.1899C12.6314 21.8399 11.5314 22.4299 10.4914 23.0999C9.92142 23.4699 10.3014 24.3599 10.9614 24.2099C12.1614 23.9299 13.3514 23.5599 14.8814 22.9199C15.1814 22.7999 15.6614 22.6599 16.2914 22.4799C16.6014 22.3799 16.9514 22.2699 17.3414 22.1499C17.5414 22.0799 17.7614 21.9999 17.9814 21.9299C18.3914 21.7699 18.8114 21.5999 19.2514 21.4199C19.5914 21.2799 19.9314 21.1299 20.2414 20.9899L19.8414 20.3299C19.5214 19.8099 19.1814 19.2699 18.8514 18.7299L18.2914 17.8499C17.9214 17.2599 17.5914 16.6699 17.3014 16.1599C16.7214 15.1199 16.3414 14.3599 16.3414 14.3599C16.3414 14.3599 13.9214 9.84993 12.9014 7.94993C12.1314 6.51993 11.7514 5.82993 11.5314 5.40993C10.8314 4.12993 10.2214 3.16993 9.56142 2.29993L9.54142 2.28993Z" fill="#101214"/>
<path d="M33.0413 38.8899C33.5013 39.4999 34.4812 38.9699 34.2312 38.2499C33.8712 37.2299 33.4212 36.1999 32.7512 34.9299C31.9312 33.5099 31.5413 33.2699 31.0413 32.2799C30.1613 30.6299 28.9412 27.6999 28.6512 26.9999C28.6112 26.8999 28.5612 26.7899 28.5012 26.6999C28.3012 26.3599 27.7912 25.4799 27.1312 24.3599C26.8112 23.7899 26.4612 23.1599 26.0912 22.5099C25.9312 22.2199 25.7813 21.9299 25.6213 21.6299C25.6013 21.5799 25.5812 21.5399 25.5712 21.4999C25.5712 21.4999 25.5912 21.4999 25.6112 21.4999C27.1712 20.8799 28.1312 20.4899 28.6312 20.2899C30.1512 19.6799 31.2513 19.1199 32.2913 18.4799C32.8613 18.1299 32.5012 17.2299 31.8512 17.3599C30.6512 17.6099 29.4713 17.9499 27.9513 18.5499C27.6513 18.6699 27.1712 18.7899 26.5512 18.9599C26.2412 19.0499 25.8912 19.1499 25.5112 19.2599C25.3112 19.3199 25.1012 19.3899 24.8912 19.4599C24.4812 19.6099 24.0613 19.7699 23.6213 19.9399C23.2413 20.0799 22.8812 20.2399 22.5312 20.3899L22.8713 20.9499C23.2013 21.4899 23.5512 22.0499 23.8912 22.6199L24.4513 23.4899C24.8113 24.0699 25.1412 24.6499 25.4312 25.1699C26.0012 26.1999 26.3812 26.9599 26.3812 26.9599C26.3812 26.9599 28.7712 31.4299 29.7712 33.3099C30.5312 34.7299 30.9013 35.4099 31.1213 35.8299C31.8113 37.0999 32.4113 38.0399 33.0613 38.9099L33.0413 38.8899Z" fill="#101214"/>
</g>
</g>
<defs>
<clipPath id="clip0_226_8682">
<rect width="40" height="40" fill="white"/>
</clipPath>
<clipPath id="clip1_226_8682">
<rect width="40" height="40" fill="white"/>
</clipPath>
</defs>
</svg>
