<svg width="40" height="40" viewBox="0 0 40 40" fill="none" xmlns="http://www.w3.org/2000/svg">
<g clip-path="url(#clip0_226_9000)">
<g clip-path="url(#clip1_226_9000)">
<path d="M40 0H0V40H40V0Z" fill="#BF63F3"/>
<mask id="mask0_226_9000" style="mask-type:luminance" maskUnits="userSpaceOnUse" x="0" y="1" width="41" height="40">
<path d="M40.4688 1H0.46875V41H40.4688V1Z" fill="white"/>
</mask>
<g mask="url(#mask0_226_9000)">
<path d="M35.2686 16.3899L30.7186 19.6799C30.6286 20.7099 30.5586 21.7499 30.5586 22.8099C30.5586 23.8699 30.6186 24.7799 30.6986 25.7399L33.9086 27.8699L35.6786 29.0599L35.2686 16.3899Z" fill="#09326C"/>
<path d="M16.9588 30.8898C16.9388 30.5898 15.8788 30.2398 15.6788 30.4698C15.3988 30.7898 15.1788 31.1598 15.0088 31.6698C14.8688 32.2598 15.0388 32.4798 14.8888 32.8598C14.6688 33.5198 14.0088 34.5398 13.8488 34.7798C13.8288 34.8198 13.8088 34.8498 13.7988 34.8998C13.7488 35.1998 13.4988 36.4998 13.0688 37.5498C12.8188 38.3098 12.6688 38.7798 12.5888 39.0198C12.4088 39.5998 12.3688 40.0698 12.4388 40.5598C12.4688 40.8298 13.3988 41.1298 13.5788 40.9398C13.9188 40.5798 14.1688 40.1798 14.3688 39.6098C14.4388 39.3898 14.8488 38.9998 15.1088 38.3498C15.1488 38.2398 15.1688 38.1298 15.1688 38.0098C15.1288 36.9698 15.6188 35.8098 15.6188 35.8098C15.6188 35.8098 16.2088 34.0198 16.4588 33.2698C16.6388 32.6998 16.7288 32.4298 16.7888 32.2598C16.9488 31.7498 16.9988 31.3298 16.9588 30.8998V30.8898Z" fill="#101214"/>
<path d="M26.0386 40.9199C26.2386 41.1599 27.2986 40.8099 27.3186 40.4999C27.3486 40.0499 27.2886 39.6099 27.1286 39.0699C26.8786 38.4799 26.6086 38.3999 26.4986 37.9799C26.2686 37.2899 26.1786 36.0199 26.1586 35.7099C26.1586 35.6599 26.1486 35.6199 26.1286 35.5799C25.9886 35.2899 25.3986 34.0399 25.1086 32.8799C24.8386 32.0799 24.6786 31.5899 24.5986 31.3299C24.3886 30.7199 24.1286 30.3099 23.7886 29.9299C23.5986 29.7199 22.6786 30.0199 22.6486 30.3099C22.5986 30.8199 22.6386 31.3099 22.8286 31.9199C22.9086 32.1599 22.8186 32.7299 22.9986 33.4399C23.0286 33.5599 23.0786 33.6599 23.1586 33.7599C23.8186 34.6199 24.1386 35.9099 24.1386 35.9099C24.1386 35.9099 24.7486 37.7899 25.0086 38.5799C25.2086 39.1799 25.2986 39.4599 25.3586 39.6399C25.5386 40.1699 25.7586 40.5599 26.0486 40.8999L26.0386 40.9199Z" fill="#101214"/>
<path d="M31.4902 14.9299H8.13016C7.82016 17.4299 7.66016 20.0099 7.66016 22.6699C7.66016 25.3299 7.81016 27.9899 8.12016 30.5099H31.5002C30.8902 28.1199 30.5602 25.5499 30.5602 22.8099C30.5602 20.0699 30.8802 17.3799 31.5002 14.9299H31.4902Z" fill="#1868DB"/>
<path d="M8.62969 15.7299C8.62969 14.7399 7.51969 14.5899 7.28969 15.5799C6.96969 16.9799 6.74969 18.4699 6.67969 20.3999C6.67969 22.5899 6.91969 23.1299 6.92969 24.5999C6.95969 25.8499 6.99969 27.5299 7.02969 29.0199C7.02969 29.2099 7.04969 29.3999 7.04969 29.5899C7.07969 29.9199 7.09969 30.2399 7.12969 30.5499C7.15969 30.8699 7.17969 31.1799 7.20969 31.4799V31.5399H7.26969H7.36969L7.57969 31.5499C7.71969 31.5499 7.84969 31.5599 7.98969 31.5699C8.48969 31.5899 8.92969 31.6099 9.30969 31.6299C9.51969 31.6499 9.69969 31.6599 9.81969 31.6699C9.96969 31.6799 10.1197 31.6799 10.2697 31.6699C11.3297 31.6299 15.9897 31.4599 19.9997 31.5399C22.8297 31.5399 24.5897 31.5399 25.4997 31.5399C27.6597 31.5399 29.2797 31.4199 30.8597 31.2099C31.7297 31.0899 31.7297 30.1199 30.8597 30.0099C29.2697 29.7999 27.6597 29.6799 25.4997 29.6799C24.6597 29.6799 22.9097 29.4099 20.4397 29.3699C20.0397 29.3699 19.6297 29.3799 19.2397 29.4199C15.7897 29.7799 11.3197 29.6799 11.3197 29.6799C11.3197 29.6799 10.8997 29.6799 10.2297 29.6799C9.91969 29.6799 9.54969 29.6799 9.14969 29.6799C9.03969 29.6699 8.84969 29.7299 8.88969 29.5399C8.84969 29.1699 8.81969 28.7799 8.77969 28.3899C8.73969 27.8699 8.69969 27.3499 8.66969 26.8499C8.60969 25.8399 8.57969 24.9099 8.55969 24.2099C8.51969 22.1099 8.55969 21.1099 8.57969 20.4899C8.63969 18.6199 8.66969 17.1599 8.65969 15.7499L8.62969 15.7299Z" fill="#101214"/>
</g>
<path d="M15.0298 15.0499C17.4798 15.0499 19.4698 13.0599 19.4698 10.6099C19.4698 8.15992 17.4798 6.16992 15.0298 6.16992C12.5798 6.16992 10.5898 8.15992 10.5898 10.6099C10.5898 13.0599 12.5798 15.0499 15.0298 15.0499Z" fill="white"/>
<path d="M25.617 15.04C27.637 15.04 29.277 13.4 29.277 11.38C29.277 9.35997 27.637 7.71997 25.617 7.71997C23.597 7.71997 21.957 9.35997 21.957 11.38C21.957 13.4 23.597 15.04 25.617 15.04Z" fill="white"/>
<path d="M15.4877 14.4299C14.9177 14.5799 14.7777 15.7099 15.6477 15.7699C16.8277 15.7999 18.1977 15.3299 19.2777 14.0399C19.8377 13.2699 19.9877 12.6799 20.0977 12.1899C20.1677 11.6899 20.2177 11.2699 20.2377 10.6599C20.2677 9.62991 19.9477 8.20991 19.1677 7.17991C18.4177 6.12991 17.3777 5.53991 16.9677 5.35991C16.8477 5.30991 16.7177 5.24991 16.5877 5.21991C16.1377 5.10991 14.8077 4.84991 13.2877 5.39991C12.5377 5.66991 11.7777 6.13991 11.1577 6.77991C10.5377 7.41991 10.0477 8.21991 9.78767 9.06991C9.43767 10.2799 9.56766 11.3199 9.77766 12.0799C9.99766 12.8499 10.3177 13.3599 10.5277 13.6899C11.6477 15.2499 13.1877 15.7699 14.4977 15.6999C15.2477 15.6299 15.1377 14.6499 14.6177 14.4999C13.6577 14.1699 12.7977 13.6499 12.0677 12.6299C11.7977 12.2299 11.5077 11.1699 11.8277 9.89991C11.8777 9.68991 11.9277 9.48991 11.9677 9.27991C12.1477 8.33991 13.0477 7.44991 13.9077 7.17991C14.3277 7.02991 14.7277 6.99991 14.9977 6.99991C15.2677 7.00991 15.4377 7.02991 15.4377 7.02991C15.4377 7.02991 15.6777 7.04991 16.0477 7.15991C16.4177 7.26991 16.9177 7.48991 17.3577 7.87991C17.7977 8.25991 18.1877 8.78991 18.3777 9.34991C18.5877 9.89991 18.6277 10.4599 18.5977 10.8699C18.5577 11.4799 18.3877 11.9199 18.2277 12.2199C18.0777 12.5299 17.9277 12.7199 17.8177 12.8599C17.1177 13.7099 16.3277 14.1499 15.4877 14.4299Z" fill="#101214"/>
<path d="M25.9879 14.43C25.5379 14.58 25.3979 15.7 26.1479 15.77C27.1479 15.82 28.3379 15.43 29.2579 14.33C29.7379 13.67 29.8579 13.16 29.9379 12.74C29.9979 12.31 30.0179 11.96 30.0379 11.44C30.0679 10.57 29.8079 9.36 29.1479 8.46C28.5179 7.55 27.6279 7.03 27.2779 6.87C27.1779 6.82 27.0679 6.77 26.9479 6.75C26.5579 6.66 25.4079 6.44 24.1079 6.92C23.4679 7.16 22.8179 7.56 22.2779 8.1C21.7479 8.65 21.3279 9.34 21.1079 10.06C20.8079 11.1 20.9179 11.99 21.1079 12.64C21.2979 13.3 21.5679 13.74 21.7579 14.02C22.7179 15.36 24.0479 15.79 25.1679 15.7C25.8079 15.62 25.6979 14.64 25.2879 14.5C24.5179 14.2 23.8679 13.76 23.2979 12.96C23.0779 12.64 22.9179 11.8 23.1779 10.84C23.2179 10.68 23.2479 10.53 23.2779 10.36C23.3779 9.62 24.0679 8.91 24.7379 8.7C25.4079 8.47 25.9379 8.58 25.9379 8.58C25.9379 8.58 26.1279 8.59 26.4179 8.68C26.7079 8.77 27.0979 8.94 27.4379 9.24C28.1779 9.83 28.4979 10.94 28.4079 11.58C28.3179 12.54 27.9479 12.92 27.7979 13.14C27.2479 13.81 26.6479 14.17 25.9779 14.42L25.9879 14.43Z" fill="#101214"/>
</g>
</g>
<defs>
<clipPath id="clip0_226_9000">
<rect width="40" height="40" fill="white"/>
</clipPath>
<clipPath id="clip1_226_9000">
<rect width="40" height="40" fill="white"/>
</clipPath>
</defs>
</svg>
