<svg width="40" height="40" viewBox="0 0 40 40" fill="none" xmlns="http://www.w3.org/2000/svg">
<g clip-path="url(#clip0_226_8955)">
<g clip-path="url(#clip1_226_8955)">
<path d="M0 40L40 40L40 0L0 0L0 40Z" fill="#BF63F3"/>
<path d="M40.0008 3.90991H9.30078V39.9999H40.0008V3.90991Z" fill="#1868DB"/>
<path d="M40.0008 3.90991H9.30078V9.36991H40.0008V3.90991Z" fill="#09326C"/>
<path d="M14.1192 6.24001C14.0792 6.14001 14.0292 6.04001 13.9692 5.94001C13.9092 5.84001 13.8392 5.75001 13.7692 5.66001C13.3492 5.18001 12.7792 5.06001 12.1992 5.29001C12.0992 5.33001 11.9992 5.38001 11.8992 5.44001C11.7992 5.50001 11.6992 5.57001 11.6192 5.64001C11.1392 6.04001 10.9592 6.60001 11.1892 7.19001C11.2292 7.29001 11.2792 7.39001 11.3392 7.50001C11.3992 7.61001 11.4592 7.69001 11.5292 7.77001C11.9492 8.25001 12.5192 8.36001 13.0992 8.14001C13.1992 8.10001 13.3092 8.05001 13.4092 7.99001C13.5092 7.93001 13.5992 7.87001 13.6792 7.80001C14.1592 7.40001 14.3392 6.84001 14.1092 6.25001L14.1192 6.24001Z" fill="#BF63F3"/>
<path d="M19.9122 6.24001C19.8722 6.14001 19.8222 6.04001 19.7622 5.94001C19.7022 5.84001 19.6322 5.75001 19.5622 5.66001C19.1422 5.18001 18.5722 5.06001 17.9922 5.29001C17.8922 5.33001 17.7922 5.38001 17.6922 5.44001C17.5922 5.50001 17.4922 5.57001 17.4122 5.64001C16.9322 6.04001 16.7522 6.60001 16.9822 7.19001C17.0222 7.29001 17.0722 7.39001 17.1322 7.50001C17.1922 7.61001 17.2522 7.69001 17.3222 7.77001C17.7422 8.25001 18.3122 8.36001 18.8922 8.14001C18.9922 8.10001 19.1022 8.05001 19.2022 7.99001C19.3022 7.93001 19.3922 7.87001 19.4722 7.80001C19.9522 7.40001 20.1322 6.84001 19.9022 6.25001L19.9122 6.24001Z" fill="#1868DB"/>
<path d="M25.7012 6.24001C25.6612 6.14001 25.6112 6.04001 25.5512 5.94001C25.4912 5.84001 25.4212 5.75001 25.3512 5.66001C24.9312 5.18001 24.3612 5.06001 23.7812 5.29001C23.6812 5.33001 23.5812 5.38001 23.4812 5.44001C23.3812 5.50001 23.2812 5.57001 23.2012 5.64001C22.7212 6.04001 22.5412 6.60001 22.7712 7.19001C22.8112 7.29001 22.8612 7.39001 22.9212 7.50001C22.9812 7.61001 23.0412 7.69001 23.1112 7.77001C23.5312 8.25001 24.1012 8.36001 24.6812 8.14001C24.7812 8.10001 24.8912 8.05001 24.9912 7.99001C25.0912 7.93001 25.1812 7.87001 25.2612 7.80001C25.7412 7.40001 25.9212 6.84001 25.6912 6.25001L25.7012 6.24001Z" fill="white"/>
<path d="M36.7605 27.12C36.8905 26.37 36.9605 25.59 36.9605 24.75C36.9605 23.91 36.8905 23.1 36.7605 22.34C35.9505 17.85 32.8405 15.09 28.4805 14.38C27.7305 14.26 26.9505 14.2 26.1405 14.2C25.3305 14.2 24.4805 14.27 23.7105 14.4C19.3405 15.12 16.2305 17.89 15.4305 22.34C15.3005 23.09 15.2305 23.89 15.2305 24.75C15.2305 25.61 15.3005 26.38 15.4305 27.12C16.2305 31.57 19.3505 34.34 23.7305 35.06C24.5005 35.19 25.3205 35.2599 26.1605 35.2599C27.0005 35.2599 27.7505 35.2 28.5005 35.08C32.8805 34.37 35.9905 31.6 36.8005 27.12H36.7805H36.7605Z" fill="#BF63F3"/>
<path d="M22.7405 32.3299L24.8105 30.9099L33.2505 25.0899L22.2305 17.1199L22.7305 32.3299H22.7405Z" fill="white"/>
<path d="M23.1512 17.6299C23.0112 16.5699 21.9012 16.5899 21.8012 17.6599C21.6612 19.1699 21.6112 20.7499 21.6412 22.7799C21.7412 25.0799 21.9812 25.6499 21.9812 27.2099C21.9912 27.9599 21.9812 28.8599 21.9712 29.7599C21.9512 31.2899 21.9312 32.8399 21.9212 34.1599C23.0312 33.4399 24.0012 32.8099 24.7812 32.3099C24.9712 32.1899 25.1512 32.0699 25.3212 31.9699C25.4212 31.9099 25.5112 31.8599 25.5912 31.8099C25.7512 31.7099 25.8912 31.6299 25.9912 31.5699C26.1312 31.4899 26.2612 31.3999 26.3912 31.3099C26.7912 31.0099 27.8012 30.2699 29.1312 29.2899C29.8012 28.8099 30.5512 28.2699 31.3512 27.6999C32.5212 26.8899 33.7512 26.0299 34.9912 25.1599C34.6912 24.9299 33.9512 24.3499 33.2212 23.7799C30.6812 21.8299 29.1112 20.6199 28.2912 19.9899C26.4512 18.5899 25.0212 17.6199 23.5412 16.7599C22.7312 16.2799 22.1412 17.0499 22.8112 17.7099C24.0212 18.9099 25.3212 20.0599 27.1512 21.4699C27.8612 22.0199 29.1812 23.3699 31.2412 25.0199L31.3012 25.0699C31.3012 25.0699 31.3312 25.0599 31.3712 25.0699C31.3912 25.0699 31.4212 25.0699 31.4412 25.0799C31.4812 25.0999 31.4712 25.1499 31.4312 25.2099L31.4112 25.2299L31.2912 25.3199L31.0112 25.5399L30.4512 25.9599C29.7112 26.5199 28.9812 27.0499 28.3412 27.4999C27.0612 28.4099 26.1312 29.0299 26.1312 29.0299L23.6612 30.7399L23.5912 26.7799C23.5412 24.5099 23.5212 23.4199 23.5112 22.7499C23.4612 20.7199 23.3412 19.1399 23.1512 17.6399V17.6299Z" fill="#101214"/>
</g>
</g>
<defs>
<clipPath id="clip0_226_8955">
<rect width="40" height="40" fill="white"/>
</clipPath>
<clipPath id="clip1_226_8955">
<rect width="40" height="40" fill="white"/>
</clipPath>
</defs>
</svg>
