<svg width="40" height="40" viewBox="0 0 40 40" fill="none" xmlns="http://www.w3.org/2000/svg">
<g clip-path="url(#clip0_226_9040)">
<g clip-path="url(#clip1_226_9040)">
<path d="M40 0H0V40H40V0Z" fill="#09326C"/>
<path d="M0 8.89V37.64C1.71 37.03 3.42 36.4 5.15 35.74C17.85 30.88 29.39 25.45 40 19.29V0H19.68C13.37 3.19 6.8 6.15 0 8.89Z" fill="#1868DB"/>
<path d="M28.6231 28.9299L28.3131 29.1099C32.7831 25.2299 34.1931 19.9199 32.1531 14.4799C31.8131 13.5699 31.3731 12.6599 30.8531 11.7799C30.3231 10.8799 29.7331 10.0499 29.0831 9.30993C25.2231 4.82993 19.7531 3.52993 14.1031 5.73993C13.2231 6.07993 12.3431 6.51993 11.4831 7.01993C10.5931 7.53993 9.76311 8.12993 9.00311 8.76993C4.36311 12.6799 2.87311 18.0799 4.91311 23.5899C5.25311 24.5099 5.69311 25.4299 6.23311 26.3299C6.76311 27.2199 7.35311 28.0399 7.98311 28.7699C10.5731 31.7699 13.9231 33.3599 17.6731 33.3599C19.4031 33.3599 21.1731 33.0099 22.9431 32.3299C23.2731 32.1999 23.6031 32.0499 23.9331 31.8999L28.5131 39.9499H34.9631L28.6231 28.9199V28.9299ZM25.1231 25.9799C24.5931 26.4199 24.0031 26.8399 23.3531 27.2199C22.6831 27.6199 22.0031 27.9399 21.3331 28.1999C17.5231 29.6699 13.7731 28.9399 11.0531 25.7899C10.6031 25.2599 10.1731 24.6699 9.78311 24.0099C9.38311 23.3399 9.06311 22.6699 8.82311 22.0099C7.37311 18.0999 8.54311 14.4699 11.6631 11.8499C12.2131 11.3899 12.8231 10.9499 13.5031 10.5499C14.1431 10.1699 14.7931 9.84993 15.4431 9.59993C19.2331 8.11993 22.9931 8.84993 25.7231 12.0199C26.1831 12.5499 26.6131 13.1499 27.0131 13.8299C27.4031 14.4899 27.7231 15.1499 27.9631 15.7999C29.4231 19.7199 28.2531 23.3699 25.1231 25.9799Z" fill="#FCA700"/>
<path d="M27.9639 15.7999C27.7239 15.1499 27.4039 14.4899 27.0139 13.8299C26.6239 13.1699 26.1839 12.5599 25.7239 12.0199C22.9839 8.84992 19.2339 8.11992 15.4439 9.59992C14.7939 9.84992 14.1539 10.1699 13.5039 10.5499C12.8539 10.9299 12.2239 11.3799 11.6639 11.8499C8.5439 14.4699 7.3739 18.1099 8.8239 22.0099C9.0639 22.6699 9.3839 23.3399 9.7839 24.0099C10.1839 24.6799 10.6039 25.2699 11.0539 25.7899C13.7739 28.9399 17.5239 29.6699 21.3339 28.1999C22.0039 27.9399 22.6839 27.6099 23.3539 27.2199C24.0239 26.8299 24.5839 26.4199 25.1239 25.9799C28.2539 23.3699 29.4239 19.7199 27.9639 15.7999Z" fill="white"/>
<path d="M27.2694 39.9401C27.4794 40.0801 28.4594 39.5401 28.4494 39.2901C28.4494 38.9401 28.3694 38.6001 28.1694 38.2301C27.8894 37.8301 27.6294 37.8401 27.4994 37.5401C27.2394 37.0601 27.0694 36.1001 27.0294 35.8601C27.0294 35.8301 27.0094 35.8001 26.9894 35.7701C26.8394 35.5801 26.1994 34.7501 25.8394 33.9301C25.5394 33.3801 25.3494 33.0401 25.2494 32.8601C25.0094 32.4401 24.7394 32.1801 24.3794 31.9701C24.1794 31.8601 23.3294 32.3201 23.3194 32.5501C23.2994 32.9601 23.3794 33.3301 23.5994 33.7601C23.6894 33.9201 23.6394 34.4001 23.8594 34.9001C23.8994 34.9801 23.9594 35.0501 24.0294 35.1101C24.7194 35.6101 25.0994 36.5401 25.0994 36.5401C25.0994 36.5401 25.8094 37.8501 26.1094 38.4001C26.3394 38.8101 26.4494 39.0101 26.5194 39.1401C26.7294 39.5101 26.9594 39.7601 27.2594 39.9501L27.2694 39.9401Z" fill="#101214"/>
<path d="M4.52125 14.9801C4.78125 14.1301 3.81125 13.5701 3.28125 14.4501C2.58125 15.7001 2.07125 17.2101 2.03125 19.1801C2.05125 20.3001 2.23125 20.9801 2.38125 21.5601C2.55125 22.1301 2.69125 22.6101 2.90125 23.3201C3.25125 24.5101 3.86125 26.0601 4.57125 27.3601C5.26125 28.6701 6.05125 29.7401 6.38125 30.1401C6.47125 30.2601 6.57125 30.3801 6.69125 30.4801C7.08125 30.8601 8.17125 31.8801 9.82125 32.7901C11.4512 33.7101 13.6613 34.3701 15.7413 34.4601C18.6913 34.5201 20.4112 33.8301 21.2812 33.5601C23.3512 32.8201 24.6812 31.8301 25.8412 30.7501C26.4912 30.1701 25.8712 29.4201 25.1412 29.7701C23.8212 30.4501 22.5112 31.1501 20.6512 31.7901C19.9312 32.0301 18.3413 32.3201 16.2013 32.2801C15.8513 32.2701 15.5012 32.2801 15.1512 32.2801C13.6412 32.3401 11.9212 31.8301 10.7312 31.1301C10.1312 30.8001 9.65125 30.4401 9.32125 30.1701C8.99125 29.9001 8.81125 29.7301 8.81125 29.7301C8.81125 29.7301 7.66125 28.7601 6.62125 27.2401C5.55125 25.7401 4.66125 23.7401 4.36125 22.5201C3.87125 20.6801 3.92125 19.7501 3.91125 19.2001C3.93125 17.5101 4.19125 16.2201 4.53125 14.9801H4.52125Z" fill="#101214"/>
<path d="M24.0795 26.56C24.6995 26.05 24.8196 25.59 24.6196 25.36L24.6695 25.34L24.6096 25.36C24.4096 25.13 23.9095 25.1 23.2895 25.46C22.4295 26.01 21.4795 26.47 20.4295 26.84C19.3795 27.19 18.2195 27.48 16.9495 27.43C15.5195 27.39 14.6595 27.06 13.9395 26.73C13.2295 26.38 12.6295 25.98 11.9395 25.2C10.7595 23.91 9.57955 21.64 9.40955 19.64C9.31955 18.64 9.46955 17.72 9.70955 17.02C9.94955 16.31 10.2795 15.82 10.4595 15.54C10.5795 15.38 10.6695 15.21 10.7895 15.05C11.1595 14.49 12.4095 12.84 14.7395 11.68C15.3095 11.41 15.8895 11.04 16.5495 10.84C17.1995 10.62 17.8795 10.47 18.5595 10.41C19.9295 10.28 21.3095 10.62 22.4295 11.35C24.0395 12.36 24.9796 13.77 25.6196 14.88C26.2596 16.01 26.5396 16.9 26.6796 17.5C27.3696 20.39 26.3796 22.54 24.9296 24.28C24.0996 25.2 24.6496 26.01 25.7796 25.13C26.7596 24.31 27.6396 23.27 28.1996 21.89C28.7696 20.52 28.9295 18.82 28.4995 17.05C28.3395 16.37 28.0695 15.31 27.4595 14.04C26.8495 12.8 25.9395 11.23 24.2095 9.90003C23.6495 9.48003 23.0195 9.13003 22.3495 8.89003C20.9095 8.37003 19.2295 8.25003 17.7295 8.54003C16.9795 8.68003 16.2595 8.89003 15.5995 9.14003C14.9395 9.40003 14.3595 9.74003 13.7895 10.01C12.6395 10.55 11.7895 11.23 11.1895 11.71C10.5995 12.21 10.2695 12.54 10.2695 12.54C10.2695 12.54 9.75955 13 9.09955 13.93C8.45955 14.84 7.71955 16.31 7.58955 18.06C7.43955 19.8 7.92955 21.65 8.65955 23.14C9.38955 24.64 10.3095 25.9 11.1495 26.73C12.4095 27.99 13.6695 28.6 14.6395 28.92C15.6195 29.23 16.3395 29.27 16.8695 29.3C18.4995 29.35 19.8695 28.94 21.0495 28.45C22.2195 27.94 23.1995 27.32 24.0595 26.57L24.0795 26.56Z" fill="#101214"/>
</g>
</g>
<defs>
<clipPath id="clip0_226_9040">
<rect width="40" height="40" fill="white"/>
</clipPath>
<clipPath id="clip1_226_9040">
<rect width="40" height="40" fill="white"/>
</clipPath>
</defs>
</svg>
