<svg width="40" height="40" viewBox="0 0 40 40" fill="none" xmlns="http://www.w3.org/2000/svg">
<g clip-path="url(#clip0_226_8969)">
<g clip-path="url(#clip1_226_8969)">
<path d="M40 0H0V40H40V0Z" fill="#BF63F3"/>
<path d="M19.9403 8.94995L4.32031 22.01V37.79H35.5603V22.01L19.9403 8.94995Z" fill="white"/>
<path d="M4.81145 21.4801C4.11145 22.2501 4.84145 23.0901 5.70145 22.4901C6.91145 21.6401 8.14145 20.6901 9.63145 19.3801C11.2915 17.8501 11.5615 17.3101 12.7215 16.3201C14.6615 14.6101 18.1315 11.9701 18.9715 11.3401C19.0915 11.2501 19.2115 11.1501 19.3315 11.0401C19.4015 10.9701 19.5015 10.8801 19.7015 10.7001C20.0315 10.4101 19.9015 10.5101 19.9415 10.4601C19.9415 10.4601 19.9415 10.4501 19.9615 10.4401H19.9815C19.9815 10.4401 19.9815 10.4401 20.0115 10.4601L20.1715 10.5901C20.6015 10.9501 21.1315 11.4001 21.7115 11.8901C22.8815 12.8801 24.2615 14.0901 25.5315 15.2501C27.7615 17.2101 29.1415 18.4201 29.8615 19.0501C31.5615 20.5401 32.9115 21.5701 34.3015 22.5101C35.0615 23.0301 35.7015 22.3001 35.1015 21.6101C33.9915 20.3501 32.8015 19.1501 31.1115 17.6501C30.4515 17.0701 29.2515 15.6601 27.3415 13.9101C27.0315 13.6301 26.7015 13.3601 26.3615 13.1201C25.2315 12.3101 24.0315 11.3501 22.9815 10.4701C22.4615 10.0301 21.9715 9.6101 21.5515 9.2501C20.9115 8.6801 20.3615 8.2001 19.9615 7.8501C19.3415 8.3901 19.0015 8.6801 19.0015 8.6801C19.0015 8.6801 13.6415 13.3901 11.3815 15.3801C9.71145 16.8501 8.91145 17.5601 8.42145 17.9901C6.93145 19.3101 5.83145 20.4001 4.83145 21.5001L4.81145 21.4801Z" fill="#101214"/>
<path d="M39.9981 4.35002V0.0200195H36.5481C11.2881 10.21 15.2281 34.18 15.2781 34.45L20.3981 35.16C20.2381 34.22 17.1281 12.9 39.9981 4.35002Z" fill="#FCA700"/>
<path d="M39.9998 8.87014V3.14014C15.4398 13.4701 19.3098 37.0401 19.3598 37.3101L24.4998 36.3901C24.3398 35.5101 21.4698 17.9201 39.9998 8.87014Z" fill="#BF63F3"/>
<path d="M39.9983 8.03002C25.7383 15.98 23.5883 28.67 23.4883 35.46C23.4683 36.54 28.6483 36.7 28.6583 35.61C28.7083 30.37 29.7883 20.13 39.9983 13.13V8.02002V8.03002Z" fill="#D8A0F7"/>
<path d="M39.6703 9.69998C40.2803 9.23998 39.8103 8.22998 39.0603 8.49998C38.0003 8.88998 36.8903 9.33998 35.6203 10.2C35.2603 10.45 34.9803 10.66 34.7503 10.85C34.5203 11.05 34.3503 11.24 34.1803 11.41C33.8503 11.75 33.5603 12.03 33.0903 12.38C31.5703 13.62 29.0403 15.86 28.5503 16.54C28.4703 16.63 28.3903 16.72 28.3203 16.82C28.0503 17.16 27.4503 18.16 26.7303 19.43C26.0503 20.72 25.2903 22.31 24.7503 23.84C24.0203 26.02 23.7603 27.42 23.6503 28.15C23.3603 29.87 23.3903 31.2 23.5703 32.47C23.6703 33.17 24.6403 33.15 24.7703 32.49C25.0103 31.28 25.2003 30.07 25.4903 28.47C25.5803 27.84 26.1103 26.6 26.7103 24.87C26.8203 24.59 26.9003 24.3 26.9703 24.01C27.2303 22.73 27.8403 21.37 28.4003 20.34C28.6703 19.82 28.9703 19.42 29.1603 19.12C29.3603 18.82 29.4803 18.65 29.4803 18.65C29.4803 18.65 29.5203 18.58 29.6003 18.47C29.6903 18.36 29.8103 18.2 29.9703 18C30.2903 17.61 30.6703 17.02 31.2003 16.48C32.2003 15.33 33.5203 14.12 34.3603 13.46C34.9903 12.97 35.4603 12.6 35.8203 12.33C36.2003 12.08 36.4603 11.91 36.6603 11.78C37.8403 10.95 38.8103 10.38 39.6803 9.71998L39.6703 9.69998Z" fill="#101214"/>
<path d="M23.03 37.79L4.25 22.02L4.28 37.79H23.03Z" fill="white"/>
<path d="M16.8516 37.79L35.6316 22.02L35.6016 37.79H16.8516Z" fill="white"/>
<path d="M35.0582 23.2399C35.7582 22.4699 35.0282 21.6299 34.1682 22.2299C32.9582 23.0799 31.7282 24.0299 30.2382 25.3399C28.5782 26.8699 28.3082 27.4099 27.1482 28.3999C25.2082 30.1099 21.7382 32.7499 20.8982 33.3799C20.7782 33.4699 20.6582 33.5699 20.5382 33.6799C20.4682 33.7499 20.3682 33.8399 20.1682 34.0199C19.8382 34.3099 19.9682 34.2099 19.9282 34.2599C19.9282 34.2599 19.9282 34.2699 19.9082 34.2799H19.8882C19.8882 34.2799 19.8882 34.2799 19.8582 34.2599L19.6982 34.1299C19.2682 33.7699 18.7382 33.3199 18.1582 32.8299C16.9882 31.8399 15.6082 30.6299 14.3382 29.4699C12.1082 27.5099 10.7282 26.2999 10.0082 25.6699C8.30822 24.1799 6.95822 23.1499 5.56822 22.2099C4.80822 21.6899 4.16822 22.4199 4.76822 23.1099C5.87822 24.3699 7.06822 25.5699 8.75822 27.0699C9.41822 27.6499 10.6182 29.0599 12.5282 30.8099C12.8382 31.0899 13.1682 31.3599 13.5082 31.5999C14.6382 32.4099 15.8382 33.3699 16.8882 34.2499C17.4082 34.6899 17.8982 35.1099 18.3182 35.4699C18.9582 36.0399 19.5082 36.5199 19.9082 36.8699C20.5282 36.3299 20.8682 36.0399 20.8682 36.0399C20.8682 36.0399 26.2282 31.3299 28.4882 29.3399C30.1582 27.8699 30.9582 27.1599 31.4482 26.7299C32.9382 25.4099 34.0382 24.3199 35.0382 23.2199L35.0582 23.2399Z" fill="#101214"/>
</g>
</g>
<defs>
<clipPath id="clip0_226_8969">
<rect width="40" height="40" fill="white"/>
</clipPath>
<clipPath id="clip1_226_8969">
<rect width="40" height="40" fill="white"/>
</clipPath>
</defs>
</svg>
