<svg width="40" height="40" viewBox="0 0 40 40" fill="none" xmlns="http://www.w3.org/2000/svg">
<g clip-path="url(#clip0_226_8728)">
<g clip-path="url(#clip1_226_8728)">
<path d="M40 0H0V40H40V0Z" fill="#1868DB"/>
<path d="M4.14062 35.7599L11.8506 34.9999V4.40991H4.14062V35.7599Z" fill="white"/>
<path d="M10.3995 8.21988C10.3595 8.10988 10.3095 7.99988 10.2395 7.88988C10.1695 7.77988 10.0995 7.67988 10.0295 7.58988C9.57947 7.05988 8.94947 6.93988 8.32947 7.18988C8.21947 7.22988 8.11947 7.27988 8.00947 7.34988C7.89947 7.41988 7.79947 7.48988 7.70947 7.55988C7.18947 7.98988 6.99947 8.59988 7.23947 9.23988C7.27947 9.34988 7.32947 9.45988 7.39947 9.56988C7.46947 9.67988 7.53947 9.77988 7.60947 9.86988C8.05947 10.3899 8.67947 10.5099 9.30947 10.2699C9.41947 10.2299 9.52947 10.1699 9.63947 10.1099C9.74947 10.0499 9.83947 9.97988 9.92947 9.89988C10.4495 9.46988 10.6395 8.85988 10.3995 8.20988V8.21988Z" fill="#1868DB"/>
<path d="M11.8516 34.9999L19.4716 36.3099L19.6116 6.78991L11.8516 4.40991V34.9999Z" fill="#CFE1FD"/>
<path d="M35.6288 4.40991H27.8388L19.6088 6.78991L19.4688 36.3099L27.8688 34.9999L35.6288 35.7599V4.40991Z" fill="white"/>
<path d="M27.8698 34.9999L35.6298 35.7599V4.40991H27.8398L27.8698 34.9999Z" fill="#CFE1FD"/>
<path d="M19.5188 11.8899L15.6287 17.3699L14.7188 18.6599L24.0988 18.6199L19.5188 11.8899Z" fill="#82B536"/>
<path d="M32.8707 28.3899C32.9007 28.1899 32.1107 27.3999 31.9207 27.4399C31.6407 27.4899 31.4007 27.5999 31.1807 27.8099C30.9707 28.0999 31.0707 28.3299 30.8807 28.4799C30.5907 28.7699 29.8907 29.0399 29.7107 29.0999C29.6807 29.0999 29.6707 29.1199 29.6507 29.1499C29.5607 29.2999 29.1307 29.9699 28.6007 30.3799C28.2707 30.7099 28.0707 30.9199 27.9607 31.0299C27.7107 31.2899 27.6007 31.5599 27.5707 31.8899C27.5507 32.0699 28.2407 32.7599 28.4207 32.7399C28.7607 32.6999 29.0207 32.5999 29.2807 32.3499C29.3807 32.2499 29.7707 32.2399 30.0907 31.9799C30.1407 31.9399 30.1807 31.8799 30.1907 31.7999C30.3407 31.1399 30.9307 30.6899 30.9307 30.6899C30.9307 30.6899 31.7107 29.9099 32.0407 29.5799C32.2907 29.3299 32.4007 29.2099 32.4807 29.1399C32.7007 28.9099 32.8107 28.6799 32.8507 28.3999L32.8707 28.3899Z" fill="#101214"/>
<path d="M32.0401 32.7799C32.2401 32.8099 33.0301 32.0199 32.9901 31.8299C32.9401 31.5499 32.8301 31.3099 32.6101 31.0899C32.3201 30.8699 32.0901 30.9799 31.9401 30.7899C31.6501 30.4999 31.3801 29.7999 31.3201 29.6199C31.3201 29.5899 31.3001 29.5799 31.2701 29.5599C31.1201 29.4699 30.4501 29.0399 30.0401 28.5099C29.7101 28.1799 29.5001 27.9799 29.3901 27.8699C29.1301 27.6199 28.8601 27.5099 28.5301 27.4799C28.3501 27.4599 27.6601 28.1499 27.6801 28.3299C27.7201 28.6699 27.8201 28.9299 28.0701 29.1899C28.1701 29.2899 28.1801 29.6799 28.4401 29.9999C28.4801 30.0499 28.5401 30.0899 28.6201 30.0999C29.2801 30.2499 29.7301 30.8399 29.7301 30.8399C29.7301 30.8399 30.5101 31.6199 30.8401 31.9499C31.0901 32.1999 31.2101 32.3099 31.2801 32.3899C31.5101 32.6099 31.7401 32.7199 32.0301 32.7599L32.0401 32.7799Z" fill="#101214"/>
<path d="M9.7903 8.30002C9.9703 8.40002 11.0603 8.11002 11.0003 7.71002C10.9203 7.20002 10.6503 6.57002 9.7903 6.21002C9.3003 6.06002 8.9703 6.15002 8.7403 6.21002C8.5003 6.29002 8.3303 6.39002 8.0703 6.47002C7.6603 6.65002 7.1103 6.86002 6.6703 7.31002C6.2103 7.75002 6.0003 8.41002 5.9803 8.65002C5.9703 8.72002 5.9603 8.80002 5.9803 8.87002C6.0003 9.14002 6.1903 9.77002 6.6403 10.33C6.8503 10.61 7.1703 10.92 7.5903 11.14C8.0103 11.36 8.5203 11.44 8.9603 11.41C9.5903 11.33 9.9703 11.11 10.2703 10.92C10.5603 10.73 10.7703 10.55 10.9003 10.4C11.5403 9.70002 11.5103 8.70002 11.1303 8.21002C10.9203 7.91002 10.0403 8.35002 9.9703 8.51002C9.8203 8.86002 9.6903 8.93002 9.5103 9.15002C9.4503 9.24002 8.9903 9.23002 8.7803 9.22002C8.7503 9.22002 8.7203 9.24002 8.7003 9.28002C8.6003 9.47002 8.3403 9.45002 8.1903 9.22002C8.0303 9.02002 8.0103 8.85002 8.0203 8.86002C8.0203 8.86002 7.9603 8.66002 8.0503 8.48002C8.1203 8.28002 8.5303 8.03002 8.7203 7.96002C9.0103 7.88002 9.0803 7.94002 9.1503 7.95002C9.3203 7.99002 9.5403 8.13002 9.8103 8.29002L9.7903 8.30002Z" fill="#101214"/>
<path d="M7.91001 13.4098C8.17001 12.5198 8.12001 11.9798 7.83001 11.8398C7.56001 11.6998 7.04001 12.0198 6.64001 12.9398C6.36001 13.5998 6.11001 14.2698 5.92001 15.0198C5.75001 15.7698 5.58001 16.5598 5.71001 17.5398C5.80001 18.0298 5.95001 18.5998 6.42001 19.0998C6.65001 19.3198 6.95 19.5598 7.24 19.6498C7.39 19.7098 7.55001 19.7598 7.70001 19.8098L8.10001 19.8698C8.64001 19.9398 9.27001 19.8798 9.85001 19.6498C10.42 19.4098 10.89 19.0398 11.27 18.6598C12.11 17.7598 12.52 17.0098 12.92 16.3998C13.31 15.7898 13.61 15.2898 13.92 14.8498C14.54 13.9798 15.11 13.2398 16.17 12.4898C17.06 11.8398 18.26 11.3198 19.58 11.0398C20.91 10.7698 22.36 10.7598 23.72 10.8698C25.07 10.9698 26.19 11.3198 26.85 11.8398C27.52 12.3398 27.81 12.9598 27.92 13.2898C28 13.4898 28.05 13.6898 28.1 13.8898C28.19 14.2698 28.29 14.8798 27.87 15.8298C27.51 16.7498 26.56 17.7598 25.2 18.6398C23.85 19.5298 22.12 20.2898 20.32 21.0398C18.51 21.7998 16.6 22.5198 14.8 23.5498C13.55 24.2898 12.39 25.1998 11.73 26.4698C11.38 27.0998 11.25 27.7798 11.21 28.4298C11.19 29.1098 11.35 29.7198 11.58 30.2398C12.05 31.2798 12.84 31.9898 13.67 32.3598C14.52 32.7298 15.29 32.7098 15.86 32.6098C17.22 32.3398 18.1 31.6598 18.88 31.1398C19.65 30.5998 20.31 30.1298 20.95 29.8598C22.28 29.2998 23.73 29.2398 25.05 29.5998C25.77 29.8098 26.22 29.8098 26.38 29.5798C26.52 29.3598 26.3 28.8598 25.46 28.4698C23.94 27.8098 22.13 27.6598 20.34 28.2798C19.42 28.5898 18.63 29.1298 17.86 29.6198C17.1 30.1098 16.31 30.6198 15.54 30.7498C15.25 30.7998 14.86 30.7898 14.5 30.6098C14.13 30.4398 13.73 30.0698 13.48 29.5298C12.94 28.4598 13.43 26.9898 15.27 25.8298C15.85 25.4398 16.47 25.0798 17.12 24.7098C19.93 23.1398 23.65 21.8998 26.3 20.1598C27.63 19.2998 28.68 18.2898 29.23 17.3798C29.8 16.4898 29.94 15.8598 29.94 15.8598C29.94 15.8598 29.96 15.7998 29.99 15.6998C30.03 15.5998 30.07 15.4298 30.11 15.2098C30.19 14.7698 30.22 14.1198 30.05 13.3498C29.87 12.5898 29.49 11.7298 28.79 10.9798C28.09 10.2098 27.08 9.65983 26.02 9.38983C24.96 9.10983 23.87 9.03983 22.81 9.02983C21.74 9.00983 20.65 9.09983 19.62 9.29983C17.53 9.66983 15.71 10.6498 14.59 11.6198C12.88 13.0598 12.05 14.4498 11.38 15.3898C10.73 16.3498 10.29 16.9498 9.93001 17.3098C9.37001 17.8798 8.89001 18.0798 8.29001 18.0298C7.93001 18.0098 7.84001 17.9198 7.69001 17.8298C7.57001 17.7198 7.47001 17.4898 7.40001 17.2198C7.28001 16.6598 7.34001 15.9598 7.44001 15.3198C7.54001 14.6598 7.71001 14.0198 7.89001 13.3898L7.91001 13.4098Z" fill="#101214"/>
</g>
</g>
<defs>
<clipPath id="clip0_226_8728">
<rect width="40" height="40" fill="white"/>
</clipPath>
<clipPath id="clip1_226_8728">
<rect width="40" height="40" fill="white"/>
</clipPath>
</defs>
</svg>
