<svg width="40" height="40" viewBox="0 0 40 40" fill="none" xmlns="http://www.w3.org/2000/svg">
<g clip-path="url(#clip0_226_8577)">
<g clip-path="url(#clip1_226_8577)">
<path d="M40 0H0V40H40V0Z" fill="#1868DB"/>
<path d="M31.7981 -0.0500488L23.0781 8.80995L30.3181 31.1L40.1381 32.74V-0.0500488H31.7981Z" fill="#8FB8F6"/>
<path d="M7.5 21.0298L10.42 30.0198L31.09 33.4798L22.19 6.08984L7.5 21.0298Z" fill="#FFC716"/>
<path d="M16.8093 31.4099C16.7793 31.2899 16.7493 31.1899 16.7193 31.0699L19.9593 31.6099L14.2793 14.1299L7.4993 21.0299L7.8393 22.0699L6.0093 22.6699C3.1593 23.4799 2.5493 25.2399 3.2493 27.4199C3.9093 29.4599 5.4293 30.4899 8.2493 29.5799L10.0793 28.9799L10.4193 30.0199L12.0793 30.2999C12.2593 30.7999 12.6393 31.9199 12.9993 33.4799C13.2493 34.5799 13.4993 35.8799 13.6593 37.3399C13.7593 38.2699 13.8093 39.1399 13.8293 39.9499H17.9393C17.9193 38.9299 17.8593 37.8199 17.7293 36.6399C17.5093 34.6199 17.1593 32.8499 16.7993 31.4099H16.8093Z" fill="white"/>
<path d="M9.38078 28.72C10.1408 30.67 11.2008 30.32 10.6608 28.3C10.3608 27.16 10.0408 25.99 9.68078 24.75C9.36078 23.69 9.03078 22.56 8.65078 21.31L8.70078 21.27C8.78078 21.2 8.85078 21.12 8.94078 21.04C9.20078 20.78 9.47078 20.5 9.75078 20.22C12.8808 16.96 13.5108 15.99 15.6808 13.82C16.7108 12.77 17.9508 11.54 19.2208 10.31C19.8608 9.69001 20.4908 9.08001 21.1108 8.48001L21.5208 8.09001L21.6208 8.01001C21.6808 7.96001 21.7308 7.93001 21.7708 7.91001C21.7808 7.98001 21.7908 8.05001 21.8008 8.11001V8.19001L21.8108 8.22001C21.8108 8.22001 21.8108 8.23001 21.8408 8.33001C22.0108 8.93001 22.1708 9.47001 22.3208 9.96001C22.6008 10.94 22.8108 11.67 22.9408 12.11C23.0308 12.41 23.1208 12.71 23.2208 13C23.5808 14.06 24.5508 16.9 25.7808 20.47C26.3808 22.26 27.0408 24.24 27.7108 26.27C28.3508 28.24 29.0008 30.26 29.6208 32.2L29.6808 32.4L21.8308 30.78C17.3808 29.87 14.0308 29.29 10.7208 28.83C8.90078 28.57 8.71078 29.52 10.4808 30.01C13.7008 30.89 17.0008 31.69 21.4508 32.62C22.2608 32.79 23.4708 33.1 25.0608 33.49C25.8608 33.69 26.7508 33.9 27.7308 34.15C28.3108 34.28 28.9108 34.42 29.5408 34.57C30.6208 34.8 31.7508 35.05 32.9208 35.3C32.8108 34.95 32.6108 34.33 32.4108 33.7L31.6508 31.4L31.2208 30.21C28.6308 23.44 25.8108 14.47 25.8108 14.47L22.5608 4.51001L13.9608 13.26C10.8408 16.44 9.33078 17.97 8.41078 18.91C7.72078 19.62 7.07078 20.29 6.55078 20.83C6.85078 21.72 7.14078 22.57 7.42078 23.39C7.65078 24.05 7.88078 24.68 8.09078 25.29C8.53078 26.51 8.95078 27.64 9.38078 28.74V28.72Z" fill="#101214"/>
<path d="M26.6881 11.2299C26.8081 11.3499 26.3281 12.6099 27.2181 12.4699C27.8181 12.3799 28.3181 12.2099 28.9481 11.8799C29.6181 11.4599 29.6781 11.1599 30.1481 10.9299C30.9281 10.4999 32.3981 10.0199 32.7481 9.90987C32.7981 9.88987 32.8481 9.86988 32.8881 9.83988C33.1981 9.60988 34.5881 8.62988 35.8781 7.97988C36.7681 7.46988 37.3181 7.14988 37.5981 6.97988C38.2681 6.57988 38.7181 6.18988 39.1081 5.72988C39.3181 5.46988 38.8481 4.62987 38.5081 4.67987C37.8981 4.77987 37.3381 4.96988 36.6581 5.35988C36.3981 5.50988 35.7081 5.58988 34.9181 5.99988C34.7881 6.06988 34.6681 6.14988 34.5681 6.25988C33.6681 7.19988 32.2181 7.90987 32.2181 7.90987C32.2181 7.90987 30.1181 9.08987 29.2281 9.57987C28.5581 9.94987 28.2381 10.1299 28.0481 10.2399C27.4581 10.5599 27.0181 10.8999 26.6781 11.2299H26.6881Z" fill="#101214"/>
<path d="M28.6884 18.9799C28.5584 19.0599 28.6284 19.3699 28.5884 19.6799C28.5584 19.9899 28.8084 20.2799 28.9684 20.2999C29.4484 20.3599 29.8884 20.3399 30.4384 20.1999C31.0384 19.9799 31.1384 19.7199 31.5584 19.6299C32.2584 19.4399 33.5284 19.4099 33.8284 19.3999C33.8784 19.3999 33.9184 19.3899 33.9584 19.3699C34.2484 19.2499 35.5284 18.7099 36.6784 18.4599C37.4784 18.2299 37.9784 18.0799 38.2384 18.0099C38.8484 17.8299 39.2784 17.5899 39.6584 17.2599C39.7084 17.2099 39.7384 17.1199 39.7384 17.0099C39.7384 16.9599 39.7384 16.8899 39.7084 16.8299V16.8099L39.6884 16.7899L39.6684 16.6999L39.6484 16.5699C39.6484 16.5699 39.6584 16.6399 39.6284 16.6599C39.6184 16.6599 39.5984 16.6699 39.5584 16.6499C39.5184 16.6299 39.4884 16.5299 39.5084 16.4899C39.5384 16.4099 39.5484 16.4099 39.5684 16.4099C39.5884 16.4099 39.5884 16.4099 39.5984 16.4199C39.6084 16.4299 39.6084 16.4499 39.6184 16.4699C39.6284 16.4899 39.6384 16.5599 39.6484 16.5399C39.6484 16.4999 39.6284 16.4699 39.6184 16.4399C39.5884 16.3799 39.5584 16.3199 39.5284 16.2799C39.4684 16.1799 39.3984 16.1199 39.3284 16.1099C38.8184 16.0299 38.3284 16.0599 37.7184 16.2199C37.4784 16.2899 36.9084 16.1699 36.1984 16.3299C36.0784 16.3599 35.9784 16.4099 35.8684 16.4799C34.9884 17.1099 33.6984 17.3699 33.6984 17.3699C33.6984 17.3699 31.8084 17.8899 31.0084 18.1099C30.4084 18.2699 30.1184 18.3499 29.9484 18.3999C29.4184 18.5499 29.0184 18.7399 28.6784 18.9899L28.6884 18.9799Z" fill="#101214"/>
<path d="M30.4802 24.2899C30.2202 24.3799 30.1602 25.4999 30.3302 25.6299C30.6002 25.8299 30.9102 25.9599 31.3202 26.0199C31.7902 26.0299 31.9402 25.8199 32.2502 25.8899C32.7902 25.9599 33.6402 26.3999 33.8502 26.5099C33.8802 26.5299 33.9102 26.5299 33.9502 26.5299C34.1902 26.5299 35.2202 26.4999 36.0702 26.7099C36.6802 26.7999 37.0602 26.8599 37.2502 26.8899C37.7102 26.9599 38.0902 26.8999 38.4102 26.7599C38.4302 26.7499 38.4502 26.7299 38.4702 26.6899C38.4802 26.6699 38.4902 26.6499 38.4902 26.6299C38.5202 26.5299 38.5602 26.4199 38.6002 26.3299C38.6302 26.2199 38.6802 26.1199 38.7002 26.1299C38.6802 26.1299 38.6902 26.0999 38.6902 26.0999C38.6702 26.0599 38.7302 26.2299 38.8202 26.1199C38.8802 26.0899 38.7802 25.9399 38.8002 25.9399C38.8002 25.9099 38.8002 25.8699 38.7902 25.8399C38.7902 25.7199 38.7502 25.6299 38.7002 25.5899C38.3602 25.2999 38.0302 25.1299 37.5602 25.0399C37.3802 25.0099 37.0302 24.6799 36.5002 24.5599C36.4102 24.5399 36.3202 24.5399 36.2302 24.5699C35.4202 24.8099 34.4702 24.5699 34.4702 24.5699C34.4702 24.5699 33.0202 24.3599 32.4002 24.2699C31.9402 24.2099 31.7102 24.1799 31.5802 24.1599C31.1602 24.1099 30.8302 24.1599 30.4902 24.2799L30.4802 24.2899Z" fill="#101214"/>
</g>
</g>
<defs>
<clipPath id="clip0_226_8577">
<rect width="40" height="40" fill="white"/>
</clipPath>
<clipPath id="clip1_226_8577">
<rect width="40" height="40" fill="white"/>
</clipPath>
</defs>
</svg>
