<svg width="40" height="40" viewBox="0 0 40 40" fill="none" xmlns="http://www.w3.org/2000/svg">
<g clip-path="url(#clip0_226_9157)">
<g clip-path="url(#clip1_226_9157)">
<path d="M40 0H0V40H40V0Z" fill="#82B536"/>
<path d="M11.72 8.06006C9.93 3.48006 6.17 1.56006 0.57 1.56006C0.37 1.56006 0.19 1.57006 0 1.58006V15.8801H20.38C19.47 10.7601 16.4 8.06006 12.07 8.06006C11.95 8.06006 11.84 8.06006 11.72 8.06006Z" fill="white"/>
<path d="M17.0325 10.2801C16.9925 10.0001 23.0625 19.3001 15.8125 40.4601H22.7225C26.5525 27.2801 23.3425 15.1601 21.1325 10.6301L17.0425 10.2801H17.0325Z" fill="#FCA700"/>
<path d="M23.4828 21.7199C23.6428 21.7199 24.5228 21.0499 24.5128 20.8499C24.5028 20.5799 24.3828 20.3299 24.1328 20.1099C23.8028 19.9199 23.6028 20.0699 23.4028 19.9399C23.0728 19.7299 22.4228 19.2699 22.2128 19.1899C22.1828 19.1799 22.1628 19.1699 22.1328 19.1699C21.9128 19.1899 21.0928 19.3899 20.4728 19.5599C20.0428 19.7299 19.8128 19.8699 19.6928 19.9399C19.3928 20.0999 19.2828 20.3499 19.2128 20.6499C19.1728 20.8199 19.7728 21.5899 19.9228 21.6199C20.2028 21.6899 20.4028 21.6599 20.6128 21.5699C20.6928 21.5299 20.9828 21.6599 21.2028 21.6299C21.2428 21.6299 21.2628 21.5899 21.2828 21.5399C21.4728 21.0799 21.9328 21.1599 21.9128 21.1699C21.9128 21.1399 22.4728 21.2299 22.6828 21.3799C22.8428 21.4699 22.9228 21.5299 22.9628 21.5599C23.1028 21.6599 23.2628 21.6999 23.4828 21.7099V21.7199Z" fill="#101214"/>
<path d="M24.2047 28.02C24.4747 28.1 25.0747 27.14 25.1047 27.02C25.1047 26.8 25.0047 26.54 24.7447 26.28C24.3947 26.02 24.1647 26.13 23.9447 25.94C23.5747 25.64 22.8647 25.02 22.6347 24.9C22.6047 24.88 22.5747 24.87 22.5447 24.86C22.2947 24.83 21.2847 24.86 20.4947 24.94C19.9347 25.03 19.6247 25.14 19.4547 25.19C19.0547 25.31 18.8347 25.55 18.6447 25.84C18.5447 26.01 18.9447 26.89 19.1147 26.95C19.4347 27.06 19.6947 27.05 20.0047 26.98C20.1247 26.95 20.4447 27.12 20.7747 27.11C20.8247 27.11 20.8747 27.08 20.9247 27.03C21.3447 26.6 21.9647 26.78 21.9447 26.79C21.9447 26.79 22.1547 26.83 22.3947 26.91C22.6347 27 22.8847 27.16 23.0347 27.27C23.2547 27.44 23.3647 27.54 23.4347 27.6C23.6447 27.79 23.8647 27.91 24.1947 28L24.2047 28.02Z" fill="#101214"/>
<path d="M23.7028 34.36C23.8828 34.46 24.8928 34 24.9128 33.76C24.9328 33.43 24.8528 33.09 24.6028 32.72C24.2628 32.34 23.9928 32.42 23.7828 32.16C23.4128 31.76 22.6428 31 22.3828 30.89C22.3528 30.87 22.3128 30.85 22.2728 30.85C22.1428 30.82 21.7728 30.79 21.3328 30.78C20.8928 30.78 20.3928 30.83 19.9428 30.86C19.3128 30.97 18.9628 31.1 18.7728 31.17C18.3228 31.31 18.0728 31.58 17.8528 31.89C17.7328 32.07 18.1628 32.94 18.3528 32.98C18.7028 33.07 19.0028 33.03 19.3528 32.94C19.4928 32.89 19.8528 33.05 20.2228 33.04C20.2828 33.04 20.3428 33 20.3928 32.96C20.6228 32.75 20.9328 32.67 21.1628 32.67C21.3928 32.67 21.5428 32.74 21.5428 32.74C21.5428 32.74 21.7728 32.8 22.0328 32.92C22.2928 33.03 22.5528 33.25 22.7028 33.4C22.9228 33.62 23.0128 33.75 23.0728 33.83C23.2528 34.06 23.4428 34.23 23.7028 34.38V34.36Z" fill="#101214"/>
<path d="M20.2025 35.1699C19.2325 35.1699 18.3025 35.2299 17.3725 35.3199C16.9325 36.9499 16.4225 38.6499 15.8125 40.4499H22.7225C23.2125 38.7499 23.5925 37.0699 23.8625 35.4199C22.6825 35.2699 21.4625 35.1699 20.1925 35.1699H20.2025Z" fill="#164B35"/>
<path d="M19.8095 18.3299C19.6695 17.7199 18.5495 17.8099 18.4595 18.3799C18.3295 19.1899 18.2395 20.0499 18.1995 21.1499C18.1995 22.3999 18.4195 22.7299 18.3395 23.5799C18.2495 25.0199 17.6695 27.3999 17.5095 27.9699C17.4895 28.0499 17.4695 28.1399 17.4695 28.2299C17.4395 28.8499 17.2195 31.5699 16.6795 33.8599C16.3695 35.4899 16.1395 36.4899 16.0195 37.0099C15.7495 38.2499 15.6295 39.1899 15.6095 40.1499C15.5995 40.6699 16.5295 40.9199 16.7795 40.4499C17.2195 39.5899 17.5595 38.6799 17.8495 37.4299C17.9595 36.9399 18.4495 35.9799 18.7795 34.5399C18.8295 34.3099 18.8595 34.0699 18.8595 33.8199C18.8995 31.7299 19.3695 29.1099 19.3695 29.1099C19.3695 29.1099 19.4995 28.1199 19.6495 26.9299C19.7895 25.7299 19.9095 24.3199 19.9695 23.4799C20.0495 22.2099 20.0595 21.5999 20.0695 21.2199C20.0995 20.0799 19.9995 19.1899 19.8095 18.3399V18.3299Z" fill="#101214"/>
<path d="M24.6711 9.41004C28.6011 6.73004 35.1511 5.15004 35.1511 5.15004C24.8211 1.74004 20.8511 7.12004 19.5011 10.05C17.1311 7.97004 11.2011 4.50004 3.12109 12.07C3.12109 12.07 9.73109 10.75 14.4211 11.53C2.99109 16.08 10.4011 28.52 10.4011 28.52C9.81109 22.21 12.0411 18.54 14.5911 16.41C13.8711 21.23 16.6111 24.66 16.6111 24.66C16.1811 22.03 18.9911 18.47 21.0911 16.22C23.5111 17.32 27.0911 19.3 27.7611 21.62C27.7611 21.62 28.7411 17.45 25.8711 13.74C29.2411 14.43 33.1811 16.73 35.4611 23.14C35.4611 23.14 36.9511 8.74004 24.6711 9.41004ZM19.9811 12.17L19.9611 12.28L19.8611 12.13L19.9811 12.18V12.17Z" fill="#164B35"/>
</g>
</g>
<defs>
<clipPath id="clip0_226_9157">
<rect width="40" height="40" fill="white"/>
</clipPath>
<clipPath id="clip1_226_9157">
<rect width="40" height="40" fill="white"/>
</clipPath>
</defs>
</svg>
