<svg width="40" height="40" viewBox="0 0 40 40" fill="none" xmlns="http://www.w3.org/2000/svg">
<g clip-path="url(#clip0_226_9126)">
<g clip-path="url(#clip1_226_9126)">
<path d="M40 0H0V40H40V0Z" fill="#669DF1"/>
<path d="M25.2383 38.53C24.0883 39.04 22.9183 39.52 21.7383 40H39.9983V30.55C35.2383 33.58 30.2883 36.28 25.2383 38.53Z" fill="#FFC716"/>
<path d="M-0.0703125 0V14.23C1.28969 13.68 2.63969 13.11 3.97969 12.52C10.6997 9.52 17.2797 5.89 23.5197 1.72C24.3997 1.13 25.2297 0.56 26.0297 0L-0.0703125 0Z" fill="#FFC716"/>
<path d="M14.2194 31.12C14.7094 30.29 13.7594 29.7 13.1694 30.27C12.7394 30.67 12.2894 31.04 11.7794 31.36C11.2894 31.68 10.6294 31.95 9.93935 32.26C9.14935 32.59 8.66935 32.72 8.23935 32.83C8.01935 32.85 7.81935 32.88 7.60935 32.9C7.39935 32.87 7.17935 32.84 6.92935 32.77C6.07935 32.5 5.17935 31.54 4.89935 30.44C4.53935 29.36 4.75935 28.38 4.85935 28.29C4.87935 28.26 4.87935 28.25 4.87935 28.23C4.87935 28.23 4.78935 28.19 4.95935 28.19C5.16935 28.17 5.66935 28.34 6.08935 28.78C6.50935 29.2 6.86935 29.83 7.01935 30.56C7.16935 31.29 7.12935 32.1 6.89935 32.8C6.58935 33.81 6.05935 34.57 5.59935 35.13C5.11935 35.69 4.71935 36.08 4.42935 36.33C3.06935 37.54 1.92935 38.37 0.829354 39.26C0.219354 39.74 0.679354 40.6 1.42935 40.3C2.77935 39.75 4.12935 39.07 5.67935 37.72C5.97935 37.46 6.46935 37.08 7.07935 36.5C7.66935 35.91 8.38935 35.09 8.85935 33.84C9.01935 33.44 9.09935 33.01 9.13935 32.58C9.19935 31.64 9.08935 30.69 8.80935 29.77C8.52935 28.86 8.02935 28.03 7.43935 27.43C6.84935 26.83 6.16935 26.45 5.58935 26.31C5.31935 26.22 5.03935 26.23 4.87935 26.21C4.68935 26.23 4.58935 26.24 4.58935 26.24C3.95935 26.33 3.38935 26.73 3.09935 27.3C2.69935 28.21 2.77935 28.92 2.85935 29.63C2.95935 30.34 3.17935 31.02 3.50935 31.65C3.80935 32.3 4.28935 32.87 4.82935 33.37C5.39935 33.84 6.07935 34.23 6.81935 34.39C7.95935 34.67 8.77935 34.49 9.37935 34.39C9.97935 34.27 10.3394 34.09 10.6494 34C11.4894 33.62 12.2194 33.26 12.8394 32.74C13.4394 32.24 13.8894 31.68 14.2494 31.11L14.2194 31.12Z" fill="#101214"/>
<path d="M11.5508 21.4299L14.5108 30.9699L36.0808 3.93994L11.5508 21.4299Z" fill="#09326C"/>
<path d="M16.1778 23.9799L14.5078 30.9699L36.0778 3.93994L16.1778 23.9799Z" fill="#09326C"/>
<path d="M16.1797 23.9799L26.1797 29.0299L36.0797 3.93994L16.1797 23.9799Z" fill="white"/>
<path d="M11.6095 21.4799L5.26953 16.7699L36.0795 3.93994L11.6095 21.4799Z" fill="white"/>
<path d="M10.6687 21.81C10.8987 21.95 11.0787 21.99 11.2487 21.98C11.3687 21.93 11.5487 21.9 11.6987 21.87C11.8487 21.84 11.9387 21.64 11.8587 21.37C11.8287 21.17 11.6987 20.94 11.4887 20.74C10.3187 19.64 9.0187 18.69 7.3287 17.51C7.2187 17.44 7.1187 17.37 7.0187 17.3L6.9187 17.25C6.8387 17.21 6.8187 17.21 6.7687 17.19C6.6787 17.15 6.5487 17.11 6.4487 17.04C6.4787 16.96 6.6087 16.85 6.8887 16.75C9.3787 15.72 13.6887 14.28 14.7287 13.94C14.8787 13.89 15.0287 13.83 15.1787 13.76C16.2387 13.28 20.8687 11.19 24.9387 9.59001C27.7987 8.41001 29.5587 7.68001 30.4887 7.30001C32.6687 6.39001 34.2487 5.62001 35.7687 4.76001C36.5987 4.29001 36.2287 3.39001 35.3087 3.65001C33.6287 4.11001 31.9587 4.68001 29.7687 5.57001C28.9187 5.92001 27.0487 6.40001 24.5387 7.38001C24.1287 7.54001 23.7287 7.72001 23.3487 7.93001C20.0087 9.70001 15.4587 11.47 15.4587 11.47C15.4587 11.47 8.5387 14.32 5.6187 15.52C4.5887 15.89 4.1287 16.27 3.6187 16.59C3.5087 16.62 3.5987 16.69 3.6487 16.75L3.7887 16.92C3.8787 17.02 3.9587 17.12 4.0487 17.22C4.2387 17.42 4.3387 17.6 4.5687 17.77C5.3787 18.46 6.0687 18.89 6.2587 19.04C7.9687 20.23 9.3787 21.04 10.6587 21.8L10.6687 21.81Z" fill="#101214"/>
</g>
</g>
<defs>
<clipPath id="clip0_226_9126">
<rect width="40" height="40" fill="white"/>
</clipPath>
<clipPath id="clip1_226_9126">
<rect width="40" height="40" fill="white"/>
</clipPath>
</defs>
</svg>
