<svg width="40" height="40" viewBox="0 0 40 40" fill="none" xmlns="http://www.w3.org/2000/svg">
<g clip-path="url(#clip0_226_9094)">
<g clip-path="url(#clip1_226_9094)">
<path d="M40 0H0V40H40V0Z" fill="#1868DB"/>
<path d="M16.33 32.88C10.58 27.59 5.45 25.62 0 25.28V40H21.46C20.14 37.3 18.46 34.84 16.33 32.88Z" fill="#FCA700"/>
<path d="M8.50134 36.1499C8.62134 35.9199 7.94134 35.0299 7.70134 35.0699C7.35134 35.1199 7.04134 35.2299 6.69134 35.4499C6.33134 35.7399 6.34134 35.9999 6.05134 36.1399C5.58134 36.4199 4.62134 36.5199 4.40134 36.5199C4.37134 36.5199 4.34134 36.5299 4.31134 36.5499C4.12134 36.6799 3.24134 37.2099 2.37134 37.3399C1.78134 37.4999 1.40134 37.5599 1.21134 37.5999C0.75134 37.6899 0.42134 37.8399 0.0913404 38.0899C-0.0886596 38.2299 -0.0086596 39.1899 0.21134 39.2899C0.61134 39.4599 1.01134 39.5299 1.53134 39.4499C1.73134 39.4199 2.20134 39.5999 2.81134 39.4999C2.91134 39.4799 3.00134 39.4399 3.08134 39.3699C3.80134 38.8099 4.84134 38.5099 4.84134 38.5099C4.84134 38.5099 5.22134 38.3599 5.67134 38.1599C6.11134 37.9499 6.63134 37.6899 6.92134 37.5099C7.37134 37.2499 7.57134 37.1099 7.70134 37.0299C8.08134 36.7699 8.33134 36.4899 8.50134 36.1599V36.1499Z" fill="#101214"/>
<path d="M1.77951 5.46997C0.689515 5.69997 0.249515 6.17997 0.339515 6.46997C0.429515 6.76997 0.999515 6.90997 1.98951 6.80997C3.40951 6.67997 4.86951 6.72997 6.38951 7.07997C7.88951 7.42997 9.48951 8.05997 10.6595 9.30997C11.2995 9.99997 11.6395 10.73 11.7995 11.36C11.9595 11.99 11.9695 12.54 11.8695 13.01C11.6795 13.9 11.0495 14.78 9.87951 15.1C9.38951 15.23 8.84951 15.19 8.35951 14.93C7.85951 14.67 7.41951 14.18 7.15951 13.59C6.59951 12.42 6.91951 10.91 7.65951 9.74997C8.38951 8.56997 9.44951 7.70997 10.3795 7.17997C11.3295 6.64997 12.1595 6.40997 12.6195 6.28997C12.8995 6.22997 13.1695 6.14997 13.4495 6.09997C13.9395 5.98997 14.8795 5.81997 16.1195 5.89997C17.3495 5.98997 18.9095 6.36997 20.4495 7.23997C21.9895 8.09997 23.5195 9.43997 24.6695 11.1C25.8395 12.76 26.6595 14.76 27.2495 16.76C28.0995 19.58 28.5595 22 29.0595 23.91C29.5395 25.82 29.9995 27.23 30.3695 28.18C32.0595 32.69 34.9295 35.68 38.3795 36.89C39.3395 37.21 39.8995 37.02 39.9495 36.77C40.0095 36.49 39.6195 36.16 38.8295 35.78C35.9595 34.32 33.6895 31.69 32.1195 27.52C31.8095 26.71 31.4395 25.41 31.0695 23.65C30.6795 21.9 30.3195 19.67 29.6195 17.05C29.3895 16.2 29.0995 15.35 28.7495 14.53C28.0095 12.76 27.0195 10.89 25.7095 9.28997C24.4095 7.68997 22.8395 6.39997 21.2895 5.54997C19.7395 4.68997 18.2495 4.25997 17.1795 4.06997C16.6395 3.97997 16.1995 3.93997 15.9095 3.92997C15.6095 3.89997 15.4495 3.90997 15.4495 3.90997C15.4495 3.90997 15.2095 3.89997 14.7695 3.91997C14.3395 3.93997 13.7095 3.98997 12.9495 4.14997C11.4495 4.45997 9.36952 5.22997 7.64952 6.89997C6.80952 7.72997 6.04952 8.74997 5.58952 9.95997C5.12952 11.15 4.98951 12.57 5.44951 13.84C5.88951 15.08 6.81952 16.12 7.99952 16.57C9.19952 17.04 10.4195 16.75 11.2195 16.32C12.4495 15.65 13.1995 14.6 13.4995 13.57C13.7995 12.55 13.7195 11.64 13.5595 10.92C13.1995 9.45997 12.5495 8.62997 12.0495 8.05997C10.4395 6.35997 8.46952 5.71997 6.74952 5.39997C4.99952 5.08997 3.33951 5.16997 1.80951 5.48997L1.77951 5.46997Z" fill="#101214"/>
<path d="M8.63281 35.42L18.5628 28.72L11.5128 23.79L8.63281 35.42Z" fill="white"/>
<path d="M9.66281 31.26L8.63281 35.42L12.1828 33.02L9.66281 31.26Z" fill="#101214"/>
<path d="M28.2017 0L11.5117 23.79L18.5617 28.72L38.7017 0H28.2017Z" fill="#FFC716"/>
</g>
</g>
<defs>
<clipPath id="clip0_226_9094">
<rect width="40" height="40" fill="white"/>
</clipPath>
<clipPath id="clip1_226_9094">
<rect width="40" height="40" fill="white"/>
</clipPath>
</defs>
</svg>
