<svg width="40" height="40" viewBox="0 0 40 40" fill="none" xmlns="http://www.w3.org/2000/svg">
<g clip-path="url(#clip0_226_8365)">
<g clip-path="url(#clip1_226_8365)">
<path d="M40 0H0V40H40V0Z" fill="#FFC716"/>
<path d="M24.3627 16.3601H17.5027L10.4727 29.8601L20.9327 36.8001L31.3927 29.8601L24.3627 16.3601Z" fill="#1868DB"/>
<path d="M32.9009 28.1499H8.96094V36.7999H32.9009V28.1499Z" fill="#1868DB"/>
<path d="M18.9698 33.61C19.6198 33.78 20.3198 33.8699 21.0598 33.8699C21.7998 33.8699 22.4398 33.7899 23.0698 33.6199C24.4098 33.2599 25.5098 32.48 26.0598 31.2C26.3098 30.63 26.4498 29.95 26.4498 29.17C26.4498 28.39 26.3098 27.69 26.0498 27.11C25.4998 25.83 24.3998 25.06 23.0698 24.7C22.4398 24.53 21.7698 24.45 21.0598 24.45C20.3198 24.45 19.6198 24.5299 18.9698 24.7099C17.6098 25.0699 16.5298 25.85 15.9798 27.12C15.7298 27.7 15.5898 28.38 15.5898 29.18C15.5898 29.98 15.7298 30.6399 15.9798 31.2099C16.5298 32.4799 17.6098 33.2499 18.9698 33.6199V33.61Z" fill="white"/>
<path d="M19.6801 33.1601C18.9401 33.1201 18.5501 34.1801 19.4501 34.4901C20.7001 34.8401 22.0901 35.0101 23.8801 34.4301C24.8701 34.0301 25.4101 33.5301 25.7901 33.0801C26.1701 32.6201 26.4401 32.1801 26.7501 31.5301C27.2601 30.4001 27.4601 28.8401 27.1501 27.3901C26.9901 26.6701 26.6801 26.0001 26.3201 25.5001C25.9701 25.0001 25.6101 24.6801 25.4001 24.5101C25.2801 24.4101 25.1501 24.3201 25.0101 24.2401C24.5301 23.9501 23.1401 23.3801 21.4501 23.3801C20.6101 23.3701 19.6901 23.4401 18.7401 23.6901C17.7901 23.9401 16.8101 24.4201 16.0501 25.1701C14.9901 26.2701 14.7001 27.5101 14.6101 28.3801C14.5201 29.2601 14.6001 29.9101 14.6801 30.3601C14.8701 31.4301 15.3901 32.3501 16.0601 32.9601C16.7301 33.5801 17.4901 33.9101 18.2201 34.0701C19.0501 34.2201 19.2101 33.2501 18.6401 32.9401C17.5901 32.3101 16.8001 31.5101 16.5301 30.0201C16.4401 29.4901 16.5301 27.9701 17.4601 26.8901C17.6101 26.7101 17.7701 26.5401 17.9401 26.3601C18.6801 25.5401 20.2601 25.2101 21.4201 25.2701C22.6001 25.3001 23.3301 25.6501 23.3301 25.6501C23.3301 25.6501 23.6101 25.7501 24.0101 25.9801C24.4001 26.2101 24.8701 26.6201 25.1801 27.2101C25.5001 27.8001 25.6301 28.5801 25.6001 29.3201C25.5801 30.0601 25.3901 30.6901 25.1601 31.0901C24.8301 31.7001 24.4101 32.0301 24.0701 32.2501C23.7301 32.4701 23.4501 32.5701 23.2501 32.6501C21.9701 33.0901 20.7701 33.1401 19.6901 33.1401L19.6801 33.1601Z" fill="#101214"/>
<path d="M0.711369 24.5401C-0.148631 24.5401 -0.418631 25.6301 0.561369 25.8801C1.91137 26.2001 3.50137 26.2701 5.37137 25.6001C6.41137 25.1801 6.97137 24.7201 7.42137 24.3201C7.87137 23.9201 8.22137 23.5501 8.73137 23.0101C9.57137 22.0901 10.5214 20.6401 10.8514 19.0801C11.0314 18.3101 11.0614 17.5301 10.9714 16.8801C10.8814 16.2201 10.6714 15.7001 10.5314 15.4301C10.4614 15.2601 10.3514 15.1001 10.2314 14.9601C10.0414 14.6901 9.59137 14.2301 8.90137 13.8301C8.20137 13.4301 7.26137 13.1901 6.28137 13.1901C5.99137 13.1901 5.68137 13.2001 5.31137 13.3201C4.93137 13.4301 4.55137 13.6701 4.28137 13.9901C3.71137 14.6401 3.65137 15.6501 3.94137 16.3301C4.01137 16.5101 4.11137 16.6901 4.22137 16.8501C4.28137 16.9301 4.35137 17.0201 4.40137 17.0801L4.55137 17.2301L5.17137 17.8201C5.64137 18.1501 6.12137 18.5001 6.68137 18.6901C8.26137 19.2701 9.69137 18.9201 10.5914 18.4801C11.5114 18.0301 12.0714 17.5001 12.4114 17.1201C13.2214 16.2201 13.6414 15.1701 13.7114 14.1901C13.7514 13.9501 13.7514 13.7101 13.7114 13.4701C13.6914 13.2401 13.6814 13.0001 13.6314 12.7901C13.4914 12.3601 13.4114 11.9301 13.1714 11.5701C12.6914 10.7401 11.8914 11.3101 12.0514 12.0001C12.1614 12.3101 12.1214 12.6501 12.1714 12.9701C12.1714 13.1301 12.1414 13.2901 12.1314 13.4601C12.1314 13.6201 12.1014 13.7901 12.0514 13.9501C11.9214 14.6001 11.5914 15.2701 11.0314 15.8801C10.8214 16.1201 10.3914 16.4101 9.82137 16.6401C9.24137 16.8601 8.49137 16.9501 7.72137 16.7401C7.59137 16.7101 7.48137 16.6401 7.35137 16.6101C7.22137 16.5801 7.09137 16.5501 6.97137 16.4801C6.83137 16.4201 6.69137 16.3501 6.55137 16.2901C6.41137 16.2001 6.29137 16.0901 6.15137 15.9901L5.95137 15.8301C5.87137 15.7701 5.88137 15.7801 5.85137 15.7401C5.80137 15.6801 5.75137 15.6001 5.74137 15.5301C5.70137 15.3901 5.72137 15.3101 5.79137 15.2301C5.84137 15.1701 6.01137 15.1201 6.29137 15.1201C6.91137 15.1201 7.39137 15.2901 7.70137 15.4201C8.00137 15.5701 8.15137 15.7001 8.15137 15.7001C8.15137 15.7001 8.40137 15.8501 8.67137 16.2201C8.94137 16.5801 9.20137 17.2101 9.20137 18.0001C9.22137 18.7801 8.98137 19.6601 8.61137 20.4101C8.25137 21.1701 7.75137 21.7901 7.34137 22.2001C6.08137 23.4301 5.22137 23.6901 4.75137 23.8901C3.27137 24.4301 1.99137 24.5601 0.751369 24.5801L0.711369 24.5401Z" fill="#101214"/>
<path d="M14.6227 13.37C15.9227 10.67 18.3427 8.98002 22.0727 9.69002C25.7727 10.39 27.3927 12.85 27.6127 15.84L34.1327 17.08C34.5027 10.98 30.7927 5.47002 23.1527 4.02002C15.8027 2.62002 10.4627 6.02002 8.22266 12.15L14.6227 13.37Z" fill="#09326C"/>
<path d="M14.2613 12.7901C14.1313 13.2901 15.1613 13.7301 15.4513 13.4201C15.8813 12.9801 16.2713 12.5301 16.8013 12.0001C17.3613 11.3901 17.4413 11.1001 17.9613 10.8401C18.4013 10.6101 19.0713 10.4801 19.6613 10.5001C20.2613 10.5201 20.7713 10.6401 20.9613 10.7001C21.0213 10.7201 21.0813 10.7201 21.1413 10.7201C21.3513 10.7201 21.9513 10.7401 22.6613 10.9101C23.3713 11.0701 24.1713 11.4301 24.7413 11.9501C25.5613 12.6501 25.8613 13.2801 26.0113 13.5901C26.3713 14.3401 26.6013 14.9601 26.8913 15.6101C27.0413 15.9601 28.0213 15.9201 28.0913 15.4801C28.2113 14.6901 28.1713 13.8301 27.7013 12.7901C27.5113 12.4101 27.3313 11.3901 26.3113 10.4201C26.1513 10.2601 25.9613 10.1401 25.7613 10.0401C24.8913 9.62006 23.9313 9.27006 23.1613 9.08006C22.4013 8.88006 21.8513 8.79006 21.8513 8.79006C21.8513 8.79006 21.0213 8.62006 19.9813 8.68006C18.9313 8.72006 17.7113 9.10006 17.0513 9.47006C16.0713 10.0301 15.7013 10.4401 15.4713 10.6601C14.7813 11.3801 14.4413 12.0801 14.2613 12.7701V12.7901Z" fill="#101214"/>
</g>
</g>
<defs>
<clipPath id="clip0_226_8365">
<rect width="40" height="40" fill="white"/>
</clipPath>
<clipPath id="clip1_226_8365">
<rect width="40" height="40" fill="white"/>
</clipPath>
</defs>
</svg>
