<svg width="40" height="40" viewBox="0 0 40 40" fill="none" xmlns="http://www.w3.org/2000/svg">
<g clip-path="url(#clip0_226_8314)">
<g clip-path="url(#clip1_226_8314)">
<path d="M40 0H0V40H40V0Z" fill="#164B35"/>
<path d="M40 40V30.9298C39.7197 30.3812 39.1091 29.8817 38.2182 29.4899L36.7668 28.8434C34.3443 27.766 30.5405 27.766 28.1181 28.8434C25.3453 30.0776 20.8809 29.8719 18.6587 28.4124L14.6847 25.7972C12.1822 24.1516 3.93393 24.8764 0 29.6466V40H40Z" fill="white"/>
<path d="M39.9986 40.0001V39.2301C39.0686 34.5901 36.1186 31.3501 31.2586 29.5501C28.2686 28.4401 24.5586 27.8701 20.1386 27.8701C15.7186 27.8701 11.9986 28.4201 9.01859 29.4601C3.62859 31.3501 0.638594 34.9101 0.0585938 40.0001H39.9986Z" fill="#82B536"/>
<mask id="mask0_226_8314" style="mask-type:luminance" maskUnits="userSpaceOnUse" x="0" y="0" width="40" height="40">
<path d="M40 0H0V40H40V0Z" fill="white"/>
</mask>
<g mask="url(#mask0_226_8314)">
<mask id="mask1_226_8314" style="mask-type:luminance" maskUnits="userSpaceOnUse" x="8" y="4" width="23" height="30">
<path d="M30.7002 14.35C30.2202 7.69004 24.9402 4.34004 19.6302 4.29004C19.6302 4.29004 19.5902 4.29004 19.5802 4.29004C19.5702 4.29004 19.5402 4.29004 19.5302 4.29004C14.2202 4.35004 8.95016 7.70004 8.46016 14.36C8.42016 14.85 8.41016 15.34 8.41016 15.83C8.41016 23.4 18.5002 33.11 19.5302 33.75V33.81C19.5302 33.81 19.5702 33.78 19.5802 33.78C19.5902 33.78 19.6302 33.81 19.6302 33.81V33.75C20.6602 33.1 30.7502 23.4 30.7502 15.83C30.7502 15.34 30.7302 14.85 30.7002 14.36V14.35ZM19.5102 20.7C16.8402 20.7 14.6802 18.54 14.6802 15.87C14.6802 13.2 16.8402 11.04 19.5102 11.04C22.1802 11.04 24.3402 13.2 24.3402 15.87C24.3402 18.54 22.1802 20.7 19.5102 20.7Z" fill="white"/>
</mask>
<g mask="url(#mask1_226_8314)">
<path d="M30.7002 14.35C30.2202 7.69004 24.9402 4.34004 19.6302 4.29004C19.6302 4.29004 19.5902 4.29004 19.5802 4.29004C19.5602 4.29004 19.5402 4.29004 19.5302 4.29004C14.2202 4.35004 8.95016 7.70004 8.46016 14.36C8.42016 14.85 8.41016 15.34 8.41016 15.83C8.41016 23.4 18.5002 33.11 19.5302 33.75V33.81C19.5302 33.81 19.5702 33.78 19.5802 33.78C19.5902 33.78 19.6302 33.81 19.6302 33.81V33.75C20.6602 33.1 30.7502 23.4 30.7502 15.83C30.7502 15.34 30.7302 14.85 30.7002 14.36V14.35ZM19.5202 20.69C16.8602 20.69 14.7002 18.53 14.7002 15.87C14.7002 13.21 16.8602 11.05 19.5202 11.05C22.1802 11.05 24.3402 13.21 24.3402 15.87C24.3402 18.53 22.1802 20.69 19.5202 20.69Z" fill="#FFC716"/>
</g>
<path d="M19.1895 21.2699C19.6395 21.1799 19.5695 20.0599 19.2695 19.9199C18.8195 19.7199 18.3995 19.5499 17.8795 19.2999C17.2795 19.0499 16.9995 19.0999 16.6595 18.7599C16.3695 18.4799 16.0995 17.9899 15.9895 17.5299C15.8695 17.0699 15.8795 16.6699 15.8995 16.5199C15.8995 16.4699 15.8995 16.4299 15.8895 16.3899C15.8395 16.2399 15.7495 15.8099 15.7895 15.2699C15.8295 14.7199 16.0595 14.0699 16.4795 13.6099C16.9995 12.9099 17.5095 12.6599 17.7395 12.5199C18.3295 12.2199 18.7796 11.9999 19.2896 11.7599C19.5596 11.6299 19.6195 10.6599 19.2295 10.5599C18.5395 10.3899 17.7496 10.4199 16.8696 10.8699C16.5496 11.0499 15.6595 11.2299 14.8495 12.1299C14.7295 12.2799 14.6195 12.4399 14.5495 12.6299C14.2395 13.4099 13.9995 14.2899 13.9195 14.9999C13.8295 15.6999 13.8495 16.2099 13.8495 16.2099C13.8495 16.2099 13.8695 16.9799 14.1895 17.8599C14.4895 18.7399 15.1595 19.6199 15.6495 20.0499C16.3795 20.6899 16.8195 20.8899 17.0695 21.0099C17.8595 21.3799 18.5695 21.4199 19.1895 21.2899V21.2699Z" fill="#101214"/>
<path d="M18.8108 4.91991C19.7508 4.75991 19.8108 3.63991 18.7208 3.56991C17.2008 3.50991 15.5308 3.74991 13.6308 4.69991C12.5708 5.26991 12.0208 5.79991 11.5608 6.24991C11.3408 6.48991 11.1308 6.70991 10.9108 6.93991C10.7108 7.18991 10.4908 7.43991 10.2208 7.73991C9.3408 8.76991 8.4008 10.3699 7.9308 11.9399C7.4208 13.4999 7.3408 14.9299 7.2808 15.4499C7.2708 15.6099 7.2408 15.7599 7.2708 15.9399C7.3108 16.2399 7.3508 16.8099 7.4608 17.5299C7.6308 18.2299 7.8208 19.1199 8.1808 20.0199C8.8508 21.8499 9.9608 23.8699 11.0908 25.6399C12.7508 28.0999 13.9608 29.4699 14.5708 30.1999C16.0608 31.8999 17.3008 33.0199 18.7108 33.9799C18.9008 34.1099 19.1308 34.1799 19.2808 34.1599L19.0508 33.7499C19.0508 33.7499 19.0908 33.7899 19.1208 33.8099L19.4908 34.2199C19.6108 34.1899 19.6908 34.1199 19.7308 34.0599H19.4408C19.8008 34.0299 19.5408 33.7899 19.6508 33.6399H19.5208C19.5208 33.6399 19.5208 33.5699 19.5608 33.5599L19.7708 33.7999C19.7708 33.7999 19.8208 33.7599 19.8408 33.7399L19.7008 33.4799C19.6708 33.3299 19.6308 33.2099 19.4908 33.0499C18.4508 31.8399 17.4008 30.6099 15.9908 28.9699C15.4408 28.3299 14.5008 26.8199 13.1608 24.7799C12.9508 24.4399 12.6908 24.1299 12.4608 23.8199C11.3808 22.4899 10.4508 20.7599 9.9508 19.3499C9.6708 18.6499 9.5508 18.0299 9.4608 17.5799C9.3508 17.1399 9.3508 16.8799 9.3508 16.8799C9.3508 16.8799 9.3208 16.4899 9.2708 15.8699C9.2808 15.2199 9.3008 14.3099 9.4408 13.3699C9.6208 12.4299 9.8808 11.4199 10.3208 10.5699C10.7508 9.71991 11.2508 8.98991 11.7008 8.50991C13.0408 7.03991 13.9808 6.65991 14.4808 6.36991C16.0808 5.55991 17.4608 5.17991 18.8108 4.91991Z" fill="#101214"/>
<path d="M19.3759 10.47C18.9259 10.56 18.996 11.68 19.296 11.82C19.746 12.02 20.166 12.19 20.686 12.44C21.286 12.69 21.566 12.64 21.906 12.98C22.196 13.26 22.466 13.75 22.576 14.21C22.696 14.67 22.686 15.07 22.666 15.22C22.666 15.27 22.666 15.31 22.676 15.35C22.726 15.5 22.816 15.93 22.776 16.47C22.736 17.02 22.506 17.67 22.086 18.13C21.566 18.83 21.056 19.08 20.826 19.22C20.236 19.52 19.786 19.74 19.276 19.98C19.006 20.11 18.946 21.08 19.336 21.18C20.026 21.35 20.816 21.32 21.696 20.87C22.016 20.69 22.906 20.51 23.716 19.61C23.836 19.46 23.946 19.3 24.016 19.11C24.326 18.33 24.566 17.45 24.646 16.74C24.736 16.04 24.716 15.53 24.716 15.53C24.716 15.53 24.6959 14.76 24.3759 13.88C24.0759 13 23.406 12.12 22.916 11.69C22.186 11.05 21.746 10.85 21.496 10.73C20.706 10.36 19.9959 10.32 19.3759 10.45V10.47Z" fill="#101214"/>
<path d="M19.107 32.9399C18.927 33.1399 18.887 33.2799 18.867 33.4599L18.707 33.7399C18.707 33.7399 18.757 33.7799 18.777 33.7999L19.007 33.5399C19.007 33.5399 19.067 33.5899 19.057 33.6199H18.917C19.037 33.7699 18.757 34.0199 19.137 34.0599L19.007 33.7899L18.837 34.0599C18.877 34.1199 18.967 34.1899 19.087 34.2299L19.477 33.7999C19.477 33.7999 19.527 33.7599 19.547 33.7399L19.307 34.1699C19.477 34.1999 19.777 34.1099 19.987 33.9599C21.227 33.0899 22.357 32.0499 23.677 30.5799C25.097 28.8399 25.257 28.2599 26.177 27.0599C26.947 26.0399 27.957 24.6399 28.777 23.3199C29.177 22.6499 29.567 22.0299 29.837 21.4699C30.127 20.9299 30.347 20.4999 30.437 20.2399C30.497 20.0899 30.557 19.9399 30.597 19.7799C30.677 19.4999 30.847 18.9999 30.957 18.2799C31.127 17.5899 31.187 16.6499 31.197 15.6499C31.177 13.7499 30.777 11.2799 29.707 9.28994C28.937 7.88994 28.047 6.91994 27.267 6.26994C26.497 5.59994 25.857 5.20994 25.417 4.95994C23.297 3.79994 21.447 3.53994 19.747 3.63994C18.797 3.70994 18.837 4.67994 19.677 4.83994C21.207 5.14994 22.717 5.59994 24.497 6.57994C25.187 6.96994 26.467 8.07994 27.587 9.99994C27.767 10.3099 27.967 10.6199 28.137 10.9399C28.567 11.6099 28.837 12.4399 29.047 13.2599C29.117 13.6799 29.197 14.0999 29.237 14.5099C29.257 14.9299 29.287 15.3299 29.307 15.7099C29.307 16.0799 29.267 16.4099 29.247 16.7099C29.247 17.0099 29.197 17.2699 29.137 17.4899C29.037 17.9299 28.977 18.1899 28.977 18.1899C28.977 18.1899 28.957 18.2899 28.917 18.4599C28.867 18.6299 28.777 18.8799 28.677 19.1899C28.497 19.8099 28.127 20.6399 27.707 21.5299C26.837 23.3199 25.497 25.2899 24.647 26.4099C23.367 28.1099 22.677 28.8699 22.267 29.3499C21.017 30.7799 20.037 31.8799 19.107 32.9499V32.9399Z" fill="#101214"/>
<path d="M5.29801 30.17C4.85801 30.34 4.94801 31.45 5.45801 31.51C6.17801 31.59 6.91801 31.55 7.78801 31.44C8.75801 31.27 8.97801 31.04 9.63801 31.08C9.89801 31.09 10.218 31.14 10.438 31.23C10.568 31.28 10.598 31.31 10.618 31.35C10.648 31.39 10.658 31.44 10.648 31.48C10.628 31.59 10.588 31.54 10.498 31.77C10.408 31.94 10.318 32.1 10.268 32.19C10.238 32.24 10.208 32.3 10.188 32.36C10.158 32.47 10.088 32.67 9.97801 32.96C9.87801 33.3 9.65801 33.77 9.60801 34.35C9.51801 34.92 9.58801 35.6 9.78801 36.23C10.018 36.85 10.378 37.41 10.778 37.85C11.968 39.03 12.888 39.32 13.328 39.55C14.408 39.99 15.288 40.07 16.138 39.97C16.618 39.91 16.658 38.94 16.288 38.78C15.608 38.49 14.948 38.21 14.058 37.83C13.728 37.68 13.108 37.12 12.478 36.47C12.368 36.36 12.288 36.27 12.148 36.19C11.608 35.84 11.388 35.19 11.468 34.64C11.478 34.37 11.608 34.12 11.668 33.96C11.738 33.79 11.828 33.63 11.818 33.64C11.818 33.64 11.908 33.44 12.048 33.13C12.178 32.78 12.388 32.4 12.438 31.59C12.438 31.17 12.338 30.73 12.058 30.38C11.808 30.04 11.358 29.79 11.018 29.69C10.358 29.49 9.84801 29.49 9.47801 29.48C8.35801 29.48 7.85801 29.58 7.53801 29.61C6.58801 29.74 5.91801 29.95 5.27801 30.2L5.29801 30.17Z" fill="#101214"/>
<path d="M22.6997 39.45C23.2097 39.83 23.8197 38.85 23.7397 38.6C23.6197 38.18 23.5297 37.69 23.5597 37.11C23.5597 36.48 23.4797 36.27 23.7597 36.04C24.0197 35.84 24.6597 35.76 25.2697 35.81C25.8697 35.85 26.4497 35.96 26.6797 35.99C26.7497 36 26.8097 36 26.8797 35.99C27.0097 35.98 27.2397 35.96 27.5497 35.93C27.7197 35.91 27.8897 35.9 28.1097 35.86C28.2897 35.83 28.4797 35.8 28.6797 35.77C29.0897 35.71 29.5497 35.64 30.0197 35.56C30.2597 35.52 30.4997 35.48 30.7497 35.44L31.1197 35.37C31.2397 35.34 31.3497 35.33 31.5797 35.27C32.1997 35.1 32.7797 34.85 33.1697 34.49C33.3497 34.31 33.5097 34.11 33.5797 33.86C33.6297 33.74 33.6397 33.6 33.6297 33.47C33.6897 33.34 33.6297 33.21 33.6297 33.09C33.5697 32.89 33.4997 32.71 33.3797 32.54C33.2797 32.39 33.1397 32.25 32.9797 32.12C32.8897 32.05 32.8097 31.99 32.7097 31.93L32.5697 31.84L32.4997 31.8L32.4697 31.78L32.3197 31.91C32.1797 32.02 32.2097 31.97 32.2597 31.97C32.2897 31.97 32.3197 31.95 32.3497 31.95H32.3897H32.3997C32.3197 31.95 32.5797 31.94 32.2197 31.96C32.1897 31.96 32.1697 31.96 32.1997 31.96C32.2297 31.95 32.4997 32.1 32.4197 32.02C32.4197 31.98 32.4497 31.92 32.4997 31.81C32.5797 31.65 32.8197 31.2 32.6997 30.75C32.5497 30.29 32.1997 30.38 31.9897 30.51C31.7597 30.65 31.5697 30.89 31.5097 30.89C31.5697 30.89 31.5297 30.89 31.5397 30.89C31.4897 30.89 31.4397 30.86 31.4397 30.87C31.4197 30.87 31.3697 30.9 31.3097 30.95C31.1997 31.05 30.9497 31.25 30.8297 31.68C30.7697 31.89 30.7697 32.11 30.7997 32.31C30.8397 32.52 30.9397 32.76 31.0797 32.93C31.1697 33.06 31.1697 33.04 31.2397 33.1C31.2597 33.11 31.2697 33.14 31.2597 33.18C31.2297 33.22 31.1297 33.27 31.0197 33.26C30.9197 33.26 30.8597 33.21 30.8497 33.2C30.8597 33.2 30.7197 33.25 30.6697 33.29C30.0197 33.62 29.1497 33.79 28.4597 33.88C28.2797 33.9 28.1197 33.92 27.9697 33.94C27.8497 33.95 27.7397 33.96 27.6397 33.96C27.4497 33.96 27.3297 33.96 27.3297 33.96C27.3297 33.96 26.5697 33.96 25.6497 33.98C25.1697 34 24.6197 34.04 24.0797 34.17C23.5397 34.29 22.9897 34.54 22.6297 34.87C22.0697 35.39 21.9197 35.89 21.8197 36.23C21.7397 36.58 21.7097 36.82 21.7097 37C21.6697 38.09 22.0897 38.91 22.7097 39.44L22.6997 39.45Z" fill="#101214"/>
</g>
</g>
</g>
<defs>
<clipPath id="clip0_226_8314">
<rect width="40" height="40" fill="white"/>
</clipPath>
<clipPath id="clip1_226_8314">
<rect width="40" height="40" fill="white"/>
</clipPath>
</defs>
</svg>
