<svg width="40" height="40" viewBox="0 0 40 40" fill="none" xmlns="http://www.w3.org/2000/svg">
<g clip-path="url(#clip0_226_8377)">
<g clip-path="url(#clip1_226_8377)">
<path d="M40 0H0V40H40V0Z" fill="#FFC716"/>
<path d="M16.3822 35.3499C12.7922 35.9499 9.88219 37.6299 7.99219 40.2699H30.8522C28.9622 37.6099 26.0422 35.9199 22.4422 35.3399C21.4922 35.1899 20.5022 35.1099 19.4722 35.1099C18.4422 35.1099 17.3622 35.1999 16.3822 35.3599V35.3499Z" fill="#164B35"/>
<path d="M36.9727 15.3599C37.1027 14.6299 37.1727 13.8499 37.1727 13.0199C37.1727 12.1899 37.1027 11.3899 36.9727 10.6499C36.1827 6.22988 33.1127 3.50988 28.8027 2.80988C28.0727 2.68988 27.3027 2.62988 26.4927 2.62988C25.6827 2.62988 24.8527 2.69988 24.0927 2.81988C19.7827 3.53988 16.7227 6.25988 15.9227 10.6499C15.7927 11.3899 15.7227 12.1799 15.7227 13.0199C15.7227 13.8599 15.7927 14.6199 15.9227 15.3599C16.7127 19.7499 19.7827 22.4699 24.0927 23.1899C24.8527 23.3199 25.6527 23.3799 26.4927 23.3799C27.3327 23.3799 28.0627 23.3199 28.8027 23.1999C33.1127 22.4999 36.1827 19.7699 36.9727 15.3599Z" fill="white"/>
<path d="M28.1411 19.6999C30.0211 15.5299 29.4911 12.2999 27.7511 9.76993C27.7111 9.76993 27.6611 9.77993 27.6211 9.78993C27.5911 9.74993 27.5711 9.71993 27.5411 9.67993C24.4911 10.0399 21.7111 11.7699 19.8111 15.9299C19.8111 15.9299 19.7911 15.9799 19.7811 15.9999C19.7811 16.0099 19.7711 16.0199 19.7611 16.0299C19.7611 16.0299 19.7611 16.0399 19.7611 16.0499C19.7611 16.0499 19.7611 16.0599 19.7611 16.0699C19.7611 16.0699 19.7611 16.0899 19.7511 16.0999C19.7411 16.1199 19.7311 16.1499 19.7211 16.1699C19.7211 16.1699 19.7111 16.1999 19.7011 16.2199C19.6711 16.1699 19.6511 16.1199 19.6211 16.0699C19.6211 16.0699 19.5911 16.0299 19.5811 15.9999C19.5711 15.9799 19.5611 15.9499 19.5411 15.9299C17.1911 11.9199 14.2211 10.4899 11.1211 10.4499C9.59109 13.1399 9.33109 16.4299 11.6111 20.4799C11.6111 20.4799 11.6411 20.5299 11.6511 20.5499C11.6611 20.5699 11.6711 20.5999 11.6911 20.6199C11.7211 20.6699 11.7511 20.7199 11.7811 20.7699C11.7211 20.7699 11.6711 20.7499 11.6011 20.7499C11.6011 20.7499 11.5511 20.7499 11.5211 20.7399C11.4911 20.7399 11.4711 20.7399 11.4411 20.7299C6.81109 20.3599 3.93109 21.9699 2.12109 24.4899C3.45109 27.2899 6.00109 29.3799 10.6211 29.8399C10.6211 29.8399 10.6711 29.8399 10.7011 29.8499C10.7311 29.8499 10.7511 29.8499 10.7811 29.8599C15.4111 30.2299 18.2911 28.6199 20.1011 26.0999C20.1411 26.0999 20.1911 26.0899 20.2311 26.0799C20.2611 26.1199 20.2811 26.1499 20.3111 26.1899C23.3611 25.8299 26.1411 24.0999 28.0411 19.9399C28.0411 19.9399 28.0611 19.8899 28.0711 19.8699C28.0711 19.8599 28.0811 19.8499 28.0911 19.8399C28.0911 19.8399 28.0911 19.8299 28.0911 19.8199C28.0911 19.8199 28.0911 19.8099 28.0911 19.7999C28.0911 19.7999 28.0911 19.7799 28.1011 19.7599C28.1111 19.7399 28.1211 19.7099 28.1311 19.6899L28.1411 19.6999Z" fill="#164B35"/>
<path d="M11.4908 20.73C6.77078 20.15 3.75078 21.67 1.80078 24.17C3.04078 27.09 5.55078 29.35 10.2608 30.02C10.2608 30.02 10.3108 30.02 10.3408 30.03C10.3708 30.03 10.3908 30.03 10.4208 30.04C15.1408 30.62 18.1608 29.1 20.1108 26.6C18.8708 23.68 16.3608 21.42 11.6508 20.75C11.6508 20.75 11.6008 20.75 11.5708 20.74C11.5408 20.74 11.5208 20.74 11.4908 20.73Z" fill="#82B536"/>
<path d="M28.2996 19.8098C30.1596 15.4598 29.5496 12.1498 27.6996 9.58984C24.5596 9.95984 21.7096 11.7498 19.7696 16.0698C19.7696 16.0698 19.7496 16.1198 19.7396 16.1398C19.7296 16.1598 19.7196 16.1898 19.7096 16.2098C17.8496 20.5698 18.4596 23.8698 20.3096 26.4398C23.4496 26.0698 26.2996 24.2798 28.2396 19.9598C28.2396 19.9598 28.2596 19.9098 28.2696 19.8898C28.2796 19.8698 28.2896 19.8398 28.2996 19.8198V19.8098Z" fill="#82B536"/>
<path d="M27.4517 10.4099C27.8617 10.2199 27.9017 9.08989 27.2417 9.07989C26.3317 9.05989 25.4617 9.32989 24.4917 9.86989C23.9617 10.2099 23.6817 10.4799 23.4517 10.7399C23.2317 10.9999 23.0117 11.1799 22.7017 11.4499C22.4317 11.6699 22.1217 11.9399 21.8017 12.2099C21.4817 12.4999 21.1517 12.7999 20.8417 13.0799C20.2517 13.6799 19.7317 14.2299 19.5717 14.4699C19.5217 14.5399 19.4717 14.6099 19.4317 14.6899C19.3617 14.8299 19.2117 15.0699 19.0617 15.4199C18.9217 15.7699 18.7417 16.2099 18.5417 16.6899C18.4017 17.1999 18.2117 17.7399 18.0817 18.3199C18.0017 18.9099 17.8117 19.4999 17.8017 20.0899C17.7917 20.5099 17.7717 20.8799 17.7617 21.2199C17.7617 21.5599 17.8217 21.8499 17.8417 22.1199C17.9117 22.6499 17.9317 23.0399 18.0217 23.2899C18.1917 23.8899 18.3317 24.4299 18.5617 24.8799C18.8117 25.3199 19.0617 25.7099 19.3317 26.0699C19.6317 26.4799 20.4817 26.0099 20.4217 25.5599C20.3617 25.1399 20.2817 24.7399 20.1617 24.3199C20.0717 23.8899 20.0117 23.4299 19.8617 22.9099C19.7917 22.7099 19.8417 22.3799 19.8617 21.9599C19.8717 21.7499 19.8917 21.5199 19.8917 21.2699C19.9217 21.0199 19.9717 20.7499 19.9917 20.4599C20.0117 20.2699 19.9917 20.0799 19.9617 19.8899C19.9517 19.4799 19.9617 19.0199 20.0017 18.5799C20.1017 18.1499 20.2117 17.7299 20.3217 17.3599C20.4817 17.0099 20.6217 16.7099 20.7217 16.4999C20.8217 16.2899 20.8917 16.1699 20.8917 16.1699C20.8917 16.1699 21.0017 15.9899 21.1717 15.7099C21.3417 15.4199 21.5817 15.0299 21.9017 14.6399C22.4917 13.8199 23.3717 13.0099 23.9017 12.5499C24.3217 12.2299 24.6317 11.9899 24.8717 11.8199C25.1217 11.6699 25.2917 11.5599 25.4317 11.4799C26.2317 11.0199 26.8617 10.6599 27.4617 10.3999L27.4517 10.4099Z" fill="#101214"/>
<path d="M19.6507 27.0098C19.9807 27.3498 21.0407 26.9598 20.8107 26.3298C20.4807 25.4798 19.9807 24.7298 19.1807 23.9498C18.7107 23.5198 18.3507 23.3298 18.0507 23.1598C17.7507 22.9798 17.4907 22.8498 17.1507 22.5998C16.0307 21.7398 13.9307 20.3998 13.3207 20.2198C13.2407 20.1798 13.1507 20.1498 13.0707 20.1298C12.9207 20.0798 12.6307 20.0098 12.2307 19.9698C11.8307 19.9298 11.3607 19.7898 10.8007 19.7998C10.2507 19.7998 9.64075 19.7198 9.02075 19.8298C8.71075 19.8598 8.40075 19.8998 8.08075 19.9298C7.77075 19.9698 7.47075 20.0698 7.17075 20.1398C6.31075 20.3298 5.70075 20.6598 5.20075 20.8998C4.69075 21.1198 4.36075 21.3498 4.14075 21.5098C3.62075 21.8898 3.12075 22.1898 2.80075 22.5998C2.46075 22.9898 2.17075 23.3698 1.91075 23.7598C1.62075 24.1898 2.34075 24.8398 2.76075 24.6098C3.15075 24.3998 3.51075 24.1698 3.88075 23.8998C4.24075 23.6098 4.69075 23.4198 5.14075 23.0898C5.32075 22.9698 5.62075 22.8198 6.05075 22.7298C6.47075 22.6398 6.95075 22.4098 7.54075 22.3198C7.73075 22.2798 7.91075 22.2098 8.09075 22.1098C8.87075 21.7498 9.87075 21.6298 10.6507 21.6898C11.0407 21.6698 11.3707 21.7998 11.6107 21.8298C11.8407 21.8798 11.9807 21.9098 11.9807 21.9098C11.9807 21.9098 12.1907 21.9398 12.5107 22.0598C12.8307 22.1898 13.3007 22.2798 13.7607 22.5198C14.7307 22.9098 15.7707 23.5998 16.3607 24.0298C17.2507 24.6898 17.6407 25.0598 17.8707 25.2898C18.5907 25.9698 19.1407 26.4998 19.6407 26.9998L19.6507 27.0098Z" fill="#101214"/>
<path d="M18.7696 23.2298C18.3596 22.9398 17.6196 23.7898 17.7396 24.0998C17.9396 24.5998 18.1696 25.0998 18.4996 25.7398C18.9196 26.4498 19.1996 26.5598 19.3996 27.0998C19.7696 28.0098 19.8596 29.6998 19.8396 30.0898C19.8396 30.1498 19.8496 30.2098 19.8696 30.2598C19.9396 30.4598 20.0596 31.0098 20.2096 31.7098C20.3096 32.4198 20.4396 33.2798 20.3996 34.0898C20.4696 35.2198 20.3996 35.9298 20.3996 36.2998C20.3996 37.1698 20.4196 37.8298 20.5896 38.4898C20.6796 38.8498 21.6396 38.9598 21.7896 38.5998C22.0396 37.9498 22.2396 37.2798 22.2696 36.3598C22.2696 35.9998 22.5996 35.2698 22.5896 34.1998C22.5896 34.0298 22.5696 33.8498 22.5196 33.6798C22.3296 32.9498 22.1496 32.1098 22.0796 31.4498C21.9596 30.7898 21.9096 30.3198 21.9096 30.3198C21.9096 30.3198 21.8896 30.1398 21.8296 29.8598C21.7696 29.5798 21.6896 29.1898 21.5996 28.7598C21.3896 27.9098 21.0796 26.9298 20.8396 26.3598C20.4896 25.4998 20.2696 25.0998 20.1496 24.8498C19.7396 24.1098 19.2996 23.5998 18.7596 23.2098L18.7696 23.2298Z" fill="#101214"/>
</g>
</g>
<defs>
<clipPath id="clip0_226_8377">
<rect width="40" height="40" fill="white"/>
</clipPath>
<clipPath id="clip1_226_8377">
<rect width="40" height="40" fill="white"/>
</clipPath>
</defs>
</svg>
