<svg width="40" height="40" viewBox="0 0 40 40" fill="none" xmlns="http://www.w3.org/2000/svg">
<g clip-path="url(#clip0_226_8610)">
<g clip-path="url(#clip1_226_8610)">
<path d="M40 0H0V40H40V0Z" fill="#1868DB"/>
<path d="M29.9002 35.57C28.1202 35.57 26.6102 36.01 25.3502 37.03C24.1802 31.95 22.4302 26.57 19.8302 21.74C17.5102 26.59 15.8202 31.9 14.6102 36.9C13.3902 36.02 11.8902 35.56 10.1802 35.56C7.19016 35.56 4.96016 36.78 3.41016 39.99H36.7802C35.4502 37.08 33.0302 35.56 29.9002 35.56V35.57Z" fill="white"/>
<path d="M27.0685 19.8699V18.2099C27.0685 10.8799 24.1685 6.6099 19.9985 4.1499C15.8285 6.6099 12.9285 10.8799 12.9285 18.2099V19.8799C8.91851 20.5399 6.20851 24.3299 6.86851 28.3399C6.90851 28.5599 6.95851 28.7699 7.00851 28.9799C9.61851 26.9099 12.9185 27.0499 12.9285 27.0499V28.5199H27.0685V27.0499C27.0685 27.0499 30.3685 26.9099 32.9885 28.9799C33.0385 28.7699 33.0885 28.5599 33.1285 28.3399C33.7885 24.3299 31.0785 20.5399 27.0685 19.8799V19.8699Z" fill="#FCA700"/>
<path d="M15.168 28.51C14.968 30.33 14.918 31.46 14.918 31.46H25.048V31.35C25.048 31.03 25.038 30.01 24.938 28.52H15.168V28.51Z" fill="#FFC716"/>
<path d="M23.3183 18.9199C23.4483 18.4399 23.5083 17.9099 23.5083 17.3699C23.5083 16.8299 23.4483 16.3399 23.3183 15.8799C23.0483 14.8799 22.4683 14.0699 21.5183 13.6499C21.0883 13.4699 20.5883 13.3599 20.0083 13.3599C19.4283 13.3599 18.9083 13.4699 18.4783 13.6499C17.5283 14.0599 16.9483 14.8699 16.6783 15.8699C16.5483 16.3399 16.4883 16.8399 16.4883 17.3599C16.4883 17.9099 16.5483 18.4299 16.6783 18.9099C16.9483 19.9199 17.5283 20.7299 18.4683 21.1299C18.8983 21.3199 19.4083 21.4199 19.9983 21.4199C20.5883 21.4199 21.0883 21.3199 21.5083 21.1299C22.4583 20.7199 23.0283 19.9199 23.2983 18.8999L23.3183 18.9199Z" fill="#FFC716"/>
<path d="M22.8394 18.3599C22.8394 18.8899 23.8994 19.2799 24.1694 18.5899C24.4694 17.6399 24.6294 16.5799 24.1694 15.1699C23.8494 14.3899 23.4494 13.9799 23.0794 13.6799C22.6994 13.3899 22.3594 13.1899 21.8494 12.9399C20.9594 12.5399 19.7694 12.3699 18.6294 12.5899C17.4594 12.7999 16.5594 13.6199 16.3094 13.9399C16.2294 14.0299 16.1594 14.1399 16.0994 14.2499C15.8694 14.6299 15.4394 15.7399 15.4494 17.0399C15.4494 17.6899 15.4994 18.3899 15.6994 19.1299C15.8994 19.8699 16.2694 20.6499 16.8594 21.2499C17.7394 22.0999 18.7294 22.3199 19.3994 22.3999C20.0894 22.4699 20.5894 22.4099 20.9494 22.3499C21.7894 22.1999 22.5194 21.7799 22.9994 21.2399C23.4794 20.6999 23.7294 20.0899 23.8194 19.5199C23.9094 18.8599 22.9394 18.7099 22.6894 19.0999C22.1694 19.8399 21.6194 20.3099 20.5994 20.5099C20.2294 20.5799 19.1394 20.4099 18.4994 19.7999L18.1494 19.4999C17.5594 19.0599 17.2894 17.9199 17.3194 17.0899C17.3294 16.2399 17.5894 15.7299 17.5894 15.7299C17.5894 15.7299 17.6594 15.5299 17.8194 15.2599C17.9794 14.9899 18.2494 14.6799 18.6494 14.4699C19.0494 14.2599 19.5894 14.1599 20.1094 14.1799C20.6294 14.1899 21.0594 14.3299 21.3294 14.4799C22.1394 14.9499 22.2694 15.5199 22.3894 15.7799C22.6994 16.6799 22.7694 17.5399 22.8094 18.3299L22.8394 18.3599Z" fill="#101214"/>
<path d="M20.8178 4.8499C21.6278 4.2599 21.1478 3.2499 20.1278 3.6899C18.7178 4.3399 17.2878 5.2899 15.9178 6.9599C15.1678 7.9299 14.8678 8.6399 14.6078 9.2399C14.4678 9.5399 14.3778 9.8299 14.2578 10.1299C14.1378 10.4299 14.0078 10.7399 13.8778 11.1199C13.3878 12.3899 12.9078 14.1599 12.6778 15.7599C12.5478 16.5599 12.4878 17.3099 12.4278 17.9399C12.3878 18.5399 12.3478 19.0099 12.3278 19.2799C12.3178 19.4399 12.3178 19.5899 12.3278 19.7499C12.3478 20.3099 12.3878 21.8099 12.4378 23.7099C12.4478 24.6599 12.4578 25.6999 12.4778 26.7699C12.4778 27.2499 12.4778 27.7399 12.4778 28.2199V28.9799C12.6778 29.0299 12.9678 28.9899 13.2078 28.9999C13.9778 28.9999 14.7378 29.0099 15.4878 29.0199C18.4678 29.0199 20.3078 29.0099 21.2678 29.0099C23.5378 28.9999 25.2378 28.8799 26.9078 28.6699C27.8278 28.5499 27.8278 27.5799 26.9078 27.4699C25.2378 27.2599 23.5378 27.1499 21.2678 27.1399C20.3878 27.1399 18.5478 26.8799 15.9478 26.8299C15.5278 26.8299 15.0978 26.8399 14.6778 26.8799C14.6178 26.8999 14.6278 26.9199 14.5878 26.9399C14.5578 26.9499 14.4878 26.9999 14.4878 26.9599C14.4578 26.8699 14.4278 26.9899 14.4078 26.3499C14.3678 25.3999 14.3478 24.4699 14.3378 23.6599C14.3178 22.0299 14.3378 20.8599 14.3378 20.8599C14.3378 20.8599 14.3378 20.4199 14.3378 19.7199C14.3378 19.0199 14.3278 18.0299 14.3778 17.0199C14.4278 14.9599 14.9978 12.6299 15.5378 11.3499C16.3578 9.4099 17.0278 8.6399 17.3978 8.1499C18.5778 6.6999 19.6978 5.7399 20.8378 4.8699L20.8178 4.8499Z" fill="#101214"/>
<path d="M15.1989 30.8898C14.9389 31.0098 14.9389 32.1198 15.1989 32.2398C15.5689 32.3998 15.9489 32.4898 16.4489 32.4998C17.0089 32.4498 17.1489 32.2198 17.5289 32.2398C18.1689 32.2398 19.2589 32.5498 19.5189 32.6198C19.5589 32.6298 19.5989 32.6298 19.6389 32.6198C19.9189 32.5798 21.1289 32.4098 22.1789 32.4898C22.9189 32.4898 23.3689 32.4898 23.6089 32.4898C24.1689 32.4898 24.5889 32.3698 25.0089 32.1498C25.2389 32.0298 25.2389 31.0598 25.0089 30.9498C24.5989 30.7398 24.1789 30.6198 23.6089 30.6198C23.3889 30.6198 22.9289 30.3498 22.2889 30.3098C22.1889 30.3098 22.0789 30.3198 21.9789 30.3598C21.0789 30.7198 19.9189 30.6198 19.9189 30.6198C19.9189 30.6198 18.1789 30.6198 17.4489 30.6198C16.8989 30.6198 16.6289 30.6198 16.4689 30.6198C15.9689 30.6198 15.5889 30.7198 15.2189 30.8798L15.1989 30.8898Z" fill="#101214"/>
</g>
</g>
<defs>
<clipPath id="clip0_226_8610">
<rect width="40" height="40" fill="white"/>
</clipPath>
<clipPath id="clip1_226_8610">
<rect width="40" height="40" fill="white"/>
</clipPath>
</defs>
</svg>
