<svg width="40" height="40" viewBox="0 0 40 40" fill="none" xmlns="http://www.w3.org/2000/svg">
<g clip-path="url(#clip0_226_8693)">
<g clip-path="url(#clip1_226_8693)">
<path d="M40 0H0V40H40V0Z" fill="#09326C"/>
<path d="M0.0507812 22.67C1.75078 23.16 3.66078 23.44 5.85078 23.44C22.3808 23.44 24.8108 7.49 40.0508 6.19V0H0.0507812V22.67Z" fill="#164B35"/>
<path d="M7.85156 40H32.0816L23.3116 24.13V12.36L25.3716 12.35L23.9716 9.75L15.9816 10.03L15.1616 12.41L16.7916 12.4V23.82L7.85156 40Z" fill="white"/>
<path d="M7.85156 40H32.0816L25.2916 27.71C24.6916 27.56 24.0316 27.48 23.2916 27.48C17.0216 27.48 16.6116 33.33 11.1116 34.09L7.85156 39.99V40Z" fill="#82B536"/>
<path d="M26.1418 33.9201C26.0718 33.7401 25.9818 33.5501 25.8718 33.3701C25.7618 33.1901 25.6418 33.0101 25.5118 32.8601C24.7418 31.9701 23.6918 31.7701 22.6318 32.1801C22.4518 32.2501 22.2718 32.3401 22.0918 32.4501C21.9118 32.5601 21.7318 32.6801 21.5818 32.8101C20.7118 33.5401 20.3818 34.5601 20.7818 35.6601C20.8518 35.8401 20.9418 36.0301 21.0518 36.2201C21.1618 36.4101 21.2818 36.5701 21.4118 36.7201C22.1718 37.6001 23.2218 37.8101 24.2918 37.3901C24.4818 37.3201 24.6718 37.2301 24.8618 37.1101C25.0518 36.9901 25.2118 36.8901 25.3518 36.7601C26.2318 36.0301 26.5518 35.0101 26.1518 33.9101L26.1418 33.9201Z" fill="#09326C"/>
<path d="M16.6598 36.02C16.6198 35.91 16.5598 35.79 16.4898 35.68C16.4198 35.57 16.3498 35.46 16.2698 35.37C15.7898 34.82 15.1398 34.69 14.4798 34.95C14.3698 34.99 14.2498 35.05 14.1398 35.12C14.0298 35.19 13.9198 35.26 13.8198 35.35C13.2798 35.81 13.0698 36.44 13.3298 37.12C13.3698 37.23 13.4298 37.35 13.4998 37.47C13.5698 37.59 13.6398 37.69 13.7198 37.78C14.1898 38.33 14.8498 38.46 15.5098 38.2C15.6298 38.15 15.7398 38.1 15.8598 38.03C15.9798 37.96 16.0698 37.89 16.1698 37.81C16.7098 37.36 16.9198 36.72 16.6598 36.04V36.02Z" fill="#09326C"/>
<path d="M19.2291 4.45009C19.1791 4.31009 19.1091 4.17009 19.0191 4.02009C18.9291 3.87009 18.8391 3.74009 18.7391 3.63009C18.1491 2.94009 17.3291 2.78009 16.5091 3.10009C16.3691 3.15009 16.2291 3.22009 16.0891 3.31009C15.9491 3.40009 15.8091 3.49009 15.6891 3.59009C15.0091 4.16009 14.7591 4.95009 15.0691 5.80009C15.1191 5.94009 15.1891 6.09009 15.2791 6.23009C15.3691 6.37009 15.4591 6.50009 15.5591 6.62009C16.1491 7.30009 16.9691 7.46009 17.7891 7.14009C17.9391 7.08009 18.0791 7.01009 18.2291 6.93009C18.3791 6.85009 18.4991 6.76009 18.6091 6.66009C19.2891 6.09009 19.5391 5.30009 19.2291 4.45009Z" fill="#82B536"/>
<path d="M22.0521 0.79C22.0821 0.88 22.1321 0.98 22.1821 1.07C22.2321 1.16 22.2921 1.25 22.3621 1.32C22.7421 1.76 23.2621 1.86 23.8021 1.66C23.8921 1.62 23.9921 1.58 24.0821 1.52C24.1721 1.47 24.2521 1.41 24.3321 1.35C24.7521 1 24.9021 0.52 24.7421 0H22.0221C21.9421 0.25 21.9521 0.51 22.0521 0.79Z" fill="#82B536"/>
<path d="M15.3591 12.32C15.0991 12.44 15.0991 13.55 15.3591 13.67C15.7291 13.84 16.1091 13.92 16.6091 13.93C17.1691 13.88 17.3091 13.65 17.6891 13.67C18.3291 13.67 19.4191 13.98 19.6791 14.06C19.7191 14.07 19.7591 14.07 19.7991 14.06C20.0791 14.02 21.2891 13.85 22.3391 13.93C23.0791 13.93 23.5391 13.93 23.7791 13.93C24.3391 13.93 24.7691 13.81 25.1791 13.6C25.4091 13.48 25.4091 12.51 25.1791 12.4C24.7691 12.19 24.3391 12.07 23.7791 12.07C23.5591 12.07 23.0991 11.8 22.4591 11.76C22.3491 11.76 22.2491 11.77 22.1491 11.81C21.2491 12.17 20.0791 12.07 20.0791 12.07C20.0791 12.07 18.3391 12.07 17.5991 12.07C17.0491 12.07 16.7791 12.07 16.6091 12.07C16.1091 12.07 15.7291 12.17 15.3591 12.33V12.32Z" fill="#101214"/>
<path d="M17.4201 13.6901C17.2801 12.9401 16.1601 12.9701 16.0701 13.7201C15.9401 14.7801 15.8901 15.8801 15.9301 17.3001C16.0401 18.9101 16.2801 19.3201 16.2901 20.4101C16.3201 21.3201 16.2901 22.6101 16.2301 23.6301C16.2301 23.7201 16.2101 23.7101 16.1901 23.7401C16.1701 23.7601 16.1901 23.7401 16.1501 23.7801L16.0401 23.9401C15.8901 24.1501 15.7601 24.3401 15.6301 24.5201C15.3801 24.8701 15.1801 25.1401 15.0701 25.3001C15.0001 25.3901 14.9501 25.4901 14.8901 25.5901C14.5201 26.3001 12.9101 29.4201 11.3201 31.9901C10.2501 33.8401 9.5901 34.9801 9.2401 35.5801C8.4301 36.9901 7.9201 38.1001 7.5001 39.2401C7.2701 39.8701 8.1101 40.3501 8.5401 39.8401C9.3201 38.9101 10.0301 37.9201 10.8601 36.5101C11.1801 35.9601 12.0701 34.9601 13.0501 33.3701C13.2101 33.1101 13.3501 32.8401 13.4601 32.5601C14.4501 30.1301 16.2301 27.2701 16.2301 27.2701C16.2301 27.2701 16.8601 26.1801 17.6301 24.8701L17.8001 24.5801C17.8701 24.4301 18.0001 24.3001 18.0301 24.1301C18.0301 23.8801 18.0101 23.6301 18.0101 23.3701C18.0001 22.9701 17.9801 22.5701 17.9701 22.1801C17.9501 21.4101 17.9201 20.6901 17.9101 20.1601C17.8501 18.5501 17.8301 17.7801 17.8101 17.3101C17.7601 15.8701 17.6301 14.7501 17.4301 13.6901H17.4201Z" fill="#101214"/>
</g>
</g>
<defs>
<clipPath id="clip0_226_8693">
<rect width="40" height="40" fill="white"/>
</clipPath>
<clipPath id="clip1_226_8693">
<rect width="40" height="40" fill="white"/>
</clipPath>
</defs>
</svg>
