<svg width="40" height="40" viewBox="0 0 40 40" fill="none" xmlns="http://www.w3.org/2000/svg">
<g clip-path="url(#clip0_226_9056)">
<g clip-path="url(#clip1_226_9056)">
<path d="M40 0H0V40H40V0Z" fill="#1868DB"/>
<path d="M32.0886 -0.0200195L26.3086 18.4C29.5186 19.75 31.7286 22.39 32.5386 26.68L40.0886 24.31V-0.0200195H32.0886Z" fill="white"/>
<path d="M19.8498 27.75C10.7398 27.75 3.67984 31 0.0898438 38.88V39.98H40.0898V38.16C36.4598 30.8 29.2498 27.74 19.8498 27.74V27.75Z" fill="#09326C"/>
<path d="M19.5209 17.5299C19.6409 17.6199 20.7509 17.6199 20.8709 17.5299C21.0409 17.4099 21.1209 17.2799 21.1309 17.1099C21.0809 16.9199 20.8509 16.8699 20.8709 16.7499C20.8709 16.5299 21.1809 16.1699 21.2609 16.0799C21.2709 16.0699 21.2709 16.0499 21.2609 16.0399C21.2209 15.9499 21.0509 15.5399 21.1309 15.1899C21.1309 14.9399 21.1309 14.7899 21.1309 14.7099C21.1309 14.5199 21.0109 14.3799 20.8009 14.2399C20.6809 14.1599 19.7109 14.1599 19.6009 14.2399C19.3909 14.3799 19.2709 14.5199 19.2709 14.7099C19.2709 14.7799 19.0009 14.9399 18.9609 15.1499C18.9609 15.1899 18.9709 15.2199 19.0109 15.2599C19.3709 15.5599 19.2709 15.9599 19.2709 15.9599C19.2709 15.9599 19.2709 16.5499 19.2709 16.7899C19.2709 16.9799 19.2709 17.0699 19.2709 17.1199C19.2709 17.2899 19.3709 17.4199 19.5309 17.5399L19.5209 17.5299Z" fill="#101214"/>
<path d="M33.2524 23.29C33.1524 23.45 33.4924 24.51 33.6724 24.57C33.9224 24.66 34.1524 24.68 34.4224 24.6C34.7124 24.45 34.7124 24.21 34.9224 24.16C35.2724 24.05 35.9524 24.15 36.1124 24.18C36.1324 24.18 36.1624 24.18 36.1824 24.17C36.3224 24.08 36.9224 23.71 37.5124 23.6C37.9124 23.47 38.1524 23.38 38.2824 23.34C38.5824 23.23 38.7724 23.05 38.9324 22.78C39.0224 22.63 38.7224 21.71 38.5624 21.64C38.2724 21.51 38.0124 21.48 37.7024 21.57C37.5824 21.61 37.2524 21.43 36.8924 21.5C36.8324 21.51 36.7824 21.55 36.7424 21.61C36.3724 22.11 35.7124 22.22 35.7124 22.22C35.7124 22.22 34.7724 22.52 34.3724 22.65C34.0724 22.75 33.9324 22.8 33.8424 22.83C33.5724 22.92 33.3924 23.08 33.2524 23.3V23.29Z" fill="#101214"/>
<path d="M31.0491 19.9399C30.9691 20.1499 31.6491 21.0299 31.8791 21.0099C32.1991 20.9699 32.4791 20.8699 32.7691 20.6499C33.0691 20.3499 33.0091 20.1099 33.2391 19.9599C33.6191 19.6699 34.4391 19.4199 34.6391 19.3599C34.6691 19.3599 34.6891 19.3399 34.7091 19.3099C34.8491 19.1499 35.4491 18.4699 36.1091 18.0599C36.5391 17.7199 36.8091 17.5099 36.9391 17.3999C37.2591 17.1399 37.4391 16.8599 37.5491 16.4999C37.6091 16.2999 37.0191 15.5399 36.8091 15.5499C36.4391 15.5699 36.1191 15.6699 35.7891 15.9199C35.6591 16.0199 35.2291 16.0099 34.8291 16.2699C34.7591 16.3099 34.7091 16.3699 34.6791 16.4499C34.3791 17.1399 33.6291 17.5899 33.6291 17.5899C33.6291 17.5899 32.6091 18.3799 32.1791 18.7099C31.8591 18.9599 31.6991 19.0899 31.6091 19.1599C31.3291 19.3899 31.1491 19.6399 31.0391 19.9299L31.0491 19.9399Z" fill="#101214"/>
<path d="M27.821 17.53C27.791 17.82 28.761 18.37 29.001 18.19C29.331 17.94 29.611 17.63 29.871 17.18C30.111 16.64 29.981 16.4 30.201 16.06C30.531 15.47 31.361 14.63 31.561 14.43C31.591 14.4 31.611 14.37 31.631 14.33C31.741 14.06 32.211 12.86 32.821 11.95C33.201 11.27 33.431 10.85 33.551 10.64C33.831 10.12 33.951 9.67997 33.981 9.19997C34.001 8.93997 33.151 8.45997 32.931 8.60997C32.531 8.87997 32.221 9.20997 31.921 9.71997C31.811 9.91997 31.341 10.21 30.971 10.77C30.911 10.86 30.871 10.97 30.851 11.08C30.701 12.08 30.011 13.1 30.011 13.1C30.011 13.1 29.111 14.69 28.731 15.36C28.451 15.87 28.311 16.11 28.231 16.26C27.981 16.72 27.861 17.11 27.821 17.53Z" fill="#101214"/>
<path d="M15.5986 15.6699C15.5986 15.6699 16.4486 15.3799 17.7486 15.1799C18.4186 15.0799 19.2086 14.9999 20.0786 14.9999C20.9486 14.9999 21.7386 15.0799 22.4086 15.1799C23.7086 15.3799 24.5386 15.6599 24.5586 15.6699L25.5986 12.7799C25.5386 12.7599 24.6486 12.4399 23.2486 12.2099C22.3686 12.0599 21.2886 11.9399 20.0786 11.9399C18.8686 11.9399 17.7886 12.0599 16.9086 12.2099C15.5086 12.4499 14.6186 12.7599 14.5586 12.7799L15.5986 15.6699Z" fill="#FFC716"/>
<path d="M15.5977 15.06C15.5477 15.11 15.5277 15.21 15.5377 15.33C15.5377 15.39 15.5577 15.46 15.5677 15.53L15.5977 15.64C15.5977 15.64 15.6377 15.76 15.6077 15.69C15.6477 15.78 15.6777 15.88 15.7077 15.97C15.7377 16.04 15.7677 16.1 15.7977 16.15C15.8577 16.26 15.9277 16.33 15.9877 16.35C16.3177 16.42 16.6477 16.43 17.0577 16.35C17.5077 16.21 17.5877 15.96 17.9077 15.94C18.4577 15.9 19.3977 16.14 19.6077 16.2C19.6377 16.2 19.6677 16.2 19.7077 16.2C19.9277 16.08 20.9477 16.04 21.8177 16.17C22.4377 16.19 22.8077 16.3 23.0077 16.33C23.4677 16.42 23.8377 16.39 24.2177 16.29C24.2677 16.28 24.3277 16.21 24.3877 16.11C24.4177 16.06 24.4477 16.01 24.4677 15.95C24.4977 15.87 24.5277 15.79 24.5677 15.7C24.5477 15.76 24.5677 15.69 24.5677 15.67L24.5977 15.57C24.6077 15.51 24.6177 15.45 24.6277 15.39C24.6277 15.28 24.6277 15.19 24.5777 15.14C24.2677 14.82 23.8977 14.61 23.3777 14.5C23.1777 14.47 22.8077 14.09 22.1877 14.01C22.0877 13.99 21.9877 14.01 21.8777 14.04C20.9877 14.35 19.9177 14.13 19.9077 14.18C19.9077 14.18 18.2677 14.3 17.5777 14.36C17.0677 14.44 16.8177 14.5 16.6677 14.53C16.2077 14.63 15.8777 14.81 15.5877 15.07L15.5977 15.06Z" fill="#101214"/>
<path d="M32.8581 31.65C33.2281 21.24 28.0281 17.27 19.9681 17.27C12.4081 17.27 7.32812 21.24 7.32812 31.65H32.8581Z" fill="#FFC716"/>
<path d="M7.60047 27.04C6.94047 27.16 6.94047 28.27 7.60047 28.39C8.54047 28.56 9.52047 28.64 10.7805 28.65C12.2105 28.6 12.5705 28.37 13.5405 28.39C15.1805 28.39 17.9505 28.7 18.6105 28.78C18.7105 28.79 18.8105 28.79 18.9105 28.78C19.6205 28.74 22.7105 28.57 25.3805 28.65C27.2605 28.65 28.4305 28.65 29.0405 28.65C30.4805 28.65 31.5505 28.53 32.6105 28.32C33.1905 28.2 33.1905 27.23 32.6105 27.12C31.5505 26.91 30.4805 26.79 29.0405 26.79C28.4805 26.79 27.3205 26.52 25.6705 26.48C25.4005 26.48 25.1305 26.49 24.8705 26.53C22.5805 26.89 19.6005 26.79 19.6005 26.79C19.6005 26.79 15.1605 26.79 13.2905 26.79C11.8805 26.79 11.2005 26.79 10.7805 26.79C9.52047 26.79 8.53047 26.89 7.60047 27.05V27.04Z" fill="#101214"/>
</g>
</g>
<defs>
<clipPath id="clip0_226_9056">
<rect width="40" height="40" fill="white"/>
</clipPath>
<clipPath id="clip1_226_9056">
<rect width="40" height="40" fill="white"/>
</clipPath>
</defs>
</svg>
