<svg width="40" height="40" viewBox="0 0 40 40" fill="none" xmlns="http://www.w3.org/2000/svg">
<g clip-path="url(#clip0_226_8986)">
<g clip-path="url(#clip1_226_8986)">
<path d="M40 0H0V40H40V0Z" fill="#09326C"/>
<path d="M20.0014 2.86986L5.19141 7.71986C5.19141 7.71986 5.71141 30.3499 19.9914 37.4899V37.4399L20.0114 37.4899C34.2814 30.3499 34.8114 7.71986 34.8114 7.71986L20.0014 2.85986V2.86986Z" fill="#1868DB"/>
<path d="M20.0211 2.86987H20.0011L8.37109 6.67987C8.63109 10.6899 10.2811 26.0899 20.0211 33.5299V2.86987Z" fill="white"/>
<path d="M20.0195 37.4899C34.2895 30.3499 34.8095 7.72988 34.8095 7.72988L20.0195 2.87988V37.4899Z" fill="#FCA700"/>
<path d="M20.5717 36.5099C19.5517 37.1999 20.0017 38.2299 21.2317 37.6799C22.9517 36.8899 24.6517 35.7599 26.4317 33.9099C28.3317 31.7099 28.4917 30.9499 29.5517 29.3399C30.4017 27.9499 31.4617 26.0299 32.2517 24.2499C33.0617 22.4799 33.6317 20.8699 33.8717 20.2499C33.9317 20.0599 33.9917 19.8799 34.0417 19.6899C34.2217 19.0099 34.6617 17.1699 35.0417 14.8399C35.2317 13.6699 35.4217 12.3899 35.5617 11.0599C35.6417 10.3999 35.7017 9.71993 35.7517 9.04993L35.7917 8.38993L35.8317 7.49993L35.8517 7.03993C35.7917 6.92993 35.5917 6.91993 35.4617 6.85993L34.6017 6.55993C31.0517 5.39993 28.8517 4.67993 27.7117 4.30993C25.0617 3.44993 23.0417 2.90993 21.0317 2.46993C19.9317 2.22993 19.6217 3.14993 20.6517 3.60993C22.5317 4.44993 24.4717 5.20993 27.1217 6.07993C28.1517 6.41993 30.2117 7.37993 33.2317 8.40993L33.6017 8.52993C33.6017 8.52993 33.6317 8.50993 33.6517 8.50993C33.6617 8.50993 33.6717 8.50993 33.6817 8.54993C33.6817 8.59993 33.7017 8.56993 33.7017 8.75993C33.7017 9.03993 33.6917 9.31993 33.6817 9.60993C33.6617 10.1799 33.6217 10.7599 33.5817 11.3299C33.4817 12.4699 33.3317 13.5799 33.1617 14.5499C32.8217 16.4899 32.4417 17.8599 32.4417 17.8599C32.4417 17.8599 31.9517 19.9299 31.0817 22.3299C30.2317 24.7399 28.8817 27.4199 27.9217 28.8899C26.5017 31.1399 25.5717 32.0299 25.0717 32.6199C23.4417 34.3299 22.0217 35.4799 20.5717 36.4999V36.5099Z" fill="#101214"/>
<path d="M20.5834 10.28C20.4634 9.89005 19.3534 9.89005 19.2334 10.28C19.0634 10.84 18.9834 11.42 18.9734 12.18C19.0234 13.03 19.2534 13.25 19.2334 13.82C19.2334 14.8 18.9234 16.44 18.8434 16.84C18.8334 16.9 18.8334 16.96 18.8434 17.02C18.8834 17.44 19.0534 19.29 18.9734 20.87C18.9734 21.99 18.9734 22.69 18.9734 23.05C18.9734 23.91 19.0934 24.55 19.3034 25.18C19.4234 25.53 20.3934 25.53 20.5034 25.18C20.7134 24.55 20.8334 23.91 20.8334 23.05C20.8334 22.72 21.1034 22.02 21.1434 21.04C21.1434 20.88 21.1334 20.72 21.0934 20.56C20.7334 19.19 20.8334 17.42 20.8334 17.42C20.8334 17.42 20.8334 14.78 20.8334 13.66C20.8334 12.82 20.8334 12.41 20.8334 12.17C20.8334 11.42 20.7334 10.83 20.5734 10.27L20.5834 10.28Z" fill="#101214"/>
<path d="M26.4027 18.3C26.7427 18.18 26.7427 17.07 26.4027 16.95C25.9227 16.78 25.4227 16.7 24.7727 16.69C24.0427 16.74 23.8527 16.97 23.3527 16.95C22.5127 16.95 21.0927 16.64 20.7527 16.56C20.7027 16.55 20.6527 16.55 20.6027 16.56C20.2427 16.6 18.6527 16.77 17.2827 16.69C16.3127 16.69 15.7227 16.69 15.4027 16.69C14.6627 16.69 14.1127 16.81 13.5727 17.02C13.2727 17.14 13.2727 18.11 13.5727 18.22C14.1127 18.43 14.6627 18.55 15.4027 18.55C15.6927 18.55 16.2827 18.82 17.1327 18.86C17.2727 18.86 17.4027 18.85 17.5427 18.81C18.7227 18.45 20.2427 18.55 20.2427 18.55C20.2427 18.55 22.5227 18.55 23.4827 18.55C24.2027 18.55 24.5527 18.55 24.7727 18.55C25.4227 18.55 25.9227 18.45 26.4027 18.29V18.3Z" fill="#101214"/>
</g>
</g>
<defs>
<clipPath id="clip0_226_8986">
<rect width="40" height="40" fill="white"/>
</clipPath>
<clipPath id="clip1_226_8986">
<rect width="40" height="40" fill="white"/>
</clipPath>
</defs>
</svg>
