<svg width="40" height="40" viewBox="0 0 40 40" fill="none" xmlns="http://www.w3.org/2000/svg">
<g clip-path="url(#clip0_226_8747)">
<g clip-path="url(#clip1_226_8747)">
<path d="M40.0508 -0.0400391H0.0507812V39.96H40.0508V-0.0400391Z" fill="#1868DB"/>
<path d="M36.51 7.58008H4.75V12.6201H36.51V7.58008Z" fill="white"/>
<path d="M7.28906 10.4502H36.6191V21.8402L20.4491 28.9202H7.28906V10.4502Z" fill="#FFC716"/>
<path d="M36.51 28.9202H4.75V31.8002H36.51V28.9202Z" fill="white"/>
<path d="M14.5692 10.4502H6.94922V28.9102H14.5692V10.4502Z" fill="#BD5B00"/>
<path d="M14.5909 35.9502C16.1815 35.9502 17.4709 34.6608 17.4709 33.0702C17.4709 31.4796 16.1815 30.1902 14.5909 30.1902C13.0004 30.1902 11.7109 31.4796 11.7109 33.0702C11.7109 34.6608 13.0004 35.9502 14.5909 35.9502Z" fill="white"/>
<path d="M28.3409 35.9502C29.9315 35.9502 31.2209 34.6608 31.2209 33.0702C31.2209 31.4796 29.9315 30.1902 28.3409 30.1902C26.7504 30.1902 25.4609 31.4796 25.4609 33.0702C25.4609 34.6608 26.7504 35.9502 28.3409 35.9502Z" fill="white"/>
<path d="M7.22812 14.2399C6.52812 14.3599 6.52812 15.4699 7.22812 15.5899C8.22812 15.7599 9.27812 15.8399 10.6181 15.8499C12.1481 15.7999 12.5281 15.5699 13.5581 15.5899C15.3081 15.5899 18.2581 15.8999 18.9681 15.9799C19.0681 15.9899 19.1781 15.9899 19.2881 15.9799C20.0381 15.9399 23.3381 15.7699 26.1881 15.8499C28.1981 15.8499 29.4381 15.8499 30.0881 15.8499C31.6181 15.8499 32.7681 15.7299 33.8881 15.5199C34.5081 15.3999 34.5081 14.4299 33.8881 14.3199C32.7681 14.1099 31.6181 13.9899 30.0881 13.9899C29.4881 13.9899 28.2481 13.7199 26.4981 13.6799C26.2081 13.6799 25.9281 13.6899 25.6481 13.7299C23.2081 14.0899 20.0381 13.9899 20.0381 13.9899C20.0381 13.9899 15.3081 13.9899 13.3081 13.9899C11.8081 13.9899 11.0781 13.9899 10.6381 13.9899C9.28813 13.9899 8.24812 14.0899 7.24812 14.2499L7.22812 14.2399Z" fill="#101214"/>
<path d="M7.22812 18.9001C6.52812 19.0201 6.52812 20.1301 7.22812 20.2501C8.22812 20.4201 9.27812 20.5001 10.6181 20.5101C12.1481 20.4601 12.5281 20.2301 13.5581 20.2501C15.3081 20.2501 18.2581 20.5601 18.9681 20.6401C19.0681 20.6501 19.1781 20.6501 19.2881 20.6401C20.0381 20.6001 23.3381 20.4301 26.1881 20.5101C28.1981 20.5101 29.4381 20.5101 30.0881 20.5101C31.6181 20.5101 32.7681 20.3901 33.8881 20.1801C34.5081 20.0601 34.5081 19.0901 33.8881 18.9801C32.7681 18.7701 31.6181 18.6501 30.0881 18.6501C29.4881 18.6501 28.2481 18.3801 26.4981 18.3401C26.2081 18.3401 25.9281 18.3501 25.6481 18.3901C23.2081 18.7501 20.0381 18.6501 20.0381 18.6501C20.0381 18.6501 15.3081 18.6501 13.3081 18.6501C11.8081 18.6501 11.0781 18.6501 10.6381 18.6501C9.28813 18.6501 8.24812 18.7501 7.24812 18.9101L7.22812 18.9001Z" fill="#101214"/>
<path d="M19.9389 12.0599C19.8189 11.7799 18.7089 11.7799 18.5889 12.0599C18.4189 12.4599 18.3389 12.8799 18.3289 13.4199C18.3789 14.0299 18.6089 14.1799 18.5889 14.5999C18.5889 15.2999 18.2789 16.4799 18.1989 16.7699C18.1889 16.8099 18.1889 16.8499 18.1989 16.8999C18.2389 17.1999 18.4089 18.5199 18.3289 19.6599C18.3289 20.4599 18.3289 20.9599 18.3289 21.2199C18.3289 21.8299 18.4489 22.2899 18.6589 22.7399C18.7789 22.9899 19.7489 22.9899 19.8589 22.7399C20.0689 22.2899 20.1889 21.8299 20.1889 21.2199C20.1889 20.9799 20.4589 20.4799 20.4989 19.7799C20.4989 19.6699 20.4889 19.5499 20.4489 19.4399C20.0889 18.4599 20.1889 17.1899 20.1889 17.1899C20.1889 17.1899 20.1889 15.2899 20.1889 14.4899C20.1889 13.8899 20.1889 13.5999 20.1889 13.4199C20.1889 12.8799 20.0889 12.4599 19.9289 12.0599H19.9389Z" fill="#101214"/>
<path d="M31.9584 11.5899C31.8384 11.3099 30.7284 11.3099 30.6084 11.5899C30.4384 11.9899 30.3584 12.4099 30.3484 12.9499C30.3984 13.5599 30.6284 13.7099 30.6084 14.1299C30.6084 14.8299 30.2984 16.0099 30.2184 16.2999C30.2084 16.3399 30.2084 16.3799 30.2184 16.4299C30.2584 16.7299 30.4284 18.0499 30.3484 19.1899C30.3484 19.9899 30.3484 20.4899 30.3484 20.7499C30.3484 21.3599 30.4684 21.8199 30.6784 22.2699C30.7984 22.5199 31.7684 22.5199 31.8784 22.2699C32.0884 21.8199 32.2084 21.3599 32.2084 20.7499C32.2084 20.5099 32.4784 20.0099 32.5184 19.3099C32.5184 19.1999 32.5084 19.0799 32.4684 18.9699C32.1084 17.9899 32.2084 16.7199 32.2084 16.7199C32.2084 16.7199 32.2084 14.8199 32.2084 14.0199C32.2084 13.4199 32.2084 13.1299 32.2084 12.9499C32.2084 12.4099 32.1084 11.9899 31.9484 11.5899H31.9584Z" fill="#101214"/>
<path d="M25.3998 11.93C25.2798 11.65 24.1698 11.65 24.0498 11.93C23.8798 12.33 23.7998 12.75 23.7898 13.29C23.8398 13.9 24.0698 14.05 24.0498 14.47C24.0498 15.17 23.7398 16.35 23.6598 16.64C23.6498 16.68 23.6498 16.72 23.6598 16.77C23.6998 17.07 23.8698 18.39 23.7898 19.53C23.7898 20.33 23.7898 20.83 23.7898 21.09C23.7898 21.7 23.9098 22.16 24.1198 22.61C24.2398 22.86 25.2098 22.86 25.3198 22.61C25.5298 22.16 25.6498 21.7 25.6498 21.09C25.6498 20.85 25.9198 20.35 25.9598 19.65C25.9598 19.54 25.9498 19.42 25.9098 19.31C25.5498 18.33 25.6498 17.06 25.6498 17.06C25.6498 17.06 25.6498 15.16 25.6498 14.36C25.6498 13.76 25.6498 13.47 25.6498 13.29C25.6498 12.75 25.5498 12.33 25.3898 11.93H25.3998Z" fill="#101214"/>
<path d="M3.52953 5.19001C2.09953 5.31001 2.09953 6.42001 3.52953 6.54001C4.09953 6.58001 4.67953 6.62001 5.27953 6.66001L5.73953 6.68001H5.96953C6.05953 6.70001 6.01953 6.70001 6.04953 6.70001L6.20953 6.74001L6.18953 6.87001V6.93001L6.16953 7.30001C6.16953 7.84001 6.15953 8.40001 6.14953 8.99001C6.19953 12.08 6.42953 12.85 6.40953 14.95C6.40953 18.49 6.09953 24.47 6.01953 25.91C6.00953 26.12 6.00953 26.34 6.01953 26.55C6.01953 26.81 6.02953 27.22 6.04953 27.96C6.04953 28.94 6.06953 30.35 6.08953 32.42C6.87953 32.41 8.62953 32.38 10.8095 32.35C12.4795 32.34 14.4795 32.33 16.3695 32.36C20.4395 32.36 22.9595 32.36 24.2695 32.36C27.3795 32.36 29.6995 32.24 31.9795 32.03C33.2295 31.91 33.2295 30.94 31.9795 30.83C29.6995 30.62 27.3795 30.5 24.2695 30.5C23.0595 30.5 20.5495 30.23 16.9995 30.19C16.4195 30.19 15.8395 30.2 15.2695 30.24C13.9095 30.34 12.4395 30.4 11.0295 30.45C9.92953 30.47 8.87953 30.5 8.01953 30.52C8.01953 29.05 8.02953 28.08 8.02953 28.08C8.02953 28.08 8.02953 18.49 8.02953 14.44C8.02953 11.39 8.02953 9.93001 8.02953 9.02001C8.00953 7.54001 7.98953 6.21001 7.96953 5.01001C7.40953 5.02001 6.85953 5.04001 6.32953 5.05001C6.12953 5.05001 5.92953 5.06001 5.73953 5.07001L5.27953 5.09001C4.67953 5.13001 4.09953 5.17001 3.52953 5.21001V5.19001Z" fill="#101214"/>
<path d="M11.0808 5.18997C9.79078 5.30997 9.79078 6.41997 11.0808 6.53997C11.6608 6.58997 12.2508 6.63997 12.8608 6.66997C13.0108 6.66997 13.1708 6.68997 13.3308 6.69997C13.4608 6.69997 13.7308 6.71997 13.6908 6.71997C13.7408 6.72997 13.7908 6.73997 13.8408 6.75997C13.8408 6.81997 13.8208 6.87997 13.8108 6.93997C13.8108 7.34997 13.8108 7.77997 13.8008 8.23997C13.8508 11.04 14.0808 11.73 14.0608 13.63C14.0608 16.83 13.7508 22.24 13.6708 23.54C13.6608 23.73 13.6608 23.93 13.6708 24.12C13.6708 24.51 13.7008 25.29 13.7308 26.48C13.7408 27.08 13.7508 27.78 13.7708 28.58C13.7708 29.69 13.7908 30.95 13.8008 32.36C16.0908 32.35 17.8908 32.35 20.2508 32.4C23.9308 32.42 26.2108 32.44 27.4008 32.44C30.2108 32.45 32.3108 32.35 34.3708 32.15C35.5008 32.04 35.5108 31.07 34.3708 30.95C32.3108 30.72 30.2108 30.6 27.4008 30.57C26.3108 30.57 24.0408 30.28 20.8308 30.21C20.3108 30.2 19.7808 30.21 19.2708 30.25C18.5508 30.3 17.8008 30.34 17.0508 30.38C16.6908 30.39 16.3408 30.41 15.9808 30.42C15.8908 30.43 15.8008 30.44 15.7208 30.45C15.7208 30.35 15.7008 30.26 15.6908 30.17C15.6908 29.79 15.6808 29.43 15.6708 29.08C15.6708 28.38 15.6708 27.75 15.6708 27.21C15.6708 26.14 15.6808 25.47 15.6808 25.47C15.6808 25.47 15.6808 16.8 15.6808 13.14C15.6808 10.38 15.6808 9.05997 15.6808 8.23997C15.6608 7.03997 15.6508 5.92997 15.6408 4.96997C15.0408 4.97997 14.4708 4.99997 13.9108 5.00997C13.5508 5.02997 13.2008 5.03997 12.8608 5.05997C12.2408 5.09997 11.6508 5.13997 11.0808 5.18997Z" fill="#101214"/>
</g>
</g>
<defs>
<clipPath id="clip0_226_8747">
<rect width="40" height="40" fill="white"/>
</clipPath>
<clipPath id="clip1_226_8747">
<rect width="40" height="40" fill="white"/>
</clipPath>
</defs>
</svg>
