<svg width="40" height="40" viewBox="0 0 40 40" fill="none" xmlns="http://www.w3.org/2000/svg">
<g clip-path="url(#clip0_226_8885)">
<g clip-path="url(#clip1_226_8885)">
<path d="M40 0H0V40H40V0Z" fill="#1868DB"/>
<path d="M35.0287 26.81V26.78H34.9688L35.0287 26.81Z" fill="#FFC716"/>
<path d="M19.6892 34.5901L4.94922 26.8501V40.0001H35.0292V26.8101L19.6892 34.5901Z" fill="#FFC716"/>
<path d="M19.9994 2.54004L23.4294 9.01004L30.6394 10.27L25.5394 15.53L26.5794 22.78L19.9994 19.55L13.4194 22.78L14.4594 15.53L9.35938 10.27L16.5694 9.01004L19.9994 2.54004Z" fill="#FCA700"/>
<path d="M12.6608 30.1101C12.6908 30.3401 13.7208 30.7701 13.9108 30.6201C14.1708 30.4201 14.3708 30.1801 14.5208 29.8301C14.6408 29.4101 14.4608 29.2201 14.6008 28.9601C14.7908 28.5001 15.4008 27.8401 15.5508 27.6801C15.5708 27.6601 15.5908 27.6301 15.5908 27.6001C15.6308 27.3901 15.8408 26.4501 16.2208 25.7301C16.4408 25.2001 16.5708 24.8701 16.6408 24.7001C16.8008 24.2901 16.8208 23.9501 16.7408 23.5701C16.7008 23.3601 15.8008 22.9901 15.6308 23.1101C15.3108 23.3301 15.0808 23.5801 14.9108 23.9801C14.8408 24.1401 14.4608 24.3601 14.2308 24.8001C14.1908 24.8701 14.1808 24.9501 14.1908 25.0401C14.2608 25.8201 13.8208 26.6201 13.8208 26.6201C13.8208 26.6201 13.3008 27.8601 13.0808 28.3901C12.9208 28.7901 12.8408 28.9801 12.7908 29.1001C12.6508 29.4601 12.6208 29.7701 12.6608 30.0901V30.1101Z" fill="#101214"/>
<path d="M20.2709 23.3099C20.1509 23.1499 19.0409 23.1499 18.9209 23.3099C18.7509 23.5299 18.6709 23.7599 18.6609 24.0599C18.7109 24.3999 18.9409 24.4799 18.9209 24.7099C18.9209 25.0999 18.6109 25.7499 18.5309 25.9099C18.5209 25.9299 18.5209 25.9599 18.5309 25.9799C18.5709 26.1499 18.7409 26.8799 18.6609 27.5099C18.6609 27.9599 18.6609 28.2299 18.6609 28.3799C18.6609 28.7199 18.7809 28.9699 18.9909 29.2199C19.1109 29.3599 20.0809 29.3599 20.1909 29.2199C20.4009 28.9699 20.5209 28.7199 20.5209 28.3799C20.5209 28.2499 20.7909 27.9699 20.8309 27.5799C20.8309 27.5199 20.8209 27.4499 20.7809 27.3899C20.4209 26.8499 20.5209 26.1399 20.5209 26.1399C20.5209 26.1399 20.5209 25.0899 20.5209 24.6499C20.5209 24.3199 20.5209 24.1599 20.5209 24.0599C20.5209 23.7599 20.4209 23.5299 20.2609 23.3099H20.2709Z" fill="#101214"/>
<path d="M25.5406 30.56C25.7206 30.7 26.7606 30.28 26.7906 30.05C26.8306 29.72 26.8006 29.41 26.6606 29.06C26.4506 28.68 26.1906 28.67 26.1006 28.38C25.9106 27.92 25.8806 27.03 25.8706 26.81C25.8706 26.78 25.8706 26.75 25.8406 26.72C25.7206 26.54 25.2006 25.73 24.9706 24.95C24.7506 24.42 24.6106 24.1 24.5406 23.93C24.3706 23.53 24.1406 23.27 23.8206 23.06C23.6506 22.94 22.7506 23.31 22.7106 23.52C22.6406 23.9 22.6606 24.24 22.8106 24.65C22.8706 24.81 22.7606 25.24 22.9106 25.71C22.9306 25.79 22.9806 25.86 23.0506 25.91C23.6506 26.41 23.9006 27.29 23.9006 27.29C23.9006 27.29 24.4106 28.54 24.6306 29.06C24.8006 29.46 24.8806 29.64 24.9306 29.76C25.0806 30.11 25.2806 30.35 25.5406 30.55V30.56Z" fill="#101214"/>
<path d="M19.6988 34.6L15.7787 37.7001L1.46875 29.5301L4.91875 26.8L19.6988 34.6Z" fill="#FCA700"/>
<path d="M19.6992 34.5901L23.6792 37.8501L38.5592 29.7001L35.0492 26.8301L19.6992 34.5901Z" fill="#FCA700"/>
<path d="M19.6892 34.5901L4.94922 26.8501V40.0001H35.0292V26.8101L19.6892 34.5901Z" fill="#FFC716"/>
<path d="M4.89062 26.81L19.6906 34.59L35.0306 26.81L19.6906 19.03L4.89062 26.81Z" fill="white"/>
<path d="M35.0287 26.81V26.78H34.9688L35.0287 26.81Z" fill="#FFC716"/>
<path d="M19.9994 2.54004L23.4294 9.01004L30.6394 10.27L25.5394 15.53L26.5794 22.78L19.9994 19.55L13.4194 22.78L14.4594 15.53L9.35938 10.27L16.5694 9.01004L19.9994 2.54004Z" fill="#FCA700"/>
<path d="M12.6569 30.1101C12.6869 30.3401 13.7169 30.7701 13.9069 30.6201C14.1669 30.4201 14.3669 30.1801 14.5169 29.8301C14.6369 29.4101 14.4569 29.2201 14.5969 28.9601C14.7869 28.5001 15.3969 27.8401 15.5469 27.6801C15.5669 27.6601 15.5869 27.6301 15.5869 27.6001C15.6269 27.3901 15.8369 26.4501 16.2169 25.7301C16.4369 25.2001 16.5669 24.8701 16.6369 24.7001C16.7969 24.2901 16.8169 23.9501 16.7369 23.5701C16.6969 23.3601 15.7969 22.9901 15.6269 23.1101C15.3069 23.3301 15.0769 23.5801 14.9069 23.9801C14.8369 24.1401 14.4569 24.3601 14.2269 24.8001C14.1869 24.8701 14.1769 24.9501 14.1869 25.0401C14.2569 25.8201 13.8169 26.6201 13.8169 26.6201C13.8169 26.6201 13.2969 27.8601 13.0769 28.3901C12.9169 28.7901 12.8369 28.9801 12.7869 29.1001C12.6469 29.4601 12.6169 29.7701 12.6569 30.0901V30.1101Z" fill="#101214"/>
<path d="M20.267 23.3099C20.147 23.1499 19.037 23.1499 18.917 23.3099C18.747 23.5299 18.667 23.7599 18.657 24.0599C18.707 24.3999 18.937 24.4799 18.917 24.7099C18.917 25.0999 18.607 25.7499 18.527 25.9099C18.517 25.9299 18.517 25.9599 18.527 25.9799C18.567 26.1499 18.737 26.8799 18.657 27.5099C18.657 27.9599 18.657 28.2299 18.657 28.3799C18.657 28.7199 18.777 28.9699 18.987 29.2199C19.107 29.3599 20.077 29.3599 20.187 29.2199C20.397 28.9699 20.517 28.7199 20.517 28.3799C20.517 28.2499 20.787 27.9699 20.827 27.5799C20.827 27.5199 20.817 27.4499 20.777 27.3899C20.417 26.8499 20.517 26.1399 20.517 26.1399C20.517 26.1399 20.517 25.0899 20.517 24.6499C20.517 24.3199 20.517 24.1599 20.517 24.0599C20.517 23.7599 20.417 23.5299 20.257 23.3099H20.267Z" fill="#101214"/>
<path d="M25.5406 30.56C25.7206 30.7 26.7606 30.28 26.7906 30.05C26.8306 29.72 26.8006 29.41 26.6606 29.06C26.4506 28.68 26.1906 28.67 26.1006 28.38C25.9106 27.92 25.8806 27.03 25.8706 26.81C25.8706 26.78 25.8706 26.75 25.8406 26.72C25.7206 26.54 25.2006 25.73 24.9706 24.95C24.7506 24.42 24.6106 24.1 24.5406 23.93C24.3706 23.53 24.1406 23.27 23.8206 23.06C23.6506 22.94 22.7506 23.31 22.7106 23.52C22.6406 23.9 22.6606 24.24 22.8106 24.65C22.8706 24.81 22.7606 25.24 22.9106 25.71C22.9306 25.79 22.9806 25.86 23.0506 25.91C23.6506 26.41 23.9006 27.29 23.9006 27.29C23.9006 27.29 24.4106 28.54 24.6306 29.06C24.8006 29.46 24.8806 29.64 24.9306 29.76C25.0806 30.11 25.2806 30.35 25.5406 30.55V30.56Z" fill="#101214"/>
<path d="M19.6988 34.6L15.7787 37.7001L1.46875 29.5301L4.91875 26.8L19.6988 34.6Z" fill="#FCA700"/>
<path d="M19.6992 34.5901L23.6792 37.8501L38.5592 29.7001L35.0492 26.8301L19.6992 34.5901Z" fill="#FCA700"/>
<path d="M19.6298 20.39C20.4198 19.88 19.9198 18.87 19.0398 19.18C17.8098 19.6 16.4398 20.17 14.9398 20.9C14.7498 21.07 14.6198 21.18 14.5198 21.28C14.4598 21.25 14.4198 21.11 14.4698 20.86C14.5298 20.52 14.5898 20.15 14.6598 19.75C14.7498 19.26 14.8498 18.74 14.9498 18.24C15.0498 17.74 15.1598 17.26 15.2498 16.82C15.2998 16.59 15.3498 16.37 15.3898 16.17C15.4598 15.8 15.5198 15.47 15.5798 15.17C15.2898 14.86 15.0398 14.59 14.8298 14.35C14.7198 14.22 14.6198 14.1 14.5398 14.01C14.3798 13.81 14.2598 13.68 14.1898 13.58C14.0998 13.47 14.0098 13.37 13.8998 13.27C13.6898 13.07 13.2798 12.67 12.6498 12.06C12.3698 11.79 12.0398 11.47 11.6598 11.1C11.6198 11.07 11.5498 11.02 11.4798 10.96C11.4798 10.95 11.5398 10.93 11.6298 10.91C12.1398 10.83 12.7398 10.73 13.3298 10.64L17.2698 9.94997L18.2898 8.02997C19.2298 6.22997 19.8398 4.83997 20.3498 3.41997C20.6298 2.63997 19.7698 2.18997 19.2898 2.85997C18.4098 4.07997 17.5998 5.36997 16.6398 7.15997C16.5498 7.31997 16.4298 7.51997 16.2798 7.74997C16.2098 7.85997 16.1298 7.97997 16.0498 8.09997C16.0198 8.11997 15.9898 8.13997 15.9698 8.14997C15.8998 8.14997 15.9498 8.10997 15.7998 8.11997C15.5698 8.13997 15.3298 8.16997 15.0698 8.18997C14.5598 8.23997 13.9898 8.30997 13.3698 8.40997C12.9998 8.46997 12.6298 8.54997 12.2698 8.65997C12.0298 8.72997 11.7798 8.79997 11.5298 8.86997C11.4498 8.89997 11.1698 8.94997 10.9398 9.00997L10.2398 9.15997C9.33984 9.33997 8.44984 9.52997 7.58984 9.70997C8.85984 11 10.0498 12.19 10.9098 13.06C11.4498 13.63 11.7998 13.99 11.7998 13.99L13.5998 15.85L12.7398 21.87L12.3998 24.28L15.7098 22.65C17.3998 21.81 18.5398 21.16 19.6698 20.42L19.6298 20.39Z" fill="#101214"/>
<path d="M23.9077 8.6499C23.3377 8.6499 23.1977 9.4599 23.7377 9.6499C24.4977 9.9099 25.3077 10.1199 26.3577 10.3099C27.5577 10.4799 27.8877 10.3599 28.6977 10.5199C28.7577 10.5299 28.8277 10.5399 28.8977 10.5599L28.9777 10.5799C28.9777 10.5799 29.0677 10.6099 29.1177 10.6199C29.2077 10.6499 29.2777 10.6799 29.3177 10.7099C29.1477 10.8299 29.0177 10.8999 28.9577 10.9099H28.9377C28.9377 10.9099 28.8677 10.9699 28.8377 10.9999C28.7677 11.0599 28.6977 11.1199 28.6377 11.1699C28.5177 11.2699 28.4177 11.3599 28.3477 11.4199C28.2877 11.4699 28.2277 11.5299 28.1677 11.5999C27.9977 11.7899 27.5877 12.2499 27.0377 12.8699C26.7577 13.1699 26.4377 13.5199 26.1077 13.8799C25.6777 14.3199 25.2277 14.7999 24.7577 15.2799C24.7877 15.4799 24.8477 15.9799 24.9077 16.4799C25.1377 18.0599 25.2777 19.0399 25.3477 19.5499C25.5277 20.7599 25.7377 21.6399 26.0177 22.5099C26.1777 22.9799 26.8977 22.8799 26.9077 22.3799C26.9377 21.4699 26.8977 20.5599 26.7277 19.3499C26.6577 18.8799 26.7277 17.8799 26.5577 16.4899C26.5377 16.2799 26.4777 16.0199 26.4277 15.8499C26.4077 15.8499 26.3877 15.8299 26.3677 15.8099C26.3677 15.7999 26.3677 15.7799 26.3677 15.7599C26.3577 15.7599 26.3877 15.7199 26.4377 15.6699L26.5477 15.5299C26.7077 15.3499 26.8577 15.1699 27.0077 14.9899C27.3177 14.6399 27.6177 14.3099 27.8877 14.0199C28.4277 13.4499 28.8177 13.0699 28.8177 13.0699L31.9277 9.8599L28.6877 9.2899C27.5077 9.0899 26.9377 8.9899 26.5977 8.9299C25.5377 8.7499 24.7077 8.6699 23.9077 8.6599V8.6499Z" fill="#101214"/>
<path d="M1.63909 29.2299C1.50909 29.2099 1.36909 29.2699 1.25909 29.3799C1.06909 29.4999 1.11909 29.6699 1.17909 29.7999C1.23909 29.9299 1.30909 30.1199 1.17909 30.2399C1.13909 30.3599 1.14909 30.4499 1.20909 30.5099C1.60909 30.8399 2.14909 31.1999 2.84909 31.5599C3.67909 31.9199 3.98909 31.8199 4.51909 32.1299C5.44909 32.6099 6.84909 33.7299 7.17909 34.0099C7.22909 34.0499 7.27909 34.0799 7.33909 34.1099C7.74909 34.2899 9.56909 35.0999 11.0091 36.0199C12.0491 36.6199 12.6891 36.9899 13.0291 37.1899C13.8091 37.6499 14.4691 37.9099 15.0891 38.0799C15.1491 38.0799 15.2791 38.0799 15.3191 37.9799C15.3591 37.9299 15.3791 37.8999 15.4691 37.8399C15.5791 37.7699 15.6391 37.7399 15.6391 37.7399C15.8791 37.6399 15.9291 37.2599 15.7891 37.0999C15.3091 36.5099 14.7791 36.0599 13.9791 35.5799C13.6691 35.3899 13.1591 34.7799 12.2591 34.2099C12.1091 34.1199 11.9491 34.0499 11.7891 33.9999C10.3291 33.5799 8.70909 32.5699 8.70909 32.5699C8.70909 32.5699 6.19909 31.2099 5.13909 30.6299C4.32909 30.2099 3.92909 30.0099 3.68909 29.8899C2.93909 29.5299 2.34909 29.3299 1.64909 29.2399L1.63909 29.2299Z" fill="#101214"/>
<path d="M23.4906 37.2399C23.4106 37.3399 23.3706 37.4999 23.4006 37.6499C23.4006 37.8899 23.5706 37.9299 23.7106 37.9399C23.8506 37.9399 24.0606 37.9899 24.0706 38.1899C24.1606 38.2799 24.2306 38.3299 24.3206 38.2999C24.8206 38.1299 25.4306 37.8699 26.1306 37.4699C26.9006 36.9599 27.0006 36.6499 27.5606 36.3599C28.4906 35.8299 30.2306 35.2499 30.6606 35.1099C30.7206 35.0899 30.7806 35.0599 30.8306 35.0299C31.2206 34.7799 32.9306 33.6699 34.5206 32.9499C35.6206 32.3899 36.2906 32.0499 36.6506 31.8699C37.4806 31.4499 38.0706 31.0299 38.5706 30.5899C38.7206 30.4699 38.5606 30.2399 38.5806 29.9399C38.6106 29.6699 38.3206 29.4399 38.1106 29.4699C37.3506 29.5599 36.6706 29.7699 35.8106 30.1899C35.4806 30.3499 34.6706 30.4599 33.6806 30.9099C33.5206 30.9799 33.3706 31.0799 33.2306 31.1999C32.0506 32.2099 30.2806 33.0399 30.2806 33.0399C30.2806 33.0399 27.7106 34.4399 26.6206 35.0199C25.8106 35.4899 25.4206 35.7099 25.1806 35.8499C24.4506 36.2899 23.9506 36.6799 23.4806 37.2399H23.4906Z" fill="#101214"/>
<path d="M19.6298 20.39C20.4198 19.88 19.9198 18.87 19.0398 19.18C17.8098 19.6 16.4398 20.17 14.9398 20.9C14.7498 21.07 14.6198 21.18 14.5198 21.28C14.4598 21.25 14.4198 21.11 14.4698 20.86C14.5298 20.52 14.5898 20.15 14.6598 19.75C14.7498 19.26 14.8498 18.74 14.9498 18.24C15.0498 17.74 15.1598 17.26 15.2498 16.82C15.2998 16.59 15.3498 16.37 15.3898 16.17C15.4598 15.8 15.5198 15.47 15.5798 15.17C15.2898 14.86 15.0398 14.59 14.8298 14.35C14.7198 14.22 14.6198 14.1 14.5398 14.01C14.3798 13.81 14.2598 13.68 14.1898 13.58C14.0998 13.47 14.0098 13.37 13.8998 13.27C13.6898 13.07 13.2798 12.67 12.6498 12.06C12.3698 11.79 12.0398 11.47 11.6598 11.1C11.6198 11.07 11.5498 11.02 11.4798 10.96C11.4798 10.95 11.5398 10.93 11.6298 10.91C12.1398 10.83 12.7398 10.73 13.3298 10.64L17.2698 9.94997L18.2898 8.02997C19.2298 6.22997 19.8398 4.83997 20.3498 3.41997C20.6298 2.63997 19.7698 2.18997 19.2898 2.85997C18.4098 4.07997 17.5998 5.36997 16.6398 7.15997C16.5498 7.31997 16.4298 7.51997 16.2798 7.74997C16.2098 7.85997 16.1298 7.97997 16.0498 8.09997C16.0198 8.11997 15.9898 8.13997 15.9698 8.14997C15.8998 8.14997 15.9498 8.10997 15.7998 8.11997C15.5698 8.13997 15.3298 8.16997 15.0698 8.18997C14.5598 8.23997 13.9898 8.30997 13.3698 8.40997C12.9998 8.46997 12.6298 8.54997 12.2698 8.65997C12.0298 8.72997 11.7798 8.79997 11.5298 8.86997C11.4498 8.89997 11.1698 8.94997 10.9398 9.00997L10.2398 9.15997C9.33984 9.33997 8.44984 9.52997 7.58984 9.70997C8.85984 11 10.0498 12.19 10.9098 13.06C11.4498 13.63 11.7998 13.99 11.7998 13.99L13.5998 15.85L12.7398 21.87L12.3998 24.28L15.7098 22.65C17.3998 21.81 18.5398 21.16 19.6698 20.42L19.6298 20.39Z" fill="#101214"/>
<path d="M23.9077 8.6499C23.3377 8.6499 23.1977 9.4599 23.7377 9.6499C24.4977 9.9099 25.3077 10.1199 26.3577 10.3099C27.5577 10.4799 27.8877 10.3599 28.6977 10.5199C28.7577 10.5299 28.8277 10.5399 28.8977 10.5599L28.9777 10.5799C28.9777 10.5799 29.0677 10.6099 29.1177 10.6199C29.2077 10.6499 29.2777 10.6799 29.3177 10.7099C29.1477 10.8299 29.0177 10.8999 28.9577 10.9099H28.9377C28.9377 10.9099 28.8677 10.9699 28.8377 10.9999C28.7677 11.0599 28.6977 11.1199 28.6377 11.1699C28.5177 11.2699 28.4177 11.3599 28.3477 11.4199C28.2877 11.4699 28.2277 11.5299 28.1677 11.5999C27.9977 11.7899 27.5877 12.2499 27.0377 12.8699C26.7577 13.1699 26.4377 13.5199 26.1077 13.8799C25.6777 14.3199 25.2277 14.7999 24.7577 15.2799C24.7877 15.4799 24.8477 15.9799 24.9077 16.4799C25.1377 18.0599 25.2777 19.0399 25.3477 19.5499C25.5277 20.7599 25.7377 21.6399 26.0177 22.5099C26.1777 22.9799 26.8977 22.8799 26.9077 22.3799C26.9377 21.4699 26.8977 20.5599 26.7277 19.3499C26.6577 18.8799 26.7277 17.8799 26.5577 16.4899C26.5377 16.2799 26.4777 16.0199 26.4277 15.8499C26.4077 15.8499 26.3877 15.8299 26.3677 15.8099C26.3677 15.7999 26.3677 15.7799 26.3677 15.7599C26.3577 15.7599 26.3877 15.7199 26.4377 15.6699L26.5477 15.5299C26.7077 15.3499 26.8577 15.1699 27.0077 14.9899C27.3177 14.6399 27.6177 14.3099 27.8877 14.0199C28.4277 13.4499 28.8177 13.0699 28.8177 13.0699L31.9277 9.8599L28.6877 9.2899C27.5077 9.0899 26.9377 8.9899 26.5977 8.9299C25.5377 8.7499 24.7077 8.6699 23.9077 8.6599V8.6499Z" fill="#101214"/>
<path d="M1.63909 29.2299C1.50909 29.2099 1.36909 29.2699 1.25909 29.3799C1.06909 29.4999 1.11909 29.6699 1.17909 29.7999C1.23909 29.9299 1.30909 30.1199 1.17909 30.2399C1.13909 30.3599 1.14909 30.4499 1.20909 30.5099C1.60909 30.8399 2.14909 31.1999 2.84909 31.5599C3.67909 31.9199 3.98909 31.8199 4.51909 32.1299C5.44909 32.6099 6.84909 33.7299 7.17909 34.0099C7.22909 34.0499 7.27909 34.0799 7.33909 34.1099C7.74909 34.2899 9.56909 35.0999 11.0091 36.0199C12.0491 36.6199 12.6891 36.9899 13.0291 37.1899C13.8091 37.6499 14.4691 37.9099 15.0891 38.0799C15.1491 38.0799 15.2791 38.0799 15.3191 37.9799C15.3591 37.9299 15.3791 37.8999 15.4691 37.8399C15.5791 37.7699 15.6391 37.7399 15.6391 37.7399C15.8791 37.6399 15.9291 37.2599 15.7891 37.0999C15.3091 36.5099 14.7791 36.0599 13.9791 35.5799C13.6691 35.3899 13.1591 34.7799 12.2591 34.2099C12.1091 34.1199 11.9491 34.0499 11.7891 33.9999C10.3291 33.5799 8.70909 32.5699 8.70909 32.5699C8.70909 32.5699 6.19909 31.2099 5.13909 30.6299C4.32909 30.2099 3.92909 30.0099 3.68909 29.8899C2.93909 29.5299 2.34909 29.3299 1.64909 29.2399L1.63909 29.2299Z" fill="#101214"/>
<path d="M23.4906 37.2399C23.4106 37.3399 23.3706 37.4999 23.4006 37.6499C23.4006 37.8899 23.5706 37.9299 23.7106 37.9399C23.8506 37.9399 24.0606 37.9899 24.0706 38.1899C24.1606 38.2799 24.2306 38.3299 24.3206 38.2999C24.8206 38.1299 25.4306 37.8699 26.1306 37.4699C26.9006 36.9599 27.0006 36.6499 27.5606 36.3599C28.4906 35.8299 30.2306 35.2499 30.6606 35.1099C30.7206 35.0899 30.7806 35.0599 30.8306 35.0299C31.2206 34.7799 32.9306 33.6699 34.5206 32.9499C35.6206 32.3899 36.2906 32.0499 36.6506 31.8699C37.4806 31.4499 38.0706 31.0299 38.5706 30.5899C38.7206 30.4699 38.5606 30.2399 38.5806 29.9399C38.6106 29.6699 38.3206 29.4399 38.1106 29.4699C37.3506 29.5599 36.6706 29.7699 35.8106 30.1899C35.4806 30.3499 34.6706 30.4599 33.6806 30.9099C33.5206 30.9799 33.3706 31.0799 33.2306 31.1999C32.0506 32.2099 30.2806 33.0399 30.2806 33.0399C30.2806 33.0399 27.7106 34.4399 26.6206 35.0199C25.8106 35.4899 25.4206 35.7099 25.1806 35.8499C24.4506 36.2899 23.9506 36.6799 23.4806 37.2399H23.4906Z" fill="#101214"/>
</g>
</g>
<defs>
<clipPath id="clip0_226_8885">
<rect width="40" height="40" fill="white"/>
</clipPath>
<clipPath id="clip1_226_8885">
<rect width="40" height="40" fill="white"/>
</clipPath>
</defs>
</svg>
