<svg width="40" height="40" viewBox="0 0 40 40" fill="none" xmlns="http://www.w3.org/2000/svg">
<g clip-path="url(#clip0_226_8933)">
<g clip-path="url(#clip1_226_8933)">
<path d="M40 0H0V40H40V0Z" fill="#AE2A19"/>
<path d="M34.9786 19.3701C34.4986 16.7101 33.4186 14.49 31.8686 12.75L34.0686 10.55L31.2386 7.72005L28.7186 10.24C27.2286 9.40005 25.5286 8.82005 23.6586 8.51005C23.3286 8.46005 22.9786 8.42005 22.6286 8.39005V6.24005C22.7586 6.26005 22.8986 6.27005 23.0186 6.29005C24.3186 6.49005 25.1486 6.77005 25.1686 6.78005L26.2086 3.89005C26.1486 3.87005 25.2586 3.55005 23.8586 3.32005C22.9786 3.17005 21.8986 3.05005 20.6886 3.05005C19.4786 3.05005 18.3986 3.17005 17.5186 3.32005C16.1186 3.56005 15.2286 3.87005 15.1686 3.89005L16.2086 6.78005C16.2086 6.78005 17.0586 6.49005 18.3586 6.29005C18.4686 6.27005 18.5986 6.26005 18.7186 6.25005V8.34005C18.1786 8.38005 17.6586 8.45005 17.1386 8.53005C15.4686 8.81005 13.9386 9.31005 12.5786 10.01L10.2886 7.72005L7.45859 10.55L9.30859 12.4C7.55859 14.18 6.34859 16.5201 5.83859 19.3701C5.64859 20.4001 5.55859 21.49 5.55859 22.65C5.55859 23.81 5.65859 24.87 5.83859 25.89C6.92859 31.97 11.1786 35.73 17.1486 36.73C18.2086 36.91 19.3186 37 20.4686 37C21.6186 37 22.6486 36.92 23.6586 36.75C29.6286 35.78 33.8786 32 34.9686 25.89C35.1486 24.87 35.2486 23.8 35.2486 22.65C35.2486 21.5 35.1486 20.4001 34.9686 19.3701H34.9786Z" fill="#FFC716"/>
<path d="M35.2602 22.65C35.2602 21.49 35.1602 20.4 34.9802 19.37C33.8802 13.25 29.6302 9.48002 23.6702 8.51002C22.7102 8.35002 21.7002 8.28002 20.6602 8.27002V23.37H35.2302C35.2302 23.13 35.2602 22.89 35.2602 22.65Z" fill="white"/>
<path d="M29.608 22.22C29.608 21.53 29.548 20.89 29.438 20.28C28.788 16.65 26.268 14.42 22.738 13.85C22.138 13.75 21.508 13.7 20.848 13.7C20.788 13.7 20.728 13.7 20.668 13.7V23.36H29.548C29.588 22.99 29.608 22.61 29.608 22.22Z" fill="#FCA700"/>
<path d="M21.2514 11.11C21.1314 10.56 20.0214 10.56 19.9014 11.11C19.7314 11.89 19.6514 12.72 19.6414 13.78C19.6914 14.98 19.9214 15.28 19.9014 16.09C19.9014 17.47 19.5914 19.79 19.5114 20.34C19.5014 20.42 19.5014 20.51 19.5114 20.59C19.5114 20.72 19.5314 20.96 19.5514 21.35C19.5514 21.45 19.5514 21.56 19.5614 21.67C19.5614 21.84 19.5614 22.03 19.5714 22.23C19.5714 22.76 19.5914 23.38 19.6014 24.1C20.0114 24.08 20.8714 24.06 21.8414 24.05C22.3814 24.05 23.0214 24.05 23.6314 24.07C25.2114 24.07 26.1914 24.07 26.7014 24.07C27.9114 24.07 28.8114 23.95 29.6914 23.74C30.1814 23.62 30.1814 22.65 29.6914 22.54C28.8114 22.33 27.9014 22.21 26.7014 22.21C26.2314 22.21 25.2614 21.94 23.8814 21.9C23.6614 21.9 23.4314 21.91 23.2114 21.95C22.7914 22.03 22.3514 22.09 21.9214 22.13C21.7714 22.14 21.8314 22.15 21.7814 22.16L21.7014 22.18C21.6414 22.19 21.5814 22.2 21.5214 22.21C21.5214 22.15 21.5114 22.08 21.5014 22.02C21.5014 21.91 21.5014 21.81 21.5014 21.73C21.5014 21.4 21.5114 21.2 21.5114 21.2C21.5114 21.2 21.5114 17.48 21.5114 15.9C21.5114 14.72 21.5114 14.15 21.5114 13.8C21.5114 12.74 21.4114 11.92 21.2514 11.13V11.11Z" fill="#101214"/>
<path d="M16.2204 6.16006C16.0004 6.35006 16.4004 7.40006 16.6104 7.45006C16.9404 7.53006 17.2604 7.54006 17.6604 7.47006C18.1104 7.33006 18.1904 7.09006 18.5204 7.08006C19.0704 7.00006 20.0004 7.27006 20.2204 7.35006C20.2504 7.36006 20.2804 7.36006 20.3204 7.35006C20.5504 7.30006 21.5804 7.14006 22.4504 7.32006C23.0704 7.39006 23.4504 7.45006 23.6504 7.49006C24.1204 7.57006 24.4904 7.53006 24.8904 7.41006C25.1104 7.34006 25.3504 6.40006 25.1704 6.24006C24.8504 5.94006 24.4904 5.75006 23.9804 5.65006C23.7804 5.61006 23.4004 5.28006 22.8004 5.16006C22.7004 5.14006 22.6004 5.15006 22.5004 5.18006C21.6304 5.45006 20.5504 5.34006 20.5504 5.34006C20.5504 5.34006 20.1404 5.34006 19.6504 5.36006C19.1604 5.38006 18.5804 5.44006 18.2404 5.48006C17.7204 5.55006 17.4804 5.60006 17.3304 5.63006C16.8704 5.72006 16.5304 5.90006 16.2404 6.16006H16.2204Z" fill="#101214"/>
<path d="M19.2395 8.88007C20.8695 8.71007 20.9395 7.59007 19.1595 7.53007C17.9095 7.52007 16.6095 7.65007 15.2295 7.98007C13.8495 8.31007 12.3795 8.86007 10.8995 9.80007C9.23946 10.9101 8.43946 11.9201 7.81946 12.7901C7.21946 13.6801 6.73946 14.4601 6.18946 15.6701C5.73946 16.6901 5.31946 17.9301 5.03946 19.2601C4.76946 20.5901 4.64946 21.9901 4.64946 23.3101C4.61946 25.9601 5.25946 28.3001 5.59946 29.1701C5.67946 29.4301 5.79946 29.6901 5.91946 29.9301C6.33946 30.7901 7.65946 33.2801 10.4595 35.1801C13.2195 37.1201 17.1995 38.0601 20.7795 38.0201C23.3295 37.9901 25.3895 37.5001 26.9495 36.9501C28.5195 36.3901 29.5695 35.7201 30.2795 35.2601C31.9195 34.1101 33.1095 32.7501 33.9095 31.3601C34.7095 29.9601 35.1695 28.5501 35.4195 27.1501C35.6395 25.5801 34.6695 25.4901 34.2495 26.8501C33.3795 29.3101 32.0495 31.7201 29.2095 33.7101C28.6495 34.0801 27.7295 34.5901 26.4295 34.9901C25.1295 35.3901 23.4595 35.7201 21.4595 35.8001C20.8095 35.8201 20.1495 35.8401 19.5095 35.8501C18.1095 35.8701 16.5995 35.7101 15.1895 35.3101C13.7795 34.9201 12.4895 34.2901 11.4795 33.5801C10.4595 32.8701 9.70946 32.1001 9.24946 31.5101C8.99946 31.2301 8.83946 30.9701 8.71946 30.8001C8.59946 30.6301 8.53946 30.5401 8.53946 30.5401C8.53946 30.5401 8.43946 30.4101 8.29946 30.1401C8.13946 29.8801 7.92946 29.5101 7.70946 29.0201C7.24946 28.0501 6.79946 26.6201 6.56946 24.9901C6.35946 23.3601 6.36946 21.5201 6.62946 19.8801C6.89946 18.2401 7.39946 16.7901 7.92946 15.7901C8.69946 14.2701 9.56946 13.3401 10.2495 12.6801C10.9595 12.0401 11.4895 11.6501 11.9195 11.3801C13.1995 10.5601 14.4695 10.0301 15.6895 9.65007C16.9095 9.27007 18.0795 9.03007 19.2495 8.88007H19.2395Z" fill="#101214"/>
<path d="M12.2111 12.93C12.0711 12.95 11.2811 13.74 11.2611 13.88C11.2311 14.08 11.2611 14.23 11.3611 14.35C11.5211 14.44 11.7211 14.31 11.7911 14.41C11.9411 14.56 11.9611 15.02 11.9711 15.14C11.9711 15.16 11.9711 15.17 11.9911 15.17C12.0811 15.2 12.4811 15.36 12.6611 15.66C12.8311 15.83 12.9411 15.93 12.9911 15.98C13.1211 16.1 13.3011 16.12 13.5511 16.06C13.6811 16.03 14.3711 15.34 14.4011 15.21C14.4611 14.97 14.4411 14.79 14.3211 14.65C14.2711 14.6 14.3611 14.31 14.2411 14.13C14.2211 14.1 14.1811 14.09 14.1311 14.1C13.6711 14.15 13.4711 13.81 13.4711 13.81C13.4711 13.81 13.0811 13.41 12.9111 13.24C12.7811 13.12 12.7211 13.06 12.6811 13.02C12.5611 12.91 12.4111 12.89 12.2111 12.92V12.93Z" fill="#101214"/>
<path d="M7.77875 21.82C7.69875 21.94 7.69875 23.05 7.77875 23.17C7.89875 23.34 8.01875 23.42 8.17875 23.43C8.35875 23.38 8.40875 23.15 8.52875 23.17C8.73875 23.17 9.08875 23.48 9.16875 23.56C9.17875 23.57 9.18875 23.57 9.20875 23.56C9.29875 23.52 9.68875 23.35 10.0287 23.43C10.2687 23.43 10.4087 23.43 10.4887 23.43C10.6687 23.43 10.8087 23.31 10.9387 23.1C11.0087 22.98 11.0087 22.01 10.9387 21.9C10.8087 21.69 10.6687 21.57 10.4887 21.57C10.4187 21.57 10.2688 21.3 10.0588 21.26C10.0288 21.26 9.98875 21.27 9.95875 21.31C9.66875 21.67 9.28875 21.57 9.28875 21.57C9.28875 21.57 8.72875 21.57 8.48875 21.57C8.30875 21.57 8.22875 21.57 8.16875 21.57C8.00875 21.57 7.88875 21.67 7.76875 21.83L7.77875 21.82Z" fill="#101214"/>
<path d="M10.9388 31.2401C10.9588 31.3801 11.7488 32.1701 11.8888 32.1901C12.0888 32.2201 12.2388 32.1901 12.3588 32.0901C12.4488 31.9301 12.3188 31.7301 12.4188 31.6601C12.5688 31.5101 13.0288 31.4901 13.1488 31.4801C13.1688 31.4801 13.1788 31.4801 13.1788 31.4601C13.2088 31.3701 13.3688 30.9701 13.6588 30.7901C13.8288 30.6201 13.9288 30.5101 13.9788 30.4601C14.0988 30.3301 14.1188 30.1501 14.0588 29.9101C14.0288 29.7801 13.3388 29.0901 13.2088 29.0601C12.9688 29.0001 12.7888 29.0201 12.6488 29.1401C12.5988 29.1901 12.3088 29.1001 12.1288 29.2201C12.0988 29.2401 12.0888 29.2801 12.0988 29.3301C12.1488 29.7901 11.8088 29.9901 11.8088 29.9901C11.8088 29.9901 11.4088 30.3801 11.2388 30.5501C11.1188 30.6801 11.0588 30.7401 11.0188 30.7801C10.9088 30.9001 10.8888 31.0501 10.9188 31.2501L10.9388 31.2401Z" fill="#101214"/>
<path d="M19.8295 35.36C19.9495 35.44 21.0595 35.44 21.1795 35.36C21.3495 35.24 21.4295 35.12 21.4395 34.96C21.3895 34.78 21.1595 34.73 21.1795 34.61C21.1795 34.4 21.4895 34.05 21.5695 33.97C21.5795 33.96 21.5795 33.95 21.5695 33.93C21.5295 33.84 21.3595 33.45 21.4395 33.11C21.4395 32.87 21.4395 32.72 21.4395 32.65C21.4395 32.47 21.3195 32.33 21.1095 32.2C20.9895 32.13 20.0195 32.13 19.9095 32.2C19.6995 32.33 19.5795 32.47 19.5795 32.65C19.5795 32.72 19.3095 32.87 19.2695 33.08C19.2695 33.11 19.2795 33.15 19.3195 33.18C19.6795 33.47 19.5795 33.85 19.5795 33.85C19.5795 33.85 19.5795 34.41 19.5795 34.65C19.5795 34.83 19.5795 34.91 19.5795 34.97C19.5795 35.13 19.6795 35.25 19.8395 35.37L19.8295 35.36Z" fill="#101214"/>
<path d="M29.2479 32.52C29.3879 32.5 30.1779 31.71 30.1979 31.57C30.2279 31.37 30.1979 31.22 30.0979 31.1C29.9279 31.01 29.7379 31.14 29.6679 31.04C29.5179 30.89 29.4979 30.43 29.4879 30.31C29.4879 30.29 29.4879 30.28 29.4679 30.28C29.3779 30.25 28.9779 30.09 28.7979 29.8C28.6279 29.63 28.5179 29.53 28.4679 29.48C28.3379 29.36 28.1579 29.34 27.9179 29.4C27.7879 29.43 27.0979 30.12 27.0679 30.25C27.0079 30.49 27.0279 30.67 27.1479 30.8C27.1979 30.85 27.1079 31.14 27.2279 31.32C27.2479 31.35 27.2879 31.36 27.3379 31.35C27.7979 31.3 27.9979 31.64 27.9979 31.64C27.9979 31.64 28.3879 32.04 28.5579 32.21C28.6879 32.33 28.7479 32.39 28.7879 32.43C28.9079 32.54 29.0579 32.5599 29.2579 32.5299L29.2479 32.52Z" fill="#101214"/>
<path d="M30.52 14.2101C30.5 14.0701 29.71 13.2801 29.57 13.2601C29.37 13.2301 29.22 13.2601 29.1 13.3601C29.01 13.5201 29.14 13.7201 29.04 13.7901C28.89 13.9401 28.43 13.9601 28.31 13.9701C28.29 13.9701 28.28 13.9701 28.28 13.9901C28.25 14.0801 28.09 14.4801 27.8 14.6601C27.63 14.8301 27.53 14.9401 27.48 14.9901C27.36 15.1201 27.34 15.3001 27.4 15.5401C27.43 15.6701 28.12 16.3601 28.25 16.3901C28.49 16.4501 28.67 16.4301 28.8 16.3101C28.85 16.2601 29.14 16.3501 29.32 16.2301C29.35 16.2101 29.36 16.1701 29.35 16.1201C29.3 15.6601 29.64 15.4601 29.64 15.4601C29.64 15.4601 30.04 15.0701 30.21 14.9001C30.33 14.7701 30.39 14.7101 30.43 14.6701C30.54 14.5501 30.56 14.4001 30.53 14.2001L30.52 14.2101Z" fill="#101214"/>
</g>
</g>
<defs>
<clipPath id="clip0_226_8933">
<rect width="40" height="40" fill="white"/>
</clipPath>
<clipPath id="clip1_226_8933">
<rect width="40" height="40" fill="white"/>
</clipPath>
</defs>
</svg>
