<svg width="40" height="40" viewBox="0 0 40 40" fill="none" xmlns="http://www.w3.org/2000/svg">
<g clip-path="url(#clip0_226_8874)">
<g clip-path="url(#clip1_226_8874)">
<path d="M40 0H0V40H40V0Z" fill="#BF63F3"/>
<path d="M14.8981 14.3399L16.8281 13.2599V11.1599C16.8281 7.21994 18.7281 6.68994 20.5781 6.68994C21.9281 6.68994 22.9181 7.00994 23.5181 7.62994C24.1881 8.31994 24.4881 9.48994 24.4381 11.1099V12.9799L25.5781 12.3399L27.4381 13.3799V11.1799C27.5181 8.72994 26.9281 6.82994 25.6781 5.53994C24.4881 4.30994 22.7781 3.68994 20.5781 3.68994C16.2881 3.68994 13.8281 6.40994 13.8281 11.1599V13.7399L14.8981 14.3399Z" fill="white"/>
<path d="M32.7098 12.3298L29.1498 14.3298L25.5798 12.3298L22.0198 14.3298L18.4598 12.3298L14.8998 14.3298L11.3398 12.3298V36.3098H32.7098V12.3298Z" fill="#FFC716"/>
<path d="M26.1985 29.1899C25.8585 29.8599 26.6785 30.6399 27.3285 29.9299C28.1685 28.9199 28.8385 27.5399 28.8585 25.6799C28.8185 24.6299 28.5985 24.0099 28.3885 23.4899C28.1785 22.9699 27.9485 22.5599 27.6485 21.9399C27.0985 20.9199 26.1085 19.6699 24.9285 18.8799C23.7585 18.0599 22.5185 17.7099 22.0385 17.5999C21.8985 17.5699 21.7485 17.5499 21.6085 17.5399C21.0985 17.5199 19.6385 17.4599 17.9985 18.1299C16.3585 18.7499 14.6585 20.1599 13.7385 21.8899C13.0785 23.0999 12.8885 24.2299 12.8085 25.0999C12.7585 25.9799 12.8385 26.6299 12.9185 27.0599C13.3085 29.1299 14.3785 30.4699 15.5885 31.3099C16.2885 31.7699 16.8285 30.9499 16.4085 30.4299C15.6585 29.4299 15.0585 28.3299 14.7685 26.7399C14.6685 26.1299 14.7685 24.7599 15.5385 23.1999C15.6585 22.9399 15.7985 22.6899 15.9085 22.4299C16.4285 21.2899 17.5985 20.2699 18.6985 19.8899C19.2385 19.6699 19.7285 19.5999 20.0785 19.5499C20.4285 19.5299 20.6385 19.5199 20.6385 19.5199C20.6385 19.5199 20.9485 19.5199 21.4485 19.5499C21.9485 19.5899 22.6185 19.7399 23.3085 20.0399C24.7185 20.6199 25.9585 21.9999 26.3585 22.9699C27.0285 24.4099 26.9485 25.2299 26.9885 25.6799C26.9885 27.0999 26.6485 28.1799 26.2085 29.1899H26.1985Z" fill="#101214"/>
<path d="M24.6982 25.3499C24.4982 25.0999 23.4382 25.4499 23.4182 25.7699C23.3982 26.2199 23.4482 26.6699 23.6182 27.2199C23.8682 27.8199 24.1382 27.8999 24.2582 28.3199C24.3782 28.6699 24.4582 29.1699 24.5182 29.6199C24.5282 29.7299 24.5482 29.8399 24.5582 29.9399C24.5582 29.9899 24.5582 30.0399 24.5682 30.0899C24.5882 30.1699 24.5982 30.2499 24.6182 30.3299C24.6882 30.6699 24.7382 30.9399 24.7682 31.0899C24.7882 31.1799 24.8082 31.2699 24.8482 31.3499C24.8882 31.4499 24.9582 31.6199 25.1982 32.3099C25.4882 32.1799 26.1582 31.9199 26.9382 31.6399C27.2082 31.5499 27.4982 31.4399 27.7982 31.3399C28.0382 31.2599 28.2782 31.1899 28.5182 31.1299C29.3282 30.8599 29.8282 30.6999 30.0882 30.6099C30.7082 30.3999 31.1282 30.1399 31.5182 29.7899C31.7282 29.5999 31.4282 28.6799 31.1382 28.6499C30.6182 28.5999 30.1182 28.6499 29.4982 28.8299C29.2582 28.9099 28.6782 28.8199 27.9582 29.0099C27.8382 29.0399 27.7282 29.0999 27.6282 29.1699C27.4582 29.2999 27.2782 29.4099 27.0882 29.5099C26.8982 29.6099 26.6682 29.7199 26.6882 29.7299C26.5982 29.7999 26.4882 29.8299 26.4382 29.8399C26.4382 29.7999 26.4282 29.7699 26.4282 29.7699C26.4282 29.7699 25.9582 28.3199 25.7582 27.7099C25.5582 27.0999 25.4582 26.8099 25.3982 26.6299C25.2082 26.0899 24.9882 25.6999 24.6982 25.3499Z" fill="#101214"/>
<path d="M11.3291 12.3298H7.28906V36.3098H11.3291V12.3298Z" fill="#FCA700"/>
</g>
</g>
<defs>
<clipPath id="clip0_226_8874">
<rect width="40" height="40" fill="white"/>
</clipPath>
<clipPath id="clip1_226_8874">
<rect width="40" height="40" fill="white"/>
</clipPath>
</defs>
</svg>
