<svg width="40" height="40" viewBox="0 0 40 40" fill="none" xmlns="http://www.w3.org/2000/svg">
<g clip-path="url(#clip0_226_8768)">
<g clip-path="url(#clip1_226_8768)">
<path d="M40 0H0V40H40V0Z" fill="#164B35"/>
<mask id="mask0_226_8768" style="mask-type:luminance" maskUnits="userSpaceOnUse" x="4" y="10" width="34" height="24">
<path d="M37.0112 10.8198H4.53125V33.0098H37.0112V10.8198Z" fill="white"/>
</mask>
<g mask="url(#mask0_226_8768)">
<path d="M37.0112 10.8198H4.53125V33.0098H37.0112V10.8198Z" fill="white"/>
</g>
<path d="M32.1584 21.02H22.1484V28.27H32.1584V21.02Z" fill="#FFC716"/>
<path d="M17.3889 21.0798H9.62891V33.0098H17.3889V21.0798Z" fill="#BF63F3"/>
<path d="M4.53125 17.6598C5.30125 18.0498 6.18125 18.2698 7.17125 18.2698C9.22125 18.2698 10.7812 17.4998 11.9212 15.5398C12.9612 17.3198 14.6312 18.2698 16.7512 18.2698C18.8712 18.2698 20.3712 17.4998 21.5112 15.5298C22.5512 17.3198 24.2212 18.2698 26.3512 18.2698C28.4812 18.2698 29.9712 17.4998 31.1112 15.5298C32.1512 17.3198 33.8212 18.2698 35.9513 18.2698C36.3313 18.2698 36.6813 18.2398 37.0312 18.1798V10.8098H4.53125V17.6598Z" fill="#BF63F3"/>
<path d="M5.14984 10.2299C4.31984 10.3499 4.31984 11.4599 5.14984 11.5799C6.31984 11.7499 7.54984 11.8299 9.12984 11.8399C10.9198 11.7899 11.3698 11.5599 12.5798 11.5799C14.6298 11.5799 18.0998 11.8899 18.9298 11.9699C19.0498 11.9799 19.1798 11.9799 19.2998 11.9699C20.1798 11.9299 24.0598 11.7599 27.3998 11.8399C29.7598 11.8399 31.2198 11.8399 31.9798 11.8399C33.7798 11.8399 35.1298 11.7199 36.4498 11.5099C37.1798 11.3899 37.1798 10.4199 36.4498 10.3099C35.1298 10.0999 33.7798 9.97992 31.9798 9.97992C31.2798 9.97992 29.8198 9.70992 27.7698 9.66992C27.4298 9.66992 27.0998 9.67992 26.7698 9.71992C23.8998 10.0799 20.1798 9.97992 20.1798 9.97992C20.1798 9.97992 14.6198 9.97992 12.2798 9.97992C10.5098 9.97992 9.65984 9.97992 9.13984 9.97992C7.55984 9.97992 6.32984 10.0799 5.15984 10.2399L5.14984 10.2299Z" fill="#101214"/>
<path d="M17.0084 21.6698C17.5084 21.5498 17.5084 20.4398 17.0084 20.3198C16.2984 20.1498 15.5484 20.0698 14.5884 20.0598C13.4984 20.1098 13.2284 20.3398 12.4984 20.3198C12.0584 20.3198 11.5184 20.2798 10.9984 20.2298C10.0884 20.1598 9.20844 20.0998 8.58844 20.0498C8.52844 21.0498 8.48844 21.5998 8.46844 21.8798C8.45844 22.0098 8.45844 22.2098 8.46844 22.2898C8.50844 22.8298 8.67844 25.1798 8.59844 27.1998C8.59844 28.6298 8.59844 29.5098 8.59844 29.9798C8.59844 31.0698 8.71844 31.8898 8.92844 32.6898C9.04844 33.1298 10.0184 33.1298 10.1284 32.6898C10.3384 31.8898 10.4584 31.0698 10.4584 29.9798C10.4584 29.5598 10.7284 28.6698 10.7684 27.4198C10.7684 27.2198 10.7584 27.0098 10.7184 26.8098C10.3584 25.0698 10.4584 22.8098 10.4584 22.8098V21.9298H12.6684C13.7384 21.9298 14.2584 21.9298 14.5684 21.9298C15.5284 21.9298 16.2784 21.8298 16.9884 21.6698H17.0084Z" fill="#101214"/>
<path d="M31.5014 21.6C32.3814 21.48 32.3814 20.37 31.5014 20.25C30.2514 20.08 28.9514 20 27.2714 19.99C25.3614 20.04 24.8914 20.27 23.6014 20.25C22.9714 20.25 22.2514 20.23 21.3614 20.22C21.3514 20.64 21.3414 21.07 21.3214 21.52L21.3014 22.2L21.2814 22.6C21.2414 23.14 21.2114 23.67 21.1814 24.16C21.1014 25.14 21.0314 25.97 21.0114 26.33C21.0014 26.46 21.0014 26.59 21.0114 26.72C21.0114 26.81 21.0114 26.93 21.0214 27.18C21.0214 27.63 21.0214 28.31 21.0414 29.4C21.6414 29.38 23.1114 29.35 24.9314 29.3C26.2214 29.27 27.7814 29.27 29.2314 29.3H33.2014V26.35C33.2014 24.44 33.0814 23.01 32.8714 21.6C32.7514 20.83 31.7814 20.83 31.6714 21.6C31.4614 23 31.3414 24.43 31.3414 26.35C31.3414 26.54 31.3214 26.83 31.2914 27.11C31.2614 27.18 31.2214 27.24 31.1814 27.26C31.1014 27.23 31.0414 27.19 31.0214 27.16C30.6014 27.13 30.1214 27.11 29.6214 27.1C29.2614 27.1 28.9114 27.11 28.5514 27.15C27.3814 27.29 26.0814 27.36 24.9214 27.39C24.3414 27.4 23.8014 27.41 23.3314 27.42C23.2014 27.42 23.0814 27.42 23.0014 27.42C23.0014 27.3 23.0014 27.24 23.0014 27.24V21.86H23.9314C25.8114 21.86 26.7114 21.86 27.2714 21.86C28.9514 21.86 30.2614 21.76 31.5014 21.6Z" fill="#101214"/>
</g>
</g>
<defs>
<clipPath id="clip0_226_8768">
<rect width="40" height="40" fill="white"/>
</clipPath>
<clipPath id="clip1_226_8768">
<rect width="40" height="40" fill="white"/>
</clipPath>
</defs>
</svg>
