<svg width="40" height="40" viewBox="0 0 40 40" fill="none" xmlns="http://www.w3.org/2000/svg">
<g clip-path="url(#clip0_226_8393)">
<g clip-path="url(#clip1_226_8393)">
<path d="M40 0H0V40H40V0Z" fill="#1868DB"/>
<path d="M39.9469 7.56006L21.5469 19.9301L39.9469 30.9101V7.56006Z" fill="#8FB8F6"/>
<path d="M19.2589 22.5901L8.87891 40.0001H30.9689L19.2589 22.5901Z" fill="#8FB8F6"/>
<path d="M8.28906 -0.0400391L20.6591 18.36L31.6391 -0.0400391H8.28906Z" fill="#8FB8F6"/>
<path d="M-0.0898438 30.9101L18.3102 18.5301L-0.0898438 7.56006V30.9101Z" fill="#8FB8F6"/>
<path d="M37.0192 23.5402C37.2292 22.3802 37.3292 21.1502 37.3292 19.8502C37.3292 18.5502 37.2192 17.2802 37.0092 16.1102C35.7592 9.13018 30.9092 4.83018 24.0992 3.72018C22.9392 3.53018 21.7192 3.43018 20.4592 3.43018C19.1992 3.43018 17.8692 3.53018 16.6692 3.74018C9.85922 4.88018 5.01922 9.17018 3.76922 16.1102C3.55922 17.2802 3.44922 18.5302 3.44922 19.8502C3.44922 21.1702 3.55922 22.3802 3.76922 23.5402C5.01922 30.4702 9.85922 34.7702 16.6792 35.9102C17.8892 36.1102 19.1492 36.2202 20.4692 36.2202C21.7892 36.2202 22.9492 36.1202 24.1092 35.9302C30.9192 34.8202 35.7792 30.5102 37.0192 23.5402Z" fill="white"/>
<path d="M34.8684 23.06C35.0484 22.05 35.1384 20.98 35.1384 19.84C35.1384 18.7 35.0384 17.6 34.8584 16.58C33.7684 10.5 29.5484 6.76004 23.6284 5.79004C22.6184 5.63004 21.5584 5.54004 20.4584 5.54004C19.3584 5.54004 18.2084 5.63004 17.1584 5.81004C11.2384 6.80004 7.01844 10.54 5.92844 16.58C5.74844 17.6 5.64844 18.69 5.64844 19.84C5.64844 20.99 5.73844 22.05 5.92844 23.06C7.01844 29.1 11.2284 32.84 17.1684 33.83C18.2184 34.01 19.3184 34.1 20.4684 34.1C21.6184 34.1 22.6284 34.02 23.6384 33.85C29.5684 32.89 33.7984 29.13 34.8784 23.06H34.8684Z" fill="#FCA700"/>
<path d="M15.5493 23.6002C15.3293 23.3602 14.2393 23.6302 14.2993 24.1202C14.3993 24.7802 14.7393 25.5002 15.4393 26.0802C16.2893 26.6702 16.6193 26.5302 17.1893 26.8202C18.1593 27.2602 19.8593 27.7902 20.2893 27.8702C20.3493 27.8902 20.4093 27.8902 20.4793 27.8902C20.9393 27.8602 22.8393 27.7902 24.5793 27.3402C25.7893 26.9502 26.4693 26.4302 26.7993 26.1702C27.5693 25.5202 27.9193 24.8102 28.0693 24.1302C28.1593 23.7402 27.2793 23.3302 27.0293 23.5302C26.5993 23.9002 26.1793 24.2502 25.6193 24.7202C25.3993 24.8902 24.8193 25.0102 24.0693 25.2102C23.9493 25.2502 23.8293 25.3002 23.7093 25.3702C23.2093 25.7002 22.4993 25.8502 21.9393 25.8902C21.3793 25.9402 20.9693 25.8902 20.9693 25.8902C20.9693 25.8902 20.3593 25.8902 19.6393 25.7902C18.9193 25.7002 18.1293 25.4602 17.6993 25.2702C17.0493 24.9802 16.8093 24.7702 16.6593 24.6502C16.1993 24.2802 15.8993 23.9602 15.5593 23.6002H15.5493Z" fill="#101214"/>
<path d="M14.3274 19.3202C14.4374 19.3902 15.5374 19.6302 15.6674 19.4702C15.8574 19.2802 15.9474 18.9602 15.8674 18.5902C15.6874 18.1802 15.4274 18.2202 15.3174 18.0002C15.1974 17.8202 15.0274 17.5702 14.8274 17.3602C14.6274 17.1502 14.3874 16.9902 14.2874 16.9402C14.2574 16.9302 14.2274 16.9202 14.1974 16.9202C13.9374 16.9202 13.0374 16.9702 12.2974 17.5702C11.8374 18.0302 11.7674 18.4002 11.7174 18.5602C11.6274 18.9602 11.7474 19.2502 11.9874 19.4802C12.1174 19.6102 13.0674 19.4102 13.1874 19.3402C13.3874 19.2102 13.5074 19.1302 13.5274 19.0502C13.5274 19.0302 13.6074 19.0302 13.6774 19.0502C13.8074 19.1102 13.6374 19.0202 13.6574 19.0202L13.6774 19.0502C13.6774 19.0502 13.6574 19.0002 13.6574 18.9802C13.6574 18.9402 13.6774 18.9002 13.7074 18.9002C13.7674 18.8802 13.7974 18.9002 13.7974 18.9002C13.7974 18.8902 13.9974 18.9402 14.0274 19.0302C14.0674 19.0802 14.0674 19.1102 14.0774 19.1302C14.0974 19.1802 14.1874 19.2202 14.3374 19.3402L14.3274 19.3202Z" fill="#101214"/>
<path d="M28.468 19.3202C28.578 19.3902 29.678 19.6302 29.808 19.4702C29.998 19.2802 30.088 18.9602 30.008 18.5902C29.828 18.1802 29.568 18.2202 29.458 18.0002C29.338 17.8202 29.168 17.5702 28.968 17.3602C28.768 17.1502 28.528 16.9902 28.428 16.9402C28.398 16.9302 28.368 16.9202 28.338 16.9202C28.078 16.9202 27.178 16.9702 26.438 17.5702C25.978 18.0302 25.908 18.4002 25.858 18.5602C25.768 18.9602 25.888 19.2502 26.128 19.4802C26.258 19.6102 27.208 19.4102 27.328 19.3402C27.528 19.2102 27.648 19.1302 27.668 19.0502C27.668 19.0302 27.748 19.0302 27.818 19.0502C27.948 19.1102 27.778 19.0202 27.798 19.0202L27.818 19.0502C27.818 19.0502 27.798 19.0002 27.798 18.9802C27.798 18.9402 27.818 18.9002 27.848 18.9002C27.908 18.8802 27.938 18.9002 27.938 18.9002C27.938 18.8902 28.138 18.9402 28.168 19.0302C28.208 19.0802 28.208 19.1102 28.218 19.1302C28.238 19.1802 28.328 19.2202 28.478 19.3402L28.468 19.3202Z" fill="#101214"/>
<path d="M19.4495 5.8002C19.5695 5.9502 20.6895 5.9302 20.7995 5.7702C20.9595 5.5402 21.0395 5.3102 21.0395 5.0102C20.9795 4.6702 20.7495 4.5902 20.7695 4.3602C20.7595 3.9702 21.0495 3.3102 21.1295 3.1402C21.1395 3.1202 21.1395 3.0902 21.1295 3.0702C21.0795 2.9002 20.8995 2.1702 20.9595 1.5302C20.9495 1.0802 20.9395 0.8102 20.9295 0.6602C20.9095 0.3202 20.7895 0.0702002 20.5795 -0.1798C20.4595 -0.3198 19.4895 -0.2898 19.3795 -0.1498C19.1695 0.1102 19.0695 0.3602 19.0695 0.7102C19.0695 0.8402 18.8095 1.1302 18.7695 1.5202C18.7695 1.5802 18.7795 1.6502 18.8295 1.7102C19.2095 2.2502 19.1195 2.9602 19.1195 2.9602C19.1195 2.9602 19.1395 4.0202 19.1495 4.4602C19.1595 4.8002 19.1695 4.9602 19.1695 5.0602C19.1795 5.3602 19.2795 5.5902 19.4495 5.8102V5.8002Z" fill="#101214"/>
<path d="M12.2267 7.66008C12.4467 7.80008 13.4067 7.23008 13.3867 6.97008C13.3667 6.61008 13.2667 6.27008 13.0567 5.89008C12.7567 5.49008 12.4967 5.50008 12.3467 5.20008C12.0567 4.71008 11.8367 3.73008 11.7867 3.50008C11.7867 3.46008 11.7667 3.43008 11.7467 3.41008C11.5867 3.22008 10.8967 2.39008 10.4967 1.56008C10.1667 1.00008 9.95672 0.660082 9.84672 0.480082C9.58672 0.0600816 9.29672 -0.199918 8.92672 -0.409918C8.72672 -0.519918 7.88672 -0.0299184 7.88672 0.200082C7.88672 0.620082 7.97672 1.00008 8.22672 1.43008C8.32672 1.60008 8.29672 2.08008 8.54672 2.59008C8.58672 2.67008 8.64672 2.74008 8.73672 2.80008C9.45672 3.30008 9.88672 4.23008 9.88672 4.23008C9.88672 4.23008 10.6667 5.55008 10.9967 6.11008C11.2467 6.53008 11.3667 6.73008 11.4467 6.85008C11.6767 7.22008 11.9267 7.47008 12.2267 7.66008Z" fill="#101214"/>
<path d="M6.82859 13.7501C7.07859 13.7801 7.68859 12.8401 7.55859 12.6201C7.37859 12.3101 7.13859 12.0501 6.77859 11.8001C6.33859 11.5701 6.10859 11.7001 5.83859 11.5001C5.35859 11.1901 4.72859 10.4101 4.57859 10.2201C4.55859 10.1901 4.52859 10.1701 4.49859 10.1601C4.26859 10.0601 3.27859 9.62008 2.54859 9.06008C1.99859 8.71008 1.65859 8.49008 1.47859 8.38008C1.05859 8.12008 0.678591 8.01008 0.258591 7.99008C0.0285911 7.98008 -0.501409 8.79008 -0.391409 9.00008C-0.201409 9.38008 0.0485912 9.67008 0.468591 9.95008C0.628591 10.0601 0.828591 10.5001 1.27859 10.8501C1.34859 10.9101 1.43859 10.9401 1.53859 10.9601C2.39859 11.0801 3.20859 11.7301 3.20859 11.7301C3.20859 11.7301 4.49859 12.5701 5.03859 12.9201C5.44859 13.1801 5.64859 13.3101 5.76859 13.3901C6.13859 13.6201 6.47859 13.7301 6.83859 13.7701L6.82859 13.7501Z" fill="#101214"/>
<path d="M5.78932 20.9901C5.93932 20.8801 5.95932 19.7601 5.80932 19.6401C5.59932 19.4701 5.37932 19.3801 5.08932 19.3701C4.76932 19.4201 4.67932 19.6501 4.45932 19.6201C4.08932 19.6201 3.46932 19.3001 3.31932 19.2101C3.29932 19.2001 3.27932 19.2001 3.24932 19.2101C3.08932 19.2501 2.38932 19.4101 1.77932 19.3201C1.34932 19.3201 1.08932 19.3201 0.949325 19.3201C0.619325 19.3201 0.379325 19.4301 0.139325 19.6401C0.00932467 19.7501 -0.0106753 20.7201 0.119325 20.8401C0.359325 21.0601 0.599325 21.1701 0.919325 21.1901C1.04932 21.1901 1.30932 21.4601 1.67932 21.5201C1.73932 21.5201 1.79932 21.5201 1.85932 21.4701C2.37932 21.1201 3.05932 21.2301 3.05932 21.2301C3.05932 21.2301 4.05932 21.2501 4.48932 21.2601C4.80932 21.2601 4.95932 21.2601 5.05932 21.2601C5.34932 21.2601 5.56933 21.1701 5.77933 21.0101L5.78932 20.9901Z" fill="#101214"/>
<path d="M8.1896 28.2201C8.3396 28.0001 7.7896 27.0301 7.5296 27.0401C7.1496 27.0601 6.7996 27.1601 6.3896 27.3801C5.9596 27.6801 5.9596 27.9501 5.6396 28.1001C5.1196 28.3901 4.0896 28.6201 3.8396 28.6701C3.7996 28.6701 3.7696 28.6901 3.7396 28.7201C3.5396 28.8801 2.6396 29.5801 1.7496 29.9901C1.1496 30.3301 0.779599 30.5401 0.589599 30.6501C0.139599 30.9101 -0.150401 31.2101 -0.380401 31.5801C-0.510401 31.7901 -0.0304015 32.6301 0.209599 32.6301C0.649599 32.6301 1.0496 32.5301 1.5096 32.2801C1.6896 32.1801 2.1896 32.2101 2.7296 31.9501C2.8196 31.9101 2.8996 31.8401 2.9596 31.7601C3.5096 31.0301 4.5096 30.5901 4.5096 30.5901C4.5096 30.5901 5.9196 29.8001 6.5196 29.4601C6.9696 29.2001 7.1796 29.0801 7.3096 29.0101C7.7096 28.7801 7.9796 28.5201 8.1896 28.2101V28.2201Z" fill="#101214"/>
<path d="M12.72 32.8101C12.72 32.5501 11.75 32.0201 11.53 32.1701C11.23 32.3801 10.99 32.6301 10.77 33.0101C10.58 33.4701 10.72 33.6901 10.54 33.9701C10.27 34.4701 9.54004 35.1601 9.36004 35.3301C9.33004 35.3501 9.31004 35.3801 9.30004 35.4201C9.22004 35.6501 8.86004 36.6801 8.35004 37.4501C8.04004 38.0201 7.85004 38.3801 7.75004 38.5701C7.52004 39.0101 7.44004 39.3901 7.45004 39.8101C7.45004 40.0401 8.31004 40.5001 8.51004 40.3801C8.87004 40.1601 9.15004 39.8901 9.39004 39.4501C9.48004 39.2801 9.91004 39.0501 10.22 38.5801C10.27 38.5001 10.3 38.4101 10.31 38.3101C10.37 37.4401 10.95 36.5801 10.95 36.5801C10.95 36.5801 11.69 35.2301 12 34.6601C12.23 34.2301 12.34 34.0201 12.41 33.8901C12.61 33.5001 12.7 33.1601 12.71 32.8001L12.72 32.8101Z" fill="#101214"/>
<path d="M20.47 33.82C20.36 33.67 19.24 33.64 19.12 33.79C18.95 34 18.85 34.22 18.84 34.5C18.88 34.82 19.11 34.91 19.08 35.13C19.08 35.5 18.75 36.12 18.66 36.26C18.65 36.28 18.64 36.3 18.66 36.33C18.7 36.49 18.85 37.19 18.75 37.79C18.75 38.22 18.74 38.48 18.74 38.62C18.74 38.94 18.85 39.19 19.05 39.43C19.16 39.56 20.13 39.59 20.25 39.46C20.47 39.23 20.59 38.99 20.6 38.66C20.6 38.53 20.88 38.28 20.93 37.91C20.93 37.85 20.93 37.79 20.88 37.73C20.53 37.2 20.65 36.54 20.65 36.54C20.65 36.54 20.68 35.54 20.69 35.12C20.69 34.8 20.69 34.65 20.69 34.55C20.69 34.26 20.61 34.04 20.45 33.83L20.47 33.82Z" fill="#101214"/>
<path d="M27.6996 31.94C27.4896 31.8 26.5096 32.34 26.5196 32.59C26.5196 32.95 26.6096 33.29 26.8096 33.67C27.0896 34.07 27.3496 34.07 27.4896 34.37C27.7596 34.86 27.9396 35.83 27.9796 36.07C27.9796 36.1 27.9996 36.14 28.0196 36.16C28.1696 36.35 28.8296 37.19 29.1996 38.03C29.5096 38.59 29.7096 38.94 29.8096 39.12C30.0496 39.55 30.3296 39.81 30.6896 40.02C30.8896 40.14 31.7396 39.67 31.7396 39.44C31.7496 39.02 31.6796 38.65 31.4496 38.21C31.3596 38.04 31.3996 37.57 31.1696 37.05C31.1296 36.97 31.0696 36.9 30.9896 36.84C30.2996 36.33 29.8996 35.39 29.8996 35.39C29.8996 35.39 29.1696 34.06 28.8696 33.5C28.6396 33.08 28.5196 32.88 28.4496 32.75C28.2396 32.38 27.9996 32.13 27.6996 31.93V31.94Z" fill="#101214"/>
<path d="M33.9693 26.2002C33.7493 26.2002 33.1693 27.1502 33.2693 27.3502C33.4093 27.6302 33.5993 27.8502 33.9093 28.0502C34.2893 28.2202 34.4893 28.0702 34.7193 28.2402C35.1193 28.4802 35.6293 29.1602 35.7493 29.3202C35.7693 29.3402 35.7893 29.3602 35.8193 29.3702C36.0093 29.4402 36.8593 29.7602 37.4593 30.2202C37.9193 30.5002 38.1993 30.6702 38.3493 30.7602C38.6993 30.9702 39.0193 31.0302 39.3893 31.0102C39.5893 31.0002 40.0993 30.1702 40.0193 29.9802C39.8693 29.6402 39.6693 29.3902 39.3293 29.1602C39.1893 29.0802 39.0493 28.6802 38.6793 28.3902C38.6193 28.3402 38.5393 28.3202 38.4593 28.3202C37.7093 28.2902 37.0393 27.7602 37.0393 27.7602C37.0393 27.7602 35.9593 27.1002 35.5093 26.8202C35.1693 26.6102 34.9993 26.5102 34.8993 26.4502C34.5893 26.2702 34.2993 26.2002 33.9893 26.2002H33.9693Z" fill="#101214"/>
<path d="M34.9491 18.7502C34.8191 18.8702 34.8191 19.9802 34.9491 20.1002C35.1391 20.2702 35.3391 20.3502 35.5991 20.3602C35.8891 20.3102 35.9591 20.0802 36.1591 20.1002C36.4891 20.1002 37.0491 20.4102 37.1891 20.4802C37.2091 20.4902 37.2291 20.4902 37.2491 20.4802C37.3891 20.4402 38.0191 20.2702 38.5591 20.3502C38.9391 20.3502 39.1791 20.3502 39.2991 20.3502C39.5891 20.3502 39.8091 20.2302 40.0191 20.0102C40.1391 19.8902 40.1391 18.9202 40.0191 18.8102C39.8091 18.6002 39.5891 18.4802 39.2991 18.4802C39.1891 18.4802 38.9491 18.2102 38.6191 18.1702C38.5691 18.1702 38.5091 18.1802 38.4591 18.2202C37.9991 18.5802 37.3891 18.4802 37.3891 18.4802C37.3891 18.4802 36.4891 18.4802 36.1091 18.4802C35.8191 18.4802 35.6891 18.4802 35.5991 18.4802C35.3391 18.4802 35.1391 18.5802 34.9491 18.7402V18.7502Z" fill="#101214"/>
<path d="M32.8567 11.3001C32.7367 11.5001 33.2867 12.4701 33.5267 12.4701C33.8667 12.4701 34.1767 12.3901 34.5267 12.2001C34.8967 11.9301 34.8767 11.6701 35.1567 11.5501C35.6067 11.2901 36.5167 11.1301 36.7367 11.1001C36.7667 11.1001 36.7967 11.0801 36.8267 11.0601C36.9967 10.9101 37.7667 10.2801 38.5367 9.94006C39.0467 9.64006 39.3667 9.46006 39.5367 9.37006C39.9267 9.14006 40.1667 8.87007 40.3467 8.52007C40.4467 8.33007 39.9667 7.48006 39.7567 7.47006C39.3667 7.45006 39.0067 7.52006 38.6167 7.73006C38.4667 7.82006 38.0167 7.76006 37.5367 7.98006C37.4567 8.01006 37.3967 8.07006 37.3467 8.15006C36.8967 8.82006 36.0267 9.20006 36.0267 9.20006C36.0267 9.20006 34.8067 9.89007 34.2967 10.1801C33.9067 10.4001 33.7267 10.5101 33.6067 10.5701C33.2667 10.7701 33.0367 11.0001 32.8667 11.2901L32.8567 11.3001Z" fill="#101214"/>
<path d="M27.1094 6.64013C27.1094 6.88013 28.0994 7.40013 28.2994 7.27013C28.5794 7.09013 28.8094 6.85013 28.9994 6.50013C29.1594 6.08013 29.0094 5.87013 29.1794 5.61013C29.4194 5.15013 30.0994 4.52013 30.2694 4.37013C30.2894 4.35013 30.3094 4.32013 30.3194 4.29013C30.3894 4.07013 30.6894 3.13013 31.1594 2.42013C31.4294 1.89013 31.5994 1.56013 31.6894 1.39013C31.8894 0.98013 31.9494 0.63013 31.9194 0.24013C31.8994 0.0201304 31.0394 -0.42987 30.8494 -0.31987C30.5094 -0.11987 30.2494 0.12013 30.0294 0.52013C29.9494 0.68013 29.5394 0.88013 29.2594 1.32013C29.2094 1.39013 29.1894 1.47013 29.1894 1.57013C29.1694 2.38013 28.6494 3.16013 28.6494 3.16013C28.6494 3.16013 27.9894 4.40013 27.7194 4.92013C27.5094 5.32013 27.4194 5.51013 27.3594 5.62013C27.1794 5.98013 27.1094 6.29013 27.1194 6.63013L27.1094 6.64013Z" fill="#101214"/>
</g>
</g>
<defs>
<clipPath id="clip0_226_8393">
<rect width="40" height="40" fill="white"/>
</clipPath>
<clipPath id="clip1_226_8393">
<rect width="40" height="40" fill="white"/>
</clipPath>
</defs>
</svg>
