<svg width="40" height="40" viewBox="0 0 40 40" fill="none" xmlns="http://www.w3.org/2000/svg">
<g clip-path="url(#clip0_226_8921)">
<g clip-path="url(#clip1_226_8921)">
<path d="M40 0H0V40H40V0Z" fill="#FFC716"/>
<path d="M15 0.89C15 12.65 24.53 22.18 36.29 22.18C37.77 22.18 39.22 22.03 40.61 21.74V0H15.04C15.03 0.3 15 0.59 15 0.89Z" fill="white"/>
<path d="M22.3 1.88L23.86 2.15C23.89 2.81 23.95 3.45 24.06 4.06C24.16 4.62 24.3 5.16 24.47 5.67L23.14 6.44C21.4 7.37 21.24 8.6 22 9.92C22.72 11.16 23.85 11.62 25.56 10.63L26.97 9.81C27.77 10.61 28.71 11.27 29.76 11.79L29.11 13.58H29.12C28.38 15.41 29.05 16.45 30.48 16.97C31.83 17.46 32.99 17.08 33.66 15.23L34.43 13.11C34.43 13.11 35.36 13.12 35.99 13.12C36.55 13.12 37.53 13.07 37.53 13.07L38.3 15.19C38.82 16.79 39.74 17.29 40.88 17.09V0H20C20.13 0.93 20.81 1.62 22.3 1.88Z" fill="#BF63F3"/>
<path d="M40.72 4.56V0H31.1C31.1 0 31.1 0.01 31.1 0.02C31.03 0.39 31 0.79 31 1.21C31 1.63 31.03 2.01 31.1 2.38C31.5 4.58 33.03 5.95 35.2 6.31C35.58 6.38 35.98 6.41 36.41 6.41C36.82 6.41 37.2 6.38 37.56 6.32C38.89 6.1 39.98 5.5 40.72 4.56Z" fill="#1868DB"/>
<path d="M15.67 30.45C18.36 31.49 21.19 31.17 23.69 29.24C24.21 28.84 24.72 28.37 25.21 27.83C25.69 27.3 26.1 26.75 26.45 26.2C28.09 23.57 28.17 20.78 26.94 18.24L22.47 23.14C20.16 25.66 18.05 25.5 16.21 23.82C14.26 22.03 13.87 19.92 16.27 17.47L20.72 12.59C18.06 11.6 15.28 11.96 12.8 13.88C12.29 14.28 11.79 14.74 11.3 15.28C10.81 15.82 10.39 16.37 10.04 16.93H10.06C8.38 19.63 8.32 22.48 9.63 25.05L9.41 25.3L1.7 33.84L0 35.73V40H7.05L15.67 30.45Z" fill="#1868DB"/>
<path d="M27.018 19.02C27.408 18.42 26.588 17.67 26.018 18.11C25.218 18.74 24.448 19.46 23.528 20.45C22.538 21.61 22.438 22.08 21.738 22.79C21.188 23.38 20.268 24 19.498 24.06C18.728 24.15 18.178 23.79 17.958 23.64C17.898 23.6 17.828 23.56 17.758 23.52C17.628 23.46 17.388 23.33 17.088 23.09C16.788 22.85 16.408 22.51 16.118 22.11C15.498 21.3 15.428 20.24 16.148 19.25C16.588 18.56 17.178 18.02 17.608 17.52C18.048 17.04 18.368 16.69 18.588 16.45C19.618 15.3 20.318 14.37 20.918 13.39C21.248 12.85 20.538 12.2 20.028 12.58C19.108 13.27 18.258 14.04 17.208 15.17C17.008 15.39 16.648 15.68 16.188 16.08C15.958 16.28 15.708 16.51 15.428 16.76C15.128 17.03 14.808 17.35 14.498 17.78C14.298 18.05 14.128 18.36 14.008 18.7C13.748 19.41 13.588 20.29 13.718 21.12C13.828 21.95 14.188 22.67 14.568 23.2C14.948 23.73 15.318 24.11 15.588 24.37C15.868 24.62 16.038 24.77 16.038 24.77C16.038 24.77 16.108 24.82 16.228 24.91C16.348 25 16.538 25.13 16.778 25.27C17.258 25.55 18.028 25.9 18.958 25.89C19.888 25.91 20.818 25.54 21.518 25.08C22.228 24.62 22.738 24.09 23.118 23.7C24.138 22.58 24.628 22.04 24.928 21.71C25.838 20.7 26.478 19.87 27.028 19.02H27.018Z" fill="#101214"/>
<path d="M-0.120369 35.9499C-0.280369 36.3099 0.549631 37.0499 0.889631 36.8499C1.36963 36.5599 1.79963 36.2099 2.28963 35.6699C2.78963 35.0299 2.74963 34.7199 3.13963 34.3299C3.75963 33.6299 5.02963 32.6699 5.33963 32.4399C5.38963 32.4099 5.42963 32.3699 5.45963 32.3199C5.69963 31.9899 6.73963 30.5699 7.79963 29.4899C8.50963 28.6899 8.94963 28.1899 9.17963 27.9299C9.71963 27.3099 10.0396 26.7799 10.2796 26.1899C10.4096 25.8699 9.68963 25.2199 9.37963 25.3899C8.81963 25.6999 8.32963 26.0799 7.77963 26.6799C7.56963 26.9199 6.92963 27.2299 6.26963 27.8999C6.15963 28.0099 6.07963 28.1299 6.00963 28.2799C5.41963 29.4899 4.21963 30.6899 4.21963 30.6899C4.21963 30.6899 2.53963 32.5699 1.82963 33.3599C1.29963 33.9599 1.03963 34.2499 0.889631 34.4299C0.419631 34.9699 0.109631 35.4499 -0.120369 35.9499Z" fill="#101214"/>
</g>
</g>
<defs>
<clipPath id="clip0_226_8921">
<rect width="40" height="40" fill="white"/>
</clipPath>
<clipPath id="clip1_226_8921">
<rect width="40" height="40" fill="white"/>
</clipPath>
</defs>
</svg>
