<svg width="40" height="40" viewBox="0 0 40 40" fill="none" xmlns="http://www.w3.org/2000/svg">
<g clip-path="url(#clip0_226_8856)">
<g clip-path="url(#clip1_226_8856)">
<path d="M40 0H0V40H40V0Z" fill="#09326C"/>
<path d="M20.3477 19.9299L39.9977 11.0099V-0.0700684H31.5177L20.3477 19.9299Z" fill="#BF63F3"/>
<path d="M36.2884 23.5699C36.4884 22.4299 36.5984 21.2299 36.5984 19.9499C36.5984 18.6699 36.4884 17.4299 36.2884 16.2799C35.0584 9.43986 30.3084 5.21986 23.6484 4.13986C22.5084 3.95986 21.3184 3.85986 20.0784 3.85986C18.8384 3.85986 17.5484 3.95986 16.3584 4.15986C9.68844 5.26986 4.94844 9.47986 3.71844 16.2799C3.50844 17.4299 3.39844 18.6499 3.39844 19.9499C3.39844 21.2499 3.50844 22.4299 3.70844 23.5699C4.92844 30.3599 9.67844 34.5799 16.3584 35.6899C17.5384 35.8899 18.7784 35.9899 20.0784 35.9899C21.3784 35.9899 22.5084 35.8999 23.6484 35.7099C30.3184 34.6199 35.0784 30.3999 36.2984 23.5699H36.2884Z" fill="#D8A0F7"/>
<path d="M28.3577 5.58984L20.3477 19.9298L35.3877 13.0998C34.0277 9.65984 31.5877 7.11984 28.3577 5.58984Z" fill="white"/>
<path d="M30.0099 20.99C30.0099 21.83 30.2099 22.3 30.5199 22.36C30.8199 22.42 31.2299 22.02 31.3599 21.09C31.5299 19.78 31.5599 18.41 31.2799 16.93C31.0199 15.46 30.4299 13.85 29.2599 12.36C28.5899 11.53 27.9099 10.97 27.2999 10.57C26.6899 10.15 26.1299 9.89001 25.6199 9.66001C24.5699 9.23001 23.6499 8.98001 22.3099 8.72001C20.0399 8.31001 16.8799 8.32001 14.1999 9.36001C12.8699 9.86001 11.6999 10.6 10.8599 11.37C10.0099 12.12 9.48991 12.87 9.19991 13.27C9.03991 13.52 8.87991 13.77 8.75991 14.04C8.52991 14.52 8.13991 15.42 7.86991 16.66C7.58991 17.9 7.45991 19.45 7.60991 21.16C7.75991 22.87 8.24991 24.79 9.31991 26.5C10.3799 28.22 12.0199 29.6 13.7999 30.43C16.3499 31.55 18.5799 31.66 20.2799 31.61C21.9999 31.55 23.2599 31.23 24.1099 30.97C26.1099 30.35 27.6999 29.22 28.8099 27.92C29.9099 26.6 30.5499 25.13 30.8599 23.66C31.1399 22.01 30.1499 21.94 29.6999 23.33C28.7799 25.83 26.9599 28.09 23.5399 29.18C22.8799 29.38 21.8099 29.59 20.3899 29.58C18.9799 29.57 17.1899 29.4 15.3499 28.69C14.7599 28.44 14.1699 28.21 13.6199 27.89C12.4199 27.25 11.3399 26.19 10.6299 24.92C9.92991 23.64 9.56991 22.2 9.47991 20.91C9.37991 19.62 9.47991 18.49 9.61991 17.72C9.76991 16.95 9.91991 16.52 9.91991 16.52C9.91991 16.52 10.0799 15.84 10.5699 14.88C11.0599 13.92 11.9799 12.7 13.3499 11.8C14.7099 10.88 16.4899 10.35 18.1899 10.18C19.8999 10.01 21.5099 10.16 22.6399 10.43C24.3599 10.83 25.4899 11.47 26.2599 12.05C27.0299 12.63 27.4799 13.13 27.7899 13.53C28.7399 14.73 29.2799 16.03 29.5899 17.29C29.9099 18.55 30.0099 19.79 30.0199 20.99H30.0099Z" fill="#101214"/>
<path d="M20.6577 4.47999C20.5377 3.65999 19.4277 3.65999 19.3077 4.47999C19.1377 5.63999 19.0577 6.85999 19.0477 8.41999C19.0977 10.19 19.3277 10.64 19.3077 11.84C19.3077 13.87 18.9977 17.3 18.9177 18.12C18.9077 18.24 18.9077 18.36 18.9177 18.49C18.9577 19.36 19.1277 23.2 19.0477 26.51C19.0477 28.84 19.0477 30.29 19.0477 31.04C19.0477 32.82 19.1677 34.15 19.3777 35.46C19.4977 36.18 20.4677 36.18 20.5777 35.46C20.7877 34.15 20.9077 32.82 20.9077 31.04C20.9077 30.35 21.1777 28.91 21.2177 26.87C21.2177 26.54 21.2077 26.21 21.1677 25.88C20.8077 23.04 20.9077 19.36 20.9077 19.36C20.9077 19.36 20.9077 13.86 20.9077 11.54C20.9077 9.78999 20.9077 8.94999 20.9077 8.42999C20.9077 6.85999 20.8077 5.64999 20.6477 4.48999L20.6577 4.47999Z" fill="#101214"/>
<path d="M35.9691 20.54C36.8091 20.42 36.8091 19.31 35.9691 19.19C34.7691 19.02 33.5091 18.94 31.8991 18.93C30.0691 18.98 29.6091 19.21 28.3691 19.19C26.2691 19.19 22.7291 18.88 21.8791 18.8C21.7491 18.79 21.6291 18.79 21.4991 18.8C20.5991 18.84 16.6291 19.01 13.2191 18.93C10.8091 18.93 9.31906 18.93 8.53906 18.93C6.69906 18.93 5.31906 19.05 3.96906 19.26C3.22906 19.38 3.22906 20.35 3.96906 20.46C5.31906 20.67 6.69906 20.79 8.53906 20.79C9.25906 20.79 10.7491 21.06 12.8491 21.1C13.1891 21.1 13.5391 21.09 13.8791 21.05C16.8091 20.69 20.6191 20.79 20.6191 20.79C20.6191 20.79 26.2991 20.79 28.6991 20.79C30.5091 20.79 31.3791 20.79 31.9091 20.79C33.5291 20.79 34.7891 20.69 35.9791 20.53L35.9691 20.54Z" fill="#101214"/>
<path d="M15.6587 27.7198C16.316 27.7198 16.8488 27.1871 16.8488 26.5298C16.8488 25.8726 16.316 25.3398 15.6587 25.3398C15.0015 25.3398 14.4688 25.8726 14.4688 26.5298C14.4688 27.1871 15.0015 27.7198 15.6587 27.7198Z" fill="white"/>
<path d="M10.2173 15.14C10.8746 15.14 11.4073 14.6072 11.4073 13.95C11.4073 13.2928 10.8746 12.76 10.2173 12.76C9.56013 12.76 9.02734 13.2928 9.02734 13.95C9.02734 14.6072 9.56013 15.14 10.2173 15.14Z" fill="white"/>
<path d="M30.3775 18.2999C31.0347 18.2999 31.5675 17.7671 31.5675 17.1099C31.5675 16.4527 31.0347 15.9199 30.3775 15.9199C29.7203 15.9199 29.1875 16.4527 29.1875 17.1099C29.1875 17.7671 29.7203 18.2999 30.3775 18.2999Z" fill="white"/>
<path d="M25.1666 30.6998C25.8238 30.6998 26.3566 30.167 26.3566 29.5098C26.3566 28.8526 25.8238 28.3198 25.1666 28.3198C24.5093 28.3198 23.9766 28.8526 23.9766 29.5098C23.9766 30.167 24.5093 30.6998 25.1666 30.6998Z" fill="white"/>
</g>
</g>
<defs>
<clipPath id="clip0_226_8856">
<rect width="40" height="40" fill="white"/>
</clipPath>
<clipPath id="clip1_226_8856">
<rect width="40" height="40" fill="white"/>
</clipPath>
</defs>
</svg>
