<svg width="40" height="40" viewBox="0 0 40 40" fill="none" xmlns="http://www.w3.org/2000/svg">
<g clip-path="url(#clip0_226_8826)">
<g clip-path="url(#clip1_226_8826)">
<path d="M40 0H0V40H40V0Z" fill="#09326C"/>
<path d="M36.4442 24.7602L29.063 17.7102L29.0228 17.6702L29.9668 15.0202C28.0588 14.7102 26.211 14.6402 24.4335 14.7702L24.2527 9.91016L20.3362 15.4602C12.8546 17.5202 6.86934 23.7602 3.30429 33.7602C2.62141 35.6602 1.99878 37.8302 1.54688 40.0902H21.3605C19.7939 35.6202 20.1052 31.8402 21.9128 28.7502C22.9673 29.4102 24.3632 29.6702 25.9499 29.4402C26.4118 29.3702 26.8436 29.2602 27.2453 29.1302L31.7042 31.4002C32.5377 31.8902 33.4616 32.0502 34.3453 31.9302C35.5002 31.7702 36.5747 31.1102 37.2375 30.0702H37.2576C37.2576 30.0702 37.3078 29.9702 37.3379 29.9202C37.3681 29.8702 37.4082 29.8302 37.4384 29.7702V29.7302C38.2819 28.0802 37.9405 26.0102 36.4442 24.7602Z" fill="white"/>
<path d="M24.4325 14.7701C24.8241 14.7401 25.2258 14.7301 25.6275 14.7201L26.7322 12.0901C25.9187 11.9601 25.1254 11.8801 24.332 11.8201L24.4425 14.7701H24.4325Z" fill="#1868DB"/>
<path d="M1.55657 40.09C1.99843 37.83 2.6311 35.67 3.31399 33.76C6.87903 23.76 12.8643 17.52 20.3459 15.46L22.9468 11.77C13.0149 11.66 4.58937 17.74 0 29.34V40.09H3.20352H1.55657Z" fill="#1868DB"/>
<path d="M21.9336 16.7901C21.9336 16.7901 22.0036 16.6901 22.0436 16.6401Z" fill="white"/>
<path d="M24.4319 14.77C25.6069 14.69 26.8019 14.7 28.0271 14.8L35.6693 1.23999L24.4219 14.27L24.442 14.77H24.4319Z" fill="#D8A0F7"/>
<path d="M34.9859 28.7799C35.1064 28.8299 36.2211 28.8899 36.3416 28.8199C36.5123 28.7299 36.6027 28.6199 36.6027 28.4699C36.5425 28.2999 36.3014 28.2899 36.3115 28.1799C36.2914 28.0099 36.4822 27.5699 36.5123 27.4399C36.5123 27.4199 36.5123 27.4099 36.5023 27.3999C36.422 27.3099 36.0705 26.9899 35.8596 26.6799C35.6688 26.4899 35.5382 26.4099 35.4679 26.3699C35.3072 26.2699 35.1265 26.2999 34.9357 26.4399C34.8252 26.5099 34.4135 27.3899 34.3934 27.5099C34.3633 27.7299 34.3532 27.8599 34.4034 27.8999C34.4235 27.9199 34.3131 28.1599 34.293 28.2199C34.293 28.2199 34.3131 28.2199 34.3432 28.1999C34.6545 27.9999 34.6545 28.1799 34.6445 28.1799C34.6445 28.1799 34.7047 28.3399 34.7147 28.4499C34.7348 28.5199 34.7348 28.5699 34.7348 28.5899C34.7449 28.6699 34.8353 28.7299 34.9959 28.7999L34.9859 28.7799Z" fill="#101214"/>
<path d="M1.12492 39.1999C1.01445 40.2999 2.11911 40.4899 2.45051 39.4799C2.93255 38.0599 3.43467 36.5699 4.07738 34.6599C4.42886 33.5699 4.64979 32.8999 4.81047 32.2899C4.97115 31.6799 5.14187 31.1799 5.48331 30.4799C6.01556 29.2799 6.90933 27.7599 7.81315 26.4899C8.69687 25.1999 9.63082 24.2299 9.97226 23.8299L10.2635 23.4699C10.625 23.0499 11.5288 21.8699 12.9147 20.6099C14.3106 19.3799 16.1785 18.0999 18.0965 17.2999C20.7879 16.1399 22.6457 16.0099 23.5596 15.8399C24.6743 15.7599 25.6484 15.6299 26.5623 15.6399C27.0142 15.6399 27.456 15.5799 27.8879 15.5899C28.3197 15.5899 28.7415 15.5899 29.1633 15.5999C30.0872 15.5999 30.278 14.6399 29.3239 14.4099C28.8921 14.3099 28.4502 14.2099 28.0084 14.1099C27.5565 14.0199 27.0845 13.9999 26.6024 13.9499C25.6283 13.8299 24.5538 13.8999 23.3387 13.9799C22.8667 14.0599 22.1336 14.0999 21.1695 14.1999C20.2155 14.3799 19.0104 14.5799 17.6848 15.1099C17.2429 15.2499 16.8312 15.4699 16.4496 15.7199C14.7123 16.6899 12.9548 18.0799 11.6293 19.2099C11.0066 19.8099 10.4342 20.3099 10.0727 20.6899C9.71116 21.0799 9.50027 21.3099 9.50027 21.3099C9.50027 21.3099 9.18895 21.6599 8.68683 22.2099C8.23493 22.8099 7.57213 23.5999 6.9495 24.5399C5.66407 26.3899 4.46903 28.7499 3.83636 30.1699C3.3242 31.2299 3.07314 32.0599 2.81204 32.6699C2.57102 33.2799 2.41034 33.7099 2.29988 34.0399C1.62704 36.0299 1.29564 37.6299 1.12492 39.1799V39.1999Z" fill="#101214"/>
<path d="M26.5924 20.6799C26.4619 20.6699 25.3572 20.8699 25.297 21.0799C25.2166 21.3599 25.2668 21.6999 25.5179 21.9999C25.8694 22.2899 26.0903 22.1299 26.2811 22.2799C26.6226 22.4999 27.205 22.9199 27.3657 22.9999C27.3858 23.0099 27.4159 23.0199 27.436 23.0199C27.6268 22.9799 28.2595 22.8999 28.9926 22.7099C29.4947 22.5199 29.7558 22.2499 29.8763 22.1399C30.1575 21.8399 30.2077 21.5199 30.1173 21.2299C30.0771 21.0599 29.1733 20.6799 29.0327 20.6899C28.7817 20.7199 28.621 20.7399 28.5407 20.8099C28.5005 20.8499 28.2896 20.6799 28.2193 20.6499C28.1992 20.6499 28.1992 20.6699 28.1992 20.7099C28.159 21.1199 27.6569 21.0299 27.6871 21.0099C27.677 21.0299 27.1448 20.9399 27.0544 20.8499C26.964 20.7999 26.9439 20.7699 26.9238 20.7499C26.8736 20.6999 26.7732 20.6999 26.5824 20.6599L26.5924 20.6799Z" fill="#101214"/>
</g>
</g>
<defs>
<clipPath id="clip0_226_8826">
<rect width="40" height="40" fill="white"/>
</clipPath>
<clipPath id="clip1_226_8826">
<rect width="40" height="40" fill="white"/>
</clipPath>
</defs>
</svg>
