<svg width="40" height="40" viewBox="0 0 40 40" fill="none" xmlns="http://www.w3.org/2000/svg">
<g clip-path="url(#clip0_226_8785)">
<g clip-path="url(#clip1_226_8785)">
<path d="M40 0H0V40H40V0Z" fill="#BF63F3"/>
<path d="M39.9982 0H37.9942L11.05 14.0245C6.60559 16.3385 6.27821 22.6295 10.4647 25.3943L32.6272 40.0699H39.9982V0Z" fill="#D8A0F7"/>
<path d="M36.5167 28.9807L36.0505 14.5655L30.9116 18.312C31.0803 16.4388 31.368 14.6256 31.7945 12.9026H5.4654C5.11818 15.7476 4.92969 18.6827 4.92969 21.718C4.92969 24.7533 5.10826 27.7786 5.44556 30.6436H31.7945C31.358 28.9105 31.0604 27.0873 30.8918 25.194L34.5128 27.6283L36.5167 28.9807Z" fill="#AE2A19"/>
<path d="M12.5077 26.5765C13.7459 26.5765 14.7497 25.5629 14.7497 24.3125C14.7497 23.0622 13.7459 22.0486 12.5077 22.0486C11.2694 22.0486 10.2656 23.0622 10.2656 24.3125C10.2656 25.5629 11.2694 26.5765 12.5077 26.5765Z" fill="white"/>
<path d="M15.6134 24.8133C15.5341 24.2523 14.413 24.3926 14.2841 24.653C14.0658 25.0537 13.8178 25.3743 13.4408 25.6948C13.0341 26.0555 12.8952 26.3059 12.4488 26.3159C12.0718 26.3259 11.5956 26.0955 11.3377 25.755C11.0797 25.4144 11.0401 25.0637 11.0401 24.9435C11.0401 24.9035 11.0202 24.8734 11.0103 24.8434C10.9607 24.7432 10.8119 24.3826 10.921 23.9218C11.0103 23.471 11.4468 22.9701 11.9726 22.8799C12.6968 22.6896 13.1531 22.9801 13.3317 23.0903C13.7881 23.4209 14.0857 23.7515 14.3535 24.2223C14.4825 24.4627 15.4547 24.5729 15.544 24.1021C15.673 23.2906 15.3753 22.2689 14.3833 21.5476C14.1849 21.4174 13.917 21.1569 13.4607 20.9466C13.0142 20.7362 12.3694 20.5759 11.6155 20.7061C11.3774 20.7562 11.1393 20.8464 10.9409 20.9766C10.048 21.5476 9.36348 22.4993 9.13531 23.3407C8.8873 24.1822 8.97658 24.8233 8.97658 24.8233C8.97658 24.8233 8.99642 25.0637 9.09563 25.4244C9.20476 25.785 9.41309 26.2759 9.79007 26.7066C10.1571 27.1374 10.6631 27.518 11.2087 27.7084C11.7444 27.9187 12.29 27.9588 12.6769 27.9187C13.2722 27.8787 13.6888 27.6983 13.9865 27.5481C14.2841 27.3978 14.4726 27.2476 14.6015 27.1474C15.4249 26.4562 15.6829 25.5546 15.6035 24.8133H15.6134Z" fill="#101214"/>
<path d="M35.6948 28.8103C35.8833 29.1509 36.9646 28.9005 37.0043 28.5299C37.0638 27.9989 37.044 27.458 36.9448 26.7868C36.7761 26.0355 36.5281 25.8652 36.4983 25.3343C36.3892 24.4427 36.6273 22.9201 36.6968 22.5695C36.7067 22.5194 36.7067 22.4593 36.6968 22.4092C36.6372 22.0385 36.4686 20.3456 36.667 18.9131C36.7464 17.9013 36.8257 17.2702 36.8654 16.9496C36.9646 16.1783 36.9547 15.5873 36.8654 14.9862C36.8158 14.6556 35.8733 14.4453 35.6948 14.7458C35.3773 15.2867 35.1491 15.8778 35.0301 16.6892C34.9904 16.9997 34.6333 17.6308 34.5142 18.5725C34.4944 18.7227 34.5043 18.883 34.5341 19.0333C34.792 20.3656 34.7027 22.0485 34.7027 22.0485C34.7027 22.0485 34.7027 22.6796 34.7424 23.451C34.7722 24.2223 34.8515 25.1139 34.9111 25.6548C35.0103 26.4562 35.0698 26.8369 35.1095 27.0773C35.2285 27.7886 35.4269 28.3295 35.6948 28.8103Z" fill="#101214"/>
<path d="M30.0988 14.1248C31.5274 14.0046 31.5274 12.8927 30.0988 12.7725C28.0651 12.6022 25.9322 12.522 23.1842 12.512C20.0691 12.5621 19.2953 12.7925 17.1922 12.7725C15.4065 12.7725 13.0156 12.6923 10.8926 12.6122C8.6704 12.512 6.71605 12.4218 5.96209 12.3918C5.53551 12.3818 5.099 12.3818 4.68234 12.3918C4.59306 12.3918 4.48393 12.3918 4.3748 12.3918C4.30536 12.4419 4.33512 12.6122 4.30536 12.7324C4.2756 13.0029 4.24584 13.3134 4.20615 13.654C4.17639 13.9545 4.14663 14.2751 4.11687 14.6257C4.09703 14.8361 4.08711 15.0564 4.06727 15.2969C3.99782 16.2485 3.92838 17.4406 3.87878 18.7629C3.77957 21.4175 3.72005 24.6131 3.96806 27.6184C4.00774 28.1493 4.08711 28.6502 4.14663 29.131L4.19623 29.4916C4.19623 29.5718 4.26568 29.8423 4.28552 30.0025C4.35496 30.3732 4.42441 30.7338 4.49385 31.0844C4.52361 31.2647 4.56329 31.435 4.59306 31.6053V31.6654H4.82123H5.099C5.46606 31.6654 5.83312 31.6654 6.18034 31.6654C6.58709 31.6654 6.97399 31.6654 7.33113 31.6654C8.64064 31.6654 9.60293 31.6654 10.2676 31.6654C13.3926 31.6654 15.7239 31.5452 18.0156 31.3349C19.2755 31.2146 19.2755 30.243 18.0156 30.1328C15.7239 29.9224 13.3926 29.8022 10.2676 29.8022C9.66246 29.8022 8.72001 29.7321 7.48986 29.6619C7.18232 29.6419 6.85494 29.6219 6.50772 29.6119H6.38868L6.37875 29.6018H6.35891C6.35891 29.6018 6.33907 29.5718 6.33907 29.5618C6.33907 29.4616 6.32915 29.3614 6.31923 29.2512C6.27955 28.8605 6.22995 28.4598 6.18034 28.0391C6.14066 27.4781 6.05138 26.9171 5.98193 26.3462C5.64463 23.9119 5.63471 21.0469 5.74384 18.803C5.84305 16.5691 6.04146 14.9563 6.04146 14.9563C6.04146 14.9563 6.05138 14.8461 6.07122 14.6357C6.07122 14.5956 6.07122 14.5556 6.08114 14.5055C6.09106 14.4554 6.07122 14.3652 6.1605 14.3953C6.98391 14.3953 8.10493 14.3953 9.345 14.3953C12.2616 14.3953 15.6942 14.3953 17.7279 14.3953C20.7933 14.3953 22.2715 14.3953 23.1743 14.3953C25.9222 14.3953 28.0552 14.2951 30.0889 14.1348L30.0988 14.1248Z" fill="#101214"/>
<path d="M30.8035 30.6634C31.0217 31.0742 32.0932 30.7937 32.1031 30.3429C32.113 29.7018 32.0634 29.0506 31.9047 28.2292C31.6765 27.3076 31.4186 27.1173 31.3392 26.4761C31.1606 25.3942 31.2995 23.551 31.369 23.1303C31.369 23.0702 31.369 23.0001 31.369 22.94C31.2896 22.5092 31.1011 20.4656 31.3491 18.7226C31.4582 17.4904 31.5773 16.7391 31.6368 16.3485C31.7757 15.4168 31.8154 14.7156 31.7757 13.9843C31.7559 13.5836 30.8233 13.3432 30.615 13.7038C30.2479 14.355 29.9702 15.0662 29.8114 16.0479C29.7519 16.4286 29.365 17.1899 29.2063 18.3319C29.1765 18.5122 29.1864 18.7026 29.2063 18.8929C29.3253 19.7043 29.3452 20.6159 29.3551 21.3271C29.3551 22.0484 29.3551 22.5593 29.3551 22.5593C29.3551 22.5593 29.3749 23.3407 29.4543 24.2623C29.5337 25.1939 29.6825 26.2658 29.7817 26.9069C29.9404 27.8686 30.0297 28.3194 30.0793 28.5998C30.2479 29.4513 30.486 30.0924 30.7936 30.6735L30.8035 30.6634Z" fill="#101214"/>
</g>
</g>
<defs>
<clipPath id="clip0_226_8785">
<rect width="40" height="40" fill="white"/>
</clipPath>
<clipPath id="clip1_226_8785">
<rect width="40" height="40" fill="white"/>
</clipPath>
</defs>
</svg>
