<svg width="16" height="16" viewBox="0 0 16 16" fill="none" xmlns="http://www.w3.org/2000/svg">
<g clip-path="url(#clip0_237_7220)">
<path d="M8.51132 11.9067C8.51162 9.74392 8.5202 7.58098 8.50981 5.41819C8.50137 3.67549 9.7288 2.17108 11.3935 1.81305C11.6491 1.75807 11.9068 1.72252 12.1693 1.73488C12.2112 1.79723 12.2058 1.86848 12.2059 1.93806C12.2067 2.56782 12.2068 3.19772 12.2056 3.82747C12.2055 3.90128 12.2162 3.97885 12.1635 4.04301C11.7206 4.05807 11.3602 4.23641 11.0924 4.59098C10.9249 4.81284 10.8351 5.06453 10.8286 5.34394C10.8273 5.40403 10.8267 5.46413 10.8267 5.52438C10.8267 7.59438 10.8267 9.66439 10.8264 11.7344C10.8264 11.7943 10.8222 11.8543 10.8201 11.9144C10.775 11.9657 10.7128 11.9644 10.6535 11.9647C9.99841 11.9673 9.3432 11.9673 8.68815 11.9647C8.62473 11.9644 8.5556 11.9706 8.51147 11.9067H8.51132Z" fill="#00843F"/>
<path d="M15.8312 5.40068C15.8324 5.45581 15.8345 5.51094 15.8345 5.56606C15.8346 8.39144 15.8348 11.2167 15.8342 14.042C15.8342 14.2556 15.8616 14.2267 15.6528 14.227C15.0005 14.2282 14.3481 14.2274 13.6956 14.2274C13.6605 14.2274 13.6253 14.2259 13.5902 14.2274C13.537 14.2297 13.5194 14.2014 13.5217 14.153C13.5226 14.133 13.5217 14.113 13.5217 14.0928C13.522 11.2022 13.5221 8.31176 13.5224 5.42117C13.5224 5.4162 13.5229 5.41107 13.523 5.4061C13.559 5.33501 13.6273 5.33396 13.6917 5.33365C14.3465 5.33019 15.0012 5.33034 15.656 5.3332C15.7223 5.3335 15.7863 5.34284 15.831 5.40053L15.8312 5.40068Z" fill="black"/>
<path d="M2.15128 5.38904C2.15354 5.44402 2.15761 5.49899 2.15761 5.55397C2.15791 8.38733 2.15806 11.2207 2.15761 14.054C2.15761 14.2595 2.1805 14.231 1.98469 14.2313C1.32271 14.2324 0.660721 14.2324 -0.00111396 14.2306C-0.0524762 14.2306 -0.112725 14.2554 -0.154297 14.1995C-0.136975 14.1455 -0.149176 14.0902 -0.149176 14.0357C-0.148272 11.2065 -0.148423 8.37739 -0.148423 5.5484C-0.148423 5.34747 -0.137728 5.33271 0.0607918 5.3318C0.692803 5.32909 1.32481 5.33 1.95683 5.33165C2.02611 5.3318 2.09947 5.32638 2.15143 5.38904H2.15128Z" fill="black"/>
<path d="M7.16544 14.2153C7.11785 14.2384 7.06678 14.2293 7.01723 14.2295C6.36006 14.231 5.70275 14.2317 5.04558 14.2325C5.02043 14.2325 4.99543 14.2333 4.97027 14.2323C4.90139 14.2298 4.86579 14.1919 4.86348 14.1185C4.86303 14.1034 4.86348 14.0884 4.86348 14.0733C4.86348 11.2237 4.86348 8.37389 4.86363 5.52427C4.86363 5.47923 4.86695 5.4342 4.86875 5.38901C4.92057 5.3271 4.99332 5.33162 5.0626 5.33132C5.69733 5.32966 6.33205 5.32966 6.96677 5.33132C7.03621 5.33147 7.10866 5.32771 7.16062 5.38916C7.16258 5.45423 7.16635 5.5193 7.16635 5.58437C7.16665 7.62952 7.1665 9.67467 7.16695 11.7197C7.16695 11.7846 7.15927 11.8501 7.17674 11.9141C7.20626 11.9748 7.20611 12.04 7.20611 12.1053C7.20626 12.7413 7.20686 13.3774 7.20551 14.0133C7.20551 14.0825 7.21409 14.1549 7.16544 14.215V14.2153Z" fill="#5887FF"/>
<path d="M7.16045 5.38933C6.3965 5.38933 5.63254 5.38933 4.86843 5.38918C4.84403 5.17951 4.80924 4.97346 4.71058 4.78217C4.44443 4.26629 3.87644 3.97228 3.30708 4.05949C2.73171 4.1476 2.27472 4.60218 2.18103 5.18057C2.16989 5.2497 2.16145 5.31929 2.15181 5.38873C1.43892 5.38873 0.72602 5.38843 0.0131247 5.38828C-0.00690807 5.38828 -0.0272421 5.38993 -0.0471242 5.38813C-0.116109 5.38195 -0.151807 5.40801 -0.146535 5.48181C-0.143673 5.52173 -0.146234 5.56209 -0.146234 5.60231C-0.146234 8.41865 -0.146234 11.2351 -0.146535 14.0515C-0.146535 14.1012 -0.151204 14.1509 -0.153915 14.2C-0.171388 14.161 -0.160995 14.1205 -0.160995 14.0813C-0.161748 11.2314 -0.162049 8.38129 -0.161296 5.53137C-0.161296 5.01564 -0.0953234 4.5094 0.109824 4.03192C0.653119 2.76805 1.60264 1.99159 2.9599 1.7762C4.86602 1.4736 6.64457 2.70223 7.08273 4.58441C7.14419 4.84845 7.18199 5.11655 7.1603 5.38933H7.16045Z" fill="#FF4B4B"/>
<path d="M15.8322 5.40147C15.6523 5.39952 15.4725 5.39605 15.2926 5.39575C14.7576 5.395 14.2228 5.3953 13.6878 5.39575C13.6331 5.39575 13.5777 5.39003 13.5242 5.4072C13.5148 5.25763 13.5001 5.11017 13.4535 4.96542C13.2886 4.45286 12.7893 4.06169 12.2383 4.05205C12.2135 4.0516 12.1888 4.04678 12.1641 4.04392C12.1668 4.01409 12.1717 3.98427 12.1717 3.95445C12.1714 3.21474 12.1707 2.47518 12.1701 1.73563C14.1878 1.71047 15.862 3.39985 15.8322 5.40162V5.40147Z" fill="#FC83FF"/>
<path d="M7.1654 14.2158C7.1654 13.5035 7.1654 12.7912 7.16585 12.0791C7.16585 12.0243 7.15756 11.9687 7.17669 11.9149C7.62163 11.9123 8.06657 11.9098 8.51151 11.9072C8.56121 11.9099 8.61107 11.9149 8.66077 11.9149C9.3806 11.9154 10.1003 11.9151 10.8201 11.9149C10.8224 11.9648 10.8267 12.0148 10.8267 12.0646C10.8272 12.7259 10.827 13.3872 10.827 14.0485C10.827 14.0836 10.8258 14.1187 10.8267 14.1536C10.8279 14.2027 10.8064 14.2285 10.7559 14.2279C10.7208 14.2276 10.6857 14.2286 10.6508 14.2286C9.54357 14.2286 8.4365 14.2286 7.32927 14.2285C7.27445 14.2285 7.21887 14.2355 7.16555 14.2157L7.1654 14.2158Z" fill="#FFAA00"/>
</g>
<defs>
<clipPath id="clip0_237_7220">
<rect width="16" height="16" rx="4" fill="white"/>
</clipPath>
</defs>
</svg>
