<svg width="16" height="16" viewBox="0 0 16 16" fill="none" xmlns="http://www.w3.org/2000/svg">
<mask id="path-1-inside-1_237_7211" fill="white">
<path d="M0 4C0 1.79086 1.79086 0 4 0H12C14.2091 0 16 1.79086 16 4V12C16 14.2091 14.2091 16 12 16H4C1.79086 16 0 14.2091 0 12V4Z"/>
</mask>
<path d="M0 4C0 1.79086 1.79086 0 4 0H12C14.2091 0 16 1.79086 16 4V12C16 14.2091 14.2091 16 12 16H4C1.79086 16 0 14.2091 0 12V4Z" fill="white"/>
<path d="M4 0V1H12V0V-1H4V0ZM16 4H15V12H16H17V4H16ZM12 16V15H4V16V17H12V16ZM0 12H1V4H0H-1V12H0ZM4 16V15C2.34315 15 1 13.6569 1 12H0H-1C-1 14.7614 1.23858 17 4 17V16ZM16 12H15C15 13.6569 13.6569 15 12 15V16V17C14.7614 17 17 14.7614 17 12H16ZM12 0V1C13.6569 1 15 2.34315 15 4H16H17C17 1.23858 14.7614 -1 12 -1V0ZM4 0V-1C1.23858 -1 -1 1.23858 -1 4H0H1C1 2.34315 2.34315 1 4 1V0Z" fill="#0B1228" fill-opacity="0.14" mask="url(#path-1-inside-1_237_7211)"/>
<path d="M8.42284 10.3601C8.42303 9.00829 8.4284 7.65642 8.4219 6.30464C8.41663 5.21543 9.18379 4.27514 10.2242 4.05137C10.384 4.01701 10.5451 3.99479 10.7092 4.00251C10.7353 4.04148 10.7319 4.08601 10.732 4.12951C10.7325 4.52311 10.7326 4.91681 10.7318 5.31042C10.7318 5.35655 10.7384 5.40503 10.7055 5.44513C10.4287 5.45455 10.2034 5.56601 10.036 5.78762C9.93136 5.92629 9.87526 6.0836 9.87121 6.25823C9.87036 6.29579 9.86998 6.33336 9.86998 6.37101C9.86998 7.6648 9.86998 8.95858 9.8698 10.2524C9.8698 10.2898 9.86716 10.3273 9.86584 10.3649C9.83769 10.397 9.79881 10.3961 9.76172 10.3963C9.3523 10.3979 8.94279 10.3979 8.53337 10.3963C8.49373 10.3961 8.45052 10.4 8.42294 10.3601H8.42284Z" fill="#00843F"/>
<path d="M12.9983 6.29352C12.999 6.32797 13.0003 6.36243 13.0003 6.39688C13.0004 8.16279 13.0005 9.9286 13.0002 11.6945C13.0002 11.828 13.0173 11.8099 12.8868 11.8101C12.4791 11.8109 12.0714 11.8104 11.6635 11.8104C11.6416 11.8104 11.6196 11.8094 11.5976 11.8104C11.5644 11.8118 11.5534 11.7941 11.5548 11.7639C11.5554 11.7514 11.5548 11.7388 11.5548 11.7262C11.555 9.91956 11.5551 8.11299 11.5553 6.30632C11.5553 6.30321 11.5556 6.30001 11.5557 6.29691C11.5782 6.25247 11.6208 6.25181 11.6611 6.25162C12.0703 6.24946 12.4796 6.24955 12.8888 6.25134C12.9302 6.25153 12.9702 6.25737 12.9982 6.29342L12.9983 6.29352Z" fill="black"/>
<path d="M4.44688 6.28685C4.44829 6.32121 4.45084 6.35558 4.45084 6.38994C4.45102 8.16083 4.45112 9.93172 4.45084 11.7026C4.45084 11.831 4.46514 11.8132 4.34276 11.8134C3.92901 11.8141 3.51526 11.8141 3.1016 11.8129C3.0695 11.8129 3.03184 11.8285 3.00586 11.7936C3.01669 11.7598 3.00906 11.7252 3.00906 11.6911C3.00963 9.92287 3.00953 8.15462 3.00953 6.38645C3.00953 6.26087 3.01621 6.25164 3.14029 6.25108C3.53531 6.24938 3.93033 6.24995 4.32534 6.25098C4.36865 6.25108 4.4145 6.24769 4.44698 6.28685H4.44688Z" fill="black"/>
<path d="M7.58147 11.8034C7.55172 11.8178 7.5198 11.8122 7.48883 11.8123C7.07809 11.8132 6.66726 11.8137 6.25652 11.8142C6.2408 11.8142 6.22517 11.8146 6.20945 11.8141C6.1664 11.8125 6.14415 11.7888 6.1427 11.7429C6.14242 11.7335 6.1427 11.7241 6.1427 11.7146C6.1427 9.93359 6.1427 8.15243 6.1428 6.37137C6.1428 6.34322 6.14487 6.31508 6.146 6.28683C6.17838 6.24814 6.22385 6.25096 6.26716 6.25078C6.66387 6.24974 7.06058 6.24974 7.45729 6.25078C7.50069 6.25087 7.54597 6.24852 7.57845 6.28693C7.57968 6.3276 7.58203 6.36826 7.58203 6.40893C7.58222 7.68719 7.58212 8.96544 7.58241 10.2436C7.58241 10.2842 7.57761 10.3251 7.58853 10.3651C7.60698 10.4031 7.60688 10.4438 7.60688 10.4846C7.60698 10.8822 7.60735 11.2797 7.60651 11.6772C7.60651 11.7204 7.61187 11.7657 7.58147 11.8032V11.8034Z" fill="#5887FF"/>
<path d="M7.57794 6.28685C7.10046 6.28685 6.62297 6.28685 6.14539 6.28675C6.13014 6.15571 6.10839 6.02692 6.04673 5.90736C5.88038 5.58493 5.52538 5.40117 5.16952 5.45567C4.8099 5.51075 4.52428 5.79486 4.46572 6.15637C4.45875 6.19958 4.45348 6.24307 4.44746 6.28647C4.00189 6.28647 3.55632 6.28628 3.11074 6.28619C3.09822 6.28619 3.08551 6.28722 3.07309 6.28609C3.02997 6.28223 3.00766 6.29852 3.01096 6.34465C3.01274 6.3696 3.01114 6.39483 3.01114 6.41996C3.01114 8.18022 3.01114 9.94057 3.01096 11.7008C3.01096 11.7319 3.00804 11.763 3.00634 11.7936C2.99542 11.7693 3.00192 11.7439 3.00192 11.7195C3.00145 9.93821 3.00126 8.15687 3.00173 6.37562C3.00173 6.05328 3.04296 5.73687 3.17118 5.43845C3.51075 4.64851 4.10422 4.16321 4.95253 4.02858C6.14389 3.83945 7.25551 4.60737 7.52936 5.78376C7.56777 5.94879 7.5914 6.11636 7.57785 6.28685H7.57794Z" fill="#FF4B4B"/>
<path d="M12.9977 6.29432C12.8853 6.29309 12.7729 6.29093 12.6605 6.29074C12.3261 6.29027 11.9918 6.29046 11.6574 6.29074C11.6232 6.29074 11.5886 6.28716 11.5552 6.29789C11.5493 6.20441 11.5401 6.11225 11.511 6.02178C11.4079 5.70141 11.0959 5.45693 10.7515 5.4509C10.736 5.45062 10.7205 5.44761 10.7051 5.44582C10.7068 5.42718 10.7099 5.40854 10.7099 5.3899C10.7097 4.92757 10.7092 4.46534 10.7088 4.0031C11.97 3.98738 13.0163 5.04327 12.9977 6.29441V6.29432Z" fill="#FC83FF"/>
<path d="M7.58091 11.8033C7.58091 11.3581 7.58091 10.9129 7.58119 10.4678C7.58119 10.4335 7.57602 10.3988 7.58797 10.3652C7.86607 10.3636 8.14416 10.362 8.42225 10.3604C8.45332 10.362 8.48448 10.3652 8.51555 10.3652C8.96545 10.3654 9.41526 10.3652 9.86516 10.3652C9.86657 10.3963 9.8693 10.4276 9.8693 10.4587C9.86958 10.872 9.86949 11.2854 9.86949 11.6987C9.86949 11.7206 9.86873 11.7425 9.8693 11.7644C9.87005 11.7951 9.85659 11.8112 9.82505 11.8108C9.80312 11.8106 9.78118 11.8113 9.75934 11.8113C9.06731 11.8113 8.37537 11.8113 7.68334 11.8112C7.64907 11.8112 7.61433 11.8156 7.58101 11.8032L7.58091 11.8033Z" fill="#FFAA00"/>
</svg>
