<svg width="20" height="20" viewBox="0 0 20 20" fill="none" xmlns="http://www.w3.org/2000/svg">
<mask id="path-1-inside-1_237_7202" fill="white">
<path d="M0 5C0 2.23858 2.23858 0 5 0H15C17.7614 0 20 2.23858 20 5V15C20 17.7614 17.7614 20 15 20H5C2.23858 20 0 17.7614 0 15V5Z"/>
</mask>
<path d="M0 5C0 2.23858 2.23858 0 5 0H15C17.7614 0 20 2.23858 20 5V15C20 17.7614 17.7614 20 15 20H5C2.23858 20 0 17.7614 0 15V5Z" fill="white"/>
<path d="M5 0V1H15V0V-1H5V0ZM20 5H19V15H20H21V5H20ZM15 20V19H5V20V21H15V20ZM0 15H1V5H0H-1V15H0ZM5 20V19C2.79086 19 1 17.2091 1 15H0H-1C-1 18.3137 1.68629 21 5 21V20ZM20 15H19C19 17.2091 17.2091 19 15 19V20V21C18.3137 21 21 18.3137 21 15H20ZM15 0V1C17.2091 1 19 2.79086 19 5H20H21C21 1.68629 18.3137 -1 15 -1V0ZM5 0V-1C1.68629 -1 -1 1.68629 -1 5H0H1C1 2.79086 2.79086 1 5 1V0Z" fill="#0B1228" fill-opacity="0.14" mask="url(#path-1-inside-1_237_7202)"/>
<path d="M10.5051 12.6322C10.5053 11.0102 10.5117 9.38813 10.5039 7.76613C10.4976 6.45918 11.4181 5.33093 12.6666 5.06242C12.8583 5.02119 13.0515 4.99453 13.2484 5.00379C13.2798 5.05056 13.2758 5.10399 13.2759 5.15618C13.2764 5.62847 13.2766 6.10087 13.2757 6.57315C13.2755 6.62851 13.2836 6.68668 13.244 6.7348C12.9119 6.7461 12.6416 6.87984 12.4408 7.14575C12.3151 7.31214 12.2478 7.5009 12.243 7.71044C12.2419 7.75551 12.2415 7.80058 12.2415 7.84577C12.2415 9.39819 12.2415 10.9506 12.2413 12.503C12.2413 12.548 12.2381 12.5929 12.2365 12.638C12.2028 12.6765 12.1561 12.6755 12.1116 12.6757C11.6203 12.6777 11.1289 12.6777 10.6377 12.6757C10.5901 12.6755 10.5383 12.6801 10.5052 12.6322H10.5051Z" fill="#00843F"/>
<path d="M15.9978 7.75241C15.9987 7.79376 16.0003 7.8351 16.0003 7.87644C16.0004 9.99536 16.0005 12.1142 16.0001 14.2331C16.0001 14.3933 16.0206 14.3716 15.864 14.3718C15.3748 14.3727 14.8856 14.3721 14.3962 14.3721C14.3699 14.3721 14.3435 14.371 14.3172 14.3721C14.2773 14.3738 14.2641 14.3526 14.2658 14.3163C14.2664 14.3013 14.2658 14.2863 14.2658 14.2711C14.266 12.1033 14.2661 9.9356 14.2663 7.76777C14.2663 7.76405 14.2667 7.76021 14.2668 7.75648C14.2938 7.70316 14.345 7.70237 14.3933 7.70214C14.8843 7.69955 15.3754 7.69966 15.8664 7.70181C15.9161 7.70203 15.9641 7.70904 15.9977 7.7523L15.9978 7.75241Z" fill="black"/>
<path d="M5.7369 7.74344C5.7386 7.78467 5.74165 7.8259 5.74165 7.86713C5.74187 9.99203 5.74198 12.1169 5.74165 14.2418C5.74165 14.3959 5.75881 14.3746 5.61197 14.3748C5.1155 14.3756 4.61904 14.3756 4.12269 14.3742C4.08417 14.3742 4.03899 14.3929 4.00781 14.351C4.0208 14.3104 4.01165 14.2689 4.01165 14.2281C4.01233 12.1063 4.01222 9.98458 4.01222 7.86295C4.01222 7.71226 4.02024 7.70119 4.16912 7.70051C4.6431 7.69848 5.11709 7.69916 5.59107 7.7004C5.64303 7.70051 5.69804 7.69645 5.73701 7.74344H5.7369Z" fill="black"/>
<path d="M9.49606 14.3628C9.46036 14.3801 9.42207 14.3733 9.3849 14.3734C8.89206 14.3745 8.3991 14.3751 7.90625 14.3757C7.88739 14.3757 7.86864 14.3762 7.84977 14.3756C7.79811 14.3737 7.77141 14.3452 7.76968 14.2902C7.76934 14.2789 7.76968 14.2676 7.76968 14.2563C7.76968 12.1192 7.76968 9.98195 7.76979 7.84485C7.76979 7.81108 7.77228 7.7773 7.77364 7.74341C7.81249 7.69699 7.86705 7.70038 7.91902 7.70015C8.39503 7.69891 8.87105 7.69891 9.34706 7.70015C9.39914 7.70026 9.45347 7.69744 9.49244 7.74353C9.49391 7.79233 9.49674 7.84113 9.49674 7.88992C9.49696 9.4237 9.49685 10.9575 9.49719 12.4911C9.49719 12.5398 9.49143 12.589 9.50453 12.637C9.52667 12.6825 9.52656 12.7314 9.52656 12.7803C9.52667 13.2574 9.52712 13.7344 9.52611 14.2113C9.52611 14.2632 9.53254 14.3175 9.49606 14.3626V14.3628Z" fill="#5887FF"/>
<path d="M9.49309 7.744C8.92015 7.744 8.34722 7.744 7.77417 7.74388C7.75587 7.58664 7.72977 7.43211 7.65579 7.28865C7.45618 6.90176 7.03021 6.68126 6.60322 6.74667C6.17171 6.81275 5.82899 7.15367 5.75873 7.58743C5.75037 7.63928 5.74404 7.69147 5.73681 7.74355C5.20217 7.74355 4.66753 7.74332 4.13288 7.74321C4.11786 7.74321 4.10261 7.74445 4.0877 7.74309C4.03596 7.73846 4.00919 7.758 4.01314 7.81335C4.01529 7.84329 4.01337 7.87356 4.01337 7.90372C4.01337 10.0159 4.01337 12.1281 4.01314 14.2402C4.01314 14.2775 4.00964 14.3148 4.00761 14.3516C3.99451 14.3224 4.0023 14.292 4.0023 14.2626C4.00174 12.1253 4.00151 9.98785 4.00207 7.85052C4.00207 7.46374 4.05155 7.08408 4.2054 6.726C4.61285 5.77814 5.32496 5.19583 6.34284 5.0343C7.77236 4.80736 9.1062 5.72878 9.4348 7.14034C9.48089 7.33836 9.50924 7.53943 9.49298 7.744H9.49309Z" fill="#FF4B4B"/>
<path d="M15.997 7.75335C15.8621 7.75188 15.7273 7.74928 15.5924 7.74906C15.1912 7.74849 14.79 7.74872 14.3888 7.74906C14.3478 7.74906 14.3062 7.74476 14.2661 7.75764C14.2591 7.64547 14.2481 7.53488 14.2131 7.42633C14.0895 7.04192 13.715 6.74856 13.3018 6.74133C13.2831 6.741 13.2646 6.73738 13.2461 6.73523C13.2481 6.71287 13.2519 6.6905 13.2519 6.66814C13.2516 6.11339 13.2511 5.55875 13.2506 5.00411C14.7638 4.98525 16.0194 6.25222 15.997 7.75346V7.75335Z" fill="#FC83FF"/>
<path d="M9.49709 14.3642C9.49709 13.83 9.49709 13.2958 9.49743 12.7617C9.49743 12.7206 9.49122 12.6789 9.50557 12.6386C9.83925 12.6367 10.1729 12.6347 10.5066 12.6328C10.5439 12.6348 10.5813 12.6386 10.6186 12.6386C11.1584 12.6389 11.6981 12.6387 12.238 12.6386C12.2397 12.676 12.2429 12.7135 12.2429 12.7509C12.2433 13.2468 12.2432 13.7428 12.2432 14.2387C12.2432 14.265 12.2423 14.2913 12.2429 14.3175C12.2438 14.3543 12.2277 14.3736 12.1898 14.3732C12.1635 14.373 12.1372 14.3738 12.111 14.3738C11.2806 14.3738 10.4504 14.3738 9.61999 14.3736C9.57888 14.3736 9.53719 14.379 9.49721 14.364L9.49709 14.3642Z" fill="#FFAA00"/>
</svg>
