<svg width="24" height="24" viewBox="0 0 24 24" fill="none" xmlns="http://www.w3.org/2000/svg">
<mask id="path-1-inside-1_237_7193" fill="white">
<path d="M0 6.39569C0 2.86345 2.86345 0 6.39569 0H17.6043C21.1366 0 24 2.86345 24 6.39569V17.6043C24 21.1366 21.1366 24 17.6043 24H6.39569C2.86345 24 0 21.1366 0 17.6043V6.39569Z"/>
</mask>
<path d="M0 6.39569C0 2.86345 2.86345 0 6.39569 0H17.6043C21.1366 0 24 2.86345 24 6.39569V17.6043C24 21.1366 21.1366 24 17.6043 24H6.39569C2.86345 24 0 21.1366 0 17.6043V6.39569Z" fill="white"/>
<path d="M6.39569 0V1H17.6043V0V-1H6.39569V0ZM24 6.39569H23V17.6043H24H25V6.39569H24ZM17.6043 24V23H6.39569V24V25H17.6043V24ZM0 17.6043H1V6.39569H0H-1V17.6043H0ZM6.39569 24V23C3.41573 23 1 20.5843 1 17.6043H0H-1C-1 21.6888 2.31116 25 6.39569 25V24ZM24 17.6043H23C23 20.5843 20.5843 23 17.6043 23V24V25C21.6888 25 25 21.6888 25 17.6043H24ZM17.6043 0V1C20.5843 1 23 3.41573 23 6.39569H24H25C25 2.31116 21.6888 -1 17.6043 -1V0ZM6.39569 0V-1C2.31116 -1 -1 2.31116 -1 6.39569H0H1C1 3.41573 3.41573 1 6.39569 1V0Z" fill="#0B1228" fill-opacity="0.14" mask="url(#path-1-inside-1_237_7193)"/>
<path d="M13.1343 15.5406C13.1345 13.5129 13.1426 11.4851 13.1329 9.45745C13.1249 7.82363 14.2757 6.4132 15.8364 6.07754C16.076 6.026 16.3176 5.99267 16.5637 6.00425C16.603 6.06272 16.5979 6.12951 16.5981 6.19475C16.5988 6.78516 16.5989 7.3757 16.5978 7.96611C16.5976 8.03531 16.6077 8.10803 16.5582 8.16819C16.1431 8.18231 15.8051 8.3495 15.5541 8.68192C15.397 8.88992 15.3129 9.12589 15.3068 9.38784C15.3055 9.44418 15.305 9.50052 15.305 9.55701C15.305 11.4977 15.305 13.4384 15.3047 15.379C15.3047 15.4352 15.3007 15.4914 15.2988 15.5478C15.2565 15.5959 15.1982 15.5947 15.1426 15.595C14.5285 15.5974 13.9142 15.5974 13.3 15.595C13.2406 15.5947 13.1758 15.6005 13.1344 15.5406H13.1343Z" fill="#00843F"/>
<path d="M19.9974 9.44028C19.9985 9.49196 20.0005 9.54364 20.0005 9.59533C20.0007 12.2442 20.0008 14.8929 20.0002 17.5418C20.0002 17.742 20.0259 17.7149 19.8302 17.7152C19.2186 17.7163 18.607 17.7156 17.9953 17.7156C17.9624 17.7156 17.9294 17.7142 17.8965 17.7156C17.8466 17.7177 17.8301 17.6912 17.8322 17.6458C17.8331 17.627 17.8322 17.6083 17.8322 17.5893C17.8325 14.8793 17.8326 12.1695 17.8329 9.45948C17.8329 9.45482 17.8333 9.45002 17.8335 9.44536C17.8672 9.37871 17.9312 9.37772 17.9916 9.37744C18.6055 9.37419 19.2193 9.37433 19.8332 9.37701C19.8953 9.3773 19.9553 9.38605 19.9973 9.44014L19.9974 9.44028Z" fill="black"/>
<path d="M7.1713 9.43028C7.17342 9.48182 7.17723 9.53336 7.17723 9.58491C7.17751 12.2412 7.17765 14.8976 7.17723 17.5539C7.17723 17.7465 7.19869 17.7198 7.01512 17.7201C6.39449 17.7211 5.77386 17.7211 5.15338 17.7194C5.10522 17.7194 5.04874 17.7427 5.00977 17.6903C5.02601 17.6396 5.01457 17.5878 5.01457 17.5367C5.01541 14.8843 5.01527 12.2319 5.01527 9.57968C5.01527 9.3913 5.0253 9.37746 5.21142 9.37662C5.80394 9.37408 6.39647 9.37492 6.98899 9.37648C7.05395 9.37662 7.12272 9.37153 7.17144 9.43028H7.1713Z" fill="black"/>
<path d="M11.8712 17.7051C11.8266 17.7267 11.7787 17.7183 11.7323 17.7184C11.1162 17.7198 10.4999 17.7205 9.8838 17.7212C9.86022 17.7212 9.83678 17.7219 9.8132 17.7211C9.74862 17.7187 9.71524 17.6832 9.71308 17.6143C9.71266 17.6002 9.71308 17.5861 9.71308 17.572C9.71308 14.9004 9.71308 12.2286 9.71322 9.55706C9.71322 9.51484 9.71633 9.47261 9.71802 9.43025C9.7666 9.37221 9.8348 9.37645 9.89976 9.37616C10.4948 9.37461 11.0899 9.37461 11.685 9.37616C11.7501 9.37631 11.818 9.37278 11.8667 9.43039C11.8685 9.49139 11.8721 9.5524 11.8721 9.6134C11.8724 11.5308 11.8722 13.4482 11.8726 15.3654C11.8726 15.4263 11.8654 15.4877 11.8818 15.5477C11.9095 15.6046 11.9093 15.6657 11.9093 15.7269C11.9095 16.3232 11.9101 16.9196 11.9088 17.5158C11.9088 17.5806 11.9168 17.6485 11.8712 17.7049V17.7051Z" fill="#5887FF"/>
<path d="M11.8669 9.43027C11.1507 9.43027 10.4345 9.43027 9.71809 9.43013C9.69521 9.23356 9.66259 9.04038 9.5701 8.86105C9.32058 8.37739 8.78807 8.10175 8.25428 8.18351C7.71485 8.26612 7.28642 8.6923 7.19858 9.23455C7.18813 9.29937 7.18022 9.36461 7.17119 9.42971C6.50283 9.42971 5.83447 9.42942 5.16612 9.42928C5.14734 9.42928 5.12827 9.43084 5.10963 9.42914C5.04496 9.42335 5.01149 9.44778 5.01643 9.51698C5.01912 9.5544 5.01671 9.59224 5.01671 9.62994C5.01671 12.2703 5.01671 14.9109 5.01643 17.5512C5.01643 17.5978 5.01205 17.6444 5.00951 17.6905C4.99313 17.6539 5.00288 17.6159 5.00288 17.5792C5.00217 14.9073 5.00189 12.2353 5.00259 9.56343C5.00259 9.07992 5.06444 8.60531 5.25678 8.15767C5.76613 6.97276 6.65633 6.24481 7.92879 6.04288C9.71583 5.75918 11.3833 6.91105 11.794 8.67563C11.8517 8.92318 11.8871 9.17454 11.8668 9.43027H11.8669Z" fill="#FF4B4B"/>
<path d="M19.9956 9.44196C19.827 9.44013 19.6584 9.43688 19.4898 9.43659C18.9882 9.43589 18.4867 9.43617 17.9851 9.43659C17.9339 9.43659 17.8819 9.43123 17.8318 9.44733C17.823 9.3071 17.8092 9.16886 17.7656 9.03315C17.6109 8.55261 17.1428 8.18588 16.6263 8.17684C16.603 8.17642 16.5798 8.1719 16.5566 8.16922C16.5592 8.14126 16.5638 8.1133 16.5638 8.08534C16.5636 7.39184 16.5629 6.69849 16.5623 6.00514C18.454 5.98156 20.0235 7.56539 19.9956 9.4421V9.44196Z" fill="#FC83FF"/>
<path d="M11.8723 17.7054C11.8723 17.0376 11.8723 16.3698 11.8728 15.7021C11.8728 15.6507 11.865 15.5986 11.8829 15.5482C12.3001 15.5458 12.7172 15.5434 13.1344 15.541C13.181 15.5436 13.2277 15.5482 13.2743 15.5482C13.9491 15.5486 14.6239 15.5484 15.2987 15.5482C15.3008 15.595 15.3049 15.6418 15.3049 15.6886C15.3053 16.3085 15.3052 16.9286 15.3052 17.5485C15.3052 17.5814 15.3041 17.6143 15.3049 17.6471C15.3061 17.6931 15.2859 17.7172 15.2386 17.7167C15.2057 17.7164 15.1728 17.7174 15.14 17.7174C14.1019 17.7174 13.064 17.7174 12.026 17.7172C11.9746 17.7172 11.9225 17.7239 11.8725 17.7052L11.8723 17.7054Z" fill="#FFAA00"/>
</svg>
