<svg width="32" height="32" viewBox="0 0 32 32" fill="none" xmlns="http://www.w3.org/2000/svg">
<mask id="path-1-inside-1_237_7184" fill="white">
<path d="M0 8C0 3.58172 3.58172 0 8 0H24C28.4183 0 32 3.58172 32 8V24C32 28.4183 28.4183 32 24 32H8C3.58172 32 0 28.4183 0 24V8Z"/>
</mask>
<path d="M0 8C0 3.58172 3.58172 0 8 0H24C28.4183 0 32 3.58172 32 8V24C32 28.4183 28.4183 32 24 32H8C3.58172 32 0 28.4183 0 24V8Z" fill="white"/>
<path d="M8 0V1H24V0V-1H8V0ZM32 8H31V24H32H33V8H32ZM24 32V31H8V32V33H24V32ZM0 24H1V8H0H-1V24H0ZM8 32V31C4.13401 31 1 27.866 1 24H0H-1C-1 28.9706 3.02944 33 8 33V32ZM32 24H31C31 27.866 27.866 31 24 31V32V33C28.9706 33 33 28.9706 33 24H32ZM24 0V1C27.866 1 31 4.13401 31 8H32H33C33 3.02944 28.9706 -1 24 -1V0ZM8 0V-1C3.02944 -1 -1 3.02944 -1 8H0H1C1 4.13401 4.13401 1 8 1V0Z" fill="#0B1228" fill-opacity="0.14" mask="url(#path-1-inside-1_237_7184)"/>
<path d="M16.7596 20.4483C16.7599 18.0151 16.7696 15.5817 16.7579 13.1486C16.7484 11.188 18.1293 9.49545 20.0021 9.09266C20.2896 9.03081 20.5796 8.99082 20.8749 9.00471C20.922 9.07487 20.9159 9.15502 20.9161 9.23331C20.9169 9.9418 20.9171 10.6505 20.9158 11.3589C20.9156 11.442 20.9276 11.5292 20.8683 11.6014C20.3701 11.6184 19.9646 11.819 19.6633 12.2179C19.4749 12.4675 19.3739 12.7507 19.3666 13.065C19.3651 13.1326 19.3644 13.2002 19.3644 13.268C19.3644 15.5968 19.3644 17.9256 19.3641 20.2545C19.3641 20.3219 19.3593 20.3893 19.357 20.457C19.3063 20.5147 19.2363 20.5132 19.1695 20.5136C18.4326 20.5164 17.6955 20.5164 16.9585 20.5136C16.8872 20.5132 16.8094 20.5202 16.7597 20.4483H16.7596Z" fill="#00843F"/>
<path d="M24.9949 13.1291C24.9963 13.1911 24.9987 13.2532 24.9987 13.3152C24.9988 16.4938 24.999 19.6723 24.9983 22.8509C24.9983 23.0912 25.0292 23.0586 24.7943 23.059C24.0604 23.0603 23.3265 23.0595 22.5924 23.0595C22.5529 23.0595 22.5133 23.0578 22.4738 23.0595C22.414 23.062 22.3942 23.0302 22.3967 22.9758C22.3977 22.9532 22.3967 22.9307 22.3967 22.908C22.397 19.656 22.3972 16.4042 22.3975 13.1522C22.3975 13.1466 22.3981 13.1408 22.3982 13.1352C22.4387 13.0552 22.5155 13.054 22.588 13.0537C23.3246 13.0498 24.0612 13.05 24.7979 13.0532C24.8724 13.0535 24.9444 13.064 24.9948 13.1289L24.9949 13.1291Z" fill="black"/>
<path d="M9.60556 13.1161C9.6081 13.178 9.61268 13.2398 9.61268 13.3017C9.61301 16.4893 9.61318 19.6769 9.61268 22.8645C9.61268 23.0956 9.63843 23.0636 9.41814 23.064C8.67339 23.0651 7.92864 23.0651 7.18405 23.0631C7.12627 23.0631 7.05849 23.0911 7.01172 23.0282C7.03121 22.9674 7.01748 22.9052 7.01748 22.8438C7.0185 19.661 7.01833 16.4781 7.01833 13.2954C7.01833 13.0694 7.03036 13.0528 7.2537 13.0517C7.96473 13.0487 8.67576 13.0497 9.38679 13.0516C9.46474 13.0517 9.54727 13.0456 9.60573 13.1161H9.60556Z" fill="black"/>
<path d="M15.2443 23.046C15.1907 23.0719 15.1333 23.0617 15.0776 23.0619C14.3382 23.0636 13.5987 23.0644 12.8594 23.0653C12.8311 23.0653 12.803 23.0661 12.7747 23.0651C12.6972 23.0623 12.6571 23.0196 12.6545 22.937C12.654 22.9201 12.6545 22.9031 12.6545 22.8862C12.6545 19.6803 12.6545 16.4742 12.6547 13.2683C12.6547 13.2176 12.6584 13.1669 12.6605 13.1161C12.7187 13.0465 12.8006 13.0515 12.8785 13.0512C13.5926 13.0493 14.3067 13.0493 15.0208 13.0512C15.0989 13.0514 15.1804 13.0471 15.2389 13.1163C15.2411 13.1895 15.2453 13.2627 15.2453 13.3359C15.2457 15.6367 15.2455 17.9376 15.246 20.2383C15.246 20.3113 15.2373 20.385 15.257 20.457C15.2902 20.5253 15.29 20.5987 15.29 20.6721C15.2902 21.3877 15.2909 22.1033 15.2894 22.8187C15.2894 22.8965 15.299 22.978 15.2443 23.0456V23.046Z" fill="#5887FF"/>
<path d="M15.2403 13.1163C14.3808 13.1163 13.5213 13.1163 12.6617 13.1162C12.6343 12.8803 12.5951 12.6485 12.4841 12.4333C12.1847 11.8529 11.5457 11.5221 10.9051 11.6202C10.2578 11.7193 9.7437 12.2308 9.6383 12.8815C9.62576 12.9592 9.61627 13.0375 9.60542 13.1156C8.8034 13.1156 8.00137 13.1153 7.19934 13.1151C7.1768 13.1151 7.15393 13.117 7.13156 13.115C7.05395 13.108 7.01379 13.1373 7.01972 13.2204C7.02294 13.2653 7.02006 13.3107 7.02006 13.3559C7.02006 16.5244 7.02006 19.693 7.01972 22.8615C7.01972 22.9174 7.01447 22.9733 7.01142 23.0286C6.99176 22.9847 7.00345 22.9391 7.00345 22.895C7.0026 19.6888 7.00227 16.4824 7.00311 13.2761C7.00311 12.6959 7.07733 12.1264 7.30813 11.5892C7.91935 10.1673 8.98759 9.29377 10.5145 9.05145C12.659 8.71102 14.6599 10.0933 15.1529 12.2108C15.222 12.5078 15.2645 12.8094 15.2401 13.1163H15.2403Z" fill="#FF4B4B"/>
<path d="M24.9939 13.1294C24.7916 13.1272 24.5893 13.1233 24.3869 13.1229C23.785 13.1221 23.1833 13.1224 22.5814 13.1229C22.5199 13.1229 22.4575 13.1165 22.3974 13.1358C22.3869 12.9675 22.3702 12.8017 22.3179 12.6388C22.1323 12.0622 21.5706 11.6221 20.9507 11.6112C20.9228 11.6107 20.895 11.6053 20.8672 11.6021C20.8702 11.5685 20.8758 11.535 20.8758 11.5014C20.8755 10.6692 20.8746 9.83722 20.874 9.00519C23.144 8.9769 25.0275 10.8775 24.9939 13.1295V13.1294Z" fill="#FC83FF"/>
<path d="M15.2437 23.0464C15.2437 22.2451 15.2437 21.4437 15.2442 20.6426C15.2442 20.5809 15.2349 20.5184 15.2564 20.4579C15.757 20.455 16.2575 20.4521 16.7581 20.4492C16.814 20.4523 16.8701 20.4579 16.926 20.4579C17.7359 20.4584 18.5455 20.458 19.3553 20.4579C19.3579 20.514 19.3628 20.5702 19.3628 20.6263C19.3633 21.3702 19.3631 22.1143 19.3631 22.8582C19.3631 22.8977 19.3618 22.9371 19.3628 22.9765C19.3641 23.0317 19.3399 23.0607 19.2831 23.06C19.2437 23.0597 19.2042 23.0609 19.1649 23.0609C17.9192 23.0609 16.6737 23.0609 15.4281 23.0607C15.3664 23.0607 15.3038 23.0686 15.2439 23.0463L15.2437 23.0464Z" fill="#FFAA00"/>
</svg>
