<svg width="96" height="96" viewBox="0 0 96 96" fill="none" xmlns="http://www.w3.org/2000/svg">
<path d="M79.8693 20.1943C77.7393 18.0643 74.8493 16.8643 71.8393 16.8643C68.8293 16.8643 65.9393 18.0643 63.8093 20.1943L61.5493 22.4643L77.6093 38.5243L79.8793 36.2543C82.0093 34.1243 83.2093 31.2343 83.2093 28.2243C83.2093 25.2143 82.0093 22.3243 79.8793 20.1943H79.8693Z" fill="#BF63F3"/>
<path d="M56.1295 27.8743L61.5395 22.4643L16.0195 67.9743L16.0495 84.0143L32.0895 84.0443L77.5995 38.5343L72.1795 43.9343L56.1295 27.8843V27.8743Z" fill="#FCA700"/>
<path d="M56.1294 27.8743L72.1794 43.9243L77.5994 38.5243L61.5394 22.4643L56.1294 27.8743Z" fill="#101214"/>
<path d="M16.0195 76.0043V80.6043L16.0395 84.0143H19.4495L24.0495 84.0343L16.0195 76.0043Z" fill="#101214"/>
<path d="M27.1194 24.4243C27.2294 24.5543 28.2694 25.1643 28.4694 24.4943C28.6594 23.9343 28.7494 23.3743 28.7594 22.6543C28.7094 21.8343 28.4694 21.6443 28.4894 21.0843C28.4894 20.1543 28.7694 18.5843 28.8394 18.2043C28.8494 18.1443 28.8494 18.0943 28.8394 18.0343C28.7894 17.6343 28.5894 15.8843 28.6194 14.3743C28.5794 13.3043 28.5594 12.6443 28.5494 12.2943C28.5094 11.4743 28.3694 10.8743 28.0994 10.2443C27.8794 9.68433 27.0094 10.2443 26.8994 10.3743C26.7394 10.9443 26.6494 11.5643 26.6694 12.3643C26.6794 12.6743 26.4394 13.3443 26.4194 14.2643C26.4194 14.4143 26.4394 14.5643 26.4894 14.7143C26.8894 15.9943 26.8194 17.6743 26.8194 17.6743C26.8194 17.6743 26.8494 20.1743 26.8694 21.2343C26.8694 22.0243 26.8694 22.4043 26.8794 22.6443C26.8794 23.3543 26.9694 23.9043 27.1194 24.4143V24.4243Z" fill="#101214"/>
<path d="M27.1194 46.4243C27.2294 46.5543 28.2694 47.1643 28.4694 46.4943C28.6594 45.9343 28.7494 45.3743 28.7594 44.6543C28.7094 43.8343 28.4694 43.6443 28.4894 43.0843C28.4894 42.1543 28.7694 40.5843 28.8394 40.2043C28.8494 40.1443 28.8494 40.0943 28.8394 40.0343C28.7894 39.6343 28.5894 37.8843 28.6194 36.3743C28.5794 35.3043 28.5594 34.6443 28.5494 34.2943C28.5094 33.4743 28.3694 32.8743 28.0994 32.2443C27.8794 31.6843 27.0094 32.2443 26.8994 32.3743C26.7394 32.9443 26.6494 33.5643 26.6694 34.3643C26.6794 34.6743 26.4394 35.3443 26.4194 36.2643C26.4194 36.4143 26.4394 36.5643 26.4894 36.7143C26.8894 37.9943 26.8194 39.6743 26.8194 39.6743C26.8194 39.6743 26.8494 42.1743 26.8694 43.2343C26.8694 44.0243 26.8694 44.4043 26.8794 44.6443C26.8794 45.3543 26.9694 45.9043 27.1194 46.4143V46.4243Z" fill="#101214"/>
<path d="M14.2691 40.9043C14.1791 41.0843 14.3091 41.4943 14.6291 41.5343C14.7791 41.5743 14.9391 41.6143 15.0191 41.7243C15.1091 41.8043 15.2291 41.8043 15.2891 41.7743C15.7291 41.5243 16.1891 41.1843 16.6891 40.6843C17.2191 40.0743 17.2091 39.7643 17.6191 39.3943C18.2791 38.7343 19.6191 37.8443 19.9491 37.6243C19.9991 37.5943 20.0391 37.5543 20.0791 37.5143C20.3391 37.1943 21.4791 35.8343 22.6091 34.7943C23.3591 34.0043 23.8291 33.5243 24.0691 33.2643C24.6391 32.6243 24.9691 32.1343 25.2291 31.3843C25.2491 31.3343 25.2591 31.2443 25.2491 31.1743C25.2491 31.0943 25.2091 31.0943 25.1891 30.9343C25.1091 30.6943 24.9391 30.7043 24.8191 30.7543C24.5691 30.9443 24.2891 30.6543 24.2091 30.7343C23.7591 31.0143 23.2491 31.3943 22.6991 31.9743C22.4791 32.2043 21.8391 32.4943 21.1491 33.1243C21.0391 33.2243 20.9391 33.3443 20.8691 33.4843C20.2091 34.6643 18.9391 35.7943 18.9391 35.7943C18.9391 35.7943 17.1391 37.5843 16.3691 38.3343C15.7991 38.9143 15.5291 39.1843 15.3591 39.3543C14.8491 39.8843 14.5191 40.3443 14.2591 40.8843L14.2691 40.9043Z" fill="#101214"/>
<path d="M29.8995 25.4043C29.8095 25.5843 29.9395 25.9943 30.2595 26.0343C30.4095 26.0743 30.5695 26.1143 30.6495 26.2243C30.7395 26.3043 30.8595 26.3043 30.9195 26.2743C31.3595 26.0243 31.8195 25.6843 32.3195 25.1843C32.8495 24.5743 32.8395 24.2643 33.2495 23.8943C33.9095 23.2343 35.2495 22.3443 35.5795 22.1243C35.6295 22.0943 35.6695 22.0543 35.7095 22.0143C35.9695 21.7043 37.1095 20.3343 38.2395 19.2943C38.9895 18.5043 39.4595 18.0243 39.6995 17.7643C40.2695 17.1243 40.5995 16.6343 40.8595 15.8843C40.8795 15.8343 40.8895 15.7443 40.8795 15.6843C40.8795 15.6043 40.8395 15.6043 40.8195 15.4443C40.7395 15.2043 40.5695 15.2143 40.4495 15.2643C40.1995 15.4543 39.9195 15.1643 39.8395 15.2443C39.3895 15.5243 38.8795 15.9043 38.3295 16.4843C38.1095 16.7143 37.4695 17.0043 36.7795 17.6343C36.6695 17.7343 36.5695 17.8543 36.4995 17.9943C35.8395 19.1743 34.5695 20.3043 34.5695 20.3043C34.5695 20.3043 32.7695 22.0943 31.9995 22.8443C31.4295 23.4243 31.1595 23.6943 30.9895 23.8643C30.4795 24.3943 30.1495 24.8543 29.8895 25.3943L29.8995 25.4043Z" fill="#101214"/>
<path d="M9.28922 27.8143C9.18922 27.8543 9.05922 28.0043 9.04922 28.1443C8.90922 28.3943 9.09922 28.4943 9.22922 28.5243C9.36922 28.5443 9.57922 28.6743 9.42922 28.9143V28.9243L9.33922 28.7243L9.35922 28.7543L9.39922 28.8243L9.46922 28.9843L9.49922 29.0543C9.49922 29.0543 9.51922 29.1243 9.56922 29.1243C9.98922 29.2143 10.5792 29.2843 11.2692 29.2643C12.0692 29.1843 12.2692 28.9543 12.8192 28.9743C13.7492 28.9643 15.3292 29.2743 15.7092 29.3543C15.7692 29.3643 15.8192 29.3643 15.8792 29.3543C16.2792 29.3143 18.0492 29.1543 19.5692 29.2643C20.6492 29.2843 21.3092 29.2943 21.6592 29.2943C22.4792 29.2943 23.0992 29.2043 23.7092 29.0043C24.0392 28.8943 24.0692 27.9243 23.7392 27.8043C23.1392 27.5743 22.5292 27.4543 21.6992 27.4243C21.3792 27.4243 20.7192 27.1343 19.7692 27.0743C19.6192 27.0743 19.4592 27.0743 19.3092 27.1243C17.9892 27.4643 16.2792 27.3543 16.2792 27.3543C16.2792 27.3543 13.7292 27.3543 12.6492 27.3543C11.8292 27.3743 11.4392 27.3843 11.1992 27.3943C10.4592 27.4343 9.90922 27.5343 9.29922 27.8043L9.28922 27.8143Z" fill="#101214"/>
<path d="M15.1491 15.1843C14.7991 15.0043 14.0391 15.8243 14.2191 16.1643C14.4791 16.6543 14.8191 17.1043 15.3191 17.6143C15.9291 18.1443 16.2291 18.1143 16.5991 18.5143C17.2591 19.1643 18.1491 20.4843 18.3691 20.8043C18.3991 20.8543 18.4391 20.8943 18.4791 20.9243C18.7891 21.1743 20.1491 22.2743 21.1691 23.3943C21.9291 24.1343 22.3991 24.5943 22.6391 24.8343C23.2191 25.3943 23.7291 25.7443 24.3091 26.0043C24.6191 26.1543 25.3091 25.4643 25.1591 25.1543C24.8891 24.5843 24.5291 24.0743 23.9591 23.5043C23.7391 23.2843 23.4491 22.6243 22.8291 21.9443C22.7291 21.8343 22.6091 21.7343 22.4691 21.6643C21.2891 21.0143 20.1691 19.7643 20.1691 19.7643C20.1691 19.7643 18.3891 18.0043 17.6291 17.2543C17.0591 16.6943 16.7891 16.4243 16.6191 16.2643C16.1091 15.7643 15.6491 15.4443 15.1591 15.1943L15.1491 15.1843Z" fill="#101214"/>
<path d="M30.6691 30.8443C30.3191 30.6643 29.5591 31.4843 29.7391 31.8243C29.9991 32.3143 30.3391 32.7643 30.8391 33.2743C31.4491 33.8043 31.7491 33.7743 32.1191 34.1843C32.7791 34.8343 33.6691 36.1543 33.8891 36.4743C33.9191 36.5243 33.9591 36.5643 33.9991 36.5943C34.3091 36.8443 35.6691 37.9443 36.6891 39.0643C37.4491 39.8043 37.9191 40.2643 38.1591 40.5043C38.7391 41.0643 39.2491 41.4143 39.8291 41.6743C40.1391 41.8243 40.8291 41.1343 40.6791 40.8143C40.4091 40.2443 40.0491 39.7343 39.4791 39.1643C39.2591 38.9443 38.9691 38.2843 38.3491 37.6043C38.2491 37.4943 38.1291 37.4043 37.9891 37.3243C36.8091 36.6743 35.6891 35.4243 35.6891 35.4243C35.6891 35.4243 33.9091 33.6643 33.1491 32.9143C32.5791 32.3543 32.3091 32.0843 32.1391 31.9243C31.6291 31.4243 31.1691 31.1043 30.6791 30.8543L30.6691 30.8443Z" fill="#101214"/>
<path d="M31.5295 27.8143C31.4295 27.8543 31.2995 28.0043 31.2895 28.1443C31.1495 28.3943 31.3395 28.4943 31.4695 28.5243C31.6095 28.5443 31.8195 28.6743 31.6695 28.9143V28.9243L31.5795 28.7243L31.5995 28.7543L31.6395 28.8243L31.7095 28.9843L31.7395 29.0543C31.7395 29.0543 31.7595 29.1243 31.8095 29.1243C32.2295 29.2143 32.8195 29.2843 33.5095 29.2643C34.3095 29.1843 34.5095 28.9543 35.0595 28.9743C35.9895 28.9643 37.5695 29.2743 37.9495 29.3543C38.0095 29.3643 38.0595 29.3643 38.1195 29.3543C38.5195 29.3143 40.2895 29.1543 41.8095 29.2643C42.8895 29.2843 43.5495 29.2943 43.8995 29.2943C44.7195 29.2943 45.3395 29.2043 45.9495 29.0043C46.2795 28.8943 46.3095 27.9243 45.9795 27.8043C45.3795 27.5743 44.7695 27.4543 43.9395 27.4243C43.6195 27.4243 42.9595 27.1343 42.0095 27.0743C41.8595 27.0743 41.6995 27.0743 41.5495 27.1243C40.2295 27.4643 38.5195 27.3543 38.5195 27.3543C38.5195 27.3543 35.9695 27.3543 34.8895 27.3543C34.0695 27.3743 33.6795 27.3843 33.4395 27.3943C32.6995 27.4343 32.1495 27.5343 31.5395 27.8043L31.5295 27.8143Z" fill="#101214"/>
<path d="M75.4491 64.8843C78.7591 64.7643 78.7591 63.6543 75.4491 63.5343C73.0991 63.4543 70.6891 63.3843 68.0791 63.3443C66.7691 63.3243 65.4091 63.3143 63.9791 63.2943C63.6091 63.2943 63.2891 63.2843 62.8691 63.2943C62.4291 63.3043 61.9791 63.3543 61.5391 63.4743C60.6591 63.6943 59.7991 64.1443 59.0991 64.7943C57.4791 66.2943 57.0791 68.2443 57.2691 69.7043C57.4591 71.2043 58.1591 72.3343 58.9791 73.1343C59.8191 73.9243 60.7991 74.4243 61.8991 74.6443C62.4491 74.7443 63.0691 74.7543 63.5591 74.7443C64.0891 74.7443 64.6491 74.7443 65.2591 74.7443C69.3791 74.7443 74.9091 74.8243 79.8291 74.9043C80.4491 74.9143 81.0491 74.9243 81.6391 74.9343C82.1891 74.9443 82.5991 75.0143 83.0291 75.1643C83.8691 75.4543 84.5191 76.0543 84.9291 76.6643C85.3291 77.2943 85.5091 77.9443 85.5291 78.4943C85.5291 78.6443 85.5391 78.7343 85.5291 78.9143C85.5291 79.0743 85.5291 79.2343 85.5091 79.3343C85.5091 79.5543 85.4591 79.7443 85.4291 79.9043C85.3391 80.2743 85.2091 80.6243 85.0391 80.9643C84.8791 81.2543 84.6091 81.6743 84.1491 82.0643C83.6891 82.4543 83.0191 82.8043 82.1891 82.9143C81.8291 82.9543 81.1591 82.9443 80.5791 82.9543C79.9791 82.9543 79.3391 82.9643 78.6791 82.9743C77.3591 82.9743 75.9391 82.9943 74.4291 83.0043C68.4191 83.0443 61.1891 83.0643 54.4891 83.0243C45.0291 83.0243 39.1791 83.0243 36.1191 83.0243C28.8991 83.0243 23.4991 83.1443 18.1991 83.3543C15.2891 83.4743 15.2891 84.4443 18.1991 84.5543C23.4991 84.7643 28.8991 84.8843 36.1191 84.8843C38.9291 84.8843 44.7691 85.1543 53.0291 85.1943C54.3691 85.1943 55.7191 85.1843 57.0491 85.1443C62.7991 84.9643 69.4191 84.8943 74.5891 84.8743C77.1791 84.8743 79.3991 84.8743 80.9891 84.8743C81.7291 84.8943 82.5191 84.8743 83.0091 84.7543C83.5091 84.6443 83.7591 84.5343 83.7591 84.5343C83.7591 84.5343 84.1591 84.4243 84.7891 84.0343C85.4091 83.6543 86.2691 82.9443 86.8691 81.7643C87.1691 81.1843 87.3891 80.4843 87.4591 79.7143C87.4591 79.5243 87.4791 79.3343 87.4891 79.1343C87.4891 78.9643 87.4891 78.8043 87.4891 78.5843C87.4791 78.1743 87.4191 77.7543 87.2991 77.3343C86.8791 75.6543 85.5191 74.0343 83.6091 73.4043C83.1391 73.2543 82.6391 73.1443 82.1391 73.1243C81.6091 73.0943 81.2491 73.1243 80.7891 73.1043C79.9191 73.1043 79.0391 73.1043 78.1491 73.1043C76.3791 73.1043 74.6091 73.1043 72.9091 73.1043C69.4991 73.1043 66.3391 73.1043 63.9791 73.1043C60.5591 73.4643 59.1291 71.0143 59.0491 69.4443C58.9891 68.6143 59.1691 67.9243 59.4291 67.3843C59.6891 66.8443 60.0191 66.4543 60.3391 66.1643C60.8191 65.7143 61.3991 65.4143 61.9991 65.2543C62.2991 65.1643 62.5991 65.1343 62.9091 65.1143C63.2291 65.0943 63.6291 65.1143 63.9691 65.1043C65.3991 65.0843 66.7591 65.0743 68.0691 65.0543C70.6791 65.0143 73.0891 64.9443 75.4391 64.8643L75.4491 64.8843Z" fill="#101214"/>
</svg>
