<svg width="96" height="96" viewBox="0 0 96 96" fill="none" xmlns="http://www.w3.org/2000/svg">
<path d="M79.8693 20.1943C77.7393 18.0643 74.8493 16.8643 71.8393 16.8643C68.8293 16.8643 65.9393 18.0643 63.8093 20.1943L61.5493 22.4643L77.6093 38.5243L79.8793 36.2543C82.0093 34.1243 83.2093 31.2343 83.2093 28.2243C83.2093 25.2143 82.0093 22.3243 79.8793 20.1943H79.8693Z" fill="#BF63F3"/>
<path d="M56.1295 27.8743L61.5395 22.4643L16.0195 67.9743L16.0495 84.0143L32.0895 84.0443L77.5995 38.5343L72.1795 43.9343L56.1295 27.8843V27.8743Z" fill="#FCA700"/>
<path d="M56.1294 27.8743L72.1794 43.9243L77.5994 38.5243L61.5394 22.4643L56.1294 27.8743Z" fill="#101214"/>
<path d="M16.0195 76.0043V80.6043L16.0395 84.0143H19.4495L24.0495 84.0343L16.0195 76.0043Z" fill="#101214"/>
</svg>
