<svg width="16" height="16" viewBox="0 0 16 16" fill="none" xmlns="http://www.w3.org/2000/svg">
<path d="M0 4C0 1.79086 1.79086 0 4 0H12C14.2091 0 16 1.79086 16 4V12C16 14.2091 14.2091 16 12 16H4C1.79086 16 0 14.2091 0 12V4Z" fill="#292A2E"/>
<path fill-rule="evenodd" clip-rule="evenodd" d="M8.00004 3C5.23896 3 3 5.2952 3 8.12659C3 10.3916 4.43266 12.3133 6.41933 12.9912C6.66922 13.0386 6.76096 12.88 6.76096 12.7446C6.76096 12.6223 6.75632 12.2185 6.75417 11.7901C5.36316 12.1002 5.06963 11.1852 5.06963 11.1852C4.84219 10.5927 4.51447 10.4351 4.51447 10.4351C4.06081 10.1169 4.54866 10.1235 4.54866 10.1235C5.05075 10.1596 5.31513 10.6518 5.31513 10.6518C5.76108 11.4355 6.48483 11.2089 6.77015 11.0779C6.81503 10.7466 6.94461 10.5204 7.0876 10.3924C5.97702 10.2628 4.80956 9.8232 4.80956 7.85883C4.80956 7.29912 5.00488 6.8418 5.32474 6.48278C5.27282 6.35366 5.10168 5.83224 5.37317 5.12609C5.37317 5.12609 5.79304 4.98831 6.74854 5.65158C7.14738 5.53799 7.57512 5.48103 8.00004 5.47908C8.42496 5.48103 8.85303 5.53799 9.25262 5.65158C10.207 4.98831 10.6262 5.12609 10.6262 5.12609C10.8984 5.83224 10.7272 6.35366 10.6753 6.48278C10.9959 6.8418 11.1899 7.29912 11.1899 7.85883C11.1899 9.82786 10.0202 10.2614 8.90677 10.3883C9.08611 10.5474 9.24591 10.8594 9.24591 11.3377C9.24591 12.0237 9.24012 12.5757 9.24012 12.7446C9.24012 12.881 9.33012 13.0409 9.58356 12.9905C11.5692 12.3119 13 10.3909 13 8.12659C13 5.2952 10.7614 3 8.00004 3Z" fill="white"/>
</svg>
