<svg width="20" height="20" viewBox="0 0 20 20" fill="none" xmlns="http://www.w3.org/2000/svg">
<path d="M0 5C0 2.23858 2.23858 0 5 0H15C17.7614 0 20 2.23858 20 5V15C20 17.7614 17.7614 20 15 20H5C2.23858 20 0 17.7614 0 15V5Z" fill="#292A2E"/>
<path fill-rule="evenodd" clip-rule="evenodd" d="M10.0001 4C6.68675 4 4 6.75424 4 10.1519C4 12.87 5.7192 15.176 8.1032 15.9894C8.40306 16.0464 8.51315 15.856 8.51315 15.6935C8.51315 15.5468 8.50759 15.0622 8.50501 14.5481C6.83579 14.9203 6.48356 13.8223 6.48356 13.8223C6.21062 13.1112 5.81736 12.9221 5.81736 12.9221C5.27298 12.5403 5.8584 12.5482 5.8584 12.5482C6.4609 12.5916 6.77816 13.1821 6.77816 13.1821C7.3133 14.1226 8.18179 13.8507 8.52418 13.6935C8.57803 13.2959 8.73353 13.0245 8.90512 12.8709C7.57243 12.7153 6.17147 12.1878 6.17147 9.8306C6.17147 9.15895 6.40586 8.61016 6.78968 8.17934C6.72739 8.02439 6.52201 7.39869 6.84781 6.55131C6.84781 6.55131 7.35165 6.38597 8.49825 7.1819C8.97686 7.04559 9.49014 6.97724 10.0001 6.97489C10.51 6.97724 11.0236 7.04559 11.5031 7.1819C12.6483 6.38597 13.1515 6.55131 13.1515 6.55131C13.4781 7.39869 13.2726 8.02439 13.2103 8.17934C13.595 8.61016 13.8278 9.15895 13.8278 9.8306C13.8278 12.1934 12.4242 12.7137 11.0881 12.866C11.3033 13.0569 11.4951 13.4313 11.4951 14.0052C11.4951 14.8284 11.4881 15.4909 11.4881 15.6935C11.4881 15.8572 11.5961 16.049 11.9003 15.9886C14.283 15.1742 16 12.8691 16 10.1519C16 6.75424 13.3137 4 10.0001 4Z" fill="white"/>
</svg>
