<svg width="24" height="24" viewBox="0 0 24 24" fill="none" xmlns="http://www.w3.org/2000/svg">
<path d="M0 6.39569C0 2.86345 2.86345 0 6.39569 0H17.6043C21.1366 0 24 2.86345 24 6.39569V17.6043C24 21.1366 21.1366 24 17.6043 24H6.39569C2.86345 24 0 21.1366 0 17.6043V6.39569Z" fill="#292A2E"/>
<path fill-rule="evenodd" clip-rule="evenodd" d="M11.7918 4.33008C7.67133 4.33008 4.33008 7.75526 4.33008 11.9806C4.33008 15.3608 6.46808 18.2286 9.43284 19.2402C9.80575 19.311 9.94266 19.0742 9.94266 18.8722C9.94266 18.6897 9.93574 18.0871 9.93253 17.4478C7.85668 17.9106 7.41865 16.5451 7.41865 16.5451C7.07922 15.6608 6.59016 15.4257 6.59016 15.4257C5.91316 14.9509 6.64119 14.9606 6.64119 14.9606C7.39047 15.0146 7.78501 15.749 7.78501 15.749C8.45052 16.9186 9.53058 16.5805 9.95638 16.385C10.0233 15.8905 10.2167 15.553 10.4301 15.362C8.77277 15.1685 7.03054 14.5125 7.03054 11.581C7.03054 10.7458 7.32202 10.0633 7.79934 9.52753C7.72187 9.33483 7.46647 8.5567 7.87163 7.5029C7.87163 7.5029 8.49821 7.29728 9.92412 8.28711C10.5193 8.1176 11.1577 8.03259 11.7918 8.02967C12.4259 8.03259 13.0647 8.1176 13.661 8.28711C15.0852 7.29728 15.7109 7.5029 15.7109 7.5029C16.1171 8.5567 15.8616 9.33483 15.7841 9.52753C16.2625 10.0633 16.552 10.7458 16.552 11.581C16.552 14.5195 14.8065 15.1665 13.1449 15.3559C13.4125 15.5933 13.651 16.0589 13.651 16.7727C13.651 17.7963 13.6424 18.6202 13.6424 18.8722C13.6424 19.0758 13.7767 19.3143 14.1549 19.2392C17.1181 18.2264 19.2533 15.3597 19.2533 11.9806C19.2533 7.75526 15.9126 4.33008 11.7918 4.33008Z" fill="white"/>
</svg>
