<svg width="32" height="32" viewBox="0 0 32 32" fill="none" xmlns="http://www.w3.org/2000/svg">
<path d="M0 8C0 3.58172 3.58172 0 8 0H24C28.4183 0 32 3.58172 32 8V24C32 28.4183 28.4183 32 24 32H8C3.58172 32 0 28.4183 0 24V8Z" fill="#292A2E"/>
<path fill-rule="evenodd" clip-rule="evenodd" d="M16.0001 7C11.0301 7 7 11.1314 7 16.2279C7 20.305 9.57879 23.764 13.1548 24.9841C13.6046 25.0696 13.7697 24.784 13.7697 24.5402C13.7697 24.3202 13.7614 23.5933 13.7575 22.8222C11.2537 23.3804 10.7253 21.7334 10.7253 21.7334C10.3159 20.6668 9.72604 20.3832 9.72604 20.3832C8.90947 19.8105 9.78759 19.8222 9.78759 19.8222C10.6914 19.8873 11.1672 20.7732 11.1672 20.7732C11.97 22.1839 13.2727 21.7761 13.7863 21.5403C13.8671 20.9439 14.1003 20.5368 14.3577 20.3063C12.3586 20.073 10.2572 19.2818 10.2572 15.7459C10.2572 14.7384 10.6088 13.9152 11.1845 13.269C11.0911 13.0366 10.783 12.098 11.2717 10.827C11.2717 10.827 12.0275 10.5789 13.7474 11.7728C14.4653 11.5684 15.2352 11.4659 16.0001 11.4623C16.7649 11.4659 17.5355 11.5684 18.2547 11.7728C19.9725 10.5789 20.7272 10.827 20.7272 10.827C21.2171 12.098 20.9089 13.0366 20.8155 13.269C21.3925 13.9152 21.7417 14.7384 21.7417 15.7459C21.7417 19.2902 19.6363 20.0706 17.6322 20.299C17.955 20.5854 18.2426 21.1469 18.2426 22.0079C18.2426 23.2426 18.2322 24.2363 18.2322 24.5402C18.2322 24.7858 18.3942 25.0735 18.8504 24.9829C22.4245 23.7614 25 20.3036 25 16.2279C25 11.1314 20.9705 7 16.0001 7Z" fill="white"/>
</svg>
