<svg width="275" height="275" viewBox="0 0 275 275" fill="none" xmlns="http://www.w3.org/2000/svg">
<path d="M230.42 86.6802H44V200.2H230.42V86.6802Z" fill="#DDDEE1"/>
<path d="M137.21 193.17L111.12 197.5C111.12 197.5 113.63 209.43 107.66 220.18C108.46 220.25 109.26 220.3 110.08 220.3C125.07 220.3 137.21 208.15 137.21 193.17Z" fill="#DDDEE1"/>
<path d="M221.56 93.8702C221.96 91.6302 222.17 89.2502 222.17 86.7302C222.17 84.2102 221.96 81.7602 221.55 79.5002C219.13 66.0102 209.75 57.6902 196.61 55.5502C194.37 55.1902 192.02 55.0002 189.57 55.0002C187.02 55.0002 184.57 55.2002 182.24 55.5902C169.09 57.7902 159.73 66.0802 157.3 79.5002C156.89 81.7702 156.68 84.1802 156.68 86.7302C156.68 89.2502 156.89 91.6302 157.29 93.8702C159.7 107.27 169.06 115.58 182.24 117.78C184.57 118.17 187.02 118.37 189.57 118.37C192.02 118.37 194.37 118.18 196.61 117.82C209.77 115.68 219.16 107.35 221.56 93.8702Z" fill="#1868DB"/>
<path d="M221.56 93.8702C221.96 91.6302 222.17 89.2502 222.17 86.7302H156.68C156.68 89.2502 156.89 91.6302 157.29 93.8702C159.7 107.27 169.06 115.58 182.24 117.78C184.57 118.17 187.02 118.37 189.57 118.37C192.02 118.37 194.37 118.18 196.61 117.82C209.77 115.68 219.16 107.35 221.56 93.8702Z" fill="#09326C"/>
<path fill-rule="evenodd" clip-rule="evenodd" d="M210.639 92.0002H168.199V85.0002H210.639V92.0002Z" fill="white"/>
<path fill-rule="evenodd" clip-rule="evenodd" d="M185.922 109.72V67.2703H192.922V109.72H185.922Z" fill="white"/>
<path fill-rule="evenodd" clip-rule="evenodd" d="M207.24 132.56H67.1797V125.56H207.24V132.56Z" fill="white"/>
<path fill-rule="evenodd" clip-rule="evenodd" d="M207.24 151.91H67.1797V144.91H207.24V151.91Z" fill="white"/>
<path fill-rule="evenodd" clip-rule="evenodd" d="M171.82 171.25H67.1797V164.25H171.82V171.25Z" fill="white"/>
</svg>
