<svg width="16" height="16" viewBox="0 0 16 16" fill="none" xmlns="http://www.w3.org/2000/svg">
<g clip-path="url(#clip0_237_8265)">
<path d="M1.99033 13.5586C1.63664 13.5594 1.28908 13.4601 0.983164 13.2707C0.677246 13.0814 0.423933 12.8088 0.249105 12.4808C0.0769519 12.1552 -0.00890508 11.7857 0.000730368 11.412C0.0103658 11.0383 0.115131 10.6744 0.303803 10.3593L3.88958 4.35304C4.0731 4.03024 4.33367 3.76518 4.64466 3.58494C4.95564 3.4047 5.30591 3.31574 5.65968 3.32715C6.01317 3.33618 6.35807 3.44524 6.65908 3.64315C6.96009 3.84106 7.20639 4.12073 7.3728 4.45353C7.70706 5.12774 7.66528 5.93889 7.26492 6.57177L3.68142 12.5781C3.4997 12.8801 3.24943 13.1283 2.95381 13.2998C2.6582 13.4712 2.3268 13.5602 1.99033 13.5586Z" fill="#F62B54"/>
<path d="M8.14101 13.5583C7.41778 13.5583 6.75228 13.1459 6.40282 12.483C6.23105 12.1582 6.14539 11.7897 6.15503 11.417C6.16466 11.0443 6.26923 10.6813 6.45752 10.3672L10.0365 4.37466C10.2173 4.04732 10.4769 3.77754 10.7884 3.5933C11.0999 3.40906 11.452 3.31708 11.8081 3.32688C12.5374 3.3439 13.1983 3.77905 13.5326 4.45975C13.8646 5.14044 13.816 5.95646 13.4034 6.58772L9.82526 12.5802C9.6441 12.881 9.39484 13.1283 9.10049 13.2992C8.80613 13.4701 8.47616 13.5592 8.14101 13.5583Z" fill="#FFCC00"/>
<path d="M14.1547 13.6086C15.1742 13.6086 16.0007 12.7454 16.0007 11.6807C16.0007 10.616 15.1742 9.75293 14.1547 9.75293C13.1351 9.75293 12.3086 10.616 12.3086 11.6807C12.3086 12.7454 13.1351 13.6086 14.1547 13.6086Z" fill="#00CA72"/>
</g>
<defs>
<clipPath id="clip0_237_8265">
<rect width="16" height="16" rx="4" fill="white"/>
</clipPath>
</defs>
</svg>
