<svg width="16" height="16" viewBox="0 0 16 16" fill="none" xmlns="http://www.w3.org/2000/svg">
<mask id="path-1-inside-1_237_8260" fill="white">
<path d="M0 4C0 1.79086 1.79086 0 4 0H12C14.2091 0 16 1.79086 16 4V12C16 14.2091 14.2091 16 12 16H4C1.79086 16 0 14.2091 0 12V4Z"/>
</mask>
<path d="M0 4C0 1.79086 1.79086 0 4 0H12C14.2091 0 16 1.79086 16 4V12C16 14.2091 14.2091 16 12 16H4C1.79086 16 0 14.2091 0 12V4Z" fill="white"/>
<path d="M4 0V1H12V0V-1H4V0ZM16 4H15V12H16H17V4H16ZM12 16V15H4V16V17H12V16ZM0 12H1V4H0H-1V12H0ZM4 16V15C2.34315 15 1 13.6569 1 12H0H-1C-1 14.7614 1.23858 17 4 17V16ZM16 12H15C15 13.6569 13.6569 15 12 15V16V17C14.7614 17 17 14.7614 17 12H16ZM12 0V1C13.6569 1 15 2.34315 15 4H16H17C17 1.23858 14.7614 -1 12 -1V0ZM4 0V-1C1.23858 -1 -1 1.23858 -1 4H0H1C1 2.34315 2.34315 1 4 1V0Z" fill="#0B1228" fill-opacity="0.14" mask="url(#path-1-inside-1_237_8260)"/>
<path d="M4.24396 11.1824C4.0229 11.1829 3.80568 11.1208 3.61448 11.0025C3.42328 10.8841 3.26496 10.7137 3.15569 10.5088C3.04809 10.3052 2.99443 10.0743 3.00046 9.84075C3.00648 9.60717 3.07196 9.37975 3.18988 9.18284L5.43099 5.4289C5.54569 5.22715 5.70854 5.06149 5.90291 4.94884C6.09728 4.83619 6.31619 4.78059 6.5373 4.78772C6.75823 4.79337 6.9738 4.86152 7.16192 4.98522C7.35005 5.10892 7.504 5.28371 7.608 5.49171C7.81691 5.91309 7.7908 6.42006 7.54057 6.81561L5.30089 10.5695C5.18731 10.7583 5.03089 10.9135 4.84613 11.0206C4.66137 11.1277 4.45425 11.1834 4.24396 11.1824Z" fill="#F62B54"/>
<path d="M8.0874 11.1822C7.63538 11.1822 7.21944 10.9244 7.00103 10.5101C6.89367 10.3071 6.84014 10.0768 6.84616 9.84387C6.85218 9.61091 6.91754 9.38409 7.03522 9.18773L9.27205 5.44241C9.38507 5.23783 9.54734 5.06921 9.74204 4.95406C9.93673 4.83892 10.1568 4.78142 10.3793 4.78755C10.8351 4.79819 11.2482 5.07016 11.4571 5.49559C11.6646 5.92103 11.6342 6.43104 11.3764 6.82557L9.14005 10.5709C9.02683 10.7589 8.87104 10.9134 8.68707 11.0202C8.5031 11.1271 8.29687 11.1828 8.0874 11.1822Z" fill="#FFCC00"/>
<path d="M11.8472 11.2135C12.4844 11.2135 13.0009 10.674 13.0009 10.0086C13.0009 9.34316 12.4844 8.80371 11.8472 8.80371C11.2099 8.80371 10.6934 9.34316 10.6934 10.0086C10.6934 10.674 11.2099 11.2135 11.8472 11.2135Z" fill="#00CA72"/>
</svg>
