<svg width="20" height="20" viewBox="0 0 20 20" fill="none" xmlns="http://www.w3.org/2000/svg">
<mask id="path-1-inside-1_237_8255" fill="white">
<path d="M0 5C0 2.23858 2.23858 0 5 0H15C17.7614 0 20 2.23858 20 5V15C20 17.7614 17.7614 20 15 20H5C2.23858 20 0 17.7614 0 15V5Z"/>
</mask>
<path d="M0 5C0 2.23858 2.23858 0 5 0H15C17.7614 0 20 2.23858 20 5V15C20 17.7614 17.7614 20 15 20H5C2.23858 20 0 17.7614 0 15V5Z" fill="white"/>
<path d="M5 0V1H15V0V-1H5V0ZM20 5H19V15H20H21V5H20ZM15 20V19H5V20V21H15V20ZM0 15H1V5H0H-1V15H0ZM5 20V19C2.79086 19 1 17.2091 1 15H0H-1C-1 18.3137 1.68629 21 5 21V20ZM20 15H19C19 17.2091 17.2091 19 15 19V20V21C18.3137 21 21 18.3137 21 15H20ZM15 0V1C17.2091 1 19 2.79086 19 5H20H21C21 1.68629 18.3137 -1 15 -1V0ZM5 0V-1C1.68629 -1 -1 1.68629 -1 5H0H1C1 2.79086 2.79086 1 5 1V0Z" fill="#0B1228" fill-opacity="0.14" mask="url(#path-1-inside-1_237_8255)"/>
<path d="M5.49278 13.6745C5.22751 13.6751 4.96683 13.6006 4.73739 13.4586C4.50795 13.3166 4.31796 13.1121 4.18683 12.8661C4.05772 12.6219 3.99332 12.3448 4.00055 12.0645C4.00777 11.7842 4.08635 11.5113 4.22786 11.275L6.91725 6.77017C7.0549 6.52806 7.25033 6.32927 7.48357 6.19408C7.71682 6.0589 7.97952 5.99218 8.24485 6.00073C8.50998 6.00751 8.76866 6.0893 8.99442 6.23774C9.22019 6.38618 9.40492 6.59593 9.52972 6.84554C9.78043 7.3512 9.74909 7.95959 9.44881 8.43426L6.76113 12.9391C6.62483 13.1656 6.43713 13.3518 6.21541 13.4804C5.99369 13.6089 5.74514 13.6757 5.49278 13.6745Z" fill="#F62B54"/>
<path d="M10.1053 13.6743C9.56286 13.6743 9.06373 13.3649 8.80163 12.8678C8.6728 12.6242 8.60856 12.3478 8.61578 12.0683C8.62301 11.7887 8.70144 11.5165 8.84265 11.2809L11.5269 6.78638C11.6625 6.54087 11.8573 6.33853 12.0909 6.20035C12.3246 6.06217 12.5886 5.99318 12.8557 6.00053C13.4027 6.0133 13.8984 6.33967 14.1491 6.8502C14.3981 7.36073 14.3616 7.97276 14.0522 8.44621L11.3685 12.9407C11.2326 13.1663 11.0457 13.3517 10.8249 13.4799C10.6042 13.6081 10.3567 13.675 10.1053 13.6743Z" fill="#FFCC00"/>
<path d="M14.6151 13.7121C15.3797 13.7121 15.9996 13.0648 15.9996 12.2662C15.9996 11.4677 15.3797 10.8203 14.6151 10.8203C13.8504 10.8203 13.2305 11.4677 13.2305 12.2662C13.2305 13.0648 13.8504 13.7121 14.6151 13.7121Z" fill="#00CA72"/>
</svg>
