<svg width="24" height="24" viewBox="0 0 24 24" fill="none" xmlns="http://www.w3.org/2000/svg">
<mask id="path-1-inside-1_237_8250" fill="white">
<path d="M0 6.39569C0 2.86345 2.86345 0 6.39569 0H17.6043C21.1366 0 24 2.86345 24 6.39569V17.6043C24 21.1366 21.1366 24 17.6043 24H6.39569C2.86345 24 0 21.1366 0 17.6043V6.39569Z"/>
</mask>
<path d="M0 6.39569C0 2.86345 2.86345 0 6.39569 0H17.6043C21.1366 0 24 2.86345 24 6.39569V17.6043C24 21.1366 21.1366 24 17.6043 24H6.39569C2.86345 24 0 21.1366 0 17.6043V6.39569Z" fill="white"/>
<path d="M6.39569 0V1H17.6043V0V-1H6.39569V0ZM24 6.39569H23V17.6043H24H25V6.39569H24ZM17.6043 24V23H6.39569V24V25H17.6043V24ZM0 17.6043H1V6.39569H0H-1V17.6043H0ZM6.39569 24V23C3.41573 23 1 20.5843 1 17.6043H0H-1C-1 21.6888 2.31116 25 6.39569 25V24ZM24 17.6043H23C23 20.5843 20.5843 23 17.6043 23V24V25C21.6888 25 25 21.6888 25 17.6043H24ZM17.6043 0V1C20.5843 1 23 3.41573 23 6.39569H24H25C25 2.31116 21.6888 -1 17.6043 -1V0ZM6.39569 0V-1C2.31116 -1 -1 2.31116 -1 6.39569H0H1C1 3.41573 3.41573 1 6.39569 1V0Z" fill="#0B1228" fill-opacity="0.14" mask="url(#path-1-inside-1_237_8250)"/>
<path d="M6.74154 16.9534C6.43206 16.9541 6.12795 16.8672 5.86027 16.7015C5.59259 16.5358 5.37094 16.2973 5.21797 16.0103C5.06733 15.7254 4.99221 15.4021 5.00064 15.0751C5.00907 14.7481 5.10074 14.4297 5.26583 14.154L8.40338 8.89851C8.56397 8.61606 8.79196 8.38413 9.06407 8.22642C9.33619 8.06872 9.64267 7.99087 9.95222 8.00085C10.2615 8.00876 10.5633 8.10418 10.8267 8.27736C11.0901 8.45053 11.3056 8.69524 11.4512 8.98644C11.7437 9.57637 11.7071 10.2861 11.3568 10.8399L8.22124 16.0954C8.06224 16.3597 7.84325 16.5769 7.58459 16.7269C7.32592 16.8769 7.03595 16.9548 6.74154 16.9534Z" fill="#F62B54"/>
<path d="M12.1231 16.9531C11.4903 16.9531 10.908 16.5922 10.6022 16.0122C10.4519 15.728 10.377 15.4056 10.3854 15.0795C10.3938 14.7533 10.4853 14.4358 10.6501 14.1609L13.7817 8.91743C13.9399 8.631 14.1671 8.39494 14.4396 8.23374C14.7122 8.07253 15.0203 7.99204 15.3318 8.00062C15.97 8.01551 16.5483 8.39627 16.8408 8.99188C17.1313 9.58748 17.0887 10.3015 16.7278 10.8539L13.5969 16.0973C13.4383 16.3605 13.2202 16.5768 12.9627 16.7264C12.7051 16.876 12.4164 16.9539 12.1231 16.9531Z" fill="#FFCC00"/>
<path d="M17.3848 16.9977C18.2769 16.9977 19.0001 16.2425 19.0001 15.3109C19.0001 14.3792 18.2769 13.624 17.3848 13.624C16.4927 13.624 15.7695 14.3792 15.7695 15.3109C15.7695 16.2425 16.4927 16.9977 17.3848 16.9977Z" fill="#00CA72"/>
</svg>
