<svg width="32" height="32" viewBox="0 0 32 32" fill="none" xmlns="http://www.w3.org/2000/svg">
<mask id="path-1-inside-1_237_8245" fill="white">
<path d="M0 8C0 3.58172 3.58172 0 8 0H24C28.4183 0 32 3.58172 32 8V24C32 28.4183 28.4183 32 24 32H8C3.58172 32 0 28.4183 0 24V8Z"/>
</mask>
<path d="M0 8C0 3.58172 3.58172 0 8 0H24C28.4183 0 32 3.58172 32 8V24C32 28.4183 28.4183 32 24 32H8C3.58172 32 0 28.4183 0 24V8Z" fill="white"/>
<path d="M8 0V1H24V0V-1H8V0ZM32 8H31V24H32H33V8H32ZM24 32V31H8V32V33H24V32ZM0 24H1V8H0H-1V24H0ZM8 32V31C4.13401 31 1 27.866 1 24H0H-1C-1 28.9706 3.02944 33 8 33V32ZM32 24H31C31 27.866 27.866 31 24 31V32V33C28.9706 33 33 28.9706 33 24H32ZM24 0V1C27.866 1 31 4.13401 31 8H32H33C33 3.02944 28.9706 -1 24 -1V0ZM8 0V-1C3.02944 -1 -1 3.02944 -1 8H0H1C1 4.13401 4.13401 1 8 1V0Z" fill="#0B1228" fill-opacity="0.14" mask="url(#path-1-inside-1_237_8245)"/>
<path d="M9.23912 21.5115C8.84122 21.5124 8.45022 21.4006 8.10606 21.1876C7.7619 20.9746 7.47692 20.6679 7.28024 20.299C7.08657 19.9326 6.98998 19.517 7.00082 19.0965C7.01166 18.6761 7.12952 18.2668 7.34178 17.9123L11.3758 11.1552C11.5822 10.7921 11.8754 10.4939 12.2252 10.2911C12.5751 10.0883 12.9691 9.98827 13.3671 10.0011C13.7648 10.0113 14.1528 10.1339 14.4915 10.3566C14.8301 10.5793 15.1072 10.8939 15.2944 11.2683C15.6704 12.0268 15.6234 12.9393 15.173 13.6513L11.1416 20.4084C10.9372 20.7482 10.6556 21.0274 10.323 21.2203C9.99047 21.4131 9.61765 21.5133 9.23912 21.5115Z" fill="#F62B54"/>
<path d="M16.1589 21.5112C15.3452 21.5112 14.5966 21.0471 14.2034 20.3014C14.0102 19.9361 13.9138 19.5215 13.9247 19.1022C13.9355 18.6828 14.0531 18.2746 14.265 17.9211L18.2913 11.1795C18.4947 10.8113 18.7868 10.5078 19.1372 10.3005C19.4877 10.0933 19.8837 9.98977 20.2843 10.0008C21.1048 10.0199 21.8484 10.5095 22.2244 11.2753C22.5979 12.041 22.5432 12.9591 22.0791 13.6692L18.0537 20.4108C17.8499 20.7492 17.5694 21.0273 17.2383 21.2197C16.9071 21.412 16.5359 21.5122 16.1589 21.5112Z" fill="#FFCC00"/>
<path d="M22.9225 21.5681C24.0695 21.5681 24.9994 20.5971 24.9994 19.3993C24.9994 18.2015 24.0695 17.2305 22.9225 17.2305C21.7755 17.2305 20.8457 18.2015 20.8457 19.3993C20.8457 20.5971 21.7755 21.5681 22.9225 21.5681Z" fill="#00CA72"/>
</svg>
