<svg width="16" height="16" viewBox="0 0 16 16" fill="none" xmlns="http://www.w3.org/2000/svg">
<path d="M0 4C0 1.79086 1.79086 0 4 0H12C14.2091 0 16 1.79086 16 4V12C16 14.2091 14.2091 16 12 16H4C1.79086 16 0 14.2091 0 12V4Z" fill="#292A2E"/>
<g clip-path="url(#clip0_237_7445)">
<path d="M7.57227 8.00033C7.57227 7.6467 7.70772 7.30756 7.94884 7.05752C8.18996 6.80747 8.51699 6.66699 8.85798 6.66699C9.19897 6.66699 9.526 6.80747 9.76712 7.05752C10.0082 7.30756 10.1437 7.6467 10.1437 8.00033C10.1437 8.35395 10.0082 8.69309 9.76712 8.94313C9.526 9.19318 9.19897 9.33366 8.85798 9.33366C8.51699 9.33366 8.18996 9.19318 7.94884 8.94313C7.70772 8.69309 7.57227 8.35395 7.57227 8.00033V8.00033Z" fill="#1ABCFE"/>
<path d="M5 10.6663C5 10.3127 5.13546 9.97358 5.37658 9.72353C5.6177 9.47348 5.94472 9.33301 6.28571 9.33301H7.57143V10.6663C7.57143 11.02 7.43597 11.3591 7.19485 11.6091C6.95373 11.8592 6.62671 11.9997 6.28571 11.9997C5.94472 11.9997 5.6177 11.8592 5.37658 11.6091C5.13546 11.3591 5 11.02 5 10.6663V10.6663Z" fill="#0ACF83"/>
<path d="M7.57227 4V6.66667H8.85798C9.19897 6.66667 9.526 6.52619 9.76712 6.27614C10.0082 6.02609 10.1437 5.68696 10.1437 5.33333C10.1437 4.97971 10.0082 4.64057 9.76712 4.39052C9.526 4.14048 9.19897 4 8.85798 4H7.57227Z" fill="#FF7262"/>
<path d="M5 5.33333C5 5.68696 5.13546 6.02609 5.37658 6.27614C5.6177 6.52619 5.94472 6.66667 6.28571 6.66667H7.57143V4H6.28571C5.94472 4 5.6177 4.14048 5.37658 4.39052C5.13546 4.64057 5 4.97971 5 5.33333V5.33333Z" fill="#F24E1E"/>
<path d="M5 8.00033C5 8.35395 5.13546 8.69309 5.37658 8.94313C5.6177 9.19318 5.94472 9.33366 6.28571 9.33366H7.57143V6.66699H6.28571C5.94472 6.66699 5.6177 6.80747 5.37658 7.05752C5.13546 7.30756 5 7.6467 5 8.00033V8.00033Z" fill="#A259FF"/>
</g>
<defs>
<clipPath id="clip0_237_7445">
<rect width="5.14286" height="8" fill="white" transform="translate(5 4)"/>
</clipPath>
</defs>
</svg>
