<svg width="20" height="20" viewBox="0 0 20 20" fill="none" xmlns="http://www.w3.org/2000/svg">
<path d="M0 5C0 2.23858 2.23858 0 5 0H15C17.7614 0 20 2.23858 20 5V15C20 17.7614 17.7614 20 15 20H5C2.23858 20 0 17.7614 0 15V5Z" fill="#292A2E"/>
<g clip-path="url(#clip0_237_7438)">
<path d="M10.2129 10.0003C10.2129 9.5141 10.3991 9.04778 10.7307 8.70396C11.0622 8.36015 11.5119 8.16699 11.9807 8.16699C12.4496 8.16699 12.8993 8.36015 13.2308 8.70396C13.5623 9.04778 13.7486 9.5141 13.7486 10.0003C13.7486 10.4866 13.5623 10.9529 13.2308 11.2967C12.8993 11.6405 12.4496 11.8337 11.9807 11.8337C11.5119 11.8337 11.0622 11.6405 10.7307 11.2967C10.3991 10.9529 10.2129 10.4866 10.2129 10.0003V10.0003Z" fill="#1ABCFE"/>
<path d="M6.67773 13.6663C6.67773 13.1801 6.86399 12.7138 7.19553 12.37C7.52707 12.0262 7.97673 11.833 8.44559 11.833H10.2134V13.6663C10.2134 14.1526 10.0272 14.6189 9.69566 14.9627C9.36412 15.3065 8.91446 15.4997 8.44559 15.4997C7.97673 15.4997 7.52707 15.3065 7.19553 14.9627C6.86399 14.6189 6.67773 14.1526 6.67773 13.6663V13.6663Z" fill="#0ACF83"/>
<path d="M10.2129 4.5V8.16667H11.9807C12.4496 8.16667 12.8993 7.97351 13.2308 7.6297C13.5623 7.28588 13.7486 6.81956 13.7486 6.33333C13.7486 5.8471 13.5623 5.38079 13.2308 5.03697C12.8993 4.69315 12.4496 4.5 11.9807 4.5H10.2129Z" fill="#FF7262"/>
<path d="M6.67773 6.33333C6.67773 6.81956 6.86399 7.28588 7.19553 7.6297C7.52707 7.97351 7.97673 8.16667 8.44559 8.16667H10.2134V4.5H8.44559C7.97673 4.5 7.52707 4.69315 7.19553 5.03697C6.86399 5.38079 6.67773 5.8471 6.67773 6.33333V6.33333Z" fill="#F24E1E"/>
<path d="M6.67773 10.0003C6.67773 10.4866 6.86399 10.9529 7.19553 11.2967C7.52707 11.6405 7.97673 11.8337 8.44559 11.8337H10.2134V8.16699H8.44559C7.97673 8.16699 7.52707 8.36015 7.19553 8.70396C6.86399 9.04778 6.67773 9.5141 6.67773 10.0003V10.0003Z" fill="#A259FF"/>
</g>
<defs>
<clipPath id="clip0_237_7438">
<rect width="7.07143" height="11" fill="white" transform="translate(6.67773 4.5)"/>
</clipPath>
</defs>
</svg>
