<svg width="24" height="24" viewBox="0 0 24 24" fill="none" xmlns="http://www.w3.org/2000/svg">
<path d="M0 6.39569C0 2.86345 2.86345 0 6.39569 0H17.6043C21.1366 0 24 2.86345 24 6.39569V17.6043C24 21.1366 21.1366 24 17.6043 24H6.39569C2.86345 24 0 21.1366 0 17.6043V6.39569Z" fill="#292A2E"/>
<g clip-path="url(#clip0_237_7431)">
<path d="M11.6387 11.7911C11.6387 11.2257 11.8553 10.6834 12.2408 10.2836C12.6263 9.88379 13.1492 9.65918 13.6944 9.65918C14.2396 9.65918 14.7625 9.88379 15.1481 10.2836C15.5336 10.6834 15.7502 11.2257 15.7502 11.7911C15.7502 12.3565 15.5336 12.8987 15.1481 13.2986C14.7625 13.6984 14.2396 13.923 13.6944 13.923C13.1492 13.923 12.6263 13.6984 12.2408 13.2986C11.8553 12.8987 11.6387 12.3565 11.6387 11.7911V11.7911Z" fill="#1ABCFE"/>
<path d="M7.52734 16.0547C7.52734 15.4893 7.74393 14.9471 8.12946 14.5473C8.51499 14.1475 9.03788 13.9229 9.5831 13.9229H11.6389V16.0547C11.6389 16.6202 11.4223 17.1624 11.0367 17.5622C10.6512 17.962 10.1283 18.1866 9.5831 18.1866C9.03788 18.1866 8.51499 17.962 8.12946 17.5622C7.74393 17.1624 7.52734 16.6202 7.52734 16.0547V16.0547Z" fill="#0ACF83"/>
<path d="M11.6387 5.39551V9.6593H13.6944C14.2396 9.6593 14.7625 9.43469 15.1481 9.03488C15.5336 8.63507 15.7502 8.09282 15.7502 7.5274C15.7502 6.96199 15.5336 6.41973 15.1481 6.01993C14.7625 5.62012 14.2396 5.39551 13.6944 5.39551H11.6387Z" fill="#FF7262"/>
<path d="M7.52734 7.5274C7.52734 8.09282 7.74393 8.63507 8.12946 9.03488C8.51499 9.43469 9.03788 9.6593 9.5831 9.6593H11.6389V5.39551H9.5831C9.03788 5.39551 8.51499 5.62012 8.12946 6.01993C7.74393 6.41973 7.52734 6.96199 7.52734 7.5274V7.5274Z" fill="#F24E1E"/>
<path d="M7.52734 11.7911C7.52734 12.3565 7.74393 12.8987 8.12946 13.2986C8.51499 13.6984 9.03788 13.923 9.5831 13.923H11.6389V9.65918H9.5831C9.03788 9.65918 8.51499 9.88379 8.12946 10.2836C7.74393 10.6834 7.52734 11.2257 7.52734 11.7911V11.7911Z" fill="#A259FF"/>
</g>
<defs>
<clipPath id="clip0_237_7431">
<rect width="8.22303" height="12.7914" fill="white" transform="translate(7.52734 5.39551)"/>
</clipPath>
</defs>
</svg>
