<svg width="32" height="32" viewBox="0 0 32 32" fill="none" xmlns="http://www.w3.org/2000/svg">
<path d="M0 8C0 3.58172 3.58172 0 8 0H24C28.4183 0 32 3.58172 32 8V24C32 28.4183 28.4183 32 24 32H8C3.58172 32 0 28.4183 0 24V8Z" fill="#292A2E"/>
<g clip-path="url(#clip0_237_7424)">
<path d="M15.7871 16C15.7871 15.2043 16.0919 14.4413 16.6344 13.8787C17.1769 13.3161 17.9127 13 18.68 13C19.4472 13 20.183 13.3161 20.7255 13.8787C21.268 14.4413 21.5728 15.2043 21.5728 16C21.5728 16.7956 21.268 17.5587 20.7255 18.1213C20.183 18.6839 19.4472 19 18.68 19C17.9127 19 17.1769 18.6839 16.6344 18.1213C16.0919 17.5587 15.7871 16.7956 15.7871 16V16Z" fill="#1ABCFE"/>
<path d="M10 22C10 21.2043 10.3048 20.4413 10.8473 19.8787C11.3898 19.3161 12.1256 19 12.8929 19H15.7857V22C15.7857 22.7956 15.4809 23.5587 14.9384 24.1213C14.3959 24.6839 13.6601 25 12.8929 25C12.1256 25 11.3898 24.6839 10.8473 24.1213C10.3048 23.5587 10 22.7956 10 22V22Z" fill="#0ACF83"/>
<path d="M15.7871 7V13H18.68C19.4472 13 20.183 12.6839 20.7255 12.1213C21.268 11.5587 21.5728 10.7956 21.5728 10C21.5728 9.20435 21.268 8.44129 20.7255 7.87868C20.183 7.31607 19.4472 7 18.68 7H15.7871Z" fill="#FF7262"/>
<path d="M10 10C10 10.7956 10.3048 11.5587 10.8473 12.1213C11.3898 12.6839 12.1256 13 12.8929 13H15.7857V7H12.8929C12.1256 7 11.3898 7.31607 10.8473 7.87868C10.3048 8.44129 10 9.20435 10 10V10Z" fill="#F24E1E"/>
<path d="M10 16C10 16.7956 10.3048 17.5587 10.8473 18.1213C11.3898 18.6839 12.1256 19 12.8929 19H15.7857V13H12.8929C12.1256 13 11.3898 13.3161 10.8473 13.8787C10.3048 14.4413 10 15.2043 10 16V16Z" fill="#A259FF"/>
</g>
<defs>
<clipPath id="clip0_237_7424">
<rect width="11.5714" height="18" fill="white" transform="translate(10 7)"/>
</clipPath>
</defs>
</svg>
