<svg width="80" height="80" viewBox="0 0 80 80" fill="none" xmlns="http://www.w3.org/2000/svg">
<path d="M6 67.83V21.1C17.75 19.2 30.7 14.92 42.78 8V54.94C33.48 61.23 20.93 66.28 6 67.84V67.83Z" fill="#4B4D51"/>
<mask id="mask0_213_29886" style="mask-type:luminance" maskUnits="userSpaceOnUse" x="27" y="12" width="38" height="60">
<path d="M27.27 71.9301V25.2001C39.02 23.3001 51.97 19.0201 64.05 12.1001V59.0401C54.75 65.3301 42.2 70.3801 27.27 71.9401V71.9301Z" fill="white"/>
</mask>
<g mask="url(#mask0_213_29886)">
<path d="M10.4115 -126.073L-63.8931 -25.7297L36.4506 48.5749L110.755 -51.7688L10.4115 -126.073Z" fill="#E56E00"/>
<path d="M110.769 -51.7675L36.4648 48.5762L136.808 122.881L211.113 22.5371L110.769 -51.7675Z" fill="#AF59E1"/>
<path d="M36.4535 48.5902L-37.8511 148.934L62.4926 223.238L136.797 122.895L36.4535 48.5902Z" fill="#1558BC"/>
<path d="M-63.9044 -25.7157L-138.209 74.6279L-37.8653 148.933L36.4393 48.5889L-63.9044 -25.7157Z" fill="#1558BC"/>
</g>
<path d="M27.27 25.1999V62.8699C33.12 60.6699 38.32 57.9499 42.77 54.9399V21.4399C37.49 23.1299 32.27 24.3999 27.27 25.2099V25.1999Z" fill="#101214"/>
<path d="M49.94 33.27C49.89 33.17 49.58 33.14 49.27 33.14C49.12 33.14 48.97 33.14 48.85 33.14C48.85 33.17 48.85 33.1399 48.85 33.1499C48.85 33.1799 48.85 33.1299 48.85 33.1499C48.87 33.1499 48.8 33.1499 48.89 33.1499C49 33.1499 49.14 33.1499 49.27 33.1499C49.54 33.1499 49.81 33.1299 49.87 33.0399C50.06 32.7599 50.01 32.31 49.62 32.03C49.5 31.95 49.21 31.44 48.5 31.52C48.39 31.54 48.29 31.59 48.21 31.67C47.87 32.01 47.65 32.4 47.57 32.73C47.49 33.06 47.51 33.3 47.51 33.3C47.51 33.3 47.53 33.69 47.83 34.03C48.11 34.39 48.65 34.55 48.96 34.5C49.43 34.45 49.61 34.27 49.71 34.2C50.03 33.93 50.08 33.54 49.94 33.28V33.27Z" fill="white"/>
<path d="M49.94 41.7299C49.89 41.6299 49.58 41.5999 49.27 41.5999C49.12 41.5999 48.97 41.5999 48.85 41.5999C48.85 41.6299 48.85 41.5999 48.85 41.6099C48.85 41.6399 48.85 41.5899 48.85 41.6099C48.87 41.6099 48.8 41.6099 48.89 41.6099C49 41.6099 49.14 41.6099 49.27 41.6099C49.54 41.6099 49.81 41.5899 49.87 41.4999C50.06 41.2199 50.01 40.7699 49.62 40.4899C49.5 40.4099 49.21 39.8999 48.5 39.9799C48.39 39.9999 48.29 40.0499 48.21 40.1299C47.87 40.4699 47.65 40.8599 47.57 41.1899C47.49 41.5199 47.51 41.7599 47.51 41.7599C47.51 41.7599 47.53 42.1499 47.83 42.4899C48.11 42.8499 48.65 43.0099 48.96 42.9599C49.43 42.9099 49.61 42.7299 49.71 42.6599C50.03 42.3899 50.08 41.9999 49.94 41.7399V41.7299Z" fill="white"/>
<path d="M49.94 50.1901C49.89 50.0901 49.58 50.0601 49.27 50.0601C49.12 50.0601 48.97 50.0601 48.85 50.0601C48.85 50.0901 48.85 50.0601 48.85 50.0701C48.85 50.1001 48.85 50.0501 48.85 50.0701C48.87 50.0701 48.8 50.0701 48.89 50.0701C49 50.0701 49.14 50.0701 49.27 50.0701C49.54 50.0701 49.81 50.0501 49.87 49.9601C50.06 49.6801 50.01 49.2301 49.62 48.9501C49.5 48.8701 49.21 48.3601 48.5 48.4401C48.39 48.4601 48.29 48.5101 48.21 48.5901C47.87 48.9301 47.65 49.3201 47.57 49.6501C47.49 49.9801 47.51 50.2201 47.51 50.2201C47.51 50.2201 47.53 50.6101 47.83 50.9501C48.11 51.3101 48.65 51.4701 48.96 51.4201C49.43 51.3701 49.61 51.1901 49.71 51.1201C50.03 50.8501 50.08 50.4601 49.94 50.2001V50.1901Z" fill="white"/>
<path d="M53.3298 31.35C53.1198 31.4 53.1098 31.33 52.9698 31.61C52.8398 31.92 52.6198 32.54 53.2898 32.7C53.9098 32.74 54.2198 32.53 54.5298 32.4C54.8298 32.25 55.1098 32.08 55.3698 31.89C55.8998 31.52 56.4198 31.0801 56.9498 30.5501C58.1098 29.3301 58.2298 28.8101 58.9698 28.0501C59.0398 27.9701 59.1198 27.92 59.1898 27.84C59.2698 27.77 59.2698 27.78 59.3198 27.75C59.3998 27.71 59.4898 27.69 59.5698 27.73C59.7398 27.86 59.6998 27.89 59.8598 28.48C59.8898 28.6 59.9098 28.72 59.9198 28.84L59.9498 29.0201L59.9798 29.3001C60.0198 29.7901 60.1298 30.22 60.3298 30.51C60.7698 31.13 61.4498 31.1501 61.7798 31.1301C61.9898 31.1201 62.1998 31.08 62.4198 31C62.5998 30.96 62.8998 30.81 63.1598 30.67C63.3998 30.53 63.6198 30.37 63.8498 30.18C64.3098 29.8 64.7698 29.3201 65.2398 28.8001C65.4798 28.5401 65.7198 28.28 65.9598 28.04C66.0698 27.92 66.2198 27.79 66.2998 27.72L66.3898 27.64C66.3898 27.64 66.4998 27.5701 66.5298 27.6301C66.5398 27.6501 66.5498 27.68 66.5498 27.71C66.5498 27.73 66.5498 27.76 66.6798 28.03C66.8498 28.38 67.1298 28.7701 67.5398 29.0201C67.9298 29.2601 68.3798 29.39 68.7698 29.36C69.5198 29.33 69.9798 29.09 70.3498 28.9C71.0998 28.5 71.5098 28.13 71.8098 27.89C73.1698 26.68 73.8998 25.6 74.3998 24.29C74.6498 23.43 73.6298 23.3401 73.3298 23.7401C72.6098 24.5801 71.7598 25.46 70.5998 26.45C70.3698 26.63 69.9698 26.89 69.4698 27.08C69.2198 27.19 68.9598 27.2301 68.7798 27.2401C68.7098 27.2101 68.7098 27.2201 68.7098 27.1901C68.6898 27.2001 68.7298 27.19 68.6898 27.14C68.6698 27.1 68.6498 27.08 68.5898 26.97L68.2898 26.2701C68.0098 25.7301 67.6298 25.3701 67.0398 25.3001C66.4998 25.2701 65.9498 25.52 65.4598 25.93C64.9398 26.31 64.7698 26.5401 64.4998 26.8001C64.2698 27.0501 64.0498 27.28 63.8398 27.5C63.4398 27.93 63.0898 28.26 62.8398 28.46C62.5898 28.67 62.4398 28.75 62.4398 28.75C62.4598 28.74 62.1498 28.95 62.0798 28.96C62.0098 28.98 61.9298 29.0101 61.8398 28.9901C61.7498 28.9501 61.7598 28.82 61.7398 28.73L61.6898 28.51L61.6098 28.1901C61.5498 27.9801 61.4798 27.76 61.3998 27.53C61.3198 27.3 61.1698 27.01 60.9698 26.71C60.7598 26.44 60.5098 26.21 60.2198 26.08C59.6098 25.81 58.9498 26.01 58.4698 26.34C58.1898 26.52 58.0498 26.66 57.9198 26.78C57.7898 26.91 57.6798 27.03 57.5698 27.14C56.5098 28.32 55.9498 28.87 55.6198 29.2C55.1198 29.69 54.6698 30.12 54.2598 30.53C54.0598 30.72 53.8598 30.9001 53.6798 31.0501C53.4998 31.2001 53.3098 31.32 53.2998 31.34L53.3298 31.35Z" fill="white"/>
<path d="M53.3298 40.1301C53.1198 40.1801 53.1098 40.1101 52.9698 40.3901C52.8398 40.7001 52.6198 41.3201 53.2898 41.4801C53.9098 41.5201 54.2198 41.3101 54.5298 41.1801C54.8298 41.0301 55.1098 40.8601 55.3698 40.6701C55.8998 40.3001 56.4198 39.8601 56.9498 39.3301C58.1098 38.1101 58.2298 37.5901 58.9698 36.8301C59.0398 36.7501 59.1198 36.7001 59.1898 36.6201C59.2698 36.5501 59.2698 36.5601 59.3198 36.5301C59.3998 36.4901 59.4898 36.4701 59.5698 36.5101C59.7398 36.6401 59.6998 36.6701 59.8598 37.2601C59.8898 37.3801 59.9098 37.5001 59.9198 37.6201L59.9498 37.8001L59.9798 38.0801C60.0198 38.5701 60.1298 39.0001 60.3298 39.2901C60.7698 39.9101 61.4498 39.9301 61.7798 39.9101C61.9898 39.9001 62.1998 39.8601 62.4198 39.7801C62.5998 39.7401 62.8998 39.5901 63.1598 39.4501C63.3998 39.3101 63.6198 39.1501 63.8498 38.9601C64.3098 38.5801 64.7698 38.1001 65.2398 37.5801C65.4798 37.3201 65.7198 37.0601 65.9598 36.8201C66.0698 36.7001 66.2198 36.5701 66.2998 36.5001L66.3898 36.4201C66.3898 36.4201 66.4998 36.3501 66.5298 36.4101C66.5398 36.4301 66.5498 36.4601 66.5498 36.4901C66.5498 36.5101 66.5498 36.5401 66.6798 36.8101C66.8698 37.1901 67.1998 37.6301 67.6998 37.9001C67.9398 37.9901 68.1898 38.1001 68.4498 38.1301C68.6998 38.1301 68.9698 38.1601 69.1598 38.1101C69.5898 38.0401 69.9198 37.8901 70.2398 37.7401C70.8498 37.4301 71.3398 37.0501 71.8198 36.6601C73.1798 35.4501 73.9098 34.3701 74.4098 33.0601C74.6598 32.2001 73.6398 32.1101 73.3398 32.5101C72.6198 33.3501 71.7698 34.2301 70.6098 35.2201C70.4098 35.3901 70.0698 35.5901 69.6398 35.7901C69.5298 35.8301 69.4198 35.8801 69.3098 35.9201C69.2098 35.9501 69.0998 35.9701 68.9798 36.0001C68.8998 35.9801 68.7698 36.0401 68.7498 36.0001C68.7098 36.0001 68.7298 35.9601 68.7198 35.9701C68.7198 35.9501 68.7298 35.9701 68.7098 35.9201C68.6898 35.8801 68.6698 35.8601 68.6098 35.7501L68.3098 35.0501C68.0298 34.5101 67.6498 34.1501 67.0598 34.0801C66.5198 34.0501 65.9698 34.3001 65.4798 34.7101C64.9598 35.0901 64.7898 35.3201 64.5198 35.5801C64.2898 35.8301 64.0698 36.0601 63.8598 36.2801C63.4598 36.7101 63.1098 37.0401 62.8598 37.2401C62.6098 37.4501 62.4598 37.5301 62.4598 37.5301C62.4798 37.5201 62.1698 37.7301 62.0998 37.7401C62.0298 37.7601 61.9498 37.7901 61.8598 37.7701C61.7698 37.7301 61.7798 37.6001 61.7598 37.5101L61.7098 37.2901L61.6298 36.9701C61.5698 36.7601 61.4998 36.5401 61.4198 36.3101C61.3398 36.0801 61.1898 35.7901 60.9898 35.4901C60.7798 35.2201 60.5298 34.9901 60.2398 34.8601C59.6298 34.5901 58.9698 34.7901 58.4898 35.1201C58.2098 35.3001 58.0698 35.4401 57.9398 35.5601C57.8098 35.6901 57.6998 35.8101 57.5898 35.9201C56.5298 37.1001 55.9698 37.6501 55.6398 37.9801C55.1398 38.4701 54.6898 38.9001 54.2798 39.3101C54.0798 39.5001 53.8798 39.6801 53.6998 39.8301C53.5198 39.9801 53.3298 40.1001 53.3198 40.1201L53.3298 40.1301Z" fill="white"/>
<path d="M53.3298 48.9101C53.1198 48.9601 53.1098 48.8901 52.9698 49.1701C52.8398 49.4801 52.6198 50.1001 53.2898 50.2601C53.9098 50.3001 54.2198 50.0901 54.5298 49.9601C54.8298 49.8101 55.1098 49.6401 55.3698 49.4501C55.8998 49.0801 56.4198 48.6401 56.9498 48.1101C58.1098 46.8901 58.2298 46.3701 58.9698 45.6101C59.0398 45.5301 59.1198 45.4801 59.1898 45.4001C59.2698 45.3301 59.2698 45.3401 59.3198 45.3101C59.3998 45.2701 59.4898 45.2501 59.5698 45.2901C59.7398 45.4201 59.6998 45.4501 59.8598 46.0401C59.8898 46.1601 59.9098 46.2801 59.9198 46.4001L59.9498 46.5801L59.9798 46.8601C60.0198 47.3501 60.1298 47.7801 60.3298 48.0701C60.7698 48.6901 61.4498 48.7101 61.7798 48.6901C61.9898 48.6801 62.1998 48.6401 62.4198 48.5601C62.5998 48.5201 62.8998 48.3701 63.1598 48.2301C63.3998 48.0901 63.6198 47.9301 63.8498 47.7401C64.3098 47.3601 64.7698 46.8801 65.2398 46.3601C65.4798 46.1001 65.7198 45.8401 65.9598 45.6001C66.0698 45.4801 66.2198 45.3501 66.2998 45.2801L66.3898 45.2001C66.3898 45.2001 66.4998 45.1301 66.5298 45.1901C66.5398 45.2101 66.5498 45.2401 66.5498 45.2701C66.5498 45.2901 66.5498 45.3201 66.6798 45.5901C66.8498 45.9401 67.1298 46.3301 67.5398 46.5801C67.9298 46.8201 68.3798 46.9501 68.7698 46.9201C69.5198 46.8901 69.9798 46.6501 70.3498 46.4601C71.0998 46.0601 71.5098 45.6901 71.8098 45.4501C73.1698 44.2401 73.8998 43.1601 74.3998 41.8501C74.6498 40.9901 73.6298 40.9001 73.3298 41.3001C72.6098 42.1401 71.7598 43.0201 70.5998 44.0101C70.3698 44.1901 69.9698 44.4501 69.4698 44.6401C69.2198 44.7501 68.9598 44.7901 68.7798 44.8001C68.7098 44.7701 68.7098 44.7801 68.7098 44.7501C68.6898 44.7601 68.7298 44.7501 68.6898 44.7001C68.6698 44.6601 68.6498 44.6401 68.5898 44.5301L68.2898 43.8301C68.0098 43.2901 67.6298 42.9301 67.0398 42.8601C66.4998 42.8301 65.9498 43.0801 65.4598 43.4901C64.9398 43.8701 64.7698 44.1001 64.4998 44.3601C64.2698 44.6101 64.0498 44.8401 63.8398 45.0601C63.4398 45.4901 63.0898 45.8201 62.8398 46.0201C62.5898 46.2301 62.4398 46.3101 62.4398 46.3101C62.4598 46.3001 62.1498 46.5101 62.0798 46.5201C62.0098 46.5401 61.9298 46.5701 61.8398 46.5501C61.7498 46.5101 61.7598 46.3801 61.7398 46.2901L61.6898 46.0701L61.6098 45.7501C61.5498 45.5401 61.4798 45.3201 61.3998 45.0901C61.3198 44.8601 61.1698 44.5701 60.9698 44.2701C60.7598 44.0001 60.5098 43.7701 60.2198 43.6401C59.6098 43.3701 58.9498 43.5701 58.4698 43.9001C58.1898 44.0801 58.0498 44.2201 57.9198 44.3401C57.7898 44.4701 57.6798 44.5901 57.5698 44.7001C56.5098 45.8801 55.9498 46.4301 55.6198 46.7601C55.1198 47.2501 54.6698 47.6801 54.2598 48.0901C54.0598 48.2801 53.8598 48.4601 53.6798 48.6101C53.4998 48.7601 53.3098 48.8801 53.2998 48.9001L53.3298 48.9101Z" fill="white"/>
</svg>
