<svg width="16" height="16" viewBox="0 0 16 16" fill="none" xmlns="http://www.w3.org/2000/svg">
<path d="M0 4C0 1.79086 1.79086 0 4 0H12C14.2091 0 16 1.79086 16 4V12C16 14.2091 14.2091 16 12 16H4C1.79086 16 0 14.2091 0 12V4Z" fill="#007FD2"/>
<path d="M7.36805 5.06725C7.3385 5.02827 7.30487 5.00781 7.26749 5.00781C7.23665 5.00781 7.20848 5.02163 7.19038 5.03319C6.90637 5.25627 6.51772 6.20128 6.19922 7.44647L6.4812 7.44969C7.03799 7.45601 7.61298 7.46254 8.18133 7.47132C8.03151 6.90093 7.88993 6.41204 7.76013 6.0174C7.57046 5.44058 7.44227 5.18238 7.36805 5.06725Z" fill="white"/>
<path fill-rule="evenodd" clip-rule="evenodd" d="M12 8C12 10.2091 10.2092 12 8 12C5.79084 12 4 10.2091 4 8C4 5.79084 5.79084 4 8 4C10.2092 4 12 5.79084 12 8ZM10.9544 7.90851C10.9544 7.80578 10.882 7.72016 10.7845 7.70064C10.7839 7.70056 10.7834 7.7004 10.7827 7.70024C10.7816 7.70008 10.7805 7.69968 10.7794 7.69952L10.7754 7.69912C10.7651 7.69743 10.7545 7.69639 10.7438 7.69622L10.7157 7.69357C10.0458 7.64562 9.35655 7.62675 8.70996 7.61382L8.70867 7.60908C8.39398 6.42867 8.00088 5.22185 7.47084 5.22185C6.97695 5.2241 6.53173 6.01703 6.14723 7.57912C5.87558 7.57566 5.62795 7.57189 5.39446 7.56787C5.3812 7.56763 5.36932 7.56755 5.35871 7.56755C5.30892 7.56755 5.28458 7.56964 5.27253 7.57124C5.14104 7.59454 5.04562 7.70924 5.04562 7.8441C5.04562 7.98161 5.14827 8.09952 5.28201 8.1188L5.28474 8.12161H6.02129C5.95293 8.43414 5.89301 8.74321 5.84297 9.04096L5.82104 9.17205L5.8208 9.17831C5.82128 9.27944 5.90394 9.36169 6.00498 9.36169C6.06908 9.36169 6.12715 9.32827 6.16032 9.27622L6.16554 9.2804L6.52763 8.12161H8.27173C8.40498 8.62506 8.54321 9.1449 8.72586 9.63277C8.82353 9.89365 9.05221 10.5047 9.43438 10.5077H9.43871C10.0302 10.5077 10.2607 9.55229 10.4134 8.91984C10.4462 8.78378 10.4745 8.66626 10.5013 8.57992L10.512 8.54426H10.5119C10.5145 8.5359 10.5158 8.52707 10.5158 8.51783C10.5158 8.46723 10.4748 8.42619 10.4242 8.42619C10.3849 8.42619 10.3515 8.45084 10.3384 8.48554L10.3382 8.48546L10.3254 8.52096C10.2752 8.65992 10.2288 8.79133 10.1876 8.90779L10.1845 8.91655C9.92851 9.64161 9.81165 9.97253 9.58273 9.97261L9.57711 9.97253L9.5739 9.97301L9.56819 9.97285C9.27518 9.97285 8.99928 8.78169 8.89542 8.33333C8.87743 8.25566 8.86096 8.18434 8.84578 8.12161H10.7405C10.7761 8.12161 10.8096 8.11269 10.839 8.09727C10.8392 8.09719 10.8394 8.09711 10.8395 8.09703C10.8425 8.0955 10.8453 8.09373 10.8482 8.09205C10.8514 8.0902 10.8545 8.08835 10.8576 8.08634C10.8591 8.08538 10.8606 8.08434 10.862 8.08329C10.8666 8.08016 10.871 8.07687 10.8753 8.07333C10.8757 8.07309 10.8759 8.07285 10.8762 8.07261C10.9239 8.03349 10.9544 7.97422 10.9544 7.90851Z" fill="white"/>
</svg>
