<svg width="20" height="20" viewBox="0 0 20 20" fill="none" xmlns="http://www.w3.org/2000/svg">
<path d="M0 5C0 2.23858 2.23858 0 5 0H15C17.7614 0 20 2.23858 20 5V15C20 17.7614 17.7614 20 15 20H5C2.23858 20 0 17.7614 0 15V5Z" fill="#007FD2"/>
<path d="M9.2876 6.70066C9.25434 6.6568 9.21651 6.63379 9.17446 6.63379C9.13976 6.63379 9.10808 6.64933 9.08772 6.66234C8.7682 6.91331 8.33097 7.97644 7.97266 9.37728L8.28989 9.3809C8.91627 9.38801 9.56314 9.39536 10.2025 9.40524C10.034 8.76355 9.8747 8.21355 9.72868 7.76957C9.51531 7.12066 9.37109 6.83017 9.2876 6.70066Z" fill="white"/>
<path fill-rule="evenodd" clip-rule="evenodd" d="M16 10C16 13.3136 13.3137 16 10 16C6.68627 16 4 13.3136 4 10C4 6.68627 6.68627 4 10 4C13.3137 4 16 6.68627 16 10ZM14.4316 9.86277C14.4316 9.70868 14.323 9.58024 14.1767 9.55096C14.1759 9.55084 14.1751 9.5506 14.1741 9.55036C14.1724 9.55012 14.1707 9.54952 14.169 9.54928L14.1631 9.54868C14.1476 9.54615 14.1318 9.54458 14.1157 9.54434L14.0736 9.54036C13.0687 9.46843 12.0348 9.44012 11.0649 9.42072L11.063 9.41361C10.591 7.64301 10.0013 5.83277 9.20627 5.83277C8.46542 5.83614 7.79759 7.02554 7.22084 9.36868C6.81337 9.36349 6.44193 9.35783 6.09169 9.35181C6.07181 9.35145 6.05398 9.35133 6.03807 9.35133C5.96337 9.35133 5.92687 9.35446 5.9088 9.35687C5.71157 9.39181 5.56843 9.56386 5.56843 9.76615C5.56843 9.97241 5.72241 10.1493 5.92301 10.1782L5.92711 10.1824H7.03193C6.9294 10.6512 6.83952 11.1148 6.76446 11.5614L6.73157 11.7581L6.7312 11.7675C6.73193 11.9192 6.8559 12.0425 7.00747 12.0425C7.10361 12.0425 7.19072 11.9924 7.24048 11.9143L7.24831 11.9206L7.79145 10.1824H10.4076C10.6075 10.9376 10.8148 11.7174 11.0888 12.4492C11.2353 12.8405 11.5783 13.757 12.1516 13.7616H12.1581C13.0453 13.7616 13.3911 12.3284 13.6201 11.3798C13.6693 11.1757 13.7118 10.9994 13.7519 10.8699L13.768 10.8164H13.7678C13.7717 10.8039 13.7737 10.7906 13.7737 10.7767C13.7737 10.7008 13.7122 10.6393 13.6363 10.6393C13.5774 10.6393 13.5272 10.6763 13.5076 10.7283L13.5074 10.7282L13.4881 10.7814C13.4128 10.9899 13.3431 11.187 13.2814 11.3617L13.2767 11.3748C12.8928 12.4624 12.7175 12.9588 12.3741 12.9589L12.3657 12.9588L12.3608 12.9595L12.3523 12.9593C11.9128 12.9593 11.4989 11.1725 11.3431 10.5C11.3161 10.3835 11.2914 10.2765 11.2687 10.1824H14.1107C14.1641 10.1824 14.2143 10.169 14.2584 10.1459C14.2588 10.1458 14.259 10.1457 14.2593 10.1455C14.2637 10.1433 14.268 10.1406 14.2723 10.1381C14.2771 10.1353 14.2818 10.1325 14.2864 10.1295C14.2887 10.1281 14.2908 10.1265 14.293 10.1249C14.2999 10.1202 14.3065 10.1153 14.313 10.11C14.3135 10.1096 14.3139 10.1093 14.3143 10.1089C14.3859 10.0502 14.4316 9.96133 14.4316 9.86277Z" fill="white"/>
</svg>
