<svg width="24" height="24" viewBox="0 0 24 24" fill="none" xmlns="http://www.w3.org/2000/svg">
<path d="M0 6.39569C0 2.86345 2.86345 0 6.39569 0H17.6043C21.1366 0 24 2.86345 24 6.39569V17.6043C24 21.1366 21.1366 24 17.6043 24H6.39569C2.86345 24 0 21.1366 0 17.6043V6.39569Z" fill="#007FD2"/>
<path d="M11.1689 8.15125C11.1301 8.10009 11.0859 8.07324 11.0369 8.07324C10.9964 8.07324 10.9594 8.09137 10.9357 8.10656C10.5629 8.39935 10.0528 9.63967 9.63477 11.274L10.0049 11.2782C10.7356 11.2865 11.4903 11.2951 12.2363 11.3066C12.0396 10.558 11.8538 9.91629 11.6835 9.39832C11.4345 8.64125 11.2663 8.30236 11.1689 8.15125Z" fill="white"/>
<path fill-rule="evenodd" clip-rule="evenodd" d="M19 12C19 15.8659 15.866 19 12 19C8.13398 19 5 15.8659 5 12C5 8.13398 8.13398 5 12 5C15.866 5 19 8.13398 19 12ZM17.1702 11.8399C17.1702 11.6601 17.0435 11.5103 16.8729 11.4761C16.8719 11.476 16.8709 11.4757 16.8698 11.4754C16.8678 11.4751 16.8658 11.4744 16.8639 11.4742L16.857 11.4735C16.8389 11.4705 16.8204 11.4687 16.8016 11.4684L16.7526 11.4638C15.5801 11.3798 14.374 11.3468 13.2424 11.3242L13.2402 11.3159C12.6895 9.25018 12.0015 7.13823 11.074 7.13823C10.2097 7.14217 9.43052 8.5298 8.75765 11.2635C8.28227 11.2574 7.84892 11.2508 7.4403 11.2438C7.41711 11.2434 7.39631 11.2432 7.37775 11.2432C7.2906 11.2432 7.24801 11.2469 7.22693 11.2497C6.99683 11.2904 6.82984 11.4912 6.82984 11.7272C6.82984 11.9678 7.00948 12.1742 7.24351 12.2079L7.24829 12.2128H8.53725C8.41763 12.7597 8.31277 13.3006 8.2252 13.8217L8.18683 14.0511L8.18641 14.062C8.18725 14.239 8.33189 14.383 8.50871 14.383C8.62088 14.383 8.72251 14.3245 8.78056 14.2334L8.7897 14.2407L9.42335 12.2128H12.4755C12.7087 13.0939 12.9506 14.0036 13.2703 14.8574C13.4412 15.3139 13.8414 16.3832 14.5102 16.3885H14.5178C15.5529 16.3885 15.9563 14.7165 16.2235 13.6097C16.2808 13.3716 16.3304 13.166 16.3772 13.0149L16.3959 12.9525H16.3958C16.4003 12.9378 16.4027 12.9224 16.4027 12.9062C16.4027 12.8177 16.3309 12.7458 16.2423 12.7458C16.1736 12.7458 16.1151 12.789 16.0922 12.8497L16.0919 12.8496L16.0694 12.9117C15.9816 13.1549 15.9003 13.3848 15.8284 13.5886L15.8229 13.604C15.3749 14.8728 15.1704 15.4519 14.7698 15.4521L14.7599 15.4519L14.7543 15.4528L14.7443 15.4525C14.2316 15.4525 13.7487 13.368 13.567 12.5833C13.5355 12.4474 13.5067 12.3226 13.4801 12.2128H16.7958C16.8581 12.2128 16.9167 12.1972 16.9682 12.1702C16.9686 12.1701 16.9689 12.1699 16.9692 12.1698C16.9744 12.1671 16.9793 12.164 16.9843 12.1611C16.99 12.1579 16.9954 12.1546 17.0008 12.1511C17.0035 12.1494 17.006 12.1476 17.0085 12.1458C17.0165 12.1403 17.0243 12.1345 17.0318 12.1283C17.0324 12.1279 17.0328 12.1275 17.0334 12.1271C17.1169 12.0586 17.1702 11.9549 17.1702 11.8399Z" fill="white"/>
</svg>
