<svg width="32" height="32" viewBox="0 0 32 32" fill="none" xmlns="http://www.w3.org/2000/svg">
<path d="M0 8C0 3.58172 3.58172 0 8 0H24C28.4183 0 32 3.58172 32 8V24C32 28.4183 28.4183 32 24 32H8C3.58172 32 0 28.4183 0 24V8Z" fill="#007FD2"/>
<path d="M14.7361 10.1345C14.677 10.0565 14.6097 10.0156 14.535 10.0156C14.4733 10.0156 14.417 10.0433 14.3808 10.0664C13.8127 10.5125 13.0354 12.4026 12.3984 14.8929L12.9624 14.8994C14.076 14.912 15.226 14.9251 16.3627 14.9426C16.063 13.8019 15.7799 12.8241 15.5203 12.0348C15.1409 10.8812 14.8845 10.3648 14.7361 10.1345Z" fill="white"/>
<path fill-rule="evenodd" clip-rule="evenodd" d="M25 16C25 20.9704 20.9706 25 16 25C11.0294 25 7 20.9704 7 16C7 11.0294 11.0294 7 16 7C20.9706 7 25 11.0294 25 16ZM22.6473 15.7942C22.6473 15.563 22.4845 15.3704 22.2651 15.3264C22.2639 15.3263 22.2626 15.3259 22.2611 15.3255C22.2586 15.3252 22.2561 15.3243 22.2536 15.3239L22.2447 15.323C22.2214 15.3192 22.1977 15.3169 22.1735 15.3165L22.1104 15.3105C20.603 15.2027 19.0522 15.1602 17.5974 15.1311L17.5945 15.1204C16.8864 12.4645 16.002 9.74916 14.8094 9.74916C13.6981 9.75422 12.6964 11.5383 11.8313 15.053C11.2201 15.0452 10.6629 15.0367 10.1375 15.0277C10.1077 15.0272 10.081 15.027 10.0571 15.027C9.94506 15.027 9.8903 15.0317 9.86319 15.0353C9.56735 15.0877 9.35265 15.3458 9.35265 15.6492C9.35265 15.9586 9.58361 16.2239 9.88452 16.2673L9.89066 16.2736H11.5479C11.3941 16.9768 11.2593 17.6722 11.1467 18.3422L11.0973 18.6371L11.0968 18.6512C11.0979 18.8787 11.2839 19.0638 11.5112 19.0638C11.6554 19.0638 11.7861 18.9886 11.8607 18.8715L11.8725 18.8809L12.6872 16.2736H16.6114C16.9112 17.4064 17.2222 18.576 17.6332 19.6737C17.853 20.2607 18.3675 21.6355 19.2273 21.6423H19.2371C20.568 21.6423 21.0866 19.4927 21.4302 18.0696C21.5039 17.7635 21.5677 17.4991 21.6279 17.3048L21.6519 17.2246H21.6517C21.6575 17.2058 21.6606 17.1859 21.6606 17.1651C21.6606 17.0513 21.5683 16.9589 21.4544 16.9589C21.366 16.9589 21.2908 17.0144 21.2614 17.0925L21.261 17.0923L21.2321 17.1722C21.1192 17.4848 21.0147 17.7805 20.9222 18.0425L20.9151 18.0622C20.3392 19.6936 20.0762 20.4382 19.5611 20.4384L19.5485 20.4382L19.5413 20.4393L19.5284 20.4389C18.8692 20.4389 18.2484 17.7588 18.0147 16.75C17.9742 16.5752 17.9372 16.4148 17.903 16.2736H22.1661C22.2461 16.2736 22.3215 16.2536 22.3877 16.2189C22.3882 16.2187 22.3886 16.2185 22.3889 16.2183C22.3956 16.2149 22.4019 16.2109 22.4084 16.2071C22.4157 16.203 22.4227 16.1988 22.4296 16.1943C22.433 16.1921 22.4363 16.1898 22.4395 16.1874C22.4498 16.1804 22.4598 16.173 22.4695 16.165C22.4702 16.1645 22.4708 16.1639 22.4715 16.1634C22.5789 16.0754 22.6473 15.942 22.6473 15.7942Z" fill="white"/>
</svg>
