<svg width="16" height="16" viewBox="0 0 16 16" fill="none" xmlns="http://www.w3.org/2000/svg">
<path d="M0 4C0 1.79086 1.79086 0 4 0H12C14.2091 0 16 1.79086 16 4V12C16 14.2091 14.2091 16 12 16H4C1.79086 16 0 14.2091 0 12V4Z" fill="#292A2E"/>
<path d="M5 12.36C5 12.3066 5.02541 12.28 5.07648 12.28H10.2609C10.3114 12.28 10.3369 12.3066 10.3369 12.36V12.92C10.3369 12.9732 10.3114 13 10.2609 13H5.07648C5.02541 13 5 12.9732 5 12.92V12.36ZM5 3.08C5 3.02676 5.02541 3 5.07648 3H10.2609C10.3114 3 10.3369 3.02676 10.3369 3.08V3.63998C10.3369 3.69336 10.3114 3.71998 10.2609 3.71998H5.07648C5.02541 3.71998 5 3.69336 5 3.63998V3.08Z" fill="white"/>
<path d="M5.21904 9.20771H5.83065C5.88156 9.20771 5.90708 9.2345 5.90708 9.28773C5.92739 9.7571 6.09687 10.0865 6.41546 10.2757C6.7339 10.4651 7.17612 10.5597 7.74185 10.5597C8.24128 10.5597 8.63367 10.4624 8.91915 10.2677C9.20451 10.073 9.34725 9.79709 9.34725 9.43969C9.34725 9.18372 9.29628 8.98513 9.19438 8.84371C9.09233 8.70247 8.92163 8.58909 8.68214 8.5037C8.44255 8.41846 8.08322 8.3357 7.60424 8.25571C7.06396 8.16508 6.62819 8.05173 6.29693 7.91574C5.96561 7.77972 5.71596 7.5971 5.54774 7.36774C5.37953 7.13849 5.29548 6.84245 5.29548 6.47973C5.29548 6.20773 5.3745 5.93707 5.53246 5.66773C5.69041 5.39845 5.94151 5.17308 6.28553 4.9917C6.62955 4.81045 7.06396 4.71973 7.58895 4.71973C8.11376 4.71973 8.55214 4.81573 8.90384 5.00773C9.25548 5.19973 9.51667 5.44107 9.68744 5.7317C9.85817 6.02242 9.95121 6.32246 9.96645 6.63174C9.96645 6.6851 9.94093 6.71175 9.89 6.71175H9.27841C9.22741 6.71175 9.20196 6.6851 9.20196 6.63174C9.18162 6.29572 9.04647 6.01309 8.7968 5.78372C8.5471 5.5545 8.14435 5.43971 7.58895 5.43971C7.0385 5.43971 6.64603 5.54109 6.41161 5.74372C6.17719 5.94649 6.05998 6.19174 6.05998 6.47973C6.05998 6.70912 6.10581 6.89309 6.19756 7.0317C6.28932 7.1705 6.45235 7.28512 6.68687 7.37572C6.92119 7.46647 7.26783 7.55167 7.7265 7.63169C8.28713 7.72769 8.73431 7.83849 9.06816 7.96372C9.40197 8.0891 9.65936 8.26774 9.84034 8.49973C10.0211 8.73175 10.1117 9.0451 10.1117 9.43969C10.1117 9.8077 10.0047 10.1317 9.79065 10.4117C9.5766 10.6917 9.2899 10.9065 8.9306 11.0557C8.57126 11.205 8.17501 11.2797 7.74185 11.2797C7.30343 11.2797 6.89195 11.217 6.50718 11.0917C6.12233 10.9665 5.80257 10.7545 5.54774 10.4557C5.29289 10.1571 5.1579 9.76771 5.14258 9.28773C5.14258 9.2345 5.16807 9.20771 5.21904 9.20771Z" fill="white"/>
</svg>
