<svg width="20" height="20" viewBox="0 0 20 20" fill="none" xmlns="http://www.w3.org/2000/svg">
<path d="M0 5C0 2.23858 2.23858 0 5 0H15C17.7614 0 20 2.23858 20 5V15C20 17.7614 17.7614 20 15 20H5C2.23858 20 0 17.7614 0 15V5Z" fill="#292A2E"/>
<path d="M7 14.523C7 14.463 7.02856 14.4331 7.08598 14.4331H12.9146C12.9713 14.4331 13 14.463 13 14.523V15.1525C13 15.2124 12.9713 15.2425 12.9146 15.2425H7.08598C7.02856 15.2425 7 15.2124 7 15.1525V14.523ZM7 4.08994C7 4.03008 7.02856 4 7.08598 4H12.9146C12.9713 4 13 4.03008 13 4.08994V4.7195C13 4.77951 12.9713 4.80944 12.9146 4.80944H7.08598C7.02856 4.80944 7 4.77951 7 4.7195V4.08994Z" fill="white"/>
<path d="M7.24612 10.9792H7.93372C7.99095 10.9792 8.01965 11.0093 8.01965 11.0692C8.04248 11.5969 8.23302 11.9672 8.5912 12.1799C8.9492 12.3928 9.44636 12.4992 10.0824 12.4992C10.6439 12.4992 11.085 12.3898 11.406 12.1709C11.7268 11.9521 11.8873 11.6418 11.8873 11.24C11.8873 10.9522 11.83 10.729 11.7154 10.57C11.6007 10.4112 11.4088 10.2837 11.1395 10.1877C10.8701 10.0919 10.4662 9.99885 9.92768 9.90893C9.32026 9.80703 8.83035 9.6796 8.45794 9.52671C8.08544 9.37379 7.80478 9.16848 7.61566 8.91062C7.42654 8.65289 7.33205 8.32006 7.33205 7.91227C7.33205 7.60648 7.4209 7.30219 7.59848 6.99939C7.77605 6.69665 8.05836 6.44328 8.44512 6.23936C8.83188 6.03559 9.32026 5.93359 9.91049 5.93359C10.5005 5.93359 10.9934 6.04152 11.3888 6.25738C11.7841 6.47324 12.0777 6.74456 12.2697 7.0713C12.4617 7.39815 12.5663 7.73547 12.5834 8.08318C12.5834 8.14316 12.5547 8.17312 12.4974 8.17312H11.8099C11.7525 8.17312 11.7239 8.14316 11.7239 8.08318C11.701 7.70541 11.5491 7.38766 11.2684 7.12979C10.9877 6.87209 10.5349 6.74303 9.91049 6.74303C9.29165 6.74303 8.85041 6.85701 8.58686 7.08481C8.32332 7.31278 8.19155 7.5885 8.19155 7.91227C8.19155 8.17017 8.24307 8.377 8.34622 8.53283C8.44938 8.68887 8.63267 8.81774 8.89633 8.9196C9.15976 9.02162 9.54947 9.11741 10.0651 9.20737C10.6954 9.3153 11.1982 9.43986 11.5735 9.58065C11.9488 9.72161 12.2382 9.92245 12.4416 10.1833C12.6449 10.4441 12.7467 10.7964 12.7467 11.24C12.7467 11.6537 12.6264 12.018 12.3858 12.3328C12.1451 12.6476 11.8228 12.889 11.4188 13.0569C11.0149 13.2246 10.5694 13.3087 10.0824 13.3087C9.58949 13.3087 9.12688 13.2381 8.69431 13.0973C8.26164 12.9565 7.90215 12.7182 7.61566 12.3823C7.32914 12.0465 7.17738 11.6088 7.16016 11.0692C7.16016 11.0093 7.18881 10.9792 7.24612 10.9792Z" fill="white"/>
</svg>
