<svg width="24" height="24" viewBox="0 0 24 24" fill="none" xmlns="http://www.w3.org/2000/svg">
<path d="M0 6.39569C0 2.86345 2.86345 0 6.39569 0H17.6043C21.1366 0 24 2.86345 24 6.39569V17.6043C24 21.1366 21.1366 24 17.6043 24H6.39569C2.86345 24 0 21.1366 0 17.6043V6.39569Z" fill="#292A2E"/>
<path d="M8 18.104C8 18.0293 8.03557 17.992 8.10707 17.992H15.3653C15.4359 17.992 15.4716 18.0293 15.4716 18.104V18.888C15.4716 18.9625 15.4359 19 15.3653 19H8.10707C8.03557 19 8 18.9625 8 18.888V18.104ZM8 5.112C8 5.03746 8.03557 5 8.10707 5H15.3653C15.4359 5 15.4716 5.03746 15.4716 5.112V5.89597C15.4716 5.97071 15.4359 6.00798 15.3653 6.00798H8.10707C8.03557 6.00798 8 5.97071 8 5.89597V5.112Z" fill="white"/>
<path d="M8.30627 13.6914H9.16252C9.23379 13.6914 9.26953 13.7289 9.26953 13.8034C9.29796 14.4605 9.53523 14.9217 9.98126 15.1866C10.4271 15.4517 11.0462 15.5842 11.8382 15.5842C12.5374 15.5842 13.0867 15.448 13.4864 15.1754C13.8859 14.9028 14.0858 14.5165 14.0858 14.0162C14.0858 13.6578 14.0144 13.3798 13.8717 13.1818C13.7289 12.984 13.4899 12.8253 13.1546 12.7058C12.8192 12.5864 12.3161 12.4706 11.6455 12.3586C10.8891 12.2317 10.2791 12.073 9.81531 11.8826C9.35146 11.6922 9.00196 11.4365 8.76645 11.1154C8.53095 10.7945 8.41328 10.38 8.41328 9.8722C8.41328 9.49141 8.52391 9.11248 8.74505 8.73541C8.96618 8.35842 9.31772 8.0429 9.79935 7.78897C10.281 7.53522 10.8891 7.4082 11.6241 7.4082C12.3589 7.4082 12.9726 7.54261 13.465 7.81141C13.9573 8.08021 14.3229 8.41808 14.562 8.82497C14.801 9.23197 14.9313 9.65203 14.9526 10.085C14.9526 10.1597 14.9169 10.197 14.8456 10.197H13.9894C13.918 10.197 13.8824 10.1597 13.8824 10.085C13.8539 9.6146 13.6647 9.21891 13.3151 8.89779C12.9655 8.57689 12.4017 8.41617 11.6241 8.41617C10.8535 8.41617 10.304 8.55811 9.97586 8.84179C9.64768 9.12567 9.48358 9.46902 9.48358 9.8722C9.48358 10.1934 9.54774 10.4509 9.6762 10.645C9.80465 10.8393 10.0329 10.9998 10.3612 11.1266C10.6893 11.2536 11.1746 11.3729 11.8167 11.485C12.6016 11.6194 13.2276 11.7745 13.695 11.9498C14.1624 12.1253 14.5227 12.3754 14.7761 12.7002C15.0292 13.025 15.156 13.4637 15.156 14.0162C15.156 14.5314 15.0061 14.985 14.7065 15.377C14.4069 15.769 14.0055 16.0697 13.5025 16.2786C12.9994 16.4875 12.4446 16.5922 11.8382 16.5922C11.2244 16.5922 10.6483 16.5043 10.1097 16.3289C9.57087 16.1536 9.12321 15.8569 8.76645 15.4386C8.40965 15.0205 8.22067 14.4754 8.19922 13.8034C8.19922 13.7289 8.2349 13.6914 8.30627 13.6914Z" fill="white"/>
</svg>
