<svg width="32" height="32" viewBox="0 0 32 32" fill="none" xmlns="http://www.w3.org/2000/svg">
<path d="M0 8C0 3.58172 3.58172 0 8 0H24C28.4183 0 32 3.58172 32 8V24C32 28.4183 28.4183 32 24 32H8C3.58172 32 0 28.4183 0 24V8Z" fill="#292A2E"/>
<path d="M11 23.848C11 23.752 11.0457 23.704 11.1377 23.704H20.4696C20.5605 23.704 20.6064 23.752 20.6064 23.848V24.856C20.6064 24.9518 20.5605 25 20.4696 25H11.1377C11.0457 25 11 24.9518 11 24.856V23.848ZM11 7.144C11 7.04816 11.0457 7 11.1377 7H20.4696C20.5605 7 20.6064 7.04816 20.6064 7.144V8.15196C20.6064 8.24805 20.5605 8.29597 20.4696 8.29597H11.1377C11.0457 8.29597 11 8.24805 11 8.15196V7.144Z" fill="white"/>
<path d="M11.3935 18.175H12.4944C12.586 18.175 12.632 18.2233 12.632 18.3191C12.6685 19.1639 12.9736 19.7569 13.5471 20.0975C14.1202 20.4384 14.9162 20.6087 15.9346 20.6087C16.8335 20.6087 17.5398 20.4335 18.0537 20.083C18.5673 19.7326 18.8243 19.2359 18.8243 18.5926C18.8243 18.1319 18.7325 17.7744 18.5491 17.5199C18.3654 17.2656 18.0582 17.0615 17.6271 16.9078C17.1958 16.7544 16.549 16.6054 15.6869 16.4615C14.7143 16.2983 13.93 16.0943 13.3337 15.8495C12.7373 15.6047 12.288 15.2759 11.9852 14.8631C11.6824 14.4505 11.5311 13.9176 11.5311 13.2647C11.5311 12.7751 11.6733 12.2879 11.9576 11.8031C12.242 11.3184 12.6939 10.9127 13.3132 10.5862C13.9324 10.26 14.7143 10.0967 15.6593 10.0967C16.604 10.0967 17.3931 10.2695 18.0261 10.6151C18.6591 10.9607 19.1292 11.3951 19.4366 11.9182C19.7439 12.4415 19.9114 12.9816 19.9388 13.5383C19.9388 13.6343 19.8929 13.6823 19.8012 13.6823H18.7004C18.6086 13.6823 18.5627 13.6343 18.5627 13.5383C18.5261 12.9335 18.2829 12.4247 17.8335 12.0119C17.384 11.5993 16.6591 11.3926 15.6593 11.3926C14.6685 11.3926 13.9621 11.5751 13.5401 11.9399C13.1182 12.3048 12.9072 12.7463 12.9072 13.2647C12.9072 13.6776 12.9897 14.0087 13.1548 14.2582C13.32 14.5081 13.6135 14.7144 14.0356 14.8775C14.4574 15.0408 15.0813 15.1942 15.9069 15.3382C16.916 15.511 17.721 15.7104 18.3219 15.9359C18.9228 16.1616 19.3861 16.4831 19.7118 16.9007C20.0373 17.3183 20.2003 17.8824 20.2003 18.5926C20.2003 19.255 20.0076 19.8382 19.6224 20.3422C19.2371 20.8462 18.721 21.2328 18.0743 21.5015C17.4275 21.7701 16.7142 21.9047 15.9346 21.9047C15.1454 21.9047 14.4047 21.7917 13.7122 21.5662C13.0194 21.3408 12.4438 20.9593 11.9852 20.4215C11.5264 19.8839 11.2834 19.183 11.2559 18.3191C11.2559 18.2233 11.3017 18.175 11.3935 18.175Z" fill="white"/>
</svg>
