<svg width="16" height="16" viewBox="0 0 16 16" fill="none" xmlns="http://www.w3.org/2000/svg">
<g clip-path="url(#clip0_237_7658)">
<g clip-path="url(#clip1_237_7658)">
<path d="M3.26348 10.3124C3.26348 11.2321 2.52018 11.9754 1.60049 11.9754C0.680807 11.9754 -0.0625 11.2321 -0.0625 10.3124C-0.0625 9.39272 0.680807 8.64941 1.60049 8.64941H3.26348V10.3124ZM4.09498 10.3124C4.09498 9.39272 4.83829 8.64941 5.75797 8.64941C6.67766 8.64941 7.42096 9.39272 7.42096 10.3124V14.4699C7.42096 15.3896 6.67766 16.1329 5.75797 16.1329C4.83829 16.1329 4.09498 15.3896 4.09498 14.4699V10.3124Z" fill="#E01E5A"/>
<path d="M5.75885 3.63458C4.83917 3.63458 4.09586 2.89127 4.09586 1.97159C4.09586 1.0519 4.83917 0.308594 5.75885 0.308594C6.67854 0.308594 7.42184 1.0519 7.42184 1.97159V3.63458H5.75885ZM5.75885 4.47867C6.67854 4.47867 7.42184 5.22198 7.42184 6.14166C7.42184 7.06135 6.67854 7.80466 5.75885 7.80466H1.58877C0.669088 7.80466 -0.0742188 7.06135 -0.0742188 6.14166C-0.0742188 5.22198 0.669088 4.47867 1.58877 4.47867H5.75885Z" fill="#36C5F0"/>
<path d="M12.4231 6.14166C12.4231 5.22198 13.1664 4.47867 14.0861 4.47867C15.0058 4.47867 15.7491 5.22198 15.7491 6.14166C15.7491 7.06135 15.0058 7.80466 14.0861 7.80466H12.4231V6.14166ZM11.5916 6.14166C11.5916 7.06135 10.8483 7.80466 9.92862 7.80466C9.00893 7.80466 8.26562 7.06135 8.26562 6.14166V1.97159C8.26562 1.0519 9.00893 0.308594 9.92862 0.308594C10.8483 0.308594 11.5916 1.0519 11.5916 1.97159V6.14166V6.14166Z" fill="#2EB67D"/>
<path d="M9.92862 12.8069C10.8483 12.8069 11.5916 13.5502 11.5916 14.4699C11.5916 15.3896 10.8483 16.1329 9.92862 16.1329C9.00893 16.1329 8.26562 15.3896 8.26562 14.4699V12.8069H9.92862ZM9.92862 11.9754C9.00893 11.9754 8.26562 11.2321 8.26562 10.3124C8.26562 9.39272 9.00893 8.64941 9.92862 8.64941H14.0987C15.0184 8.64941 15.7617 9.39272 15.7617 10.3124C15.7617 11.2321 15.0184 11.9754 14.0987 11.9754H9.92862Z" fill="#ECB22E"/>
</g>
</g>
<defs>
<clipPath id="clip0_237_7658">
<path d="M0 4C0 1.79086 1.79086 0 4 0H12C14.2091 0 16 1.79086 16 4V12C16 14.2091 14.2091 16 12 16H4C1.79086 16 0 14.2091 0 12V4Z" fill="white"/>
</clipPath>
<clipPath id="clip1_237_7658">
<rect width="16" height="16" fill="white" transform="translate(-0.164062 0.233398)"/>
</clipPath>
</defs>
</svg>
