<svg width="16" height="16" viewBox="0 0 16 16" fill="none" xmlns="http://www.w3.org/2000/svg">
<mask id="path-1-inside-1_237_7652" fill="white">
<path d="M0 4C0 1.79086 1.79086 0 4 0H12C14.2091 0 16 1.79086 16 4V12C16 14.2091 14.2091 16 12 16H4C1.79086 16 0 14.2091 0 12V4Z"/>
</mask>
<path d="M0 4C0 1.79086 1.79086 0 4 0H12C14.2091 0 16 1.79086 16 4V12C16 14.2091 14.2091 16 12 16H4C1.79086 16 0 14.2091 0 12V4Z" fill="white"/>
<path d="M4 0V1H12V0V-1H4V0ZM16 4H15V12H16H17V4H16ZM12 16V15H4V16V17H12V16ZM0 12H1V4H0H-1V12H0ZM4 16V15C2.34315 15 1 13.6569 1 12H0H-1C-1 14.7614 1.23858 17 4 17V16ZM16 12H15C15 13.6569 13.6569 15 12 15V16V17C14.7614 17 17 14.7614 17 12H16ZM12 0V1C13.6569 1 15 2.34315 15 4H16H17C17 1.23858 14.7614 -1 12 -1V0ZM4 0V-1C1.23858 -1 -1 1.23858 -1 4H0H1C1 2.34315 2.34315 1 4 1V0Z" fill="#0B1228" fill-opacity="0.14" mask="url(#path-1-inside-1_237_7652)"/>
<g clip-path="url(#clip0_237_7652)">
<path d="M5.14124 9.29914C5.14124 9.87394 4.67667 10.3385 4.10187 10.3385C3.52707 10.3385 3.0625 9.87394 3.0625 9.29914C3.0625 8.72433 3.52707 8.25977 4.10187 8.25977H5.14124V9.29914ZM5.66092 9.29914C5.66092 8.72433 6.12549 8.25977 6.70029 8.25977C7.2751 8.25977 7.73967 8.72433 7.73967 9.29914V11.8976C7.73967 12.4724 7.2751 12.9369 6.70029 12.9369C6.12549 12.9369 5.66092 12.4724 5.66092 11.8976V9.29914Z" fill="#E01E5A"/>
<path d="M6.70036 5.12561C6.12555 5.12561 5.66099 4.66105 5.66099 4.08624C5.66099 3.51144 6.12555 3.04688 6.70036 3.04688C7.27516 3.04688 7.73973 3.51144 7.73973 4.08624V5.12561H6.70036ZM6.70036 5.65317C7.27516 5.65317 7.73973 6.11774 7.73973 6.69254C7.73973 7.26735 7.27516 7.73191 6.70036 7.73191H4.09406C3.51925 7.73191 3.05469 7.26735 3.05469 6.69254C3.05469 6.11774 3.51925 5.65317 4.09406 5.65317H6.70036Z" fill="#36C5F0"/>
<path d="M10.866 6.69254C10.866 6.11774 11.3306 5.65317 11.9054 5.65317C12.4802 5.65317 12.9447 6.11774 12.9447 6.69254C12.9447 7.26735 12.4802 7.73191 11.9054 7.73191H10.866V6.69254ZM10.3463 6.69254C10.3463 7.26735 9.88175 7.73191 9.30695 7.73191C8.73214 7.73191 8.26758 7.26735 8.26758 6.69254V4.08624C8.26758 3.51144 8.73214 3.04688 9.30695 3.04688C9.88175 3.04688 10.3463 3.51144 10.3463 4.08624V6.69254V6.69254Z" fill="#2EB67D"/>
<path d="M9.30695 10.8582C9.88175 10.8582 10.3463 11.3228 10.3463 11.8976C10.3463 12.4724 9.88175 12.9369 9.30695 12.9369C8.73214 12.9369 8.26758 12.4724 8.26758 11.8976V10.8582H9.30695ZM9.30695 10.3385C8.73214 10.3385 8.26758 9.87394 8.26758 9.29914C8.26758 8.72433 8.73214 8.25977 9.30695 8.25977H11.9132C12.488 8.25977 12.9526 8.72433 12.9526 9.29914C12.9526 9.87394 12.488 10.3385 11.9132 10.3385H9.30695Z" fill="#ECB22E"/>
</g>
<defs>
<clipPath id="clip0_237_7652">
<rect width="10" height="10" fill="white" transform="translate(3 3)"/>
</clipPath>
</defs>
</svg>
