<svg width="20" height="20" viewBox="0 0 20 20" fill="none" xmlns="http://www.w3.org/2000/svg">
<mask id="path-1-inside-1_237_7646" fill="white">
<path d="M0 5C0 2.23858 2.23858 0 5 0H15C17.7614 0 20 2.23858 20 5V15C20 17.7614 17.7614 20 15 20H5C2.23858 20 0 17.7614 0 15V5Z"/>
</mask>
<path d="M0 5C0 2.23858 2.23858 0 5 0H15C17.7614 0 20 2.23858 20 5V15C20 17.7614 17.7614 20 15 20H5C2.23858 20 0 17.7614 0 15V5Z" fill="white"/>
<path d="M5 0V1H15V0V-1H5V0ZM20 5H19V15H20H21V5H20ZM15 20V19H5V20V21H15V20ZM0 15H1V5H0H-1V15H0ZM5 20V19C2.79086 19 1 17.2091 1 15H0H-1C-1 18.3137 1.68629 21 5 21V20ZM20 15H19C19 17.2091 17.2091 19 15 19V20V21C18.3137 21 21 18.3137 21 15H20ZM15 0V1C17.2091 1 19 2.79086 19 5H20H21C21 1.68629 18.3137 -1 15 -1V0ZM5 0V-1C1.68629 -1 -1 1.68629 -1 5H0H1C1 2.79086 2.79086 1 5 1V0Z" fill="#0B1228" fill-opacity="0.14" mask="url(#path-1-inside-1_237_7646)"/>
<g clip-path="url(#clip0_237_7646)">
<path d="M7.14124 11.2991C7.14124 11.8739 6.67667 12.3385 6.10187 12.3385C5.52707 12.3385 5.0625 11.8739 5.0625 11.2991C5.0625 10.7243 5.52707 10.2598 6.10187 10.2598H7.14124V11.2991ZM7.66093 11.2991C7.66093 10.7243 8.12549 10.2598 8.7003 10.2598C9.2751 10.2598 9.73967 10.7243 9.73967 11.2991V13.8976C9.73967 14.4724 9.2751 14.9369 8.7003 14.9369C8.12549 14.9369 7.66093 14.4724 7.66093 13.8976V11.2991Z" fill="#E01E5A"/>
<path d="M8.70036 7.12562C8.12555 7.12562 7.66099 6.66105 7.66099 6.08625C7.66099 5.51144 8.12555 5.04688 8.70036 5.04688C9.27516 5.04688 9.73973 5.51144 9.73973 6.08625V7.12562H8.70036ZM8.70036 7.65317C9.27516 7.65317 9.73973 8.11774 9.73973 8.69254C9.73973 9.26735 9.27516 9.73191 8.70036 9.73191H6.09406C5.51925 9.73191 5.05469 9.26735 5.05469 8.69254C5.05469 8.11774 5.51925 7.65317 6.09406 7.65317H8.70036Z" fill="#36C5F0"/>
<path d="M12.866 8.69254C12.866 8.11774 13.3306 7.65317 13.9054 7.65317C14.4802 7.65317 14.9447 8.11774 14.9447 8.69254C14.9447 9.26735 14.4802 9.73191 13.9054 9.73191H12.866V8.69254ZM12.3463 8.69254C12.3463 9.26735 11.8818 9.73191 11.3069 9.73191C10.7321 9.73191 10.2676 9.26735 10.2676 8.69254V6.08625C10.2676 5.51144 10.7321 5.04688 11.3069 5.04688C11.8818 5.04688 12.3463 5.51144 12.3463 6.08625V8.69254V8.69254Z" fill="#2EB67D"/>
<path d="M11.3069 12.8582C11.8818 12.8582 12.3463 13.3228 12.3463 13.8976C12.3463 14.4724 11.8818 14.9369 11.3069 14.9369C10.7321 14.9369 10.2676 14.4724 10.2676 13.8976V12.8582H11.3069ZM11.3069 12.3385C10.7321 12.3385 10.2676 11.8739 10.2676 11.2991C10.2676 10.7243 10.7321 10.2598 11.3069 10.2598H13.9132C14.4881 10.2598 14.9526 10.7243 14.9526 11.2991C14.9526 11.8739 14.4881 12.3385 13.9132 12.3385H11.3069Z" fill="#ECB22E"/>
</g>
<defs>
<clipPath id="clip0_237_7646">
<rect width="10" height="10" fill="white" transform="translate(5 5)"/>
</clipPath>
</defs>
</svg>
