<svg width="24" height="24" viewBox="0 0 24 24" fill="none" xmlns="http://www.w3.org/2000/svg">
<mask id="path-1-inside-1_237_7640" fill="white">
<path d="M0 6.39569C0 2.86345 2.86345 0 6.39569 0H17.6043C21.1366 0 24 2.86345 24 6.39569V17.6043C24 21.1366 21.1366 24 17.6043 24H6.39569C2.86345 24 0 21.1366 0 17.6043V6.39569Z"/>
</mask>
<path d="M0 6.39569C0 2.86345 2.86345 0 6.39569 0H17.6043C21.1366 0 24 2.86345 24 6.39569V17.6043C24 21.1366 21.1366 24 17.6043 24H6.39569C2.86345 24 0 21.1366 0 17.6043V6.39569Z" fill="white"/>
<path d="M6.39569 0V1H17.6043V0V-1H6.39569V0ZM24 6.39569H23V17.6043H24H25V6.39569H24ZM17.6043 24V23H6.39569V24V25H17.6043V24ZM0 17.6043H1V6.39569H0H-1V17.6043H0ZM6.39569 24V23C3.41573 23 1 20.5843 1 17.6043H0H-1C-1 21.6888 2.31116 25 6.39569 25V24ZM24 17.6043H23C23 20.5843 20.5843 23 17.6043 23V24V25C21.6888 25 25 21.6888 25 17.6043H24ZM17.6043 0V1C20.5843 1 23 3.41573 23 6.39569H24H25C25 2.31116 21.6888 -1 17.6043 -1V0ZM6.39569 0V-1C2.31116 -1 -1 2.31116 -1 6.39569H0H1C1 3.41573 3.41573 1 6.39569 1V0Z" fill="#0B1228" fill-opacity="0.14" mask="url(#path-1-inside-1_237_7640)"/>
<g clip-path="url(#clip0_237_7640)">
<path d="M7.22218 13.8689C7.22218 14.788 6.47937 15.5308 5.56031 15.5308C4.64124 15.5308 3.89844 14.788 3.89844 13.8689C3.89844 12.9498 4.64124 12.207 5.56031 12.207H7.22218V13.8689ZM8.05312 13.8689C8.05312 12.9498 8.79592 12.207 9.71499 12.207C10.6341 12.207 11.3769 12.9498 11.3769 13.8689V18.0236C11.3769 18.9426 10.6341 19.6855 9.71499 19.6855C8.79592 19.6855 8.05312 18.9426 8.05312 18.0236V13.8689Z" fill="#E01E5A"/>
<path d="M9.71391 7.19581C8.79484 7.19581 8.05203 6.45301 8.05203 5.53394C8.05203 4.61488 8.79484 3.87207 9.71391 3.87207C10.633 3.87207 11.3758 4.61488 11.3758 5.53394V7.19581H9.71391ZM9.71391 8.03934C10.633 8.03934 11.3758 8.78215 11.3758 9.70121C11.3758 10.6203 10.633 11.3631 9.71391 11.3631H5.54664C4.62757 11.3631 3.88477 10.6203 3.88477 9.70121C3.88477 8.78215 4.62757 8.03934 5.54664 8.03934H9.71391Z" fill="#36C5F0"/>
<path d="M16.3734 9.70121C16.3734 8.78215 17.1162 8.03934 18.0353 8.03934C18.9544 8.03934 19.6972 8.78215 19.6972 9.70121C19.6972 10.6203 18.9544 11.3631 18.0353 11.3631H16.3734V9.70121ZM15.5425 9.70121C15.5425 10.6203 14.7997 11.3631 13.8806 11.3631C12.9616 11.3631 12.2188 10.6203 12.2188 9.70121V5.53394C12.2188 4.61488 12.9616 3.87207 13.8806 3.87207C14.7997 3.87207 15.5425 4.61488 15.5425 5.53394V9.70121V9.70121Z" fill="#2EB67D"/>
<path d="M13.8806 16.3617C14.7997 16.3617 15.5425 17.1045 15.5425 18.0236C15.5425 18.9426 14.7997 19.6855 13.8806 19.6855C12.9616 19.6855 12.2188 18.9426 12.2188 18.0236V16.3617H13.8806ZM13.8806 15.5308C12.9616 15.5308 12.2188 14.788 12.2188 13.8689C12.2188 12.9498 12.9616 12.207 13.8806 12.207H18.0479C18.967 12.207 19.7098 12.9498 19.7098 13.8689C19.7098 14.788 18.967 15.5308 18.0479 15.5308H13.8806Z" fill="#ECB22E"/>
</g>
<defs>
<clipPath id="clip0_237_7640">
<rect width="15.9892" height="15.9892" fill="white" transform="translate(3.79688 3.79688)"/>
</clipPath>
</defs>
</svg>
