<svg width="32" height="32" viewBox="0 0 32 32" fill="none" xmlns="http://www.w3.org/2000/svg">
<mask id="path-1-inside-1_237_7634" fill="white">
<path d="M0 8C0 3.58172 3.58172 0 8 0H24C28.4183 0 32 3.58172 32 8V24C32 28.4183 28.4183 32 24 32H8C3.58172 32 0 28.4183 0 24V8Z"/>
</mask>
<path d="M0 8C0 3.58172 3.58172 0 8 0H24C28.4183 0 32 3.58172 32 8V24C32 28.4183 28.4183 32 24 32H8C3.58172 32 0 28.4183 0 24V8Z" fill="white"/>
<path d="M8 0V1H24V0V-1H8V0ZM32 8H31V24H32H33V8H32ZM24 32V31H8V32V33H24V32ZM0 24H1V8H0H-1V24H0ZM8 32V31C4.13401 31 1 27.866 1 24H0H-1C-1 28.9706 3.02944 33 8 33V32ZM32 24H31C31 27.866 27.866 31 24 31V32V33C28.9706 33 33 28.9706 33 24H32ZM24 0V1C27.866 1 31 4.13401 31 8H32H33C33 3.02944 28.9706 -1 24 -1V0ZM8 0V-1C3.02944 -1 -1 3.02944 -1 8H0H1C1 4.13401 4.13401 1 8 1V0Z" fill="#0B1228" fill-opacity="0.14" mask="url(#path-1-inside-1_237_7634)"/>
<g clip-path="url(#clip0_237_7634)">
<path d="M11.2339 18.3386C11.2339 19.3733 10.3977 20.2095 9.36305 20.2095C8.32841 20.2095 7.49219 19.3733 7.49219 18.3386C7.49219 17.304 8.32841 16.4678 9.36305 16.4678H11.2339V18.3386ZM12.1694 18.3386C12.1694 17.304 13.0056 16.4678 14.0402 16.4678C15.0749 16.4678 15.9111 17.304 15.9111 18.3386V23.0158C15.9111 24.0504 15.0749 24.8867 14.0402 24.8867C13.0056 24.8867 12.1694 24.0504 12.1694 23.0158V18.3386Z" fill="#E01E5A"/>
<path d="M14.0407 10.8267C13.0061 10.8267 12.1699 9.99047 12.1699 8.95583C12.1699 7.92118 13.0061 7.08496 14.0407 7.08496C15.0754 7.08496 15.9116 7.92118 15.9116 8.95583V10.8267H14.0407ZM14.0407 11.7763C15.0754 11.7763 15.9116 12.6125 15.9116 13.6472C15.9116 14.6818 15.0754 15.518 14.0407 15.518H9.34938C8.31474 15.518 7.47852 14.6818 7.47852 13.6472C7.47852 12.6125 8.31474 11.7763 9.34938 11.7763H14.0407Z" fill="#36C5F0"/>
<path d="M21.5385 13.6472C21.5385 12.6125 22.3747 11.7763 23.4094 11.7763C24.444 11.7763 25.2802 12.6125 25.2802 13.6472C25.2802 14.6818 24.444 15.518 23.4094 15.518H21.5385V13.6472ZM20.6031 13.6472C20.6031 14.6818 19.7668 15.518 18.7322 15.518C17.6975 15.518 16.8613 14.6818 16.8613 13.6472V8.95583C16.8613 7.92118 17.6975 7.08496 18.7322 7.08496C19.7668 7.08496 20.6031 7.92118 20.6031 8.95583V13.6472V13.6472Z" fill="#2EB67D"/>
<path d="M18.7322 21.1449C19.7668 21.1449 20.6031 21.9812 20.6031 23.0158C20.6031 24.0504 19.7668 24.8867 18.7322 24.8867C17.6975 24.8867 16.8613 24.0504 16.8613 23.0158V21.1449H18.7322ZM18.7322 20.2095C17.6975 20.2095 16.8613 19.3733 16.8613 18.3386C16.8613 17.304 17.6975 16.4678 18.7322 16.4678H23.4235C24.4582 16.4678 25.2944 17.304 25.2944 18.3386C25.2944 19.3733 24.4582 20.2095 23.4235 20.2095H18.7322Z" fill="#ECB22E"/>
</g>
<defs>
<clipPath id="clip0_237_7634">
<rect width="18" height="18" fill="white" transform="translate(7.37891 7)"/>
</clipPath>
</defs>
</svg>
