<svg width="16" height="16" viewBox="0 0 16 16" fill="none" xmlns="http://www.w3.org/2000/svg">
<path d="M0 4C0 1.79086 1.79086 0 4 0H12C14.2091 0 16 1.79086 16 4V12C16 14.2091 14.2091 16 12 16H4C1.79086 16 0 14.2091 0 12V4Z" fill="#0172CE"/>
<path d="M8.94505 9.34933C8.93546 9.11712 8.92906 8.88484 8.92724 8.65246C8.92577 8.46723 8.92682 8.28201 8.92528 8.09679C8.92409 7.9524 8.92392 7.8079 8.90562 7.66428C8.89505 7.58146 8.87801 7.50019 8.84163 7.4243C8.77725 7.28991 8.671 7.19919 8.53762 7.13852C8.3517 7.05393 8.15819 7.04805 7.96131 7.08874C7.80251 7.12156 7.65556 7.18481 7.51593 7.26619C7.47429 7.29044 7.43388 7.31661 7.39095 7.34512C7.39095 7.3369 7.39095 7.33228 7.39095 7.32763C7.39043 7.19482 7.3899 7.06204 7.38934 6.92923C7.38826 6.6578 7.38675 6.3864 7.38063 6.11504C7.38011 6.09118 7.37965 6.06725 7.37731 6.04353C7.37451 6.01522 7.35072 5.99591 7.32598 6.00074C7.21808 6.0218 7.11018 6.04311 7.00232 6.06435C6.86415 6.09157 6.72553 6.11623 6.58607 6.13607C6.51921 6.14559 6.45232 6.15475 6.38546 6.16417C6.38028 6.1649 6.37426 6.1656 6.37188 6.17071C6.36898 6.17687 6.37475 6.1804 6.37874 6.18316C6.38465 6.18722 6.38399 6.19303 6.38479 6.19866C6.39879 6.29603 6.4096 6.39379 6.41845 6.49175C6.4322 6.6437 6.44049 6.79603 6.4463 6.94851C6.45494 7.17491 6.45896 7.40145 6.46047 7.62803C6.46495 8.29727 6.46026 8.9665 6.45403 9.63574C6.45365 9.67639 6.46435 9.68692 6.50494 9.6864C6.74037 9.68332 6.97576 9.68014 7.21119 9.67713C7.27878 9.67625 7.34641 9.67618 7.41398 9.67503C7.44214 9.67454 7.46411 9.66355 7.46135 9.62685C7.45435 9.5334 7.4512 9.43963 7.44634 9.34601C7.43581 9.14245 7.42692 8.93883 7.42255 8.73503C7.42073 8.65001 7.41828 8.56499 7.41761 8.47997C7.41604 8.28135 7.41541 8.08276 7.41412 7.88414C7.41405 7.87508 7.41719 7.87081 7.42556 7.86759C7.45753 7.8552 7.48923 7.84201 7.52104 7.82914C7.59101 7.8008 7.6628 7.78456 7.73915 7.79233C7.80471 7.79898 7.8553 7.82728 7.88683 7.88645C7.89753 7.90653 7.90614 7.92745 7.91268 7.94925C7.94288 8.04987 7.95092 8.15382 7.95722 8.25777C7.96597 8.40198 7.96796 8.54641 7.96859 8.69087C7.97003 9.0095 7.96632 9.32806 7.96478 9.64665C7.9646 9.68542 7.97713 9.69787 8.01607 9.69773C8.15245 9.69714 8.28873 9.69144 8.42504 9.68829C8.49844 9.68661 8.57188 9.68549 8.64528 9.68843C8.73436 9.69196 8.82336 9.69777 8.91258 9.69773C8.94624 9.69773 8.96156 9.68122 8.95985 9.64784C8.95478 9.54841 8.94911 9.44898 8.94502 9.34951L8.94505 9.34933Z" fill="white"/>
<path d="M12.9606 6.01266C12.9346 6.00898 12.9098 6.017 12.8847 6.02102C12.7376 6.0445 12.5905 6.06878 12.4435 6.09264C12.3033 6.11538 12.1632 6.1383 12.0229 6.16051C11.9748 6.16814 11.9551 6.19228 11.9596 6.2406C11.9676 6.32639 11.9756 6.41214 11.9827 6.498C11.994 6.63375 12.0047 6.76957 12.0156 6.90532C12.0278 7.05738 12.0372 7.20964 12.0459 7.36194C12.0541 7.50612 12.0611 7.65037 12.0682 7.79459C12.0785 8.00455 12.0886 8.21454 12.0985 8.4245C12.1003 8.46302 12.119 8.48153 12.158 8.4809C12.2664 8.47908 12.3748 8.47705 12.4832 8.47509C12.4832 8.47474 12.4832 8.47439 12.4832 8.47404C12.5071 8.47404 12.531 8.47436 12.5548 8.47397C12.6422 8.47268 12.7296 8.47131 12.817 8.46967C12.8501 8.46904 12.871 8.44938 12.8717 8.4188C12.8741 8.32272 12.8758 8.22665 12.8788 8.13061C12.8833 7.99091 12.8878 7.8512 12.8939 7.71157C12.902 7.52949 12.9113 7.34746 12.9207 7.16545C12.9262 7.06021 12.9324 6.955 12.9393 6.84983C12.9477 6.72143 12.9564 6.59306 12.9662 6.4648C12.9742 6.36092 12.9838 6.25715 12.9927 6.15334C12.9954 6.12147 12.9992 6.0896 13.0003 6.05765C13.0012 6.02854 12.9892 6.01672 12.9606 6.01266H12.9606Z" fill="white"/>
<path d="M12.9185 9.23728C12.9185 9.10044 12.9185 8.96361 12.9185 8.82677C12.9185 8.78479 12.9041 8.77142 12.8616 8.77496C12.8274 8.77779 12.7933 8.78234 12.759 8.78461C12.584 8.79612 12.4088 8.8019 12.2333 8.79682C12.1675 8.7949 12.1018 8.7922 12.0362 8.78605C12.0017 8.78279 11.9825 8.79728 11.9826 8.82747C11.9827 8.86809 11.9826 8.90878 11.9837 8.94926C11.9863 9.04593 11.9866 9.1425 11.9853 9.23917C11.9834 9.38121 11.983 9.5233 11.9824 9.66538C11.9823 9.69596 11.9997 9.71184 12.0297 9.70999C12.0815 9.70681 12.1331 9.70296 12.1849 9.69981C12.342 9.69026 12.4993 9.68854 12.6566 9.69246C12.7288 9.69424 12.801 9.69596 12.8732 9.69806C12.8927 9.69862 12.9074 9.69176 12.9155 9.67364C12.9196 9.6644 12.9185 9.65418 12.9185 9.64432C12.9185 9.50864 12.9185 9.37296 12.9185 9.23728Z" fill="white"/>
<path d="M6.16894 9.2931C5.88386 8.35562 5.59875 7.41817 5.31368 6.48069C5.27292 6.34669 5.23219 6.21269 5.19133 6.07868C5.17873 6.03736 5.14703 6.01693 5.10494 6.02375C5.03602 6.03492 4.96727 6.0472 4.89835 6.05839C4.67376 6.09488 4.44907 6.13071 4.22519 6.17144C4.16732 6.18197 4.12583 6.21408 4.10721 6.27048C3.73953 7.38353 3.3722 8.49665 3.0048 9.60977C2.98948 9.65616 3.01156 9.68653 3.06064 9.68653C3.33281 9.68653 3.60501 9.68653 3.87717 9.6866C3.8883 9.6866 3.89939 9.6866 3.90996 9.68282C3.92273 9.67824 3.93214 9.67026 3.93522 9.6563C3.94935 9.59217 3.96335 9.528 3.97766 9.46387C4.02094 9.26983 4.06436 9.07579 4.1077 8.88175C4.10966 8.8729 4.11134 8.86689 4.12404 8.86706C4.42238 8.8714 4.72075 8.87521 5.01909 8.8785C5.03284 8.87864 5.03784 8.88277 5.04067 8.89578C5.097 9.15305 5.15375 9.4102 5.21043 9.66739C5.21757 9.69972 5.22974 9.70955 5.26323 9.70997C5.26963 9.71004 5.27603 9.70966 5.28243 9.70948C5.43795 9.70528 5.59351 9.70109 5.71463 9.69783C5.90934 9.69783 6.06961 9.69797 6.22989 9.69773C6.26827 9.69766 6.28496 9.6746 6.27394 9.63835C6.23892 9.52325 6.20389 9.40817 6.16891 9.29306L6.16894 9.2931ZM4.8784 8.17701C4.69073 8.17662 4.50306 8.17655 4.31535 8.17708C4.29926 8.17711 4.29943 8.17232 4.30304 8.15941C4.38806 7.85422 4.46856 7.54783 4.54623 7.24071C4.56845 7.15279 4.5893 7.06455 4.61086 6.97646C4.61166 6.97324 4.61285 6.97009 4.6154 6.96218C4.676 7.2108 4.72992 7.4561 4.78583 7.7009C4.82074 7.85394 4.85612 8.00686 4.89212 8.15965C4.89562 8.17456 4.89271 8.17697 4.87844 8.17694L4.8784 8.17701Z" fill="white"/>
<path d="M11.5451 9.4269C11.5321 9.24038 11.5234 9.05365 11.5214 8.86668C11.5186 8.59406 11.5249 8.32151 11.5291 8.04896C11.5309 7.9284 11.5285 7.80797 11.5076 7.68859C11.477 7.51432 11.3923 7.37336 11.2504 7.26731C11.1457 7.18915 11.026 7.14577 10.8998 7.11802C10.6959 7.0732 10.4895 7.07086 10.2824 7.08443C10.1394 7.09381 9.99747 7.11302 9.85643 7.1388C9.71554 7.16455 9.57629 7.19716 9.43883 7.23726C9.40552 7.24698 9.39439 7.26129 9.39278 7.29614C9.391 7.33512 9.38984 7.37413 9.3882 7.4131C9.384 7.51261 9.37963 7.61208 9.37546 7.71158C9.37354 7.75755 9.37099 7.80353 9.37067 7.8495C9.37039 7.89103 9.40548 7.9095 9.4354 7.89775C9.54641 7.85422 9.65778 7.81192 9.77187 7.77715C9.94215 7.72522 10.1155 7.69353 10.2944 7.69727C10.3535 7.69849 10.4119 7.70378 10.4674 7.72606C10.5225 7.74818 10.5572 7.78722 10.5656 7.84708C10.5691 7.87256 10.567 7.89824 10.5666 7.92385C10.5664 7.93784 10.5615 7.94358 10.5469 7.94561C10.4841 7.95439 10.4213 7.96359 10.3588 7.97451C10.1694 8.00768 9.98298 8.05239 9.8029 8.12107C9.65578 8.17719 9.51664 8.24769 9.39453 8.34849C9.25616 8.46272 9.15781 8.6034 9.12009 8.78075C9.08346 8.9531 9.09683 9.12356 9.15326 9.29017C9.19605 9.41651 9.26718 9.52409 9.37326 9.60677C9.48543 9.6942 9.6145 9.73503 9.75511 9.74329C9.75515 9.74423 9.75525 9.74518 9.75539 9.74612H9.85332C9.85332 9.74511 9.85332 9.74413 9.85346 9.74315C9.90465 9.73912 9.95524 9.73139 10.0051 9.71915C10.2104 9.66876 10.3974 9.57801 10.5718 9.4601C10.5803 9.4544 10.5886 9.44848 10.5993 9.4411V9.46339C10.5993 9.52805 10.5992 9.5927 10.5994 9.65736C10.5994 9.69647 10.6134 9.71033 10.652 9.70977C10.7481 9.7084 10.8443 9.70687 10.9404 9.7055C11.1315 9.70284 11.3227 9.70029 11.5138 9.69759C11.5462 9.69714 11.5604 9.6822 11.5599 9.64984C11.5598 9.64634 11.5596 9.64284 11.5594 9.63938C11.5546 9.56849 11.5499 9.49764 11.545 9.42676L11.5451 9.4269ZM10.5765 8.7224C10.5765 8.80042 10.5763 8.87844 10.5769 8.95642C10.577 8.96856 10.5729 8.975 10.5626 8.98095C10.4682 9.03567 10.3685 9.07171 10.2575 9.0645C10.1256 9.05593 10.0305 8.97549 10.0166 8.84642C10.0017 8.70809 10.0598 8.60424 10.1963 8.54448C10.2657 8.51412 10.339 8.49883 10.4135 8.48837C10.4619 8.48154 10.5106 8.47699 10.5591 8.47073C10.5726 8.46898 10.577 8.4721 10.5769 8.48662C10.5762 8.5652 10.5765 8.64381 10.5765 8.7224Z" fill="white"/>
</svg>
