<svg width="20" height="20" viewBox="0 0 20 20" fill="none" xmlns="http://www.w3.org/2000/svg">
<path d="M0 5C0 2.23858 2.23858 0 5 0H15C17.7614 0 20 2.23858 20 5V15C20 17.7614 17.7614 20 15 20H5C2.23858 20 0 17.7614 0 15V5Z" fill="#0172CE"/>
<path d="M11.1356 12.0191C11.124 11.7405 11.1164 11.4617 11.1142 11.1829C11.1124 10.9606 11.1137 10.7384 11.1118 10.5161C11.1104 10.3428 11.1102 10.1694 11.0882 9.99709C11.0756 9.89771 11.0551 9.80018 11.0114 9.70912C10.9342 9.54786 10.8067 9.439 10.6467 9.3662C10.4236 9.26468 10.1913 9.25763 9.9551 9.30646C9.76453 9.34584 9.5882 9.42174 9.42064 9.5194C9.37068 9.54849 9.32219 9.57989 9.27068 9.61411C9.27068 9.60425 9.27068 9.5987 9.27068 9.59312C9.27005 9.43375 9.26942 9.27442 9.26875 9.11505C9.26745 8.78934 9.26564 8.46367 9.25829 8.13805C9.25766 8.10942 9.25712 8.0807 9.25431 8.05223C9.25095 8.01827 9.2224 7.99509 9.19271 8.00089C9.06324 8.02616 8.93376 8.05173 8.80432 8.07721C8.63853 8.10988 8.47219 8.13948 8.30484 8.16328C8.22461 8.1747 8.14434 8.1857 8.06411 8.19699C8.0579 8.19788 8.05067 8.19872 8.04782 8.20484C8.04434 8.21223 8.05126 8.21647 8.05605 8.21979C8.06314 8.22466 8.06235 8.23163 8.06331 8.23839C8.08011 8.35523 8.09308 8.47253 8.1037 8.59009C8.1202 8.77242 8.13015 8.95522 8.13712 9.13818C8.14749 9.40986 8.15232 9.68171 8.15412 9.95359C8.1595 10.7567 8.15387 11.5597 8.1464 12.3628C8.14594 12.4116 8.15878 12.4242 8.20748 12.4236C8.48999 12.4199 8.77246 12.4161 9.05497 12.4125C9.13608 12.4114 9.21723 12.4113 9.2983 12.4099C9.3321 12.4093 9.35847 12.3962 9.35515 12.3521C9.34675 12.24 9.34297 12.1275 9.33714 12.0151C9.3245 11.7709 9.31384 11.5265 9.30859 11.282C9.30641 11.1799 9.30347 11.0779 9.30267 10.9759C9.30078 10.7376 9.30003 10.4993 9.29847 10.2609C9.29839 10.25 9.30217 10.2449 9.3122 10.2411C9.35057 10.2262 9.38861 10.2104 9.42677 10.1949C9.51074 10.1609 9.59689 10.1414 9.6885 10.1507C9.76718 10.1587 9.82789 10.1927 9.86571 10.2637C9.87856 10.2878 9.88889 10.3129 9.89674 10.339C9.93297 10.4598 9.94263 10.5845 9.95018 10.7093C9.96068 10.8823 9.96307 11.0556 9.96383 11.229C9.96555 11.6113 9.9611 11.9936 9.95925 12.3759C9.95904 12.4224 9.97407 12.4373 10.0208 12.4372C10.1845 12.4365 10.348 12.4296 10.5115 12.4258C10.5996 12.4238 10.6878 12.4225 10.7758 12.426C10.8827 12.4303 10.9895 12.4372 11.0966 12.4372C11.137 12.4372 11.1554 12.4174 11.1533 12.3773C11.1472 12.258 11.1404 12.1387 11.1355 12.0193L11.1356 12.0191Z" fill="white"/>
<path d="M15.9539 8.0148C15.9226 8.01039 15.8929 8.02001 15.8628 8.02483C15.6862 8.053 15.5098 8.08214 15.3333 8.11077C15.1652 8.13806 14.997 8.16556 14.8287 8.19222C14.7709 8.20137 14.7473 8.23034 14.7527 8.28832C14.7622 8.39127 14.7719 8.49417 14.7805 8.5972C14.794 8.76009 14.8068 8.92307 14.8199 9.08597C14.8346 9.26843 14.8458 9.45115 14.8562 9.6339C14.8661 9.80691 14.8745 9.98001 14.883 10.1531C14.8954 10.405 14.9075 10.657 14.9193 10.9089C14.9215 10.9552 14.944 10.9774 14.9908 10.9766C15.1209 10.9744 15.2509 10.972 15.381 10.9697C15.381 10.9692 15.381 10.9688 15.381 10.9684C15.4096 10.9684 15.4383 10.9688 15.467 10.9683C15.5719 10.9668 15.6767 10.9651 15.7816 10.9631C15.8213 10.9624 15.8463 10.9388 15.8472 10.9021C15.85 10.7868 15.852 10.6715 15.8557 10.5563C15.8611 10.3886 15.8665 10.221 15.8739 10.0534C15.8835 9.83496 15.8947 9.61652 15.906 9.39812C15.9125 9.27183 15.92 9.14559 15.9282 9.01938C15.9383 8.8653 15.9489 8.71127 15.9606 8.55735C15.9701 8.4327 15.9817 8.30818 15.9924 8.18362C15.9956 8.14537 16.0002 8.10712 16.0015 8.06879C16.0026 8.03386 15.9882 8.01967 15.9539 8.0148H15.9539Z" fill="white"/>
<path d="M15.9026 11.8845C15.9026 11.7203 15.9026 11.5561 15.9026 11.3919C15.9026 11.3415 15.8853 11.3255 15.8343 11.3298C15.7932 11.3332 15.7523 11.3386 15.7112 11.3413C15.5012 11.3552 15.2909 11.3621 15.0804 11.356C15.0014 11.3537 14.9225 11.3504 14.8438 11.3431C14.8024 11.3392 14.7794 11.3565 14.7795 11.3928C14.7796 11.4415 14.7795 11.4903 14.7808 11.5389C14.784 11.6549 14.7843 11.7708 14.7828 11.8868C14.7805 12.0572 14.78 12.2277 14.7793 12.3982C14.7791 12.4349 14.8001 12.454 14.8361 12.4518C14.8982 12.4479 14.9602 12.4433 15.0223 12.4395C15.2108 12.4281 15.3995 12.426 15.5883 12.4307C15.6749 12.4329 15.7616 12.4349 15.8482 12.4374C15.8716 12.4381 15.8893 12.4299 15.899 12.4081C15.9039 12.3971 15.9026 12.3848 15.9026 12.373C15.9026 12.2101 15.9026 12.0473 15.9026 11.8845Z" fill="white"/>
<path d="M7.80459 11.952C7.46251 10.8271 7.12039 9.70216 6.7783 8.5772C6.72939 8.41641 6.68052 8.25561 6.63149 8.09481C6.61637 8.04523 6.57834 8.02071 6.52783 8.0289C6.44512 8.04229 6.36262 8.05703 6.27992 8.07046C6.01042 8.11425 5.7408 8.15724 5.47215 8.20611C5.40271 8.21875 5.35292 8.25729 5.33058 8.32497C4.88937 9.66059 4.44859 10.9963 4.00772 12.332C3.98933 12.3877 4.01582 12.4241 4.07472 12.4241C4.40131 12.4241 4.72795 12.4241 5.05454 12.4242C5.06789 12.4242 5.0812 12.4242 5.09388 12.4197C5.1092 12.4142 5.12049 12.4046 5.12419 12.3879C5.14115 12.3109 5.15794 12.2339 5.17511 12.1569C5.22705 11.9241 5.27915 11.6913 5.33117 11.4584C5.33352 11.4478 5.33553 11.4406 5.35077 11.4408C5.70877 11.446 6.06681 11.4506 6.4248 11.4545C6.4413 11.4547 6.4473 11.4596 6.4507 11.4753C6.5183 11.784 6.5864 12.0925 6.65441 12.4012C6.66297 12.44 6.67758 12.4518 6.71776 12.4523C6.72545 12.4523 6.73313 12.4519 6.74081 12.4517C6.92743 12.4466 7.11409 12.4416 7.25944 12.4377C7.49308 12.4377 7.6854 12.4379 7.87773 12.4376C7.92379 12.4375 7.94381 12.4098 7.93059 12.3663C7.88856 12.2282 7.84654 12.0901 7.80455 11.952L7.80459 11.952ZM6.25598 10.6127C6.03078 10.6123 5.80558 10.6122 5.58034 10.6128C5.56103 10.6129 5.56124 10.6071 5.56556 10.5916C5.66758 10.2254 5.76419 9.85775 5.85739 9.48921C5.88405 9.38371 5.90907 9.27783 5.93494 9.17211C5.9359 9.16825 5.93733 9.16447 5.94039 9.15498C6.01311 9.45332 6.07781 9.74767 6.1449 10.0414C6.1868 10.2251 6.22924 10.4086 6.27244 10.5919C6.27664 10.6098 6.27316 10.6127 6.25603 10.6127L6.25598 10.6127Z" fill="white"/>
<path d="M14.2548 12.1126C14.2393 11.8888 14.2288 11.6647 14.2264 11.4404C14.223 11.1132 14.2306 10.7862 14.2356 10.4591C14.2378 10.3144 14.235 10.1699 14.2098 10.0267C14.1731 9.81756 14.0714 9.64841 13.9012 9.52116C13.7756 9.42737 13.6319 9.37531 13.4805 9.34202C13.2358 9.28823 12.9881 9.28542 12.7397 9.30171C12.568 9.31296 12.3977 9.33601 12.2285 9.36695C12.0594 9.39785 11.8923 9.43698 11.7274 9.4851C11.6874 9.49677 11.674 9.51394 11.6721 9.55575C11.67 9.60252 11.6686 9.64934 11.6666 9.69611C11.6616 9.81551 11.6563 9.93487 11.6513 10.0543C11.649 10.1094 11.646 10.1646 11.6456 10.2198C11.6452 10.2696 11.6874 10.2918 11.7232 10.2777C11.8565 10.2254 11.9901 10.1747 12.127 10.1329C12.3313 10.0706 12.5394 10.0326 12.754 10.0371C12.8249 10.0386 12.895 10.0449 12.9616 10.0716C13.0278 10.0982 13.0693 10.145 13.0794 10.2169C13.0837 10.2474 13.0811 10.2783 13.0807 10.309C13.0805 10.3258 13.0746 10.3327 13.057 10.3351C12.9816 10.3456 12.9063 10.3567 12.8313 10.3698C12.604 10.4096 12.3803 10.4632 12.1642 10.5456C11.9877 10.613 11.8207 10.6976 11.6742 10.8185C11.5082 10.9556 11.3902 11.1244 11.3449 11.3372C11.3009 11.5441 11.317 11.7486 11.3847 11.9485C11.436 12.1001 11.5214 12.2292 11.6487 12.3284C11.7833 12.4334 11.9382 12.4824 12.1069 12.4923C12.1069 12.4934 12.1071 12.4945 12.1072 12.4957H12.2247C12.2247 12.4944 12.2247 12.4933 12.2249 12.4921C12.2863 12.4873 12.347 12.478 12.4069 12.4633C12.6533 12.4028 12.8776 12.2939 13.0869 12.1524C13.0971 12.1456 13.1071 12.1385 13.1199 12.1296V12.1564C13.1199 12.234 13.1198 12.3116 13.12 12.3891C13.12 12.4361 13.1368 12.4527 13.1831 12.452C13.2985 12.4504 13.4138 12.4486 13.5292 12.4469C13.7586 12.4437 13.9879 12.4407 14.2173 12.4374C14.2562 12.4369 14.2732 12.419 14.2725 12.3801C14.2725 12.3759 14.2722 12.3717 14.272 12.3676C14.2662 12.2825 14.2606 12.1975 14.2547 12.1124L14.2548 12.1126ZM13.0926 11.2672C13.0926 11.3608 13.0923 11.4545 13.093 11.548C13.0931 11.5626 13.0882 11.5703 13.0758 11.5775C12.9626 11.6431 12.843 11.6864 12.7098 11.6777C12.5515 11.6674 12.4373 11.5709 12.4207 11.4161C12.4028 11.25 12.4725 11.1254 12.6364 11.0537C12.7196 11.0173 12.8076 10.9989 12.8969 10.9864C12.955 10.9782 13.0134 10.9727 13.0716 10.9652C13.0878 10.9631 13.0932 10.9669 13.093 10.9843C13.0921 11.0786 13.0926 11.1729 13.0926 11.2672Z" fill="white"/>
</svg>
