<svg width="24" height="24" viewBox="0 0 24 24" fill="none" xmlns="http://www.w3.org/2000/svg">
<path d="M0 6.39569C0 2.86345 2.86345 0 6.39569 0H17.6043C21.1366 0 24 2.86345 24 6.39569V17.6043C24 21.1366 21.1366 24 17.6043 24H6.39569C2.86345 24 0 21.1366 0 17.6043V6.39569Z" fill="#0172CE"/>
<path d="M12.729 14.3541C12.7165 14.0523 12.7082 13.7503 12.7058 13.4482C12.7039 13.2074 12.7053 12.9666 12.7033 12.7258C12.7017 12.5381 12.7015 12.3503 12.6777 12.1636C12.664 12.0559 12.6418 11.9502 12.5945 11.8516C12.5108 11.6769 12.3727 11.5589 12.1993 11.4801C11.9576 11.3701 11.706 11.3625 11.4501 11.4154C11.2437 11.458 11.0526 11.5403 10.8711 11.6461C10.817 11.6776 10.7644 11.7116 10.7086 11.7487C10.7086 11.738 10.7086 11.732 10.7086 11.7259C10.7079 11.5533 10.7073 11.3807 10.7065 11.208C10.7051 10.8551 10.7032 10.5023 10.6952 10.1496C10.6945 10.1185 10.6939 10.0874 10.6909 10.0566C10.6873 10.0198 10.6563 9.99469 10.6242 10.001C10.4839 10.0283 10.3436 10.056 10.2034 10.0837C10.0238 10.119 9.84358 10.1511 9.66229 10.1769C9.57537 10.1893 9.4884 10.2012 9.40148 10.2134C9.39475 10.2144 9.38693 10.2153 9.38384 10.2219C9.38006 10.2299 9.38757 10.2345 9.39275 10.2381C9.40044 10.2434 9.39957 10.2509 9.40062 10.2583C9.41881 10.3848 9.43287 10.5119 9.44437 10.6393C9.46225 10.8368 9.47303 11.0348 9.48058 11.2331C9.49181 11.5274 9.49704 11.8219 9.499 12.1164C9.50482 12.9864 9.49873 13.8565 9.49063 14.7265C9.49013 14.7793 9.50405 14.793 9.55681 14.7923C9.86287 14.7883 10.1689 14.7842 10.4749 14.7803C10.5628 14.7791 10.6507 14.779 10.7386 14.7775C10.7752 14.7769 10.8037 14.7626 10.8001 14.7149C10.791 14.5934 10.787 14.4715 10.7806 14.3498C10.7669 14.0852 10.7554 13.8205 10.7497 13.5555C10.7473 13.445 10.7442 13.3345 10.7433 13.224C10.7412 12.9658 10.7404 12.7076 10.7387 12.4494C10.7386 12.4376 10.7427 12.432 10.7536 12.4279C10.7952 12.4118 10.8364 12.3946 10.8777 12.3779C10.9687 12.341 11.062 12.3199 11.1613 12.33C11.2465 12.3387 11.3123 12.3755 11.3533 12.4524C11.3672 12.4785 11.3784 12.5057 11.3869 12.534C11.4261 12.6648 11.4366 12.8 11.4448 12.9351C11.4561 13.1226 11.4587 13.3103 11.4596 13.4981C11.4614 13.9124 11.4566 14.3265 11.4546 14.7406C11.4544 14.791 11.4707 14.8072 11.5213 14.8071C11.6986 14.8063 11.8757 14.7989 12.0529 14.7948C12.1484 14.7926 12.2438 14.7911 12.3393 14.795C12.4551 14.7995 12.5708 14.8071 12.6867 14.8071C12.7305 14.8071 12.7504 14.7856 12.7482 14.7422C12.7416 14.6129 12.7342 14.4837 12.7289 14.3544L12.729 14.3541Z" fill="white"/>
<path d="M17.9486 10.0159C17.9147 10.0111 17.8825 10.0215 17.8499 10.0267C17.6586 10.0573 17.4675 10.0888 17.2763 10.1198C17.0941 10.1494 16.9119 10.1792 16.7296 10.2081C16.667 10.218 16.6414 10.2494 16.6473 10.3122C16.6576 10.4237 16.668 10.5352 16.6774 10.6468C16.6921 10.8233 16.7059 10.9999 16.7201 11.1763C16.736 11.374 16.7482 11.5719 16.7595 11.7699C16.7702 11.9574 16.7792 12.1449 16.7885 12.3324C16.8019 12.6053 16.815 12.8783 16.8278 13.1513C16.8302 13.2013 16.8546 13.2254 16.9052 13.2246C17.0461 13.2222 17.187 13.2196 17.3279 13.217C17.3279 13.2166 17.3279 13.2161 17.3279 13.2157C17.359 13.2157 17.39 13.2161 17.4211 13.2156C17.5347 13.2139 17.6483 13.2121 17.762 13.21C17.805 13.2092 17.8321 13.1836 17.833 13.1439C17.8361 13.019 17.8383 12.8941 17.8422 12.7692C17.8481 12.5876 17.8539 12.406 17.8619 12.2245C17.8724 11.9878 17.8845 11.7511 17.8967 11.5145C17.9038 11.3777 17.9119 11.2409 17.9208 11.1042C17.9318 10.9373 17.9432 10.7704 17.9559 10.6037C17.9662 10.4686 17.9788 10.3337 17.9903 10.1988C17.9938 10.1573 17.9988 10.1159 18.0002 10.0744C18.0014 10.0365 17.9857 10.0211 17.9486 10.0159H17.9486Z" fill="white"/>
<path d="M17.8946 14.2082C17.8946 14.0303 17.8946 13.8524 17.8946 13.6745C17.8946 13.6199 17.8759 13.6026 17.8207 13.6071C17.7762 13.6108 17.7319 13.6167 17.6873 13.6197C17.4598 13.6347 17.232 13.6422 17.0039 13.6356C16.9183 13.6331 16.8329 13.6296 16.7476 13.6216C16.7028 13.6173 16.6779 13.6362 16.678 13.6754C16.6781 13.7282 16.6779 13.7811 16.6794 13.8337C16.6828 13.9594 16.6832 14.085 16.6815 14.2106C16.6791 14.3953 16.6785 14.58 16.6777 14.7647C16.6776 14.8045 16.7002 14.8251 16.7392 14.8227C16.8065 14.8186 16.8737 14.8136 16.9409 14.8095C17.1452 14.797 17.3496 14.7948 17.5542 14.7999C17.648 14.8022 17.7419 14.8045 17.8358 14.8072C17.8611 14.8079 17.8803 14.799 17.8907 14.7754C17.8961 14.7634 17.8946 14.7501 17.8946 14.7373C17.8947 14.5609 17.8946 14.3846 17.8946 14.2082Z" fill="white"/>
<path d="M9.11962 14.2811C8.74902 13.0624 8.37838 11.8437 8.00778 10.625C7.95479 10.4508 7.90185 10.2766 7.84873 10.1024C7.83235 10.0487 7.79114 10.0221 7.73643 10.031C7.64683 10.0455 7.55745 10.0615 7.46785 10.076C7.17589 10.1234 6.8838 10.17 6.59275 10.223C6.51752 10.2367 6.46358 10.2784 6.43938 10.3517C5.96139 11.7987 5.48386 13.2457 5.00624 14.6928C4.98632 14.7531 5.01502 14.7926 5.07883 14.7926C5.43265 14.7926 5.78651 14.7926 6.14033 14.7927C6.15479 14.7927 6.16921 14.7927 6.18294 14.7878C6.19954 14.7818 6.21178 14.7714 6.21578 14.7533C6.23416 14.6699 6.25235 14.5865 6.27095 14.5031C6.32722 14.2509 6.38366 13.9986 6.44002 13.7464C6.44256 13.7349 6.44475 13.727 6.46126 13.7273C6.84909 13.7329 7.23698 13.7379 7.62481 13.7421C7.64269 13.7423 7.64919 13.7477 7.65287 13.7646C7.7261 14.0991 7.79988 14.4334 7.87356 14.7677C7.88284 14.8097 7.89867 14.8225 7.94219 14.8231C7.95052 14.8232 7.95884 14.8227 7.96716 14.8224C8.16934 14.817 8.37156 14.8115 8.52902 14.8073C8.78214 14.8073 8.9905 14.8075 9.19885 14.8071C9.24875 14.8071 9.27045 14.7771 9.25612 14.73C9.21059 14.5803 9.16506 14.4307 9.11958 14.2811L9.11962 14.2811ZM7.44192 12.8302C7.19795 12.8297 6.95398 12.8296 6.70996 12.8303C6.68904 12.8303 6.68926 12.8241 6.69395 12.8073C6.80447 12.4106 6.90913 12.0123 7.0101 11.613C7.03899 11.4987 7.06609 11.384 7.09411 11.2695C7.09516 11.2653 7.0967 11.2612 7.10002 11.2509C7.1788 11.5741 7.24889 11.893 7.32157 12.2113C7.36697 12.4102 7.41295 12.609 7.45975 12.8076C7.4643 12.827 7.46053 12.8302 7.44197 12.8301L7.44192 12.8302Z" fill="white"/>
<path d="M16.1088 14.4551C16.092 14.2126 16.0806 13.9698 16.0781 13.7268C16.0744 13.3724 16.0825 13.0181 16.088 12.6637C16.0904 12.507 16.0873 12.3505 16.0601 12.1953C16.0203 11.9687 15.9101 11.7855 15.7257 11.6476C15.5896 11.546 15.4339 11.4896 15.27 11.4535C15.0049 11.3953 14.7365 11.3922 14.4674 11.4099C14.2814 11.4221 14.0969 11.447 13.9136 11.4805C13.7304 11.514 13.5494 11.5564 13.3707 11.6085C13.3274 11.6212 13.3129 11.6398 13.3108 11.6851C13.3085 11.7357 13.307 11.7865 13.3049 11.8371C13.2994 11.9665 13.2937 12.0958 13.2883 12.2252C13.2858 12.2849 13.2825 12.3447 13.2821 12.4044C13.2817 12.4584 13.3273 12.4825 13.3662 12.4672C13.5105 12.4106 13.6553 12.3556 13.8036 12.3104C14.025 12.2429 14.2504 12.2017 14.4829 12.2065C14.5597 12.2081 14.6356 12.215 14.7078 12.244C14.7795 12.2727 14.8245 12.3235 14.8354 12.4013C14.8401 12.4344 14.8372 12.4678 14.8368 12.5011C14.8366 12.5193 14.8302 12.5268 14.8112 12.5294C14.7295 12.5408 14.6479 12.5528 14.5667 12.567C14.3204 12.6101 14.0781 12.6682 13.844 12.7575C13.6527 12.8304 13.4718 12.9221 13.3131 13.0531C13.1332 13.2016 13.0053 13.3845 12.9563 13.6151C12.9087 13.8391 12.9261 14.0607 12.9994 14.2773C13.0551 14.4416 13.1475 14.5814 13.2854 14.6889C13.4313 14.8026 13.599 14.8556 13.7818 14.8664C13.7819 14.8676 13.782 14.8688 13.7822 14.8701H13.9095C13.9095 14.8687 13.9095 14.8675 13.9097 14.8662C13.9762 14.861 14.042 14.8509 14.1068 14.835C14.3738 14.7695 14.6168 14.6515 14.8436 14.4982C14.8546 14.4908 14.8654 14.4831 14.8793 14.4735V14.5025C14.8793 14.5866 14.8792 14.6706 14.8794 14.7547C14.8794 14.8055 14.8976 14.8235 14.9478 14.8228C15.0727 14.821 15.1977 14.819 15.3227 14.8172C15.5712 14.8138 15.8197 14.8105 16.0682 14.807C16.1103 14.8064 16.1287 14.787 16.128 14.7449C16.1279 14.7403 16.1277 14.7358 16.1274 14.7313C16.1212 14.6391 16.1151 14.547 16.1087 14.4549L16.1088 14.4551ZM14.8497 13.5392C14.8497 13.6406 14.8493 13.7421 14.8501 13.8434C14.8502 13.8592 14.845 13.8676 14.8315 13.8753C14.7088 13.9465 14.5793 13.9933 14.435 13.9839C14.2635 13.9728 14.1398 13.8682 14.1218 13.7004C14.1025 13.5206 14.1779 13.3856 14.3554 13.3079C14.4456 13.2684 14.541 13.2486 14.6377 13.235C14.7006 13.2261 14.764 13.2202 14.827 13.212C14.8445 13.2098 14.8503 13.2138 14.8502 13.2327C14.8492 13.3349 14.8497 13.4371 14.8497 13.5392Z" fill="white"/>
</svg>
