<svg width="32" height="32" viewBox="0 0 32 32" fill="none" xmlns="http://www.w3.org/2000/svg">
<path d="M0 8C0 3.58172 3.58172 0 8 0H24C28.4183 0 32 3.58172 32 8V24C32 28.4183 28.4183 32 24 32H8C3.58172 32 0 28.4183 0 24V8Z" fill="#0172CE"/>
<path d="M17.6994 19.0287C17.6822 18.6107 17.6706 18.1926 17.6674 17.7743C17.6647 17.4409 17.6666 17.1075 17.6638 16.7741C17.6617 16.5142 17.6614 16.2541 17.6284 15.9956C17.6094 15.8466 17.5788 15.7003 17.5133 15.5637C17.3974 15.3218 17.2061 15.1585 16.9661 15.0493C16.6314 14.897 16.2831 14.8864 15.9287 14.9597C15.6429 15.0188 15.3784 15.1326 15.1271 15.2791C15.0521 15.3227 14.9794 15.3698 14.9021 15.4212C14.9021 15.4064 14.9021 15.3981 14.9021 15.3897C14.9012 15.1506 14.9002 14.9116 14.8992 14.6726C14.8973 14.184 14.8946 13.6955 14.8835 13.2071C14.8826 13.1641 14.8818 13.121 14.8776 13.0784C14.8725 13.0274 14.8297 12.9926 14.7852 13.0013C14.5909 13.0392 14.3967 13.0776 14.2026 13.1158C13.9539 13.1648 13.7044 13.2092 13.4534 13.2449C13.333 13.2621 13.2126 13.2786 13.0923 13.2955C13.0829 13.2968 13.0721 13.2981 13.0678 13.3073C13.0626 13.3184 13.073 13.3247 13.0802 13.3297C13.0908 13.337 13.0896 13.3474 13.0911 13.3576C13.1163 13.5328 13.1357 13.7088 13.1516 13.8851C13.1764 14.1586 13.1913 14.4328 13.2018 14.7073C13.2173 15.1148 13.2246 15.5226 13.2273 15.9304C13.2353 17.135 13.2269 18.3396 13.2157 19.5442C13.215 19.6174 13.2343 19.6363 13.3073 19.6354C13.7311 19.6298 14.1548 19.6241 14.5785 19.6187C14.7002 19.6171 14.8219 19.617 14.9435 19.6149C14.9942 19.614 15.0338 19.5942 15.0288 19.5282C15.0162 19.36 15.0106 19.1912 15.0018 19.0227C14.9828 18.6563 14.9669 18.2898 14.959 17.9229C14.9557 17.7699 14.9513 17.6169 14.9501 17.4638C14.9473 17.1063 14.9461 16.7489 14.9438 16.3914C14.9437 16.3751 14.9493 16.3674 14.9644 16.3616C15.022 16.3393 15.079 16.3155 15.1363 16.2924C15.2622 16.2414 15.3914 16.2121 15.5288 16.2261C15.6469 16.2381 15.7379 16.289 15.7947 16.3955C15.8139 16.4317 15.8294 16.4693 15.8412 16.5086C15.8956 16.6897 15.91 16.8768 15.9214 17.0639C15.9371 17.3235 15.9407 17.5834 15.9418 17.8435C15.9444 18.417 15.9377 18.9904 15.935 19.5638C15.9347 19.6336 15.9572 19.656 16.0273 19.6558C16.2728 19.6547 16.5181 19.6444 16.7634 19.6388C16.8955 19.6357 17.0277 19.6337 17.1598 19.639C17.3202 19.6454 17.4804 19.6558 17.641 19.6558C17.7016 19.6558 17.7291 19.626 17.7261 19.566C17.7169 19.387 17.7067 19.208 17.6994 19.029L17.6994 19.0287Z" fill="white"/>
<path d="M24.9279 13.0222C24.881 13.0156 24.8364 13.03 24.7912 13.0372C24.5264 13.0795 24.2618 13.1232 23.9971 13.1662C23.7448 13.2071 23.4925 13.2483 23.2401 13.2883C23.1535 13.3021 23.118 13.3455 23.1261 13.4325C23.1404 13.5869 23.1548 13.7413 23.1678 13.8958C23.1881 14.1401 23.2072 14.3846 23.2269 14.629C23.2489 14.9026 23.2658 15.1767 23.2814 15.4509C23.2962 15.7104 23.3088 15.97 23.3216 16.2296C23.3402 16.6075 23.3583 16.9855 23.3761 17.3634C23.3794 17.4328 23.4131 17.4661 23.4833 17.4649C23.6784 17.4617 23.8734 17.458 24.0685 17.4545C24.0685 17.4538 24.0685 17.4532 24.0685 17.4526C24.1115 17.4526 24.1545 17.4532 24.1975 17.4525C24.3548 17.4501 24.5122 17.4477 24.6695 17.4447C24.729 17.4436 24.7665 17.4082 24.7678 17.3532C24.7721 17.1802 24.7751 17.0073 24.7806 16.8344C24.7887 16.583 24.7968 16.3315 24.8079 16.0802C24.8224 15.7524 24.8391 15.4248 24.8561 15.0972C24.8659 14.9077 24.8771 14.7184 24.8894 14.5291C24.9046 14.298 24.9204 14.0669 24.938 13.836C24.9523 13.6491 24.9697 13.4623 24.9856 13.2754C24.9905 13.2181 24.9974 13.1607 24.9993 13.1032C25.001 13.0508 24.9793 13.0295 24.9279 13.0222H24.9279Z" fill="white"/>
<path d="M24.8509 18.8263C24.8509 18.58 24.8509 18.3337 24.8509 18.0874C24.8509 18.0118 24.825 17.9878 24.7485 17.9941C24.6869 17.9992 24.6255 18.0074 24.5639 18.0115C24.2488 18.0322 23.9334 18.0426 23.6176 18.0335C23.4992 18.03 23.3808 18.0252 23.2628 18.0141C23.2007 18.0082 23.1662 18.0343 23.1663 18.0887C23.1665 18.1618 23.1663 18.235 23.1683 18.3079C23.1731 18.4819 23.1736 18.6557 23.1712 18.8297C23.1678 19.0854 23.1671 19.3411 23.166 19.5969C23.1658 19.6519 23.1972 19.6805 23.2512 19.6772C23.3443 19.6714 23.4373 19.6645 23.5305 19.6588C23.8133 19.6416 24.0963 19.6386 24.3795 19.6456C24.5095 19.6488 24.6395 19.6519 24.7694 19.6557C24.8045 19.6567 24.831 19.6443 24.8455 19.6117C24.8529 19.5951 24.8509 19.5767 24.8509 19.559C24.851 19.3147 24.8509 19.0705 24.8509 18.8263Z" fill="white"/>
<path d="M12.704 18.9271C12.1908 17.2396 11.6776 15.5523 11.1645 13.8648C11.0912 13.6236 11.0179 13.3824 10.9443 13.1412C10.9216 13.0669 10.8646 13.0301 10.7888 13.0424C10.6648 13.0625 10.541 13.0846 10.4169 13.1047C10.0127 13.1704 9.60827 13.2349 9.20529 13.3082C9.10113 13.3271 9.02644 13.385 8.99294 13.4865C8.33113 15.4899 7.66995 17.4935 7.00864 19.497C6.98106 19.5805 7.0208 19.6352 7.10915 19.6352C7.59904 19.6352 8.08899 19.6352 8.57888 19.6353C8.5989 19.6353 8.61887 19.6353 8.63788 19.6285C8.66087 19.6203 8.67781 19.6059 8.68335 19.5808C8.70879 19.4654 8.73398 19.3499 8.75974 19.2344C8.83764 18.8852 8.9158 18.5359 8.99382 18.1866C8.99735 18.1707 9.00037 18.1599 9.02323 18.1602C9.56022 18.168 10.0973 18.1749 10.6343 18.1808C10.659 18.181 10.668 18.1885 10.6731 18.2119C10.7745 18.675 10.8767 19.1378 10.9787 19.6008C10.9915 19.659 11.0134 19.6766 11.0737 19.6774C11.0852 19.6775 11.0968 19.6768 11.1083 19.6765C11.3882 19.669 11.6682 19.6614 11.8862 19.6556C12.2367 19.6556 12.5252 19.6558 12.8137 19.6554C12.8827 19.6552 12.9128 19.6137 12.893 19.5485C12.8299 19.3413 12.7669 19.1342 12.7039 18.927L12.704 18.9271ZM10.381 16.9181C10.0432 16.9174 9.70545 16.9173 9.36758 16.9183C9.33861 16.9183 9.33893 16.9097 9.34541 16.8865C9.49844 16.3371 9.64335 15.7856 9.78316 15.2328C9.82315 15.0746 9.86068 14.9158 9.89947 14.7572C9.90092 14.7514 9.90306 14.7457 9.90766 14.7315C10.0167 15.179 10.1138 15.6205 10.2144 16.0612C10.2773 16.3366 10.3409 16.6119 10.4057 16.8869C10.412 16.9137 10.4068 16.9181 10.3811 16.918L10.381 16.9181Z" fill="white"/>
<path d="M22.3802 19.1679C22.357 18.8322 22.3412 18.4961 22.3377 18.1596C22.3326 17.6689 22.3439 17.1783 22.3514 16.6877C22.3548 16.4707 22.3505 16.2539 22.3128 16.0391C22.2577 15.7254 22.1052 15.4716 21.8498 15.2808C21.6614 15.1401 21.4459 15.062 21.2188 15.012C20.8518 14.9314 20.4802 14.9272 20.1076 14.9516C19.8501 14.9685 19.5946 15.003 19.3408 15.0495C19.0872 15.0958 18.8365 15.1545 18.5891 15.2267C18.5291 15.2442 18.5091 15.2699 18.5062 15.3327C18.503 15.4028 18.5009 15.473 18.498 15.5432C18.4904 15.7223 18.4825 15.9013 18.475 16.0804C18.4716 16.1632 18.467 16.2459 18.4664 16.3287C18.4659 16.4034 18.5291 16.4367 18.5829 16.4155C18.7827 16.3372 18.9832 16.261 19.1886 16.1984C19.4951 16.105 19.8072 16.0479 20.1291 16.0547C20.2355 16.0569 20.3405 16.0664 20.4404 16.1065C20.5397 16.1463 20.602 16.2166 20.6172 16.3243C20.6236 16.3702 20.6197 16.4164 20.619 16.4625C20.6187 16.4877 20.6099 16.498 20.5836 16.5017C20.4705 16.5175 20.3575 16.534 20.245 16.5537C19.9041 16.6134 19.5686 16.6939 19.2444 16.8175C18.9796 16.9185 18.7291 17.0454 18.5094 17.2268C18.2603 17.4324 18.0833 17.6857 18.0154 18.0049C17.9495 18.3151 17.9735 18.6219 18.0751 18.9218C18.1521 19.1492 18.2801 19.3429 18.4711 19.4917C18.673 19.6491 18.9053 19.7226 19.1584 19.7374C19.1585 19.7391 19.1586 19.7408 19.1589 19.7425H19.3352C19.3352 19.7407 19.3352 19.7389 19.3354 19.7372C19.4275 19.7299 19.5186 19.716 19.6084 19.694C19.978 19.6033 20.3144 19.4399 20.6284 19.2277C20.6437 19.2174 20.6587 19.2068 20.6779 19.1935V19.2336C20.6779 19.35 20.6777 19.4664 20.678 19.5827C20.6781 19.6532 20.7033 19.6781 20.7727 19.6771C20.9458 19.6746 21.1188 19.6719 21.2919 19.6694C21.6359 19.6646 21.9799 19.66 22.324 19.6552C22.3824 19.6543 22.4078 19.6275 22.4069 19.5692C22.4067 19.5629 22.4064 19.5566 22.406 19.5504C22.3974 19.4228 22.389 19.2953 22.3802 19.1677L22.3802 19.1679ZM20.6369 17.8999C20.6369 18.0403 20.6364 18.1807 20.6375 18.3211C20.6377 18.3429 20.6304 18.3545 20.6118 18.3652C20.4419 18.4637 20.2625 18.5286 20.0627 18.5156C19.8252 18.5002 19.6541 18.3554 19.6291 18.1231C19.6023 17.8741 19.7068 17.6872 19.9526 17.5796C20.0774 17.525 20.2095 17.4974 20.3435 17.4786C20.4306 17.4663 20.5182 17.4581 20.6055 17.4469C20.6298 17.4437 20.6378 17.4493 20.6376 17.4755C20.6362 17.6169 20.6369 17.7584 20.6369 17.8999Z" fill="white"/>
</svg>
