<svg width="16" height="16" viewBox="0 0 16 16" fill="none" xmlns="http://www.w3.org/2000/svg">
<mask id="path-1-inside-1_237_7331" fill="white">
<path d="M0 4C0 1.79086 1.79086 0 4 0H12C14.2091 0 16 1.79086 16 4V12C16 14.2091 14.2091 16 12 16H4C1.79086 16 0 14.2091 0 12V4Z"/>
</mask>
<path d="M0 4C0 1.79086 1.79086 0 4 0H12C14.2091 0 16 1.79086 16 4V12C16 14.2091 14.2091 16 12 16H4C1.79086 16 0 14.2091 0 12V4Z" fill="white"/>
<path d="M4 0V1H12V0V-1H4V0ZM16 4H15V12H16H17V4H16ZM12 16V15H4V16V17H12V16ZM0 12H1V4H0H-1V12H0ZM4 16V15C2.34315 15 1 13.6569 1 12H0H-1C-1 14.7614 1.23858 17 4 17V16ZM16 12H15C15 13.6569 13.6569 15 12 15V16V17C14.7614 17 17 14.7614 17 12H16ZM12 0V1C13.6569 1 15 2.34315 15 4H16H17C17 1.23858 14.7614 -1 12 -1V0ZM4 0V-1C1.23858 -1 -1 1.23858 -1 4H0H1C1 2.34315 2.34315 1 4 1V0Z" fill="#0B1228" fill-opacity="0.14" mask="url(#path-1-inside-1_237_7331)"/>
<path d="M11.6017 2.66699H8.7742C8.53107 2.66699 8.33398 2.86408 8.33398 3.1072V12.8934C8.33398 13.1366 8.53107 13.3337 8.7742 13.3337H11.6017C11.8448 13.3337 12.0419 13.1366 12.0419 12.8934V3.1072C12.0419 2.86408 11.8448 2.66699 11.6017 2.66699Z" fill="url(#paint0_linear_237_7331)"/>
<path fill-rule="evenodd" clip-rule="evenodd" d="M9.85833 12.8934V13.3337H6.5906C6.34747 13.3337 6.15039 13.1366 6.15039 12.8934V5.76541C6.15039 5.52227 6.34747 5.3252 6.5906 5.3252H9.41812C9.66125 5.3252 9.85833 5.52227 9.85833 5.76541V12.8934Z" fill="black"/>
<path fill-rule="evenodd" clip-rule="evenodd" d="M9.85833 12.8934V13.3337H6.5906C6.34747 13.3337 6.15039 13.1366 6.15039 12.8934V5.76541C6.15039 5.52227 6.34747 5.3252 6.5906 5.3252H9.41812C9.66125 5.3252 9.85833 5.52227 9.85833 5.76541V12.8934Z" fill="url(#paint1_linear_237_7331)"/>
<path fill-rule="evenodd" clip-rule="evenodd" d="M7.70794 12.8931V13.3333H4.44021C4.19708 13.3333 4 13.1363 4 12.8931V8.44021C4 8.19708 4.19708 8 4.44021 8H7.26772C7.51086 8 7.70794 8.19708 7.70794 8.44021V12.8931Z" fill="url(#paint2_linear_237_7331)"/>
<defs>
<linearGradient id="paint0_linear_237_7331" x1="10.1703" y1="2.65345" x2="10.1703" y2="13.3201" gradientUnits="userSpaceOnUse">
<stop stop-color="#EBBB14"/>
<stop offset="1" stop-color="#B25400"/>
</linearGradient>
<linearGradient id="paint1_linear_237_7331" x1="7.98675" y1="5.29218" x2="7.98675" y2="13.3006" gradientUnits="userSpaceOnUse">
<stop stop-color="#F9E583"/>
<stop offset="1" stop-color="#DE9800"/>
</linearGradient>
<linearGradient id="paint2_linear_237_7331" x1="5.83636" y1="7.98646" x2="5.83636" y2="13.3198" gradientUnits="userSpaceOnUse">
<stop stop-color="#F9E68B"/>
<stop offset="1" stop-color="#F3CD32"/>
</linearGradient>
</defs>
</svg>
