<svg width="20" height="20" viewBox="0 0 20 20" fill="none" xmlns="http://www.w3.org/2000/svg">
<mask id="path-1-inside-1_237_7324" fill="white">
<path d="M0 5C0 2.23858 2.23858 0 5 0H15C17.7614 0 20 2.23858 20 5V15C20 17.7614 17.7614 20 15 20H5C2.23858 20 0 17.7614 0 15V5Z"/>
</mask>
<path d="M0 5C0 2.23858 2.23858 0 5 0H15C17.7614 0 20 2.23858 20 5V15C20 17.7614 17.7614 20 15 20H5C2.23858 20 0 17.7614 0 15V5Z" fill="white"/>
<path d="M5 0V1H15V0V-1H5V0ZM20 5H19V15H20H21V5H20ZM15 20V19H5V20V21H15V20ZM0 15H1V5H0H-1V15H0ZM5 20V19C2.79086 19 1 17.2091 1 15H0H-1C-1 18.3137 1.68629 21 5 21V20ZM20 15H19C19 17.2091 17.2091 19 15 19V20V21C18.3137 21 21 18.3137 21 15H20ZM15 0V1C17.2091 1 19 2.79086 19 5H20H21C21 1.68629 18.3137 -1 15 -1V0ZM5 0V-1C1.68629 -1 -1 1.68629 -1 5H0H1C1 2.79086 2.79086 1 5 1V0Z" fill="#0B1228" fill-opacity="0.14" mask="url(#path-1-inside-1_237_7324)"/>
<path d="M14.5007 3.33301H10.9663C10.6624 3.33301 10.416 3.57937 10.416 3.88327V16.1161C10.416 16.42 10.6624 16.6663 10.9663 16.6663H14.5007C14.8046 16.6663 15.0509 16.42 15.0509 16.1161V3.88327C15.0509 3.57937 14.8046 3.33301 14.5007 3.33301Z" fill="url(#paint0_linear_237_7324)"/>
<path fill-rule="evenodd" clip-rule="evenodd" d="M12.3224 16.1156V16.6659H8.23776C7.93385 16.6659 7.6875 16.4195 7.6875 16.1156V7.20554C7.6875 6.90162 7.93385 6.65527 8.23776 6.65527H11.7722C12.0761 6.65527 12.3224 6.90162 12.3224 7.20554V16.1156Z" fill="black"/>
<path fill-rule="evenodd" clip-rule="evenodd" d="M12.3224 16.1156V16.6659H8.23776C7.93385 16.6659 7.6875 16.4195 7.6875 16.1156V7.20554C7.6875 6.90162 7.93385 6.65527 8.23776 6.65527H11.7722C12.0761 6.65527 12.3224 6.90162 12.3224 7.20554V16.1156Z" fill="url(#paint1_linear_237_7324)"/>
<path fill-rule="evenodd" clip-rule="evenodd" d="M9.63492 16.1164V16.6667H5.55026C5.24635 16.6667 5 16.4203 5 16.1164V10.5503C5 10.2463 5.24635 10 5.55026 10H9.08466C9.38857 10 9.63492 10.2463 9.63492 10.5503V16.1164Z" fill="url(#paint2_linear_237_7324)"/>
<defs>
<linearGradient id="paint0_linear_237_7324" x1="12.7115" y1="3.31608" x2="12.7115" y2="16.6494" gradientUnits="userSpaceOnUse">
<stop stop-color="#EBBB14"/>
<stop offset="1" stop-color="#B25400"/>
</linearGradient>
<linearGradient id="paint1_linear_237_7324" x1="9.98295" y1="6.614" x2="9.98295" y2="16.6246" gradientUnits="userSpaceOnUse">
<stop stop-color="#F9E583"/>
<stop offset="1" stop-color="#DE9800"/>
</linearGradient>
<linearGradient id="paint2_linear_237_7324" x1="7.29545" y1="9.98307" x2="7.29545" y2="16.6497" gradientUnits="userSpaceOnUse">
<stop stop-color="#F9E68B"/>
<stop offset="1" stop-color="#F3CD32"/>
</linearGradient>
</defs>
</svg>
