<svg width="24" height="24" viewBox="0 0 24 24" fill="none" xmlns="http://www.w3.org/2000/svg">
<mask id="path-1-inside-1_237_7317" fill="white">
<path d="M0 6.39569C0 2.86345 2.86345 0 6.39569 0H17.6043C21.1366 0 24 2.86345 24 6.39569V17.6043C24 21.1366 21.1366 24 17.6043 24H6.39569C2.86345 24 0 21.1366 0 17.6043V6.39569Z"/>
</mask>
<path d="M0 6.39569C0 2.86345 2.86345 0 6.39569 0H17.6043C21.1366 0 24 2.86345 24 6.39569V17.6043C24 21.1366 21.1366 24 17.6043 24H6.39569C2.86345 24 0 21.1366 0 17.6043V6.39569Z" fill="white"/>
<path d="M6.39569 0V1H17.6043V0V-1H6.39569V0ZM24 6.39569H23V17.6043H24H25V6.39569H24ZM17.6043 24V23H6.39569V24V25H17.6043V24ZM0 17.6043H1V6.39569H0H-1V17.6043H0ZM6.39569 24V23C3.41573 23 1 20.5843 1 17.6043H0H-1C-1 21.6888 2.31116 25 6.39569 25V24ZM24 17.6043H23C23 20.5843 20.5843 23 17.6043 23V24V25C21.6888 25 25 21.6888 25 17.6043H24ZM17.6043 0V1C20.5843 1 23 3.41573 23 6.39569H24H25C25 2.31116 21.6888 -1 17.6043 -1V0ZM6.39569 0V-1C2.31116 -1 -1 2.31116 -1 6.39569H0H1C1 3.41573 3.41573 1 6.39569 1V0Z" fill="#0B1228" fill-opacity="0.14" mask="url(#path-1-inside-1_237_7317)"/>
<path d="M17.4035 4H13.1623C12.7976 4 12.502 4.29563 12.502 4.66032V19.3397C12.502 19.7044 12.7976 20 13.1623 20H17.4035C17.7682 20 18.0639 19.7044 18.0639 19.3397V4.66032C18.0639 4.29563 17.7682 4 17.4035 4Z" fill="url(#paint0_linear_237_7317)"/>
<path fill-rule="evenodd" clip-rule="evenodd" d="M14.7885 19.3397V20H9.88688C9.52218 20 9.22656 19.7044 9.22656 19.3397V8.64762C9.22656 8.28292 9.52218 7.9873 9.88688 7.9873H14.1281C14.4928 7.9873 14.7885 8.28292 14.7885 8.64762V19.3397Z" fill="black"/>
<path fill-rule="evenodd" clip-rule="evenodd" d="M14.7885 19.3397V20H9.88688C9.52218 20 9.22656 19.7044 9.22656 19.3397V8.64762C9.22656 8.28292 9.52218 7.9873 9.88688 7.9873H14.1281C14.4928 7.9873 14.7885 8.28292 14.7885 8.64762V19.3397Z" fill="url(#paint1_linear_237_7317)"/>
<path fill-rule="evenodd" clip-rule="evenodd" d="M11.5619 19.3397V20H6.66032C6.29562 20 6 19.7044 6 19.3397V12.6603C6 12.2956 6.29562 12 6.66032 12H10.9016C11.2663 12 11.5619 12.2956 11.5619 12.6603V19.3397Z" fill="url(#paint2_linear_237_7317)"/>
<defs>
<linearGradient id="paint0_linear_237_7317" x1="15.2565" y1="3.97968" x2="15.2565" y2="19.9797" gradientUnits="userSpaceOnUse">
<stop stop-color="#EBBB14"/>
<stop offset="1" stop-color="#B25400"/>
</linearGradient>
<linearGradient id="paint1_linear_237_7317" x1="11.9811" y1="7.93778" x2="11.9811" y2="19.9505" gradientUnits="userSpaceOnUse">
<stop stop-color="#F9E583"/>
<stop offset="1" stop-color="#DE9800"/>
</linearGradient>
<linearGradient id="paint2_linear_237_7317" x1="8.75454" y1="11.9797" x2="8.75454" y2="19.9797" gradientUnits="userSpaceOnUse">
<stop stop-color="#F9E68B"/>
<stop offset="1" stop-color="#F3CD32"/>
</linearGradient>
</defs>
</svg>
