<svg width="32" height="32" viewBox="0 0 32 32" fill="none" xmlns="http://www.w3.org/2000/svg">
<mask id="path-1-inside-1_237_7310" fill="white">
<path d="M0 8C0 3.58172 3.58172 0 8 0H24C28.4183 0 32 3.58172 32 8V24C32 28.4183 28.4183 32 24 32H8C3.58172 32 0 28.4183 0 24V8Z"/>
</mask>
<path d="M0 8C0 3.58172 3.58172 0 8 0H24C28.4183 0 32 3.58172 32 8V24C32 28.4183 28.4183 32 24 32H8C3.58172 32 0 28.4183 0 24V8Z" fill="white"/>
<path d="M8 0V1H24V0V-1H8V0ZM32 8H31V24H32H33V8H32ZM24 32V31H8V32V33H24V32ZM0 24H1V8H0H-1V24H0ZM8 32V31C4.13401 31 1 27.866 1 24H0H-1C-1 28.9706 3.02944 33 8 33V32ZM32 24H31C31 27.866 27.866 31 24 31V32V33C28.9706 33 33 28.9706 33 24H32ZM24 0V1C27.866 1 31 4.13401 31 8H32H33C33 3.02944 28.9706 -1 24 -1V0ZM8 0V-1C3.02944 -1 -1 3.02944 -1 8H0H1C1 4.13401 4.13401 1 8 1V0Z" fill="#0B1228" fill-opacity="0.14" mask="url(#path-1-inside-1_237_7310)"/>
<path d="M23.2034 5.33301H17.5484C17.0621 5.33301 16.668 5.72719 16.668 6.21343V25.7859C16.668 26.2722 17.0621 26.6663 17.5484 26.6663H23.2034C23.6897 26.6663 24.0838 26.2722 24.0838 25.7859V6.21343C24.0838 5.72719 23.6897 5.33301 23.2034 5.33301Z" fill="url(#paint0_linear_237_7310)"/>
<path fill-rule="evenodd" clip-rule="evenodd" d="M19.7167 25.7859V26.6663H13.1812C12.6949 26.6663 12.3008 26.2722 12.3008 25.7859V11.5298C12.3008 11.0436 12.6949 10.6494 13.1812 10.6494H18.8362C19.3225 10.6494 19.7167 11.0436 19.7167 11.5298V25.7859Z" fill="black"/>
<path fill-rule="evenodd" clip-rule="evenodd" d="M19.7167 25.7859V26.6663H13.1812C12.6949 26.6663 12.3008 26.2722 12.3008 25.7859V11.5298C12.3008 11.0436 12.6949 10.6494 13.1812 10.6494H18.8362C19.3225 10.6494 19.7167 11.0436 19.7167 11.5298V25.7859Z" fill="url(#paint1_linear_237_7310)"/>
<path fill-rule="evenodd" clip-rule="evenodd" d="M15.4159 25.7862V26.6667H8.88042C8.39416 26.6667 8 26.2725 8 25.7862V16.8804C8 16.3942 8.39416 16 8.88042 16H14.5354C15.0217 16 15.4159 16.3942 15.4159 16.8804V25.7862Z" fill="url(#paint2_linear_237_7310)"/>
<defs>
<linearGradient id="paint0_linear_237_7310" x1="20.3407" y1="5.30592" x2="20.3407" y2="26.6393" gradientUnits="userSpaceOnUse">
<stop stop-color="#EBBB14"/>
<stop offset="1" stop-color="#B25400"/>
</linearGradient>
<linearGradient id="paint1_linear_237_7310" x1="15.9735" y1="10.5834" x2="15.9735" y2="26.6003" gradientUnits="userSpaceOnUse">
<stop stop-color="#F9E583"/>
<stop offset="1" stop-color="#DE9800"/>
</linearGradient>
<linearGradient id="paint2_linear_237_7310" x1="11.6727" y1="15.9729" x2="11.6727" y2="26.6396" gradientUnits="userSpaceOnUse">
<stop stop-color="#F9E68B"/>
<stop offset="1" stop-color="#F3CD32"/>
</linearGradient>
</defs>
</svg>
