<svg width="16" height="16" viewBox="0 0 16 16" fill="none" xmlns="http://www.w3.org/2000/svg">
<path d="M0 4C0 1.79086 1.79086 0 4 0H12C14.2091 0 16 1.79086 16 4V12C16 14.2091 14.2091 16 12 16H4C1.79086 16 0 14.2091 0 12V4Z" fill="#292A2E"/>
<path d="M13 8.03594C12.9856 8.13181 12.9324 8.20445 12.8655 8.27128C11.3345 9.80205 9.80405 11.3333 8.27345 12.8645C8.25644 12.8815 8.23999 12.8992 8.22186 12.915C8.15094 12.9767 8.07032 12.9866 7.98624 12.9497C7.90333 12.9134 7.85856 12.8453 7.85235 12.7555C7.84874 12.7034 7.86847 12.6561 7.89944 12.6137C7.96013 12.5306 8.02042 12.4473 8.08091 12.364C8.46643 11.8331 8.85195 11.3022 9.23751 10.7713C9.48957 10.4242 9.74172 10.0772 9.99382 9.73016C10.0606 9.63827 10.1276 9.54653 10.1941 9.45447C10.2007 9.44529 10.2112 9.43734 10.2094 9.42302C10.1963 9.41917 10.1862 9.42712 10.1756 9.43141C9.8069 9.58167 9.43827 9.73205 9.06968 9.88251C8.76414 10.0072 8.45868 10.132 8.15319 10.2569C7.49154 10.5272 6.8298 10.7974 6.16835 11.0684C6.11504 11.0902 6.06161 11.1031 6.00453 11.0899C5.91408 11.0691 5.84793 10.9976 5.83213 10.9047C5.81797 10.8215 5.85812 10.7335 5.93634 10.6865C6.08748 10.5956 6.23987 10.5067 6.39174 10.417C6.93361 10.097 7.47541 9.77677 8.01737 9.4568C8.49715 9.17349 8.9771 8.89041 9.45692 8.60718C9.47405 8.59707 9.49085 8.58648 9.51669 8.57072C9.46988 8.56659 9.43253 8.56225 9.39503 8.56021C9.2284 8.55102 9.06169 8.54272 8.89503 8.53357C8.75905 8.52611 8.6231 8.51825 8.4872 8.50999C8.32996 8.50044 8.1728 8.49009 8.01556 8.48059C7.95158 8.47669 7.88753 8.47457 7.82355 8.47084C7.70229 8.46378 7.58103 8.45596 7.45977 8.44878C7.41047 8.44585 7.36109 8.44412 7.31179 8.44071C7.19326 8.43253 7.07445 8.42868 6.9558 8.42178C6.79856 8.41264 6.6414 8.40181 6.48412 8.39258C6.43213 8.38953 6.3801 8.38748 6.32812 8.38424C6.1629 8.37397 5.99747 8.36647 5.83217 8.3574C5.69354 8.34978 5.55495 8.34148 5.41633 8.33353C5.27505 8.32543 5.13369 8.31809 4.9925 8.30907C4.85391 8.3002 4.71536 8.29178 4.57665 8.28504C4.43662 8.27826 4.29675 8.26923 4.1568 8.26117C4.01817 8.25319 3.87958 8.24521 3.74095 8.23722C3.60233 8.22924 3.4637 8.22182 3.32511 8.21292C3.28648 8.21043 3.24757 8.20947 3.20927 8.20513C3.11625 8.19454 3.05118 8.14517 3.01805 8.05632C3.01247 8.04132 3.00959 8.02527 3 8.01191V7.94777C3.01264 7.93618 3.01388 7.91929 3.01998 7.90465C3.05483 7.8211 3.11609 7.77052 3.20698 7.76181C3.28271 7.75455 3.3588 7.75122 3.43474 7.74673C3.57469 7.73843 3.71464 7.73057 3.85459 7.7225C3.99322 7.71452 4.13181 7.70622 4.27048 7.69864C4.43714 7.68953 4.60389 7.68207 4.77048 7.67176C4.82114 7.66863 4.8718 7.66635 4.92246 7.66342C5.03574 7.65684 5.14894 7.64854 5.26221 7.64204C5.37954 7.63534 5.49703 7.63165 5.6142 7.62314C5.66486 7.61945 5.71556 7.61829 5.76623 7.61516C5.8848 7.60782 6.00341 7.6002 6.12202 7.59326C6.186 7.58949 6.2501 7.58752 6.31408 7.58363C6.47132 7.57413 6.62852 7.56366 6.78576 7.55415C6.92435 7.54577 7.06302 7.53815 7.20164 7.5302C7.34292 7.5221 7.48424 7.514 7.62551 7.5059C7.76282 7.49799 7.90008 7.49005 8.03738 7.48215C8.17734 7.47409 8.31729 7.4657 8.45728 7.45808C8.62395 7.44898 8.79069 7.44152 8.95728 7.43125C9.00794 7.42812 9.0586 7.42571 9.10927 7.4229C9.23458 7.41588 9.35981 7.40802 9.48508 7.40032C9.49462 7.39972 9.50529 7.40265 9.51476 7.39535C9.50413 7.38295 9.49146 7.37802 9.48006 7.37128C8.9438 7.05467 8.4075 6.73823 7.87124 6.42166C7.31312 6.09218 6.75499 5.7627 6.19691 5.43317C6.11059 5.38223 6.02379 5.33205 5.93831 5.27974C5.86093 5.23237 5.8215 5.14625 5.83349 5.06554C5.85495 4.92126 6.01003 4.83205 6.14858 4.89053C6.46984 5.02615 6.79346 5.15608 7.11625 5.28809C7.69872 5.52627 8.28131 5.76422 8.86382 6.00237C9.3016 6.18135 9.73935 6.36045 10.1773 6.53915C10.1872 6.54324 10.1974 6.55359 10.2102 6.5444C10.2105 6.53045 10.2007 6.52218 10.1939 6.51276C9.93947 6.16237 9.68484 5.81219 9.43036 5.46189C9.11071 5.02182 8.79122 4.58163 8.4716 4.14152C8.28235 3.88091 8.09475 3.61909 7.90289 3.36041C7.79984 3.22146 7.88179 3.04749 8.01031 3.01071C8.01921 3.00818 8.02752 3.00361 8.0361 3C8.06282 3 8.08957 3 8.11629 3C8.17561 3.01464 8.22054 3.0507 8.26294 3.0931C9.79824 4.62884 11.3338 6.16426 12.87 7.69916C12.9361 7.76526 12.9878 7.83686 13 7.93185V8.0361L13 8.03594Z" fill="white"/>
</svg>
