<svg width="20" height="20" viewBox="0 0 20 20" fill="none" xmlns="http://www.w3.org/2000/svg">
<path d="M0 5C0 2.23858 2.23858 0 5 0H15C17.7614 0 20 2.23858 20 5V15C20 17.7614 17.7614 20 15 20H5C2.23858 20 0 17.7614 0 15V5Z" fill="#292A2E"/>
<path d="M15 10.5395C14.9842 10.645 14.9257 10.7249 14.8521 10.7984C13.168 12.4823 11.4845 14.1667 9.80079 15.851C9.78208 15.8697 9.76399 15.8891 9.74405 15.9065C9.66604 15.9743 9.57735 15.9852 9.48487 15.9447C9.39366 15.9047 9.34442 15.8299 9.33758 15.7311C9.33361 15.6737 9.35532 15.6217 9.38938 15.5751C9.45614 15.4837 9.52246 15.392 9.589 15.3004C10.0131 14.7164 10.4371 14.1324 10.8613 13.5484C11.1385 13.1666 11.4159 12.7849 11.6932 12.4032C11.7666 12.3021 11.8403 12.2012 11.9135 12.0999C11.9208 12.0898 11.9323 12.0811 11.9303 12.0653C11.9159 12.0611 11.9048 12.0698 11.8932 12.0745C11.4876 12.2398 11.0821 12.4053 10.6766 12.5708C10.3406 12.7079 10.0046 12.8453 9.66851 12.9826C8.94069 13.28 8.21278 13.5772 7.48519 13.8752C7.42655 13.8992 7.36777 13.9134 7.30499 13.8989C7.20549 13.876 7.13273 13.7974 7.11534 13.6951C7.09977 13.6036 7.14393 13.5068 7.22998 13.4551C7.39623 13.3552 7.56386 13.2574 7.73091 13.1588C8.32698 12.8066 8.92295 12.4545 9.51911 12.1025C10.0469 11.7908 10.5748 11.4795 11.1026 11.1679C11.1215 11.1568 11.1399 11.1451 11.1684 11.1278C11.1169 11.1232 11.0758 11.1185 11.0345 11.1162C10.8512 11.1061 10.6679 11.097 10.4845 11.0869C10.3349 11.0787 10.1854 11.0701 10.0359 11.061C9.86296 11.0505 9.69008 11.0391 9.51712 11.0286C9.44674 11.0244 9.37628 11.022 9.3059 11.0179C9.17251 11.0102 9.03913 11.0016 8.90574 10.9937C8.85152 10.9904 8.7972 10.9885 8.74297 10.9848C8.61259 10.9758 8.48189 10.9715 8.35138 10.964C8.17841 10.9539 8.00554 10.942 7.83253 10.9318C7.77534 10.9285 7.71811 10.9262 7.66093 10.9227C7.47919 10.9114 7.29722 10.9031 7.11539 10.8931C6.9629 10.8848 6.81045 10.8756 6.65796 10.8669C6.50256 10.858 6.34706 10.8499 6.19175 10.84C6.0393 10.8302 5.8869 10.821 5.73432 10.8135C5.58028 10.8061 5.42643 10.7962 5.27248 10.7873C5.11999 10.7785 4.96754 10.7697 4.81505 10.7609C4.66256 10.7522 4.51007 10.744 4.35762 10.7342C4.31513 10.7315 4.27233 10.7304 4.23019 10.7256C4.12787 10.714 4.0563 10.6597 4.01986 10.5619C4.01372 10.5454 4.01055 10.5278 4 10.5131V10.4426C4.0139 10.4298 4.01527 10.4112 4.02197 10.3951C4.06032 10.3032 4.12769 10.2476 4.22768 10.238C4.31098 10.23 4.39469 10.2263 4.47821 10.2214C4.63216 10.2123 4.78611 10.2036 4.94005 10.1948C5.09254 10.186 5.24499 10.1768 5.39752 10.1685C5.58086 10.1585 5.76428 10.1503 5.94753 10.1389C6.00325 10.1355 6.05898 10.133 6.11471 10.1298C6.23931 10.1225 6.36383 10.1134 6.48844 10.1062C6.6175 10.0989 6.74673 10.0948 6.87562 10.0855C6.93135 10.0814 6.98712 10.0801 7.04285 10.0767C7.17328 10.0686 7.30375 10.0602 7.43422 10.0526C7.5046 10.0484 7.57511 10.0463 7.64549 10.042C7.81845 10.0315 7.99137 10.02 8.16434 10.0096C8.31678 10.0003 8.46932 9.99196 8.62181 9.98322C8.77721 9.97431 8.93266 9.9654 9.08806 9.95649C9.2391 9.94779 9.39009 9.93906 9.54112 9.93036C9.69507 9.9215 9.84902 9.91227 10.003 9.90389C10.1863 9.89387 10.3698 9.88567 10.553 9.87437C10.6087 9.87093 10.6645 9.86828 10.7202 9.86519C10.858 9.85747 10.9958 9.84882 11.1336 9.84035C11.1441 9.83969 11.1558 9.84291 11.1662 9.83488C11.1545 9.82125 11.1406 9.81582 11.1281 9.80841C10.5382 9.46014 9.94825 9.11205 9.35836 8.76383C8.74443 8.4014 8.13049 8.03896 7.5166 7.67649C7.42165 7.62045 7.32617 7.56525 7.23214 7.50772C7.14702 7.45561 7.10365 7.36087 7.11684 7.2721C7.14045 7.11339 7.31103 7.01525 7.46343 7.07959C7.81682 7.22877 8.17281 7.37168 8.52787 7.5169C9.16859 7.7789 9.80944 8.04064 10.4502 8.3026C10.9318 8.49948 11.4133 8.69649 11.895 8.89306C11.906 8.89757 11.9172 8.90895 11.9312 8.89884C11.9316 8.88349 11.9208 8.8744 11.9133 8.86403C11.6334 8.47861 11.3533 8.09341 11.0734 7.70808C10.7218 7.224 10.3703 6.73979 10.0188 6.25567C9.81059 5.969 9.60422 5.681 9.39318 5.39645C9.27982 5.24361 9.36997 5.05224 9.51134 5.01178C9.52113 5.009 9.53027 5.00397 9.53971 5C9.5691 5 9.59853 5 9.62791 5C9.69317 5.01611 9.74259 5.05577 9.78923 5.10241C11.4781 6.79172 13.1672 8.48069 14.857 10.1691C14.9298 10.2418 14.9866 10.3205 15 10.425V10.5397L15 10.5395Z" fill="white"/>
</svg>
