<svg width="24" height="24" viewBox="0 0 24 24" fill="none" xmlns="http://www.w3.org/2000/svg">
<path d="M0 6.39569C0 2.86345 2.86345 0 6.39569 0H17.6043C21.1366 0 24 2.86345 24 6.39569V17.6043C24 21.1366 21.1366 24 17.6043 24H6.39569C2.86345 24 0 21.1366 0 17.6043V6.39569Z" fill="#292A2E"/>
<path d="M19.3066 11.8722C19.2851 12.0158 19.2054 12.1246 19.1053 12.2246C16.8124 14.5172 14.5202 16.8105 12.2279 19.1037C12.2024 19.1292 12.1778 19.1557 12.1506 19.1793C12.0444 19.2717 11.9237 19.2865 11.7978 19.2313C11.6736 19.1769 11.6065 19.075 11.5972 18.9405C11.5918 18.8624 11.6214 18.7916 11.6678 18.7281C11.7586 18.6037 11.8489 18.4788 11.9395 18.3541C12.5169 17.559 13.0943 16.7639 13.6717 15.9688C14.0492 15.449 14.4269 14.9293 14.8044 14.4096C14.9044 14.2719 15.0047 14.1345 15.1043 13.9967C15.1143 13.9829 15.13 13.971 15.1273 13.9496C15.1076 13.9438 15.0925 13.9557 15.0767 13.9621C14.5245 14.1872 13.9724 14.4124 13.4204 14.6377C12.9628 14.8245 12.5053 15.0114 12.0478 15.1984C11.0569 15.6033 10.0658 16.008 9.07518 16.4137C8.99534 16.4464 8.91532 16.4657 8.82984 16.446C8.69437 16.4148 8.59531 16.3077 8.57164 16.1685C8.55043 16.0439 8.61056 15.9122 8.72771 15.8418C8.95407 15.7057 9.18229 15.5726 9.40974 15.4383C10.2213 14.9589 11.0327 14.4794 11.8444 14.0001C12.5629 13.5758 13.2817 13.1519 14.0003 12.7277C14.026 12.7126 14.0511 12.6967 14.0898 12.6731C14.0197 12.6669 13.9638 12.6604 13.9076 12.6574C13.6581 12.6436 13.4084 12.6312 13.1588 12.6175C12.9552 12.6063 12.7516 12.5945 12.548 12.5821C12.3125 12.5679 12.0772 12.5524 11.8417 12.5381C11.7459 12.5323 11.6499 12.5291 11.5541 12.5235C11.3725 12.5129 11.1909 12.5012 11.0093 12.4905C10.9354 12.4861 10.8615 12.4835 10.7877 12.4784C10.6101 12.4661 10.4322 12.4604 10.2545 12.45C10.019 12.4363 9.78364 12.4201 9.54809 12.4063C9.47023 12.4017 9.39231 12.3987 9.31446 12.3938C9.06701 12.3784 8.81926 12.3672 8.5717 12.3536C8.36408 12.3422 8.15652 12.3298 7.9489 12.3179C7.73732 12.3057 7.52562 12.2948 7.31416 12.2812C7.1066 12.268 6.8991 12.2553 6.69137 12.2453C6.48165 12.2351 6.27217 12.2216 6.06257 12.2095C5.85495 12.1976 5.64739 12.1856 5.43977 12.1736C5.23216 12.1617 5.02454 12.1506 4.81698 12.1372C4.75913 12.1335 4.70086 12.1321 4.64349 12.1256C4.50417 12.1097 4.40673 12.0358 4.35711 11.9027C4.34876 11.8802 4.34444 11.8562 4.33008 11.8362V11.7401C4.349 11.7228 4.35086 11.6975 4.36 11.6756C4.4122 11.5504 4.50393 11.4747 4.64006 11.4616C4.75348 11.4508 4.86744 11.4458 4.98117 11.4391C5.19077 11.4266 5.40036 11.4148 5.60996 11.4028C5.81758 11.3908 6.02514 11.3784 6.23282 11.367C6.48243 11.3534 6.73216 11.3422 6.98165 11.3268C7.05752 11.3221 7.13339 11.3187 7.20927 11.3143C7.37892 11.3044 7.54845 11.292 7.7181 11.2823C7.89382 11.2722 8.06977 11.2667 8.24525 11.254C8.32113 11.2484 8.39706 11.2467 8.47293 11.242C8.65051 11.231 8.82815 11.2196 9.00579 11.2092C9.10161 11.2036 9.19761 11.2006 9.29343 11.1948C9.52892 11.1806 9.76435 11.1649 9.99985 11.1506C10.2074 11.1381 10.4151 11.1267 10.6227 11.1148C10.8343 11.1026 11.0459 11.0905 11.2575 11.0784C11.4631 11.0665 11.6687 11.0546 11.8744 11.0428C12.084 11.0307 12.2936 11.0182 12.5032 11.0068C12.7528 10.9931 13.0025 10.9819 13.252 10.9666C13.3279 10.9619 13.4038 10.9583 13.4797 10.9541C13.6673 10.9436 13.8549 10.9318 14.0425 10.9202C14.0568 10.9193 14.0728 10.9237 14.087 10.9128C14.071 10.8942 14.0521 10.8868 14.035 10.8768C13.2319 10.4026 12.4287 9.92866 11.6255 9.45455C10.7896 8.9611 9.95377 8.46765 9.11795 7.97414C8.98867 7.89784 8.85867 7.82269 8.73065 7.74435C8.61477 7.6734 8.55572 7.54442 8.57368 7.42355C8.60582 7.20746 8.83807 7.07386 9.04556 7.16145C9.5267 7.36456 10.0114 7.55914 10.4948 7.75685C11.3671 8.11357 12.2397 8.46993 13.1121 8.82659C13.7677 9.09464 14.4233 9.36288 15.0791 9.63051C15.0941 9.63664 15.1094 9.65214 15.1285 9.63838C15.129 9.61747 15.1143 9.6051 15.1041 9.59098C14.723 9.06623 14.3417 8.54178 13.9606 8.01715C13.4818 7.35807 13.0033 6.69881 12.5247 6.03968C12.2412 5.64937 11.9603 5.25727 11.6729 4.86985C11.5186 4.66175 11.6413 4.40121 11.8338 4.34612C11.8471 4.34233 11.8596 4.33548 11.8724 4.33008C11.9124 4.33008 11.9525 4.33008 11.9925 4.33008C12.0814 4.35201 12.1487 4.40601 12.2121 4.46951C14.5115 6.76952 16.8113 9.06905 19.1119 11.3678C19.211 11.4668 19.2884 11.574 19.3066 11.7163V11.8724L19.3066 11.8722Z" fill="white"/>
</svg>
