<svg width="32" height="32" viewBox="0 0 32 32" fill="none" xmlns="http://www.w3.org/2000/svg">
<path d="M0 8C0 3.58172 3.58172 0 8 0H24C28.4183 0 32 3.58172 32 8V24C32 28.4183 28.4183 32 24 32H8C3.58172 32 0 28.4183 0 24V8Z" fill="#292A2E"/>
<path d="M25.0519 16.0909C25.0261 16.2639 24.93 16.3951 24.8093 16.5157C22.0455 19.2791 19.2827 22.0433 16.5196 24.8074C16.4889 24.8381 16.4592 24.87 16.4265 24.8985C16.2985 25.0099 16.1529 25.0277 16.0012 24.9612C15.8515 24.8956 15.7707 24.7728 15.7595 24.6107C15.7529 24.5165 15.7886 24.4312 15.8445 24.3547C15.954 24.2047 16.0629 24.0542 16.1721 23.9039C16.868 22.9455 17.5639 21.9871 18.2599 21.0287C18.715 20.4021 19.1701 19.7757 19.6252 19.1493C19.7457 18.9834 19.8667 18.8178 19.9867 18.6516C19.9987 18.635 20.0176 18.6207 20.0144 18.5948C19.9907 18.5879 19.9725 18.6022 19.9534 18.61C19.2878 18.8812 18.6224 19.1527 17.957 19.4243C17.4054 19.6494 16.854 19.8748 16.3025 20.1001C15.1081 20.5882 13.9136 21.0759 12.7195 21.565C12.6233 21.6044 12.5268 21.6277 12.4238 21.6039C12.2605 21.5664 12.1411 21.4373 12.1126 21.2695C12.087 21.1193 12.1595 20.9605 12.3007 20.8756C12.5735 20.7116 12.8486 20.5512 13.1228 20.3893C14.101 19.8114 15.079 19.2334 16.0574 18.6558C16.9235 18.1444 17.7899 17.6334 18.656 17.1221C18.687 17.1038 18.7173 17.0847 18.7639 17.0563C18.6794 17.0488 18.612 17.041 18.5443 17.0373C18.2435 17.0207 17.9426 17.0057 17.6417 16.9892C17.3962 16.9757 17.1508 16.9615 16.9055 16.9466C16.6217 16.9294 16.3379 16.9107 16.0541 16.8936C15.9386 16.8865 15.823 16.8827 15.7075 16.876C15.4886 16.8632 15.2697 16.8491 15.0508 16.8361C14.9618 16.8308 14.8726 16.8277 14.7836 16.8216C14.5697 16.8068 14.3552 16.7999 14.141 16.7874C13.8572 16.7709 13.5734 16.7513 13.2895 16.7347C13.1957 16.7292 13.1018 16.7255 13.0079 16.7196C12.7097 16.7011 12.411 16.6875 12.1126 16.6712C11.8624 16.6574 11.6122 16.6424 11.362 16.6281C11.1069 16.6135 10.8517 16.6002 10.5969 16.5839C10.3467 16.5679 10.0966 16.5527 9.84618 16.5406C9.59339 16.5283 9.34089 16.512 9.08825 16.4975C8.838 16.4831 8.58782 16.4686 8.33757 16.4542C8.08732 16.4398 7.83707 16.4264 7.58689 16.4104C7.51716 16.4059 7.44692 16.4041 7.37777 16.3963C7.20985 16.3772 7.0924 16.2881 7.03258 16.1277C7.02252 16.1006 7.01731 16.0716 7 16.0475V15.9317C7.02281 15.9108 7.02505 15.8803 7.03606 15.8539C7.09899 15.703 7.20956 15.6117 7.37364 15.596C7.51035 15.5829 7.64771 15.5769 7.78479 15.5688C8.03743 15.5538 8.29007 15.5396 8.54271 15.5251C8.79296 15.5107 9.04314 15.4957 9.29347 15.482C9.59433 15.4655 9.89534 15.4521 10.1961 15.4335C10.2875 15.4278 10.379 15.4237 10.4704 15.4184C10.6749 15.4065 10.8793 15.3915 11.0837 15.3798C11.2956 15.3677 11.5076 15.3611 11.7192 15.3457C11.8106 15.339 11.9021 15.3369 11.9936 15.3313C12.2076 15.318 12.4218 15.3043 12.6359 15.2918C12.7514 15.2849 12.8671 15.2814 12.9826 15.2744C13.2664 15.2572 13.5502 15.2383 13.8341 15.2212C14.0842 15.206 14.3346 15.1923 14.5848 15.1779C14.8398 15.1633 15.0949 15.1487 15.35 15.134C15.5978 15.1198 15.8456 15.1054 16.0935 15.0912C16.3461 15.0766 16.5988 15.0615 16.8515 15.0477C17.1524 15.0313 17.4534 15.0178 17.7541 14.9993C17.8455 14.9936 17.937 14.9893 18.0284 14.9842C18.2547 14.9716 18.4807 14.9574 18.7069 14.9435C18.7241 14.9424 18.7434 14.9477 18.7604 14.9345C18.7413 14.9121 18.7184 14.9032 18.6978 14.891C17.7298 14.3195 16.7616 13.7482 15.7936 13.1768C14.786 12.582 13.7785 11.9872 12.7711 11.3924C12.6152 11.3004 12.4585 11.2098 12.3042 11.1154C12.1646 11.0299 12.0934 10.8744 12.115 10.7287C12.1538 10.4683 12.4337 10.3072 12.6838 10.4128C13.2637 10.6576 13.848 10.8922 14.4306 11.1305C15.4821 11.5604 16.5338 11.99 17.5854 12.4199C18.3757 12.743 19.1659 13.0663 19.9564 13.3889C19.9744 13.3963 19.9928 13.4149 20.0158 13.3984C20.0165 13.3732 19.9987 13.3582 19.9864 13.3412C19.5271 12.7087 19.0675 12.0766 18.6081 11.4442C18.0311 10.6498 17.4543 9.85516 16.8773 9.06067C16.5357 8.59021 16.197 8.11759 15.8507 7.65061C15.6647 7.39978 15.8126 7.08573 16.0446 7.01933C16.0607 7.01477 16.0757 7.00652 16.0912 7C16.1394 7 16.1877 7 16.2359 7C16.343 7.02643 16.4241 7.09153 16.5007 7.16807C19.2722 9.94038 22.0442 12.7121 24.8173 15.4829C24.9367 15.6023 25.03 15.7315 25.052 15.903V16.0912L25.0519 16.0909Z" fill="white"/>
</svg>
