<svg width="80" height="80" viewBox="0 0 80 80" fill="none" xmlns="http://www.w3.org/2000/svg">
<mask id="mask0_213_29641" style="mask-type:luminance" maskUnits="userSpaceOnUse" x="22" y="34" width="45" height="39">
<path d="M22.2197 72.53L44.4497 34.42L66.6797 72.53H22.2197Z" fill="white"/>
</mask>
<g mask="url(#mask0_213_29641)">
<path d="M-8.62012 68.4601L61.6599 21.0601L101.28 88.1401L30.8999 131.95L-8.62012 68.4601Z" fill="#E56E00"/>
<path d="M52.1799 118.71L101.28 88.1501L88.3999 67.4701C77.5099 64.1501 65.6099 65.0801 53.6899 70.0001C51.3099 70.9801 48.9299 72.1201 46.5499 73.4201C45.2599 74.1201 43.9799 74.8701 42.6999 75.6701C39.2099 77.8401 36.0199 80.2001 33.1499 82.7101C24.6299 90.1501 18.8899 98.9901 16.3799 108.66L30.8899 131.97L52.1699 118.73L52.1799 118.71Z" fill="#AF59E1"/>
<path d="M52.1799 118.71C56.4199 107.86 56.4299 95.76 51.4799 83.27C50.1799 80 48.5499 76.71 46.5599 73.4C46.3599 73.06 46.1499 72.73 45.9399 72.39C43.6999 68.8 41.2899 65.59 38.7299 62.75C33.4399 56.89 27.4999 52.64 21.1499 49.92L-8.62012 68.46L16.3899 108.64L30.8999 131.95L52.1799 118.71Z" fill="#1558BC"/>
</g>
<path d="M53.48 30.24C53.48 43.07 43.08 53.48 30.24 53.48C17.4 53.48 7 43.08 7 30.24C7 17.4 17.41 7 30.25 7C43.09 7 53.49 17.4 53.49 30.24H53.48Z" fill="#4B4D51"/>
<path d="M30.5403 24.85C29.7103 25.96 29.5803 26.71 29.8203 26.88C30.0803 27.06 30.7003 26.69 31.5803 25.7C34.1003 22.95 37.1103 20.3 41.6703 18.27C44.2703 17.15 46.0103 16.65 47.5103 16.25C49.0203 15.88 50.3303 15.62 52.2603 15.57C53.8803 15.53 55.7903 15.69 57.6103 16.34C59.4203 16.99 61.0703 18.14 62.1703 19.63C63.3003 21.11 63.9103 22.76 64.0803 24.13C64.2703 25.52 64.0903 26.62 63.9803 27.21C63.9103 27.56 63.8203 27.91 63.7303 28.26C63.5603 28.88 63.1803 30.03 62.2503 31.36C62.0203 31.69 61.7503 32.03 61.4603 32.37C61.3103 32.53 61.1503 32.71 60.9803 32.87C60.8003 33.05 60.6103 33.23 60.4103 33.42C59.9903 33.84 59.6203 34.26 59.2403 34.65C58.8703 35.03 58.4603 35.39 58.1403 35.55C57.9903 35.62 57.9003 35.64 57.8803 35.62C57.8503 35.62 57.7803 35.6 57.6503 35.45C57.3903 35.16 57.2303 34.81 57.2503 34.41C57.2803 33.57 58.0203 32.48 58.9403 31.68C59.8503 30.89 60.9603 30.33 62.1403 30.2C63.3203 30.06 64.5503 30.31 65.6603 30.81C67.2403 31.5 68.4603 32.61 69.3303 33.74C70.2003 34.87 70.7403 36.06 70.9703 37.1C71.2003 38.14 71.1803 39.11 71.0303 39.93C70.9803 40.34 70.8803 40.71 70.7903 41.05C70.7103 41.39 70.6003 41.69 70.5003 41.96C70.0303 43.23 69.4003 44.38 68.6703 45.38C67.9703 46.4 67.1603 47.27 66.3603 48.08C64.7203 49.66 62.9803 50.89 61.1503 51.95C59.1103 53.03 59.4303 53.95 61.6903 53.03C63.7003 52.12 65.6503 50.96 67.5103 49.33C68.4203 48.5 69.3303 47.58 70.1403 46.47C70.9803 45.38 71.7103 44.1 72.2603 42.63C72.6503 41.5 73.3603 39.64 73.0203 37.02C72.8203 35.7 72.2903 34.35 71.4303 33.02C70.5703 31.7 69.3503 30.43 67.7403 29.45C66.7003 28.81 65.5203 28.34 64.2803 28.19C62.9503 28 61.4903 28.13 60.1703 28.66C58.8403 29.18 57.7003 30.07 56.8203 31.11C56.3803 31.64 55.9803 32.22 55.6903 32.89C55.4103 33.56 55.2503 34.37 55.4303 35.16C55.6203 35.96 56.0103 36.6 56.6603 37.11C56.9803 37.38 57.4903 37.54 57.9503 37.53C58.4103 37.51 58.7903 37.36 59.0903 37.2C60.2603 36.51 60.8403 35.69 61.4603 35.09C61.6103 34.94 61.7503 34.8 61.8803 34.67C62.0403 34.52 62.1903 34.38 62.3403 34.24C62.6303 33.95 62.8903 33.68 63.1103 33.41C63.5603 32.89 63.8803 32.44 64.0903 32.13C64.2903 31.81 64.4003 31.64 64.4003 31.64C64.4003 31.64 64.5603 31.38 64.8203 30.89C65.0603 30.39 65.4003 29.67 65.6703 28.71C66.2103 26.83 66.4003 23.95 65.1503 21.19C64.5503 19.82 63.6603 18.54 62.5603 17.44C62.2903 17.15 61.9703 16.93 61.6603 16.69C61.3503 16.46 61.0603 16.19 60.7203 16C60.0403 15.63 59.3903 15.22 58.6803 14.98C55.8803 13.87 53.1003 13.87 51.1303 14C48.1403 14.23 46.0003 14.81 44.4003 15.28C42.7903 15.76 41.7303 16.21 40.9103 16.55C38.4603 17.63 36.4503 18.96 34.7603 20.37C33.0803 21.79 31.7003 23.28 30.5203 24.84L30.5403 24.85Z" fill="white"/>
<path d="M49.5602 43.16L44.4602 34.42L33.4902 53.22C40.1802 52.28 45.9602 48.52 49.5602 43.16Z" fill="#101214"/>
</svg>
