<svg width="96" height="96" viewBox="0 0 96 96" fill="none" xmlns="http://www.w3.org/2000/svg">
<path d="M67.3899 39.8698C67.3899 46.9598 63.5799 53.1498 57.8999 56.5198L55.5799 68.5498H40.4899L38.1699 56.5198C32.4899 53.1598 28.6799 46.9598 28.6799 39.8698C28.6799 29.1798 37.3399 20.5098 48.0299 20.5098C58.7199 20.5098 67.3899 29.1798 67.3899 39.8698Z" fill="#FCA700"/>
<path d="M59.1599 62.2598L57.3299 75.7098H38.7399L36.8999 62.2598H59.1599Z" fill="#BF63F3"/>
<path d="M56.8 62.2598L55.58 68.5398H40.49L39.27 62.2598H56.8Z" fill="#82B536"/>
<path d="M56.8 62.2598L55.58 68.5398H40.49L39.27 62.2598H56.8Z" fill="#AE2A19"/>
<path d="M58.2202 18.6997C55.4502 20.7397 56.1102 21.6397 58.9702 19.8197C61.0202 18.5497 63.1402 17.2797 65.4702 15.9797C67.8102 14.7097 70.3702 13.3597 73.3402 12.2397C75.0202 11.5997 76.4102 11.2097 77.5802 11.0597C78.7402 10.8897 79.6902 11.0097 80.2302 11.3697C80.7602 11.7197 81.0102 12.3797 80.9602 13.2497C80.9302 14.1097 80.6702 15.0797 80.2102 16.1897C78.6502 19.9897 75.1502 24.5397 71.8402 28.3097C68.5102 32.0897 65.3002 35.1397 64.0502 36.3097L62.9602 37.3697C61.6702 38.6497 58.1602 42.0697 53.4402 46.0397C48.7302 50.0097 42.7902 54.5097 36.9302 58.0397C32.8102 60.5597 29.3002 62.2997 26.4502 63.3197C23.6302 64.3597 21.3502 64.5697 20.3702 64.1197C20.0802 63.9997 19.8702 63.8497 19.7302 63.6297C19.6602 63.5297 19.5802 63.4297 19.5502 63.2797C19.5002 63.1597 19.4502 63.0197 19.4402 62.8497C19.3502 62.2197 19.4402 61.4597 19.6602 60.7397C20.0602 59.2797 20.7302 57.8997 21.4202 56.6197C22.8202 54.0397 24.3802 51.7897 25.9702 49.5897C27.7502 47.1997 27.0202 46.5597 25.0302 48.8397C23.2502 50.9397 21.5202 53.1397 19.9602 55.7797C19.1902 57.1097 18.4202 58.5397 17.9202 60.2397C17.6602 61.0797 17.4802 62.0297 17.6102 63.0997C17.6302 63.3597 17.7002 63.6397 17.8102 63.9097C17.8802 64.1897 18.0502 64.4497 18.2202 64.6997C18.3702 64.9697 18.6302 65.1597 18.8502 65.3797C19.1002 65.5397 19.3602 65.7397 19.6402 65.8197C21.3902 66.5397 23.8702 66.2197 26.7502 65.3197C29.6502 64.3997 33.0302 62.8397 36.7602 60.6697C37.9702 59.9597 39.1602 59.2097 40.3002 58.4197C45.2502 55.0297 50.6702 50.8197 54.7802 47.3597C58.8902 43.9097 61.7302 41.2697 61.7302 41.2697C61.7302 41.2697 62.7802 40.2797 64.4702 38.6797C66.1402 37.0697 68.4002 34.7997 70.7602 32.1997C75.4702 27.0197 80.6102 20.4497 82.1902 15.4797C82.4702 14.5397 82.6602 13.6097 82.6102 12.6497C82.5802 11.6997 82.1502 10.6697 81.4002 10.0697C80.6502 9.47971 79.8302 9.28971 79.1502 9.21971C78.4602 9.14971 77.8502 9.18971 77.2902 9.24971C75.0902 9.54971 73.7402 10.0997 72.6902 10.4697C69.5502 11.6597 66.9602 13.0797 64.6102 14.4597C62.2702 15.8497 60.1902 17.2497 58.2102 18.6797L58.2202 18.6997Z" fill="#101214"/>
<path d="M26.7201 31.1497C28.9701 33.4997 29.7801 32.7297 27.7301 30.2597C26.2901 28.4897 24.8401 26.6697 23.3501 24.6397C21.8801 22.6097 20.2901 20.3697 19.0001 17.7297C18.2801 16.2697 17.9001 14.8897 18.0901 14.2397C18.1701 13.9397 18.3101 13.8497 18.6201 13.7197C18.9201 13.5997 19.3601 13.5997 19.7601 13.6197C21.4501 13.7797 23.0001 14.3397 25.0801 15.3297C28.6401 17.0297 33.1201 19.9997 36.9301 22.8497C40.7501 25.6997 43.9301 28.4097 45.1601 29.4697L46.2701 30.3897C47.6001 31.4697 51.1901 34.3997 55.4701 38.3597C59.7501 42.3097 64.7201 47.2897 68.8401 52.2697C71.7701 55.7697 73.9301 58.7697 75.3301 61.2597C76.0301 62.4997 76.5401 63.6197 76.7801 64.5397C76.9201 65.0097 76.9501 65.4097 76.9501 65.7197C76.9201 66.0097 76.8701 66.2097 76.7801 66.2897C76.6601 66.5197 76.0101 66.6497 75.3201 66.5797C74.6201 66.4997 73.8901 66.3297 73.1901 66.0997C71.7801 65.6497 70.4601 65.0497 69.2101 64.4497C66.7101 63.2297 64.4601 61.9497 62.2501 60.6297C59.8501 59.1597 59.2801 59.9497 61.5901 61.6397C63.7001 63.1497 65.9001 64.5897 68.4401 65.9597C69.7201 66.6297 71.0801 67.2997 72.6201 67.8297C73.3901 68.0897 74.2201 68.3197 75.1401 68.4297C75.6101 68.4597 76.1001 68.4897 76.6501 68.3797C76.9101 68.3597 77.2101 68.1997 77.4901 68.0897C77.7601 67.9297 78.0401 67.7197 78.2501 67.4597C78.6001 67.0397 78.7701 66.4797 78.8301 65.9197C78.8601 65.3697 78.8201 64.7897 78.6801 64.2297C78.4201 63.0897 77.9301 61.8897 77.2801 60.6097C75.9701 58.0497 74.0001 55.1497 71.4501 51.9797C70.6101 50.9497 69.7501 49.9497 68.8501 48.9897C65.0001 44.8397 60.3701 40.3097 56.6601 36.8697C52.9401 33.4297 50.1701 31.0497 50.1701 31.0497C50.1701 31.0497 49.1301 30.1697 47.4501 28.7597C45.7601 27.3597 43.4201 25.4597 40.7801 23.4697C35.5201 19.4697 28.9801 15.1997 24.6401 13.3497C23.0101 12.6497 21.5401 12.1097 20.0701 11.9297C19.3401 11.8497 18.6001 11.8297 17.8501 12.1197C17.6601 12.2097 17.4801 12.2897 17.3101 12.4097C17.1501 12.5397 16.9801 12.6697 16.8501 12.8197C16.5801 13.1297 16.4201 13.4897 16.3301 13.8197C16.1601 14.4897 16.2101 15.0397 16.2801 15.5097C16.3501 15.9897 16.4701 16.3897 16.5801 16.7597C16.8201 17.4897 17.0701 18.0597 17.3001 18.5397C18.7201 21.4297 20.3901 23.6597 21.9701 25.6997C23.5601 27.7197 25.1301 29.4897 26.7101 31.1697L26.7201 31.1497Z" fill="#101214"/>
</svg>
