<svg width="96" height="96" viewBox="0 0 96 96" fill="none" xmlns="http://www.w3.org/2000/svg">
<path fill-rule="evenodd" clip-rule="evenodd" d="M72.22 52.115C67.96 56.375 63.43 57.145 59.61 55.545L28.39 86.765L21.77 80.145L52.99 48.925C51.4 45.115 52.18 40.585 56.43 36.325C62.27 30.485 72.44 27.375 76.8 31.735C81.15 36.085 78.05 46.275 72.21 52.105H72.22V52.115Z" fill="#82B536"/>
<path fill-rule="evenodd" clip-rule="evenodd" d="M25.69 25.125L42.19 41.625C44.18 43.615 44.19 46.865 42.19 48.865L41.31 49.745L71.88 80.315L65.26 86.935L34.69 56.365L33.74 57.315C31.74 59.315 28.49 59.305 26.5 57.315L10 40.815L25.69 25.125Z" fill="#BF63F3"/>
<path d="M46.75 55.175L40.12 61.805L46.75 68.435L53.37 61.805L46.75 55.175Z" fill="#164B35"/>
<path d="M46.75 55.175L40.12 61.805L46.75 68.435L53.37 61.805L46.75 55.175Z" fill="#164B35"/>
<path d="M83.8601 25.025C85.7801 26.315 86.53 25.475 84.64 23.925C83.28 22.875 81.81 21.875 80.07 21.025C78.35 20.155 76.39 19.385 74.09 18.875C71.48 18.325 69.7901 18.355 68.3601 18.375C66.9201 18.415 65.7 18.555 63.92 18.785C60.94 19.235 56.94 20.375 53.89 22.595C52.39 23.695 51.07 25.055 50.52 26.715C50.27 27.535 50.22 28.415 50.46 29.105C50.54 29.465 50.7 29.745 50.84 29.995C50.97 30.255 51.12 30.445 51.25 30.585C51.54 30.955 51.89 31.255 52.27 31.505C52.91 31.935 54.46 32.655 56.38 32.165C57.32 31.925 58.32 31.415 59.11 30.525C59.51 30.095 59.84 29.565 60.09 28.985C60.2 28.705 60.32 28.365 60.38 28.105C60.44 27.835 60.5 27.565 60.56 27.285C61.04 25.075 61.13 22.485 60.49 19.945C59.85 17.415 58.41 14.975 56.42 13.285C55.03 12.085 53.52 11.315 52.12 10.835C50.71 10.355 49.41 10.135 48.26 10.045C45.95 9.88498 44.27 10.185 43.16 10.425C40.5 10.985 38.34 11.975 36.48 13.065C34.63 14.165 33.09 15.385 31.66 16.685C30.12 18.155 30.8 18.845 32.43 17.615C33.94 16.525 35.51 15.485 37.3 14.545C39.1 13.615 41.12 12.765 43.54 12.265C44.47 12.055 45.96 11.885 47.86 12.045C49.74 12.235 52.08 12.815 54.24 14.375C54.96 14.865 55.58 15.475 56.19 16.075C57.46 17.435 58.42 19.295 58.8 21.275C59.23 23.245 59.05 25.275 58.68 26.995C58.51 27.915 58.3 28.505 57.89 29.005C57.51 29.495 57.05 29.825 56.63 30.015C56.21 30.205 55.86 30.295 55.61 30.315C55.37 30.355 55.23 30.345 55.23 30.345C55.25 30.315 54.37 30.495 53.31 29.775C52.79 29.395 52.28 28.835 52.25 28.105C52.18 27.375 52.56 26.435 53.26 25.605C54.64 23.905 56.91 22.615 59.06 21.745C61.25 20.885 63.4 20.455 65.02 20.275C67.45 19.985 69.2801 20.105 70.6501 20.225C72.0301 20.365 72.96 20.565 73.67 20.705C75.82 21.175 77.66 21.845 79.32 22.585C80.99 23.305 82.45 24.145 83.85 25.025H83.8601Z" fill="#101214"/>
</svg>
