<svg width="96" height="96" viewBox="0 0 96 96" fill="none" xmlns="http://www.w3.org/2000/svg">
<path fill-rule="evenodd" clip-rule="evenodd" d="M72.22 52.115C67.96 56.375 63.43 57.145 59.61 55.545L28.39 86.765L21.77 80.145L52.99 48.925C51.4 45.115 52.18 40.585 56.43 36.325C62.27 30.485 72.44 27.375 76.8 31.735C81.15 36.085 78.05 46.275 72.21 52.105H72.22V52.115Z" fill="#82B536"/>
<path fill-rule="evenodd" clip-rule="evenodd" d="M25.69 25.125L42.19 41.625C44.18 43.615 44.19 46.865 42.19 48.865L41.31 49.745L71.88 80.315L65.26 86.935L34.69 56.365L33.74 57.315C31.74 59.315 28.49 59.305 26.5 57.315L10 40.815L25.69 25.125Z" fill="#BF63F3"/>
<path d="M46.75 55.175L40.12 61.805L46.75 68.435L53.37 61.805L46.75 55.175Z" fill="#164B35"/>
<path d="M46.75 55.175L40.12 61.805L46.75 68.435L53.37 61.805L46.75 55.175Z" fill="#164B35"/>
</svg>
