<svg width="96" height="96" viewBox="0 0 96 96" fill="none" xmlns="http://www.w3.org/2000/svg">
<path d="M61.32 44.3306C61.32 50.1206 59.31 54.4806 55.91 57.5606C54.27 59.0406 52.29 60.2206 50.07 61.1206C46.49 62.5906 42.26 63.3206 37.62 63.3906L25.09 75.6006V61.7006C24.45 61.5006 23.85 61.2806 23.25 61.0406C21.1 60.1406 19.18 58.9906 17.57 57.5606C14.08 54.4806 12 50.1306 12 44.3306C12 38.5306 14.15 33.8906 17.72 30.7406C19.3 29.3606 21.17 28.2206 23.25 27.3506C27.14 25.7006 31.8 24.8906 36.84 24.8906C41.88 24.8906 46.29 25.6706 50.07 27.2506C52.22 28.1406 54.14 29.3006 55.75 30.7406C59.25 33.8906 61.32 38.3806 61.32 44.3306Z" fill="#FCA700"/>
<path d="M41.44 61.1506C41.44 65.1906 42.84 68.2306 45.22 70.3806C46.36 71.4206 47.74 72.2306 49.29 72.8606C51.78 73.8906 54.74 74.4006 57.97 74.4506L66.71 82.9706V73.2706C67.15 73.1306 67.58 72.9706 67.99 72.8106C69.49 72.1806 70.83 71.3806 71.95 70.3906C74.38 68.2406 75.83 65.2006 75.83 61.1606C75.83 57.1206 74.33 53.8806 71.84 51.6806C70.74 50.7106 69.43 49.9306 67.99 49.3106C65.28 48.1606 62.03 47.5906 58.51 47.5906C54.99 47.5906 51.92 48.1306 49.28 49.2406C47.78 49.8606 46.44 50.6706 45.32 51.6706C42.88 53.8706 41.44 57.0006 41.44 61.1506Z" fill="#82B536"/>
<path d="M33.03 39.8906C33.03 37.8606 34.65 36.2306 36.66 36.2306C38.67 36.2306 40.29 37.8506 40.29 39.8906C40.29 40.9206 40.05 41.4006 39.81 41.7006C39.54 42.0506 39.21 42.2906 38.62 42.7306C38.52 42.8006 38.41 42.8806 38.3 42.9706C37.57 43.5106 36.64 44.2506 35.94 45.4806C35.23 46.7106 34.85 48.2606 34.85 50.3006H38.48C38.48 48.7206 38.78 47.8306 39.09 47.2906C39.41 46.7406 39.84 46.3606 40.47 45.8906C40.54 45.8306 40.63 45.7806 40.71 45.7106C41.28 45.3006 42.08 44.7206 42.7 43.9206C43.49 42.8906 43.93 41.6106 43.93 39.9006C43.93 35.8906 40.71 32.6106 36.67 32.6106C32.63 32.6106 29.41 35.8906 29.41 39.9006V41.7106H33.04V39.9006H33.03V39.8906Z" fill="white"/>
<path d="M36.66 53.0106C35.41 53.0106 34.39 54.0306 34.39 55.2806C34.39 56.5306 35.41 57.5506 36.66 57.5506C37.91 57.5506 38.93 56.5306 38.93 55.2806C38.93 54.0306 37.91 53.0106 36.66 53.0106Z" fill="white"/>
<path d="M61.07 47.7006C60.44 51.8506 58.61 55.1006 55.9 57.5506C54.27 59.0406 52.29 60.2106 50.07 61.1206C47.54 62.1506 44.67 62.8306 41.57 63.1506C41.48 62.5106 41.44 61.8506 41.44 61.1506C41.44 57.0006 42.88 53.8706 45.33 51.6706C46.45 50.6606 47.79 49.8506 49.29 49.2306C51.92 48.1306 55.07 47.5906 58.51 47.5906C59.38 47.5906 60.23 47.6206 61.07 47.7006Z" fill="#164B35"/>
<path d="M61.07 47.7006C60.44 51.8506 58.61 55.1006 55.9 57.5506C54.27 59.0406 52.29 60.2106 50.07 61.1206C47.54 62.1506 44.67 62.8306 41.57 63.1506C41.48 62.5106 41.44 61.8506 41.44 61.1506C41.44 57.0006 42.88 53.8706 45.33 51.6706C46.45 50.6606 47.79 49.8506 49.29 49.2306C51.92 48.1306 55.07 47.5906 58.51 47.5906C59.38 47.5906 60.23 47.6206 61.07 47.7006Z" fill="#164B35"/>
<path d="M46.35 31.0812C46.91 32.2712 47.52 32.6812 47.78 32.5312C48.06 32.3812 48.01 31.7012 47.6 30.5612C47.01 28.9412 46.63 27.2112 46.55 25.3412C46.5 23.4912 46.79 21.4512 47.88 19.5812C49.15 17.4712 50.57 16.7712 51.75 16.5812C52.96 16.4512 54.14 16.6912 55.19 17.9212C55.67 18.4912 56.08 19.2512 56.37 20.1512C56.52 20.6012 56.64 21.0812 56.74 21.5812L56.82 22.0212C56.85 22.2612 56.87 22.5012 56.9 22.7512C56.97 23.2212 56.99 23.7712 57 24.3312L57.06 24.7512L57.16 24.9812L57.37 25.4412L57.52 25.6912C57.57 25.7712 57.59 25.8612 57.82 25.9312C58.03 26.0012 58.26 25.9712 58.29 25.9212L58.54 25.7812L58.87 25.5612L59.29 25.0412C59.57 24.5812 59.83 23.9012 60.12 23.4012C60.26 23.1312 60.4 22.8612 60.55 22.6012L60.8 22.1712C61.13 21.6312 61.46 21.1112 61.81 20.6412C63.15 18.7012 64.54 17.4412 65.21 16.9212C65.48 16.7112 65.75 16.4912 66.03 16.3012C66.52 15.9712 67.46 15.2912 68.82 15.0412C70.16 14.7612 71.94 15.1112 73.63 16.3812C73.85 16.5212 74.05 16.6912 74.26 16.8712C74.48 17.0412 74.68 17.2212 74.83 17.4112C74.99 17.6012 75.2 17.7612 75.33 17.9812C75.47 18.2012 75.61 18.4112 75.75 18.6312C76.23 19.5712 76.45 20.7012 76.48 21.8812C76.53 24.2612 75.8 26.7812 74.83 29.0312L74.63 29.4912L74.53 29.7212L74.32 30.1212C74.02 30.6912 73.79 31.2012 73.39 31.8312L73.24 32.3512L73.17 32.6112C73.15 32.6912 73.17 32.7112 73.17 32.7712C73.21 32.9512 73.21 33.1412 73.27 33.3112C73.36 33.5512 73.75 33.8412 73.83 33.8212C73.97 33.8612 74.13 33.9312 74.42 33.9212C74.97 33.9712 76.09 33.2412 76.87 32.9712L77.18 32.8512L77.34 32.8012C77.44 32.7612 77.55 32.7412 77.65 32.7112C77.86 32.6512 78.06 32.6112 78.26 32.5812C78.66 32.5212 79.02 32.5412 79.31 32.6212C79.45 32.6512 79.64 32.7612 79.8 32.8212C79.94 32.9312 80.12 33.0012 80.24 33.1312C80.8 33.5812 81.17 34.2912 81.35 35.1112C81.61 36.2512 81.56 37.4612 81.38 38.5812C81.2 39.7012 80.9 40.7612 80.51 41.7312C79.74 43.6312 78.64 45.4112 77.15 46.1412C76.37 46.5212 75.86 46.5312 75.77 46.8312C75.74 46.9612 75.84 47.1212 76.14 47.2712C76.43 47.4012 76.96 47.4812 77.57 47.2712C78.69 46.9112 79.53 46.1212 80.27 45.2912C80.98 44.4312 81.57 43.4712 82.06 42.4012C82.55 41.3412 82.93 40.1712 83.17 38.8912C83.4 37.6212 83.51 36.2112 83.17 34.6812C83.05 34.1312 82.84 33.4212 82.35 32.6512C81.86 31.8812 81.03 31.0712 79.8 30.6812C79.14 30.4712 78.45 30.4812 77.8 30.5712C77.21 30.6312 76.25 30.9512 76.41 30.8812C76.37 30.8812 76.35 30.8812 76.35 30.8612C76.35 30.8312 76.4 30.7912 76.41 30.7812C76.41 30.8012 76.44 30.7412 76.47 30.6812V30.6512L76.53 30.5612L76.69 30.1912C76.79 29.9412 76.91 29.7012 77 29.4512C77.19 28.9512 77.37 28.4512 77.51 27.9312C77.84 26.8312 78.11 25.6612 78.27 24.4512C78.45 23.2412 78.48 21.9812 78.32 20.7312C78.26 20.1012 78.08 19.4912 77.91 18.8812C77.66 18.2912 77.45 17.7012 77.07 17.1912C76.77 16.6412 76.3 16.2212 75.9 15.7812C75.47 15.4112 75.07 15.0612 74.63 14.7612C72.92 13.4812 70.97 12.9712 69.6 13.0012C68.91 13.0012 68.38 13.1012 68.02 13.1812C67.66 13.2712 67.47 13.3312 67.47 13.3312C65.93 13.8012 64.63 14.7012 63.5 15.7112C62.38 16.7312 61.42 17.8912 60.58 19.1012C60.16 19.7112 59.76 20.3312 59.39 20.9612L59.11 21.4412L58.94 21.7412L58.81 22.0012C58.71 22.1512 58.68 22.3912 58.53 22.4812C58.42 22.4512 58.48 22.3112 58.46 22.2312C58.46 22.1312 58.46 22.0412 58.44 21.9412L58.41 21.7112L58.39 21.6112L58.3 21.1612C58.18 20.5512 58 19.9412 57.79 19.3412C57.34 18.1512 56.67 16.9612 55.6 16.0712C54.33 15.0612 52.87 14.7512 51.67 14.8512C50.45 14.9412 49.48 15.3912 48.77 15.8712C47.34 16.8712 46.69 17.8712 46.23 18.6112C44.89 20.9212 44.63 23.3312 44.78 25.4212C44.96 27.5212 45.52 29.3812 46.31 31.0612L46.35 31.0812Z" fill="#101214"/>
</svg>
