<svg width="96" height="96" viewBox="0 0 96 96" fill="none" xmlns="http://www.w3.org/2000/svg">
<path d="M61.32 44.3306C61.32 50.1206 59.31 54.4806 55.91 57.5606C54.27 59.0406 52.29 60.2206 50.07 61.1206C46.49 62.5906 42.26 63.3206 37.62 63.3906L25.09 75.6006V61.7006C24.45 61.5006 23.85 61.2806 23.25 61.0406C21.1 60.1406 19.18 58.9906 17.57 57.5606C14.08 54.4806 12 50.1306 12 44.3306C12 38.5306 14.15 33.8906 17.72 30.7406C19.3 29.3606 21.17 28.2206 23.25 27.3506C27.14 25.7006 31.8 24.8906 36.84 24.8906C41.88 24.8906 46.29 25.6706 50.07 27.2506C52.22 28.1406 54.14 29.3006 55.75 30.7406C59.25 33.8906 61.32 38.3806 61.32 44.3306Z" fill="#FCA700"/>
<path d="M41.44 61.1506C41.44 65.1906 42.84 68.2306 45.22 70.3806C46.36 71.4206 47.74 72.2306 49.29 72.8606C51.78 73.8906 54.74 74.4006 57.97 74.4506L66.71 82.9706V73.2706C67.15 73.1306 67.58 72.9706 67.99 72.8106C69.49 72.1806 70.83 71.3806 71.95 70.3906C74.38 68.2406 75.83 65.2006 75.83 61.1606C75.83 57.1206 74.33 53.8806 71.84 51.6806C70.74 50.7106 69.43 49.9306 67.99 49.3106C65.28 48.1606 62.03 47.5906 58.51 47.5906C54.99 47.5906 51.92 48.1306 49.28 49.2406C47.78 49.8606 46.44 50.6706 45.32 51.6706C42.88 53.8706 41.44 57.0006 41.44 61.1506Z" fill="#82B536"/>
<path d="M33.03 39.8906C33.03 37.8606 34.65 36.2306 36.66 36.2306C38.67 36.2306 40.29 37.8506 40.29 39.8906C40.29 40.9206 40.05 41.4006 39.81 41.7006C39.54 42.0506 39.21 42.2906 38.62 42.7306C38.52 42.8006 38.41 42.8806 38.3 42.9706C37.57 43.5106 36.64 44.2506 35.94 45.4806C35.23 46.7106 34.85 48.2606 34.85 50.3006H38.48C38.48 48.7206 38.78 47.8306 39.09 47.2906C39.41 46.7406 39.84 46.3606 40.47 45.8906C40.54 45.8306 40.63 45.7806 40.71 45.7106C41.28 45.3006 42.08 44.7206 42.7 43.9206C43.49 42.8906 43.93 41.6106 43.93 39.9006C43.93 35.8906 40.71 32.6106 36.67 32.6106C32.63 32.6106 29.41 35.8906 29.41 39.9006V41.7106H33.04V39.9006H33.03V39.8906Z" fill="white"/>
<path d="M36.66 53.0106C35.41 53.0106 34.39 54.0306 34.39 55.2806C34.39 56.5306 35.41 57.5506 36.66 57.5506C37.91 57.5506 38.93 56.5306 38.93 55.2806C38.93 54.0306 37.91 53.0106 36.66 53.0106Z" fill="white"/>
<path d="M61.07 47.7006C60.44 51.8506 58.61 55.1006 55.9 57.5506C54.27 59.0406 52.29 60.2106 50.07 61.1206C47.54 62.1506 44.67 62.8306 41.57 63.1506C41.48 62.5106 41.44 61.8506 41.44 61.1506C41.44 57.0006 42.88 53.8706 45.33 51.6706C46.45 50.6606 47.79 49.8506 49.29 49.2306C51.92 48.1306 55.07 47.5906 58.51 47.5906C59.38 47.5906 60.23 47.6206 61.07 47.7006Z" fill="#164B35"/>
<path d="M61.07 47.7006C60.44 51.8506 58.61 55.1006 55.9 57.5506C54.27 59.0406 52.29 60.2106 50.07 61.1206C47.54 62.1506 44.67 62.8306 41.57 63.1506C41.48 62.5106 41.44 61.8506 41.44 61.1506C41.44 57.0006 42.88 53.8706 45.33 51.6706C46.45 50.6606 47.79 49.8506 49.29 49.2306C51.92 48.1306 55.07 47.5906 58.51 47.5906C59.38 47.5906 60.23 47.6206 61.07 47.7006Z" fill="#164B35"/>
</svg>
