<svg width="275" height="275" viewBox="0 0 275 275" fill="none" xmlns="http://www.w3.org/2000/svg">
<path d="M256.501 138.29C256.501 153.8 258.981 168.05 263.681 180.83H165.501C164.141 172.59 163.181 164.1 162.641 155.32H147.461V128.27H162.261C162.671 116.42 163.861 104.99 165.761 94H264.021C259.051 107.27 256.501 122.15 256.501 138.29Z" fill="#1558BC"/>
<path d="M120.6 155.32H105.46C106.6 164.35 108.66 172.88 111.59 180.83H13.41C11.15 167.18 10 152.8 10 137.7C10 122.6 11.26 107.88 13.67 94H111.93C108.01 104.48 105.59 115.96 104.75 128.27H120.6V155.32Z" fill="#4B4D51"/>
<path fill-rule="evenodd" clip-rule="evenodd" d="M238.24 142.455H186.59V132.365H238.24V142.455Z" fill="white"/>
<path fill-rule="evenodd" clip-rule="evenodd" d="M207.363 163.24V111.59H217.453V163.24H207.363Z" fill="white"/>
<path d="M133.642 146.19C133.752 145.57 133.812 144.91 133.812 144.21C133.812 143.51 133.752 142.83 133.642 142.21C132.972 138.47 130.372 136.17 126.732 135.58C126.112 135.48 125.462 135.43 124.782 135.43C124.102 135.43 123.392 135.49 122.752 135.59C119.112 136.2 116.512 138.5 115.842 142.21C115.732 142.84 115.672 143.51 115.672 144.21C115.672 144.91 115.732 145.57 115.842 146.19C116.512 149.9 119.102 152.2 122.752 152.81C123.402 152.92 124.072 152.97 124.782 152.97C125.492 152.97 126.112 152.92 126.732 152.82C130.382 152.23 132.982 149.92 133.642 146.19Z" fill="#1558BC"/>
<path d="M142.87 126.439C142.93 126.089 142.97 125.709 142.97 125.309C142.97 124.909 142.94 124.519 142.87 124.159C142.49 122.019 141 120.699 138.92 120.369C138.56 120.309 138.19 120.279 137.8 120.279C137.41 120.279 137.01 120.309 136.64 120.369C134.56 120.719 133.07 122.029 132.69 124.159C132.62 124.519 132.59 124.899 132.59 125.309C132.59 125.719 132.62 126.089 132.69 126.439C133.07 128.559 134.56 129.879 136.64 130.229C137.01 130.289 137.4 130.319 137.8 130.319C138.2 130.319 138.56 130.289 138.92 130.229C141.01 129.889 142.49 128.569 142.87 126.439Z" fill="#1558BC"/>
<path d="M49.8683 118.71L47.7283 113.85H27.7383V120.09H27.7483V157.38H82.3883V118.71H49.8683Z" fill="#7E8188"/>
<path d="M29.5391 157.379L36.8691 127.439H91.7591L82.3891 157.379H29.5391Z" fill="#101214"/>
<path d="M133.642 146.19C133.752 145.57 133.812 144.91 133.812 144.21C133.812 143.51 133.752 142.83 133.642 142.21C132.972 138.47 130.372 136.17 126.732 135.58C126.112 135.48 125.462 135.43 124.782 135.43C124.102 135.43 123.392 135.49 122.752 135.59C119.112 136.2 116.512 138.5 115.842 142.21C115.732 142.84 115.672 143.51 115.672 144.21C115.672 144.91 115.732 145.57 115.842 146.19C116.512 149.9 119.102 152.2 122.752 152.81C123.402 152.92 124.072 152.97 124.782 152.97C125.492 152.97 126.112 152.92 126.732 152.82C130.382 152.23 132.982 149.92 133.642 146.19Z" fill="#1558BC"/>
<path d="M115.842 142.211C115.732 142.841 115.672 143.511 115.672 144.211C115.672 144.911 115.732 145.571 115.842 146.191C116.372 149.121 118.102 151.151 120.602 152.181V136.211C118.112 137.241 116.372 139.281 115.842 142.201V142.211Z" fill="#09326C"/>
</svg>
