<svg width="275" height="275" viewBox="0 0 275 275" fill="none" xmlns="http://www.w3.org/2000/svg">
<path d="M256.501 138.291C256.501 153.801 258.981 168.051 263.681 180.831H165.501C164.141 172.591 163.181 164.101 162.641 155.321H147.461V128.271H162.261C162.671 116.421 163.861 104.991 165.761 94.001H264.021C259.051 107.271 256.501 122.151 256.501 138.291Z" fill="#1868DB"/>
<path d="M120.6 155.321H105.46C106.6 164.351 108.66 172.881 111.59 180.831H13.41C11.15 167.181 10 152.801 10 137.701C10 122.601 11.26 107.881 13.67 94.001H111.93C108.01 104.481 105.59 115.961 104.75 128.271H120.6V155.321Z" fill="#DDDEE1"/>
<path fill-rule="evenodd" clip-rule="evenodd" d="M238.24 142.455H186.59V132.365H238.24V142.455Z" fill="white"/>
<path fill-rule="evenodd" clip-rule="evenodd" d="M207.363 163.241V111.591H217.453V163.241H207.363Z" fill="white"/>
<path d="M133.642 146.192C133.752 145.572 133.812 144.912 133.812 144.212C133.812 143.512 133.752 142.832 133.642 142.212C132.972 138.472 130.372 136.172 126.732 135.582C126.112 135.482 125.462 135.432 124.782 135.432C124.102 135.432 123.392 135.492 122.752 135.592C119.112 136.202 116.512 138.502 115.842 142.212C115.732 142.842 115.672 143.512 115.672 144.212C115.672 144.912 115.732 145.572 115.842 146.192C116.512 149.902 119.102 152.202 122.752 152.812C123.402 152.922 124.072 152.972 124.782 152.972C125.492 152.972 126.112 152.922 126.732 152.822C130.382 152.232 132.982 149.922 133.642 146.192Z" fill="#1868DB"/>
<path d="M142.87 126.441C142.93 126.091 142.97 125.711 142.97 125.311C142.97 124.911 142.94 124.521 142.87 124.161C142.49 122.021 141 120.701 138.92 120.371C138.56 120.311 138.19 120.281 137.8 120.281C137.41 120.281 137.01 120.311 136.64 120.371C134.56 120.721 133.07 122.031 132.69 124.161C132.62 124.521 132.59 124.901 132.59 125.311C132.59 125.721 132.62 126.091 132.69 126.441C133.07 128.561 134.56 129.881 136.64 130.231C137.01 130.291 137.4 130.321 137.8 130.321C138.2 130.321 138.56 130.291 138.92 130.231C141.01 129.891 142.49 128.571 142.87 126.441Z" fill="#1868DB"/>
<path d="M49.8683 118.711L47.7283 113.851H27.7383V120.091H27.7483V157.381H82.3883V118.711H49.8683Z" fill="#B7B9BE"/>
<path d="M29.5391 157.381L36.8691 127.441H91.7591L82.3891 157.381H29.5391Z" fill="white"/>
<path d="M133.642 146.192C133.752 145.572 133.812 144.912 133.812 144.212C133.812 143.512 133.752 142.832 133.642 142.212C132.972 138.472 130.372 136.172 126.732 135.582C126.112 135.482 125.462 135.432 124.782 135.432C124.102 135.432 123.392 135.492 122.752 135.592C119.112 136.202 116.512 138.502 115.842 142.212C115.732 142.842 115.672 143.512 115.672 144.212C115.672 144.912 115.732 145.572 115.842 146.192C116.512 149.902 119.102 152.202 122.752 152.812C123.402 152.922 124.072 152.972 124.782 152.972C125.492 152.972 126.112 152.922 126.732 152.822C130.382 152.232 132.982 149.922 133.642 146.192Z" fill="#1868DB"/>
<path d="M115.842 142.211C115.732 142.841 115.672 143.511 115.672 144.211C115.672 144.911 115.732 145.571 115.842 146.191C116.372 149.121 118.102 151.151 120.602 152.181V136.211C118.112 137.241 116.372 139.281 115.842 142.201V142.211Z" fill="#09326C"/>
</svg>
