<svg width="275" height="275" viewBox="0 0 275 275" fill="none" xmlns="http://www.w3.org/2000/svg">
<path d="M192.189 87.3831C189.909 83.0231 187.119 78.703 183.889 74.5231C180.619 70.2931 177.089 66.4531 173.389 63.1231C151.789 43.6131 124.279 40.6231 97.8986 54.9331C93.6286 57.2531 89.4086 60.0131 85.3586 63.1531C81.1486 66.4031 77.2786 69.9431 73.8286 73.663C53.4386 95.673 49.3986 123.013 62.7386 148.693C65.0386 153.113 67.8586 157.503 71.1286 161.733C74.3586 165.913 77.8486 169.693 81.4986 172.993C93.9986 184.283 108.549 190.003 123.749 190.003C134.649 190.003 145.879 187.063 156.929 181.123C161.389 178.723 165.789 175.863 169.999 172.603C174.059 169.463 177.789 166.073 181.109 162.533C201.629 140.573 205.669 113.183 192.189 87.3931V87.3831ZM161.629 161.753C158.019 164.543 154.259 167.003 150.459 169.043C129.079 180.523 107.859 178.313 90.6986 162.813C87.6486 160.053 84.7186 156.873 81.9786 153.333C79.2086 149.743 76.8186 146.053 74.8986 142.363C64.2286 121.833 67.4186 100.733 83.8786 82.9631C86.8086 79.7931 90.1286 76.773 93.7386 73.983C97.2086 71.293 100.809 68.9431 104.439 66.9731C113.399 62.1131 122.349 59.6931 131.009 59.6931C142.899 59.6931 154.219 64.2531 164.209 73.2831C167.299 76.0731 170.279 79.3131 173.049 82.9031C175.779 86.4431 178.139 90.0831 180.039 93.7231C190.809 114.343 187.639 135.453 171.089 153.163C168.279 156.173 165.089 159.063 161.609 161.753H161.629Z" fill="#4B4D51"/>
<path d="M180.279 169.713C176.739 164.783 172.939 164.813 169.229 167.683C165.749 170.373 164.819 174.013 168.529 178.803L172.769 184.283L184.519 175.193L180.279 169.713Z" fill="#4B4D51"/>
<path d="M187.474 172.912L169.832 186.552L202.984 229.43L220.626 215.79L187.474 172.912Z" fill="#4B4D51"/>
<path d="M184.638 175.104L172.668 184.358L183.91 198.899L195.88 189.645L184.638 175.104Z" fill="#7E8188"/>
<path fill-rule="evenodd" clip-rule="evenodd" d="M158.035 94.5384L104.055 148.518L96.9844 141.447L150.964 87.4673L158.035 94.5384Z" fill="#4B4D51"/>
<path fill-rule="evenodd" clip-rule="evenodd" d="M150.964 148.518L96.9844 94.5384L104.055 87.4673L158.035 141.447L150.964 148.518Z" fill="#4B4D51"/>
</svg>
