<svg width="275" height="275" viewBox="0 0 275 275" fill="none" xmlns="http://www.w3.org/2000/svg">
<path d="M35.555 44C35.555 44 27.315 94.96 35.925 121.18H121.725C121.725 121.18 114.575 80.54 122.475 44C122.475 44 34.985 44.56 35.555 44Z" fill="#4B4D51"/>
<path d="M134.793 44C134.793 44 126.553 94.96 135.163 121.18H220.963C220.963 121.18 213.813 80.54 221.713 44C221.713 44 134.223 44.56 134.793 44Z" fill="#4B4D51"/>
<path d="M35.555 128.86C35.555 128.86 27.315 179.82 35.925 206.04H121.725C121.725 206.04 114.575 165.4 122.475 128.86C122.475 128.86 34.985 129.42 35.555 128.86Z" fill="#4B4D51"/>
<path d="M156.967 139.08C156.967 139.08 139.017 187.48 142.407 214.88L226.587 231.48C226.587 231.48 227.437 190.23 242.257 155.9C242.257 155.9 156.317 139.53 156.977 139.08H156.967Z" fill="#1558BC"/>
<path fill-rule="evenodd" clip-rule="evenodd" d="M215.279 193.536L165.199 183.096L166.628 176.244L216.708 186.684L215.279 193.536Z" fill="#101214"/>
<path fill-rule="evenodd" clip-rule="evenodd" d="M182.309 209.206L192.749 159.136L199.601 160.565L189.161 210.635L182.309 209.206Z" fill="#101214"/>
</svg>
