<svg width="96" height="96" viewBox="0 0 96 96" fill="none" xmlns="http://www.w3.org/2000/svg">
<path d="M70.9201 78.3699H22.3601V14.9199H46.9101L70.9201 38.5699V78.3699Z" fill="#FCA700"/>
<path d="M46.9001 14.9199V38.4999H70.8501L46.9001 14.9199Z" fill="#1868DB"/>
<path d="M60.3001 46.2799H46.9001V52.9799H60.3001V46.2799Z" fill="white"/>
<path d="M37.97 54.0999C40.44 54.0999 42.44 52.0999 42.44 49.6299C42.44 47.1599 40.44 45.1599 37.97 45.1599C35.5 45.1599 33.5 47.1599 33.5 49.6299C33.5 52.0999 35.5 54.0999 37.97 54.0999Z" fill="white"/>
<path d="M60.3001 63.1799H46.9001V69.8799H60.3001V63.1799Z" fill="white"/>
<path d="M37.97 70.9999C40.44 70.9999 42.44 68.9999 42.44 66.5299C42.44 64.0599 40.44 62.0599 37.97 62.0599C35.5 62.0599 33.5 64.0599 33.5 66.5299C33.5 68.9999 35.5 70.9999 37.97 70.9999Z" fill="white"/>
<path d="M36.5899 53.4101C35.3599 54.7901 36.1599 55.5701 37.5399 54.3701C39.4999 52.7101 41.5199 50.8301 44.2899 48.9701C45.8299 47.9501 46.9299 47.5201 47.5399 47.6401C47.8499 47.6601 48.0899 47.8201 48.3299 48.1401C48.5699 48.4501 48.7599 48.9201 48.9099 49.5201C49.1899 50.5501 49.2599 51.8601 49.5699 53.3201C49.6499 53.6901 49.7499 54.0701 49.9399 54.4901C50.0099 54.6901 50.1799 54.9201 50.3199 55.1201C50.5099 55.3201 50.7399 55.5601 51.0199 55.6801C51.1599 55.7401 51.3099 55.8001 51.4499 55.8501C51.5999 55.8701 51.7399 55.8801 51.8899 55.8901C52.2099 55.9201 52.4199 55.8301 52.6599 55.7801C52.9199 55.7301 53.0799 55.6301 53.2799 55.5501C53.4699 55.4601 53.6699 55.3801 53.8199 55.2701L54.2999 54.9701C54.3999 54.9101 54.5199 54.8301 54.6399 54.7001L54.8099 54.5301C55.0399 54.3101 55.2699 54.1001 55.4899 53.8901C55.9399 53.4901 56.3599 53.1201 56.7599 52.8101C57.5499 52.1701 58.1999 51.7401 58.5699 51.5001L59.2099 51.0801C59.5799 50.8201 60.2999 50.3601 61.2599 50.0001C61.4899 49.9401 61.7499 49.8201 61.9999 49.8001C62.1199 49.7801 62.2599 49.7501 62.3799 49.7401C62.4999 49.7501 62.6199 49.7601 62.7399 49.7601C63.1999 49.8201 63.5799 50.0201 63.9199 50.5001C64.0699 50.7701 64.2399 51.0301 64.3399 51.4001L64.4299 51.6601L64.5599 52.0401C64.6799 52.3601 64.8399 52.6701 65.0699 52.9301C65.5199 53.4701 66.1599 53.8301 66.8599 53.9401C67.5599 54.0601 68.3199 53.8801 68.8999 53.5101C70.3499 52.6001 72.0699 52.0901 73.7999 51.9601C76.2399 51.7401 78.3199 52.0501 79.9499 52.2601C81.6099 52.5001 82.8299 52.6801 83.6599 52.8101C85.6599 53.0901 87.4599 53.2601 89.1499 53.1701C89.9899 53.1701 90.7999 53.0101 91.5899 52.9101C91.9799 52.8201 92.3599 52.7101 92.7399 52.6201C93.1199 52.5301 93.4899 52.4201 93.8399 52.2501C95.4299 51.5801 94.9599 50.7201 93.4799 51.1001C93.1399 51.2101 92.7899 51.2601 92.4399 51.3001C92.0899 51.3501 91.7399 51.4001 91.3799 51.4401C90.6499 51.4501 89.9199 51.5401 89.1299 51.4801C87.5799 51.4601 85.8799 51.2401 83.9199 50.9601C83.1599 50.8601 81.9899 50.6001 80.4299 50.3001C78.8599 50.0301 76.8899 49.6301 74.4499 49.7101C73.6499 49.7901 72.8599 49.8201 72.0799 50.0601C71.6599 50.1901 71.2299 50.2501 70.8099 50.4301C70.3899 50.6001 69.9699 50.7601 69.5499 50.9301C69.1399 51.1201 68.7499 51.3701 68.3499 51.5901L67.7999 51.9101C67.7099 51.9801 67.6099 52.0101 67.4999 52.0401C67.0799 52.1501 66.5899 51.9201 66.3899 51.5501C66.3699 51.5001 66.3399 51.4601 66.3299 51.4001L66.2499 51.1601C66.1799 50.9501 66.1099 50.7401 66.0399 50.5401C65.9299 50.1301 65.6399 49.7401 65.4399 49.3701C64.8899 48.6601 64.1299 48.0901 63.3499 47.9501C62.9699 47.8401 62.6199 47.8701 62.2999 47.8401C61.9899 47.8801 61.7099 47.9101 61.4499 47.9501C60.4699 48.1801 59.9699 48.4301 59.9699 48.4301C59.9699 48.4301 59.1699 48.7401 58.0799 49.4501C56.9799 50.1501 55.5899 51.2501 54.2199 52.5901C54.0399 52.7501 53.8799 52.9301 53.7099 53.1101C53.5499 53.2701 53.3199 53.5201 53.2999 53.5201L52.7699 53.8701C52.5999 53.9501 52.4099 54.0501 52.2499 54.1101C51.8899 54.2301 51.8099 54.1801 51.6899 54.1101C51.5899 54.0001 51.3799 53.6801 51.2899 53.2701C50.8499 51.6401 50.7799 49.7701 50.2699 48.4001C50.0999 47.8801 49.8299 47.3701 49.4799 46.9201C49.0899 46.4901 48.5899 46.1201 48.0599 46.0101C47.0199 45.7601 46.2299 46.0001 45.6599 46.2101C44.4799 46.6401 43.8299 47.1001 43.3099 47.4201C40.2799 49.4801 38.3999 51.5001 36.6199 53.4401L36.5899 53.4101Z" fill="#101214"/>
<path d="M39.05 67.6401C38.12 67.7701 38.08 68.8901 39.1 68.9901C40.52 69.1001 42.2 68.9801 44.03 68.1001C45 67.6001 45.48 67.2901 45.93 67.0901C46.36 66.9001 46.81 66.7701 47.31 66.8401C47.71 66.9001 47.93 67.1001 48.23 67.7101C48.34 67.9601 48.54 68.4401 48.82 68.8201C49.09 69.2101 49.45 69.5701 49.88 69.8301C50.74 70.3701 51.77 70.4101 52.47 70.2701C52.83 70.2101 53.13 70.1001 53.38 70.0101C53.57 69.9401 53.73 69.8801 53.84 69.8401C53.97 69.7901 54.1 69.7401 54.22 69.6801C54.44 69.5701 54.86 69.3801 55.42 69.1601C55.7 69.0501 56.02 68.9301 56.37 68.8101C56.7 68.7401 56.99 68.6101 57.4 68.5801C58.95 68.3501 61.04 68.5501 62.95 68.8501C65.66 69.2301 67.39 69.4901 68.29 69.5801C70.42 69.8201 72.1 69.8001 73.71 69.4401C74.61 69.2201 74.4 68.2701 73.59 68.2401C72.09 68.1701 70.58 67.9701 68.51 67.7201C67.7 67.6301 66.07 67.1201 63.67 66.7301C63.28 66.6701 62.88 66.6401 62.48 66.6301C60.76 66.6001 58.76 66.4801 57.12 66.7101C56.72 66.7401 56.32 66.8701 55.97 66.9401C55.64 67.0301 55.38 67.1201 55.15 67.1901C54.7 67.3401 54.43 67.4301 54.43 67.4301C54.43 67.4301 54.03 67.5701 53.41 67.8301C53.12 67.9601 52.77 68.1101 52.39 68.2801C52.07 68.4101 51.73 68.4701 51.4 68.4401C50.73 68.3901 50.19 67.9401 49.82 67.1001C49.57 66.6201 49.26 66.0601 48.69 65.6601C48.13 65.2601 47.51 65.1901 47.09 65.1801C45.81 65.1801 44.99 65.5801 44.42 65.8201C43.88 66.0801 43.52 66.2501 43.24 66.3901C41.69 67.1501 40.39 67.4101 39.06 67.6301L39.05 67.6401Z" fill="#101214"/>
</svg>
