<svg width="96" height="96" viewBox="0 0 96 96" fill="none" xmlns="http://www.w3.org/2000/svg">
<path d="M70.9201 78.3699H22.3601V14.9199H46.9101L70.9201 38.5699V78.3699Z" fill="#FCA700"/>
<path d="M46.9001 14.9199V38.4999H70.8501L46.9001 14.9199Z" fill="#1868DB"/>
<path d="M60.3001 46.2799H46.9001V52.9799H60.3001V46.2799Z" fill="white"/>
<path d="M37.97 54.0999C40.44 54.0999 42.44 52.0999 42.44 49.6299C42.44 47.1599 40.44 45.1599 37.97 45.1599C35.5 45.1599 33.5 47.1599 33.5 49.6299C33.5 52.0999 35.5 54.0999 37.97 54.0999Z" fill="white"/>
<path d="M60.3001 63.1799H46.9001V69.8799H60.3001V63.1799Z" fill="white"/>
<path d="M37.97 70.9999C40.44 70.9999 42.44 68.9999 42.44 66.5299C42.44 64.0599 40.44 62.0599 37.97 62.0599C35.5 62.0599 33.5 64.0599 33.5 66.5299C33.5 68.9999 35.5 70.9999 37.97 70.9999Z" fill="white"/>
</svg>
