<svg width="96" height="96" viewBox="0 0 96 96" fill="none" xmlns="http://www.w3.org/2000/svg">
<path d="M34.27 38.0234C23.07 38.0234 14 47.1034 14 58.2934C14 66.7334 19.15 73.9634 26.49 77.0134V72.1234C26.49 67.8234 29.98 64.3334 34.28 64.3334C38.58 64.3334 42.06 67.8234 42.06 72.1234V77.0134C49.39 73.9734 54.56 66.7334 54.56 58.2934C54.56 47.0934 45.48 38.0234 34.29 38.0234H34.27ZM34.27 61.0134C30.58 61.0134 27.6 58.0234 27.6 54.3434C27.6 50.6634 30.58 47.6734 34.27 47.6734C37.96 47.6734 40.93 50.6534 40.93 54.3434C40.93 58.0334 37.95 61.0134 34.27 61.0134Z" fill="#82B536"/>
<path d="M62.6 38.0234C51.4 38.0234 42.33 47.1034 42.33 58.2934C42.33 66.7334 47.48 73.9634 54.82 77.0134V72.1234C54.82 67.8234 58.31 64.3334 62.61 64.3334C66.91 64.3334 70.39 67.8234 70.39 72.1234V77.0134C77.72 73.9734 82.89 66.7334 82.89 58.2934C82.89 47.0934 73.81 38.0234 62.62 38.0234H62.6ZM62.6 61.0134C58.91 61.0134 55.93 58.0234 55.93 54.3434C55.93 50.6634 58.91 47.6734 62.6 47.6734C66.29 47.6734 69.26 50.6534 69.26 54.3434C69.26 58.0334 66.28 61.0134 62.6 61.0134Z" fill="#BF63F3"/>
<path d="M48.44 43.8035C44.68 47.4835 42.33 52.6135 42.33 58.3035C42.33 63.9935 44.66 69.1235 48.44 72.8035C52.2 69.1235 54.55 63.9835 54.55 58.3035C54.55 52.6235 52.21 47.4835 48.44 43.8035Z" fill="#09326C"/>
<path d="M48.44 43.8035C44.68 47.4835 42.33 52.6135 42.33 58.3035C42.33 63.9935 44.66 69.1235 48.44 72.8035C52.2 69.1235 54.55 63.9835 54.55 58.3035C54.55 52.6235 52.21 47.4835 48.44 43.8035Z" fill="#09326C"/>
<path d="M75.1799 24.0627C77.3799 24.7827 77.8699 23.7727 75.6299 22.7927C74.0399 22.1527 72.3499 21.5827 70.4399 21.2427C68.5499 20.8727 66.4499 20.6627 64.0999 20.8027C61.4399 20.9827 59.8199 21.4627 58.4399 21.8727C57.0599 22.3027 55.9299 22.7627 54.2799 23.4727C51.5299 24.7227 47.9899 26.8927 45.6599 29.8627C44.5099 31.3327 43.6099 32.9927 43.5399 34.7427C43.5199 35.6027 43.7199 36.4627 44.1299 37.0627C44.2999 37.3827 44.5299 37.6127 44.7299 37.8127C44.9299 38.0327 45.1199 38.1627 45.2899 38.2727C45.6799 38.5527 46.0899 38.7427 46.5199 38.8827C47.2599 39.1227 48.9399 39.3927 50.6599 38.4027C51.4899 37.9127 52.3199 37.1527 52.8399 36.0827C53.1099 35.5627 53.2799 34.9627 53.3699 34.3427C53.3999 34.0427 53.4199 33.6827 53.4099 33.4127C53.3899 33.1327 53.3799 32.8527 53.3599 32.5727C53.2299 30.3127 52.5999 27.8027 51.2999 25.5227C49.9899 23.2627 47.9499 21.3027 45.5699 20.2227C43.8999 19.4427 42.2499 19.1127 40.7699 19.0227C39.2899 18.9427 37.9699 19.0827 36.8399 19.3127C34.5799 19.7827 33.0399 20.5227 32.0299 21.0627C29.6199 22.3227 27.8099 23.8727 26.3199 25.4127C24.8399 26.9727 23.6799 28.5727 22.6599 30.2127C21.5699 32.0427 22.4199 32.5227 23.6499 30.9027C24.8099 29.4427 26.0299 28.0127 27.5099 26.6227C28.9899 25.2427 30.7099 23.8627 32.8999 22.7327C33.7399 22.2727 35.1299 21.7127 36.9999 21.3527C38.8599 21.0227 41.2699 20.9527 43.7799 21.8627C44.5999 22.1427 45.3599 22.5527 46.1199 22.9727C47.7099 23.9327 49.1499 25.4627 50.0399 27.2727C50.9799 29.0527 51.3699 31.0627 51.4799 32.8127C51.5599 33.7427 51.5199 34.3627 51.2699 34.9627C51.0299 35.5327 50.6799 35.9827 50.3299 36.2827C49.9799 36.5727 49.6599 36.7627 49.4299 36.8527C49.2099 36.9527 49.0799 36.9827 49.0799 36.9827C49.0899 36.9427 48.2999 37.3627 47.0699 36.9627C46.4699 36.7427 45.8199 36.3327 45.5899 35.6427C45.3299 34.9627 45.4399 33.9527 45.8899 32.9627C46.7599 30.9527 48.5899 29.1027 50.4199 27.6727C52.2899 26.2527 54.2499 25.2527 55.7499 24.6327C58.0099 23.6927 59.7999 23.3127 61.1599 23.0527C62.5199 22.8127 63.4799 22.7527 64.1999 22.7027C66.3899 22.5727 68.3499 22.7227 70.1499 22.9827C71.9499 23.2227 73.5899 23.6427 75.1699 24.1027L75.1799 24.0627Z" fill="#101214"/>
</svg>
