<svg width="96" height="96" viewBox="0 0 96 96" fill="none" xmlns="http://www.w3.org/2000/svg">
<path d="M34.27 38.0234C23.07 38.0234 14 47.1034 14 58.2934C14 66.7334 19.15 73.9634 26.49 77.0134V72.1234C26.49 67.8234 29.98 64.3334 34.28 64.3334C38.58 64.3334 42.06 67.8234 42.06 72.1234V77.0134C49.39 73.9734 54.56 66.7334 54.56 58.2934C54.56 47.0934 45.48 38.0234 34.29 38.0234H34.27ZM34.27 61.0134C30.58 61.0134 27.6 58.0234 27.6 54.3434C27.6 50.6634 30.58 47.6734 34.27 47.6734C37.96 47.6734 40.93 50.6534 40.93 54.3434C40.93 58.0334 37.95 61.0134 34.27 61.0134Z" fill="#82B536"/>
<path d="M62.6 38.0234C51.4 38.0234 42.33 47.1034 42.33 58.2934C42.33 66.7334 47.48 73.9634 54.82 77.0134V72.1234C54.82 67.8234 58.31 64.3334 62.61 64.3334C66.91 64.3334 70.39 67.8234 70.39 72.1234V77.0134C77.72 73.9734 82.89 66.7334 82.89 58.2934C82.89 47.0934 73.81 38.0234 62.62 38.0234H62.6ZM62.6 61.0134C58.91 61.0134 55.93 58.0234 55.93 54.3434C55.93 50.6634 58.91 47.6734 62.6 47.6734C66.29 47.6734 69.26 50.6534 69.26 54.3434C69.26 58.0334 66.28 61.0134 62.6 61.0134Z" fill="#BF63F3"/>
<path d="M48.44 43.8035C44.68 47.4835 42.33 52.6135 42.33 58.3035C42.33 63.9935 44.66 69.1235 48.44 72.8035C52.2 69.1235 54.55 63.9835 54.55 58.3035C54.55 52.6235 52.21 47.4835 48.44 43.8035Z" fill="#09326C"/>
<path d="M48.44 43.8035C44.68 47.4835 42.33 52.6135 42.33 58.3035C42.33 63.9935 44.66 69.1235 48.44 72.8035C52.2 69.1235 54.55 63.9835 54.55 58.3035C54.55 52.6235 52.21 47.4835 48.44 43.8035Z" fill="#09326C"/>
</svg>
