<svg width="16" height="16" viewBox="0 0 16 16" fill="none" xmlns="http://www.w3.org/2000/svg">
<g clip-path="url(#clip0_237_6711)">
<g clip-path="url(#clip1_237_6711)">
<path d="M12.3669 3.6339L8.43713 3.19727L3.63398 3.6339L3.19727 8.00041L3.6339 12.3669L8.00041 12.9127L12.3669 12.3669L12.8036 7.89131L12.3669 3.6339Z" fill="white"/>
<path d="M5.42573 10.4091C5.09936 10.1885 4.87337 9.86656 4.75 9.44079L5.50762 9.1286C5.57639 9.3906 5.69644 9.59361 5.86784 9.73772C6.03817 9.88182 6.24557 9.95276 6.48791 9.95276C6.73572 9.95276 6.9486 9.87743 7.12647 9.72677C7.30435 9.57611 7.39395 9.38396 7.39395 9.1515C7.39395 8.91356 7.30003 8.71918 7.11229 8.5686C6.92454 8.41803 6.68876 8.34261 6.4071 8.34261H5.96939V7.59271H6.3623C6.60464 7.59271 6.80881 7.52725 6.97474 7.39625C7.14066 7.26526 7.22362 7.08622 7.22362 6.85807C7.22362 6.65506 7.14937 6.49345 7.00095 6.37233C6.85253 6.2512 6.6647 6.19006 6.43655 6.19006C6.21388 6.19006 6.037 6.24904 5.90601 6.36801C5.77501 6.48698 5.68001 6.63324 5.62003 6.80572L4.87013 6.49353C4.96944 6.21187 5.15179 5.96299 5.41918 5.74795C5.68665 5.53291 6.02829 5.4248 6.44311 5.4248C6.74982 5.4248 7.02601 5.48379 7.27058 5.60276C7.51507 5.72173 7.70722 5.88658 7.84585 6.09614C7.98448 6.30678 8.05325 6.54265 8.05325 6.80456C8.05325 7.07203 7.98887 7.29794 7.86003 7.48353C7.73119 7.66912 7.5729 7.81099 7.38515 7.91038V7.95509C7.63296 8.0588 7.8349 8.21709 7.99427 8.42997C8.15256 8.64286 8.23221 8.89722 8.23221 9.19414C8.23221 9.49107 8.15687 9.7563 8.00621 9.98885C7.85555 10.2214 7.64707 10.4047 7.38291 10.5379C7.11768 10.6711 6.81968 10.7387 6.4889 10.7387C6.10578 10.7398 5.75211 10.6296 5.42573 10.4091Z" fill="#1A73E8"/>
<path d="M10.0754 6.64878L9.24792 7.25026L8.83203 6.61933L10.3243 5.54297H10.8963V10.6201H10.0754V6.64878Z" fill="#1A73E8"/>
<path d="M12.3674 16.2972L16.2972 12.3674L14.3323 11.4941L12.3674 12.3674L11.4941 14.3323L12.3674 16.2972Z" fill="#EA4335"/>
<path d="M2.76172 14.3321L3.63499 16.297H12.3679V12.3672H3.63499L2.76172 14.3321Z" fill="#34A853"/>
<path d="M1.01498 -0.295898C0.291295 -0.295898 -0.294922 0.290318 -0.294922 1.014V12.3668L1.66997 13.2401L3.63487 12.3668V3.63389H12.3678L13.2411 1.669L12.3679 -0.295898H1.01498Z" fill="#4285F4"/>
<path d="M-0.294922 12.3672V14.9871C-0.294922 15.7108 0.291294 16.297 1.01498 16.297H3.63487V12.3672H-0.294922Z" fill="#188038"/>
<path d="M12.3672 3.63401V12.3669H16.297V3.63401L14.3321 2.76074L12.3672 3.63401Z" fill="#FBBC04"/>
<path d="M16.297 3.63389V1.014C16.297 0.290235 15.7108 -0.295898 14.9871 -0.295898H12.3672V3.63389H16.297Z" fill="#1967D2"/>
</g>
</g>
<defs>
<clipPath id="clip0_237_6711">
<rect width="16" height="16" fill="white"/>
</clipPath>
<clipPath id="clip1_237_6711">
<rect width="16" height="16" fill="white"/>
</clipPath>
</defs>
</svg>
