<svg width="16" height="16" viewBox="0 0 16 16" fill="none" xmlns="http://www.w3.org/2000/svg">
<mask id="path-1-inside-1_237_6698" fill="white">
<path d="M0 4C0 1.79086 1.79086 0 4 0H12C14.2091 0 16 1.79086 16 4V12C16 14.2091 14.2091 16 12 16H4C1.79086 16 0 14.2091 0 12V4Z"/>
</mask>
<path d="M0 4C0 1.79086 1.79086 0 4 0H12C14.2091 0 16 1.79086 16 4V12C16 14.2091 14.2091 16 12 16H4C1.79086 16 0 14.2091 0 12V4Z" fill="white"/>
<path d="M4 0V1H12V0V-1H4V0ZM16 4H15V12H16H17V4H16ZM12 16V15H4V16V17H12V16ZM0 12H1V4H0H-1V12H0ZM4 16V15C2.34315 15 1 13.6569 1 12H0H-1C-1 14.7614 1.23858 17 4 17V16ZM16 12H15C15 13.6569 13.6569 15 12 15V16V17C14.7614 17 17 14.7614 17 12H16ZM12 0V1C13.6569 1 15 2.34315 15 4H16H17C17 1.23858 14.7614 -1 12 -1V0ZM4 0V-1C1.23858 -1 -1 1.23858 -1 4H0H1C1 2.34315 2.34315 1 4 1V0Z" fill="#0B1228" fill-opacity="0.14" mask="url(#path-1-inside-1_237_6698)"/>
<g clip-path="url(#clip0_237_6698)">
<path d="M10.5482 5.45295L8.2558 5.19824L5.45397 5.45295L5.19922 8.00007L5.45392 10.5472L8.00105 10.8656L10.5482 10.5472L10.8029 7.93643L10.5482 5.45295Z" fill="white"/>
<path d="M6.49965 9.40455C6.30926 9.27591 6.17743 9.08809 6.10547 8.83973L6.54741 8.65762C6.58753 8.81045 6.65756 8.92887 6.75754 9.01294C6.8569 9.097 6.97789 9.13838 7.11925 9.13838C7.2638 9.13838 7.38799 9.09443 7.49175 9.00655C7.5955 8.91866 7.64777 8.80658 7.64777 8.67098C7.64777 8.53218 7.59299 8.41879 7.48347 8.33095C7.37395 8.24312 7.23641 8.19912 7.07211 8.19912H6.81678V7.76168H7.04598C7.18734 7.76168 7.30644 7.7235 7.40323 7.64708C7.50002 7.57067 7.54842 7.46623 7.54842 7.33314C7.54842 7.21472 7.5051 7.12045 7.41852 7.04979C7.33194 6.97913 7.22238 6.94347 7.08929 6.94347C6.9594 6.94347 6.85622 6.97788 6.77981 7.04727C6.70339 7.11667 6.64798 7.20199 6.61299 7.30261L6.17554 7.1205C6.23347 6.95619 6.33985 6.81101 6.49582 6.68557C6.65185 6.56013 6.85114 6.49707 7.09312 6.49707C7.27203 6.49707 7.43314 6.53148 7.57581 6.60088C7.71843 6.67028 7.83051 6.76644 7.91138 6.88868C7.99225 7.01156 8.03237 7.14915 8.03237 7.30193C8.03237 7.45795 7.99481 7.58973 7.91965 7.69799C7.8445 7.80625 7.75216 7.88901 7.64264 7.94699V7.97307C7.7872 8.03357 7.90499 8.1259 7.99796 8.25008C8.0903 8.37427 8.13675 8.52265 8.13675 8.69585C8.13675 8.86906 8.09281 9.02378 8.00493 9.15943C7.91704 9.29508 7.79542 9.40203 7.64133 9.47971C7.48662 9.55738 7.31278 9.59687 7.11983 9.59687C6.89634 9.5975 6.69003 9.53318 6.49965 9.40455Z" fill="#1A73E8"/>
<path d="M9.21162 7.21146L8.72893 7.56233L8.48633 7.19428L9.35681 6.56641H9.69049V9.52804H9.21162V7.21146Z" fill="#1A73E8"/>
<path d="M10.5485 12.8389L12.8408 10.5465L11.6947 10.0371L10.5485 10.5465L10.0391 11.6927L10.5485 12.8389Z" fill="#EA4335"/>
<path d="M4.94531 11.6931L5.45472 12.8393H10.5489V10.5469H5.45472L4.94531 11.6931Z" fill="#34A853"/>
<path d="M3.92622 3.16016C3.50407 3.16016 3.16211 3.50212 3.16211 3.92427V10.5467L4.3083 11.0561L5.45449 10.5467V5.45253H10.5487L11.0581 4.30634L10.5487 3.16016H3.92622Z" fill="#4285F4"/>
<path d="M3.16211 10.5469V12.0751C3.16211 12.4973 3.50407 12.8393 3.92622 12.8393H5.45449V10.5469H3.16211Z" fill="#188038"/>
<path d="M10.5488 5.45277V10.547H12.8412V5.45277L11.695 4.94336L10.5488 5.45277Z" fill="#FBBC04"/>
<path d="M12.8412 5.45253V3.92427C12.8412 3.50207 12.4992 3.16016 12.0771 3.16016H10.5488V5.45253H12.8412Z" fill="#1967D2"/>
</g>
<defs>
<clipPath id="clip0_237_6698">
<rect width="9.33333" height="9.33333" fill="white" transform="translate(3.33398 3.33301)"/>
</clipPath>
</defs>
</svg>
