<svg width="20" height="20" viewBox="0 0 20 20" fill="none" xmlns="http://www.w3.org/2000/svg">
<mask id="path-1-inside-1_237_6685" fill="white">
<path d="M0 5C0 2.23858 2.23858 0 5 0H15C17.7614 0 20 2.23858 20 5V15C20 17.7614 17.7614 20 15 20H5C2.23858 20 0 17.7614 0 15V5Z"/>
</mask>
<path d="M0 5C0 2.23858 2.23858 0 5 0H15C17.7614 0 20 2.23858 20 5V15C20 17.7614 17.7614 20 15 20H5C2.23858 20 0 17.7614 0 15V5Z" fill="white"/>
<path d="M5 0V1H15V0V-1H5V0ZM20 5H19V15H20H21V5H20ZM15 20V19H5V20V21H15V20ZM0 15H1V5H0H-1V15H0ZM5 20V19C2.79086 19 1 17.2091 1 15H0H-1C-1 18.3137 1.68629 21 5 21V20ZM20 15H19C19 17.2091 17.2091 19 15 19V20V21C18.3137 21 21 18.3137 21 15H20ZM15 0V1C17.2091 1 19 2.79086 19 5H20H21C21 1.68629 18.3137 -1 15 -1V0ZM5 0V-1C1.68629 -1 -1 1.68629 -1 5H0H1C1 2.79086 2.79086 1 5 1V0Z" fill="#0B1228" fill-opacity="0.14" mask="url(#path-1-inside-1_237_6685)"/>
<g clip-path="url(#clip0_237_6685)">
<path d="M13.1843 6.81643L10.3188 6.49805L6.81649 6.81643L6.49805 10.0003L6.81643 13.1842L10.0003 13.5822L13.1843 13.1842L13.5026 9.92079L13.1843 6.81643Z" fill="white"/>
<path d="M8.12358 11.7564C7.8856 11.5956 7.72081 11.3608 7.63086 11.0504L8.18329 10.8228C8.23344 11.0138 8.32097 11.1618 8.44595 11.2669C8.57015 11.372 8.72138 11.4237 8.89808 11.4237C9.07878 11.4237 9.23401 11.3688 9.36371 11.2589C9.4934 11.1491 9.55874 11.009 9.55874 10.8395C9.55874 10.666 9.49026 10.5242 9.35336 10.4144C9.21646 10.3046 9.04454 10.2496 8.83916 10.2496H8.52V9.70283H8.8065C8.9832 9.70283 9.13207 9.6551 9.25306 9.55959C9.37405 9.46407 9.43454 9.33352 9.43454 9.16716C9.43454 9.01913 9.3804 8.90129 9.27218 8.81297C9.16395 8.72465 9.027 8.68007 8.86064 8.68007C8.69827 8.68007 8.5693 8.72308 8.47378 8.80982C8.37826 8.89657 8.309 9.00322 8.26526 9.12899L7.71845 8.90135C7.79087 8.69598 7.92383 8.51449 8.1188 8.35769C8.31383 8.20089 8.56295 8.12207 8.86542 8.12207C9.08906 8.12207 9.29045 8.16508 9.46878 8.25183C9.64706 8.33858 9.78716 8.45878 9.88825 8.61159C9.98933 8.76518 10.0395 8.93716 10.0395 9.12814C10.0395 9.32318 9.99254 9.4879 9.89859 9.62322C9.80464 9.75855 9.68922 9.86199 9.55233 9.93447V9.96707C9.73302 10.0427 9.88026 10.1581 9.99647 10.3133C10.1119 10.4686 10.17 10.654 10.17 10.8705C10.17 11.0871 10.115 11.2805 10.0052 11.45C9.89533 11.6196 9.7433 11.7533 9.55069 11.8504C9.35729 11.9475 9.14 11.9968 8.89881 11.9968C8.61945 11.9976 8.36156 11.9172 8.12358 11.7564Z" fill="#1A73E8"/>
<path d="M11.5121 9.01531L10.9087 9.45389L10.6055 8.99383L11.6936 8.20898H12.1107V11.911H11.5121V9.01531Z" fill="#1A73E8"/>
<path d="M13.1836 16.0501L16.0491 13.1846L14.6164 12.5479L13.1836 13.1846L12.5469 14.6173L13.1836 16.0501Z" fill="#EA4335"/>
<path d="M6.17969 14.6173L6.81645 16.05H13.1842V13.1846H6.81645L6.17969 14.6173Z" fill="#34A853"/>
<path d="M4.90631 3.95117C4.37862 3.95117 3.95117 4.37862 3.95117 4.90631V13.1844L5.38391 13.8212L6.81664 13.1844V6.81664H13.1844L13.8212 5.38391L13.1845 3.95117H4.90631Z" fill="#4285F4"/>
<path d="M3.95117 13.1846V15.0949C3.95117 15.6227 4.37862 16.05 4.90631 16.05H6.81664V13.1846H3.95117Z" fill="#188038"/>
<path d="M13.1836 6.81645V13.1842H16.0491V6.81645L14.6163 6.17969L13.1836 6.81645Z" fill="#FBBC04"/>
<path d="M16.0491 6.81664V4.90631C16.0491 4.37856 15.6216 3.95117 15.0939 3.95117H13.1836V6.81664H16.0491Z" fill="#1967D2"/>
</g>
<defs>
<clipPath id="clip0_237_6685">
<rect width="11.6667" height="11.6667" fill="white" transform="translate(4.16602 4.16699)"/>
</clipPath>
</defs>
</svg>
