<svg width="24" height="24" viewBox="0 0 24 24" fill="none" xmlns="http://www.w3.org/2000/svg">
<mask id="path-1-inside-1_237_6672" fill="white">
<path d="M0 6.39569C0 2.86345 2.86345 0 6.39569 0H17.6043C21.1366 0 24 2.86345 24 6.39569V17.6043C24 21.1366 21.1366 24 17.6043 24H6.39569C2.86345 24 0 21.1366 0 17.6043V6.39569Z"/>
</mask>
<path d="M0 6.39569C0 2.86345 2.86345 0 6.39569 0H17.6043C21.1366 0 24 2.86345 24 6.39569V17.6043C24 21.1366 21.1366 24 17.6043 24H6.39569C2.86345 24 0 21.1366 0 17.6043V6.39569Z" fill="white"/>
<path d="M6.39569 0V1H17.6043V0V-1H6.39569V0ZM24 6.39569H23V17.6043H24H25V6.39569H24ZM17.6043 24V23H6.39569V24V25H17.6043V24ZM0 17.6043H1V6.39569H0H-1V17.6043H0ZM6.39569 24V23C3.41573 23 1 20.5843 1 17.6043H0H-1C-1 21.6888 2.31116 25 6.39569 25V24ZM24 17.6043H23C23 20.5843 20.5843 23 17.6043 23V24V25C21.6888 25 25 21.6888 25 17.6043H24ZM17.6043 0V1C20.5843 1 23 3.41573 23 6.39569H24H25C25 2.31116 21.6888 -1 17.6043 -1V0ZM6.39569 0V-1C2.31116 -1 -1 2.31116 -1 6.39569H0H1C1 3.41573 3.41573 1 6.39569 1V0Z" fill="#0B1228" fill-opacity="0.14" mask="url(#path-1-inside-1_237_6672)"/>
<g clip-path="url(#clip0_237_6672)">
<path d="M15.8631 7.71877L12.1978 7.31152L7.71787 7.71877L7.31055 11.7914L7.7178 15.8641L11.7905 16.3732L15.8631 15.8641L16.2704 11.6897L15.8631 7.71877Z" fill="white"/>
<path d="M9.39002 14.0375C9.08561 13.8318 8.87483 13.5315 8.75977 13.1344L9.4664 12.8432C9.53055 13.0876 9.64252 13.2769 9.80238 13.4113C9.96124 13.5458 10.1547 13.6119 10.3807 13.6119C10.6119 13.6119 10.8104 13.5417 10.9763 13.4011C11.1422 13.2606 11.2258 13.0814 11.2258 12.8646C11.2258 12.6427 11.1382 12.4614 10.9631 12.3209C10.788 12.1805 10.5681 12.1101 10.3054 12.1101H9.8971V11.4107H10.2636C10.4896 11.4107 10.68 11.3496 10.8348 11.2275C10.9895 11.1053 11.0669 10.9383 11.0669 10.7255C11.0669 10.5361 10.9977 10.3854 10.8592 10.2724C10.7208 10.1595 10.5456 10.1024 10.3328 10.1024C10.1251 10.1024 9.96016 10.1574 9.83798 10.2684C9.71579 10.3794 9.62719 10.5158 9.57125 10.6767L8.87181 10.3855C8.96444 10.1228 9.13452 9.89064 9.38391 9.69007C9.63338 9.4895 9.95203 9.38867 10.3389 9.38867C10.625 9.38867 10.8826 9.44369 11.1107 9.55465C11.3388 9.66561 11.518 9.81937 11.6473 10.0148C11.7766 10.2113 11.8407 10.4313 11.8407 10.6756C11.8407 10.9251 11.7807 11.1358 11.6605 11.3089C11.5403 11.482 11.3927 11.6143 11.2176 11.707V11.7487C11.4487 11.8454 11.6371 11.993 11.7857 12.1916C11.9333 12.3902 12.0076 12.6274 12.0076 12.9044C12.0076 13.1813 11.9374 13.4287 11.7968 13.6456C11.6563 13.8625 11.4619 14.0335 11.2155 14.1577C10.9681 14.2819 10.6902 14.345 10.3816 14.345C10.0243 14.346 9.69444 14.2432 9.39002 14.0375Z" fill="#1A73E8"/>
<path d="M13.7241 10.5314L12.9524 11.0924L12.5645 10.5039L13.9563 9.5H14.4898V14.2354H13.7241V10.5314Z" fill="#1A73E8"/>
<path d="M15.8633 19.5296L19.5287 15.8643L17.696 15.0498L15.8633 15.8643L15.0488 17.697L15.8633 19.5296Z" fill="#EA4335"/>
<path d="M6.9043 17.6969L7.7188 19.5296H15.864V15.8643H7.7188L6.9043 17.6969Z" fill="#34A853"/>
<path d="M5.27449 4.05371C4.5995 4.05371 4.05273 4.60048 4.05273 5.27546V15.8643L5.8854 16.6788L7.71807 15.8643V7.71904H15.8633L16.6778 5.88638L15.8634 4.05371H5.27449Z" fill="#4285F4"/>
<path d="M4.05273 15.8643V18.3078C4.05273 18.9829 4.5995 19.5296 5.27449 19.5296H7.71807V15.8643H4.05273Z" fill="#188038"/>
<path d="M15.8633 7.7188V15.864H19.5286V7.7188L17.6959 6.9043L15.8633 7.7188Z" fill="#FBBC04"/>
<path d="M19.5286 7.71904V5.27546C19.5286 4.6004 18.9818 4.05371 18.3069 4.05371H15.8633V7.71904H19.5286Z" fill="#1967D2"/>
</g>
<defs>
<clipPath id="clip0_237_6672">
<rect width="14.9233" height="14.9233" fill="white" transform="translate(4.33008 4.33008)"/>
</clipPath>
</defs>
</svg>
