<svg width="32" height="32" viewBox="0 0 32 32" fill="none" xmlns="http://www.w3.org/2000/svg">
<mask id="path-1-inside-1_237_6659" fill="white">
<path d="M0 8C0 3.58172 3.58172 0 8 0H24C28.4183 0 32 3.58172 32 8V24C32 28.4183 28.4183 32 24 32H8C3.58172 32 0 28.4183 0 24V8Z"/>
</mask>
<path d="M0 8C0 3.58172 3.58172 0 8 0H24C28.4183 0 32 3.58172 32 8V24C32 28.4183 28.4183 32 24 32H8C3.58172 32 0 28.4183 0 24V8Z" fill="white"/>
<path d="M8 0V1H24V0V-1H8V0ZM32 8H31V24H32H33V8H32ZM24 32V31H8V32V33H24V32ZM0 24H1V8H0H-1V24H0ZM8 32V31C4.13401 31 1 27.866 1 24H0H-1C-1 28.9706 3.02944 33 8 33V32ZM32 24H31C31 27.866 27.866 31 24 31V32V33C28.9706 33 33 28.9706 33 24H32ZM24 0V1C27.866 1 31 4.13401 31 8H32H33C33 3.02944 28.9706 -1 24 -1V0ZM8 0V-1C3.02944 -1 -1 3.02944 -1 8H0H1C1 4.13401 4.13401 1 8 1V0Z" fill="#0B1228" fill-opacity="0.14" mask="url(#path-1-inside-1_237_6659)"/>
<g clip-path="url(#clip0_237_6659)">
<path d="M21.0964 10.8991L16.5116 10.3896L10.9079 10.8991L10.3984 15.9933L10.9078 21.0876L16.0021 21.7244L21.0964 21.0876L21.6058 15.866L21.0964 10.8991Z" fill="white"/>
<path d="M12.9973 18.8032C12.6166 18.546 12.3529 18.1703 12.209 17.6736L13.0929 17.3094C13.1731 17.615 13.3132 17.8519 13.5131 18.02C13.7118 18.1881 13.9538 18.2709 14.2365 18.2709C14.5257 18.2709 14.774 18.183 14.9815 18.0072C15.1891 17.8315 15.2936 17.6073 15.2936 17.3361C15.2936 17.0585 15.184 16.8317 14.965 16.656C14.746 16.4804 14.4709 16.3924 14.1423 16.3924H13.6316V15.5175H14.09C14.3727 15.5175 14.6109 15.4411 14.8045 15.2883C14.9981 15.1355 15.0949 14.9266 15.0949 14.6604C15.0949 14.4236 15.0083 14.235 14.8351 14.0937C14.6619 13.9524 14.4428 13.8811 14.1766 13.8811C13.9168 13.8811 13.7105 13.9499 13.5577 14.0887C13.4048 14.2275 13.294 14.3981 13.224 14.5994L12.3491 14.2351C12.465 13.9065 12.6777 13.6162 12.9897 13.3653C13.3017 13.1144 13.7003 12.9883 14.1843 12.9883C14.5421 12.9883 14.8643 13.0571 15.1497 13.1959C15.4349 13.3347 15.6591 13.527 15.8208 13.7715C15.9825 14.0173 16.0628 14.2924 16.0628 14.598C16.0628 14.91 15.9877 15.1736 15.8374 15.3901C15.687 15.6066 15.5024 15.7722 15.2833 15.8881V15.9403C15.5724 16.0613 15.808 16.2459 15.994 16.4943C16.1786 16.7427 16.2716 17.0394 16.2716 17.3858C16.2716 17.7323 16.1837 18.0417 16.0079 18.313C15.8321 18.5843 15.5889 18.7982 15.2807 18.9536C14.9713 19.1089 14.6236 19.1879 14.2377 19.1879C13.7907 19.1891 13.3781 19.0605 12.9973 18.8032Z" fill="#1A73E8"/>
<path d="M18.4213 14.4171L17.4559 15.1188L16.9707 14.3827L18.7117 13.127H19.379V19.0502H18.4213V14.4171Z" fill="#1A73E8"/>
<path d="M21.095 25.6729L25.6797 21.0881L23.3874 20.0693L21.095 21.0881L20.0762 23.3805L21.095 25.6729Z" fill="#EA4335"/>
<path d="M9.88867 23.3803L10.9075 25.6726H21.0959V21.0879H10.9075L9.88867 23.3803Z" fill="#34A853"/>
<path d="M7.85048 6.31445C7.00618 6.31445 6.32227 6.99837 6.32227 7.84267V21.0876L8.61464 22.1064L10.907 21.0876V10.8992H21.0954L22.1143 8.60683L21.0955 6.31445H7.85048Z" fill="#4285F4"/>
<path d="M6.32227 21.0879V24.1444C6.32227 24.9888 7.00618 25.6726 7.85048 25.6726H10.907V21.0879H6.32227Z" fill="#188038"/>
<path d="M21.0957 10.8997V21.0881H25.6805V10.8997L23.3881 9.88086L21.0957 10.8997Z" fill="#FBBC04"/>
<path d="M25.6805 10.8992V7.84267C25.6805 6.99828 24.9965 6.31445 24.1522 6.31445H21.0957V10.8992H25.6805Z" fill="#1967D2"/>
</g>
<defs>
<clipPath id="clip0_237_6659">
<rect width="18.6667" height="18.6667" fill="white" transform="translate(6.66797 6.66016)"/>
</clipPath>
</defs>
</svg>
