<svg width="96" height="96" viewBox="0 0 96 96" fill="none" xmlns="http://www.w3.org/2000/svg">
<path d="M69.7099 59.4714V53.6714C69.7099 52.1714 68.3499 50.9514 66.6599 50.9514H32.4799C30.7899 50.9514 29.4299 52.1614 29.4299 53.6714V59.4714H69.7099Z" fill="#BF63F3"/>
<path d="M69.7099 63.2714H29.4299V75.2114C29.4299 76.7014 30.7899 77.9314 32.4799 77.9314H66.6599C68.3499 77.9314 69.7099 76.7114 69.7099 75.2114V63.2714Z" fill="#BF63F3"/>
<path d="M53.28 38.4614V32.6614C53.28 31.1614 51.92 29.9414 50.23 29.9414H16.05C14.36 29.9414 13 31.1514 13 32.6614V38.4614H53.28Z" fill="#FCA700"/>
<path d="M53.28 42.2614H13V54.2014C13 55.6914 14.36 56.9214 16.05 56.9214H50.23C51.92 56.9214 53.28 55.7014 53.28 54.2014V42.2614Z" fill="#FCA700"/>
<path d="M53.2799 50.9414V54.1914C53.2799 55.6914 51.9199 56.9214 50.2299 56.9214H29.4299V53.6714C29.4299 52.1614 30.7999 50.9414 32.4799 50.9414H53.2799Z" fill="#101214"/>
<path d="M53.2799 50.9414V54.1914C53.2799 55.6914 51.9199 56.9214 50.2299 56.9214H29.4299V53.6714C29.4299 52.1614 30.7999 50.9414 32.4799 50.9414H53.2799Z" fill="#AE2A19"/>
<path d="M81.6602 60.2516C82.5602 62.4116 83.6402 62.1016 82.9302 59.7816C82.4202 58.1416 81.7802 56.4916 80.9602 54.7616C80.5702 53.8816 80.0602 53.0216 79.5702 52.0916C79.0102 51.2016 78.4702 50.2416 77.7602 49.3016C76.2102 47.1516 75.0102 45.9816 73.9802 44.9816C72.9202 44.0016 72.0102 43.1916 70.6102 42.0716C68.2602 40.1716 64.7702 37.9816 61.2802 36.8116C59.5502 36.2116 57.8402 35.8416 56.4002 35.6816C54.9602 35.5316 53.7802 35.5616 53.1102 35.6716C52.7202 35.7016 52.3202 35.8016 51.9202 35.9116C51.7402 35.9516 51.5302 36.0316 51.2802 36.1316C51.0302 36.2316 50.7502 36.3416 50.4402 36.5416C50.1302 36.7016 49.7902 36.9816 49.4502 37.2916C49.2902 37.4716 49.1402 37.6916 48.9802 37.9116C48.8302 38.1416 48.7402 38.4316 48.6302 38.7016C48.5502 38.9816 48.5402 39.3016 48.5102 39.6116C48.5302 39.9116 48.5902 40.2116 48.6402 40.5116C48.8102 41.0516 49.0502 41.6116 49.4402 42.1016C50.2102 43.0916 51.4702 43.7916 52.8502 43.8516C53.5402 43.8916 54.2502 43.7816 54.9202 43.5116C55.2602 43.3816 55.5702 43.1916 55.8802 42.9916L56.3102 42.6516L56.6502 42.3216C57.5702 41.4616 58.3802 40.4116 59.0302 39.2616C59.6802 38.1016 60.1702 36.8316 60.4102 35.5016C60.6502 34.1816 60.6702 32.8316 60.5102 31.5316C59.9902 27.8416 58.1902 25.3016 56.6502 23.6116C55.0502 21.9216 53.5902 21.0116 52.5902 20.4216C50.1902 19.0716 47.8502 18.4216 45.6802 18.1616C43.5102 17.8916 41.5002 17.9816 39.5702 18.2716C37.4402 18.6616 37.6502 19.6116 39.6902 19.4716C41.5602 19.4016 43.4302 19.4816 45.4202 19.8416C47.4102 20.1916 49.5102 20.8416 51.6602 22.0516C52.4802 22.5416 53.7102 23.3916 54.9902 24.8116C56.2602 26.2216 57.5802 28.2716 58.1602 30.9016C58.3602 31.7516 58.4502 32.6216 58.4802 33.4916C58.5402 35.3616 58.0002 37.3916 56.8902 39.0616C56.3702 39.9116 55.6502 40.6616 54.9802 41.2916C54.3802 41.8116 53.5902 42.0416 52.8702 41.9716C52.1502 41.9116 51.5202 41.5816 51.1302 41.1516C50.7402 40.7416 50.5102 40.2016 50.4702 39.8216C50.3602 39.0816 50.7802 38.8116 50.7502 38.7916C50.7502 38.7916 50.7702 38.7616 50.8202 38.6916C50.8902 38.6316 50.9802 38.5516 51.1102 38.4516C51.2302 38.3416 51.4502 38.2516 51.6602 38.1216C51.9202 38.0316 52.1902 37.8916 52.5402 37.8216C53.9102 37.4316 56.0702 37.4216 58.3402 37.8916C60.6202 38.3516 63.0402 39.2616 65.1302 40.4016C67.2302 41.5216 69.0102 42.8516 70.2802 43.8916C72.1902 45.4816 73.4002 46.8816 74.3302 47.9216C74.7702 48.4716 75.1402 48.9316 75.4602 49.3216C75.7602 49.7316 76.0102 50.0816 76.2202 50.3816C76.8902 51.2716 77.4202 52.1916 77.9802 53.0216C78.4702 53.9016 78.9902 54.7016 79.4002 55.5316C80.2702 57.1616 81.0002 58.7016 81.6502 60.2416L81.6602 60.2516Z" fill="#101214"/>
</svg>
