<svg width="96" height="96" viewBox="0 0 96 96" fill="none" xmlns="http://www.w3.org/2000/svg">
<path d="M69.7099 59.4714V53.6714C69.7099 52.1714 68.3499 50.9514 66.6599 50.9514H32.4799C30.7899 50.9514 29.4299 52.1614 29.4299 53.6714V59.4714H69.7099Z" fill="#BF63F3"/>
<path d="M69.7099 63.2714H29.4299V75.2114C29.4299 76.7014 30.7899 77.9314 32.4799 77.9314H66.6599C68.3499 77.9314 69.7099 76.7114 69.7099 75.2114V63.2714Z" fill="#BF63F3"/>
<path d="M53.28 38.4614V32.6614C53.28 31.1614 51.92 29.9414 50.23 29.9414H16.05C14.36 29.9414 13 31.1514 13 32.6614V38.4614H53.28Z" fill="#FCA700"/>
<path d="M53.28 42.2614H13V54.2014C13 55.6914 14.36 56.9214 16.05 56.9214H50.23C51.92 56.9214 53.28 55.7014 53.28 54.2014V42.2614Z" fill="#FCA700"/>
<path d="M53.2799 50.9414V54.1914C53.2799 55.6914 51.9199 56.9214 50.2299 56.9214H29.4299V53.6714C29.4299 52.1614 30.7999 50.9414 32.4799 50.9414H53.2799Z" fill="#101214"/>
<path d="M53.2799 50.9414V54.1914C53.2799 55.6914 51.9199 56.9214 50.2299 56.9214H29.4299V53.6714C29.4299 52.1614 30.7999 50.9414 32.4799 50.9414H53.2799Z" fill="#AE2A19"/>
</svg>
