<svg width="16" height="16" viewBox="0 0 16 16" fill="none" xmlns="http://www.w3.org/2000/svg">
<path d="M0 4C0 1.79086 1.79086 0 4 0H12C14.2091 0 16 1.79086 16 4V12C16 14.2091 14.2091 16 12 16H4C1.79086 16 0 14.2091 0 12V4Z" fill="#09C6FA"/>
<path d="M9.39117 4.00004C9.91098 4.00004 10.4309 4.00174 10.9514 4.00004C11.214 3.99803 11.4479 4.06836 11.6465 4.24286C11.8646 4.43389 11.9911 4.67408 11.9922 4.96404C11.9967 6.0183 12.0088 7.07287 11.9891 8.12667C11.9714 9.07552 11.6317 9.91309 11.0057 10.6276C10.3515 11.3749 9.52803 11.8201 8.54434 11.9592C7.782 12.0674 7.04685 11.9606 6.34754 11.6386C5.37111 11.1891 4.68137 10.4584 4.27989 9.46362C4.03845 8.86501 3.95457 8.23888 4.023 7.59421C4.1129 6.74834 4.43699 6.00496 4.99527 5.36404C5.53593 4.74688 6.20527 4.33637 6.99773 4.12755C7.3357 4.04018 7.68365 3.99747 8.03271 4.00051C8.48522 4.00081 8.93804 4.00066 9.39117 4.00004ZM8.61787 7.56036C8.31293 7.56036 8.008 7.55943 7.70306 7.56128C7.65008 7.56128 7.63339 7.55217 7.65286 7.49529C7.72793 7.27457 7.79868 7.05247 7.87113 6.83067C7.9458 6.60254 8.02036 6.37441 8.09481 6.14628C8.11412 6.08708 8.09481 6.03917 8.04337 6.01011C7.99193 5.98105 7.94003 5.99172 7.90125 6.04009C7.87963 6.06714 7.86016 6.09589 7.83946 6.12402C7.48397 6.61944 7.12867 7.11471 6.77359 7.60982C6.63219 7.80683 6.49033 8.00343 6.34801 8.19962C6.33035 8.22125 6.31933 8.24753 6.31629 8.27529C6.31325 8.30305 6.31831 8.3311 6.33086 8.35604C6.35728 8.41292 6.40593 8.43455 6.46541 8.43687C6.49074 8.4378 6.51623 8.43765 6.54156 8.43765H8.26026C8.36406 8.43765 8.36592 8.43765 8.33286 8.53966C8.19321 8.96759 8.05295 9.3952 7.91207 9.82251C7.88658 9.89979 7.89863 9.94771 7.95424 9.97862C8.00985 10.0095 8.0582 9.99624 8.10872 9.93225C8.11598 9.92329 8.12262 9.91386 8.12941 9.90443C8.63403 9.20612 9.13834 8.50782 9.64235 7.80951C9.68019 7.75711 9.69904 7.70255 9.66706 7.64197C9.63508 7.58138 9.58071 7.55928 9.51166 7.55958C9.21383 7.56144 8.91585 7.56036 8.61787 7.56036Z" fill="white"/>
</svg>
