<svg width="20" height="20" viewBox="0 0 20 20" fill="none" xmlns="http://www.w3.org/2000/svg">
<path d="M0 5C0 2.23858 2.23858 0 5 0H15C17.7614 0 20 2.23858 20 5V15C20 17.7614 17.7614 20 15 20H5C2.23858 20 0 17.7614 0 15V5Z" fill="#09C6FA"/>
<path d="M11.739 5.00005C12.3887 5.00005 13.0387 5.00218 13.6892 5.00005C14.0175 4.99754 14.3098 5.08545 14.5581 5.30357C14.8308 5.54237 14.9889 5.8426 14.9903 6.20505C14.9959 7.52288 15.0109 8.84109 14.9864 10.1583C14.9642 11.3444 14.5396 12.3914 13.7572 13.2845C12.9394 14.2187 11.91 14.7751 10.6804 14.949C9.7275 15.0842 8.80857 14.9507 7.93443 14.5483C6.71388 13.9864 5.85172 13.073 5.34987 11.8295C5.04806 11.0813 4.94321 10.2986 5.02875 9.49276C5.14113 8.43543 5.54624 7.5062 6.24408 6.70505C6.91991 5.9336 7.75659 5.42046 8.74716 5.15944C9.16963 5.05023 9.60457 4.99684 10.0409 5.00063C10.6065 5.00102 11.1726 5.00083 11.739 5.00005ZM10.7723 9.45045C10.3912 9.45045 10.01 9.44929 9.62883 9.45161C9.5626 9.45161 9.54174 9.44021 9.56607 9.36911C9.65992 9.09322 9.74835 8.81559 9.83892 8.53834C9.93224 8.25318 10.0254 7.96801 10.1185 7.68285C10.1427 7.60885 10.1185 7.54896 10.0542 7.51264C9.98991 7.47631 9.92504 7.48965 9.87657 7.55012C9.84954 7.58393 9.82521 7.61986 9.79933 7.65503C9.35496 8.2743 8.91084 8.89338 8.46698 9.51227C8.29024 9.75854 8.11291 10.0043 7.93501 10.2495C7.91294 10.2766 7.89917 10.3094 7.89536 10.3441C7.89156 10.3788 7.89789 10.4139 7.91357 10.445C7.94659 10.5161 8.00742 10.5432 8.08176 10.5461C8.11343 10.5473 8.14529 10.5471 8.17696 10.5471H10.3253C10.4551 10.5471 10.4574 10.5471 10.4161 10.6746C10.2415 11.2095 10.0662 11.744 9.89009 12.2781C9.85822 12.3747 9.87329 12.4346 9.9428 12.4733C10.0123 12.5119 10.0728 12.4953 10.1359 12.4153C10.145 12.4041 10.1533 12.3923 10.1618 12.3805C10.7925 11.5077 11.4229 10.6348 12.0529 9.76189C12.1002 9.69639 12.1238 9.62819 12.0838 9.55246C12.0439 9.47672 11.9759 9.44909 11.8896 9.44948C11.5173 9.4518 11.1448 9.45045 10.7723 9.45045Z" fill="white"/>
</svg>
