<svg width="24" height="24" viewBox="0 0 24 24" fill="none" xmlns="http://www.w3.org/2000/svg">
<path d="M0 6.39569C0 2.86345 2.86345 0 6.39569 0H17.6043C21.1366 0 24 2.86345 24 6.39569V17.6043C24 21.1366 21.1366 24 17.6043 24H6.39569C2.86345 24 0 21.1366 0 17.6043V6.39569Z" fill="#09C6FA"/>
<path d="M14.0165 5.39557C14.8477 5.39557 15.6791 5.39829 16.5112 5.39557C16.9311 5.39236 17.305 5.50481 17.6226 5.78382C17.9714 6.08927 18.1737 6.47331 18.1754 6.93693C18.1826 8.62261 18.2019 10.3088 18.1705 11.9937C18.1421 13.5109 17.5989 14.8501 16.5981 15.9926C15.5521 17.1874 14.2354 17.8992 12.6625 18.1216C11.4436 18.2946 10.2682 18.1238 9.15002 17.609C7.58877 16.8904 6.48595 15.7219 5.84401 14.1314C5.45796 13.1743 5.32384 12.1731 5.43326 11.1424C5.57701 9.7899 6.0952 8.60128 6.98784 7.57651C7.85232 6.58971 8.92254 5.93333 10.1896 5.59946C10.73 5.45976 11.2864 5.39146 11.8445 5.39632C12.568 5.39681 13.292 5.39656 14.0165 5.39557ZM12.7801 11.0882C12.2925 11.0882 11.805 11.0868 11.3174 11.0897C11.2327 11.0897 11.206 11.0751 11.2371 10.9842C11.3572 10.6313 11.4703 10.2762 11.5861 9.92153C11.7055 9.55677 11.8247 9.192 11.9438 8.82724C11.9746 8.73259 11.9438 8.65598 11.8615 8.60952C11.7793 8.56305 11.6963 8.58011 11.6343 8.65746C11.5997 8.70071 11.5686 8.74667 11.5355 8.79165C10.9671 9.58379 10.399 10.3757 9.83123 11.1673C9.60515 11.4823 9.37833 11.7967 9.15076 12.1104C9.12253 12.145 9.10492 12.187 9.10005 12.2314C9.09519 12.2757 9.10328 12.3206 9.12335 12.3605C9.16558 12.4514 9.24339 12.486 9.33848 12.4897C9.37899 12.4912 9.41974 12.491 9.46025 12.491H12.2083C12.3743 12.491 12.3772 12.491 12.3244 12.6541C12.1011 13.3383 11.8768 14.022 11.6516 14.7053C11.6108 14.8288 11.6301 14.9054 11.719 14.9549C11.8079 15.0043 11.8852 14.983 11.966 14.8807C11.9776 14.8664 11.9882 14.8513 11.9991 14.8362C12.8059 13.7197 13.6123 12.6032 14.4182 11.4866C14.4787 11.4028 14.5088 11.3156 14.4577 11.2187C14.4065 11.1218 14.3196 11.0865 14.2092 11.087C13.733 11.09 13.2565 11.0882 12.7801 11.0882Z" fill="white"/>
</svg>
