<svg width="32" height="32" viewBox="0 0 32 32" fill="none" xmlns="http://www.w3.org/2000/svg">
<path d="M0 8C0 3.58172 3.58172 0 8 0H24C28.4183 0 32 3.58172 32 8V24C32 28.4183 28.4183 32 24 32H8C3.58172 32 0 28.4183 0 24V8Z" fill="#09C6FA"/>
<path d="M19.1301 7.00009C20.2997 7.00009 21.4696 7.00392 22.6406 7.00009C23.2314 6.99557 23.7577 7.15381 24.2046 7.54643C24.6954 7.97626 24.9801 8.51669 24.9825 9.16909C24.9926 11.5412 25.0197 13.914 24.9755 16.285C24.9356 18.4199 24.1713 20.3044 22.7629 21.9122C21.291 23.5936 19.4381 24.5951 17.2248 24.9081C15.5095 25.1516 13.8554 24.9113 12.282 24.1869C10.085 23.1756 8.53309 21.5314 7.62976 19.2932C7.08651 17.9463 6.89778 16.5375 7.05175 15.087C7.25404 13.1838 7.98324 11.5112 9.23935 10.0691C10.4558 8.68048 11.9619 7.75683 13.7449 7.287C14.5053 7.09041 15.2882 6.99431 16.0736 7.00114C17.0918 7.00183 18.1106 7.00149 19.1301 7.00009ZM17.3902 15.0108C16.7041 15.0108 16.018 15.0087 15.3319 15.0129C15.2127 15.0129 15.1751 14.9924 15.2189 14.8644C15.3879 14.3678 15.547 13.8681 15.71 13.369C15.878 12.8557 16.0458 12.3424 16.2133 11.8291C16.2568 11.6959 16.2133 11.5881 16.0976 11.5227C15.9818 11.4574 15.8651 11.4814 15.7778 11.5902C15.7292 11.6511 15.6854 11.7158 15.6388 11.779C14.8389 12.8937 14.0395 14.0081 13.2406 15.1221C12.9224 15.5654 12.6032 16.0077 12.283 16.4492C12.2433 16.4978 12.2185 16.5569 12.2117 16.6194C12.2048 16.6819 12.2162 16.745 12.2444 16.8011C12.3039 16.9291 12.4134 16.9777 12.5472 16.983C12.6042 16.9851 12.6615 16.9847 12.7185 16.9847H16.5856C16.8191 16.9847 16.8233 16.9847 16.7489 17.2142C16.4347 18.1771 16.1191 19.1392 15.8022 20.1007C15.7448 20.2745 15.7719 20.3823 15.897 20.4519C16.0222 20.5214 16.131 20.4915 16.2446 20.3476C16.2609 20.3274 16.2759 20.3062 16.2912 20.285C17.4266 18.7138 18.5613 17.1426 19.6953 15.5714C19.7804 15.4535 19.8228 15.3307 19.7509 15.1944C19.6789 15.0581 19.5566 15.0084 19.4012 15.0091C18.7311 15.0132 18.0607 15.0108 17.3902 15.0108Z" fill="white"/>
</svg>
