<svg width="16" height="16" viewBox="0 0 16 16" fill="none" xmlns="http://www.w3.org/2000/svg">
<g clip-path="url(#clip0_237_6607)">
<path d="M14.299 0.977539H5.70389C5.31881 0.977539 5.00195 1.29109 5.00195 1.67215V2.46169L9.84644 3.94599L15.001 2.46169V1.67215C15.001 1.29109 14.6841 0.977539 14.299 0.977539Z" fill="#0364B8"/>
<path d="M15.8253 8.5992C15.8985 8.37142 15.957 8.13926 16.0002 7.90408C16.0003 7.78641 15.9367 7.67739 15.8338 7.61859L15.8273 7.61514L15.8253 7.6142L10.4068 4.55968C10.3834 4.54471 10.3592 4.53097 10.3343 4.51859C10.1245 4.41568 9.87768 4.41568 9.66787 4.51859C9.643 4.53097 9.61878 4.54464 9.59536 4.55968L4.17693 7.6142L4.17489 7.61514L4.16835 7.61859C4.06544 7.67739 4.00188 7.78641 4.00195 7.90408C4.04522 8.13926 4.1037 8.37142 4.17693 8.5992L9.92233 12.7574L15.8253 8.5992Z" fill="#0A2767"/>
<path d="M12.0003 2.46191H8.50067L7.49023 3.94621L8.50067 5.43036L12.0003 8.39874H15V5.43036L12.0003 2.46191Z" fill="#28A8EA"/>
<path fill-rule="evenodd" clip-rule="evenodd" d="M5 2.46191H8.49966V5.43029H5V2.46191Z" fill="#0078D4"/>
<path fill-rule="evenodd" clip-rule="evenodd" d="M12 2.46191H14.9997V5.43029H12V2.46191Z" fill="#50D9FF"/>
<path d="M11.9993 8.39904L8.49966 5.43066H5V8.39904L8.49966 11.3675L13.9151 12.2422L11.9993 8.39904Z" fill="#0364B8"/>
<path fill-rule="evenodd" clip-rule="evenodd" d="M8.5 5.43066H11.9997V8.39904H8.5V5.43066Z" fill="#0078D4"/>
<path fill-rule="evenodd" clip-rule="evenodd" d="M5 8.39844H8.49966V11.3668H5V8.39844Z" fill="#064A8C"/>
<path fill-rule="evenodd" clip-rule="evenodd" d="M12 8.39844H14.9997V11.3668H12V8.39844Z" fill="#0078D4"/>
<path d="M10.0957 12.4651L4.19922 8.21037L4.44619 7.78045C4.44619 7.78045 9.81815 10.8082 9.90012 10.8538C9.96804 10.8807 10.0444 10.8786 10.1107 10.8478C10.1871 10.8052 15.5761 7.76562 15.5761 7.76562L15.8241 8.19555L10.0957 12.4651Z" fill="#0A2767" fill-opacity="0.498039"/>
<path d="M15.8322 8.18971L15.8257 8.19367L15.8242 8.19468L10.4057 11.2492C10.1871 11.3887 9.91017 11.4057 9.67578 11.2942L11.5631 13.798L15.6897 14.6871V14.6891C15.8842 14.5498 15.9997 14.3261 15.9996 14.0885V7.9043C15.9997 8.02189 15.9361 8.13099 15.8332 8.18971H15.8322Z" fill="#1490DF"/>
<path d="M15.9991 14.0883V13.7233L11.0081 10.9092L10.4056 11.2486C10.1871 11.388 9.91017 11.4052 9.67578 11.2935L11.5631 13.7975L15.6897 14.6865V14.6885C15.8842 14.5491 15.9996 14.3255 15.9996 14.0878L15.9991 14.0883Z" fill="black" fill-opacity="0.047059"/>
<path d="M15.9742 14.2785L10.5032 11.1943L10.4056 11.2492C10.1871 11.3887 9.91017 11.4058 9.67578 11.2942L11.5631 13.7981L15.6897 14.6871V14.6891C15.8297 14.5887 15.9304 14.4434 15.9746 14.278L15.9742 14.2785Z" fill="black" fill-opacity="0.098039"/>
<path d="M4.17499 8.19619V8.19122H4.17004L4.15499 8.18137C4.05797 8.12228 3.99907 8.017 4.00001 7.9043V14.0895C4.00001 14.496 4.33811 14.8306 4.749 14.8306H15.249C15.3114 14.8299 15.3736 14.8217 15.4339 14.8058C15.4653 14.8004 15.4956 14.7904 15.524 14.7762C15.5346 14.7751 15.5448 14.7717 15.5539 14.7662C15.5948 14.7497 15.6335 14.7281 15.6689 14.7019L15.6889 14.6871L4.17499 8.19619Z" fill="#28A8EA"/>
<path d="M8.99954 12.1921V4.11164C8.99845 3.75023 8.69831 3.45323 8.33309 3.45215H5.01546V7.14083L4.17498 7.6148L4.17301 7.6158L4.16654 7.61926C4.06356 7.67813 4 7.78715 4 7.90467V12.8535V12.8515H8.33309C8.69831 12.8505 8.99845 12.5535 8.99954 12.1921Z" fill="black" fill-opacity="0.098039"/>
<path d="M8.49963 12.6863V4.60578C8.49854 4.24444 8.19833 3.94744 7.83318 3.94629H5.01546V7.14028L4.17498 7.61425L4.17301 7.61525L4.16654 7.61871C4.06356 7.67758 4 7.7866 4 7.90412V13.3478V13.3458H7.83318C8.19833 13.3447 8.49854 13.0477 8.49963 12.6863ZM8.49963 11.6968V4.60578C8.49854 4.24444 8.19833 3.94744 7.83318 3.94629H5.01546V7.14028L4.17498 7.61425L4.17301 7.61525L4.16654 7.61871C4.06356 7.67758 4 7.7866 4 7.90412V12.3582V12.3563H7.83318C8.19833 12.3552 8.49854 12.0582 8.49963 11.6968ZM7.99965 11.6968V4.60578C7.99856 4.24444 7.69842 3.94744 7.33327 3.94629H5.01546V7.14028L4.17498 7.61425L4.17301 7.61525L4.16654 7.61871C4.06356 7.67758 4 7.7866 4 7.90412V12.3582V12.3563H7.33327C7.69842 12.3552 7.99856 12.0582 7.99965 11.6968Z" fill="black" fill-opacity="0.2"/>
<path d="M0.66645 3.94629H7.33226C7.69785 3.94629 7.99871 4.24394 7.99871 4.60571V11.202C7.99871 11.5638 7.69785 11.8615 7.33226 11.8615H0.66645C0.300863 11.8615 0 11.5638 0 11.202V4.60571C0 4.24394 0.300863 3.94629 0.66645 3.94629Z" fill="#0078D4"/>
<path d="M1.93423 6.65168C2.11131 6.27825 2.39727 5.9657 2.75515 5.75427C3.15171 5.52959 3.60326 5.41768 4.06005 5.43071C4.48309 5.4215 4.90067 5.52765 5.26692 5.73743C5.61156 5.94051 5.88915 6.23845 6.0658 6.59483C6.25823 6.98747 6.35422 7.41956 6.34579 7.85588C6.35517 8.31193 6.25634 8.76388 6.05736 9.17538C5.87679 9.54435 5.59083 9.85301 5.23492 10.0629C4.85442 10.2793 4.42127 10.3884 3.98252 10.3781C3.55032 10.3882 3.1235 10.2809 2.74867 10.0678C2.40134 9.86438 2.1204 9.56615 1.93976 9.20899C1.74609 8.82195 1.649 8.39455 1.65678 7.96275C1.6482 7.51059 1.74325 7.06239 1.93474 6.65168H1.93423ZM2.80911 8.75826C2.90358 8.99438 3.06379 9.19927 3.27113 9.34896C3.4821 9.49519 3.73504 9.57061 3.99249 9.56421C4.2668 9.57493 4.53727 9.49714 4.76293 9.34255C4.96773 9.19287 5.12372 8.9869 5.21143 8.75035C5.31004 8.48667 5.35862 8.20722 5.35491 7.92612C5.35797 7.64258 5.3123 7.36047 5.21994 7.09204C5.13848 6.85038 4.98809 6.63707 4.78693 6.4781C4.56723 6.31574 4.29749 6.23327 4.02354 6.24457C3.76049 6.23781 3.50188 6.31366 3.28509 6.46126C3.0739 6.61145 2.91012 6.81807 2.81311 7.05692C2.59857 7.60379 2.59733 8.2106 2.80962 8.75826H2.80911Z" fill="white"/>
</g>
<defs>
<clipPath id="clip0_237_6607">
<rect width="16" height="16" rx="4" fill="white"/>
</clipPath>
</defs>
</svg>
