<svg width="16" height="16" viewBox="0 0 16 16" fill="none" xmlns="http://www.w3.org/2000/svg">
<mask id="path-1-inside-1_237_6583" fill="white">
<path d="M0 4C0 1.79086 1.79086 0 4 0H12C14.2091 0 16 1.79086 16 4V12C16 14.2091 14.2091 16 12 16H4C1.79086 16 0 14.2091 0 12V4Z"/>
</mask>
<path d="M0 4C0 1.79086 1.79086 0 4 0H12C14.2091 0 16 1.79086 16 4V12C16 14.2091 14.2091 16 12 16H4C1.79086 16 0 14.2091 0 12V4Z" fill="white"/>
<path d="M4 0V1H12V0V-1H4V0ZM16 4H15V12H16H17V4H16ZM12 16V15H4V16V17H12V16ZM0 12H1V4H0H-1V12H0ZM4 16V15C2.34315 15 1 13.6569 1 12H0H-1C-1 14.7614 1.23858 17 4 17V16ZM16 12H15C15 13.6569 13.6569 15 12 15V16V17C14.7614 17 17 14.7614 17 12H16ZM12 0V1C13.6569 1 15 2.34315 15 4H16H17C17 1.23858 14.7614 -1 12 -1V0ZM4 0V-1C1.23858 -1 -1 1.23858 -1 4H0H1C1 2.34315 2.34315 1 4 1V0Z" fill="#0B1228" fill-opacity="0.14" mask="url(#path-1-inside-1_237_6583)"/>
<path d="M11.4658 3.87305H6.44879C6.22402 3.87305 6.03906 4.05607 6.03906 4.2785V4.73936L8.86683 5.60575L11.8756 4.73936V4.2785C11.8756 4.05607 11.6906 3.87305 11.4658 3.87305Z" fill="#0364B8"/>
<path d="M12.3564 8.32146C12.3992 8.18851 12.4333 8.053 12.4586 7.91572C12.4586 7.84704 12.4215 7.7834 12.3614 7.74908L12.3576 7.74706L12.3564 7.74651L9.19361 5.96357C9.17998 5.95483 9.16584 5.94681 9.15133 5.93958C9.02886 5.87951 8.88478 5.87951 8.76231 5.93958C8.7478 5.94681 8.73366 5.95479 8.71999 5.96357L5.55721 7.74651L5.55602 7.74706L5.5522 7.74908C5.49214 7.7834 5.45504 7.84704 5.45508 7.91572C5.48034 8.053 5.51447 8.18851 5.55721 8.32146L8.91085 10.7486L12.3564 8.32146Z" fill="#0A2767"/>
<path d="M10.1228 4.73926H8.08004L7.49023 5.60565L8.08004 6.47196L10.1228 8.20462H11.8737V6.47196L10.1228 4.73926Z" fill="#28A8EA"/>
<path fill-rule="evenodd" clip-rule="evenodd" d="M6.03906 4.74023H8.08184V6.4729H6.03906V4.74023Z" fill="#0078D4"/>
<path fill-rule="evenodd" clip-rule="evenodd" d="M10.123 4.74023H11.874V6.4729H10.123V4.74023Z" fill="#50D9FF"/>
<path d="M10.1246 8.20532L8.08184 6.47266H6.03906V8.20532L8.08184 9.93802L11.2429 10.4486L10.1246 8.20532Z" fill="#0364B8"/>
<path fill-rule="evenodd" clip-rule="evenodd" d="M8.08008 6.47266H10.1229V8.20532H8.08008V6.47266Z" fill="#0078D4"/>
<path fill-rule="evenodd" clip-rule="evenodd" d="M6.03906 8.20508H8.08184V9.93774H6.03906V8.20508Z" fill="#064A8C"/>
<path fill-rule="evenodd" clip-rule="evenodd" d="M10.123 8.20508H11.874V9.93774H10.123V8.20508Z" fill="#0078D4"/>
<path d="M9.01211 10.5781L5.57031 8.09456L5.71447 7.84361C5.71447 7.84361 8.85013 9.61093 8.89797 9.63752C8.93762 9.65328 8.98219 9.65202 9.02086 9.63404C9.06547 9.60921 12.2111 7.83496 12.2111 7.83496L12.3558 8.08591L9.01211 10.5781Z" fill="#0A2767" fill-opacity="0.498039"/>
<path d="M12.3611 8.08262L12.3573 8.08493L12.3564 8.08551L9.19365 9.86846C9.06604 9.94987 8.90439 9.95982 8.76758 9.89471L9.8692 11.3562L12.2779 11.8752V11.8764C12.3915 11.7951 12.4589 11.6645 12.4589 11.5258V7.91602C12.4589 7.98466 12.4218 8.04834 12.3617 8.08262H12.3611Z" fill="#1490DF"/>
<path d="M12.4586 11.5256V11.3125L9.54526 9.66992L9.19361 9.86803C9.06604 9.94944 8.90439 9.95943 8.76758 9.89428L9.8692 11.3558L12.2779 11.8747V11.8759C12.3915 11.7946 12.4589 11.664 12.4589 11.5253L12.4586 11.5256Z" fill="black" fill-opacity="0.047059"/>
<path d="M12.444 11.6362L9.25053 9.83594L9.19361 9.86799C9.06604 9.9494 8.90439 9.9594 8.76758 9.89424L9.8692 11.3558L12.2779 11.8747V11.8759C12.3597 11.8172 12.4184 11.7324 12.4443 11.6359L12.444 11.6362Z" fill="black" fill-opacity="0.098039"/>
<path d="M5.55527 8.0864V8.0835H5.55238L5.54359 8.07774C5.48696 8.04326 5.45258 7.9818 5.45313 7.91602V11.5263C5.45313 11.7636 5.65048 11.9589 5.89032 11.9589H12.0193C12.0557 11.9586 12.092 11.9537 12.1272 11.9445C12.1455 11.9413 12.1632 11.9355 12.1798 11.9272C12.186 11.9265 12.1919 11.9246 12.1972 11.9214C12.2211 11.9117 12.2437 11.8991 12.2644 11.8838L12.276 11.8752L5.55527 8.0864Z" fill="#28A8EA"/>
<path d="M8.37139 10.419V5.70233C8.37076 5.49138 8.19557 5.31801 7.98238 5.31738H6.04585V7.47049L5.55526 7.74715L5.55411 7.74774L5.55034 7.74975C5.49023 7.78412 5.45312 7.84776 5.45312 7.91635V10.805V10.8039H7.98238C8.19557 10.8033 8.37076 10.6299 8.37139 10.419Z" fill="black" fill-opacity="0.098039"/>
<path d="M8.07959 10.708V5.9914C8.07895 5.78048 7.90372 5.60712 7.69058 5.60645H6.04585V7.4708L5.55526 7.74746L5.55411 7.74805L5.55034 7.75006C5.49023 7.78442 5.45312 7.84806 5.45312 7.91666V11.0942V11.093H7.69058C7.90372 11.0923 8.07895 10.919 8.07959 10.708ZM8.07959 10.1305V5.9914C8.07895 5.78048 7.90372 5.60712 7.69058 5.60645H6.04585V7.4708L5.55526 7.74746L5.55411 7.74805L5.55034 7.75006C5.49023 7.78442 5.45312 7.84806 5.45312 7.91666V10.5166V10.5154H7.69058C7.90372 10.5148 8.07895 10.3414 8.07959 10.1305ZM7.78775 10.1305V5.9914C7.78711 5.78048 7.61192 5.60712 7.39878 5.60645H6.04585V7.4708L5.55526 7.74746L5.55411 7.74805L5.55034 7.75006C5.49023 7.78442 5.45312 7.84806 5.45312 7.91666V10.5166V10.5154H7.39878C7.61192 10.5148 7.78711 10.3414 7.78775 10.1305Z" fill="black" fill-opacity="0.2"/>
<path d="M3.50815 5.60547H7.39903C7.61243 5.60547 7.78804 5.77921 7.78804 5.99038V9.8407C7.78804 10.0519 7.61243 10.2256 7.39903 10.2256H3.50815C3.29476 10.2256 3.11914 10.0519 3.11914 9.8407V5.99038C3.11914 5.77921 3.29476 5.60547 3.50815 5.60547Z" fill="#0078D4"/>
<path d="M4.2482 7.18497C4.35156 6.96699 4.51847 6.78456 4.72737 6.66114C4.95885 6.52999 5.22242 6.46467 5.48905 6.47228C5.73598 6.4669 5.97973 6.52886 6.19351 6.65131C6.39468 6.76985 6.55671 6.94376 6.65982 7.15178C6.77215 7.38097 6.82818 7.63318 6.82325 7.88787C6.82873 8.15407 6.77104 8.41787 6.6549 8.65807C6.5495 8.87344 6.38258 9.0536 6.17483 9.17614C5.95273 9.30245 5.6999 9.36609 5.4438 9.36009C5.19152 9.36601 4.94238 9.30338 4.72359 9.17899C4.52085 9.06024 4.35687 8.88616 4.25142 8.67768C4.13838 8.45177 4.08171 8.20229 4.08625 7.95025C4.08124 7.68632 4.13672 7.4247 4.24849 7.18497H4.2482ZM4.75887 8.41459C4.81401 8.55242 4.90753 8.67201 5.02855 8.75939C5.1517 8.84475 5.29934 8.88877 5.44962 8.88503C5.60974 8.89129 5.76761 8.84588 5.89933 8.75565C6.01887 8.66827 6.10993 8.54805 6.16112 8.40997C6.21868 8.25606 6.24704 8.09295 6.24487 7.92887C6.24666 7.76336 6.22 7.59869 6.16609 7.44201C6.11854 7.30095 6.03076 7.17644 5.91334 7.08364C5.7851 6.98888 5.62765 6.94074 5.46774 6.94733C5.3142 6.94338 5.16325 6.98766 5.0367 7.07382C4.91343 7.16148 4.81783 7.28209 4.7612 7.42151C4.63598 7.74072 4.63525 8.09492 4.75917 8.41459H4.75887Z" fill="white"/>
</svg>
