<svg width="20" height="20" viewBox="0 0 20 20" fill="none" xmlns="http://www.w3.org/2000/svg">
<mask id="path-1-inside-1_237_6559" fill="white">
<path d="M0 5C0 2.23858 2.23858 0 5 0H15C17.7614 0 20 2.23858 20 5V15C20 17.7614 17.7614 20 15 20H5C2.23858 20 0 17.7614 0 15V5Z"/>
</mask>
<path d="M0 5C0 2.23858 2.23858 0 5 0H15C17.7614 0 20 2.23858 20 5V15C20 17.7614 17.7614 20 15 20H5C2.23858 20 0 17.7614 0 15V5Z" fill="white"/>
<path d="M5 0V1H15V0V-1H5V0ZM20 5H19V15H20H21V5H20ZM15 20V19H5V20V21H15V20ZM0 15H1V5H0H-1V15H0ZM5 20V19C2.79086 19 1 17.2091 1 15H0H-1C-1 18.3137 1.68629 21 5 21V20ZM20 15H19C19 17.2091 17.2091 19 15 19V20V21C18.3137 21 21 18.3137 21 15H20ZM15 0V1C17.2091 1 19 2.79086 19 5H20H21C21 1.68629 18.3137 -1 15 -1V0ZM5 0V-1C1.68629 -1 -1 1.68629 -1 5H0H1C1 2.79086 2.79086 1 5 1V0Z" fill="#0B1228" fill-opacity="0.14" mask="url(#path-1-inside-1_237_6559)"/>
<path d="M14.3302 4.8418H8.05903C7.77807 4.8418 7.54688 5.07058 7.54688 5.34862V5.9247L11.0815 7.0077L14.8424 5.9247V5.34862C14.8424 5.07058 14.6112 4.8418 14.3302 4.8418Z" fill="#0364B8"/>
<path d="M15.443 10.4028C15.4964 10.2367 15.5391 10.0673 15.5707 9.89566C15.5707 9.8098 15.5243 9.73025 15.4492 9.68735L15.4445 9.68483L15.443 9.68415L11.4895 7.45544C11.4725 7.44452 11.4548 7.43449 11.4367 7.42546C11.2836 7.35037 11.1035 7.35037 10.9504 7.42546C10.9323 7.43449 10.9146 7.44447 10.8975 7.45544L6.94407 9.68415L6.94259 9.68483L6.93781 9.68735C6.86273 9.73025 6.81635 9.8098 6.81641 9.89566C6.84798 10.0673 6.89064 10.2367 6.94407 10.4028L11.1361 13.4368L15.443 10.4028Z" fill="#0A2767"/>
<path d="M12.652 5.9248H10.0986L9.36133 7.00781L10.0986 8.09071L12.652 10.2566H14.8407V8.09071L12.652 5.9248Z" fill="#28A8EA"/>
<path fill-rule="evenodd" clip-rule="evenodd" d="M7.54688 5.9248H10.1003V8.09066H7.54688V5.9248Z" fill="#0078D4"/>
<path fill-rule="evenodd" clip-rule="evenodd" d="M12.6523 5.9248H14.841V8.09066H12.6523V5.9248Z" fill="#50D9FF"/>
<path d="M12.6538 10.2567L10.1003 8.09082H7.54688V10.2567L10.1003 12.4226L14.0516 13.0608L12.6538 10.2567Z" fill="#0364B8"/>
<path fill-rule="evenodd" clip-rule="evenodd" d="M10.0996 8.09082H12.653V10.2567H10.0996V8.09082Z" fill="#0078D4"/>
<path fill-rule="evenodd" clip-rule="evenodd" d="M7.54688 10.2568H10.1003V12.4227H7.54688V10.2568Z" fill="#064A8C"/>
<path fill-rule="evenodd" clip-rule="evenodd" d="M12.6523 10.2568H14.841V12.4227H12.6523V10.2568Z" fill="#0078D4"/>
<path d="M11.2651 13.2238L6.96289 10.1194L7.14309 9.80574C7.14309 9.80574 11.0626 12.0149 11.1224 12.0482C11.172 12.0678 11.2277 12.0663 11.276 12.0438C11.3318 12.0128 15.2637 9.79492 15.2637 9.79492L15.4447 10.1086L11.2651 13.2238Z" fill="#0A2767" fill-opacity="0.498039"/>
<path d="M15.4508 10.1038L15.4461 10.1066L15.445 10.1074L11.4916 12.3361C11.3321 12.4379 11.13 12.4503 10.959 12.3689L12.336 14.1958L15.3469 14.8445V14.846C15.4888 14.7444 15.5731 14.5811 15.573 14.4077V9.89551C15.5731 9.98131 15.5267 10.0609 15.4516 10.1038H15.4508Z" fill="#1490DF"/>
<path d="M15.5727 14.4085V14.1421L11.9311 12.0889L11.4915 12.3365C11.3321 12.4383 11.13 12.4508 10.959 12.3693L12.336 14.1963L15.3469 14.8449V14.8464C15.4888 14.7447 15.573 14.5815 15.573 14.4082L15.5727 14.4085Z" fill="black" fill-opacity="0.047059"/>
<path d="M15.5545 14.5462L11.5627 12.2959L11.4915 12.336C11.3321 12.4377 11.13 12.4502 10.959 12.3688L12.336 14.1957L15.3469 14.8444V14.8459C15.449 14.7726 15.5225 14.6665 15.5548 14.5459L15.5545 14.5462Z" fill="black" fill-opacity="0.098039"/>
<path d="M6.94408 10.1085V10.1049H6.94047L6.92949 10.0977C6.8587 10.0546 6.81572 9.97774 6.81641 9.89551V14.4085C6.81641 14.7051 7.0631 14.9492 7.3629 14.9492H15.024C15.0695 14.9487 15.1149 14.9427 15.1589 14.9312C15.1818 14.9272 15.2039 14.9199 15.2246 14.9095C15.2323 14.9087 15.2398 14.9063 15.2465 14.9023C15.2763 14.8902 15.3045 14.8744 15.3303 14.8553L15.3449 14.8445L6.94408 10.1085Z" fill="#28A8EA"/>
<path d="M10.4642 13.0245V7.12866C10.4634 6.86495 10.2444 6.64825 9.97794 6.64746H7.55731V9.33888L6.94407 9.68471L6.94264 9.68544L6.93792 9.68796C6.86278 9.73092 6.81641 9.81047 6.81641 9.89622V13.5071V13.5057H9.97794C10.2444 13.5049 10.4634 13.2882 10.4642 13.0245Z" fill="black" fill-opacity="0.098039"/>
<path d="M10.0994 13.3858V7.48999C10.0987 7.22634 9.87961 7.00963 9.61319 7.00879H7.55731V9.33926L6.94407 9.68509L6.94264 9.68582L6.93792 9.68834C6.86278 9.7313 6.81641 9.81085 6.81641 9.8966V13.8685V13.867H9.61319C9.87961 13.8663 10.0987 13.6495 10.0994 13.3858ZM10.0994 12.6639V7.48999C10.0987 7.22634 9.87961 7.00963 9.61319 7.00879H7.55731V9.33926L6.94407 9.68509L6.94264 9.68582L6.93792 9.68834C6.86278 9.7313 6.81641 9.81085 6.81641 9.8966V13.1465V13.1451H9.61319C9.87961 13.1443 10.0987 12.9276 10.0994 12.6639ZM9.73465 12.6639V7.48999C9.73385 7.22634 9.51486 7.00963 9.24844 7.00879H7.55731V9.33926L6.94407 9.68509L6.94264 9.68582L6.93792 9.68834C6.86278 9.7313 6.81641 9.81085 6.81641 9.8966V13.1465V13.1451H9.24844C9.51486 13.1443 9.73385 12.9276 9.73465 12.6639Z" fill="black" fill-opacity="0.2"/>
<path d="M4.3847 7.00781H9.24824C9.51498 7.00781 9.73449 7.22499 9.73449 7.48896V12.3019C9.73449 12.5659 9.51498 12.7831 9.24824 12.7831H4.3847C4.11795 12.7831 3.89844 12.5659 3.89844 12.3019V7.48896C3.89844 7.22499 4.11795 7.00781 4.3847 7.00781Z" fill="#0078D4"/>
<path d="M5.31024 8.98146C5.43945 8.70899 5.64809 8.48094 5.9092 8.32667C6.19855 8.16274 6.52801 8.08108 6.86129 8.09059C7.16995 8.08387 7.47463 8.16132 7.74185 8.31438C7.99331 8.46257 8.19585 8.67995 8.32474 8.93998C8.46514 9.22647 8.53518 9.54174 8.52903 9.8601C8.53587 10.1929 8.46376 10.5226 8.31858 10.8229C8.18683 11.0921 7.97819 11.3173 7.71851 11.4705C7.44089 11.6284 7.12485 11.7079 6.80473 11.7004C6.48938 11.7078 6.17796 11.6295 5.90448 11.474C5.65106 11.3256 5.44608 11.108 5.31428 10.8474C5.17297 10.565 5.10213 10.2531 5.10781 9.93808C5.10155 9.60816 5.1709 9.28113 5.31061 8.98146H5.31024ZM5.94858 10.5185C6.0175 10.6908 6.1344 10.8403 6.28568 10.9495C6.43961 11.0562 6.62416 11.1112 6.812 11.1066C7.01215 11.1144 7.20948 11.0576 7.37414 10.9448C7.52356 10.8356 7.63738 10.6853 7.70137 10.5127C7.77332 10.3203 7.80876 10.1165 7.80606 9.91135C7.80829 9.70446 7.77497 9.49863 7.70758 9.30277C7.64815 9.12644 7.53841 8.9708 7.39165 8.85481C7.23135 8.73635 7.03454 8.67617 6.83466 8.68442C6.64273 8.67948 6.45404 8.73483 6.29587 8.84252C6.14177 8.95211 6.02228 9.10286 5.95149 9.27714C5.79496 9.67616 5.79406 10.1189 5.94895 10.5185H5.94858Z" fill="white"/>
</svg>
