<svg width="24" height="24" viewBox="0 0 24 24" fill="none" xmlns="http://www.w3.org/2000/svg">
<mask id="path-1-inside-1_237_6535" fill="white">
<path d="M0 6.39569C0 2.86345 2.86345 0 6.39569 0H17.6043C21.1366 0 24 2.86345 24 6.39569V17.6043C24 21.1366 21.1366 24 17.6043 24H6.39569C2.86345 24 0 21.1366 0 17.6043V6.39569Z"/>
</mask>
<path d="M0 6.39569C0 2.86345 2.86345 0 6.39569 0H17.6043C21.1366 0 24 2.86345 24 6.39569V17.6043C24 21.1366 21.1366 24 17.6043 24H6.39569C2.86345 24 0 21.1366 0 17.6043V6.39569Z" fill="white"/>
<path d="M6.39569 0V1H17.6043V0V-1H6.39569V0ZM24 6.39569H23V17.6043H24H25V6.39569H24ZM17.6043 24V23H6.39569V24V25H17.6043V24ZM0 17.6043H1V6.39569H0H-1V17.6043H0ZM6.39569 24V23C3.41573 23 1 20.5843 1 17.6043H0H-1C-1 21.6888 2.31116 25 6.39569 25V24ZM24 17.6043H23C23 20.5843 20.5843 23 17.6043 23V24V25C21.6888 25 25 21.6888 25 17.6043H24ZM17.6043 0V1C20.5843 1 23 3.41573 23 6.39569H24H25C25 2.31116 21.6888 -1 17.6043 -1V0ZM6.39569 0V-1C2.31116 -1 -1 2.31116 -1 6.39569H0H1C1 3.41573 3.41573 1 6.39569 1V0Z" fill="#0B1228" fill-opacity="0.14" mask="url(#path-1-inside-1_237_6535)"/>
<path d="M17.1948 5.81055H9.66928C9.33212 5.81055 9.05469 6.08508 9.05469 6.41872V7.11001L13.2963 8.4096L17.8094 7.11001V6.41872C17.8094 6.08508 17.532 5.81055 17.1948 5.81055Z" fill="#0364B8"/>
<path d="M18.5317 12.4832C18.5958 12.2837 18.647 12.0805 18.6849 11.8746C18.685 11.7715 18.6293 11.6761 18.5392 11.6246L18.5335 11.6216L18.5317 11.6207L13.7875 8.94633C13.767 8.93322 13.7458 8.92119 13.7241 8.91035C13.5404 8.82025 13.3242 8.82025 13.1405 8.91035C13.1188 8.92119 13.0976 8.93316 13.0771 8.94633L8.33289 11.6207L8.33111 11.6216L8.32538 11.6246C8.23528 11.6761 8.17962 11.7715 8.17969 11.8746C8.21757 12.0805 8.26877 12.2837 8.33289 12.4832L13.3633 16.1239L18.5317 12.4832Z" fill="#0A2767"/>
<path d="M15.1832 7.11035H12.1191L11.2344 8.40994L12.1191 9.70941L15.1832 12.3084H17.8096V9.70941L15.1832 7.11035Z" fill="#28A8EA"/>
<path fill-rule="evenodd" clip-rule="evenodd" d="M9.05469 7.11035H12.1189V9.70934H9.05469V7.11035Z" fill="#0078D4"/>
<path fill-rule="evenodd" clip-rule="evenodd" d="M15.1836 7.11035H17.81V9.70934H15.1836V7.11035Z" fill="#50D9FF"/>
<path d="M15.183 12.308L12.1189 9.70898H9.05469V12.308L12.1189 14.907L16.8604 15.6729L15.183 12.308Z" fill="#0364B8"/>
<path fill-rule="evenodd" clip-rule="evenodd" d="M12.1191 9.70898H15.1833V12.308H12.1191V9.70898Z" fill="#0078D4"/>
<path fill-rule="evenodd" clip-rule="evenodd" d="M9.05469 12.3086H12.1189V14.9076H9.05469V12.3086Z" fill="#064A8C"/>
<path fill-rule="evenodd" clip-rule="evenodd" d="M15.1836 12.3086H17.81V14.9076H15.1836V12.3086Z" fill="#0078D4"/>
<path d="M13.5162 15.8686L8.35352 12.1433L8.56976 11.7669C8.56976 11.7669 13.2732 14.4179 13.345 14.4577C13.4045 14.4814 13.4713 14.4795 13.5293 14.4525C13.5963 14.4153 18.3146 11.7539 18.3146 11.7539L18.5318 12.1303L13.5162 15.8686Z" fill="#0A2767" fill-opacity="0.498039"/>
<path d="M18.5387 12.1259L18.5331 12.1293L18.5317 12.1302L13.7875 14.8046C13.5961 14.9268 13.3537 14.9417 13.1484 14.844L14.8009 17.0363L18.414 17.8147V17.8165C18.5843 17.6946 18.6854 17.4987 18.6854 17.2906V11.876C18.6854 11.9789 18.6297 12.0745 18.5396 12.1259H18.5387Z" fill="#1490DF"/>
<path d="M18.6849 17.2904V16.9707L14.315 14.5068L13.7875 14.804C13.5961 14.9261 13.3537 14.9411 13.1484 14.8434L14.8009 17.0357L18.414 17.8141V17.8158C18.5843 17.6938 18.6854 17.498 18.6854 17.2899L18.6849 17.2904Z" fill="black" fill-opacity="0.047059"/>
<path d="M18.6631 17.4562L13.8729 14.7559L13.7875 14.8039C13.5961 14.9261 13.3537 14.941 13.1484 14.8433L14.8009 17.0356L18.414 17.814V17.8158C18.5366 17.7278 18.6247 17.6006 18.6635 17.4558L18.6631 17.4562Z" fill="black" fill-opacity="0.098039"/>
<path d="M8.3329 12.1315V12.1272H8.32857L8.31539 12.1186C8.23045 12.0668 8.17887 11.9747 8.1797 11.876V17.2915C8.1797 17.6474 8.47572 17.9404 8.83549 17.9404H18.0289C18.0835 17.9398 18.138 17.9325 18.1908 17.9187C18.2183 17.914 18.2448 17.9052 18.2696 17.8927C18.2789 17.8918 18.2878 17.8888 18.2959 17.884C18.3317 17.8695 18.3655 17.8506 18.3965 17.8277L18.4141 17.8147L8.3329 12.1315Z" fill="#28A8EA"/>
<path d="M12.5571 15.6299V8.55497C12.5561 8.23853 12.2933 7.97848 11.9736 7.97754H9.06878V11.2072L8.33289 11.6222L8.33117 11.6231L8.3255 11.6261C8.23534 11.6776 8.17969 11.7731 8.17969 11.876V16.209V16.2073H11.9736C12.2933 16.2064 12.5561 15.9463 12.5571 15.6299Z" fill="black" fill-opacity="0.098039"/>
<path d="M12.1194 16.0625V8.98758C12.1184 8.67121 11.8556 8.41116 11.5359 8.41016H9.06878V11.2067L8.33289 11.6217L8.33117 11.6226L8.3255 11.6256C8.23534 11.6771 8.17969 11.7726 8.17969 11.8755V16.6417V16.64H11.5359C11.8556 16.639 12.1184 16.379 12.1194 16.0625ZM12.1194 15.1962V8.98758C12.1184 8.67121 11.8556 8.41116 11.5359 8.41016H9.06878V11.2067L8.33289 11.6217L8.33117 11.6226L8.3255 11.6256C8.23534 11.6771 8.17969 11.7726 8.17969 11.8755V15.7753V15.7736H11.5359C11.8556 15.7727 12.1184 15.5126 12.1194 15.1962ZM11.6816 15.1962V8.98758C11.6807 8.67121 11.4179 8.41116 11.0982 8.41016H9.06878V11.2067L8.33289 11.6217L8.33117 11.6226L8.3255 11.6256C8.23534 11.6771 8.17969 11.7726 8.17969 11.8755V15.7753V15.7736H11.0982C11.4179 15.7727 11.6807 15.5126 11.6816 15.1962Z" fill="black" fill-opacity="0.2"/>
<path d="M5.26125 8.41016H11.0976C11.4177 8.41016 11.6811 8.67077 11.6811 8.98752V14.763C11.6811 15.0798 11.4177 15.3404 11.0976 15.3404H5.26125C4.94116 15.3404 4.67773 15.0798 4.67773 14.763V8.98752C4.67773 8.67077 4.94116 8.41016 5.26125 8.41016Z" fill="#0078D4"/>
<path d="M6.37034 10.7789C6.52539 10.452 6.77576 10.1783 7.0891 9.99317C7.43632 9.79645 7.83168 9.69847 8.23162 9.70988C8.60202 9.70181 8.96764 9.79475 9.28831 9.97843C9.59007 10.1562 9.83311 10.4171 9.98778 10.7291C10.1563 11.0729 10.2403 11.4512 10.2329 11.8333C10.2411 12.2326 10.1546 12.6283 9.98039 12.9886C9.82229 13.3116 9.57192 13.5819 9.26029 13.7657C8.92715 13.9551 8.5479 14.0506 8.16375 14.0416C7.78533 14.0505 7.41162 13.9565 7.08344 13.77C6.77933 13.5918 6.53335 13.3307 6.37518 13.018C6.20561 12.6791 6.12061 12.3049 6.12742 11.9268C6.11991 11.5309 6.20313 11.1385 6.37079 10.7789H6.37034ZM7.13635 12.6234C7.21906 12.8301 7.35934 13.0095 7.54088 13.1405C7.7256 13.2686 7.94706 13.3346 8.17247 13.329C8.41265 13.3384 8.64946 13.2703 8.84704 13.1349C9.02635 13.0039 9.16293 12.8235 9.23973 12.6164C9.32607 12.3856 9.3686 12.1409 9.36536 11.8948C9.36803 11.6465 9.32804 11.3995 9.24718 11.1645C9.17586 10.9529 9.04418 10.7661 8.86806 10.6269C8.67569 10.4848 8.43952 10.4126 8.19966 10.4225C7.96935 10.4165 7.74292 10.483 7.5531 10.6122C7.36819 10.7437 7.2248 10.9246 7.13985 11.1337C6.95201 11.6125 6.95093 12.1438 7.1368 12.6234H7.13635Z" fill="white"/>
</svg>
