<svg width="32" height="32" viewBox="0 0 32 32" fill="none" xmlns="http://www.w3.org/2000/svg">
<mask id="path-1-inside-1_237_6504" fill="white">
<path d="M0 8C0 3.58172 3.58172 0 8 0H24C28.4183 0 32 3.58172 32 8V24C32 28.4183 28.4183 32 24 32H8C3.58172 32 0 28.4183 0 24V8Z"/>
</mask>
<path d="M0 8C0 3.58172 3.58172 0 8 0H24C28.4183 0 32 3.58172 32 8V24C32 28.4183 28.4183 32 24 32H8C3.58172 32 0 28.4183 0 24V8Z" fill="white"/>
<path d="M8 0V1H24V0V-1H8V0ZM32 8H31V24H32H33V8H32ZM24 32V31H8V32V33H24V32ZM0 24H1V8H0H-1V24H0ZM8 32V31C4.13401 31 1 27.866 1 24H0H-1C-1 28.9706 3.02944 33 8 33V32ZM32 24H31C31 27.866 27.866 31 24 31V32V33C28.9706 33 33 28.9706 33 24H32ZM24 0V1C27.866 1 31 4.13401 31 8H32H33C33 3.02944 28.9706 -1 24 -1V0ZM8 0V-1C3.02944 -1 -1 3.02944 -1 8H0H1C1 4.13401 4.13401 1 8 1V0Z" fill="#0B1228" fill-opacity="0.14" mask="url(#path-1-inside-1_237_6504)"/>
<path d="M22.9297 7.74707H12.8956C12.4461 7.74707 12.0762 8.11312 12.0762 8.55797V9.47969L17.7317 11.2125L23.7492 9.47969V8.55797C23.7492 8.11312 23.3792 7.74707 22.9297 7.74707Z" fill="#0364B8"/>
<path d="M24.7109 16.6439C24.7964 16.378 24.8647 16.107 24.9152 15.8324C24.9153 15.6951 24.8411 15.5678 24.7208 15.4991L24.7133 15.4951L24.7109 15.494L18.3853 11.9281C18.358 11.9106 18.3297 11.8946 18.3007 11.8801C18.0558 11.76 17.7676 11.76 17.5227 11.8801C17.4936 11.8946 17.4654 11.9106 17.438 11.9281L11.1125 15.494L11.1101 15.4951L11.1025 15.4991C10.9823 15.5678 10.9081 15.6951 10.9082 15.8324C10.9587 16.107 11.027 16.378 11.1125 16.6439L17.8197 21.4982L24.7109 16.6439Z" fill="#0A2767"/>
<path d="M20.2456 9.47949H16.1601L14.9805 11.2123L16.1601 12.9449L20.2456 16.4102H23.7475V12.9449L20.2456 9.47949Z" fill="#28A8EA"/>
<path fill-rule="evenodd" clip-rule="evenodd" d="M12.0762 9.47949H16.1617V12.9448H12.0762V9.47949Z" fill="#0078D4"/>
<path fill-rule="evenodd" clip-rule="evenodd" d="M20.2461 9.47949H23.748V12.9448H20.2461V9.47949Z" fill="#50D9FF"/>
<path d="M20.2473 16.4106L16.1617 12.9453H12.0762V16.4106L16.1617 19.876L22.4838 20.8972L20.2473 16.4106Z" fill="#0364B8"/>
<path fill-rule="evenodd" clip-rule="evenodd" d="M16.1602 12.9453H20.2457V16.4106H16.1602V12.9453Z" fill="#0078D4"/>
<path fill-rule="evenodd" clip-rule="evenodd" d="M12.0762 16.4102H16.1617V19.8755H12.0762V16.4102Z" fill="#064A8C"/>
<path fill-rule="evenodd" clip-rule="evenodd" d="M20.2461 16.4102H23.748V19.8755H20.2461V16.4102Z" fill="#0078D4"/>
<path d="M18.0242 21.1571L11.1406 16.1901L11.4289 15.6882C11.4289 15.6882 17.7003 19.2228 17.7959 19.276C17.8752 19.3075 17.9644 19.305 18.0417 19.269C18.1309 19.2194 24.4221 15.6709 24.4221 15.6709L24.7116 16.1728L18.0242 21.1571Z" fill="#0A2767" fill-opacity="0.498039"/>
<path d="M24.7222 16.1662L24.7146 16.1708L24.7129 16.172L18.3873 19.7379C18.1321 19.9007 17.8088 19.9206 17.5352 19.7904L19.7384 22.7134L24.5559 23.7513V23.7537C24.783 23.5911 24.9178 23.3299 24.9177 23.0525V15.833C24.9178 15.9703 24.8435 16.0977 24.7234 16.1662H24.7222Z" fill="#1490DF"/>
<path d="M24.9152 23.0522V22.626L19.0886 19.3408L18.3853 19.737C18.1301 19.8998 17.8068 19.9198 17.5332 19.7895L19.7364 22.7126L24.5539 23.7505V23.7528C24.781 23.5902 24.9158 23.329 24.9158 23.0516L24.9152 23.0522Z" fill="black" fill-opacity="0.047059"/>
<path d="M24.8861 23.2743L18.4991 19.6738L18.3853 19.7379C18.1301 19.9007 17.8068 19.9207 17.5332 19.7904L19.7364 22.7135L24.5539 23.7514V23.7537C24.7174 23.6364 24.8349 23.4668 24.8866 23.2737L24.8861 23.2743Z" fill="black" fill-opacity="0.098039"/>
<path d="M11.1105 16.1738V16.168H11.1048L11.0872 16.1565C10.9739 16.0875 10.9052 15.9646 10.9063 15.833V23.0537C10.9063 23.5283 11.301 23.9188 11.7806 23.9188H24.0385C24.1114 23.9181 24.1839 23.9084 24.2544 23.8899C24.291 23.8836 24.3264 23.872 24.3595 23.8553C24.3719 23.8541 24.3838 23.8501 24.3945 23.8437C24.4422 23.8244 24.4874 23.7992 24.5287 23.7686L24.5521 23.7513L11.1105 16.1738Z" fill="#28A8EA"/>
<path d="M16.7428 20.8389V11.4056C16.7415 10.9837 16.3911 10.637 15.9648 10.6357H12.0917V14.942L11.1105 15.4953L11.1082 15.4965L11.1007 15.5005C10.9805 15.5692 10.9062 15.6965 10.9062 15.8337V21.6111V21.6087H15.9648C16.3911 21.6075 16.7415 21.2607 16.7428 20.8389Z" fill="black" fill-opacity="0.098039"/>
<path d="M16.1592 21.4161V11.9828C16.1579 11.561 15.8074 11.2142 15.3812 11.2129H12.0917V14.9416L11.1105 15.4949L11.1082 15.4961L11.1007 15.5001C10.9805 15.5688 10.9062 15.6961 10.9062 15.8333V22.1883V22.186H15.3812C15.8074 22.1847 16.1579 21.838 16.1592 21.4161ZM16.1592 20.2609V11.9828C16.1579 11.561 15.8074 11.2142 15.3812 11.2129H12.0917V14.9416L11.1105 15.4949L11.1082 15.4961L11.1007 15.5001C10.9805 15.5688 10.9062 15.6961 10.9062 15.8333V21.0331V21.0309H15.3812C15.8074 21.0296 16.1579 20.6829 16.1592 20.2609ZM15.5755 20.2609V11.9828C15.5742 11.561 15.2238 11.2142 14.7976 11.2129H12.0917V14.9416L11.1105 15.4949L11.1082 15.4961L11.1007 15.5001C10.9805 15.5688 10.9062 15.6961 10.9062 15.8333V21.0331V21.0309H14.7976C15.2238 21.0296 15.5742 20.6829 15.5755 20.2609Z" fill="black" fill-opacity="0.2"/>
<path d="M7.0163 11.2129H14.7981C15.2249 11.2129 15.5761 11.5604 15.5761 11.9827V19.6833C15.5761 20.1057 15.2249 20.4533 14.7981 20.4533H7.0163C6.58951 20.4533 6.23828 20.1057 6.23828 19.6833V11.9827C6.23828 11.5604 6.58951 11.2129 7.0163 11.2129Z" fill="#0078D4"/>
<path d="M8.49444 14.3709C8.70117 13.935 9.035 13.5701 9.45279 13.3233C9.91575 13.061 10.4429 12.9303 10.9762 12.9455C11.47 12.9348 11.9575 13.0587 12.3851 13.3036C12.7874 13.5407 13.1115 13.8885 13.3177 14.3045C13.5423 14.7629 13.6544 15.2673 13.6446 15.7767C13.6555 16.3091 13.5401 16.8367 13.3078 17.3171C13.097 17.7478 12.7632 18.1082 12.3477 18.3533C11.9035 18.6059 11.3978 18.7332 10.8856 18.7212C10.3811 18.733 9.88281 18.6077 9.44523 18.359C9.03975 18.1215 8.71178 17.7733 8.50089 17.3563C8.2748 16.9045 8.16146 16.4056 8.17054 15.9015C8.16053 15.3736 8.27149 14.8504 8.49503 14.3709H8.49444ZM9.51579 16.8302C9.62607 17.1058 9.8131 17.345 10.0552 17.5198C10.3014 17.6905 10.5967 17.7785 10.8973 17.771C11.2175 17.7836 11.5333 17.6927 11.7967 17.5123C12.0358 17.3375 12.2179 17.0971 12.3203 16.8209C12.4354 16.5131 12.4921 16.1869 12.4878 15.8587C12.4914 15.5277 12.438 15.1984 12.3302 14.885C12.2351 14.6029 12.0596 14.3539 11.8247 14.1683C11.5682 13.9787 11.2533 13.8825 10.9335 13.8956C10.6264 13.8877 10.3245 13.9763 10.0715 14.1486C9.82491 14.3239 9.63371 14.5651 9.52046 14.844C9.27 15.4824 9.26856 16.1908 9.51638 16.8302H9.51579Z" fill="white"/>
</svg>
