<svg width="24" height="24" viewBox="0 0 24 24" fill="none" xmlns="http://www.w3.org/2000/svg">
<mask id="path-1-inside-1_237_8282" fill="white">
<path d="M0 6.39569C0 2.86345 2.86345 0 6.39569 0H17.6043C21.1366 0 24 2.86345 24 6.39569V17.6043C24 21.1366 21.1366 24 17.6043 24H6.39569C2.86345 24 0 21.1366 0 17.6043V6.39569Z"/>
</mask>
<path d="M0 6.39569C0 2.86345 2.86345 0 6.39569 0H17.6043C21.1366 0 24 2.86345 24 6.39569V17.6043C24 21.1366 21.1366 24 17.6043 24H6.39569C2.86345 24 0 21.1366 0 17.6043V6.39569Z" fill="white"/>
<path d="M6.39569 0V1H17.6043V0V-1H6.39569V0ZM24 6.39569H23V17.6043H24H25V6.39569H24ZM17.6043 24V23H6.39569V24V25H17.6043V24ZM0 17.6043H1V6.39569H0H-1V17.6043H0ZM6.39569 24V23C3.41573 23 1 20.5843 1 17.6043H0H-1C-1 21.6888 2.31116 25 6.39569 25V24ZM24 17.6043H23C23 20.5843 20.5843 23 17.6043 23V24V25C21.6888 25 25 21.6888 25 17.6043H24ZM17.6043 0V1C20.5843 1 23 3.41573 23 6.39569H24H25C25 2.31116 21.6888 -1 17.6043 -1V0ZM6.39569 0V-1C2.31116 -1 -1 2.31116 -1 6.39569H0H1C1 3.41573 3.41573 1 6.39569 1V0Z" fill="#0B1228" fill-opacity="0.14" mask="url(#path-1-inside-1_237_8282)"/>
<path fill-rule="evenodd" clip-rule="evenodd" d="M6 16.1223L8.21168 14.2725C9.39416 15.9325 10.6423 16.7151 12.0219 16.7151C13.4015 16.7151 14.6277 15.9563 15.7445 14.2962L18 16.0985C16.3796 18.4701 14.365 19.727 12.0219 19.727C9.70073 19.727 7.66423 18.4701 6 16.1223Z" fill="url(#paint0_linear_237_8282)"/>
<path fill-rule="evenodd" clip-rule="evenodd" d="M12 8.69865L7.89354 12.0909L6 9.96801L12.0228 5L18 9.96801L16.0837 12.069L12 8.69865Z" fill="url(#paint1_linear_237_8282)"/>
<defs>
<linearGradient id="paint0_linear_237_8282" x1="6" y1="17.0024" x2="18.0098" y2="17.0024" gradientUnits="userSpaceOnUse">
<stop stop-color="#8930FD"/>
<stop offset="1" stop-color="#49CCF9"/>
</linearGradient>
<linearGradient id="paint1_linear_237_8282" x1="5.99893" y1="8.54423" x2="17.9874" y2="8.54423" gradientUnits="userSpaceOnUse">
<stop stop-color="#FF02F0"/>
<stop offset="1" stop-color="#FFC800"/>
</linearGradient>
</defs>
</svg>
