<svg width="16" height="16" viewBox="0 0 16 16" fill="none" xmlns="http://www.w3.org/2000/svg">
<g clip-path="url(#clip0_237_6816)">
<path fill-rule="evenodd" clip-rule="evenodd" d="M8.60765 4.10131H7.40663C7.32584 4.10131 7.25977 4.0346 7.25977 3.95332V-0.698667C7.25977 -0.779881 7.32585 -0.84668 7.40663 -0.84668H8.60765C8.68844 -0.84668 8.75476 -0.779945 8.75476 -0.698667V3.95332C8.75476 4.03454 8.68844 4.10131 8.60765 4.10131Z" fill="#32BDB5"/>
<path fill-rule="evenodd" clip-rule="evenodd" d="M11.133 10.6045L11.7323 9.5568C11.7725 9.48716 11.8618 9.46107 11.9339 9.50167L15.932 11.8262C16.0009 11.8669 16.027 11.9568 15.9867 12.0293L15.3874 13.077C15.3471 13.1466 15.2579 13.1727 15.1858 13.1321L11.1877 10.8076C11.1158 10.764 11.0927 10.6741 11.133 10.6045Z" fill="#32BDB5"/>
<path fill-rule="evenodd" clip-rule="evenodd" d="M4.28013 9.55745L4.8792 10.6051C4.91947 10.6747 4.89656 10.7676 4.82445 10.8083L0.826375 13.1328C0.757155 13.1734 0.665033 13.1502 0.624759 13.0776L0.0256991 12.03C-0.0148171 11.9604 0.00833375 11.8675 0.0804425 11.8269L4.07852 9.50232C4.14749 9.46167 4.23986 9.4849 4.28013 9.55745Z" fill="#32BDB5"/>
<path fill-rule="evenodd" clip-rule="evenodd" d="M15.5744 5.12903L14.3328 2.96411C14.2581 2.83642 14.0967 2.79 13.967 2.86545L8.00435 6.33336L2.04173 2.86545C1.91511 2.78997 1.75088 2.83645 1.67612 2.96411L0.434586 5.12903C0.359587 5.25673 0.405644 5.42214 0.532499 5.49758L6.49513 8.96552V15.9014C6.49513 16.0494 6.61305 16.1713 6.76282 16.1713H9.24299C9.38986 16.1713 9.51092 16.0523 9.51092 15.9014V8.96552L15.4735 5.49758C15.6031 5.42211 15.6462 5.25673 15.5744 5.12903Z" fill="#4B4F54"/>
</g>
<defs>
<clipPath id="clip0_237_6816">
<rect width="16" height="16" fill="white"/>
</clipPath>
</defs>
</svg>
