<svg width="16" height="16" viewBox="0 0 16 16" fill="none" xmlns="http://www.w3.org/2000/svg">
<mask id="path-1-inside-1_237_6810" fill="white">
<path d="M0 4C0 1.79086 1.79086 0 4 0H12C14.2091 0 16 1.79086 16 4V12C16 14.2091 14.2091 16 12 16H4C1.79086 16 0 14.2091 0 12V4Z"/>
</mask>
<path d="M0 4C0 1.79086 1.79086 0 4 0H12C14.2091 0 16 1.79086 16 4V12C16 14.2091 14.2091 16 12 16H4C1.79086 16 0 14.2091 0 12V4Z" fill="white"/>
<path d="M4 0V1H12V0V-1H4V0ZM16 4H15V12H16H17V4H16ZM12 16V15H4V16V17H12V16ZM0 12H1V4H0H-1V12H0ZM4 16V15C2.34315 15 1 13.6569 1 12H0H-1C-1 14.7614 1.23858 17 4 17V16ZM16 12H15C15 13.6569 13.6569 15 12 15V16V17C14.7614 17 17 14.7614 17 12H16ZM12 0V1C13.6569 1 15 2.34315 15 4H16H17C17 1.23858 14.7614 -1 12 -1V0ZM4 0V-1C1.23858 -1 -1 1.23858 -1 4H0H1C1 2.34315 2.34315 1 4 1V0Z" fill="#0B1228" fill-opacity="0.14" mask="url(#path-1-inside-1_237_6810)"/>
<path fill-rule="evenodd" clip-rule="evenodd" d="M8.40057 5.29874H7.59987C7.546 5.29874 7.50195 5.25427 7.50195 5.20008V2.09868C7.50195 2.04453 7.54601 2 7.59987 2H8.40057C8.45442 2 8.49864 2.04449 8.49864 2.09868V5.20008C8.49864 5.25422 8.45443 5.29874 8.40057 5.29874Z" fill="#32BDB5"/>
<path fill-rule="evenodd" clip-rule="evenodd" d="M10.0854 9.63476L10.4849 8.93631C10.5118 8.88988 10.5713 8.87248 10.6193 8.89955L13.2848 10.4493C13.3308 10.4764 13.3481 10.5363 13.3213 10.5847L12.9217 11.2831C12.8949 11.3296 12.8354 11.347 12.7873 11.3199L10.1219 9.77018C10.074 9.74113 10.0585 9.6812 10.0854 9.63476Z" fill="#32BDB5"/>
<path fill-rule="evenodd" clip-rule="evenodd" d="M5.5156 8.93576L5.91499 9.6342C5.94183 9.68063 5.92656 9.74257 5.87849 9.76966L3.21304 11.3194C3.16689 11.3465 3.10548 11.331 3.07863 11.2826L2.67924 10.5842C2.65223 10.5377 2.66767 10.4758 2.71574 10.4487L5.38119 8.89901C5.42717 8.87191 5.48875 8.88739 5.5156 8.93576Z" fill="#32BDB5"/>
<path fill-rule="evenodd" clip-rule="evenodd" d="M13.0453 5.98352L12.2176 4.5402C12.1677 4.45507 12.0602 4.42413 11.9736 4.47443L7.99847 6.78642L4.02329 4.47443C3.93888 4.42411 3.82938 4.45509 3.77954 4.5402L2.95183 5.98352C2.90183 6.06866 2.93254 6.17893 3.01711 6.22922L6.99229 8.54124V13.1653C6.99229 13.2639 7.07091 13.3452 7.17076 13.3452H8.82425C8.92216 13.3452 9.00287 13.2659 9.00287 13.1653V8.54124L12.9781 6.22922C13.0644 6.17891 13.0932 6.06866 13.0453 5.98352Z" fill="#4B4F54"/>
</svg>
