<svg width="20" height="20" viewBox="0 0 20 20" fill="none" xmlns="http://www.w3.org/2000/svg">
<mask id="path-1-inside-1_237_6804" fill="white">
<path d="M0 5C0 2.23858 2.23858 0 5 0H15C17.7614 0 20 2.23858 20 5V15C20 17.7614 17.7614 20 15 20H5C2.23858 20 0 17.7614 0 15V5Z"/>
</mask>
<path d="M0 5C0 2.23858 2.23858 0 5 0H15C17.7614 0 20 2.23858 20 5V15C20 17.7614 17.7614 20 15 20H5C2.23858 20 0 17.7614 0 15V5Z" fill="white"/>
<path d="M5 0V1H15V0V-1H5V0ZM20 5H19V15H20H21V5H20ZM15 20V19H5V20V21H15V20ZM0 15H1V5H0H-1V15H0ZM5 20V19C2.79086 19 1 17.2091 1 15H0H-1C-1 18.3137 1.68629 21 5 21V20ZM20 15H19C19 17.2091 17.2091 19 15 19V20V21C18.3137 21 21 18.3137 21 15H20ZM15 0V1C17.2091 1 19 2.79086 19 5H20H21C21 1.68629 18.3137 -1 15 -1V0ZM5 0V-1C1.68629 -1 -1 1.68629 -1 5H0H1C1 2.79086 2.79086 1 5 1V0Z" fill="#0B1228" fill-opacity="0.14" mask="url(#path-1-inside-1_237_6804)"/>
<path fill-rule="evenodd" clip-rule="evenodd" d="M10.5022 6.62342H9.5013C9.43397 6.62342 9.37891 6.56783 9.37891 6.5001V2.62335C9.37891 2.55567 9.43398 2.5 9.5013 2.5H10.5022C10.5695 2.5 10.6248 2.55561 10.6248 2.62335V6.5001C10.6248 6.56778 10.5695 6.62342 10.5022 6.62342Z" fill="#32BDB5"/>
<path fill-rule="evenodd" clip-rule="evenodd" d="M12.6082 12.0435L13.1076 11.1704C13.1412 11.1123 13.2156 11.0906 13.2756 11.1244L16.6075 13.0616C16.6649 13.0955 16.6866 13.1704 16.6531 13.2309L16.1536 14.1039C16.1201 14.162 16.0457 14.1837 15.9856 14.1499L12.6538 12.2127C12.5939 12.1764 12.5746 12.1015 12.6082 12.0435Z" fill="#32BDB5"/>
<path fill-rule="evenodd" clip-rule="evenodd" d="M6.89597 11.1699L7.3952 12.043C7.42876 12.101 7.40967 12.1785 7.34957 12.2123L4.01776 14.1495C3.96008 14.1833 3.88331 14.164 3.84975 14.1035L3.35052 13.2305C3.31675 13.1724 3.33605 13.095 3.39614 13.0612L6.72795 11.124C6.78543 11.0901 6.8624 11.1095 6.89597 11.1699Z" fill="#32BDB5"/>
<path fill-rule="evenodd" clip-rule="evenodd" d="M16.309 7.47916L15.2744 5.67501C15.2121 5.5686 15.0776 5.52992 14.9695 5.59279L10.0005 8.48279L5.03155 5.59279C4.92604 5.52989 4.78917 5.56862 4.72687 5.67501L3.69223 7.47916C3.62973 7.58558 3.66812 7.72342 3.77383 7.78629L8.74281 10.6763V16.4564C8.74281 16.5797 8.84109 16.6813 8.96589 16.6813H11.0328C11.1551 16.6813 11.256 16.5821 11.256 16.4564V10.6763L16.225 7.78629C16.3329 7.72339 16.3689 7.58558 16.309 7.47916Z" fill="#4B4F54"/>
</svg>
