<svg width="24" height="24" viewBox="0 0 24 24" fill="none" xmlns="http://www.w3.org/2000/svg">
<mask id="path-1-inside-1_237_6798" fill="white">
<path d="M0 6.39569C0 2.86345 2.86345 0 6.39569 0H17.6043C21.1366 0 24 2.86345 24 6.39569V17.6043C24 21.1366 21.1366 24 17.6043 24H6.39569C2.86345 24 0 21.1366 0 17.6043V6.39569Z"/>
</mask>
<path d="M0 6.39569C0 2.86345 2.86345 0 6.39569 0H17.6043C21.1366 0 24 2.86345 24 6.39569V17.6043C24 21.1366 21.1366 24 17.6043 24H6.39569C2.86345 24 0 21.1366 0 17.6043V6.39569Z" fill="white"/>
<path d="M6.39569 0V1H17.6043V0V-1H6.39569V0ZM24 6.39569H23V17.6043H24H25V6.39569H24ZM17.6043 24V23H6.39569V24V25H17.6043V24ZM0 17.6043H1V6.39569H0H-1V17.6043H0ZM6.39569 24V23C3.41573 23 1 20.5843 1 17.6043H0H-1C-1 21.6888 2.31116 25 6.39569 25V24ZM24 17.6043H23C23 20.5843 20.5843 23 17.6043 23V24V25C21.6888 25 25 21.6888 25 17.6043H24ZM17.6043 0V1C20.5843 1 23 3.41573 23 6.39569H24H25C25 2.31116 21.6888 -1 17.6043 -1V0ZM6.39569 0V-1C2.31116 -1 -1 2.31116 -1 6.39569H0H1C1 3.41573 3.41573 1 6.39569 1V0Z" fill="#0B1228" fill-opacity="0.14" mask="url(#path-1-inside-1_237_6798)"/>
<path fill-rule="evenodd" clip-rule="evenodd" d="M12.5999 7.94811H11.3988C11.318 7.94811 11.252 7.8814 11.252 7.80012V3.14802C11.252 3.0668 11.318 3 11.3988 3H12.5999C12.6807 3 12.747 3.06674 12.747 3.14802V7.80012C12.747 7.88134 12.6807 7.94811 12.5999 7.94811Z" fill="#32BDB5"/>
<path fill-rule="evenodd" clip-rule="evenodd" d="M15.1271 14.4512L15.7264 13.4035C15.7667 13.3338 15.8559 13.3077 15.928 13.3483L19.9262 15.6729C19.9952 15.7136 20.0212 15.8035 19.981 15.8761L19.3816 16.9237C19.3414 16.9934 19.2521 17.0195 19.18 16.9789L15.1818 14.6543C15.11 14.6107 15.0868 14.5208 15.1271 14.4512Z" fill="#32BDB5"/>
<path fill-rule="evenodd" clip-rule="evenodd" d="M8.27438 13.4041L8.87346 14.4518C8.91373 14.5214 8.89082 14.6143 8.81871 14.655L4.82054 16.9795C4.75131 17.0202 4.65919 16.997 4.61891 16.9244L4.01984 15.8767C3.97932 15.8071 4.00247 15.7142 4.07458 15.6736L8.07276 13.349C8.14173 13.3083 8.2341 13.3316 8.27438 13.4041Z" fill="#32BDB5"/>
<path fill-rule="evenodd" clip-rule="evenodd" d="M19.5689 8.97479L18.3273 6.80982C18.2525 6.68212 18.0912 6.6357 17.9615 6.71115L11.9987 10.1791L6.03591 6.71115C5.90929 6.63568 5.74505 6.68215 5.67029 6.80982L4.42873 8.97479C4.35373 9.1025 4.39979 9.26791 4.52664 9.34335L10.4894 12.8114V19.7474C10.4894 19.8954 10.6073 20.0173 10.7571 20.0173H13.2373C13.3842 20.0173 13.5053 19.8983 13.5053 19.7474V12.8114L19.4681 9.34335C19.5976 9.26787 19.6407 9.1025 19.5689 8.97479Z" fill="#4B4F54"/>
</svg>
