<svg width="32" height="32" viewBox="0 0 32 32" fill="none" xmlns="http://www.w3.org/2000/svg">
<mask id="path-1-inside-1_237_6792" fill="white">
<path d="M0 8C0 3.58172 3.58172 0 8 0H24C28.4183 0 32 3.58172 32 8V24C32 28.4183 28.4183 32 24 32H8C3.58172 32 0 28.4183 0 24V8Z"/>
</mask>
<path d="M0 8C0 3.58172 3.58172 0 8 0H24C28.4183 0 32 3.58172 32 8V24C32 28.4183 28.4183 32 24 32H8C3.58172 32 0 28.4183 0 24V8Z" fill="white"/>
<path d="M8 0V1H24V0V-1H8V0ZM32 8H31V24H32H33V8H32ZM24 32V31H8V32V33H24V32ZM0 24H1V8H0H-1V24H0ZM8 32V31C4.13401 31 1 27.866 1 24H0H-1C-1 28.9706 3.02944 33 8 33V32ZM32 24H31C31 27.866 27.866 31 24 31V32V33C28.9706 33 33 28.9706 33 24H32ZM24 0V1C27.866 1 31 4.13401 31 8H32H33C33 3.02944 28.9706 -1 24 -1V0ZM8 0V-1C3.02944 -1 -1 3.02944 -1 8H0H1C1 4.13401 4.13401 1 8 1V0Z" fill="#0B1228" fill-opacity="0.14" mask="url(#path-1-inside-1_237_6792)"/>
<path fill-rule="evenodd" clip-rule="evenodd" d="M16.8031 10.5975H15.2017C15.094 10.5975 15.0059 10.5085 15.0059 10.4002V4.19736C15.0059 4.08907 15.094 4 15.2017 4H16.8031C16.9108 4 16.9992 4.08898 16.9992 4.19736V10.4002C16.9992 10.5084 16.9108 10.5975 16.8031 10.5975Z" fill="#32BDB5"/>
<path fill-rule="evenodd" clip-rule="evenodd" d="M20.1708 19.2686L20.9699 17.8716C21.0236 17.7788 21.1425 17.744 21.2387 17.7981L26.5696 20.8976C26.6616 20.9518 26.6963 21.0717 26.6426 21.1684L25.8435 22.5653C25.7898 22.6581 25.6708 22.693 25.5747 22.6388L20.2438 19.5394C20.1479 19.4813 20.1171 19.3614 20.1708 19.2686Z" fill="#32BDB5"/>
<path fill-rule="evenodd" clip-rule="evenodd" d="M11.0332 17.8725L11.8319 19.2694C11.8856 19.3622 11.8551 19.4861 11.7589 19.5403L6.42803 22.6397C6.33574 22.6939 6.2129 22.6629 6.1592 22.5662L5.36044 21.1693C5.30642 21.0765 5.33728 20.9526 5.43343 20.8984L10.7643 17.799C10.8563 17.7448 10.9795 17.7758 11.0332 17.8725Z" fill="#32BDB5"/>
<path fill-rule="evenodd" clip-rule="evenodd" d="M26.0925 11.967L24.4371 9.08041C24.3374 8.91015 24.1223 8.84826 23.9493 8.94885L15.9989 13.5728L8.04853 8.94885C7.8797 8.84822 7.66072 8.91019 7.56104 9.08041L5.90562 11.967C5.80562 12.1373 5.86703 12.3579 6.03617 12.4584L13.9865 17.0825V26.3306C13.9865 26.5279 14.1438 26.6904 14.3435 26.6904H17.6504C17.8463 26.6904 18.0077 26.5318 18.0077 26.3306V17.0825L25.9581 12.4584C26.1307 12.3578 26.1883 12.1373 26.0925 11.967Z" fill="#4B4F54"/>
</svg>
