<svg width="275" height="275" viewBox="0 0 275 275" fill="none" xmlns="http://www.w3.org/2000/svg">
<path d="M149.62 172.884C127.37 172.884 110.42 161.364 103.1 141.234C101.82 137.764 100.83 133.984 100.15 130.014C99.4603 125.984 99.1203 122.044 99.1503 118.304C99.3203 96.7543 111.55 80.1543 132.69 72.7643C136.34 71.4843 140.22 70.4843 144.2 69.8043C147.98 69.1343 151.81 68.7843 155.56 68.7343C177.93 68.5043 195.05 80.0643 202.46 100.444C203.76 104.034 204.76 107.854 205.44 111.814C206.07 115.444 206.41 119.044 206.44 122.534L206.46 122.554V123.384C206.32 145.054 194.09 161.684 172.89 168.994C169.41 170.204 165.68 171.154 161.83 171.814C157.83 172.504 153.85 172.864 150 172.884C149.88 172.884 149.75 172.884 149.63 172.884H149.62ZM156.19 72.7343C155.99 72.7343 155.8 72.7343 155.6 72.7343C152.06 72.7743 148.46 73.1143 144.88 73.7343C141.11 74.3843 137.45 75.3243 134.01 76.5343C114.27 83.4343 103.31 98.2843 103.15 118.334C103.12 121.844 103.44 125.544 104.09 129.334C104.73 133.074 105.66 136.614 106.86 139.864C113.71 158.704 129.01 169.014 149.97 168.884C153.6 168.864 157.36 168.524 161.14 167.874C164.78 167.254 168.29 166.354 171.57 165.214C190.89 158.554 202.11 143.524 202.44 123.924V123.354C202.46 119.844 202.14 116.194 201.5 112.504C200.86 108.764 199.92 105.174 198.7 101.814C191.97 83.3143 176.49 72.7443 156.19 72.7443V72.7343Z" fill="#4B4D51"/>
<path d="M211.621 173.104C211.901 171.424 212.031 169.634 212.001 167.744C211.971 165.824 211.791 164.024 211.461 162.324C209.501 152.234 202.391 146.094 192.511 144.624C190.821 144.374 189.061 144.254 187.221 144.284C185.311 144.314 183.471 144.484 181.731 144.804C171.891 146.584 164.961 152.904 163.281 162.984C163.001 164.684 162.861 166.504 162.891 168.414C162.921 170.324 163.101 172.084 163.421 173.764C165.371 183.784 172.471 189.924 182.371 191.434C184.121 191.704 185.961 191.824 187.871 191.804C189.701 191.774 191.471 191.614 193.141 191.314C202.991 189.574 209.941 183.224 211.601 173.104H211.621Z" fill="#4B4D51"/>
<path d="M201.711 186.435C201.911 175.225 196.241 171.055 187.571 171.205C179.431 171.345 174.041 175.715 174.231 186.915L174.261 188.825C176.671 190.095 179.391 190.985 182.381 191.435C184.131 191.705 185.971 191.825 187.881 191.805C189.711 191.775 191.481 191.615 193.151 191.315C196.351 190.755 199.231 189.695 201.741 188.185L201.711 186.435Z" fill="#7E8188"/>
<path d="M195.82 163.265C195.92 162.675 195.96 162.055 195.95 161.395C195.94 160.735 195.88 160.095 195.76 159.505C195.08 155.985 192.6 153.845 189.15 153.325C188.56 153.235 187.95 153.195 187.31 153.205C186.67 153.215 186 153.275 185.39 153.385C181.96 154.005 179.54 156.215 178.95 159.725C178.85 160.315 178.8 160.955 178.81 161.615C178.82 162.275 178.88 162.895 179 163.485C179.68 166.985 182.16 169.125 185.61 169.645C186.22 169.735 186.86 169.785 187.53 169.775C188.2 169.765 188.78 169.705 189.37 169.605C192.81 168.995 195.23 166.785 195.81 163.255L195.82 163.265Z" fill="#7E8188"/>
<path d="M140.898 77.8245C141.178 76.1445 141.308 74.3545 141.278 72.4645C141.248 70.5445 141.068 68.7445 140.738 67.0445C138.778 56.9545 131.668 50.8145 121.788 49.3445C120.098 49.0945 118.338 48.9745 116.498 49.0045C114.658 49.0345 112.748 49.2045 111.008 49.5245C101.168 51.3045 94.2381 57.6245 92.5581 67.7045C92.2781 69.4045 92.1381 71.2245 92.1681 73.1345C92.1981 75.0445 92.3781 76.8045 92.6981 78.4845C94.6481 88.5045 101.748 94.6445 111.648 96.1545C113.398 96.4245 115.238 96.5445 117.148 96.5245C118.978 96.4945 120.748 96.3345 122.418 96.0345C132.268 94.2945 139.218 87.9445 140.878 77.8245H140.898Z" fill="#4B4D51"/>
<path d="M131 91.1543C131.2 79.9443 125.53 75.7743 116.86 75.9243C108.72 76.0643 103.33 80.4343 103.52 91.6343L103.55 93.5443C105.96 94.8143 108.68 95.7043 111.67 96.1543C113.42 96.4243 115.26 96.5443 117.17 96.5243C119 96.4943 120.77 96.3343 122.44 96.0343C125.64 95.4743 128.52 94.4143 131.03 92.9043L131 91.1543Z" fill="#7E8188"/>
<path d="M125.101 67.9844C125.201 67.3944 125.241 66.7744 125.231 66.1144C125.221 65.4544 125.161 64.8144 125.041 64.2244C124.361 60.7044 121.881 58.5644 118.431 58.0444C117.841 57.9544 117.231 57.9144 116.591 57.9244C115.951 57.9344 115.281 57.9944 114.671 58.1044C111.241 58.7244 108.821 60.9344 108.231 64.4444C108.131 65.0344 108.081 65.6744 108.091 66.3344C108.101 66.9944 108.161 67.6144 108.281 68.2044C108.961 71.7044 111.441 73.8443 114.891 74.3643C115.501 74.4543 116.141 74.5044 116.811 74.4944C117.481 74.4844 118.061 74.4243 118.651 74.3243C122.091 73.7143 124.511 71.5044 125.091 67.9744L125.101 67.9844Z" fill="#7E8188"/>
<path d="M225.91 91.2845C226.19 89.6045 226.32 87.8145 226.29 85.9245C226.26 84.0345 226.08 82.2045 225.75 80.5045C223.79 70.4145 216.68 64.2745 206.8 62.8045C205.11 62.5545 203.35 62.4345 201.51 62.4645C199.6 62.4945 197.76 62.6645 196.02 62.9845C186.18 64.7645 179.25 71.0845 177.57 81.1645C177.29 82.8645 177.15 84.6845 177.18 86.5945C177.21 88.4845 177.39 90.2645 177.71 91.9445C179.66 101.964 186.76 108.104 196.66 109.614C198.41 109.884 200.25 110.004 202.16 109.984C203.99 109.954 205.76 109.794 207.43 109.494C217.28 107.754 224.23 101.404 225.89 91.2845H225.91Z" fill="#7E8188"/>
<path d="M216.008 104.614C216.208 93.4043 210.538 89.2343 201.868 89.3843C193.728 89.5243 188.338 93.8943 188.528 105.094L188.558 107.004C190.968 108.274 193.688 109.164 196.678 109.614C198.428 109.884 200.268 110.004 202.178 109.984C204.008 109.954 205.778 109.794 207.448 109.494C210.648 108.934 213.528 107.874 216.038 106.364L216.008 104.614Z" fill="#4B4D51"/>
<path d="M210.109 81.4443C210.209 80.8543 210.249 80.2343 210.239 79.5743C210.229 78.9143 210.169 78.2743 210.049 77.6843C209.369 74.1643 206.889 72.0243 203.439 71.5043C202.849 71.4143 202.239 71.3743 201.599 71.3843C200.959 71.3943 200.289 71.4543 199.679 71.5643C196.249 72.1843 193.829 74.3943 193.239 77.9043C193.139 78.4943 193.089 79.1343 193.099 79.7943C193.109 80.4543 193.169 81.0743 193.289 81.6643C193.969 85.1643 196.449 87.3043 199.899 87.8243C200.509 87.9143 201.149 87.9643 201.819 87.9543C202.489 87.9443 203.069 87.8843 203.659 87.7843C207.099 87.1743 209.519 84.9643 210.099 81.4343L210.109 81.4443Z" fill="#4B4D51"/>
<path d="M49 223.125C49 223.125 113.83 230.835 147.2 222.775V105.365C147.2 105.365 94.29 118.325 49 104.665C49 104.665 49.72 223.645 49 223.125Z" fill="#4B4D51"/>
<path d="M62.8906 144.274H133.311" stroke="#101214" stroke-width="7" stroke-miterlimit="10"/>
<path d="M62.8906 161.534H133.311" stroke="#101214" stroke-width="7" stroke-miterlimit="10"/>
<path d="M62.8906 178.784H133.311" stroke="#101214" stroke-width="7" stroke-miterlimit="10"/>
<path d="M62.8906 196.034H133.311" stroke="#101214" stroke-width="7" stroke-miterlimit="10"/>
</svg>
