<svg width="96" height="96" viewBox="0 0 96 96" fill="none" xmlns="http://www.w3.org/2000/svg">
<path fill-rule="evenodd" clip-rule="evenodd" d="M68.3428 54.5147C77.0328 54.5147 84.0728 47.4747 84.0728 38.7847C84.0728 30.0947 77.0328 23.0547 68.3428 23.0547C59.6528 23.0547 52.6128 30.0947 52.6128 38.7847C52.6128 47.4747 59.6528 54.5147 68.3428 54.5147ZM65.8828 31.4147C65.8828 32.7747 66.9828 33.8747 68.3428 33.8747C69.7028 33.8747 70.8028 32.7747 70.8028 31.4147C70.8028 30.0547 69.7028 28.9547 68.3428 28.9547C66.9828 28.9547 65.8828 30.0547 65.8828 31.4147ZM70.3028 36.8247V46.6547H66.3728V36.8247H70.3028Z" fill="#82B536"/>
<path fill-rule="evenodd" clip-rule="evenodd" d="M59.3927 75.6547C64.7927 72.0647 68.3527 65.9247 68.3527 58.9447C68.3527 47.8747 59.3727 38.8947 48.3027 38.8947C37.2327 38.8947 28.2527 47.8747 28.2527 58.9447C28.2527 65.9147 31.8127 72.0647 37.2127 75.6547C38.1927 70.4247 42.7827 66.4647 48.3027 66.4647C53.8227 66.4647 58.4127 70.4247 59.3927 75.6547ZM48.3027 62.7047C52.4527 62.7047 55.8227 59.3347 55.8227 55.1847C55.8227 51.0347 52.4527 47.6647 48.3027 47.6647C44.1527 47.6647 40.7827 51.0347 40.7827 55.1847C40.7827 59.3347 44.1527 62.7047 48.3027 62.7047Z" fill="#BF63F3"/>
<path fill-rule="evenodd" clip-rule="evenodd" d="M52.6228 39.3647C52.9128 47.6247 59.5828 54.2647 67.8628 54.5147C66.1628 46.9647 60.1928 41.0247 52.6228 39.3647Z" fill="#AE2A19"/>
<path d="M35.3528 20.0944C34.9828 19.7244 34.1828 20.5444 34.2028 20.7944C34.2628 21.2444 34.4128 21.7944 34.6728 22.4544C35.0228 23.1844 35.3028 23.2944 35.4828 23.8244C35.8128 24.7044 36.0628 26.3044 36.1128 26.6944C36.1128 26.7544 36.1328 26.8044 36.1628 26.8544C36.3428 27.2244 37.0828 28.8544 37.5128 30.3344C37.8728 31.3644 38.0928 32.0044 38.2128 32.3344C38.4928 33.1244 38.8028 33.6744 39.2328 34.1944C39.4728 34.4844 40.3628 34.0944 40.3528 33.7544C40.3428 33.1244 40.2428 32.5044 39.9828 31.7244C39.8728 31.4244 39.9128 30.6944 39.6428 29.7844C39.6028 29.6344 39.5328 29.4944 39.4428 29.3644C38.6728 28.2244 38.1928 26.5644 38.1928 26.5644C38.1928 26.5644 37.3428 24.1344 36.9428 23.1044C36.6428 22.3344 36.4928 21.9644 36.4028 21.7344C36.1128 21.0444 35.8028 20.5444 35.3528 20.0744V20.0944Z" fill="#101214"/>
<path d="M22.4626 33.4644C22.1426 33.4144 22.0126 33.7144 22.0126 34.0144C22.0126 34.2044 22.0126 34.2444 22.0126 34.4344C21.9926 34.6244 21.9526 34.6744 21.9226 34.6944C22.0026 34.9344 22.2826 35.2544 22.6526 35.6144C23.1326 35.9744 23.4026 35.9344 23.6826 36.2444C24.1926 36.7544 24.7926 37.8444 24.9326 38.1144C24.9526 38.1544 24.9826 38.1844 25.0126 38.2144C25.2526 38.4144 26.2926 39.3044 27.0126 40.2444C27.5626 40.8644 27.8926 41.2544 28.0726 41.4544C28.4926 41.9244 28.8826 42.2144 29.3426 42.4344C29.5926 42.5544 30.3526 41.9444 30.2726 41.6744C30.1326 41.1744 29.9126 40.7344 29.5026 40.2344C29.3426 40.0444 29.2026 39.4744 28.7526 38.8944C28.6826 38.8044 28.5826 38.7244 28.4726 38.6644C27.5226 38.1344 26.7026 37.0844 26.7026 37.0844C26.7026 37.0844 25.3626 35.6144 24.7526 35.0244C24.2926 34.5744 24.0626 34.3644 23.9226 34.2344C23.4826 33.8444 23.0726 33.6044 22.4726 33.4644H22.4626Z" fill="#101214"/>
<path d="M12.4627 50.8444C11.9427 50.8344 11.9227 51.9744 12.1027 52.1444C12.4627 52.4344 12.9527 52.7244 13.5927 53.0044C14.3527 53.2744 14.6327 53.1444 15.1127 53.3944C15.9627 53.7744 17.2527 54.7144 17.5627 54.9444C17.6127 54.9744 17.6627 55.0044 17.7127 55.0244C18.0927 55.1544 19.7627 55.7444 21.1027 56.4644C22.0827 56.9144 22.6927 57.1844 23.0027 57.3344C23.7627 57.6644 24.3627 57.8144 25.0627 57.8544C25.4827 57.8744 25.6727 56.9144 25.4527 56.7144C25.0127 56.3244 24.5027 55.9744 23.7727 55.6244C23.4827 55.4944 23.0027 54.9744 22.1727 54.5444C22.0427 54.4744 21.8927 54.4244 21.7427 54.4044C20.4127 54.1844 18.9127 53.3744 18.9127 53.3744C18.9127 53.3744 16.6127 52.3144 15.6427 51.8644C14.9027 51.5444 14.5427 51.3844 14.3227 51.2844C13.6427 51.0044 13.0927 50.8644 12.4627 50.8444Z" fill="#101214"/>
</svg>
