<svg width="96" height="96" viewBox="0 0 96 96" fill="none" xmlns="http://www.w3.org/2000/svg">
<path fill-rule="evenodd" clip-rule="evenodd" d="M68.3428 54.5147C77.0328 54.5147 84.0728 47.4747 84.0728 38.7847C84.0728 30.0947 77.0328 23.0547 68.3428 23.0547C59.6528 23.0547 52.6128 30.0947 52.6128 38.7847C52.6128 47.4747 59.6528 54.5147 68.3428 54.5147ZM65.8828 31.4147C65.8828 32.7747 66.9828 33.8747 68.3428 33.8747C69.7028 33.8747 70.8028 32.7747 70.8028 31.4147C70.8028 30.0547 69.7028 28.9547 68.3428 28.9547C66.9828 28.9547 65.8828 30.0547 65.8828 31.4147ZM70.3028 36.8247V46.6547H66.3728V36.8247H70.3028Z" fill="#82B536"/>
<path fill-rule="evenodd" clip-rule="evenodd" d="M59.3927 75.6547C64.7927 72.0647 68.3527 65.9247 68.3527 58.9447C68.3527 47.8747 59.3727 38.8947 48.3027 38.8947C37.2327 38.8947 28.2527 47.8747 28.2527 58.9447C28.2527 65.9147 31.8127 72.0647 37.2127 75.6547C38.1927 70.4247 42.7827 66.4647 48.3027 66.4647C53.8227 66.4647 58.4127 70.4247 59.3927 75.6547ZM48.3027 62.7047C52.4527 62.7047 55.8227 59.3347 55.8227 55.1847C55.8227 51.0347 52.4527 47.6647 48.3027 47.6647C44.1527 47.6647 40.7827 51.0347 40.7827 55.1847C40.7827 59.3347 44.1527 62.7047 48.3027 62.7047Z" fill="#BF63F3"/>
<path fill-rule="evenodd" clip-rule="evenodd" d="M52.6228 39.3647C52.9128 47.6247 59.5828 54.2647 67.8628 54.5147C66.1628 46.9647 60.1928 41.0247 52.6228 39.3647Z" fill="#AE2A19"/>
</svg>
