<svg width="16" height="16" viewBox="0 0 16 16" fill="none" xmlns="http://www.w3.org/2000/svg">
<g clip-path="url(#clip0_237_7136)">
<mask id="mask0_237_7136" style="mask-type:luminance" maskUnits="userSpaceOnUse" x="0" y="2" width="16" height="13">
<path d="M0 2.89551H16V14.072H0V2.89551Z" fill="white"/>
</mask>
<g mask="url(#mask0_237_7136)">
<path fill-rule="evenodd" clip-rule="evenodd" d="M6.6436 4.11891C7.16007 3.58126 7.87889 3.24832 8.67301 3.24832C9.73183 3.24832 10.6495 3.83656 11.1436 4.71303C11.5822 4.51695 12.0573 4.41572 12.5377 4.41597C14.4436 4.41597 15.9907 5.97479 15.9907 7.89832C15.9907 9.82185 14.4436 11.3807 12.5377 11.3807C12.3048 11.3807 12.0777 11.3573 11.8554 11.313C11.423 12.0836 10.5965 12.6071 9.65536 12.6071C9.27218 12.6079 8.8939 12.521 8.54948 12.353C8.11125 13.3824 7.09066 14.106 5.90242 14.106C4.66125 14.106 3.6083 13.3236 3.20242 12.2236C3.02177 12.2617 2.83764 12.2809 2.65301 12.2808C1.17654 12.2808 -0.0175781 11.069 -0.0175781 9.58079C-0.0175781 8.58079 0.520069 7.7102 1.31772 7.23961C1.14849 6.84979 1.06139 6.42929 1.06183 6.00432C1.06183 4.28667 2.45595 2.89844 4.1736 2.89844C5.17948 2.89844 6.07948 3.37785 6.64419 4.12197" fill="#00A1E0"/>
</g>
<path fill-rule="evenodd" clip-rule="evenodd" d="M2.31418 8.7073C2.30413 8.73353 2.31777 8.739 2.32101 8.74365C2.35107 8.76541 2.3816 8.78118 2.41218 8.79888C2.57571 8.88536 2.72983 8.91065 2.89101 8.91065C3.21924 8.91065 3.42336 8.73594 3.42336 8.45477V8.44924C3.42336 8.18924 3.19277 8.09453 2.97748 8.02688L2.9493 8.01777C2.78636 7.96494 2.64577 7.91894 2.64577 7.81188V7.80641C2.64577 7.71465 2.72813 7.647 2.85518 7.647C2.99636 7.647 3.1646 7.694 3.27224 7.75347C3.27224 7.75347 3.30413 7.77406 3.31571 7.7433C3.32201 7.72665 3.37689 7.57977 3.38277 7.5633C3.38901 7.54606 3.37807 7.53306 3.36683 7.52636C3.2433 7.45106 3.07271 7.39988 2.89624 7.39988L2.86348 7.4C2.56289 7.4 2.35289 7.58177 2.35289 7.84177V7.84736C2.35289 8.12147 2.58466 8.21088 2.80113 8.27265L2.83595 8.28347C2.9936 8.33194 3.13007 8.37406 3.13007 8.48465V8.49018C3.13007 8.59194 3.04124 8.66783 2.89889 8.66783C2.84354 8.66783 2.66713 8.66688 2.47595 8.54606C2.45283 8.53259 2.43966 8.52288 2.42183 8.512C2.41242 8.5063 2.38889 8.496 2.37866 8.52683L2.31395 8.70683M7.11983 8.70683C7.10977 8.73306 7.12342 8.73853 7.12677 8.74318C7.15671 8.76494 7.18736 8.78071 7.21795 8.79841C7.38148 8.88488 7.5356 8.91018 7.69677 8.91018C8.02501 8.91018 8.22913 8.73547 8.22913 8.4543V8.44877C8.22913 8.18877 7.99913 8.09406 7.78324 8.02641L7.75507 8.0173C7.59213 7.96447 7.45154 7.91847 7.45154 7.81141V7.80594C7.45154 7.71418 7.53389 7.64653 7.66095 7.64653C7.80213 7.64653 7.96977 7.69353 8.07801 7.753C8.07801 7.753 8.10989 7.77359 8.12154 7.74283C8.12777 7.72618 8.18271 7.5793 8.18801 7.56283C8.1943 7.54559 8.1833 7.53259 8.17213 7.52588C8.0486 7.45059 7.87801 7.39941 7.70154 7.39941L7.66871 7.39953C7.36813 7.39953 7.15813 7.5813 7.15813 7.8413V7.84688C7.15813 8.121 7.38989 8.21041 7.60636 8.27218L7.64113 8.283C7.79936 8.33147 7.93524 8.37359 7.93524 8.48418V8.48971C7.93524 8.59147 7.84642 8.66736 7.70407 8.66736C7.6486 8.66736 7.47171 8.66641 7.28113 8.54559C7.25801 8.53212 7.24448 8.52283 7.22695 8.51153C7.22101 8.50777 7.1933 8.49694 7.18383 8.52636L7.11913 8.70635M10.4015 8.15577C10.4015 8.31459 10.3718 8.43988 10.3138 8.52871C10.2559 8.61636 10.1685 8.6593 10.0468 8.6593C9.92501 8.6593 9.83795 8.61671 9.78089 8.5293C9.72342 8.44106 9.69442 8.31518 9.69442 8.15635C9.69442 7.99753 9.7236 7.87283 9.78089 7.78518C9.83783 7.69812 9.92442 7.65636 10.0468 7.65636C10.1691 7.65636 10.2562 7.69853 10.3138 7.78518C10.3722 7.87283 10.4015 7.99753 10.4015 8.15635M10.6756 7.86165C10.6486 7.77047 10.6068 7.69047 10.5509 7.62341C10.4949 7.55636 10.4244 7.50224 10.3403 7.46341C10.2568 7.4243 10.1579 7.40459 10.0462 7.40459C9.93442 7.40459 9.83618 7.42441 9.75207 7.46341C9.66854 7.50247 9.59736 7.55636 9.54148 7.62341C9.48571 7.69047 9.44383 7.77047 9.41677 7.86165C9.39001 7.95224 9.37642 8.05106 9.37642 8.15635C9.37642 8.26165 9.39001 8.36047 9.41677 8.45106C9.44366 8.54224 9.4856 8.62224 9.54148 8.6893C9.59742 8.75636 9.66854 8.80988 9.75207 8.84812C9.83618 8.88624 9.93501 8.90565 10.0462 8.90565C10.1574 8.90565 10.2562 8.88624 10.3397 8.84812C10.4232 8.81 10.4944 8.75636 10.5503 8.6893C10.6061 8.62224 10.6479 8.54224 10.675 8.45106C10.7017 8.36047 10.7153 8.26165 10.7153 8.15635C10.7153 8.05165 10.7017 7.95224 10.675 7.86165M12.9279 8.61459C12.9189 8.58794 12.8929 8.598 12.8929 8.598C12.8531 8.61324 12.8106 8.62735 12.7653 8.63441C12.7197 8.64159 12.6688 8.64518 12.6153 8.64518C12.4829 8.64518 12.3771 8.60571 12.3018 8.52753C12.2259 8.4493 12.1835 8.32341 12.1841 8.15283C12.1845 7.99753 12.2221 7.88106 12.2894 7.79165C12.3559 7.70341 12.4582 7.65753 12.5935 7.65753C12.7065 7.65753 12.7929 7.67065 12.8835 7.699C12.8835 7.699 12.905 7.70835 12.9153 7.68006C12.9394 7.61359 12.9571 7.56594 12.9829 7.493C12.9902 7.47212 12.9724 7.4633 12.9658 7.46077C12.9303 7.44688 12.8464 7.42412 12.7829 7.41453C12.7235 7.40547 12.6547 7.40077 12.577 7.40077C12.4617 7.40077 12.3594 7.42047 12.2717 7.45953C12.1841 7.49853 12.1099 7.55247 12.0511 7.61953C11.9923 7.68659 11.9476 7.76659 11.9176 7.85777C11.8879 7.94836 11.8729 8.04777 11.8729 8.15306C11.8729 8.38012 11.9341 8.56424 12.0552 8.69894C12.1764 8.83424 12.3588 8.90247 12.5964 8.90247C12.737 8.90247 12.8811 8.87406 12.9847 8.83306C12.9847 8.83306 13.0044 8.82353 12.9958 8.80047L12.9282 8.61459M13.4076 8.00283C13.4207 7.91459 13.4449 7.84106 13.4829 7.784C13.5398 7.69694 13.6264 7.6493 13.7482 7.6493C13.8699 7.6493 13.9505 7.69718 14.0082 7.784C14.0464 7.84135 14.0631 7.91753 14.0694 8.00283L13.4047 8.00271L13.4076 8.00283ZM14.3311 7.80871C14.3078 7.72106 14.2499 7.63224 14.2123 7.59165C14.1523 7.52753 14.0941 7.48224 14.0358 7.45753C13.9518 7.42178 13.8613 7.40343 13.7699 7.40359C13.6541 7.40359 13.5488 7.42318 13.4635 7.463C13.3782 7.50312 13.3064 7.55771 13.2499 7.62594C13.1935 7.69418 13.1511 7.77477 13.1241 7.86712C13.097 7.9583 13.0834 8.0583 13.0834 8.163C13.0834 8.27006 13.0975 8.36947 13.1254 8.45947C13.1536 8.55006 13.199 8.62947 13.2601 8.69536C13.3213 8.76183 13.3995 8.81359 13.4937 8.85006C13.5872 8.88624 13.7007 8.905 13.8307 8.90459C14.0989 8.90371 14.2401 8.844 14.2978 8.81165C14.3081 8.80588 14.3178 8.79594 14.3057 8.7673L14.2451 8.5973C14.2358 8.57194 14.2101 8.58112 14.2101 8.58112C14.1437 8.60594 14.0495 8.65053 13.8289 8.64994C13.6848 8.64971 13.5784 8.60718 13.5113 8.54053C13.4431 8.4723 13.409 8.37288 13.4037 8.23171L14.3331 8.23241C14.3331 8.23241 14.3575 8.23218 14.3601 8.2083C14.3611 8.19841 14.3919 8.01771 14.3324 7.80888L14.3311 7.80871ZM5.97819 8.00283C5.9913 7.91459 6.01554 7.84106 6.05348 7.784C6.11042 7.69694 6.19701 7.6493 6.31877 7.6493C6.44054 7.6493 6.52113 7.69718 6.57877 7.784C6.61695 7.84135 6.63366 7.91753 6.63995 8.00283L5.97524 8.00271L5.97819 8.00283ZM6.90171 7.80871C6.87842 7.72106 6.82054 7.63224 6.78289 7.59165C6.72289 7.52753 6.66466 7.48224 6.60642 7.45753C6.52234 7.42178 6.4319 7.40343 6.34054 7.40359C6.22466 7.40359 6.11936 7.42318 6.03407 7.463C5.94877 7.50312 5.87701 7.55771 5.82054 7.62594C5.76424 7.69418 5.72171 7.77477 5.69466 7.86712C5.66766 7.9583 5.65407 8.0583 5.65407 8.163C5.65407 8.27006 5.66813 8.36947 5.69618 8.45947C5.7243 8.55006 5.76971 8.62947 5.8303 8.69536C5.89148 8.76183 5.96971 8.81359 6.06383 8.85006C6.15736 8.88624 6.2703 8.905 6.40089 8.90459C6.66913 8.90371 6.8103 8.844 6.86795 8.81165C6.87818 8.80588 6.88795 8.79594 6.87577 8.7673L6.81518 8.5973C6.80583 8.57194 6.78018 8.58112 6.78018 8.58112C6.71371 8.60594 6.6196 8.65053 6.39901 8.64994C6.25548 8.64971 6.14842 8.60718 6.08136 8.54053C6.01313 8.4723 5.97901 8.37288 5.97371 8.23171L6.90313 8.23241C6.90313 8.23241 6.9276 8.23218 6.93013 8.2083C6.93113 8.19841 6.96195 8.01771 6.90236 7.80888L6.90171 7.80871ZM3.9723 8.60871C3.93589 8.57965 3.93083 8.57253 3.91877 8.55365C3.90036 8.52524 3.89095 8.48483 3.89095 8.43306C3.89095 8.35188 3.91801 8.29306 3.97389 8.25365C3.9733 8.25377 4.05389 8.18424 4.2433 8.18659C4.32761 8.1881 4.41172 8.19527 4.49507 8.20806V8.62983H4.49518C4.49518 8.62983 4.37754 8.65518 4.2446 8.66318C4.05577 8.67453 3.97224 8.60883 3.97283 8.609L3.9723 8.60871ZM4.34171 7.95577C4.30407 7.953 4.25524 7.95165 4.19701 7.95165C4.1176 7.95165 4.04054 7.96153 3.96877 7.98094C3.89642 8.00047 3.83113 8.03071 3.77524 8.07094C3.71921 8.11092 3.67312 8.16325 3.64054 8.22388C3.60766 8.28506 3.59089 8.35683 3.59089 8.438C3.59089 8.52036 3.60518 8.59153 3.63342 8.64977C3.66109 8.70753 3.70274 8.75747 3.7546 8.79506C3.80618 8.83259 3.86989 8.86035 3.94342 8.87683C4.01636 8.89347 4.09871 8.90188 4.1893 8.90188C4.2846 8.90188 4.3793 8.89388 4.47107 8.87841C4.54922 8.86493 4.62708 8.84979 4.7046 8.833C4.73554 8.82588 4.76989 8.81653 4.76989 8.81653C4.79283 8.81071 4.79107 8.78618 4.79107 8.78618L4.79054 7.93912C4.79054 7.75324 4.74089 7.615 4.64289 7.52971C4.54524 7.44441 4.4023 7.40147 4.21701 7.40147C4.1476 7.40147 4.03524 7.41088 3.96818 7.42436C3.96818 7.42436 3.76583 7.46365 3.6823 7.52906C3.6823 7.52906 3.66395 7.54036 3.67395 7.56594L3.73983 7.74241C3.74801 7.7653 3.7703 7.75747 3.7703 7.75747C3.7703 7.75747 3.7773 7.75471 3.78554 7.74983C3.96377 7.65277 4.18966 7.65571 4.18966 7.65571C4.28966 7.65571 4.3673 7.676 4.41907 7.71571C4.46971 7.75459 4.49554 7.81336 4.49554 7.93688V7.97612C4.41613 7.96459 4.3426 7.95794 4.3426 7.95794L4.34171 7.95577ZM11.8123 7.47753C11.8136 7.47443 11.8143 7.47109 11.8144 7.46771C11.8144 7.46433 11.8137 7.46099 11.8124 7.45787C11.8111 7.45475 11.8092 7.45193 11.8068 7.44957C11.8044 7.4472 11.8015 7.44535 11.7984 7.44412C11.7825 7.43812 11.7037 7.42147 11.6431 7.41771C11.5266 7.41041 11.4619 7.43006 11.4037 7.45618C11.3461 7.48212 11.2825 7.52383 11.2472 7.57206L11.2471 7.45912C11.2471 7.44359 11.2361 7.43106 11.2204 7.43106H10.9828C10.9674 7.43106 10.9562 7.44359 10.9562 7.45912V8.84147C10.9562 8.84894 10.9592 8.8561 10.9645 8.86138C10.9697 8.86666 10.9769 8.86963 10.9844 8.86965H11.2279C11.2354 8.86963 11.2425 8.86666 11.2478 8.86138C11.253 8.85609 11.256 8.84894 11.256 8.84147V8.14735C11.256 8.05441 11.2662 7.96206 11.2867 7.90383C11.3068 7.84624 11.3341 7.8003 11.3678 7.76736C11.4 7.73554 11.4393 7.71193 11.4825 7.69853C11.5231 7.6869 11.5651 7.68099 11.6072 7.681C11.6558 7.681 11.709 7.69347 11.709 7.69347C11.7269 7.69547 11.7368 7.68453 11.7429 7.66841C11.7588 7.626 11.8041 7.499 11.8129 7.47371" fill="#FFFFFE"/>
<path fill-rule="evenodd" clip-rule="evenodd" d="M9.53857 6.83919C9.50847 6.83009 9.47785 6.82282 9.44687 6.81742C9.4052 6.81047 9.36299 6.8072 9.32075 6.80766C9.15293 6.80766 9.02063 6.85507 8.92775 6.94872C8.83551 7.04166 8.77275 7.18325 8.74128 7.36954L8.72993 7.43242H8.51928C8.51928 7.43242 8.49357 7.43137 8.48816 7.45942L8.45357 7.65237C8.45116 7.67084 8.4591 7.68237 8.48381 7.68225H8.68887L8.48081 8.8436C8.46451 8.93713 8.44587 9.01407 8.42522 9.07237C8.40487 9.12989 8.38499 9.17301 8.36051 9.20431C8.33681 9.2346 8.31434 9.25689 8.27557 9.26989C8.24357 9.28066 8.20675 9.2856 8.1664 9.2856C8.14393 9.2856 8.11404 9.28184 8.09198 9.27742C8.06993 9.27307 8.05846 9.26813 8.04193 9.26119C8.04193 9.26119 8.01787 9.25201 8.0084 9.27613C8.00069 9.29584 7.94604 9.44613 7.93957 9.46472C7.93299 9.48307 7.94222 9.49754 7.95387 9.50172C7.98116 9.51148 8.00146 9.51772 8.03863 9.52648C8.09028 9.53866 8.13381 9.53942 8.17457 9.53942C8.25999 9.53942 8.33781 9.52742 8.40234 9.50413C8.46728 9.48066 8.52381 9.43978 8.57381 9.38442C8.62787 9.32472 8.66187 9.26219 8.6944 9.17689C8.72657 9.09237 8.75398 8.98742 8.77593 8.86513L8.98498 7.68225H9.29063C9.29063 7.68225 9.3164 7.68319 9.32175 7.65525L9.35634 7.46231C9.35875 7.44384 9.35087 7.43231 9.32604 7.43242H9.0294C9.03087 7.42572 9.04434 7.32137 9.0784 7.22313C9.09293 7.18119 9.12028 7.14737 9.14346 7.12413C9.16509 7.102 9.19175 7.08541 9.22116 7.07578C9.2534 7.06581 9.28701 7.06097 9.32075 7.06142C9.34869 7.06142 9.3761 7.06478 9.39699 7.06913C9.42575 7.07525 9.43693 7.07848 9.44446 7.08072C9.47469 7.08995 9.47875 7.08101 9.48469 7.06637L9.55563 6.87154C9.56293 6.8506 9.54516 6.84178 9.53857 6.83919ZM5.39304 8.84607C5.39304 8.8616 5.38199 8.87425 5.36646 8.87425H5.1204C5.10481 8.87425 5.09375 8.8616 5.09375 8.84607V6.8656C5.09375 6.85013 5.10481 6.8376 5.1204 6.8376H5.36646C5.38199 6.8376 5.39304 6.85013 5.39304 6.8656V8.84607Z" fill="#FFFFFE"/>
</g>
<defs>
<clipPath id="clip0_237_7136">
<rect width="16" height="16" rx="4" fill="white"/>
</clipPath>
</defs>
</svg>
