<svg width="16" height="16" viewBox="0 0 16 16" fill="none" xmlns="http://www.w3.org/2000/svg">
<mask id="path-1-inside-1_237_7128" fill="white">
<path d="M0 4C0 1.79086 1.79086 0 4 0H12C14.2091 0 16 1.79086 16 4V12C16 14.2091 14.2091 16 12 16H4C1.79086 16 0 14.2091 0 12V4Z"/>
</mask>
<path d="M0 4C0 1.79086 1.79086 0 4 0H12C14.2091 0 16 1.79086 16 4V12C16 14.2091 14.2091 16 12 16H4C1.79086 16 0 14.2091 0 12V4Z" fill="white"/>
<path d="M4 0V1H12V0V-1H4V0ZM16 4H15V12H16H17V4H16ZM12 16V15H4V16V17H12V16ZM0 12H1V4H0H-1V12H0ZM4 16V15C2.34315 15 1 13.6569 1 12H0H-1C-1 14.7614 1.23858 17 4 17V16ZM16 12H15C15 13.6569 13.6569 15 12 15V16V17C14.7614 17 17 14.7614 17 12H16ZM12 0V1C13.6569 1 15 2.34315 15 4H16H17C17 1.23858 14.7614 -1 12 -1V0ZM4 0V-1C1.23858 -1 -1 1.23858 -1 4H0H1C1 2.34315 2.34315 1 4 1V0Z" fill="#0B1228" fill-opacity="0.14" mask="url(#path-1-inside-1_237_7128)"/>
<mask id="mask0_237_7128" style="mask-type:luminance" maskUnits="userSpaceOnUse" x="2" y="4" width="12" height="9">
<path d="M2 4H14V12.3824H2V4Z" fill="white"/>
</mask>
<g mask="url(#mask0_237_7128)">
<path fill-rule="evenodd" clip-rule="evenodd" d="M6.98416 4.91731C7.37152 4.51407 7.91063 4.26436 8.50622 4.26436C9.30034 4.26436 9.98858 4.70554 10.3592 5.36289C10.6881 5.21584 11.0444 5.13992 11.4048 5.1401C12.8342 5.1401 13.9945 6.30922 13.9945 7.75187C13.9945 9.19451 12.8342 10.3636 11.4048 10.3636C11.23 10.3636 11.0598 10.3461 10.893 10.3129C10.5687 10.8908 9.94887 11.2835 9.24299 11.2835C8.9556 11.2841 8.67189 11.2189 8.41358 11.0929C8.0849 11.865 7.31946 12.4076 6.42828 12.4076C5.4974 12.4076 4.70769 11.8208 4.40328 10.9958C4.26779 11.0244 4.12969 11.0388 3.99122 11.0387C2.88387 11.0387 1.98828 10.1299 1.98828 9.01372C1.98828 8.26372 2.39152 7.61078 2.98975 7.25784C2.86284 6.96547 2.79751 6.65009 2.79784 6.33137C2.79784 5.04313 3.84343 4.00195 5.13166 4.00195C5.88608 4.00195 6.56108 4.36151 6.9846 4.9196" fill="#00A1E0"/>
</g>
<path fill-rule="evenodd" clip-rule="evenodd" d="M3.73515 8.35884C3.72761 8.37852 3.73784 8.38262 3.74027 8.38611C3.76281 8.40243 3.78571 8.41425 3.80865 8.42753C3.9313 8.49239 4.04689 8.51136 4.16777 8.51136C4.41394 8.51136 4.56703 8.38033 4.56703 8.16944V8.1653C4.56703 7.9703 4.39409 7.89927 4.23262 7.84853L4.21149 7.84169C4.08928 7.80208 3.98384 7.76758 3.98384 7.68728V7.68318C3.98384 7.61436 4.04561 7.56362 4.1409 7.56362C4.24678 7.56362 4.37296 7.59887 4.45369 7.64347C4.45369 7.64347 4.47761 7.65892 4.4863 7.63584C4.49102 7.62336 4.53218 7.51319 4.53659 7.50084C4.54127 7.48791 4.53306 7.47816 4.52464 7.47314C4.43199 7.41666 4.30405 7.37828 4.17169 7.37828L4.14712 7.37837C3.92168 7.37837 3.76418 7.51469 3.76418 7.70969V7.71389C3.76418 7.91947 3.938 7.98653 4.10036 8.03286L4.12647 8.04097C4.24471 8.07733 4.34706 8.10891 4.34706 8.19186V8.196C4.34706 8.27233 4.28044 8.32924 4.17368 8.32924C4.13217 8.32924 3.99986 8.32853 3.85647 8.23791C3.83914 8.22781 3.82925 8.22053 3.81589 8.21237C3.80883 8.20809 3.79118 8.20037 3.7835 8.22349L3.73515 8.35884ZM7.33939 8.35849C7.33184 8.37816 7.34208 8.38227 7.34459 8.38575C7.36705 8.40208 7.39003 8.4139 7.41297 8.42718C7.53562 8.49203 7.65121 8.511 7.77209 8.511C8.01827 8.511 8.17136 8.37997 8.17136 8.16909V8.16494C8.17136 7.96994 7.99886 7.89891 7.83694 7.84818L7.81581 7.84134C7.69361 7.80172 7.58816 7.76722 7.58816 7.68693V7.68283C7.58816 7.614 7.64993 7.56327 7.74522 7.56327C7.85111 7.56327 7.97684 7.59852 8.05802 7.64312C8.05802 7.64312 8.08193 7.65856 8.09066 7.63549C8.09534 7.623 8.13655 7.51284 8.14052 7.50049C8.14524 7.48756 8.13699 7.47781 8.12861 7.47278C8.03596 7.41631 7.90802 7.37793 7.77566 7.37793L7.75105 7.37802C7.52561 7.37802 7.36811 7.51434 7.36811 7.70934V7.71353C7.36811 7.91912 7.54193 7.98618 7.70428 8.0325L7.73036 8.04062C7.84903 8.07697 7.95094 8.10856 7.95094 8.1915V8.19565C7.95094 8.27197 7.88433 8.32889 7.77756 8.32889C7.73596 8.32889 7.6033 8.32818 7.46036 8.23756C7.44302 8.22746 7.43287 8.22049 7.41972 8.21202C7.41527 8.20919 7.39449 8.20108 7.38739 8.22314L7.33939 8.35849ZM9.80062 7.94519C9.80062 8.06431 9.77838 8.15828 9.73488 8.2249C9.69147 8.29064 9.62592 8.32284 9.53459 8.32284C9.44327 8.32284 9.37797 8.2909 9.33518 8.22534C9.29208 8.15917 9.27033 8.06475 9.27033 7.94564C9.27033 7.82652 9.29221 7.73299 9.33518 7.66725C9.37789 7.60196 9.44283 7.57064 9.53459 7.57064C9.62636 7.57064 9.69165 7.60227 9.73488 7.66725C9.77865 7.73299 9.80062 7.82608 9.80062 7.94519ZM10.0062 7.72461C9.98596 7.65622 9.95459 7.59622 9.91268 7.54593C9.87072 7.49564 9.81783 7.45505 9.75474 7.42593C9.69209 7.39659 9.61797 7.38181 9.53415 7.38181C9.45033 7.38181 9.37665 7.39668 9.31356 7.42593C9.25091 7.45522 9.19753 7.49564 9.15562 7.54593C9.1138 7.59622 9.08238 7.65622 9.06209 7.72461C9.04202 7.79255 9.03183 7.86666 9.03183 7.94564C9.03183 8.02461 9.04202 8.09872 9.06209 8.16666C9.08225 8.23505 9.11371 8.29505 9.15562 8.34534C9.19758 8.39564 9.25091 8.43578 9.31356 8.46446C9.37665 8.49305 9.45077 8.50761 9.53415 8.50761C9.61753 8.50761 9.69165 8.49305 9.7543 8.46446C9.81694 8.43587 9.87033 8.39564 9.91224 8.34534C9.95411 8.29505 9.98547 8.23505 10.0058 8.16666C10.0258 8.09872 10.036 8.02461 10.036 7.94564C10.036 7.86711 10.0262 7.79255 10.0062 7.72461ZM11.6955 8.28931C11.6887 8.26933 11.6692 8.27687 11.6692 8.27687C11.6394 8.2883 11.6075 8.29889 11.5735 8.30418C11.5393 8.30956 11.5011 8.31225 11.461 8.31225C11.3617 8.31225 11.2823 8.28265 11.2258 8.22402C11.1689 8.16534 11.1372 8.07093 11.1376 7.94299C11.1379 7.82652 11.1661 7.73916 11.2166 7.67211C11.2664 7.60593 11.3432 7.57152 11.4447 7.57152C11.5294 7.57152 11.5942 7.58136 11.6622 7.60262C11.6622 7.60262 11.6783 7.60964 11.686 7.58841C11.704 7.53856 11.7174 7.50283 11.7367 7.44812C11.7422 7.43246 11.7288 7.42584 11.7239 7.42394C11.6972 7.41353 11.6343 7.39646 11.5867 7.38927C11.5421 7.38247 11.4905 7.37894 11.4323 7.37894C11.3458 7.37894 11.269 7.39372 11.2033 7.42302C11.1376 7.45227 11.082 7.49272 11.0379 7.54302C10.9937 7.59331 10.9602 7.65331 10.9377 7.72169C10.9154 7.78964 10.9042 7.86419 10.9042 7.94316C10.9042 8.11346 10.9501 8.25155 11.0409 8.35258C11.1318 8.45405 11.2686 8.50522 11.4468 8.50522C11.5523 8.50522 11.6604 8.48392 11.738 8.45317C11.738 8.45317 11.7528 8.44602 11.7464 8.42872L11.6955 8.28931ZM12.0552 7.83049C12.065 7.76431 12.0832 7.70916 12.1117 7.66637C12.1543 7.60108 12.2193 7.56534 12.3106 7.56534C12.402 7.56534 12.4624 7.60125 12.5056 7.66637C12.5343 7.70939 12.5469 7.76652 12.5515 7.83049L12.053 7.8304L12.0552 7.83049ZM12.7479 7.6849C12.7303 7.61916 12.687 7.55255 12.6587 7.52211C12.6137 7.47402 12.5701 7.44005 12.5264 7.42152C12.4633 7.39471 12.3955 7.38094 12.327 7.38106C12.2401 7.38106 12.1611 7.39575 12.0971 7.42562C12.0331 7.45571 11.9793 7.49665 11.937 7.54783C11.8947 7.599 11.8629 7.65944 11.8426 7.72871C11.8223 7.79709 11.812 7.87209 11.812 7.95062C11.812 8.03091 11.8227 8.10547 11.8436 8.17297C11.8647 8.24091 11.8987 8.30047 11.9446 8.34989C11.9905 8.39974 12.0492 8.43856 12.1198 8.46591C12.1899 8.49305 12.275 8.50712 12.3725 8.50681C12.5737 8.50615 12.6796 8.46137 12.7228 8.43711C12.7306 8.43278 12.7378 8.42533 12.7288 8.40384L12.6833 8.27634C12.6763 8.25733 12.6571 8.26421 12.6571 8.26421C12.6073 8.28283 12.5367 8.31627 12.3712 8.31583C12.2631 8.31565 12.1833 8.28375 12.133 8.23377C12.0818 8.18259 12.0562 8.10803 12.0523 8.00215L12.7493 8.00268C12.7493 8.00268 12.7677 8.0025 12.7696 7.98459C12.7703 7.97718 12.7925 7.84152 12.7479 7.6849ZM6.48315 7.83049C6.49299 7.76431 6.51116 7.70916 6.53962 7.66637C6.58233 7.60108 6.64727 7.56534 6.73859 7.56534C6.82991 7.56534 6.89036 7.60125 6.93359 7.66637C6.96222 7.70939 6.97475 7.76652 6.97947 7.83049L6.48094 7.8304L6.48315 7.83049ZM7.1758 7.6849C7.15833 7.61916 7.11491 7.55255 7.08668 7.52211C7.04168 7.47402 6.998 7.44005 6.95433 7.42152C6.89127 7.39471 6.82344 7.38094 6.75491 7.38106C6.668 7.38106 6.58903 7.39575 6.52506 7.42562C6.46109 7.45571 6.40727 7.49665 6.36492 7.54783C6.32269 7.599 6.2908 7.65944 6.2705 7.72871C6.25025 7.79709 6.24006 7.87209 6.24006 7.95062C6.24006 8.03091 6.25061 8.10547 6.27165 8.17297C6.29274 8.24091 6.3268 8.30047 6.37224 8.34989C6.41812 8.39974 6.4768 8.43856 6.54739 8.46591C6.61753 8.49305 6.70224 8.50712 6.80018 8.50681C7.00136 8.50615 7.10724 8.46137 7.15047 8.43711C7.15815 8.43278 7.16547 8.42533 7.15634 8.40384L7.1109 8.27634C7.10389 8.25733 7.08465 8.26421 7.08465 8.26421C7.0348 8.28283 6.96421 8.31627 6.79877 8.31583C6.69112 8.31565 6.61083 8.28375 6.56053 8.23377C6.50936 8.18259 6.48377 8.10803 6.4798 8.00215L7.17686 8.00268C7.17686 8.00268 7.19521 8.0025 7.19711 7.98459C7.19786 7.97718 7.22049 7.84152 7.1758 7.6849ZM4.97874 8.2849C4.95143 8.26311 4.94764 8.25777 4.93859 8.24361C4.92478 8.2223 4.91772 8.19199 4.91772 8.15316C4.91772 8.09228 4.93802 8.04816 4.97993 8.01861C4.97993 8.01861 5.03993 7.96655 5.18199 7.96831C5.24522 7.96944 5.3083 7.97482 5.37081 7.98442V8.30074C5.37081 8.30074 5.28267 8.31975 5.18296 8.32575C5.04134 8.33427 4.97874 8.2849 4.97874 8.2849ZM5.2558 7.79519C5.22756 7.79312 5.19094 7.79211 5.14727 7.79211C5.08771 7.79211 5.02992 7.79952 4.97609 7.81408C4.92183 7.82872 4.87286 7.8514 4.83094 7.88158C4.78892 7.91156 4.75435 7.95081 4.72992 7.99628C4.70525 8.04216 4.69268 8.09599 4.69268 8.15687C4.69268 8.21864 4.7034 8.27202 4.72458 8.31569C4.74533 8.35902 4.77657 8.39647 4.81546 8.42466C4.85415 8.45281 4.90193 8.47364 4.95708 8.48599C5.01178 8.49847 5.07355 8.50478 5.14149 8.50478C5.21296 8.50478 5.28399 8.49878 5.35281 8.48718C5.41143 8.47707 5.46982 8.46571 5.52796 8.45312C5.55116 8.44778 5.57693 8.44077 5.57693 8.44077C5.59414 8.4364 5.59281 8.418 5.59281 8.418L5.59241 7.78271C5.59241 7.6433 5.55518 7.53962 5.48168 7.47565C5.40844 7.41168 5.30124 7.37947 5.16227 7.37947C5.11021 7.37947 5.02594 7.38653 4.97565 7.39664C4.97565 7.39664 4.82389 7.42611 4.76124 7.47516C4.76124 7.47516 4.74747 7.48364 4.75497 7.50283L4.80439 7.63518C4.81052 7.65234 4.82724 7.64647 4.82724 7.64647C4.82724 7.64647 4.83249 7.6444 4.83867 7.64074C4.97234 7.56794 5.14175 7.57015 5.14175 7.57015C5.21675 7.57015 5.27499 7.58537 5.31381 7.61515C5.3518 7.64431 5.37116 7.68839 5.37116 7.78103V7.81046C5.31161 7.80181 5.25646 7.79683 5.25646 7.79683L5.2558 7.79519ZM10.8587 7.43652C10.8597 7.43419 10.8603 7.43169 10.8603 7.42915C10.8603 7.42662 10.8598 7.42411 10.8588 7.42177C10.8578 7.41943 10.8564 7.41731 10.8546 7.41554C10.8528 7.41377 10.8506 7.41238 10.8483 7.41146C10.8364 7.40696 10.7773 7.39447 10.7318 7.39165C10.6445 7.38618 10.5959 7.40091 10.5523 7.4205C10.5091 7.43996 10.4614 7.47124 10.4349 7.50741L10.4348 7.42271C10.4348 7.41106 10.4266 7.40166 10.4148 7.40166H10.2366C10.225 7.40166 10.2166 7.41106 10.2166 7.42271V8.45947C10.2167 8.46507 10.2189 8.47044 10.2229 8.4744C10.2268 8.47836 10.2322 8.48059 10.2378 8.48061H10.4204C10.426 8.48059 10.4314 8.47836 10.4353 8.4744C10.4393 8.47044 10.4415 8.46507 10.4415 8.45947V7.93889C10.4415 7.86918 10.4492 7.79991 10.4645 7.75624C10.4796 7.71305 10.5001 7.67859 10.5254 7.65389C10.5495 7.63002 10.579 7.61232 10.6114 7.60227C10.6418 7.59354 10.6733 7.58911 10.7049 7.58912C10.7413 7.58912 10.7813 7.59847 10.7813 7.59847C10.7947 7.59997 10.8021 7.59177 10.8067 7.57968C10.8186 7.54787 10.8526 7.45262 10.8592 7.43365" fill="#FFFFFE"/>
<path fill-rule="evenodd" clip-rule="evenodd" d="M9.15393 6.95825C9.13135 6.95143 9.10839 6.94598 9.08515 6.94193C9.0539 6.93671 9.02225 6.93426 8.99056 6.9346C8.86469 6.9346 8.76547 6.97016 8.69581 7.0404C8.62664 7.1101 8.57956 7.21629 8.55596 7.35601L8.54744 7.40318H8.38946C8.38946 7.40318 8.37018 7.40238 8.36612 7.42343L8.34018 7.56813C8.33837 7.58198 8.34433 7.59063 8.36286 7.59054H8.51665L8.36061 8.46156C8.34839 8.5317 8.3344 8.58941 8.31892 8.63313C8.30365 8.67628 8.28874 8.70862 8.27039 8.73209C8.25261 8.75481 8.23575 8.77153 8.20668 8.78128C8.18268 8.78935 8.15506 8.79306 8.1248 8.79306C8.10794 8.79306 8.08553 8.79023 8.06899 8.78693C8.05244 8.78366 8.04384 8.77995 8.03144 8.77475C8.03144 8.77475 8.0134 8.76787 8.0063 8.78595C8.00052 8.80073 7.95953 8.91345 7.95468 8.9274C7.94974 8.94116 7.95667 8.95201 7.9654 8.95515C7.98587 8.96247 8.00109 8.96715 8.02897 8.97372C8.06771 8.98285 8.10036 8.98343 8.13093 8.98343C8.19499 8.98343 8.25336 8.97443 8.30175 8.95695C8.35046 8.93935 8.39286 8.90869 8.43036 8.86718C8.4709 8.8224 8.4964 8.7755 8.5208 8.71153C8.54493 8.64813 8.56549 8.56943 8.58194 8.4777L8.73874 7.59054H8.96797C8.96797 7.59054 8.9873 7.59125 8.99131 7.57029L9.01725 7.42559C9.01906 7.41173 9.01315 7.40309 8.99453 7.40318H8.77205C8.77315 7.39815 8.78325 7.31988 8.8088 7.2462C8.8197 7.21475 8.84021 7.18938 8.85759 7.17195C8.87382 7.15536 8.89381 7.14292 8.91587 7.13569C8.94005 7.12821 8.96526 7.12458 8.99056 7.12493C9.01152 7.12493 9.03208 7.12744 9.04774 7.1307C9.06931 7.13529 9.07769 7.13772 9.08334 7.1394C9.10602 7.14632 9.10906 7.13962 9.11352 7.12863L9.16672 6.98251C9.17219 6.96681 9.15887 6.96019 9.15393 6.95825ZM6.04478 8.46341C6.04478 8.47506 6.03649 8.48454 6.02484 8.48454H5.8403C5.82861 8.48454 5.82031 8.47506 5.82031 8.46341V6.97806C5.82031 6.96646 5.82861 6.95706 5.8403 6.95706H6.02484C6.03649 6.95706 6.04478 6.96646 6.04478 6.97806V8.46341Z" fill="#FFFFFE"/>
</svg>
