<svg width="20" height="20" viewBox="0 0 20 20" fill="none" xmlns="http://www.w3.org/2000/svg">
<mask id="path-1-inside-1_237_7120" fill="white">
<path d="M0 5C0 2.23858 2.23858 0 5 0H15C17.7614 0 20 2.23858 20 5V15C20 17.7614 17.7614 20 15 20H5C2.23858 20 0 17.7614 0 15V5Z"/>
</mask>
<path d="M0 5C0 2.23858 2.23858 0 5 0H15C17.7614 0 20 2.23858 20 5V15C20 17.7614 17.7614 20 15 20H5C2.23858 20 0 17.7614 0 15V5Z" fill="white"/>
<path d="M5 0V1H15V0V-1H5V0ZM20 5H19V15H20H21V5H20ZM15 20V19H5V20V21H15V20ZM0 15H1V5H0H-1V15H0ZM5 20V19C2.79086 19 1 17.2091 1 15H0H-1C-1 18.3137 1.68629 21 5 21V20ZM20 15H19C19 17.2091 17.2091 19 15 19V20V21C18.3137 21 21 18.3137 21 15H20ZM15 0V1C17.2091 1 19 2.79086 19 5H20H21C21 1.68629 18.3137 -1 15 -1V0ZM5 0V-1C1.68629 -1 -1 1.68629 -1 5H0H1C1 2.79086 2.79086 1 5 1V0Z" fill="#0B1228" fill-opacity="0.14" mask="url(#path-1-inside-1_237_7120)"/>
<mask id="mask0_237_7120" style="mask-type:luminance" maskUnits="userSpaceOnUse" x="4" y="6" width="12" height="9">
<path d="M4 6H16V14.3824H4V6Z" fill="white"/>
</mask>
<g mask="url(#mask0_237_7120)">
<path fill-rule="evenodd" clip-rule="evenodd" d="M8.98221 6.91731C9.36956 6.51407 9.90868 6.26436 10.5043 6.26436C11.2984 6.26436 11.9866 6.70554 12.3572 7.36289C12.6862 7.21584 13.0425 7.13992 13.4028 7.1401C14.8322 7.1401 15.9925 8.30922 15.9925 9.75187C15.9925 11.1945 14.8322 12.3636 13.4028 12.3636C13.2281 12.3636 13.0578 12.3461 12.891 12.3129C12.5668 12.8908 11.9469 13.2835 11.241 13.2835C10.9536 13.2841 10.6699 13.2189 10.4116 13.0929C10.0829 13.865 9.3175 14.4076 8.42633 14.4076C7.49545 14.4076 6.70574 13.8208 6.40133 12.9958C6.26584 13.0244 6.12774 13.0388 5.98927 13.0387C4.88192 13.0387 3.98633 12.1299 3.98633 11.0137C3.98633 10.2637 4.38956 9.61078 4.9878 9.25784C4.86088 8.96547 4.79555 8.65009 4.79589 8.33137C4.79589 7.04313 5.84148 6.00195 7.12971 6.00195C7.88412 6.00195 8.55912 6.36151 8.98265 6.9196" fill="#00A1E0"/>
</g>
<path fill-rule="evenodd" clip-rule="evenodd" d="M5.73515 10.3588C5.72761 10.3785 5.73784 10.3826 5.74027 10.3861C5.76281 10.4024 5.78571 10.4143 5.80865 10.4275C5.9313 10.4924 6.04689 10.5114 6.16777 10.5114C6.41394 10.5114 6.56703 10.3803 6.56703 10.1694V10.1653C6.56703 9.9703 6.39409 9.89927 6.23262 9.84853L6.21149 9.84169C6.08928 9.80208 5.98384 9.76758 5.98384 9.68728V9.68318C5.98384 9.61436 6.04561 9.56362 6.1409 9.56362C6.24678 9.56362 6.37296 9.59887 6.45369 9.64347C6.45369 9.64347 6.47761 9.65892 6.4863 9.63584C6.49102 9.62336 6.53218 9.51319 6.53659 9.50084C6.54127 9.48791 6.53306 9.47816 6.52464 9.47314C6.43199 9.41666 6.30405 9.37828 6.17169 9.37828L6.14712 9.37837C5.92168 9.37837 5.76418 9.51469 5.76418 9.70969V9.71389C5.76418 9.91947 5.938 9.98653 6.10036 10.0329L6.12647 10.041C6.24471 10.0773 6.34706 10.1089 6.34706 10.1919V10.196C6.34706 10.2723 6.28044 10.3292 6.17368 10.3292C6.13217 10.3292 5.99986 10.3285 5.85647 10.2379C5.83914 10.2278 5.82925 10.2205 5.81589 10.2124C5.80883 10.2081 5.79118 10.2004 5.7835 10.2235L5.73497 10.3585M9.33939 10.3585C9.33184 10.3782 9.34208 10.3823 9.34459 10.3858C9.36705 10.4021 9.39003 10.4139 9.41297 10.4272C9.53562 10.492 9.65121 10.511 9.77209 10.511C10.0183 10.511 10.1714 10.38 10.1714 10.1691V10.1649C10.1714 9.96994 9.99886 9.89891 9.83694 9.84818L9.81581 9.84134C9.69361 9.80172 9.58817 9.76722 9.58817 9.68693V9.68283C9.58817 9.614 9.64993 9.56327 9.74522 9.56327C9.85111 9.56327 9.97684 9.59852 10.058 9.64312C10.058 9.64312 10.0819 9.65856 10.0907 9.63549C10.0953 9.623 10.1365 9.51284 10.1405 9.50049C10.1452 9.48756 10.137 9.47781 10.1286 9.47278C10.036 9.41631 9.90802 9.37793 9.77567 9.37793L9.75105 9.37802C9.52561 9.37802 9.36811 9.51434 9.36811 9.70934V9.71353C9.36811 9.91912 9.54193 9.98618 9.70428 10.0325L9.73036 10.0406C9.84903 10.077 9.95094 10.1086 9.95094 10.1915V10.1957C9.95094 10.272 9.88433 10.3289 9.77756 10.3289C9.73596 10.3289 9.6033 10.3282 9.46036 10.2376C9.44302 10.2275 9.43287 10.2205 9.41972 10.212C9.41527 10.2092 9.39449 10.2011 9.38739 10.2231L9.33886 10.3581M11.8006 9.94519C11.8006 10.0643 11.7784 10.1583 11.7349 10.2249C11.6915 10.2906 11.6259 10.3228 11.5346 10.3228C11.4433 10.3228 11.378 10.2909 11.3352 10.2253C11.2921 10.1592 11.2703 10.0648 11.2703 9.94564C11.2703 9.82652 11.2922 9.73299 11.3352 9.66725C11.3779 9.60196 11.4428 9.57064 11.5346 9.57064C11.6264 9.57064 11.6917 9.60227 11.7349 9.66725C11.7787 9.73299 11.8006 9.82652 11.8006 9.94564M12.0062 9.72461C11.986 9.65622 11.9546 9.59622 11.9127 9.54593C11.8707 9.49564 11.8178 9.45505 11.7547 9.42593C11.6921 9.39659 11.618 9.38181 11.5342 9.38181C11.4503 9.38181 11.3767 9.39668 11.3136 9.42593C11.2509 9.45522 11.1975 9.49564 11.1556 9.54593C11.1138 9.59622 11.0824 9.65622 11.0621 9.72461C11.042 9.79255 11.0318 9.86666 11.0318 9.94564C11.0318 10.0246 11.042 10.0987 11.0621 10.1667C11.0823 10.235 11.1137 10.295 11.1556 10.3453C11.1976 10.3956 11.2509 10.4358 11.3136 10.4645C11.3767 10.493 11.4508 10.5076 11.5342 10.5076C11.6175 10.5076 11.6917 10.493 11.7543 10.4645C11.8169 10.4359 11.8703 10.3956 11.9122 10.3453C11.9541 10.295 11.9855 10.235 12.0058 10.1667C12.0258 10.0987 12.036 10.0246 12.036 9.94564C12.036 9.86711 12.0258 9.79255 12.0058 9.72461M13.6955 10.2893C13.6887 10.2693 13.6692 10.2769 13.6692 10.2769C13.6394 10.2883 13.6075 10.2989 13.5735 10.3042C13.5393 10.3096 13.5011 10.3123 13.461 10.3123C13.3617 10.3123 13.2823 10.2827 13.2258 10.224C13.1689 10.1653 13.1372 10.0709 13.1376 9.94299C13.1379 9.82652 13.1661 9.73916 13.2166 9.67211C13.2664 9.60593 13.3432 9.57152 13.4447 9.57152C13.5294 9.57152 13.5942 9.58136 13.6622 9.60262C13.6622 9.60262 13.6783 9.60964 13.686 9.58841C13.704 9.53856 13.7174 9.50283 13.7367 9.44812C13.7422 9.43246 13.7288 9.42584 13.7239 9.42394C13.6972 9.41353 13.6343 9.39646 13.5867 9.38927C13.5421 9.38247 13.4905 9.37894 13.4323 9.37894C13.3458 9.37894 13.269 9.39372 13.2033 9.42302C13.1376 9.45227 13.082 9.49272 13.0379 9.54302C12.9937 9.59331 12.9602 9.65331 12.9377 9.72169C12.9154 9.78964 12.9042 9.86419 12.9042 9.94316C12.9042 10.1135 12.9501 10.2515 13.0409 10.3526C13.1318 10.454 13.2686 10.5052 13.4468 10.5052C13.5523 10.5052 13.6604 10.4839 13.738 10.4532C13.738 10.4532 13.7528 10.446 13.7464 10.4287L13.6957 10.2893M14.0552 9.83049C14.065 9.76431 14.0832 9.70916 14.1117 9.66637C14.1543 9.60108 14.2193 9.56534 14.3107 9.56534C14.402 9.56534 14.4624 9.60125 14.5057 9.66637C14.5343 9.70939 14.5469 9.76652 14.5515 9.83049L14.053 9.8304L14.0552 9.83049ZM14.7479 9.6849C14.7303 9.61917 14.687 9.55255 14.6587 9.52211C14.6137 9.47402 14.5701 9.44005 14.5264 9.42152C14.4633 9.39471 14.3955 9.38094 14.327 9.38106C14.2401 9.38106 14.1611 9.39575 14.0971 9.42562C14.0332 9.45571 13.9793 9.49665 13.937 9.54783C13.8947 9.599 13.8629 9.65944 13.8426 9.72871C13.8223 9.79709 13.812 9.87209 13.812 9.95062C13.812 10.0309 13.8227 10.1055 13.8436 10.173C13.8647 10.2409 13.8987 10.3005 13.9446 10.3499C13.9905 10.3997 14.0492 10.4386 14.1198 10.4659C14.1899 10.493 14.275 10.5071 14.3725 10.5068C14.5737 10.5062 14.6796 10.4614 14.7228 10.4371C14.7306 10.4328 14.7378 10.4253 14.7288 10.4038L14.6833 10.2763C14.6763 10.2573 14.6571 10.2642 14.6571 10.2642C14.6073 10.2828 14.5367 10.3163 14.3712 10.3158C14.2631 10.3157 14.1833 10.2838 14.133 10.2338C14.0818 10.1826 14.0562 10.108 14.0523 10.0022L14.7493 10.0027C14.7493 10.0027 14.7677 10.0025 14.7696 9.98459C14.7703 9.97718 14.7934 9.84165 14.7488 9.68503L14.7479 9.6849ZM8.48315 9.83049C8.49299 9.76431 8.51117 9.70916 8.53962 9.66637C8.58233 9.60108 8.64727 9.56534 8.73859 9.56534C8.82991 9.56534 8.89036 9.60125 8.93359 9.66637C8.96222 9.70939 8.97475 9.76652 8.97947 9.83049L8.48094 9.8304L8.48315 9.83049ZM9.1758 9.6849C9.15833 9.61917 9.11491 9.55255 9.08668 9.52211C9.04168 9.47402 8.998 9.44005 8.95433 9.42152C8.89127 9.39471 8.82344 9.38094 8.75491 9.38106C8.668 9.38106 8.58903 9.39575 8.52506 9.42562C8.46109 9.45571 8.40727 9.49665 8.36492 9.54783C8.32269 9.599 8.2908 9.65944 8.2705 9.72871C8.25025 9.79709 8.24006 9.87209 8.24006 9.95062C8.24006 10.0309 8.25061 10.1055 8.27165 10.173C8.29274 10.2409 8.3268 10.3005 8.37224 10.3499C8.41812 10.3997 8.4768 10.4386 8.54739 10.4659C8.61753 10.493 8.70224 10.5071 8.80018 10.5068C9.00136 10.5062 9.10724 10.4614 9.15047 10.4371C9.15815 10.4328 9.16547 10.4253 9.15634 10.4038L9.1109 10.2763C9.10389 10.2573 9.08465 10.2642 9.08465 10.2642C9.0348 10.2828 8.96421 10.3163 8.79877 10.3158C8.69112 10.3157 8.61083 10.2838 8.56053 10.2338C8.50936 10.1826 8.48377 10.108 8.4798 10.0022L9.17686 10.0027C9.17686 10.0027 9.19521 10.0025 9.19711 9.98459C9.19786 9.97718 9.22097 9.84165 9.17628 9.68503L9.1758 9.6849ZM6.97874 10.2849C6.95143 10.2631 6.94764 10.2578 6.93859 10.2436C6.92478 10.2223 6.91772 10.192 6.91772 10.1532C6.91772 10.0923 6.93802 10.0482 6.97993 10.0186C6.97949 10.0187 7.03993 9.96655 7.18199 9.96831C7.24522 9.96944 7.3083 9.97482 7.37081 9.98442V10.3007H7.3709C7.3709 10.3007 7.28267 10.3198 7.18296 10.3258C7.04134 10.3343 6.97869 10.285 6.97914 10.2851L6.97874 10.2849ZM7.2558 9.79519C7.22756 9.79312 7.19094 9.79211 7.14727 9.79211C7.08771 9.79211 7.02992 9.79952 6.97609 9.81408C6.92183 9.82872 6.87286 9.8514 6.83094 9.88158C6.78892 9.91156 6.75435 9.95081 6.72992 9.99628C6.70525 10.0422 6.69268 10.096 6.69268 10.1569C6.69268 10.2186 6.7034 10.272 6.72458 10.3157C6.74533 10.359 6.77657 10.3965 6.81546 10.4247C6.85415 10.4528 6.90193 10.4736 6.95708 10.486C7.01178 10.4985 7.07355 10.5048 7.14149 10.5048C7.21296 10.5048 7.28399 10.4988 7.35281 10.4872C7.41143 10.4771 7.46983 10.4657 7.52796 10.4531C7.55117 10.4478 7.57693 10.4408 7.57693 10.4408C7.59414 10.4364 7.59281 10.418 7.59281 10.418L7.59242 9.78271C7.59242 9.6433 7.55518 9.53962 7.48168 9.47565C7.40844 9.41168 7.30124 9.37947 7.16227 9.37947C7.11021 9.37947 7.02594 9.38653 6.97565 9.39664C6.97565 9.39664 6.82389 9.42611 6.76124 9.47516C6.76124 9.47516 6.74747 9.48364 6.75497 9.50283L6.80439 9.63518C6.81052 9.65234 6.82724 9.64647 6.82724 9.64647C6.82724 9.64647 6.83249 9.6444 6.83867 9.64074C6.97234 9.56794 7.14175 9.57015 7.14175 9.57015C7.21675 9.57015 7.27499 9.58537 7.31381 9.61515C7.3518 9.64431 7.37117 9.68839 7.37117 9.78103V9.81046C7.31161 9.80181 7.25646 9.79683 7.25646 9.79683L7.2558 9.79519ZM12.8587 9.43652C12.8597 9.43419 12.8603 9.43169 12.8603 9.42915C12.8603 9.42662 12.8598 9.42411 12.8588 9.42177C12.8579 9.41943 12.8564 9.41731 12.8546 9.41554C12.8528 9.41377 12.8506 9.41238 12.8483 9.41146C12.8364 9.40696 12.7773 9.39447 12.7318 9.39165C12.6445 9.38618 12.5959 9.40091 12.5523 9.4205C12.5091 9.43996 12.4614 9.47124 12.4349 9.50741L12.4348 9.42271C12.4348 9.41106 12.4266 9.40166 12.4148 9.40166H12.2366C12.225 9.40166 12.2167 9.41106 12.2167 9.42271V10.4595C12.2167 10.4651 12.2189 10.4704 12.2229 10.4744C12.2268 10.4784 12.2322 10.4806 12.2378 10.4806H12.4204C12.426 10.4806 12.4314 10.4784 12.4353 10.4744C12.4393 10.4704 12.4415 10.4651 12.4415 10.4595V9.93889C12.4415 9.86918 12.4492 9.79991 12.4645 9.75624C12.4796 9.71305 12.5001 9.67859 12.5254 9.65389C12.5495 9.63002 12.579 9.61232 12.6114 9.60227C12.6418 9.59354 12.6733 9.58911 12.7049 9.58912C12.7413 9.58912 12.7813 9.59847 12.7813 9.59847C12.7947 9.59997 12.8021 9.59177 12.8067 9.57968C12.8186 9.54787 12.8526 9.45262 12.8592 9.43365" fill="#FFFFFE"/>
<path fill-rule="evenodd" clip-rule="evenodd" d="M11.1539 8.95825C11.1314 8.95143 11.1084 8.94598 11.0852 8.94193C11.0539 8.93671 11.0222 8.93426 10.9906 8.9346C10.8647 8.9346 10.7655 8.97016 10.6958 9.0404C10.6266 9.1101 10.5796 9.21629 10.556 9.35601L10.5474 9.40318H10.3895C10.3895 9.40318 10.3702 9.40238 10.3661 9.42343L10.3402 9.56813C10.3384 9.58198 10.3443 9.59063 10.3629 9.59054H10.5167L10.3606 10.4616C10.3484 10.5317 10.3344 10.5894 10.3189 10.6331C10.3037 10.6763 10.2887 10.7086 10.2704 10.7321C10.2526 10.7548 10.2358 10.7715 10.2067 10.7813C10.1827 10.7894 10.1551 10.7931 10.1248 10.7931C10.1079 10.7931 10.0855 10.7902 10.069 10.7869C10.0524 10.7837 10.0438 10.78 10.0314 10.7747C10.0314 10.7747 10.0134 10.7679 10.0063 10.786C10.0005 10.8007 9.95953 10.9135 9.95468 10.9274C9.94974 10.9412 9.95667 10.952 9.9654 10.9551C9.98587 10.9625 10.0011 10.9671 10.029 10.9737C10.0677 10.9829 10.1004 10.9834 10.1309 10.9834C10.195 10.9834 10.2534 10.9744 10.3018 10.957C10.3505 10.9394 10.3929 10.9087 10.4304 10.8672C10.4709 10.8224 10.4964 10.7755 10.5208 10.7115C10.5449 10.6481 10.5655 10.5694 10.5819 10.4777L10.7387 9.59054H10.968C10.968 9.59054 10.9873 9.59125 10.9913 9.57029L11.0173 9.42559C11.0191 9.41173 11.0132 9.40309 10.9945 9.40318H10.772C10.7732 9.39815 10.7833 9.31988 10.8088 9.2462C10.8197 9.21475 10.8402 9.18938 10.8576 9.17195C10.8738 9.15536 10.8938 9.14292 10.9159 9.13569C10.9401 9.12821 10.9653 9.12458 10.9906 9.12493C11.0115 9.12493 11.0321 9.12744 11.0477 9.1307C11.0693 9.13529 11.0777 9.13772 11.0833 9.1394C11.106 9.14632 11.1091 9.13962 11.1135 9.12863L11.1667 8.98251C11.1722 8.96681 11.1589 8.96019 11.1539 8.95825ZM8.04478 10.4634C8.04478 10.4751 8.03649 10.4845 8.02484 10.4845H7.8403C7.82861 10.4845 7.82031 10.4751 7.82031 10.4634V8.97806C7.82031 8.96646 7.82861 8.95706 7.8403 8.95706H8.02484C8.03649 8.95706 8.04478 8.96646 8.04478 8.97806V10.4634Z" fill="#FFFFFE"/>
</svg>
