<svg width="24" height="24" viewBox="0 0 24 24" fill="none" xmlns="http://www.w3.org/2000/svg">
<mask id="path-1-inside-1_237_7112" fill="white">
<path d="M0 6.39569C0 2.86345 2.86345 0 6.39569 0H17.6043C21.1366 0 24 2.86345 24 6.39569V17.6043C24 21.1366 21.1366 24 17.6043 24H6.39569C2.86345 24 0 21.1366 0 17.6043V6.39569Z"/>
</mask>
<path d="M0 6.39569C0 2.86345 2.86345 0 6.39569 0H17.6043C21.1366 0 24 2.86345 24 6.39569V17.6043C24 21.1366 21.1366 24 17.6043 24H6.39569C2.86345 24 0 21.1366 0 17.6043V6.39569Z" fill="white"/>
<path d="M6.39569 0V1H17.6043V0V-1H6.39569V0ZM24 6.39569H23V17.6043H24H25V6.39569H24ZM17.6043 24V23H6.39569V24V25H17.6043V24ZM0 17.6043H1V6.39569H0H-1V17.6043H0ZM6.39569 24V23C3.41573 23 1 20.5843 1 17.6043H0H-1C-1 21.6888 2.31116 25 6.39569 25V24ZM24 17.6043H23C23 20.5843 20.5843 23 17.6043 23V24V25C21.6888 25 25 21.6888 25 17.6043H24ZM17.6043 0V1C20.5843 1 23 3.41573 23 6.39569H24H25C25 2.31116 21.6888 -1 17.6043 -1V0ZM6.39569 0V-1C2.31116 -1 -1 2.31116 -1 6.39569H0H1C1 3.41573 3.41573 1 6.39569 1V0Z" fill="#0B1228" fill-opacity="0.14" mask="url(#path-1-inside-1_237_7112)"/>
<mask id="mask0_237_7112" style="mask-type:luminance" maskUnits="userSpaceOnUse" x="5" y="7" width="14" height="10">
<path d="M5 7H19V16.7794H5V7Z" fill="white"/>
</mask>
<g mask="url(#mask0_237_7112)">
<path fill-rule="evenodd" clip-rule="evenodd" d="M10.811 8.07084C11.2629 7.6004 11.8918 7.30908 12.5867 7.30908C13.5132 7.30908 14.3161 7.82378 14.7485 8.59069C15.1322 8.41913 15.5479 8.33056 15.9683 8.33077C17.636 8.33077 18.9896 9.69474 18.9896 11.3778C18.9896 13.0609 17.636 14.4249 15.9683 14.4249C15.7645 14.4249 15.5658 14.4044 15.3712 14.3657C14.9929 15.04 14.2698 15.498 13.4462 15.498C13.111 15.4987 12.78 15.4227 12.4786 15.2757C12.0951 16.1764 11.2021 16.8095 10.1624 16.8095C9.07639 16.8095 8.15507 16.125 7.79992 15.1625C7.64185 15.1958 7.48074 15.2126 7.31919 15.2125C6.02727 15.2125 4.98242 14.1522 4.98242 12.85C4.98242 11.975 5.45286 11.2132 6.1508 10.8015C6.00274 10.4604 5.92652 10.0924 5.92691 9.72058C5.92691 8.21764 7.14676 7.00293 8.6497 7.00293C9.52985 7.00293 10.3173 7.42241 10.8115 8.07352" fill="#00A1E0"/>
</g>
<path fill-rule="evenodd" clip-rule="evenodd" d="M7.02467 12.0858C7.01587 12.1088 7.02781 12.1135 7.03064 12.1176C7.05694 12.1367 7.08365 12.1505 7.11042 12.1659C7.25351 12.2416 7.38836 12.2637 7.52939 12.2637C7.81659 12.2637 7.9952 12.1109 7.9952 11.8648V11.86C7.9952 11.6325 7.79343 11.5496 7.60505 11.4904L7.5804 11.4825C7.43782 11.4362 7.31481 11.396 7.31481 11.3023V11.2975C7.31481 11.2172 7.38687 11.158 7.49804 11.158C7.62157 11.158 7.76878 11.1992 7.86297 11.2512C7.86297 11.2512 7.89087 11.2692 7.90101 11.2423C7.90651 11.2277 7.95454 11.0992 7.95968 11.0848C7.96514 11.0697 7.95556 11.0583 7.94573 11.0525C7.83765 10.9866 7.68838 10.9418 7.53397 10.9418L7.5053 10.9419C7.24229 10.9419 7.05854 11.101 7.05854 11.3285V11.3334C7.05854 11.5732 7.26133 11.6514 7.45074 11.7055L7.48121 11.715C7.61915 11.7574 7.73856 11.7942 7.73856 11.891V11.8958C7.73856 11.9849 7.66084 12.0513 7.53629 12.0513C7.48785 12.0513 7.33349 12.0504 7.16621 11.9447C7.14598 11.9329 7.13445 11.9244 7.11886 11.9149C7.11062 11.9099 7.09004 11.9009 7.08108 11.9279L7.02446 12.0854M11.2296 12.0854C11.2208 12.1083 11.2327 12.1131 11.2357 12.1172C11.2619 12.1362 11.2887 12.15 11.3155 12.1655C11.4585 12.2412 11.5934 12.2633 11.7344 12.2633C12.0216 12.2633 12.2002 12.1105 12.2002 11.8644V11.8596C12.2002 11.6321 11.999 11.5492 11.8101 11.49L11.7854 11.4821C11.6429 11.4358 11.5199 11.3956 11.5199 11.3019V11.2971C11.5199 11.2168 11.5919 11.1576 11.7031 11.1576C11.8266 11.1576 11.9733 11.1988 12.068 11.2508C12.068 11.2508 12.0959 11.2688 12.1061 11.2419C12.1116 11.2273 12.1596 11.0988 12.1643 11.0844C12.1698 11.0693 12.1601 11.0579 12.1504 11.0521C12.0423 10.9862 11.893 10.9414 11.7386 10.9414L11.7099 10.9415C11.4469 10.9415 11.2631 11.1006 11.2631 11.3281V11.3329C11.2631 11.5728 11.4659 11.651 11.6553 11.7051L11.6857 11.7145C11.8242 11.757 11.9431 11.7938 11.9431 11.8906V11.8954C11.9431 11.9845 11.8654 12.0509 11.7408 12.0509C11.6923 12.0509 11.5375 12.05 11.3707 11.9443C11.3505 11.9325 11.3387 11.9244 11.3233 11.9145C11.3181 11.9112 11.2939 11.9017 11.2856 11.9275L11.229 12.085M14.1011 11.6032C14.1011 11.7422 14.0751 11.8518 14.0244 11.9295C13.9737 12.0062 13.8972 12.0438 13.7907 12.0438C13.6841 12.0438 13.608 12.0065 13.558 11.9301C13.5077 11.8528 13.4824 11.7427 13.4824 11.6037C13.4824 11.4648 13.5079 11.3556 13.558 11.279C13.6079 11.2028 13.6836 11.1662 13.7907 11.1662C13.8977 11.1662 13.9739 11.2031 14.0244 11.279C14.0754 11.3556 14.1011 11.4648 14.1011 11.6037M14.3409 11.3459C14.3173 11.2661 14.2807 11.1961 14.2318 11.1374C14.1828 11.0787 14.1211 11.0314 14.0475 10.9974C13.9744 10.9632 13.888 10.9459 13.7902 10.9459C13.6924 10.9459 13.6064 10.9633 13.5328 10.9974C13.4597 11.0316 13.3974 11.0787 13.3486 11.1374C13.2998 11.1961 13.2631 11.2661 13.2394 11.3459C13.216 11.4251 13.2041 11.5116 13.2041 11.6037C13.2041 11.6959 13.216 11.7823 13.2394 11.8616C13.263 11.9414 13.2997 12.0114 13.3486 12.0701C13.3975 12.1287 13.4597 12.1756 13.5328 12.209C13.6064 12.2424 13.6929 12.2594 13.7902 12.2594C13.8874 12.2594 13.9739 12.2424 14.047 12.209C14.1201 12.1757 14.1824 12.1287 14.2313 12.0701C14.2801 12.0114 14.3167 11.9414 14.3404 11.8616C14.3638 11.7823 14.3756 11.6959 14.3756 11.6037C14.3756 11.5121 14.3638 11.4251 14.3404 11.3459M16.3117 12.0047C16.3038 11.9814 16.2811 11.9902 16.2811 11.9902C16.2462 12.0035 16.209 12.0159 16.1694 12.022C16.1295 12.0283 16.085 12.0315 16.0381 12.0315C15.9223 12.0315 15.8297 11.9969 15.7638 11.9285C15.6974 11.8601 15.6604 11.7499 15.6609 11.6006C15.6612 11.4648 15.6941 11.3628 15.753 11.2846C15.8112 11.2074 15.9007 11.1673 16.0191 11.1673C16.1179 11.1673 16.1936 11.1787 16.2729 11.2035C16.2729 11.2035 16.2916 11.2117 16.3006 11.187C16.3217 11.1288 16.3372 11.0871 16.3598 11.0233C16.3662 11.005 16.3506 10.9973 16.3449 10.9951C16.3138 10.9829 16.2404 10.963 16.1848 10.9546C16.1328 10.9467 16.0726 10.9426 16.0046 10.9426C15.9038 10.9426 15.8142 10.9598 15.7375 10.994C15.6608 11.0281 15.596 11.0753 15.5445 11.134C15.493 11.1927 15.4539 11.2627 15.4277 11.3425C15.4017 11.4217 15.3885 11.5087 15.3885 11.6008C15.3885 11.7995 15.4421 11.9606 15.5481 12.0785C15.6541 12.1969 15.8137 12.2566 16.0216 12.2566C16.1446 12.2566 16.2707 12.2317 16.3613 12.1958C16.3613 12.1958 16.3786 12.1875 16.3711 12.1673L16.3119 12.0047M16.7314 11.4694C16.7429 11.3922 16.764 11.3278 16.7973 11.2779C16.8471 11.2017 16.9229 11.1601 17.0294 11.1601C17.136 11.1601 17.2065 11.202 17.2569 11.2779C17.2904 11.3281 17.305 11.3948 17.3104 11.4694L16.7288 11.4693L16.7314 11.4694ZM17.5395 11.2995C17.5191 11.2228 17.4685 11.1451 17.4355 11.1096C17.383 11.0535 17.3321 11.0139 17.2811 10.9923C17.2075 10.961 17.1284 10.9449 17.0485 10.9451C16.9471 10.9451 16.8549 10.9622 16.7803 10.997C16.7057 11.0321 16.6429 11.0799 16.5935 11.1396C16.5441 11.1993 16.507 11.2698 16.4833 11.3506C16.4596 11.4304 16.4477 11.5179 16.4477 11.6095C16.4477 11.7032 16.4601 11.7902 16.4845 11.869C16.5092 11.9482 16.5488 12.0177 16.6024 12.0754C16.6559 12.1335 16.7244 12.1788 16.8067 12.2107C16.8885 12.2424 16.9879 12.2588 17.1016 12.2584C17.3363 12.2577 17.4599 12.2054 17.5103 12.1771C17.5193 12.1721 17.5278 12.1634 17.5172 12.1383L17.4642 11.9896C17.4561 11.9674 17.4336 11.9754 17.4336 11.9754C17.3755 11.9971 17.2931 12.0361 17.1001 12.0356C16.974 12.0354 16.8808 11.9982 16.8221 11.9399C16.7624 11.8802 16.7326 11.7932 16.728 11.6697L17.5412 11.6703C17.5412 11.6703 17.5626 11.6701 17.5648 11.6492C17.5657 11.6405 17.5927 11.4824 17.5406 11.2997L17.5395 11.2995ZM10.2307 11.4694C10.2421 11.3922 10.2634 11.3278 10.2966 11.2779C10.3464 11.2017 10.4221 11.1601 10.5287 11.1601C10.6352 11.1601 10.7057 11.202 10.7562 11.2779C10.7896 11.3281 10.8042 11.3948 10.8097 11.4694L10.2281 11.4693L10.2307 11.4694ZM11.0388 11.2995C11.0184 11.2228 10.9677 11.1451 10.9348 11.1096C10.8823 11.0535 10.8313 11.0139 10.7804 10.9923C10.7068 10.961 10.6277 10.9449 10.5477 10.9451C10.4463 10.9451 10.3542 10.9622 10.2796 10.997C10.2049 11.0321 10.1421 11.0799 10.0927 11.1396C10.0435 11.1993 10.0063 11.2698 9.98258 11.3506C9.95895 11.4304 9.94706 11.5179 9.94706 11.6095C9.94706 11.7032 9.95937 11.7902 9.98392 11.869C10.0085 11.9482 10.0483 12.0177 10.1013 12.0754C10.1548 12.1335 10.2233 12.1788 10.3056 12.2107C10.3874 12.2424 10.4863 12.2588 10.6005 12.2584C10.8352 12.2577 10.9588 12.2054 11.0092 12.1771C11.0182 12.1721 11.0267 12.1634 11.0161 12.1383L10.963 11.9896C10.9549 11.9674 10.9324 11.9754 10.9324 11.9754C10.8743 11.9971 10.7919 12.0361 10.5989 12.0356C10.4733 12.0354 10.3796 11.9982 10.3209 11.9399C10.2612 11.8802 10.2314 11.7932 10.2268 11.6697L11.04 11.6703C11.04 11.6703 11.0614 11.6701 11.0636 11.6492C11.0645 11.6405 11.0915 11.4824 11.0393 11.2997L11.0388 11.2995ZM8.47552 11.9995C8.44366 11.9741 8.43923 11.9679 8.42868 11.9514C8.41257 11.9265 8.40434 11.8911 8.40434 11.8458C8.40434 11.7748 8.42801 11.7233 8.47691 11.6889C8.4764 11.689 8.54691 11.6281 8.71265 11.6302C8.78641 11.6315 8.86001 11.6378 8.93294 11.649V12.018H8.93304C8.93304 12.018 8.8301 12.0402 8.71378 12.0472C8.54856 12.0571 8.47547 11.9996 8.47598 11.9998L8.47552 11.9995ZM8.79876 11.4282C8.76581 11.4258 8.72309 11.4246 8.67214 11.4246C8.60265 11.4246 8.53523 11.4333 8.47243 11.4502C8.40912 11.4673 8.35199 11.4938 8.30309 11.529C8.25406 11.564 8.21373 11.6098 8.18523 11.6628C8.15645 11.7163 8.14179 11.7791 8.14179 11.8502C8.14179 11.9222 8.15429 11.9845 8.179 12.0355C8.20321 12.086 8.23965 12.1297 8.28503 12.1626C8.33017 12.1954 8.38591 12.2197 8.45025 12.2341C8.51407 12.2487 8.58613 12.2561 8.6654 12.2561C8.74878 12.2561 8.83165 12.2491 8.91194 12.2355C8.98033 12.2237 9.04845 12.2105 9.11628 12.1958C9.14335 12.1896 9.17341 12.1814 9.17341 12.1814C9.19348 12.1763 9.19194 12.1548 9.19194 12.1548L9.19148 11.4136C9.19148 11.251 9.14804 11.13 9.06229 11.0554C8.97684 10.9808 8.85177 10.9432 8.68964 10.9432C8.6289 10.9432 8.53059 10.9514 8.47192 10.9632C8.47192 10.9632 8.29486 10.9976 8.22177 11.0548C8.22177 11.0548 8.20571 11.0647 8.21446 11.0871L8.27211 11.2415C8.27926 11.2616 8.29877 11.2547 8.29877 11.2547C8.29877 11.2547 8.3049 11.2523 8.3121 11.248C8.46806 11.1631 8.6657 11.1657 8.6657 11.1657C8.7532 11.1657 8.82115 11.1834 8.86644 11.2182C8.91076 11.2522 8.93335 11.3036 8.93335 11.4117V11.446C8.86387 11.4359 8.79953 11.4301 8.79953 11.4301L8.79876 11.4282ZM15.3355 11.0098C15.3367 11.007 15.3373 11.0041 15.3373 11.0012C15.3373 10.9982 15.3368 10.9953 15.3356 10.9926C15.3345 10.9898 15.3328 10.9874 15.3307 10.9853C15.3286 10.9832 15.3261 10.9816 15.3233 10.9805C15.3095 10.9753 15.2405 10.9607 15.1874 10.9574C15.0855 10.951 15.0289 10.9682 14.978 10.9911C14.9276 11.0138 14.8719 11.0503 14.841 11.0925L14.8409 10.9936C14.8409 10.9801 14.8313 10.9691 14.8176 10.9691H14.6097C14.5962 10.9691 14.5864 10.9801 14.5864 10.9936V12.2032C14.5864 12.2097 14.589 12.216 14.5937 12.2206C14.5983 12.2252 14.6045 12.2278 14.6111 12.2279H14.8242C14.8307 12.2278 14.8369 12.2252 14.8416 12.2206C14.8462 12.216 14.8488 12.2097 14.8488 12.2032V11.5959C14.8488 11.5145 14.8577 11.4337 14.8756 11.3828C14.8932 11.3324 14.9171 11.2922 14.9466 11.2634C14.9747 11.2355 15.0092 11.2149 15.047 11.2031C15.0825 11.193 15.1192 11.1878 15.1561 11.1878C15.1986 11.1878 15.2451 11.1987 15.2451 11.1987C15.2608 11.2005 15.2695 11.1909 15.2748 11.1768C15.2887 11.1397 15.3283 11.0285 15.336 11.0064" fill="#FFFFFE"/>
<path fill-rule="evenodd" clip-rule="evenodd" d="M13.3463 10.4515C13.3199 10.4435 13.2931 10.4371 13.266 10.4324C13.2295 10.4263 13.1926 10.4235 13.1557 10.4239C13.0088 10.4239 12.8931 10.4654 12.8118 10.5473C12.7311 10.6286 12.6762 10.7525 12.6486 10.9155L12.6387 10.9705H12.4544C12.4544 10.9705 12.4319 10.9696 12.4271 10.9942L12.3969 11.163C12.3948 11.1791 12.4017 11.1892 12.4233 11.1891H12.6028L12.4207 12.2053C12.4065 12.2872 12.3901 12.3545 12.3721 12.4055C12.3543 12.4558 12.3369 12.4935 12.3155 12.5209C12.2947 12.5474 12.275 12.5669 12.2411 12.5783C12.2131 12.5877 12.1809 12.5921 12.1456 12.5921C12.1259 12.5921 12.0998 12.5888 12.0805 12.5849C12.0612 12.5811 12.0511 12.5768 12.0367 12.5707C12.0367 12.5707 12.0156 12.5627 12.0073 12.5838C12.0006 12.601 11.9528 12.7325 11.9471 12.7488C11.9414 12.7649 11.9494 12.7775 11.9596 12.7812C11.9835 12.7897 12.0013 12.7952 12.0338 12.8028C12.079 12.8135 12.1171 12.8142 12.1528 12.8142C12.2275 12.8142 12.2956 12.8037 12.352 12.7833C12.4089 12.7627 12.4583 12.727 12.5021 12.6785C12.5494 12.6263 12.5791 12.5716 12.6076 12.4969C12.6358 12.423 12.6597 12.3312 12.6789 12.2242L12.8619 11.1891H13.1293C13.1293 11.1891 13.1518 11.19 13.1565 11.1655L13.1868 10.9967C13.1889 10.9805 13.182 10.9704 13.1603 10.9705H12.9007C12.902 10.9647 12.9138 10.8734 12.9436 10.7874C12.9563 10.7507 12.9802 10.7211 13.0005 10.7008C13.0195 10.6814 13.0428 10.6669 13.0685 10.6585C13.0967 10.6497 13.1261 10.6455 13.1557 10.6459C13.1801 10.6459 13.2041 10.6488 13.2224 10.6527C13.2475 10.658 13.2573 10.6608 13.2639 10.6628C13.2904 10.6709 13.2939 10.663 13.2991 10.6502L13.3612 10.4798C13.3676 10.4614 13.352 10.4537 13.3463 10.4515ZM9.71891 12.2075C9.71891 12.2211 9.70924 12.2321 9.69565 12.2321H9.48035C9.46671 12.2321 9.45703 12.2211 9.45703 12.2075V10.4746C9.45703 10.461 9.46671 10.4501 9.48035 10.4501H9.69565C9.70924 10.4501 9.71891 10.461 9.71891 10.4746V12.2075Z" fill="#FFFFFE"/>
</svg>
