<svg width="32" height="32" viewBox="0 0 32 32" fill="none" xmlns="http://www.w3.org/2000/svg">
<mask id="path-1-inside-1_237_7104" fill="white">
<path d="M0 8C0 3.58172 3.58172 0 8 0H24C28.4183 0 32 3.58172 32 8V24C32 28.4183 28.4183 32 24 32H8C3.58172 32 0 28.4183 0 24V8Z"/>
</mask>
<path d="M0 8C0 3.58172 3.58172 0 8 0H24C28.4183 0 32 3.58172 32 8V24C32 28.4183 28.4183 32 24 32H8C3.58172 32 0 28.4183 0 24V8Z" fill="white"/>
<path d="M8 0V1H24V0V-1H8V0ZM32 8H31V24H32H33V8H32ZM24 32V31H8V32V33H24V32ZM0 24H1V8H0H-1V24H0ZM8 32V31C4.13401 31 1 27.866 1 24H0H-1C-1 28.9706 3.02944 33 8 33V32ZM32 24H31C31 27.866 27.866 31 24 31V32V33C28.9706 33 33 28.9706 33 24H32ZM24 0V1C27.866 1 31 4.13401 31 8H32H33C33 3.02944 28.9706 -1 24 -1V0ZM8 0V-1C3.02944 -1 -1 3.02944 -1 8H0H1C1 4.13401 4.13401 1 8 1V0Z" fill="#0B1228" fill-opacity="0.14" mask="url(#path-1-inside-1_237_7104)"/>
<mask id="mask0_237_7104" style="mask-type:luminance" maskUnits="userSpaceOnUse" x="4" y="7" width="25" height="18">
<path d="M4 7.61719H28.0019V24.3832H4V7.61719Z" fill="white"/>
</mask>
<g mask="url(#mask0_237_7104)">
<path fill-rule="evenodd" clip-rule="evenodd" d="M13.9672 9.45292C14.7419 8.64639 15.8203 8.14694 17.0115 8.14694C18.5999 8.14694 19.9765 9.02936 20.7177 10.3442C21.3757 10.05 22.0883 9.89818 22.8091 9.89855C25.6681 9.89855 27.9889 12.237 27.9889 15.1225C27.9889 18.008 25.6681 20.3464 22.8091 20.3464C22.4596 20.3464 22.119 20.3113 21.7855 20.245C21.1369 21.4009 19.8971 22.1863 18.4852 22.1863C17.9104 22.1874 17.3429 22.057 16.8262 21.8051C16.1688 23.3493 14.6378 24.4347 12.8553 24.4347C10.9934 24.4347 9.41387 23.2611 8.805 21.611C8.534 21.6681 8.25778 21.6969 7.98081 21.6967C5.76593 21.6967 3.97461 19.8789 3.97461 17.6464C3.97461 16.1463 4.78114 14.8403 5.97771 14.1344C5.72386 13.5496 5.59319 12.9188 5.59386 12.2813C5.59386 9.70459 7.6852 7.62207 10.2619 7.62207C11.7708 7.62207 13.1209 8.34125 13.9681 9.45751" fill="#00A1E0"/>
</g>
<path fill-rule="evenodd" clip-rule="evenodd" d="M7.47225 16.336C7.45716 16.3754 7.47764 16.3836 7.48249 16.3905C7.52758 16.4232 7.57338 16.4468 7.61927 16.4734C7.86458 16.6031 8.09578 16.6411 8.33756 16.6411C8.82995 16.6411 9.13615 16.379 9.13615 15.9572V15.9489C9.13615 15.5589 8.79024 15.4168 8.46728 15.3153L8.42501 15.3016C8.18058 15.2224 7.96968 15.1534 7.96968 14.9928V14.9846C7.96968 14.8469 8.09322 14.7454 8.28382 14.7454C8.4956 14.7454 8.74797 14.8159 8.90946 14.9052C8.90946 14.9052 8.95729 14.936 8.97467 14.8899C8.98411 14.8649 9.06644 14.6446 9.07527 14.6199C9.08462 14.594 9.06821 14.5745 9.05135 14.5645C8.86604 14.4515 8.61014 14.3747 8.34541 14.3747L8.29626 14.3749C7.84534 14.3749 7.53032 14.6476 7.53032 15.0376V15.046C7.53032 15.4572 7.87799 15.5913 8.20272 15.684L8.25496 15.7002C8.49145 15.7729 8.69618 15.8361 8.69618 16.002V16.0103C8.69618 16.163 8.56293 16.2768 8.34938 16.2768C8.26635 16.2768 8.00171 16.2754 7.71492 16.0941C7.68024 16.0739 7.66048 16.0594 7.63374 16.043C7.61962 16.0345 7.58432 16.019 7.56897 16.0653L7.4719 16.3353M14.6813 16.3353C14.6662 16.3747 14.6867 16.3829 14.6917 16.3898C14.7366 16.4225 14.7826 16.4461 14.8285 16.4727C15.0738 16.6024 15.305 16.6404 15.5468 16.6404C16.0392 16.6404 16.3454 16.3783 16.3454 15.9565V15.9482C16.3454 15.5581 16.0003 15.4161 15.6765 15.3146L15.6342 15.3009C15.3898 15.2217 15.1789 15.1527 15.1789 14.9921V14.9839C15.1789 14.8462 15.3024 14.7447 15.493 14.7447C15.7048 14.7447 15.9563 14.8152 16.1187 14.9044C16.1187 14.9044 16.1665 14.9353 16.184 14.8892C16.1933 14.8642 16.2758 14.6439 16.2837 14.6192C16.2931 14.5933 16.2766 14.5738 16.2599 14.5637C16.0746 14.4508 15.8187 14.374 15.5539 14.374L15.5047 14.3742C15.0538 14.3742 14.7387 14.6469 14.7387 15.0369V15.0453C14.7387 15.4565 15.0864 15.5906 15.4112 15.6833L15.4633 15.6995C15.7007 15.7722 15.9045 15.8354 15.9045 16.0013V16.0096C15.9045 16.1623 15.7713 16.2761 15.5577 16.2761C15.4745 16.2761 15.2092 16.2747 14.9233 16.0934C14.8886 16.0732 14.8683 16.0593 14.842 16.0423C14.8331 16.0367 14.7915 16.0204 14.7773 16.0646L14.6802 16.3346M19.6042 15.5086C19.6042 15.7469 19.5597 15.9349 19.4727 16.0681C19.3859 16.1996 19.2547 16.264 19.0721 16.264C18.8894 16.264 18.7588 16.2001 18.6732 16.069C18.587 15.9366 18.5435 15.7478 18.5435 15.5095C18.5435 15.2713 18.5873 15.0842 18.6732 14.9527C18.7586 14.8221 18.8885 14.7595 19.0721 14.7595C19.2556 14.7595 19.3862 14.8227 19.4727 14.9527C19.5602 15.0842 19.6042 15.2713 19.6042 15.5095M20.0154 15.0674C19.9749 14.9307 19.9121 14.8106 19.8283 14.7101C19.7444 14.6095 19.6386 14.5283 19.5124 14.47C19.3871 14.4113 19.2388 14.3818 19.0712 14.3818C18.9035 14.3818 18.7562 14.4115 18.63 14.47C18.5047 14.5286 18.3979 14.6095 18.3141 14.7101C18.2304 14.8106 18.1676 14.9307 18.127 15.0674C18.0868 15.2033 18.0665 15.3516 18.0665 15.5095C18.0665 15.6675 18.0868 15.8157 18.127 15.9516C18.1673 16.0884 18.2302 16.2084 18.3141 16.309C18.398 16.4096 18.5047 16.4899 18.63 16.5473C18.7562 16.6044 18.9044 16.6336 19.0712 16.6336C19.238 16.6336 19.3862 16.6044 19.5115 16.5473C19.6368 16.4901 19.7436 16.4096 19.8274 16.309C19.9112 16.2084 19.9739 16.0884 20.0145 15.9516C20.0546 15.8157 20.0749 15.6675 20.0749 15.5095C20.0749 15.3525 20.0546 15.2033 20.0145 15.0674M23.3942 16.1969C23.3807 16.157 23.3417 16.172 23.3417 16.172C23.2819 16.1949 23.2181 16.2161 23.1502 16.2267C23.0817 16.2374 23.0055 16.2428 22.9252 16.2428C22.7266 16.2428 22.5678 16.1836 22.4548 16.0663C22.341 15.949 22.2775 15.7601 22.2784 15.5042C22.279 15.2713 22.3353 15.0966 22.4363 14.9624C22.536 14.8301 22.6896 14.7612 22.8925 14.7612C23.0619 14.7612 23.1917 14.7809 23.3276 14.8234C23.3276 14.8234 23.3598 14.8375 23.3752 14.795C23.4113 14.6953 23.4379 14.6238 23.4767 14.5144C23.4876 14.4831 23.4608 14.4699 23.451 14.4661C23.3977 14.4452 23.2719 14.4111 23.1766 14.3967C23.0874 14.3831 22.9842 14.3761 22.8677 14.3761C22.6948 14.3761 22.5412 14.4056 22.4097 14.4642C22.2783 14.5227 22.1671 14.6036 22.0788 14.7042C21.9906 14.8048 21.9235 14.9248 21.8785 15.0616C21.834 15.1975 21.8115 15.3466 21.8115 15.5046C21.8115 15.8452 21.9032 16.1214 22.085 16.3235C22.2668 16.5264 22.5403 16.6288 22.8968 16.6288C23.1077 16.6288 23.3239 16.5862 23.4792 16.5247C23.4792 16.5247 23.5089 16.5104 23.496 16.4758L23.3945 16.1969M24.1137 15.2792C24.1334 15.1468 24.1697 15.0365 24.2267 14.951C24.312 14.8204 24.442 14.7489 24.6246 14.7489C24.8073 14.7489 24.9282 14.8207 25.0147 14.951C25.072 15.037 25.0971 15.1513 25.1064 15.2792L24.1093 15.279L24.1137 15.2792ZM25.4991 14.988C25.4641 14.8565 25.3773 14.7233 25.3209 14.6624C25.2309 14.5662 25.1435 14.4983 25.0561 14.4612C24.93 14.4076 24.7943 14.3801 24.6573 14.3803C24.4834 14.3803 24.3255 14.4097 24.1975 14.4694C24.0696 14.5296 23.9619 14.6115 23.8772 14.7138C23.7926 14.8162 23.729 14.9371 23.6884 15.0756C23.6478 15.2124 23.6273 15.3624 23.6273 15.5195C23.6273 15.6801 23.6486 15.8292 23.6904 15.9642C23.7327 16.1001 23.8007 16.2193 23.8925 16.3181C23.9843 16.4178 24.1016 16.4955 24.2428 16.5502C24.3831 16.6044 24.5534 16.6326 24.7484 16.632C25.1508 16.6306 25.3626 16.5411 25.4491 16.4925C25.4645 16.4839 25.4791 16.469 25.4609 16.426L25.37 16.171C25.3561 16.133 25.3176 16.1467 25.3176 16.1467C25.2179 16.184 25.0767 16.2508 24.7458 16.25C24.5296 16.2496 24.3699 16.1858 24.2693 16.0858C24.1669 15.9835 24.1157 15.8343 24.1078 15.6226L25.502 15.6236C25.502 15.6236 25.5387 15.6233 25.5425 15.5874C25.544 15.5726 25.5903 15.3015 25.501 14.9883L25.4991 14.988ZM12.9687 15.2792C12.9884 15.1468 13.0247 15.0365 13.0816 14.951C13.1671 14.8204 13.297 14.7489 13.4796 14.7489C13.6623 14.7489 13.7832 14.8207 13.8696 14.951C13.9269 15.037 13.952 15.1513 13.9614 15.2792L12.9643 15.279L12.9687 15.2792ZM14.3541 14.988C14.3192 14.8565 14.2323 14.7233 14.1759 14.6624C14.0858 14.5662 13.9985 14.4983 13.9111 14.4612C13.785 14.4076 13.6493 14.3801 13.5123 14.3803C13.3384 14.3803 13.1805 14.4097 13.0525 14.4694C12.9246 14.5296 12.8169 14.6115 12.7322 14.7138C12.6478 14.8162 12.584 14.9371 12.5434 15.0756C12.5029 15.2124 12.4825 15.3624 12.4825 15.5195C12.4825 15.6801 12.5036 15.8292 12.5457 15.9642C12.5878 16.1001 12.656 16.2193 12.7469 16.3181C12.8386 16.4178 12.956 16.4955 13.0972 16.5502C13.2375 16.6044 13.4069 16.6326 13.6028 16.632C14.0052 16.6306 14.217 16.5411 14.3034 16.4925C14.3188 16.4839 14.3335 16.469 14.3152 16.426L14.2243 16.171C14.2103 16.133 14.1718 16.1467 14.1718 16.1467C14.0721 16.184 13.9309 16.2508 13.6 16.25C13.3847 16.2496 13.2241 16.1858 13.1235 16.0858C13.0211 15.9835 12.9699 15.8343 12.962 15.6226L14.3562 15.6236C14.3562 15.6236 14.3929 15.6233 14.3967 15.5874C14.3982 15.5726 14.4445 15.3015 14.3551 14.9883L14.3541 14.988ZM9.95963 16.1881C9.90501 16.1445 9.89742 16.1338 9.87933 16.1055C9.85171 16.0629 9.83759 16.0023 9.83759 15.9246C9.83759 15.8028 9.87818 15.7146 9.96201 15.6555C9.96113 15.6557 10.082 15.5514 10.3662 15.5549C10.4926 15.5571 10.6188 15.5679 10.7438 15.5871V16.2198H10.744C10.744 16.2198 10.5675 16.2578 10.3681 16.2698C10.0848 16.2869 9.95954 16.1883 9.96042 16.1886L9.95963 16.1881ZM10.5138 15.2086C10.4573 15.2045 10.3841 15.2024 10.2967 15.2024C10.1776 15.2024 10.062 15.2173 9.95434 15.2464C9.8458 15.2757 9.74785 15.321 9.66402 15.3814C9.57996 15.4414 9.51082 15.5199 9.46194 15.6108C9.41262 15.7026 9.38747 15.8103 9.38747 15.932C9.38747 16.0556 9.40891 16.1623 9.45127 16.2497C9.49277 16.3364 9.55525 16.4113 9.63305 16.4677C9.71043 16.524 9.806 16.5656 9.9163 16.5903C10.0257 16.6153 10.1493 16.6279 10.2852 16.6279C10.4281 16.6279 10.5702 16.6159 10.7078 16.5927C10.8251 16.5725 10.9419 16.5498 11.0582 16.5246C11.1046 16.5139 11.1561 16.4999 11.1561 16.4999C11.1905 16.4911 11.1879 16.4543 11.1879 16.4543L11.1871 15.1836C11.1871 14.9048 11.1126 14.6974 10.9656 14.5695C10.8191 14.4415 10.6047 14.3771 10.3267 14.3771C10.2226 14.3771 10.054 14.3912 9.95345 14.4114C9.95345 14.4114 9.6499 14.4704 9.5246 14.5685C9.5246 14.5685 9.49706 14.5855 9.51206 14.6238L9.6109 14.8886C9.62316 14.9229 9.65661 14.9112 9.65661 14.9112C9.65661 14.9112 9.66711 14.907 9.67946 14.8997C9.94684 14.7541 10.2857 14.7585 10.2857 14.7585C10.4357 14.7585 10.5522 14.7889 10.6298 14.8485C10.7058 14.9068 10.7445 14.995 10.7445 15.1803V15.2392C10.6254 15.2219 10.5151 15.2119 10.5151 15.2119L10.5138 15.2086ZM21.7206 14.4912C21.7226 14.4866 21.7236 14.4815 21.7237 14.4765C21.7237 14.4714 21.7227 14.4664 21.7207 14.4617C21.7188 14.457 21.7159 14.4528 21.7123 14.4493C21.7087 14.4457 21.7044 14.4429 21.6997 14.4411C21.6759 14.4321 21.5576 14.4071 21.4667 14.4015C21.292 14.3905 21.1949 14.42 21.1076 14.4592C21.0213 14.4981 20.9258 14.5607 20.8728 14.633L20.8727 14.4636C20.8727 14.4403 20.8562 14.4215 20.8327 14.4215H20.4762C20.4531 14.4215 20.4363 14.4403 20.4363 14.4636V16.5373C20.4363 16.5485 20.4408 16.5592 20.4487 16.5671C20.4566 16.5751 20.4674 16.5795 20.4786 16.5796H20.8439C20.8551 16.5795 20.8658 16.5751 20.8737 16.5671C20.8816 16.5592 20.8861 16.5485 20.8861 16.5373V15.496C20.8861 15.3566 20.9014 15.2181 20.932 15.1307C20.9622 15.0443 21.0033 14.9754 21.0538 14.926C21.1021 14.8783 21.1611 14.8428 21.2259 14.8227C21.2867 14.8053 21.3497 14.7964 21.413 14.7964C21.4858 14.7964 21.5656 14.8151 21.5656 14.8151C21.5924 14.8181 21.6074 14.8017 21.6164 14.7776C21.6404 14.7139 21.7082 14.5234 21.7215 14.4855" fill="#FFFFFE"/>
<path fill-rule="evenodd" clip-rule="evenodd" d="M18.3084 13.5337C18.2632 13.52 18.2173 13.5091 18.1708 13.501C18.1083 13.4906 18.045 13.4857 17.9816 13.4864C17.7299 13.4864 17.5314 13.5575 17.3921 13.698C17.2537 13.8374 17.1596 14.0498 17.1124 14.3293L17.0953 14.4236H16.7793C16.7793 14.4236 16.7408 14.422 16.7327 14.4641L16.6808 14.7536C16.6771 14.7813 16.6891 14.7986 16.7261 14.7984H17.0337L16.7216 16.5405C16.6972 16.6809 16.6692 16.7963 16.6382 16.8837C16.6077 16.97 16.5779 17.0347 16.5412 17.0816C16.5056 17.1271 16.4719 17.1605 16.4137 17.18C16.3657 17.1962 16.3105 17.2036 16.25 17.2036C16.2163 17.2036 16.1714 17.198 16.1383 17.1913C16.1052 17.1848 16.088 17.1774 16.0632 17.167C16.0632 17.167 16.0272 17.1532 16.0129 17.1894C16.0014 17.219 15.9194 17.4444 15.9097 17.4723C15.8998 17.4998 15.9137 17.5215 15.9311 17.5278C15.9721 17.5425 16.0025 17.5518 16.0583 17.565C16.1358 17.5832 16.2011 17.5844 16.2622 17.5844C16.3904 17.5844 16.5071 17.5664 16.6039 17.5314C16.7013 17.4962 16.7861 17.4349 16.8611 17.3518C16.9422 17.2623 16.9932 17.1685 17.042 17.0405C17.0903 16.9137 17.1314 16.7563 17.1643 16.5728L17.4779 14.7984H17.9365C17.9365 14.7984 17.9751 14.7998 17.9831 14.7579L18.035 14.4684C18.0386 14.4407 18.0268 14.4234 17.9896 14.4236H17.5446C17.5468 14.4136 17.567 14.257 17.6181 14.1096C17.6399 14.0467 17.6809 13.996 17.7157 13.9611C17.7481 13.9279 17.7881 13.9031 17.8322 13.8886C17.8806 13.8736 17.931 13.8664 17.9816 13.8671C18.0235 13.8671 18.0647 13.8721 18.096 13.8786C18.1391 13.8878 18.1559 13.8927 18.1672 13.896C18.2126 13.9099 18.2187 13.8965 18.2276 13.8745L18.334 13.5822C18.3449 13.5508 18.3183 13.5376 18.3084 13.5337ZM12.0896 16.5443C12.0896 16.5676 12.073 16.5865 12.0497 16.5865H11.6806C11.6572 16.5865 11.6406 16.5676 11.6406 16.5443V13.5733C11.6406 13.5501 11.6572 13.5313 11.6806 13.5313H12.0497C12.073 13.5313 12.0896 13.5501 12.0896 13.5733V16.5443Z" fill="#FFFFFE"/>
</svg>
