<svg width="96" height="96" viewBox="0 0 96 96" fill="none" xmlns="http://www.w3.org/2000/svg">
<path d="M82.4013 11H17.5312V40.63H34.3912V34.66H65.5612V40.63H82.4113V11H82.4013Z" fill="#BF63F3"/>
<path d="M34.3813 45.67V85.32H65.5513V40.63H34.3813V45.67Z" fill="#FCA700"/>
<path d="M65.5513 34.66H34.3813V40.63H65.5513V34.66Z" fill="#101214"/>
<path d="M60.8213 45.65H39.1113V50.39H60.8213V45.65Z" fill="white"/>
<path d="M60.8213 57.62H39.1113V62.36H60.8213V57.62Z" fill="white"/>
<path d="M60.8213 69.6H39.1113V74.34H60.8213V69.6Z" fill="white"/>
<path d="M37.0913 22.72H22.0913V27.94H37.0913V22.72Z" fill="white"/>
<path d="M58.2614 22.72H41.6514V27.94H58.2614V22.72Z" fill="white"/>
<path d="M77.8311 22.72H62.8311V27.94H77.8311V22.72Z" fill="white"/>
<path d="M13.0214 50.0905C12.8614 50.4205 13.6414 51.2205 14.0014 51.0205C14.4914 50.7405 14.9314 50.3805 15.4014 49.8305C15.8814 49.1705 15.8114 48.8705 16.1714 48.4505C16.4514 48.0805 16.8814 47.6305 17.2714 47.2205L17.4114 47.0705C17.4714 47.0105 17.4514 47.0605 17.4714 47.0405C17.5014 47.0405 17.5214 47.0405 17.5314 47.0605C17.5614 47.0805 17.5814 47.1205 17.5914 47.1405C17.5914 47.1505 17.5914 47.1605 17.5914 47.1505C17.5914 47.1505 17.5914 47.1305 17.5914 47.1105C17.5914 47.0505 17.6114 47.0105 17.6614 47.0305C17.6714 47.0305 17.6914 47.0505 17.7014 47.0605H17.7114L17.7814 47.1605L17.9214 47.3505C18.1114 47.6005 18.3014 47.8705 18.4814 48.1405C19.1014 48.9705 19.4814 49.4905 19.6914 49.7605C20.1714 50.3905 20.6114 50.8005 21.1314 51.1405C21.4114 51.3305 22.1914 50.7505 22.1014 50.4205C21.9214 49.8305 21.6614 49.2805 21.2014 48.6405C21.0214 48.3905 20.8514 47.7205 20.3514 46.9605C20.2714 46.8405 20.1714 46.7305 20.0414 46.6405C19.8114 46.4605 19.5814 46.2505 19.3714 46.0405C19.2914 45.9705 19.0914 45.7305 18.9414 45.5405C18.7914 45.3505 18.6414 45.1605 18.4914 44.9905C17.9414 44.3005 17.5214 43.6805 17.4114 43.5605C17.3214 43.7105 17.3114 43.7305 17.3114 43.7305C17.3114 43.7305 17.1714 43.9705 16.9614 44.3505C16.7414 44.7405 16.4414 45.2705 16.0814 45.8005C16.0114 45.9105 15.9414 46.0205 15.8614 46.1305L15.7014 46.3605C15.5914 46.5105 15.4814 46.6705 15.3714 46.8105C15.1514 47.1005 14.9514 47.3705 14.7914 47.5705C14.3314 48.1705 14.0914 48.4505 13.9514 48.6305C13.5214 49.1605 13.2414 49.6105 13.0214 50.0805V50.0905Z" fill="#101214"/>
<path d="M18.0115 47.4406C17.9415 46.8906 17.5915 46.5306 17.2915 46.6306C17.1415 46.6706 16.9915 46.7706 16.8815 46.8606C16.7615 46.9806 16.6815 47.2006 16.6615 47.4706C16.5315 49.0606 16.4615 50.7406 16.4715 52.8906C16.5415 55.3306 16.7715 55.9406 16.7515 57.6006C16.7615 60.4006 16.4615 65.1206 16.3815 66.2606C16.3715 66.4306 16.3715 66.6006 16.3815 66.7706C16.4015 67.3706 16.4415 69.0006 16.4915 71.0406C16.5215 72.1006 16.6115 73.3906 17.0015 74.5906C17.3715 75.8006 17.9515 76.9806 18.6615 78.0106C19.7015 79.4406 20.8415 80.3506 21.7915 80.9606C22.0315 81.1106 22.2615 81.2406 22.4715 81.3706C22.6915 81.4806 22.9015 81.5806 23.0915 81.6706C23.4615 81.8606 23.8015 81.9706 24.0715 82.0706C25.3415 82.5106 26.5315 82.6906 27.6115 82.6406C28.6515 82.6106 29.5215 82.5106 30.4415 82.4106C31.4315 82.2906 31.4315 81.3206 30.4415 81.2106C29.5515 81.1006 28.6115 81.0406 27.6615 80.9506C26.7415 80.8906 25.7715 80.6706 24.7115 80.3006C23.9015 80.0006 22.2515 79.0506 20.7215 77.0706L19.9915 76.1006C18.8915 74.7006 18.3515 72.6506 18.4015 70.9806C18.3815 69.2206 18.4015 67.9506 18.4015 67.9506C18.4015 67.9506 18.4015 60.3706 18.3915 57.1606C18.3715 54.7506 18.3715 53.5906 18.3615 52.8706C18.3415 50.7106 18.2315 49.0306 18.0315 47.4306L18.0115 47.4406Z" fill="#101214"/>
<path d="M74.9612 75.4606C75.1212 75.0906 74.2412 74.4006 73.9312 74.5906C73.4812 74.8606 73.0712 75.1806 72.5912 75.6606C72.0912 76.2406 72.1112 76.5406 71.7112 76.8906C71.3912 77.1906 70.9012 77.5406 70.4412 77.8106L70.2712 77.9106C70.1812 77.9706 70.0912 78.0306 70.0012 78.0906C69.8012 78.2206 69.6112 78.3506 69.4412 78.4606C69.0512 78.6906 68.7412 78.8806 68.5612 78.9806C68.4512 79.0406 68.3512 79.1106 68.2712 79.1806C68.1812 79.2506 68.0512 79.3406 67.4712 79.7806C67.8312 79.9606 68.6612 80.4006 69.6012 80.9206C69.9812 81.1306 70.4012 81.3706 70.8212 81.6106C71.1012 81.7706 71.3712 81.9406 71.6412 82.1206C72.5412 82.6506 73.0912 82.9706 73.3812 83.1406C74.0712 83.5406 74.6312 83.7406 75.2412 83.8506C75.5712 83.9106 76.0712 83.0806 75.8512 82.8106C75.4612 82.3306 75.0112 81.9306 74.3312 81.5206C74.0712 81.3606 73.6512 80.8106 72.8912 80.3106C72.7712 80.2306 72.6312 80.1706 72.4812 80.1306C72.2012 80.0606 71.9112 79.9506 71.6312 79.8406C71.4512 79.7606 71.4612 79.7806 71.4112 79.7706C71.3712 79.7706 71.3312 79.7506 71.2912 79.7306C71.1412 79.6706 71.0312 79.6006 71.0612 79.5906C71.0912 79.5706 71.0912 79.5706 71.0912 79.5706C71.0912 79.5706 71.2312 79.4706 71.3812 79.3506C71.6412 79.1206 71.9212 78.8806 72.1812 78.6506C72.4612 78.3906 72.7212 78.1506 72.9212 77.9706C73.4912 77.4206 73.7612 77.1406 73.9212 76.9706C74.4112 76.4506 74.7312 75.9806 74.9512 75.4706L74.9612 75.4606Z" fill="#101214"/>
<path d="M83.2012 45.3706C83.1612 44.7906 82.8712 44.5906 82.5712 44.4906C82.4212 44.4506 82.2612 44.4906 82.1212 44.6806C81.9912 44.8406 81.8912 45.0406 81.8512 45.3306C81.6512 46.9406 81.5412 48.6206 81.5212 50.7806C81.5612 53.2306 81.7912 53.8406 81.7512 55.5006C81.7412 58.3006 81.4212 63.0306 81.3512 64.1706C81.3412 64.3406 81.3412 64.5106 81.3512 64.6806C81.3712 65.2806 81.4112 66.9106 81.4712 68.9506C81.4712 69.9306 81.4412 70.9106 81.1212 71.9206C80.8312 72.9206 80.3412 73.8906 79.7312 74.7106C78.8812 75.8906 77.9512 76.6406 77.1712 77.1406C76.9712 77.2606 76.7912 77.3706 76.6212 77.4806C76.4412 77.5706 76.2712 77.6506 76.1112 77.7206C75.8012 77.8806 75.5312 77.9706 75.3112 78.0506C74.2712 78.4106 73.3112 78.6306 72.4112 78.6906C71.4712 78.7706 70.5212 78.8406 69.6312 78.9506C68.6412 79.0706 68.6412 80.0406 69.6312 80.1506C70.5412 80.2506 71.4212 80.3506 72.4512 80.3806C73.5112 80.4306 74.6812 80.2506 75.9412 79.8206C76.4212 79.6506 77.2012 79.4206 78.1312 78.9106C79.0612 78.4106 80.1812 77.6506 81.1712 76.4406C81.4812 76.0406 81.7812 75.6206 81.9912 75.1606C83.0012 73.2406 83.4612 70.7306 83.3612 68.8906C83.3412 67.1306 83.3612 65.8606 83.3612 65.8606C83.3612 65.8606 83.3812 58.2806 83.3812 55.0806C83.3912 52.6706 83.4012 51.5106 83.4012 50.8006C83.4012 48.6506 83.3412 46.9706 83.2112 45.3806L83.2012 45.3706Z" fill="#101214"/>
</svg>
