<svg width="96" height="96" viewBox="0 0 96 96" fill="none" xmlns="http://www.w3.org/2000/svg">
<path d="M82.4013 11H17.5312V40.63H34.3912V34.66H65.5612V40.63H82.4113V11H82.4013Z" fill="#BF63F3"/>
<path d="M34.3813 45.67V85.32H65.5513V40.63H34.3813V45.67Z" fill="#FCA700"/>
<path d="M65.5513 34.66H34.3813V40.63H65.5513V34.66Z" fill="#101214"/>
<path d="M60.8213 45.65H39.1113V50.39H60.8213V45.65Z" fill="white"/>
<path d="M60.8213 57.62H39.1113V62.36H60.8213V57.62Z" fill="white"/>
<path d="M60.8213 69.6H39.1113V74.34H60.8213V69.6Z" fill="white"/>
<path d="M37.0913 22.72H22.0913V27.94H37.0913V22.72Z" fill="white"/>
<path d="M58.2614 22.72H41.6514V27.94H58.2614V22.72Z" fill="white"/>
<path d="M77.8311 22.72H62.8311V27.94H77.8311V22.72Z" fill="white"/>
</svg>
