<svg width="16" height="16" viewBox="0 0 16 16" fill="none" xmlns="http://www.w3.org/2000/svg">
<g clip-path="url(#clip0_237_8178)">
<path fill-rule="evenodd" clip-rule="evenodd" d="M12.331 9.74707H13.6741V15.1196H1.58594V9.74707H2.92907V13.7765H12.331V9.74707Z" fill="#BBBBBB"/>
<path d="M4.39211 9.34746L10.9887 10.7339L11.266 9.41523L4.6694 8.02814L4.39211 9.34746ZM5.26502 6.18878L11.3758 9.03475L11.945 7.81263L5.83414 4.96665L5.26502 6.18878ZM6.9559 3.19079L12.1365 7.5048L12.9993 6.46876L7.81868 2.15487L6.9559 3.19079ZM10.2999 0.00195312L9.2181 0.806611L13.2411 6.21577L14.323 5.41123L10.2999 0.00195312ZM4.27148 12.433H10.9871V11.0899H4.27148V12.433Z" fill="#F58025"/>
</g>
<defs>
<clipPath id="clip0_237_8178">
<path d="M0 4C0 1.79086 1.79086 0 4 0H12C14.2091 0 16 1.79086 16 4V12C16 14.2091 14.2091 16 12 16H4C1.79086 16 0 14.2091 0 12V4Z" fill="white"/>
</clipPath>
</defs>
</svg>
