<svg width="16" height="16" viewBox="0 0 16 16" fill="none" xmlns="http://www.w3.org/2000/svg">
<mask id="path-1-inside-1_237_8174" fill="white">
<path d="M0 4C0 1.79086 1.79086 0 4 0H12C14.2091 0 16 1.79086 16 4V12C16 14.2091 14.2091 16 12 16H4C1.79086 16 0 14.2091 0 12V4Z"/>
</mask>
<path d="M0 4C0 1.79086 1.79086 0 4 0H12C14.2091 0 16 1.79086 16 4V12C16 14.2091 14.2091 16 12 16H4C1.79086 16 0 14.2091 0 12V4Z" fill="white"/>
<path d="M4 0V1H12V0V-1H4V0ZM16 4H15V12H16H17V4H16ZM12 16V15H4V16V17H12V16ZM0 12H1V4H0H-1V12H0ZM4 16V15C2.34315 15 1 13.6569 1 12H0H-1C-1 14.7614 1.23858 17 4 17V16ZM16 12H15C15 13.6569 13.6569 15 12 15V16V17C14.7614 17 17 14.7614 17 12H16ZM12 0V1C13.6569 1 15 2.34315 15 4H16H17C17 1.23858 14.7614 -1 12 -1V0ZM4 0V-1C1.23858 -1 -1 1.23858 -1 4H0H1C1 2.34315 2.34315 1 4 1V0Z" fill="#0B1228" fill-opacity="0.14" mask="url(#path-1-inside-1_237_8174)"/>
<path fill-rule="evenodd" clip-rule="evenodd" d="M10.8949 9.44629H11.7834V13.0002H3.78711V9.44629H4.67558V12.1117H10.8949V9.44629Z" fill="#BBBBBB"/>
<path d="M5.64425 9.182L10.0079 10.0991L10.1913 9.22683L5.82767 8.30928L5.64425 9.182ZM6.22167 7.09255L10.2639 8.97515L10.6405 8.16672L6.59814 6.28412L6.22167 7.09255ZM7.34018 5.1094L10.7671 7.96309L11.3378 7.27776L7.9109 4.42414L7.34018 5.1094ZM9.55224 3L8.83661 3.53228L11.4978 7.1104L12.2135 6.57821L9.55224 3ZM5.56445 11.2231H10.0068V10.3346H5.56445V11.2231Z" fill="#F58025"/>
</svg>
