<svg width="20" height="20" viewBox="0 0 20 20" fill="none" xmlns="http://www.w3.org/2000/svg">
<mask id="path-1-inside-1_237_8170" fill="white">
<path d="M0 5C0 2.23858 2.23858 0 5 0H15C17.7614 0 20 2.23858 20 5V15C20 17.7614 17.7614 20 15 20H5C2.23858 20 0 17.7614 0 15V5Z"/>
</mask>
<path d="M0 5C0 2.23858 2.23858 0 5 0H15C17.7614 0 20 2.23858 20 5V15C20 17.7614 17.7614 20 15 20H5C2.23858 20 0 17.7614 0 15V5Z" fill="white"/>
<path d="M5 0V1H15V0V-1H5V0ZM20 5H19V15H20H21V5H20ZM15 20V19H5V20V21H15V20ZM0 15H1V5H0H-1V15H0ZM5 20V19C2.79086 19 1 17.2091 1 15H0H-1C-1 18.3137 1.68629 21 5 21V20ZM20 15H19C19 17.2091 17.2091 19 15 19V20V21C18.3137 21 21 18.3137 21 15H20ZM15 0V1C17.2091 1 19 2.79086 19 5H20H21C21 1.68629 18.3137 -1 15 -1V0ZM5 0V-1C1.68629 -1 -1 1.68629 -1 5H0H1C1 2.79086 2.79086 1 5 1V0Z" fill="#0B1228" fill-opacity="0.14" mask="url(#path-1-inside-1_237_8170)"/>
<path fill-rule="evenodd" clip-rule="evenodd" d="M13.4357 11.6504H14.4902V15.8681H5V11.6504H6.05447V14.8137H13.4357V11.6504Z" fill="#BBBBBB"/>
<path d="M7.20212 11.3367L12.381 12.4252L12.5987 11.3899L7.41982 10.301L7.20212 11.3367ZM7.88743 8.85698L12.6849 11.0912L13.1318 10.1318L8.33424 7.89755L7.88743 8.85698ZM9.21491 6.5034L13.2821 9.89013L13.9594 9.07678L9.89226 5.69015L9.21491 6.5034ZM11.8402 4L10.9909 4.6317L14.1493 8.87817L14.9987 8.24656L11.8402 4ZM7.10742 13.759H12.3798V12.7046H7.10742V13.759Z" fill="#F58025"/>
</svg>
