<svg width="24" height="24" viewBox="0 0 24 24" fill="none" xmlns="http://www.w3.org/2000/svg">
<mask id="path-1-inside-1_237_8166" fill="white">
<path d="M0 6.39569C0 2.86345 2.86345 0 6.39569 0H17.6043C21.1366 0 24 2.86345 24 6.39569V17.6043C24 21.1366 21.1366 24 17.6043 24H6.39569C2.86345 24 0 21.1366 0 17.6043V6.39569Z"/>
</mask>
<path d="M0 6.39569C0 2.86345 2.86345 0 6.39569 0H17.6043C21.1366 0 24 2.86345 24 6.39569V17.6043C24 21.1366 21.1366 24 17.6043 24H6.39569C2.86345 24 0 21.1366 0 17.6043V6.39569Z" fill="white"/>
<path d="M6.39569 0V1H17.6043V0V-1H6.39569V0ZM24 6.39569H23V17.6043H24H25V6.39569H24ZM17.6043 24V23H6.39569V24V25H17.6043V24ZM0 17.6043H1V6.39569H0H-1V17.6043H0ZM6.39569 24V23C3.41573 23 1 20.5843 1 17.6043H0H-1C-1 21.6888 2.31116 25 6.39569 25V24ZM24 17.6043H23C23 20.5843 20.5843 23 17.6043 23V24V25C21.6888 25 25 21.6888 25 17.6043H24ZM17.6043 0V1C20.5843 1 23 3.41573 23 6.39569H24H25C25 2.31116 21.6888 -1 17.6043 -1V0ZM6.39569 0V-1C2.31116 -1 -1 2.31116 -1 6.39569H0H1C1 3.41573 3.41573 1 6.39569 1V0Z" fill="#0B1228" fill-opacity="0.14" mask="url(#path-1-inside-1_237_8166)"/>
<path fill-rule="evenodd" clip-rule="evenodd" d="M16.3414 14.1689H17.6741V19.4998H5.67969V14.1689H7.0124V18.1671H16.3414V14.1689Z" fill="#BBBBBB"/>
<path d="M8.46539 13.773L15.0108 15.1487L15.286 13.8402L8.74054 12.4639L8.46539 13.773ZM9.33153 10.6388L15.3949 13.4627L15.9597 12.2501L9.89624 9.42618L9.33153 10.6388ZM11.0093 7.6641L16.1497 11.9446L17.0058 10.9166L11.8654 6.63621L11.0093 7.6641ZM14.3274 4.5L13.2539 5.29841L17.2458 10.6656L18.3192 9.86731L14.3274 4.5ZM8.3457 16.8346H15.0093V15.5019H8.3457V16.8346Z" fill="#F58025"/>
</svg>
