<svg width="32" height="32" viewBox="0 0 32 32" fill="none" xmlns="http://www.w3.org/2000/svg">
<mask id="path-1-inside-1_237_7806" fill="white">
<path d="M0 8C0 3.58172 3.58172 0 8 0H24C28.4183 0 32 3.58172 32 8V24C32 28.4183 28.4183 32 24 32H8C3.58172 32 0 28.4183 0 24V8Z"/>
</mask>
<path d="M0 8C0 3.58172 3.58172 0 8 0H24C28.4183 0 32 3.58172 32 8V24C32 28.4183 28.4183 32 24 32H8C3.58172 32 0 28.4183 0 24V8Z" fill="white"/>
<path d="M8 0V1H24V0V-1H8V0ZM32 8H31V24H32H33V8H32ZM24 32V31H8V32V33H24V32ZM0 24H1V8H0H-1V24H0ZM8 32V31C4.13401 31 1 27.866 1 24H0H-1C-1 28.9706 3.02944 33 8 33V32ZM32 24H31C31 27.866 27.866 31 24 31V32V33C28.9706 33 33 28.9706 33 24H32ZM24 0V1C27.866 1 31 4.13401 31 8H32H33C33 3.02944 28.9706 -1 24 -1V0ZM8 0V-1C3.02944 -1 -1 3.02944 -1 8H0H1C1 4.13401 4.13401 1 8 1V0Z" fill="#0B1228" fill-opacity="0.14" mask="url(#path-1-inside-1_237_7806)"/>
<path fill-rule="evenodd" clip-rule="evenodd" d="M20.7941 18.6025H22.3934V24.9995H8V18.6025H9.59926V23.4003H20.7941V18.6025Z" fill="#BBBBBB"/>
<path d="M11.3428 18.1275L19.1974 19.7784L19.5276 18.2082L11.673 16.5566L11.3428 18.1275ZM12.3822 14.3665L19.6583 17.7552L20.3361 16.3L13.0599 12.9114L12.3822 14.3665ZM14.3955 10.7969L20.5641 15.9335L21.5914 14.6999L15.4229 9.56344L14.3955 10.7969ZM18.3773 7L17.0891 7.95809L21.8794 14.3987L23.1675 13.4407L18.3773 7ZM11.1992 21.8014H19.1955V20.2022H11.1992V21.8014Z" fill="#F58025"/>
</svg>
