<svg width="96" height="96" viewBox="0 0 96 96" fill="none" xmlns="http://www.w3.org/2000/svg">
<path d="M61.5567 35.41C61.5567 40.3 59.8667 43.98 56.9867 46.58C55.6067 47.83 53.9367 48.82 52.0567 49.59C49.0367 50.83 45.4567 51.45 41.5467 51.51L30.9667 61.82V50.08C30.4267 49.91 29.9167 49.72 29.4167 49.52C27.6067 48.76 25.9767 47.79 24.6167 46.59C21.6667 43.99 19.9167 40.32 19.9167 35.42C19.9167 30.52 21.7267 26.6 24.7467 23.94C26.0867 22.77 27.6567 21.82 29.4067 21.08C32.6867 19.68 36.6267 19 40.8867 19C45.1467 19 48.8667 19.66 52.0567 20.99C53.8667 21.74 55.4968 22.72 56.8568 23.94C59.8168 26.6 61.5567 30.39 61.5567 35.42V35.41Z" fill="#FCA700"/>
<path d="M42.1367 50.68C42.1367 55.57 43.8267 59.25 46.7067 61.85C48.0867 63.1 49.7567 64.09 51.6367 64.86C54.6567 66.1 58.2367 66.72 62.1467 66.78L72.7267 77.09V65.35C73.2667 65.18 73.7767 64.99 74.2767 64.79C76.0867 64.03 77.7167 63.06 79.0767 61.86C82.0267 59.26 83.7767 55.59 83.7767 50.69C83.7767 45.79 81.9667 41.87 78.9467 39.21C77.6067 38.04 76.0367 37.09 74.2867 36.35C71.0067 34.95 67.0667 34.27 62.8067 34.27C58.5467 34.27 54.8267 34.93 51.6367 36.26C49.8267 37.01 48.1967 37.99 46.8367 39.21C43.8767 41.87 42.1367 45.66 42.1367 50.69V50.68Z" fill="#82B536"/>
<path d="M61.5667 35.41C61.5667 40.3 59.8667 43.98 56.9967 46.58C55.6067 47.83 53.9367 48.82 52.0667 49.59C49.2067 50.76 45.8367 51.38 42.1667 51.49C42.1567 51.22 42.1467 50.95 42.1467 50.68C42.1467 45.66 43.8867 41.87 46.8467 39.2C48.2067 37.99 49.8267 37.01 51.6367 36.26C54.4967 35.06 57.8667 34.41 61.5367 34.29C61.5567 34.66 61.5667 35.03 61.5667 35.41Z" fill="#164B35"/>
<path d="M74.9868 58.5394C77.7168 58.0794 77.2568 57.0094 74.9268 57.1894C71.5168 57.1594 68.1768 55.3694 64.6668 52.1394C62.6668 50.2994 61.4968 49.0194 60.4568 47.9394C59.4368 46.8394 58.5768 45.8694 57.4168 44.3894C55.4368 41.8994 52.9268 38.3994 50.5568 35.3594C48.2168 32.2994 45.8668 29.7794 44.8568 28.8794C44.5768 28.5994 44.2768 28.3294 43.9568 28.0894C43.6668 27.8694 43.2768 27.5394 42.7568 27.1594C42.2068 26.8194 41.5968 26.3294 40.7968 25.9094C39.2668 25.0194 37.0668 24.0994 34.4468 24.0994C33.8068 24.1494 33.1368 24.2094 32.4768 24.3094C31.8368 24.4994 31.1568 24.6394 30.5168 24.8894C29.9068 25.1894 29.2368 25.4294 28.6468 25.7894C28.0968 26.1394 27.5368 26.4894 26.9768 26.8494C25.7368 27.5994 24.5868 28.4894 23.6868 29.8094C23.2568 30.4694 22.8968 31.2894 22.8868 32.2094C22.8868 33.1194 23.1768 33.9594 23.7268 34.6994C24.5668 35.7594 26.0968 36.1194 27.1568 35.7594C28.2568 35.4494 29.0868 34.7194 29.5968 33.8994C30.1168 33.0694 30.3168 32.1394 30.2868 31.3294C30.2868 30.4994 30.0768 29.7694 29.8368 29.1394C29.3168 27.8994 28.7068 26.9694 28.0968 26.2494C27.4968 25.5194 26.9468 24.9594 26.4668 24.5394C25.3468 23.5394 24.1468 22.7494 22.8768 22.2294C22.2668 21.9294 21.5968 21.7894 20.9768 21.6094C20.3268 21.5194 19.6968 21.3794 19.0568 21.4294C17.7768 21.3894 16.5868 21.7794 15.5168 22.2394C15.0168 22.5294 14.5168 22.8294 14.0568 23.1494C13.6368 23.5194 13.2168 23.8794 12.8168 24.2594C11.2668 26.1294 12.1368 26.6294 13.6468 25.1294C14.0368 24.8294 14.4368 24.5494 14.8268 24.2594C15.2468 24.0194 15.6868 23.8094 16.1168 23.5894C17.0368 23.2894 17.9968 23.0194 19.0268 23.1094C19.5368 23.0894 20.0568 23.2394 20.5768 23.3194C20.8368 23.3894 21.0968 23.4894 21.3568 23.5694C21.6268 23.6394 21.8868 23.7494 22.1468 23.8894C23.2068 24.3394 24.2368 25.0394 25.2168 25.9194C25.9668 26.5894 27.0968 27.8094 27.8668 29.6194C28.2168 30.4994 28.3668 31.5394 27.9668 32.4094C27.7768 32.8394 27.4568 33.2194 27.0468 33.4594C26.6368 33.6994 26.1568 33.7494 25.8368 33.6194C25.6268 33.5194 25.4268 33.3994 25.2868 33.1194C25.1068 32.8694 25.0368 32.5294 25.0068 32.2294C24.9668 31.5594 25.4268 30.6794 26.1668 29.9494C26.5268 29.5794 26.9368 29.2294 27.3768 28.9094C27.6068 28.7494 27.8168 28.6094 28.0568 28.4694L28.8368 27.9594C30.6568 26.6894 32.7168 25.9894 34.5568 26.0194C36.4068 25.9894 37.9268 26.6894 38.9668 27.1494C39.4768 27.4294 39.8768 27.6594 40.1568 27.8094C40.4268 27.9794 40.5668 28.0894 40.5668 28.0894C40.5668 28.0894 40.7768 28.2394 41.1668 28.4994C41.5668 28.7494 42.0868 29.1794 42.7368 29.7194C44.0268 30.7994 45.7068 32.4494 47.4068 34.4094C50.7968 38.3394 54.4168 43.3294 56.7368 46.1894C60.1868 50.5294 62.1768 52.3994 63.3768 53.5494C65.2368 55.2494 67.1268 56.5794 69.0668 57.4594C71.0068 58.3294 73.0268 58.7594 74.9568 58.5694L74.9868 58.5394Z" fill="#101214"/>
<path d="M69.3567 51.0395C68.8367 50.8695 68.2567 51.8195 68.6667 52.1995C69.2367 52.7295 69.8867 53.2194 70.7667 53.7394C71.7967 54.2794 72.1667 54.2195 72.8367 54.6295C73.4067 54.9595 74.1367 55.4694 74.7267 55.9594C75.3267 56.4394 75.7367 56.8994 75.8367 57.0594C75.8667 57.1094 75.9067 57.1494 75.9467 57.1794C76.0167 57.2394 76.1367 57.3594 76.1867 57.4294C76.2167 57.4894 76.2767 57.4294 76.1667 57.7094C75.9067 58.2494 74.9867 59.0394 74.1467 59.6194C72.9667 60.5094 72.1667 61.0394 71.7767 61.3194C70.8267 61.9794 70.1667 62.5694 69.5867 63.2194C69.2667 63.5794 69.8167 64.3795 70.2667 64.2095C71.0867 63.8995 71.8767 63.5095 72.8467 62.8495C73.2167 62.5895 74.1567 62.2794 75.2867 61.5094C75.4667 61.3794 75.6367 61.2295 75.7867 61.0595C76.4367 60.3095 77.2767 59.5894 77.8367 58.6094C78.1267 58.1194 78.2167 57.4594 78.1067 57.0294C77.9967 56.6094 77.8767 56.4294 77.8767 56.4294C77.8767 56.4294 77.8367 56.3594 77.7567 56.2294C77.6767 56.1294 77.5567 55.9595 77.4067 55.7895C77.0967 55.4495 76.6667 55.1194 76.1867 54.7794C75.2367 54.1294 74.1167 53.4995 73.4567 53.1095C72.4667 52.5395 71.9867 52.2694 71.6967 52.0994C70.8067 51.5994 70.0867 51.2694 69.3467 51.0294L69.3567 51.0395Z" fill="#101214"/>
</svg>
