<svg width="96" height="96" viewBox="0 0 96 96" fill="none" xmlns="http://www.w3.org/2000/svg">
<path d="M61.5567 35.41C61.5567 40.3 59.8667 43.98 56.9867 46.58C55.6067 47.83 53.9367 48.82 52.0567 49.59C49.0367 50.83 45.4567 51.45 41.5467 51.51L30.9667 61.82V50.08C30.4267 49.91 29.9167 49.72 29.4167 49.52C27.6067 48.76 25.9767 47.79 24.6167 46.59C21.6667 43.99 19.9167 40.32 19.9167 35.42C19.9167 30.52 21.7267 26.6 24.7467 23.94C26.0867 22.77 27.6567 21.82 29.4067 21.08C32.6867 19.68 36.6267 19 40.8867 19C45.1467 19 48.8667 19.66 52.0567 20.99C53.8667 21.74 55.4968 22.72 56.8568 23.94C59.8168 26.6 61.5567 30.39 61.5567 35.42V35.41Z" fill="#FCA700"/>
<path d="M42.1367 50.68C42.1367 55.57 43.8267 59.25 46.7067 61.85C48.0867 63.1 49.7567 64.09 51.6367 64.86C54.6567 66.1 58.2367 66.72 62.1467 66.78L72.7267 77.09V65.35C73.2667 65.18 73.7767 64.99 74.2767 64.79C76.0867 64.03 77.7167 63.06 79.0767 61.86C82.0267 59.26 83.7767 55.59 83.7767 50.69C83.7767 45.79 81.9667 41.87 78.9467 39.21C77.6067 38.04 76.0367 37.09 74.2867 36.35C71.0067 34.95 67.0667 34.27 62.8067 34.27C58.5467 34.27 54.8267 34.93 51.6367 36.26C49.8267 37.01 48.1967 37.99 46.8367 39.21C43.8767 41.87 42.1367 45.66 42.1367 50.69V50.68Z" fill="#82B536"/>
<path d="M61.5667 35.41C61.5667 40.3 59.8667 43.98 56.9967 46.58C55.6067 47.83 53.9367 48.82 52.0667 49.59C49.2067 50.76 45.8367 51.38 42.1667 51.49C42.1567 51.22 42.1467 50.95 42.1467 50.68C42.1467 45.66 43.8867 41.87 46.8467 39.2C48.2067 37.99 49.8267 37.01 51.6367 36.26C54.4967 35.06 57.8667 34.41 61.5367 34.29C61.5567 34.66 61.5667 35.03 61.5667 35.41Z" fill="#164B35"/>
</svg>
