<svg width="96" height="96" viewBox="0 0 96 96" fill="none" xmlns="http://www.w3.org/2000/svg">
<path d="M38.0956 49.9325C35.7256 46.3625 35.0056 46.1325 34.4156 46.1325C33.8256 46.1325 33.4656 46.3725 32.3956 48.5125L17.3156 78.7125C16.8456 79.6625 16.7256 80.0225 16.7256 80.4925C16.7256 81.4425 17.5556 82.3925 19.3356 82.3925H40.5956C42.0156 82.3925 43.0856 81.2025 43.6856 78.9425C44.3956 76.0925 44.6356 73.5925 44.6356 70.6225C44.6356 62.3025 40.9556 54.2125 38.1056 49.9325H38.0956Z" fill="#FCA700"/>
<path d="M81.9155 78.4725L51.7555 18.0725C51.1655 16.7625 50.5655 16.5225 49.8555 16.5225C49.2655 16.5225 48.5455 16.7625 47.8355 17.9525C43.5655 24.7325 41.6655 32.5825 41.6655 40.7825C41.6655 52.1925 47.4855 62.9025 56.0355 80.1425C56.9855 82.0425 57.6955 82.4025 59.3555 82.4025H80.2555C81.7955 82.4025 82.6255 81.8125 82.6255 80.6225C82.6255 80.0325 82.5055 79.6725 81.9155 78.4825V78.4725Z" fill="#1868DB"/>
<path d="M71.3755 57.3525L50.6655 69.3125C49.0255 65.9625 47.5754 62.8725 46.3354 59.9425L66.7755 48.1425L71.3755 57.3525Z" fill="#101214"/>
<path d="M49.8555 16.5225C50.5655 16.5225 51.1655 16.7625 51.7555 18.0725L66.7755 48.1425L46.3355 59.9425C43.3855 52.9825 41.6655 46.9925 41.6655 40.7825C41.6655 32.5825 43.5655 24.7325 47.8355 17.9525C48.5455 16.7625 49.2555 16.5225 49.8555 16.5225Z" fill="#BF63F3"/>
<path d="M38.6657 27.4825C38.7457 27.6025 39.6957 28.3425 39.9957 27.7225C40.2657 27.0125 40.2457 26.4325 40.1657 25.7325C40.0757 25.3525 39.9757 25.1325 39.8857 24.9525C39.7957 24.7725 39.7457 24.6525 39.7357 24.3725C39.6657 23.4825 39.8757 22.0025 39.9457 21.6525C39.9457 21.6025 39.9457 21.5525 39.9457 21.5025C39.9157 21.3225 39.8457 20.8325 39.8057 20.2225C39.7757 19.6125 39.7957 18.8125 39.8557 18.1125C39.8857 17.1025 39.9057 16.4725 39.9157 16.1525C39.9357 15.3825 39.8457 14.8025 39.6457 14.2325C39.5357 13.9225 38.5657 13.9225 38.4457 14.2325C38.2157 14.7925 38.0757 15.3725 38.0457 16.1325C38.0357 16.4325 37.7457 17.0525 37.6657 17.9225C37.6557 18.0625 37.6657 18.2125 37.7057 18.3525C37.8657 18.9725 37.8957 19.6525 37.9157 20.2325C37.9357 20.8025 37.9257 21.2125 37.9257 21.2125C37.9257 21.2125 37.9557 21.8225 37.9957 22.5525C38.0457 23.2725 38.1057 24.1125 38.1357 24.6125C38.2057 25.4625 38.2957 25.7925 38.3157 26.0125C38.4157 26.6525 38.5657 27.1325 38.6757 27.4725L38.6657 27.4825Z" fill="#101214"/>
<path d="M31.4961 33.4425C31.7361 33.7025 32.7761 33.2925 32.7361 32.9025C32.6861 32.3625 32.5361 31.8325 32.2261 31.2125C31.8161 30.5425 31.5161 30.4825 31.2861 30.0225C30.8561 29.2525 30.3361 27.8325 30.2261 27.4925C30.2061 27.4425 30.1861 27.3925 30.1461 27.3525C29.9161 27.0425 28.8961 25.7725 28.3061 24.5125C27.8161 23.6325 27.5061 23.0925 27.3461 22.8125C26.9461 22.1425 26.5361 21.6825 26.0161 21.3225C25.7261 21.1225 24.9561 21.7125 25.0361 22.0125C25.1761 22.5725 25.3561 23.0925 25.7261 23.7425C25.8761 23.9925 25.9361 24.6525 26.3161 25.4425C26.3761 25.5725 26.4661 25.6925 26.5661 25.7925C27.4861 26.7125 28.2361 28.0925 28.2361 28.0925C28.2361 28.0925 29.4761 30.0925 29.9361 30.9325C30.2961 31.5725 30.4561 31.8825 30.5561 32.0725C30.8561 32.6425 31.1561 33.0625 31.4961 33.4425Z" fill="#101214"/>
<path d="M14.4658 34.4725C13.8458 34.4525 13.9958 35.6225 14.0758 35.7625C14.3258 36.0125 14.6958 36.3625 15.2358 36.8025C15.8958 37.2725 16.1958 37.2425 16.6758 37.6325C17.5158 38.2025 18.6458 39.3325 18.9258 39.6225C18.9658 39.6625 19.0158 39.7025 19.0658 39.7225C19.4258 39.9325 21.0458 40.7525 22.2158 41.7725C23.0958 42.4425 23.6958 42.8525 24.0058 43.0625C24.1958 43.1825 24.3758 43.2925 24.5458 43.3825C24.6958 43.4525 24.8358 43.5225 24.9758 43.5925C25.2958 43.7425 25.5658 43.8625 26.0558 43.9825C26.1158 43.9925 26.2358 44.0025 26.3358 43.9825C26.4958 43.9525 26.6358 43.9225 26.8058 43.7325C26.9758 43.3825 26.7258 43.3225 26.6258 43.3225C26.5558 43.3225 26.4858 43.3225 26.4258 43.3125C26.4258 43.2925 26.5058 43.3525 26.4758 43.3225C26.4858 43.3325 26.4358 43.2525 26.4758 43.1425C26.4758 43.0725 26.5058 42.9725 26.5358 42.9125C26.5458 42.9125 26.5358 42.8825 26.5358 42.8725C26.4258 42.7025 26.2058 42.4425 25.9658 42.2125C25.9058 42.1525 25.8358 42.0925 25.7558 42.0225C25.6758 41.9625 25.5958 41.9025 25.5158 41.8325C25.3658 41.7325 25.2158 41.6225 25.0558 41.5025C24.7958 41.3225 24.4158 40.7425 23.6858 40.1225C23.5658 40.0225 23.4258 39.9425 23.2758 39.8825C22.6358 39.6125 21.9458 39.1925 21.4358 38.8825C20.9258 38.5625 20.5758 38.2925 20.5758 38.2925C20.5758 38.2925 18.4458 36.8425 17.5458 36.2325C16.9058 35.7225 16.6058 35.4725 16.4158 35.3225C15.8058 34.8525 15.2258 34.5225 14.4758 34.4525L14.4658 34.4725Z" fill="#101214"/>
</svg>
