<svg width="96" height="96" viewBox="0 0 96 96" fill="none" xmlns="http://www.w3.org/2000/svg">
<path d="M38.0956 49.9325C35.7256 46.3625 35.0056 46.1325 34.4156 46.1325C33.8256 46.1325 33.4656 46.3725 32.3956 48.5125L17.3156 78.7125C16.8456 79.6625 16.7256 80.0225 16.7256 80.4925C16.7256 81.4425 17.5556 82.3925 19.3356 82.3925H40.5956C42.0156 82.3925 43.0856 81.2025 43.6856 78.9425C44.3956 76.0925 44.6356 73.5925 44.6356 70.6225C44.6356 62.3025 40.9556 54.2125 38.1056 49.9325H38.0956Z" fill="#FCA700"/>
<path d="M81.9155 78.4725L51.7555 18.0725C51.1655 16.7625 50.5655 16.5225 49.8555 16.5225C49.2655 16.5225 48.5455 16.7625 47.8355 17.9525C43.5655 24.7325 41.6655 32.5825 41.6655 40.7825C41.6655 52.1925 47.4855 62.9025 56.0355 80.1425C56.9855 82.0425 57.6955 82.4025 59.3555 82.4025H80.2555C81.7955 82.4025 82.6255 81.8125 82.6255 80.6225C82.6255 80.0325 82.5055 79.6725 81.9155 78.4825V78.4725Z" fill="#1868DB"/>
<path d="M71.3755 57.3525L50.6655 69.3125C49.0255 65.9625 47.5754 62.8725 46.3354 59.9425L66.7755 48.1425L71.3755 57.3525Z" fill="#101214"/>
<path d="M49.8555 16.5225C50.5655 16.5225 51.1655 16.7625 51.7555 18.0725L66.7755 48.1425L46.3355 59.9425C43.3855 52.9825 41.6655 46.9925 41.6655 40.7825C41.6655 32.5825 43.5655 24.7325 47.8355 17.9525C48.5455 16.7625 49.2555 16.5225 49.8555 16.5225Z" fill="#BF63F3"/>
</svg>
