<svg width="96" height="96" viewBox="0 0 96 96" fill="none" xmlns="http://www.w3.org/2000/svg">
<path d="M63.2501 29.08C59.9801 19.41 54.2701 13 47.7601 13C41.2501 13 35.6501 19.29 32.3701 28.8C36.1201 32.68 38.6401 39.8 38.6401 47.94C38.6401 56.08 36.1201 63.2 32.3701 67.08C35.6601 76.59 41.3401 82.89 47.7901 82.89C54.2401 82.89 60.0101 76.48 63.2801 66.81C59.6701 62.87 57.2901 55.9 57.2901 47.93C57.2901 39.96 59.6401 33.01 63.2501 29.07V29.08Z" fill="#BF63F3"/>
<path d="M32.37 28.81C30.45 26.83 28.23 25.68 25.82 25.68C18.74 25.68 13 35.65 13 47.94C13 60.23 18.74 70.2 25.82 70.2C28.21 70.2 30.42 69.06 32.37 67.08C28.35 54.64 28.35 41.24 32.37 28.8V28.81Z" fill="#FCA700"/>
<path d="M38.64 47.94C38.64 39.8 36.12 32.68 32.37 28.8C28.35 41.24 28.35 54.64 32.37 67.08C36.12 63.19 38.64 56.08 38.64 47.94Z" fill="#101214"/>
<path d="M70.06 25.68C67.56 25.68 65.23 26.93 63.25 29.08C67.14 41.35 67.14 54.53 63.25 66.8C65.23 68.95 67.56 70.2 70.06 70.2C77.14 70.2 82.88 60.23 82.88 47.94C82.88 35.65 77.14 25.68 70.06 25.68Z" fill="#82B536"/>
<path d="M63.2498 29.08C59.6398 33.02 57.2598 39.99 57.2598 47.96C57.2598 55.93 59.6598 62.88 63.2498 66.84C67.1398 54.57 67.1398 41.39 63.2498 29.12V29.08Z" fill="#101214"/>
<path d="M71.5601 53.0498C71.3401 53.4898 72.2201 54.1798 72.5901 53.9198C73.1201 53.5498 73.6301 53.1198 74.2401 52.5098C74.8801 51.7798 74.9001 51.4498 75.3901 51.0098C75.7801 50.6398 76.3501 50.2098 76.8901 49.8498C77.1601 49.6698 77.4101 49.5098 77.6301 49.3798C77.7701 49.3098 78.2201 48.9898 78.4101 48.8698C78.5101 48.7598 78.5401 48.7398 78.5601 48.7098C78.6501 48.6198 78.7401 48.5298 78.8101 48.4298C78.9401 48.2698 79.0901 47.9198 79.0701 47.3998C79.0501 47.1498 78.9701 46.8598 78.8101 46.6098C78.6601 46.3698 78.4301 46.1298 78.0701 45.9398C77.6301 45.6898 77.1401 45.4198 76.6401 45.1398C76.2301 44.9098 75.8201 44.6598 75.4301 44.4098C74.3001 43.7498 73.6101 43.3398 73.2401 43.1198C72.3801 42.6198 71.6801 42.3398 70.9401 42.1498C70.5301 42.0498 70.0401 42.8798 70.3301 43.1898C70.8501 43.7398 71.4401 44.2198 72.2901 44.7398C72.6201 44.9398 73.1801 45.5798 74.1401 46.1998C74.3001 46.2998 74.4701 46.3798 74.6501 46.4398C75.0401 46.5598 75.4401 46.7298 75.8201 46.8998C76.1701 47.0598 76.6701 47.3298 76.6501 47.3098C76.8901 47.3698 76.8401 47.5798 76.8201 47.5598C76.8001 47.6398 76.7302 47.6698 76.6702 47.7198L76.1702 48.1298L75.4801 48.7298C75.0301 49.1298 74.5801 49.5398 74.1401 49.9598C73.4301 50.6498 73.0901 50.9998 72.8901 51.2098C72.2701 51.8598 71.8701 52.4298 71.5601 53.0498Z" fill="#101214"/>
<path d="M47.9499 34.2298C47.7199 33.3198 46.6799 33.8998 46.5999 34.3198C46.4799 35.2698 46.4099 36.2998 46.3999 37.6198C46.4499 39.1198 46.6799 39.4998 46.6499 40.5198C46.6399 42.2398 46.2899 45.1498 46.1899 45.8498C46.1799 45.9498 46.1699 46.0598 46.1799 46.1598C46.2099 46.8998 46.3199 50.1598 46.1799 52.9698C46.1399 54.9498 46.1099 56.1798 46.0999 56.8198C46.0699 58.3298 46.1599 59.4698 46.3399 60.5798C46.4399 61.1898 47.4099 61.2198 47.5399 60.6098C47.7799 59.4998 47.9199 58.3798 47.9699 56.8598C47.9799 56.2698 48.2799 55.0498 48.3599 53.3198C48.3699 53.0398 48.3599 52.7598 48.3299 52.4798C48.0199 50.0598 48.1799 46.9298 48.1799 46.9298C48.1799 46.9298 48.2499 42.2498 48.2699 40.2798C48.2699 38.7898 48.2699 38.0698 48.2699 37.6298C48.2699 36.2998 48.1599 35.2498 47.9499 34.2398V34.2298Z" fill="#101214"/>
<path d="M22.6899 40.6998C22.4999 40.1298 21.4599 40.6998 21.3399 40.7898C21.1999 41.2598 21.1199 41.7698 21.1099 42.4398C21.1599 43.1998 21.3899 43.3898 21.3599 43.9098C21.3599 44.7798 21.0199 46.2498 20.9399 46.6098C20.9299 46.6598 20.9199 46.7098 20.9299 46.7698C20.9699 47.1498 21.1099 48.7998 20.9899 50.2198C20.9699 51.2298 20.9599 51.8498 20.9499 52.1698C20.9499 52.9398 21.0399 53.5098 21.2399 54.0798C21.3499 54.3898 22.3199 54.4198 22.4399 54.1098C22.6699 53.5498 22.7899 52.9798 22.8199 52.2098C22.8199 51.9098 23.1099 51.2998 23.1699 50.4198C23.1799 50.2798 23.1699 50.1298 23.1299 49.9898C22.7899 48.7598 22.9199 47.1698 22.9199 47.1698C22.9199 47.1698 22.9599 44.7898 22.9699 43.7898C22.9699 43.0298 22.9699 42.6698 22.9699 42.4398C22.9699 41.7598 22.8699 41.2298 22.6799 40.6998H22.6899Z" fill="#101214"/>
<path d="M22.9899 47.4298C21.6499 47.5098 21.4599 48.6198 22.9699 48.7798C24.9799 48.9598 27.0899 49.0498 29.7999 49.0498C32.8699 48.9898 33.6299 48.7498 35.7099 48.7698C39.2199 48.7498 45.1499 49.0298 46.5699 49.0998C46.7799 49.1098 46.9899 49.1098 47.1999 49.0998C48.7099 49.0498 55.3399 48.8398 61.0499 48.8998C65.0799 48.8798 67.5799 48.8698 68.8799 48.8598C71.9599 48.8498 74.2599 48.7298 76.4999 48.5398C77.6299 48.4598 77.8499 47.4998 76.5199 47.3398C74.2499 47.0998 71.9499 46.9898 68.8699 46.9898C67.6699 46.9898 65.1799 46.7298 61.6599 46.6998C61.0899 46.6998 60.5099 46.7198 59.9499 46.7598C55.0399 47.1498 48.6699 47.0798 48.6699 47.0798C48.6699 47.0798 39.1699 47.1298 35.1499 47.1398C32.1299 47.1498 30.6799 47.1598 29.7799 47.1598C27.0799 47.1698 24.9699 47.2598 22.9799 47.4098L22.9899 47.4298Z" fill="#101214"/>
</svg>
