<svg width="96" height="96" viewBox="0 0 96 96" fill="none" xmlns="http://www.w3.org/2000/svg">
<path d="M63.2501 29.08C59.9801 19.41 54.2701 13 47.7601 13C41.2501 13 35.6501 19.29 32.3701 28.8C36.1201 32.68 38.6401 39.8 38.6401 47.94C38.6401 56.08 36.1201 63.2 32.3701 67.08C35.6601 76.59 41.3401 82.89 47.7901 82.89C54.2401 82.89 60.0101 76.48 63.2801 66.81C59.6701 62.87 57.2901 55.9 57.2901 47.93C57.2901 39.96 59.6401 33.01 63.2501 29.07V29.08Z" fill="#BF63F3"/>
<path d="M32.37 28.81C30.45 26.83 28.23 25.68 25.82 25.68C18.74 25.68 13 35.65 13 47.94C13 60.23 18.74 70.2 25.82 70.2C28.21 70.2 30.42 69.06 32.37 67.08C28.35 54.64 28.35 41.24 32.37 28.8V28.81Z" fill="#FCA700"/>
<path d="M38.64 47.94C38.64 39.8 36.12 32.68 32.37 28.8C28.35 41.24 28.35 54.64 32.37 67.08C36.12 63.19 38.64 56.08 38.64 47.94Z" fill="#101214"/>
<path d="M70.06 25.68C67.56 25.68 65.23 26.93 63.25 29.08C67.14 41.35 67.14 54.53 63.25 66.8C65.23 68.95 67.56 70.2 70.06 70.2C77.14 70.2 82.88 60.23 82.88 47.94C82.88 35.65 77.14 25.68 70.06 25.68Z" fill="#82B536"/>
<path d="M63.2498 29.08C59.6398 33.02 57.2598 39.99 57.2598 47.96C57.2598 55.93 59.6598 62.88 63.2498 66.84C67.1398 54.57 67.1398 41.39 63.2498 29.12V29.08Z" fill="#101214"/>
</svg>
