<svg width="96" height="96" viewBox="0 0 96 96" fill="none" xmlns="http://www.w3.org/2000/svg">
<path fill-rule="evenodd" clip-rule="evenodd" d="M14 20V62.28H56.28V20H14ZM32.12 29.08H47.22V33.61H32.12V29.08ZM32.12 38.87H47.22V43.4H32.12V38.87ZM24.58 28.3C26.24 28.3 27.6 29.66 27.6 31.32C27.6 32.98 26.24 34.34 24.58 34.34C22.92 34.34 21.56 32.99 21.56 31.32C21.56 29.65 22.91 28.3 24.58 28.3ZM24.58 38.12C26.24 38.12 27.6 39.47 27.6 41.14C27.6 42.81 26.24 44.16 24.58 44.16C22.92 44.16 21.56 42.81 21.56 41.14C21.56 39.47 22.91 38.12 24.58 38.12Z" fill="#1868DB"/>
<path d="M62.02 46.08V53.09H32.12V67.34H62.02V75.76L76.85 60.91L62.02 46.08Z" fill="#BF63F3"/>
<path fill-rule="evenodd" clip-rule="evenodd" d="M32.12 53.09V62.28H56.28V53.09H32.12Z" fill="#09326C"/>
<path d="M37.5401 47.2907C36.8601 47.6507 36.5901 48.0307 36.6701 48.3307C36.7501 48.6207 37.2701 48.8107 38.0801 48.5307C38.6401 48.3307 39.1901 48.1007 39.7201 47.8907C40.2501 47.6707 40.7801 47.4907 41.3801 47.2907C42.5501 46.8907 43.9501 46.4607 45.3701 45.6207C46.9201 44.7007 47.8001 43.9807 48.5401 43.3407C49.2801 42.7007 49.8901 42.1107 50.7601 41.2807C51.4501 40.6007 52.4201 39.8407 53.2001 38.6507C53.5801 38.0607 53.8701 37.3407 53.9801 36.6207C54.0301 36.2907 54.0701 35.8407 54.0001 35.4307C53.9401 35.0307 53.8201 34.6507 53.6501 34.3007C53.3101 33.6007 52.7201 32.9607 51.9101 32.6607C51.0901 32.3507 50.1901 32.5307 49.6001 32.8707C48.4401 33.5807 48.0501 34.4407 47.8101 34.9007C47.6801 35.1807 47.5801 35.4807 47.5101 35.7907C47.3701 36.3007 47.3301 37.7007 48.1801 38.8207C49.0001 39.9507 50.2801 40.7607 51.7501 41.3507C54.7001 42.5407 58.4301 42.7407 61.7301 42.5607C64.0801 42.4207 65.9001 42.1807 67.3501 42.0707C68.8101 41.9507 69.9001 41.8507 70.6501 41.7707C72.4001 41.5907 74.0301 41.2707 75.4001 40.8107C76.1001 40.5907 76.7201 40.3507 77.3401 40.1507C77.9701 39.9307 78.6201 39.7007 79.2601 39.3407C80.0001 38.9307 80.1101 38.2807 79.8701 38.1507C79.6201 38.0007 79.3101 38.0507 78.7301 38.2507C78.1901 38.4507 77.5801 38.5807 76.9401 38.7107C76.2801 38.8407 75.6201 39.0307 74.9501 39.1807C73.6001 39.5107 72.1801 39.7307 70.4501 39.9007C69.7801 39.9707 68.7501 40.0007 67.3701 40.0407C65.9801 40.0707 64.2501 40.2007 62.3001 40.3207C61.6601 40.3607 61.0301 40.4107 60.4001 40.4707C57.7101 40.7707 54.5801 40.4707 52.4101 39.5707C51.3401 39.1307 50.5301 38.5507 50.1001 38.0907C49.6801 37.6207 49.5801 37.3207 49.5801 37.3207C49.6001 37.3107 49.3001 36.9107 49.4801 36.1507C49.5801 35.7507 49.8001 35.2507 50.1501 34.8507C50.5201 34.4407 50.9301 34.2707 51.3101 34.4007C51.7001 34.5107 52.1401 35.0707 52.2601 35.6607C52.2901 35.8107 52.3001 35.9507 52.3001 36.0807C52.2801 36.2507 52.2701 36.4307 52.2301 36.6007C52.1601 36.9407 52.0501 37.2507 51.9001 37.5607C51.2701 38.7507 49.9901 39.7307 49.2001 40.5307C46.7501 42.7607 45.2701 43.4807 44.4401 44.0007C43.1901 44.7507 41.9601 45.1807 40.7701 45.6707C39.5701 46.1407 38.4901 46.7807 37.5401 47.2907Z" fill="#101214"/>
<path d="M72.8401 33.5307C72.3401 33.4907 72.0201 34.5606 72.4101 34.8106C72.9701 35.1706 73.5901 35.4906 74.4201 35.8106C75.3801 36.1206 75.7001 35.9906 76.3201 36.2706C77.4001 36.6906 79.0401 37.7707 79.3401 38.0507C79.3801 38.0907 79.4301 38.1207 79.4901 38.1507C79.6501 38.2307 79.5801 38.1706 79.6301 38.1806C79.6501 38.2006 79.7001 38.1506 79.6801 38.2906C79.5301 38.9506 79.1001 39.8807 78.6401 40.6507C78.0201 41.7907 77.5801 42.4707 77.3601 42.8307C76.8301 43.6707 76.5001 44.3607 76.2401 45.0107C76.1401 45.2907 76.7301 46.0907 77.1601 45.7807C77.8401 45.2807 78.3601 44.7007 78.9301 43.8307C79.1501 43.4907 79.8301 42.9206 80.4501 41.8806C80.5501 41.7106 80.6301 41.5307 80.6801 41.3307C80.9101 40.4907 81.2801 39.6007 81.5001 38.7607C81.6501 38.2007 81.6701 37.6107 81.4801 37.3007C81.3101 36.9807 81.1201 36.8406 81.1201 36.8406C81.1201 36.8406 81.0601 36.7907 80.9401 36.6907C80.8301 36.6007 80.6101 36.4507 80.4801 36.3907C80.1701 36.2107 79.7701 36.0106 79.3201 35.7906C78.4301 35.3706 77.3801 34.9407 76.7501 34.6907C75.8001 34.3307 75.3501 34.1506 75.0701 34.0406C74.2201 33.7306 73.5201 33.5707 72.8301 33.5107L72.8401 33.5307Z" fill="#101214"/>
</svg>
