<svg width="96" height="96" viewBox="0 0 96 96" fill="none" xmlns="http://www.w3.org/2000/svg">
<path fill-rule="evenodd" clip-rule="evenodd" d="M14 20V62.28H56.28V20H14ZM32.12 29.08H47.22V33.61H32.12V29.08ZM32.12 38.87H47.22V43.4H32.12V38.87ZM24.58 28.3C26.24 28.3 27.6 29.66 27.6 31.32C27.6 32.98 26.24 34.34 24.58 34.34C22.92 34.34 21.56 32.99 21.56 31.32C21.56 29.65 22.91 28.3 24.58 28.3ZM24.58 38.12C26.24 38.12 27.6 39.47 27.6 41.14C27.6 42.81 26.24 44.16 24.58 44.16C22.92 44.16 21.56 42.81 21.56 41.14C21.56 39.47 22.91 38.12 24.58 38.12Z" fill="#1868DB"/>
<path d="M62.02 46.08V53.09H32.12V67.34H62.02V75.76L76.85 60.91L62.02 46.08Z" fill="#BF63F3"/>
<path fill-rule="evenodd" clip-rule="evenodd" d="M32.12 53.09V62.28H56.28V53.09H32.12Z" fill="#09326C"/>
</svg>
