<svg width="96" height="96" viewBox="0 0 96 96" fill="none" xmlns="http://www.w3.org/2000/svg">
<path d="M35.26 22.57V10L15 22.18V69.75L29.4 61.1V27.64L35.26 22.57Z" fill="#1868DB"/>
<path d="M35.2599 22.57V57.57L29.3999 61.09V75.21L43.4599 63.03V15.46L35.2599 22.57Z" fill="#BF63F3"/>
<path d="M35.2599 22.57L29.3999 27.64V61.1L35.2599 57.58V22.57Z" fill="#101214"/>
<path d="M80.26 22.18L60 10V22.57L65.86 27.64V61.1L80.26 69.75V22.18Z" fill="#82B536"/>
<path d="M60 22.57L51.79 15.46V63.03L65.85 75.21V61.09L59.99 57.57V22.57H60Z" fill="#FCA700"/>
<path d="M60 22.57V57.57L65.86 61.09V27.64L60 22.57Z" fill="#101214"/>
<path d="M75.9901 80.4499C76.1001 80.9199 77.2101 80.9399 77.3401 80.4699C77.5201 79.8099 77.6201 79.1199 77.6601 78.2299C77.6401 77.2099 77.4201 76.9499 77.4701 76.2599C77.5201 75.0999 77.8501 73.0899 77.7401 72.3999C77.7401 72.3099 77.7101 72.2099 77.6801 72.1199C77.6101 71.9599 77.5301 71.6299 77.1701 71.1499C76.9801 70.9199 76.7301 70.6899 76.4001 70.5399C76.0901 70.3899 75.6501 70.3099 75.3601 70.3199C74.1201 70.3599 73.1801 70.8099 72.2301 71.0999C70.9401 71.5999 70.1901 71.9499 69.7901 72.1199C68.8501 72.5399 68.2001 72.9499 67.6001 73.4499C67.2701 73.7199 67.6601 74.6099 68.0801 74.5499C68.8501 74.4399 69.6001 74.2399 70.5301 73.8399C70.8901 73.6899 71.7601 73.5899 72.8301 73.2199C73.0001 73.1599 73.1701 73.0799 73.3201 72.9799C73.9701 72.5399 74.8501 72.2099 75.3001 72.2199C75.6401 72.2099 75.6201 72.3999 75.6401 72.3999C75.6401 72.3999 75.6701 72.4499 75.7401 72.6699C75.8001 72.8799 75.8501 73.2699 75.8701 73.7099C75.9101 74.5999 75.8701 75.7199 75.8401 76.3799C75.8101 77.3799 75.7901 77.8699 75.7801 78.1599C75.7601 79.0599 75.8301 79.7699 75.9801 80.4399L75.9901 80.4499Z" fill="#101214"/>
<path d="M75.67 73.1799C76.28 71.5499 75.18 71.2499 74.47 72.5699C73.32 74.4099 71.76 76.0999 69.29 77.7499C67.89 78.6799 66.97 79.2299 66.14 79.6699C65.32 80.1199 64.6 80.4699 63.49 80.8599C61.63 81.5399 59.02 82.1699 56.66 82.5399C54.31 82.9499 52.25 83.0399 51.44 83.0699C51.2 83.0699 50.96 83.0999 50.73 83.1199C49.88 83.1999 47.58 83.4199 44.71 83.2999C41.83 83.1599 38.35 82.7099 35.32 81.6999C33.17 81.0399 31.5 80.2999 30.26 79.5999C29.01 78.9199 28.16 78.3099 27.6 77.8799C26.27 76.8499 25.21 75.8399 24.39 74.7699C23.93 74.2699 23.63 73.6999 23.24 73.1899C22.95 72.6299 22.58 72.1199 22.35 71.5399C21.8 70.3099 20.84 70.4999 21.22 71.9599C21.37 72.6299 21.68 73.2399 21.93 73.8999C22.27 74.5099 22.56 75.1799 23.02 75.7799C23.85 77.0399 24.99 78.2299 26.45 79.3699C27.56 80.2499 29.96 82.1999 33.96 83.5799C34.61 83.7799 35.26 84.0099 35.93 84.1099C38.8 84.6999 42.09 85.0599 44.68 85.1999C47.27 85.3099 49.14 85.2299 49.14 85.2299C49.14 85.2299 51.93 85.1699 55.27 84.6199C58.6 84.0899 62.43 83.0399 64.64 82.1799C67.97 80.8799 69.43 79.8799 70.33 79.3199C73.03 77.5099 74.71 75.4099 75.68 73.1899L75.67 73.1799Z" fill="#101214"/>
<path d="M46.9199 78.0199C47.0299 79.2099 48.1499 79.1899 48.2699 77.9899C48.4399 76.2899 48.5299 74.5199 48.5399 72.2299C48.4899 69.6399 48.2599 68.9999 48.2899 67.2499C48.2899 64.2899 48.6099 59.2799 48.6899 58.0699C48.6999 57.8899 48.6999 57.7099 48.6899 57.5299C48.6499 56.2499 48.4899 50.6599 48.5799 45.8299C48.5799 42.4199 48.5799 40.3199 48.5799 39.2199C48.5799 36.6199 48.4699 34.6799 48.2599 32.7699C48.1499 31.7199 47.1799 31.7199 47.0599 32.7699C46.8399 34.6799 46.7299 36.6199 46.7099 39.2299C46.7099 40.2399 46.4399 42.3499 46.3799 45.3199C46.3799 45.7999 46.3799 46.2899 46.4299 46.7699C46.7899 50.9099 46.6699 56.2999 46.6699 56.2999C46.6699 56.2999 46.6499 64.3299 46.6399 67.7199C46.6399 70.2699 46.6399 71.4999 46.6399 72.2599C46.6399 74.5499 46.7299 76.3199 46.8899 78.0099L46.9199 78.0199Z" fill="#101214"/>
</svg>
