<svg width="96" height="96" viewBox="0 0 96 96" fill="none" xmlns="http://www.w3.org/2000/svg">
<path d="M35.26 22.57V10L15 22.18V69.75L29.4 61.1V27.64L35.26 22.57Z" fill="#1868DB"/>
<path d="M35.2599 22.57V57.57L29.3999 61.09V75.21L43.4599 63.03V15.46L35.2599 22.57Z" fill="#BF63F3"/>
<path d="M35.2599 22.57L29.3999 27.64V61.1L35.2599 57.58V22.57Z" fill="#101214"/>
<path d="M80.26 22.18L60 10V22.57L65.86 27.64V61.1L80.26 69.75V22.18Z" fill="#82B536"/>
<path d="M60 22.57L51.79 15.46V63.03L65.85 75.21V61.09L59.99 57.57V22.57H60Z" fill="#FCA700"/>
<path d="M60 22.57V57.57L65.86 61.09V27.64L60 22.57Z" fill="#101214"/>
</svg>
