<svg width="16" height="16" viewBox="0 0 16 16" fill="none" xmlns="http://www.w3.org/2000/svg">
<path d="M0 4C0 1.79086 1.79086 0 4 0H12C14.2091 0 16 1.79086 16 4V12C16 14.2091 14.2091 16 12 16H4C1.79086 16 0 14.2091 0 12V4Z" fill="#FF5C35"/>
<path fill-rule="evenodd" clip-rule="evenodd" d="M10.6843 5.10074V6.29094C11.8116 6.45722 12.7122 7.27425 12.9432 8.34029C13.1742 9.40637 12.6871 10.4972 11.7214 11.0766C10.7556 11.656 9.51433 11.602 8.60779 10.9412L7.59412 11.9085C7.62042 11.987 7.63433 12.0688 7.63554 12.1512C7.63554 12.4945 7.41883 12.804 7.08646 12.9354C6.75409 13.0667 6.37152 12.9941 6.11713 12.7514C5.86275 12.5086 5.78665 12.1435 5.92432 11.8263C6.062 11.5092 6.38632 11.3023 6.74607 11.3023C6.83239 11.3035 6.91805 11.3169 7.0003 11.3418L8.02496 10.364C7.37892 9.48696 7.36225 8.32162 7.98292 7.42804L4.6159 4.92666C4.45345 5.01698 4.26895 5.06489 4.08093 5.06555C3.48324 5.06487 2.99929 4.60193 3 4.03154C3.00072 3.46116 3.48582 2.99932 4.08352 3C4.68122 3.00068 5.16517 3.46362 5.16446 4.03401C5.16306 4.12105 5.15002 4.20755 5.12565 4.29143L8.55021 6.83418C8.92379 6.54749 9.37012 6.36009 9.844 6.29094V5.10074C9.50754 4.95079 9.29192 4.62912 9.29025 4.27477V4.24699C9.29167 3.74194 9.72033 3.33286 10.2496 3.3315H10.2787C10.8079 3.33286 11.2366 3.74194 11.238 4.24699V4.27477C11.2364 4.62912 11.0207 4.95079 10.6843 5.10074ZM8.86183 8.86758C8.86183 9.60671 9.48971 10.2059 10.2642 10.2059C11.0388 10.2059 11.6667 9.60671 11.6667 8.86758C11.6667 8.12842 11.0388 7.52921 10.2642 7.52921C9.48971 7.52921 8.86183 8.12842 8.86183 8.86758Z" fill="white"/>
</svg>
