<svg width="20" height="20" viewBox="0 0 20 20" fill="none" xmlns="http://www.w3.org/2000/svg">
<path d="M0 5C0 2.23858 2.23858 0 5 0H15C17.7614 0 20 2.23858 20 5V15C20 17.7614 17.7614 20 15 20H5C2.23858 20 0 17.7614 0 15V5Z" fill="#FF5C35"/>
<path fill-rule="evenodd" clip-rule="evenodd" d="M13.2211 6.52089V7.94912C14.5739 8.14867 15.6546 9.1291 15.9318 10.4083C16.2091 11.6876 15.6245 12.9966 14.4656 13.6919C13.3067 14.3872 11.8172 14.3224 10.7293 13.5294L9.51295 14.6902C9.5445 14.7844 9.5612 14.8825 9.56265 14.9814C9.56265 15.3933 9.3026 15.7648 8.90375 15.9224C8.5049 16.0801 8.04582 15.9929 7.74056 15.7016C7.4353 15.4103 7.34398 14.9722 7.50919 14.5916C7.67439 14.211 8.06359 13.9628 8.49529 13.9628C8.59886 13.9642 8.70165 13.9802 8.80036 14.0102L10.0299 12.8368C9.2547 11.7843 9.2347 10.3859 9.9795 9.31365L5.93908 6.31199C5.74414 6.42037 5.52273 6.47786 5.29712 6.47866C4.57988 6.47784 3.99914 5.92231 4 5.23785C4.00086 4.55339 4.58299 3.99918 5.30022 4C6.01746 4.00082 6.5982 4.55635 6.59735 5.24081C6.59567 5.34525 6.58002 5.44906 6.55077 5.54972L10.6602 8.60101C11.1085 8.25699 11.6441 8.0321 12.2128 7.94912V6.52089C11.809 6.34094 11.5503 5.95494 11.5483 5.52972V5.49638C11.55 4.89033 12.0644 4.39943 12.6995 4.3978H12.7344C13.3695 4.39943 13.8839 4.89033 13.8856 5.49638V5.52972C13.8836 5.95494 13.6248 6.34094 13.2211 6.52089ZM11.0342 11.0411C11.0342 11.928 11.7876 12.6471 12.7171 12.6471C13.6466 12.6471 14.4 11.928 14.4 11.0411C14.4 10.1541 13.6466 9.43505 12.7171 9.43505C11.7876 9.43505 11.0342 10.1541 11.0342 11.0411Z" fill="white"/>
</svg>
