<svg width="24" height="24" viewBox="0 0 24 24" fill="none" xmlns="http://www.w3.org/2000/svg">
<path d="M0 6.39569C0 2.86345 2.86345 0 6.39569 0H17.6043C21.1366 0 24 2.86345 24 6.39569V17.6043C24 21.1366 21.1366 24 17.6043 24H6.39569C2.86345 24 0 21.1366 0 17.6043V6.39569Z" fill="#FF5C35"/>
<path fill-rule="evenodd" clip-rule="evenodd" d="M15.7976 7.46507V9.24123C17.4799 9.48939 18.8239 10.7087 19.1686 12.2995C19.5134 13.8905 18.7864 15.5184 17.3452 16.383C15.904 17.2477 14.0516 17.1671 12.6987 16.181L11.186 17.6245C11.2252 17.7417 11.246 17.8637 11.2478 17.9866C11.2478 18.4989 10.9244 18.9609 10.4284 19.1569C9.9324 19.353 9.36148 19.2446 8.98186 18.8823C8.60224 18.5201 8.48867 17.9752 8.69413 17.5019C8.89958 17.0285 9.38358 16.7199 9.92045 16.7199C10.0493 16.7217 10.1771 16.7416 10.2998 16.7788L11.829 15.3196C10.8649 14.0107 10.84 12.2717 11.7662 10.9382L6.74154 7.20528C6.49911 7.34007 6.22376 7.41157 5.94318 7.41256C5.05123 7.41154 4.32901 6.72068 4.33008 5.86948C4.33115 5.01828 5.05509 4.32906 5.94705 4.33008C6.83901 4.3311 7.56122 5.02196 7.56016 5.87316C7.55807 6.00305 7.53861 6.13214 7.50224 6.25732L12.6128 10.0519C13.1703 9.6241 13.8364 9.34443 14.5436 9.24123V7.46507C14.0415 7.24129 13.7197 6.76126 13.7172 6.23245V6.19099C13.7193 5.4373 14.359 4.82681 15.1488 4.82479H15.1922C15.982 4.82681 16.6218 5.4373 16.6239 6.19099V6.23245C16.6214 6.76126 16.2996 7.24129 15.7976 7.46507ZM13.0778 13.0864C13.0778 14.1894 14.0148 15.0837 15.1707 15.0837C16.3266 15.0837 17.2636 14.1894 17.2636 13.0864C17.2636 11.9834 16.3266 11.0891 15.1707 11.0891C14.0148 11.0891 13.0778 11.9834 13.0778 13.0864Z" fill="white"/>
</svg>
