<svg width="32" height="32" viewBox="0 0 32 32" fill="none" xmlns="http://www.w3.org/2000/svg">
<path d="M0 8C0 3.58172 3.58172 0 8 0H24C28.4183 0 32 3.58172 32 8V24C32 28.4183 28.4183 32 24 32H8C3.58172 32 0 28.4183 0 24V8Z" fill="#FF5C35"/>
<path fill-rule="evenodd" clip-rule="evenodd" d="M20.8317 11.7813V13.9237C22.8609 14.223 24.482 15.6936 24.8978 17.6125C25.3136 19.5315 24.4368 21.495 22.6985 22.5379C20.9601 23.5808 18.7258 23.4836 17.094 22.2942L15.2694 24.0354C15.3167 24.1767 15.3418 24.3238 15.344 24.4721C15.344 25.09 14.9539 25.6472 14.3556 25.8837C13.7574 26.1201 13.0687 25.9894 12.6108 25.5525C12.1529 25.1155 12.016 24.4583 12.2638 23.8874C12.5116 23.3165 13.0954 22.9442 13.7429 22.9442C13.8983 22.9464 14.0525 22.9704 14.2005 23.0153L16.0449 21.2552C14.882 19.6765 14.852 17.5789 15.9692 15.9705L9.90863 11.468C9.61622 11.6306 9.2841 11.7168 8.94568 11.718C7.86983 11.7168 6.99872 10.8835 7 9.85677C7.00129 8.83008 7.87448 7.99878 8.95034 8C10.0262 8.00123 10.8973 8.83452 10.896 9.86122C10.8935 10.0179 10.87 10.1736 10.8262 10.3246L16.9904 14.9015C17.6628 14.3855 18.4662 14.0482 19.3192 13.9237V11.7813C18.7136 11.5114 18.3254 10.9324 18.3224 10.2946V10.2446C18.325 9.33549 19.0966 8.59914 20.0492 8.5967H20.1016C21.0542 8.59914 21.8258 9.33549 21.8284 10.2446V10.2946C21.8255 10.9324 21.4373 11.5114 20.8317 11.7813ZM17.5513 18.5616C17.5513 19.8921 18.6815 20.9706 20.0756 20.9706C21.4699 20.9706 22.6001 19.8921 22.6001 18.5616C22.6001 17.2311 21.4699 16.1526 20.0756 16.1526C18.6815 16.1526 17.5513 17.2311 17.5513 18.5616Z" fill="white"/>
</svg>
