<svg width="16" height="16" viewBox="0 0 16 16" fill="none" xmlns="http://www.w3.org/2000/svg">
<path d="M0 4C0 1.79086 1.79086 0 4 0H12C14.2091 0 16 1.79086 16 4V12C16 14.2091 14.2091 16 12 16H4C1.79086 16 0 14.2091 0 12V4Z" fill="#03363D"/>
<path d="M7.69523 6.60095V11.0623H4L7.69523 6.60095ZM7.69523 5C7.69523 5.49002 7.50057 5.95997 7.15407 6.30646C6.80758 6.65295 6.33763 6.84761 5.84761 6.84761C5.3576 6.84761 4.88765 6.65295 4.54115 6.30646C4.19466 5.95997 4 5.49002 4 5H7.69523ZM8.30398 11.0627C8.30398 10.5726 8.49864 10.1027 8.84514 9.75619C9.19163 9.4097 9.66158 9.21504 10.1516 9.21504C10.6416 9.21504 11.1116 9.4097 11.4581 9.75619C11.8045 10.1027 11.9992 10.5726 11.9992 11.0627H8.30398ZM8.30398 9.46171V5H12L8.30398 9.46131V9.46171Z" fill="white"/>
</svg>
