<svg width="20" height="20" viewBox="0 0 20 20" fill="none" xmlns="http://www.w3.org/2000/svg">
<path d="M0 5C0 2.23858 2.23858 0 5 0H15C17.7614 0 20 2.23858 20 5V15C20 17.7614 17.7614 20 15 20H5C2.23858 20 0 17.7614 0 15V5Z" fill="#03363D"/>
<path d="M9.61903 8.00119V13.5778H5L9.61903 8.00119ZM9.61903 6C9.61903 6.61252 9.37571 7.19996 8.94259 7.63307C8.50947 8.06619 7.92204 8.30952 7.30952 8.30952C6.697 8.30952 6.10956 8.06619 5.67644 7.63307C5.24332 7.19996 5 6.61252 5 6H9.61903ZM10.38 13.5783C10.38 12.9658 10.6233 12.3784 11.0564 11.9452C11.4895 11.5121 12.077 11.2688 12.6895 11.2688C13.302 11.2688 13.8895 11.5121 14.3226 11.9452C14.7557 12.3784 14.999 12.9658 14.999 13.5783H10.38ZM10.38 11.5771V6H15L10.38 11.5766V11.5771Z" fill="white"/>
</svg>
