<svg width="24" height="24" viewBox="0 0 24 24" fill="none" xmlns="http://www.w3.org/2000/svg">
<path d="M0 6.39569C0 2.86345 2.86345 0 6.39569 0H17.6043C21.1366 0 24 2.86345 24 6.39569V17.6043C24 21.1366 21.1366 24 17.6043 24H6.39569C2.86345 24 0 21.1366 0 17.6043V6.39569Z" fill="#03363D"/>
<path d="M11.2232 9.44834V17.7705H4.33008L11.2232 9.44834ZM11.2232 6.46191C11.2232 7.376 10.8601 8.25264 10.2137 8.899C9.56736 9.54535 8.69071 9.90847 7.77663 9.90847C6.86255 9.90847 5.9859 9.54535 5.33955 8.899C4.6932 8.25264 4.33008 7.376 4.33008 6.46191H11.2232ZM12.3588 17.7712C12.3588 16.8572 12.7219 15.9805 13.3682 15.3342C14.0146 14.6878 14.8912 14.3247 15.8053 14.3247C16.7194 14.3247 17.596 14.6878 18.2424 15.3342C18.8888 15.9805 19.2519 16.8572 19.2519 17.7712H12.3588ZM12.3588 14.7848V6.46191H19.2533L12.3588 14.7841V14.7848Z" fill="white"/>
</svg>
