<svg width="32" height="32" viewBox="0 0 32 32" fill="none" xmlns="http://www.w3.org/2000/svg">
<path d="M0 8C0 3.58172 3.58172 0 8 0H24C28.4183 0 32 3.58172 32 8V24C32 28.4183 28.4183 32 24 32H8C3.58172 32 0 28.4183 0 24V8Z" fill="#03363D"/>
<path d="M15.3905 13.2019V22.1245H8L15.3905 13.2019ZM15.3905 10C15.3905 10.98 15.0011 11.9199 14.3081 12.6129C13.6152 13.3059 12.6753 13.6952 11.6952 13.6952C10.7152 13.6952 9.7753 13.3059 9.08231 12.6129C8.38932 11.9199 8 10.98 8 10H15.3905ZM16.608 22.1253C16.608 21.1453 16.9973 20.2054 17.6903 19.5124C18.3833 18.8194 19.3232 18.4301 20.3032 18.4301C21.2832 18.4301 22.2231 18.8194 22.9161 19.5124C23.6091 20.2054 23.9984 21.1453 23.9984 22.1253H16.608ZM16.608 18.9234V10H24L16.608 18.9226V18.9234Z" fill="white"/>
</svg>
