<svg width="16" height="16" viewBox="0 0 16 16" fill="none" xmlns="http://www.w3.org/2000/svg">
<g clip-path="url(#clip0_237_7413)">
<path fill-rule="evenodd" clip-rule="evenodd" d="M2.46585 9.91699L1.62878 10.2124L1.58398 12.6174L4.4813 11.5953C3.48744 11.2729 2.76184 10.7054 2.46585 9.91699Z" fill="#FDBD39"/>
<path fill-rule="evenodd" clip-rule="evenodd" d="M2.90398 7.37305L0 8.39768L1.62932 10.2123L2.46612 9.91685C2.17092 9.13073 2.35279 8.24236 2.90398 7.37305Z" fill="#F69833"/>
<path fill-rule="evenodd" clip-rule="evenodd" d="M7.79178 3.90235C4.0934 5.20722 1.70915 7.89989 2.46648 9.9167L15.8587 5.19125C15.1013 3.17444 11.4899 2.59748 7.79178 3.90235Z" fill="#FECF33"/>
<path fill-rule="evenodd" clip-rule="evenodd" d="M10.5323 11.2058C14.2304 9.90063 16.6189 7.22006 15.8576 5.19141L2.46484 9.91686C3.22644 11.9455 6.83389 12.5106 10.5323 11.2058Z" fill="#EE6723"/>
<path fill-rule="evenodd" clip-rule="evenodd" d="M15.8576 5.19141L2.46484 9.91686C2.72698 10.6154 3.72724 10.9595 5.13016 10.9595C6.49816 10.9595 8.24935 10.6327 10.0749 9.98846C13.773 8.68359 16.3749 6.57071 15.857 5.19141" fill="#F69833"/>
<path fill-rule="evenodd" clip-rule="evenodd" d="M13.1929 4.14844C11.825 4.14844 10.0738 4.4753 8.24817 5.11949C4.55006 6.42436 1.94821 8.53698 2.46607 9.91655L15.8583 5.1911C15.5961 4.49256 14.5961 4.14844 13.1929 4.14844Z" fill="#FDBD39"/>
<path fill-rule="evenodd" clip-rule="evenodd" d="M12.4537 12.7446C12.0596 12.7446 11.4785 12.4008 10.7257 11.7228C9.83585 10.9207 8.81613 9.74594 7.85453 8.41454C6.8932 7.08365 6.10307 5.75277 5.63001 4.66735C5.11481 3.48457 5.04121 2.75744 5.41161 2.50579C5.49294 2.45067 5.59081 2.42285 5.70281 2.42285C6.00414 2.42285 6.59134 2.63947 7.67693 3.67209L7.70093 3.69449L7.69747 3.72669C7.69 3.80087 7.68333 3.87583 7.6772 3.94923L7.6652 4.09502L7.55853 3.99148C6.38867 2.853 5.87374 2.73014 5.70654 2.73014C5.65881 2.73014 5.62094 2.73941 5.59374 2.75796C5.43294 2.86691 5.42254 3.40112 5.92228 4.54758C6.38707 5.61368 7.16547 6.92421 8.11426 8.2381C9.06359 9.55224 10.0676 10.7098 10.942 11.4974C11.8846 12.3469 12.3094 12.4386 12.4486 12.4386C12.4966 12.4386 12.5353 12.4288 12.5644 12.409C12.7337 12.2941 12.734 11.7218 12.1766 10.4875L12.151 10.4311L12.207 10.4015C12.263 10.3718 12.3174 10.3427 12.3681 10.3149L12.4353 10.2781L12.4662 10.3463C12.8612 11.2208 13.2305 12.3322 12.7462 12.6612C12.6646 12.7165 12.5662 12.7446 12.4537 12.7446Z" fill="#EE6723"/>
<path fill-rule="evenodd" clip-rule="evenodd" d="M10.6238 11.1689L10.6185 11.2359C10.5249 12.3535 10.2785 13.6968 9.6366 13.7514C9.6238 13.7524 9.61047 13.7529 9.59713 13.7529C9.16087 13.7529 8.74834 13.1494 8.37101 11.9594C8.01367 10.8333 7.73634 9.32187 7.59048 7.70251C7.44434 6.08391 7.44648 4.54826 7.59661 3.37913C7.76008 2.10491 8.07154 1.4396 8.5222 1.40122C8.53554 1.40019 8.5494 1.39941 8.563 1.39941C8.87927 1.39941 9.35607 1.74559 9.84406 3.35698L9.5254 3.41622C9.36247 2.87789 9.18487 2.44001 9.0086 2.13865C8.8454 1.86047 8.687 1.70721 8.5622 1.70721C8.55794 1.70721 8.55394 1.70721 8.54967 1.70773C8.35447 1.72421 8.06994 2.18192 7.91154 3.41699C7.76408 4.56526 7.76221 6.07773 7.90621 7.67572C8.05074 9.27396 8.32327 10.7633 8.6742 11.869C8.83127 12.3641 9.00354 12.7723 9.1726 13.0492C9.32833 13.3047 9.479 13.4454 9.59687 13.4454C9.60087 13.4454 9.60486 13.4454 9.60913 13.4449C9.7958 13.4291 10.1481 12.9529 10.2963 11.2774L10.6238 11.1689Z" fill="#EE6723"/>
</g>
<defs>
<clipPath id="clip0_237_7413">
<path d="M0 4C0 1.79086 1.79086 0 4 0H12C14.2091 0 16 1.79086 16 4V12C16 14.2091 14.2091 16 12 16H4C1.79086 16 0 14.2091 0 12V4Z" fill="white"/>
</clipPath>
</defs>
</svg>
