<svg width="16" height="16" viewBox="0 0 16 16" fill="none" xmlns="http://www.w3.org/2000/svg">
<mask id="path-1-inside-1_237_7402" fill="white">
<path d="M0 4C0 1.79086 1.79086 0 4 0H12C14.2091 0 16 1.79086 16 4V12C16 14.2091 14.2091 16 12 16H4C1.79086 16 0 14.2091 0 12V4Z"/>
</mask>
<path d="M0 4C0 1.79086 1.79086 0 4 0H12C14.2091 0 16 1.79086 16 4V12C16 14.2091 14.2091 16 12 16H4C1.79086 16 0 14.2091 0 12V4Z" fill="white"/>
<path d="M4 0V1H12V0V-1H4V0ZM16 4H15V12H16H17V4H16ZM12 16V15H4V16V17H12V16ZM0 12H1V4H0H-1V12H0ZM4 16V15C2.34315 15 1 13.6569 1 12H0H-1C-1 14.7614 1.23858 17 4 17V16ZM16 12H15C15 13.6569 13.6569 15 12 15V16V17C14.7614 17 17 14.7614 17 12H16ZM12 0V1C13.6569 1 15 2.34315 15 4H16H17C17 1.23858 14.7614 -1 12 -1V0ZM4 0V-1C1.23858 -1 -1 1.23858 -1 4H0H1C1 2.34315 2.34315 1 4 1V0Z" fill="#0B1228" fill-opacity="0.14" mask="url(#path-1-inside-1_237_7402)"/>
<path fill-rule="evenodd" clip-rule="evenodd" d="M4.5414 9.32324L4.01823 9.50789L3.99023 11.011L5.80106 10.3722C5.1799 10.1707 4.7264 9.81601 4.5414 9.32324Z" fill="#FDBD39"/>
<path fill-rule="evenodd" clip-rule="evenodd" d="M4.81499 7.7334L3 8.37379L4.01833 9.50792L4.54133 9.32327C4.35683 8.83195 4.47049 8.27672 4.81499 7.7334Z" fill="#F69833"/>
<path fill-rule="evenodd" clip-rule="evenodd" d="M7.86913 5.56433C5.55765 6.37988 4.06749 8.0628 4.54082 9.32331L12.9109 6.3699C12.4376 5.10939 10.1805 4.74879 7.86913 5.56433Z" fill="#FECF33"/>
<path fill-rule="evenodd" clip-rule="evenodd" d="M9.58316 10.1291C11.8945 9.31338 13.3873 7.63803 12.9115 6.37012L4.54102 9.32353C5.01701 10.5914 7.27167 10.9446 9.58316 10.1291Z" fill="#EE6723"/>
<path fill-rule="evenodd" clip-rule="evenodd" d="M12.9115 6.37012L4.54102 9.32353C4.70485 9.76011 5.33001 9.97519 6.20684 9.97519C7.06184 9.97519 8.15633 9.7709 9.29733 9.36828C11.6087 8.55274 13.2348 7.23219 12.9111 6.37012" fill="#F69833"/>
<path fill-rule="evenodd" clip-rule="evenodd" d="M11.2454 5.71875C10.3904 5.71875 9.29586 5.92304 8.15487 6.32566C5.84354 7.1412 4.21738 8.46159 4.54105 9.32382L12.9112 6.37041C12.7473 5.93382 12.1223 5.71875 11.2454 5.71875Z" fill="#FDBD39"/>
<path fill-rule="evenodd" clip-rule="evenodd" d="M10.7845 11.0908C10.5382 11.0908 10.1751 10.8758 9.70455 10.4521C9.14839 9.95083 8.51106 9.21658 7.91006 8.38445C7.30923 7.55265 6.8154 6.72085 6.51973 6.04246C6.19773 5.30322 6.15173 4.84877 6.38323 4.69149C6.43407 4.65703 6.49523 4.63965 6.56523 4.63965C6.75357 4.63965 7.12056 4.77504 7.79906 5.42042L7.81406 5.43443L7.81189 5.45455C7.80723 5.50091 7.80306 5.54776 7.79923 5.59364L7.79173 5.68476L7.72506 5.62004C6.9939 4.90849 6.67207 4.8317 6.56757 4.8317C6.53773 4.8317 6.51407 4.8375 6.49707 4.84909C6.39657 4.91718 6.39007 5.25107 6.7024 5.9676C6.9929 6.63392 7.4794 7.453 8.07239 8.27418C8.66572 9.09552 9.29322 9.81898 9.83972 10.3113C10.4289 10.8422 10.6944 10.8995 10.7814 10.8995C10.8114 10.8995 10.8355 10.8934 10.8537 10.881C10.9595 10.8092 10.9597 10.4515 10.6114 9.68005L10.5954 9.6448L10.6304 9.62628C10.6654 9.60777 10.6994 9.58958 10.731 9.57219L10.773 9.54917L10.7924 9.59183C11.0392 10.1384 11.27 10.833 10.9674 11.0386C10.9164 11.0732 10.8549 11.0908 10.7845 11.0908Z" fill="#EE6723"/>
<path fill-rule="evenodd" clip-rule="evenodd" d="M9.64109 10.106L9.63776 10.1478C9.57926 10.8463 9.42526 11.6859 9.0241 11.72C9.0161 11.7206 9.00776 11.7209 8.99943 11.7209C8.72676 11.7209 8.46893 11.3438 8.2331 10.6C8.00977 9.8962 7.83643 8.95154 7.74527 7.93944C7.65394 6.92781 7.65527 5.96803 7.7491 5.23732C7.85127 4.44093 8.04593 4.02511 8.3276 4.00113C8.33593 4.00048 8.3446 4 8.3531 4C8.55077 4 8.84876 4.21636 9.15376 5.22348L8.9546 5.2605C8.85276 4.92405 8.74176 4.65037 8.6316 4.46202C8.5296 4.28816 8.4306 4.19238 8.3526 4.19238C8.34993 4.19238 8.34743 4.19238 8.34477 4.1927C8.22277 4.203 8.04493 4.48907 7.94593 5.26099C7.85377 5.97865 7.8526 6.92395 7.9426 7.92269C8.03293 8.9216 8.20327 9.85241 8.4226 10.5435C8.52077 10.8529 8.62843 11.1081 8.7341 11.2811C8.83143 11.4408 8.9256 11.5287 8.99926 11.5287C9.00176 11.5287 9.00426 11.5287 9.00693 11.5284C9.1236 11.5186 9.34376 11.2209 9.43643 10.1737L9.64109 10.106Z" fill="#EE6723"/>
</svg>
