<svg width="20" height="20" viewBox="0 0 20 20" fill="none" xmlns="http://www.w3.org/2000/svg">
<g clip-path="url(#clip0_237_7391)">
<mask id="path-1-inside-1_237_7391" fill="white">
<path d="M0 5C0 2.23858 2.23858 0 5 0H15C17.7614 0 20 2.23858 20 5V15C20 17.7614 17.7614 20 15 20H5C2.23858 20 0 17.7614 0 15V5Z"/>
</mask>
<path d="M0 5C0 2.23858 2.23858 0 5 0H15C17.7614 0 20 2.23858 20 5V15C20 17.7614 17.7614 20 15 20H5C2.23858 20 0 17.7614 0 15V5Z" fill="white"/>
<path fill-rule="evenodd" clip-rule="evenodd" d="M6.00365 16.9199L5.32351 17.16L5.28711 19.114L7.64128 18.2836C6.83374 18.0216 6.24416 17.5605 6.00365 16.9199Z" fill="#FDBD39"/>
<path fill-rule="evenodd" clip-rule="evenodd" d="M6.35959 14.8535L4 15.686L5.32388 17.1604L6.00381 16.9203C5.76395 16.2816 5.91172 15.5598 6.35959 14.8535Z" fill="#F69833"/>
<path fill-rule="evenodd" clip-rule="evenodd" d="M10.3316 12.0341C7.32656 13.0943 5.38927 15.2821 6.00463 16.9208L16.8863 13.0814C16.2709 11.4427 13.3365 10.9739 10.3316 12.0341Z" fill="#FECF33"/>
<path fill-rule="evenodd" clip-rule="evenodd" d="M12.557 17.9677C15.5619 16.9073 17.5026 14.7293 16.884 13.0811L6.00195 16.9205C6.62078 18.5688 9.55196 19.0279 12.557 17.9677Z" fill="#EE6723"/>
<path fill-rule="evenodd" clip-rule="evenodd" d="M16.884 13.0811L6.00195 16.9205C6.21494 17.488 7.02769 17.7676 8.16762 17.7676C9.27916 17.7676 10.7021 17.5021 12.1854 16.9787C15.1903 15.9185 17.3044 14.2017 16.8836 13.0811" fill="#F69833"/>
<path fill-rule="evenodd" clip-rule="evenodd" d="M14.7205 12.2334C13.609 12.2334 12.1861 12.499 10.7027 13.0224C7.69785 14.0826 5.58376 15.7991 6.00454 16.92L16.8862 13.0806C16.6732 12.513 15.8607 12.2334 14.7205 12.2334Z" fill="#FDBD39"/>
<path fill-rule="evenodd" clip-rule="evenodd" d="M14.1194 19.2184C13.7991 19.2184 13.327 18.9391 12.7153 18.3882C11.9923 17.7365 11.1637 16.782 10.3824 15.7003C9.60128 14.6189 8.95927 13.5376 8.57489 12.6557C8.15627 11.6947 8.09647 11.1039 8.39743 10.8994C8.46352 10.8546 8.54304 10.832 8.63404 10.832C8.87888 10.832 9.356 11.008 10.2381 11.847L10.2576 11.8652L10.2548 11.8914C10.2487 11.9517 10.2433 12.0126 10.2383 12.0722L10.2286 12.1907L10.1419 12.1065C9.19133 11.1815 8.77293 11.0817 8.63707 11.0817C8.59829 11.0817 8.56752 11.0892 8.54542 11.1043C8.41476 11.1928 8.40631 11.6269 8.81236 12.5584C9.19003 13.4246 9.8225 14.4894 10.5934 15.5569C11.3648 16.6247 12.1806 17.5651 12.8911 18.2051C13.657 18.8953 14.0022 18.9698 14.1153 18.9698C14.1543 18.9698 14.1857 18.9619 14.2093 18.9458C14.3469 18.8524 14.3471 18.3874 13.8943 17.3845L13.8735 17.3387L13.919 17.3146C13.9645 17.2906 14.0087 17.2669 14.0498 17.2443L14.1044 17.2144L14.1296 17.2699C14.4505 17.9804 14.7506 18.8834 14.3571 19.1506C14.2908 19.1956 14.2108 19.2184 14.1194 19.2184Z" fill="#EE6723"/>
<path fill-rule="evenodd" clip-rule="evenodd" d="M12.6326 17.9377L12.6282 17.9921C12.5522 18.9002 12.352 19.9916 11.8304 20.036C11.82 20.0368 11.8092 20.0372 11.7984 20.0372C11.4439 20.0372 11.1087 19.5469 10.8021 18.58C10.5117 17.665 10.2864 16.437 10.1679 15.1213C10.0491 13.8061 10.0509 12.5584 10.1729 11.6085C10.3057 10.5732 10.5588 10.0326 10.9249 10.0015C10.9358 10.0006 10.947 10 10.9581 10C11.2151 10 11.6025 10.2813 11.999 11.5905L11.7401 11.6387C11.6077 11.2013 11.4634 10.8455 11.3202 10.6006C11.1875 10.3746 11.0588 10.2501 10.9574 10.2501C10.954 10.2501 10.9507 10.2501 10.9473 10.2505C10.7887 10.2639 10.5575 10.6358 10.4288 11.6393C10.3089 12.5722 10.3074 13.8011 10.4244 15.0995C10.5419 16.3981 10.7633 17.6081 11.0484 18.5065C11.1761 18.9088 11.316 19.2405 11.4534 19.4655C11.5799 19.6731 11.7024 19.7873 11.7981 19.7873C11.8014 19.7873 11.8046 19.7873 11.8081 19.7869C11.9598 19.7741 12.246 19.3872 12.3665 18.0258L12.6326 17.9377Z" fill="#EE6723"/>
</g>
<path d="M5 0V1H15V0V-1H5V0ZM20 5H19V15H20H21V5H20ZM15 20V19H5V20V21H15V20ZM0 15H1V5H0H-1V15H0ZM5 20V19C2.79086 19 1 17.2091 1 15H0H-1C-1 18.3137 1.68629 21 5 21V20ZM20 15H19C19 17.2091 17.2091 19 15 19V20V21C18.3137 21 21 18.3137 21 15H20ZM15 0V1C17.2091 1 19 2.79086 19 5H20H21C21 1.68629 18.3137 -1 15 -1V0ZM5 0V-1C1.68629 -1 -1 1.68629 -1 5H0H1C1 2.79086 2.79086 1 5 1V0Z" fill="#0B1228" fill-opacity="0.14" mask="url(#path-1-inside-1_237_7391)"/>
<defs>
<clipPath id="clip0_237_7391">
<path d="M0 5C0 2.23858 2.23858 0 5 0H15C17.7614 0 20 2.23858 20 5V15C20 17.7614 17.7614 20 15 20H5C2.23858 20 0 17.7614 0 15V5Z" fill="white"/>
</clipPath>
</defs>
</svg>
