<svg width="24" height="24" viewBox="0 0 24 24" fill="none" xmlns="http://www.w3.org/2000/svg">
<mask id="path-1-inside-1_237_7380" fill="white">
<path d="M0 6.39569C0 2.86345 2.86345 0 6.39569 0H17.6043C21.1366 0 24 2.86345 24 6.39569V17.6043C24 21.1366 21.1366 24 17.6043 24H6.39569C2.86345 24 0 21.1366 0 17.6043V6.39569Z"/>
</mask>
<path d="M0 6.39569C0 2.86345 2.86345 0 6.39569 0H17.6043C21.1366 0 24 2.86345 24 6.39569V17.6043C24 21.1366 21.1366 24 17.6043 24H6.39569C2.86345 24 0 21.1366 0 17.6043V6.39569Z" fill="white"/>
<path d="M6.39569 0V1H17.6043V0V-1H6.39569V0ZM24 6.39569H23V17.6043H24H25V6.39569H24ZM17.6043 24V23H6.39569V24V25H17.6043V24ZM0 17.6043H1V6.39569H0H-1V17.6043H0ZM6.39569 24V23C3.41573 23 1 20.5843 1 17.6043H0H-1C-1 21.6888 2.31116 25 6.39569 25V24ZM24 17.6043H23C23 20.5843 20.5843 23 17.6043 23V24V25C21.6888 25 25 21.6888 25 17.6043H24ZM17.6043 0V1C20.5843 1 23 3.41573 23 6.39569H24H25C25 2.31116 21.6888 -1 17.6043 -1V0ZM6.39569 0V-1C2.31116 -1 -1 2.31116 -1 6.39569H0H1C1 3.41573 3.41573 1 6.39569 1V0Z" fill="#0B1228" fill-opacity="0.14" mask="url(#path-1-inside-1_237_7380)"/>
<path fill-rule="evenodd" clip-rule="evenodd" d="M5.7753 14.582L4.8336 14.9144L4.7832 17.62L8.04268 16.4702C6.92459 16.1074 6.10829 15.469 5.7753 14.582Z" fill="#FDBD39"/>
<path fill-rule="evenodd" clip-rule="evenodd" d="M6.26698 11.7197L3 12.8724L4.83299 14.9139L5.77438 14.5815C5.44229 13.6971 5.64688 12.6977 6.26698 11.7197Z" fill="#F69833"/>
<path fill-rule="evenodd" clip-rule="evenodd" d="M11.766 7.8158C7.60532 9.28378 4.92304 12.313 5.77503 14.5819L20.8412 9.26581C19.9892 6.99691 15.9264 6.34782 11.766 7.8158Z" fill="#FECF33"/>
<path fill-rule="evenodd" clip-rule="evenodd" d="M14.8512 16.0318C19.0116 14.5635 21.6987 11.5479 20.8422 9.26562L5.77539 14.5818C6.63219 16.864 10.6906 17.4997 14.8512 16.0318Z" fill="#EE6723"/>
<path fill-rule="evenodd" clip-rule="evenodd" d="M20.8422 9.26562L5.77539 14.5818C6.07029 15.3676 7.19558 15.7547 8.77387 15.7547C10.3129 15.7547 12.283 15.387 14.3367 14.6623C18.4971 13.1943 21.4242 10.8173 20.8416 9.26562" fill="#F69833"/>
<path fill-rule="evenodd" clip-rule="evenodd" d="M17.8428 8.09277C16.3038 8.09277 14.3337 8.46049 12.2799 9.18521C8.11955 10.6532 5.19246 13.0299 5.77506 14.5819L20.8413 9.26576C20.5464 8.47991 19.4214 8.09277 17.8428 8.09277Z" fill="#FDBD39"/>
<path fill-rule="evenodd" clip-rule="evenodd" d="M17.0114 17.7633C16.568 17.7633 15.9143 17.3765 15.0674 16.6138C14.0663 15.7115 12.9191 14.3898 11.8373 12.892C10.7558 11.3948 9.86693 9.89752 9.33474 8.67643C8.75514 7.3458 8.67234 6.52778 9.08904 6.24467C9.18054 6.18266 9.29064 6.15137 9.41664 6.15137C9.75563 6.15137 10.4162 6.39506 11.6375 7.55675L11.6645 7.58196L11.6606 7.61819C11.6522 7.70164 11.6447 7.78596 11.6378 7.86855L11.6243 8.03256L11.5043 7.91607C10.1882 6.63528 9.60894 6.49706 9.42084 6.49706C9.36714 6.49706 9.32454 6.50749 9.29394 6.52836C9.11304 6.65093 9.10134 7.25192 9.66354 8.54168C10.1864 9.74104 11.0621 11.2154 12.1295 12.6935C13.1975 14.1719 14.327 15.4741 15.3107 16.3603C16.3712 17.3159 16.8491 17.4191 17.0057 17.4191C17.0597 17.4191 17.1032 17.4081 17.1359 17.3858C17.3264 17.2565 17.3267 16.6127 16.6997 15.2241L16.6709 15.1606L16.7339 15.1273C16.7969 15.094 16.8581 15.0612 16.9151 15.0299L16.9907 14.9885L17.0255 15.0653C17.4698 16.0491 17.8853 17.2994 17.3405 17.6694C17.2487 17.7318 17.138 17.7633 17.0114 17.7633Z" fill="#EE6723"/>
<path fill-rule="evenodd" clip-rule="evenodd" d="M14.952 15.9907L14.946 16.066C14.8407 17.3234 14.5635 18.8345 13.8414 18.8959C13.827 18.8971 13.812 18.8977 13.797 18.8977C13.3062 18.8977 12.8421 18.2187 12.4176 16.88C12.0156 15.6131 11.7036 13.9128 11.5395 12.091C11.3751 10.2701 11.3775 8.54244 11.5464 7.22718C11.7303 5.79368 12.0807 5.0452 12.5877 5.00203C12.6027 5.00087 12.6183 5 12.6336 5C12.9894 5 13.5258 5.38945 14.0748 7.20226L13.7163 7.2689C13.533 6.66328 13.3332 6.17067 13.1349 5.83164C12.9513 5.51869 12.7731 5.34628 12.6327 5.34628C12.6279 5.34628 12.6234 5.34628 12.6186 5.34686C12.399 5.3654 12.0789 5.88032 11.9007 7.26977C11.7348 8.56157 11.7327 10.2631 11.8947 12.0608C12.0573 13.8589 12.3639 15.5343 12.7587 16.7783C12.9354 17.3352 13.1292 17.7945 13.3194 18.106C13.4946 18.3935 13.6641 18.5517 13.7967 18.5517C13.8012 18.5517 13.8057 18.5517 13.8105 18.5511C14.0205 18.5334 14.4168 17.9977 14.5836 16.1127L14.952 15.9907Z" fill="#EE6723"/>
</svg>
