<svg width="32" height="32" viewBox="0 0 32 32" fill="none" xmlns="http://www.w3.org/2000/svg">
<mask id="path-1-inside-1_237_7369" fill="white">
<path d="M0 8C0 3.58172 3.58172 0 8 0H24C28.4183 0 32 3.58172 32 8V24C32 28.4183 28.4183 32 24 32H8C3.58172 32 0 28.4183 0 24V8Z"/>
</mask>
<path d="M0 8C0 3.58172 3.58172 0 8 0H24C28.4183 0 32 3.58172 32 8V24C32 28.4183 28.4183 32 24 32H8C3.58172 32 0 28.4183 0 24V8Z" fill="white"/>
<path d="M8 0V1H24V0V-1H8V0ZM32 8H31V24H32H33V8H32ZM24 32V31H8V32V33H24V32ZM0 24H1V8H0H-1V24H0ZM8 32V31C4.13401 31 1 27.866 1 24H0H-1C-1 28.9706 3.02944 33 8 33V32ZM32 24H31C31 27.866 27.866 31 24 31V32V33C28.9706 33 33 28.9706 33 24H32ZM24 0V1C27.866 1 31 4.13401 31 8H32H33C33 3.02944 28.9706 -1 24 -1V0ZM8 0V-1C3.02944 -1 -1 3.02944 -1 8H0H1C1 4.13401 4.13401 1 8 1V0Z" fill="#0B1228" fill-opacity="0.14" mask="url(#path-1-inside-1_237_7369)"/>
<path fill-rule="evenodd" clip-rule="evenodd" d="M9.4281 18.7109L8.43406 19.0618L8.38086 21.9177L11.8215 20.704C10.6413 20.321 9.77961 19.6472 9.4281 18.7109Z" fill="#FDBD39"/>
<path fill-rule="evenodd" clip-rule="evenodd" d="M9.94859 15.6904L6.5 16.9072L8.43488 19.0621L9.42861 18.7112C9.07805 17.7777 9.29402 16.7227 9.94859 15.6904Z" fill="#F69833"/>
<path fill-rule="evenodd" clip-rule="evenodd" d="M15.7523 11.5694C11.3604 13.119 8.52898 16.3166 9.42834 18.7115L25.3321 13.1C24.4327 10.705 20.144 10.0199 15.7523 11.5694Z" fill="#FECF33"/>
<path fill-rule="evenodd" clip-rule="evenodd" d="M19.0061 20.2417C23.3978 18.6919 26.2343 15.5087 25.3301 13.0996L9.42578 18.7111C10.3302 21.1202 14.6142 21.7913 19.0061 20.2417Z" fill="#EE6723"/>
<path fill-rule="evenodd" clip-rule="evenodd" d="M25.3301 13.0996L9.42578 18.7111C9.73707 19.5407 10.9249 19.9493 12.5909 19.9493C14.2155 19.9493 16.2951 19.5612 18.463 18.7962C22.8547 17.2466 25.9445 14.7376 25.3295 13.0996" fill="#F69833"/>
<path fill-rule="evenodd" clip-rule="evenodd" d="M22.1662 11.8613C20.5416 11.8613 18.462 12.2495 16.2941 13.0145C11.9024 14.564 8.81262 17.0728 9.42761 18.711L25.3313 13.0995C25.02 12.27 23.8325 11.8613 22.1662 11.8613Z" fill="#FDBD39"/>
<path fill-rule="evenodd" clip-rule="evenodd" d="M21.2886 22.0697C20.8205 22.0697 20.1305 21.6614 19.2365 20.8563C18.1798 19.9038 16.9688 18.5088 15.8269 16.9277C14.6853 15.3473 13.7469 13.7668 13.1852 12.4779C12.5733 11.0733 12.4859 10.2098 12.9258 9.91099C13.0224 9.84553 13.1386 9.8125 13.2716 9.8125C13.6295 9.8125 14.3268 10.0697 15.616 11.296L15.6445 11.3226L15.6403 11.3608C15.6315 11.4489 15.6236 11.5379 15.6163 11.6251L15.602 11.7982L15.4754 11.6753C14.0861 10.3233 13.4746 10.1774 13.2761 10.1774C13.2194 10.1774 13.1744 10.1884 13.1421 10.2104C12.9511 10.3398 12.9388 10.9742 13.5322 12.3356C14.0842 13.6016 15.0086 15.1579 16.1353 16.7182C17.2627 18.2787 18.455 19.6533 19.4933 20.5887C20.6128 21.5975 21.1172 21.7063 21.2825 21.7063C21.3395 21.7063 21.3855 21.6947 21.42 21.6712C21.6211 21.5348 21.6214 20.8551 20.9595 19.3894L20.9291 19.3224L20.9956 19.2872C21.0621 19.252 21.1267 19.2175 21.1869 19.1844L21.2667 19.1407L21.3034 19.2217C21.7724 20.2602 22.211 21.58 21.636 21.9706C21.5391 22.0364 21.4222 22.0697 21.2886 22.0697Z" fill="#EE6723"/>
<path fill-rule="evenodd" clip-rule="evenodd" d="M19.1153 20.1981L19.1089 20.2776C18.9978 21.6048 18.7052 23.1999 17.9429 23.2648C17.9277 23.266 17.9119 23.2666 17.8961 23.2666C17.378 23.2666 16.8881 22.55 16.44 21.1368C16.0156 19.7996 15.6863 18.0047 15.5131 16.0817C15.3395 14.1596 15.3421 12.336 15.5204 10.9476C15.7145 9.43446 16.0844 8.6444 16.6195 8.59882C16.6354 8.5976 16.6518 8.59668 16.668 8.59668C17.0436 8.59668 17.6098 9.00777 18.1893 10.9213L17.8109 10.9917C17.6174 10.3524 17.4065 9.8324 17.1972 9.47453C17.0034 9.14419 16.8153 8.9622 16.667 8.9622C16.662 8.9622 16.6572 8.9622 16.6522 8.96281C16.4204 8.98238 16.0825 9.52592 15.8944 10.9926C15.7192 12.3562 15.717 14.1522 15.888 16.0499C16.0597 17.9478 16.3833 19.7164 16.8001 21.0295C16.9866 21.6174 17.1911 22.1022 17.3919 22.431C17.5769 22.7344 17.7558 22.9014 17.8957 22.9014C17.9005 22.9014 17.9052 22.9014 17.9103 22.9008C18.132 22.8821 18.5503 22.3166 18.7264 20.3269L19.1153 20.1981Z" fill="#EE6723"/>
</svg>
