<svg width="16" height="16" viewBox="0 0 16 16" fill="none" xmlns="http://www.w3.org/2000/svg">
<path d="M11.5233 11.5076V15.5828C11.5233 15.7969 11.3498 15.9698 11.1351 15.9698H0.38824C0.173469 15.9698 0 15.7969 0 15.5828V4.88011C0 4.66605 0.173469 4.49316 0.38824 4.49316H4.4689V11.1206C4.4689 11.3347 4.64236 11.5076 4.85714 11.5076H11.5233Z" fill="#4C00FF"/>
<path d="M15.9999 5.76036C15.9999 9.18523 13.9926 11.4987 11.5227 11.5069V7.19288C11.5227 7.06939 11.4732 6.9459 11.3823 6.86357L9.13545 4.62423C9.04458 4.53367 8.92894 4.48427 8.80503 4.48427H4.47656V0.41724C4.47656 0.203185 4.65003 0.0302954 4.8648 0.0302954H10.9197C13.7943 0.0220626 15.9999 2.32726 15.9999 5.76036Z" fill="#FF5252"/>
<path d="M11.3823 6.85544C11.4732 6.946 11.5227 7.06126 11.5227 7.18475V11.4988H4.8648C4.65003 11.4988 4.47656 11.3259 4.47656 11.1118V4.48438H8.80503C8.92894 4.48438 9.05284 4.53377 9.13545 4.62433L11.3823 6.85544Z" fill="black"/>
</svg>
