<svg width="16" height="16" viewBox="0 0 16 16" fill="none" xmlns="http://www.w3.org/2000/svg">
<mask id="path-1-inside-1_237_8227" fill="white">
<path d="M0 4C0 1.79086 1.79086 0 4 0H12C14.2091 0 16 1.79086 16 4V12C16 14.2091 14.2091 16 12 16H4C1.79086 16 0 14.2091 0 12V4Z"/>
</mask>
<path d="M0 4C0 1.79086 1.79086 0 4 0H12C14.2091 0 16 1.79086 16 4V12C16 14.2091 14.2091 16 12 16H4C1.79086 16 0 14.2091 0 12V4Z" fill="white"/>
<path d="M4 0V1H12V0V-1H4V0ZM16 4H15V12H16H17V4H16ZM12 16V15H4V16V17H12V16ZM0 12H1V4H0H-1V12H0ZM4 16V15C2.34315 15 1 13.6569 1 12H0H-1C-1 14.7614 1.23858 17 4 17V16ZM16 12H15C15 13.6569 13.6569 15 12 15V16V17C14.7614 17 17 14.7614 17 12H16ZM12 0V1C13.6569 1 15 2.34315 15 4H16H17C17 1.23858 14.7614 -1 12 -1V0ZM4 0V-1C1.23858 -1 -1 1.23858 -1 4H0H1C1 2.34315 2.34315 1 4 1V0Z" fill="#0B1228" fill-opacity="0.14" mask="url(#path-1-inside-1_237_8227)"/>
<path d="M10.1278 10.1196V12.5816C10.1278 12.711 10.023 12.8154 9.89326 12.8154H3.40057C3.27082 12.8154 3.16602 12.711 3.16602 12.5816V6.11561C3.16602 5.98629 3.27082 5.88184 3.40057 5.88184H5.86589V9.8858C5.86589 10.0151 5.9707 10.1196 6.10045 10.1196H10.1278Z" fill="#4C00FF"/>
<path d="M12.8329 6.64738C12.8329 8.71651 11.6202 10.1142 10.128 10.1191V7.51283C10.128 7.43822 10.0981 7.36361 10.0432 7.31388L8.68576 5.96098C8.63086 5.90627 8.56099 5.87643 8.48613 5.87643H5.87109V3.41933C5.87109 3.29001 5.9759 3.18556 6.10565 3.18556H9.76371C11.5004 3.18059 12.8329 4.57327 12.8329 6.64738Z" fill="#FF5252"/>
<path d="M10.0432 7.30845C10.0981 7.36316 10.128 7.4328 10.128 7.50741V10.1137H6.10565C5.9759 10.1137 5.87109 10.0093 5.87109 9.87995V5.87598H8.48613C8.56099 5.87598 8.63585 5.90582 8.68576 5.96053L10.0432 7.30845Z" fill="black"/>
</svg>
