<svg width="20" height="20" viewBox="0 0 20 20" fill="none" xmlns="http://www.w3.org/2000/svg">
<mask id="path-1-inside-1_237_8222" fill="white">
<path d="M0 5C0 2.23858 2.23858 0 5 0H15C17.7614 0 20 2.23858 20 5V15C20 17.7614 17.7614 20 15 20H5C2.23858 20 0 17.7614 0 15V5Z"/>
</mask>
<path d="M0 5C0 2.23858 2.23858 0 5 0H15C17.7614 0 20 2.23858 20 5V15C20 17.7614 17.7614 20 15 20H5C2.23858 20 0 17.7614 0 15V5Z" fill="white"/>
<path d="M5 0V1H15V0V-1H5V0ZM20 5H19V15H20H21V5H20ZM15 20V19H5V20V21H15V20ZM0 15H1V5H0H-1V15H0ZM5 20V19C2.79086 19 1 17.2091 1 15H0H-1C-1 18.3137 1.68629 21 5 21V20ZM20 15H19C19 17.2091 17.2091 19 15 19V20V21C18.3137 21 21 18.3137 21 15H20ZM15 0V1C17.2091 1 19 2.79086 19 5H20H21C21 1.68629 18.3137 -1 15 -1V0ZM5 0V-1C1.68629 -1 -1 1.68629 -1 5H0H1C1 2.79086 2.79086 1 5 1V0Z" fill="#0B1228" fill-opacity="0.14" mask="url(#path-1-inside-1_237_8222)"/>
<path d="M13.2012 12.1728V14.7197C13.2012 14.8534 13.0928 14.9615 12.9586 14.9615H6.24262C6.10841 14.9615 6 14.8534 6 14.7197V8.03089C6 7.89711 6.10841 7.78906 6.24262 7.78906H8.79273V11.931C8.79273 12.0647 8.90113 12.1728 9.03535 12.1728H13.2012Z" fill="#4C00FF"/>
<path d="M16 8.58108C16 10.7215 14.7456 12.1673 13.2021 12.1724V9.47635C13.2021 9.39917 13.1712 9.32199 13.1144 9.27054L11.7103 7.87104C11.6535 7.81445 11.5812 7.78358 11.5038 7.78358H8.79883V5.24184C8.79883 5.10806 8.90723 5.00001 9.04145 5.00001H12.8253C14.6217 4.99487 16 6.43553 16 8.58108Z" fill="#FF5252"/>
<path d="M13.1144 9.26503C13.1712 9.32162 13.2021 9.39366 13.2021 9.47083V12.1669H9.04145C8.90723 12.1669 8.79883 12.0589 8.79883 11.9251V7.7832H11.5038C11.5812 7.7832 11.6587 7.81407 11.7103 7.87067L13.1144 9.26503Z" fill="black"/>
</svg>
