<svg width="24" height="24" viewBox="0 0 24 24" fill="none" xmlns="http://www.w3.org/2000/svg">
<mask id="path-1-inside-1_237_8217" fill="white">
<path d="M0 6.39569C0 2.86345 2.86345 0 6.39569 0H17.6043C21.1366 0 24 2.86345 24 6.39569V17.6043C24 21.1366 21.1366 24 17.6043 24H6.39569C2.86345 24 0 21.1366 0 17.6043V6.39569Z"/>
</mask>
<path d="M0 6.39569C0 2.86345 2.86345 0 6.39569 0H17.6043C21.1366 0 24 2.86345 24 6.39569V17.6043C24 21.1366 21.1366 24 17.6043 24H6.39569C2.86345 24 0 21.1366 0 17.6043V6.39569Z" fill="white"/>
<path d="M6.39569 0V1H17.6043V0V-1H6.39569V0ZM24 6.39569H23V17.6043H24H25V6.39569H24ZM17.6043 24V23H6.39569V24V25H17.6043V24ZM0 17.6043H1V6.39569H0H-1V17.6043H0ZM6.39569 24V23C3.41573 23 1 20.5843 1 17.6043H0H-1C-1 21.6888 2.31116 25 6.39569 25V24ZM24 17.6043H23C23 20.5843 20.5843 23 17.6043 23V24V25C21.6888 25 25 21.6888 25 17.6043H24ZM17.6043 0V1C20.5843 1 23 3.41573 23 6.39569H24H25C25 2.31116 21.6888 -1 17.6043 -1V0ZM6.39569 0V-1C2.31116 -1 -1 2.31116 -1 6.39569H0H1C1 3.41573 3.41573 1 6.39569 1V0Z" fill="#0B1228" fill-opacity="0.14" mask="url(#path-1-inside-1_237_8217)"/>
<path d="M15.1927 15.1789V18.872C15.1927 19.066 15.0355 19.2226 14.8409 19.2226H5.10183C4.9072 19.2226 4.75 19.066 4.75 18.872V9.17292C4.75 8.97894 4.9072 8.82227 5.10183 8.82227H8.79982V14.8282C8.79982 15.0222 8.95702 15.1789 9.15165 15.1789H15.1927Z" fill="#4C00FF"/>
<path d="M19.2493 9.97106C19.2493 13.0748 17.4303 15.1712 15.192 15.1787V11.2692C15.192 11.1573 15.1471 11.0454 15.0648 10.9708L13.0286 8.94147C12.9463 8.8594 12.8415 8.81464 12.7292 8.81464H8.80664V5.129C8.80664 4.93502 8.96384 4.77834 9.15847 4.77834H14.6456C17.2506 4.77088 19.2493 6.85991 19.2493 9.97106Z" fill="#FF5252"/>
<path d="M15.0648 10.9632C15.1471 11.0452 15.192 11.1497 15.192 11.2616V15.1711H9.15847C8.96384 15.1711 8.80664 15.0144 8.80664 14.8204V8.81445H12.7292C12.8415 8.81445 12.9538 8.85922 13.0286 8.94129L15.0648 10.9632Z" fill="black"/>
</svg>
