<svg width="32" height="32" viewBox="0 0 32 32" fill="none" xmlns="http://www.w3.org/2000/svg">
<mask id="path-1-inside-1_237_8212" fill="white">
<path d="M0 8C0 3.58172 3.58172 0 8 0H24C28.4183 0 32 3.58172 32 8V24C32 28.4183 28.4183 32 24 32H8C3.58172 32 0 28.4183 0 24V8Z"/>
</mask>
<path d="M0 8C0 3.58172 3.58172 0 8 0H24C28.4183 0 32 3.58172 32 8V24C32 28.4183 28.4183 32 24 32H8C3.58172 32 0 28.4183 0 24V8Z" fill="white"/>
<path d="M8 0V1H24V0V-1H8V0ZM32 8H31V24H32H33V8H32ZM24 32V31H8V32V33H24V32ZM0 24H1V8H0H-1V24H0ZM8 32V31C4.13401 31 1 27.866 1 24H0H-1C-1 28.9706 3.02944 33 8 33V32ZM32 24H31C31 27.866 27.866 31 24 31V32V33C28.9706 33 33 28.9706 33 24H32ZM24 0V1C27.866 1 31 4.13401 31 8H32H33C33 3.02944 28.9706 -1 24 -1V0ZM8 0V-1C3.02944 -1 -1 3.02944 -1 8H0H1C1 4.13401 4.13401 1 8 1V0Z" fill="#0B1228" fill-opacity="0.14" mask="url(#path-1-inside-1_237_8212)"/>
<path d="M20.2556 20.2382V25.1623C20.2556 25.421 20.046 25.6299 19.7865 25.6299H6.80114C6.54163 25.6299 6.33203 25.421 6.33203 25.1623V12.2302C6.33203 11.9716 6.54163 11.7627 6.80114 11.7627H11.7318V19.7706C11.7318 20.0293 11.9414 20.2382 12.2009 20.2382H20.2556Z" fill="#4C00FF"/>
<path d="M25.6658 13.2948C25.6658 17.433 23.2404 20.2283 20.256 20.2383V15.0257C20.256 14.8764 20.1962 14.7272 20.0864 14.6278L17.3715 11.922C17.2617 11.8125 17.122 11.7529 16.9723 11.7529H11.7422V6.83866C11.7422 6.58002 11.9518 6.37112 12.2113 6.37112H19.5274C23.0008 6.36117 25.6658 9.14654 25.6658 13.2948Z" fill="#FF5252"/>
<path d="M20.0864 14.6179C20.1962 14.7273 20.256 14.8666 20.256 15.0158V20.2284H12.2113C11.9518 20.2284 11.7422 20.0195 11.7422 19.7609V11.7529H16.9723C17.122 11.7529 17.2717 11.8126 17.3715 11.922L20.0864 14.6179Z" fill="black"/>
</svg>
