<svg width="275" height="275" viewBox="0 0 275 275" fill="none" xmlns="http://www.w3.org/2000/svg">
<path d="M252.19 144H241.86L236.89 131.48H208.9C209.34 105.59 211.98 81.6105 216.72 60.0005H80.86C80.46 63.9205 80.1 67.8905 79.76 71.8805H40.59L45.56 84.4105H95.07L100.04 96.9405H78.05C78.05 97.1005 78.03 97.2605 78.02 97.4205L77.83 96.9405H18L22.97 109.47H40.6L45.57 122H77.19C77.08 127.4 77.02 132.83 77.02 138.32C77.02 156.29 77.57 173.69 78.62 190.53H55.04L60.01 203.06H45.06L50.03 215.59H216.38C214.05 204.77 212.26 193.36 211 181.4H189.24L184.27 168.87H201.65L196.68 156.34L257.17 156.52L252.2 143.99L252.19 144Z" fill="#4B4D51"/>
<path d="M77.1797 122H106L101.03 109.47H77.1797V122Z" fill="#7E8188"/>
<path d="M81.1087 215.601H109.929L104.959 203.061H80.2188L81.1087 215.601Z" fill="#7E8188"/>
<path d="M208.171 143.831H189.891L194.861 156.371H199.441H208.171V143.831Z" fill="#7E8188"/>
<path d="M177.118 147.531C177.518 145.291 177.728 142.911 177.728 140.391C177.728 137.841 177.518 135.421 177.108 133.161C174.688 119.671 165.308 111.351 152.168 109.211C149.928 108.851 147.578 108.661 145.128 108.661C142.578 108.661 140.128 108.861 137.798 109.251C124.648 111.451 115.288 119.741 112.858 133.161C112.448 135.431 112.238 137.841 112.238 140.391C112.238 142.911 112.448 145.291 112.848 147.531C115.258 160.931 124.618 169.241 137.798 171.441C140.128 171.831 142.578 172.031 145.128 172.031C147.578 172.031 149.928 171.841 152.168 171.481C165.328 169.341 174.718 161.011 177.118 147.531Z" fill="#1558BC"/>
<path fill-rule="evenodd" clip-rule="evenodd" d="M164.851 143.881H126.211V136.881H164.851V143.881Z" fill="#101214"/>
<path fill-rule="evenodd" clip-rule="evenodd" d="M142.031 159.701V121.061H149.031V159.701H142.031Z" fill="#101214"/>
</svg>
