<svg width="81" height="80" viewBox="0 0 81 80" fill="none" xmlns="http://www.w3.org/2000/svg">
<mask id="mask0_213_29819" style="mask-type:luminance" maskUnits="userSpaceOnUse" x="9" y="14" width="59" height="48">
<path d="M43.68 24.58H51.6301V14H25.15V24.58H33.1001V30.35C19.5601 32.84 9.29004 44.7 9.29004 58.97V61.62H67.4901V58.97C67.4901 44.71 57.23 32.84 43.68 30.35V24.58Z" fill="white"/>
</mask>
<g mask="url(#mask0_213_29819)">
<path d="M-190.862 58.6268L-76.4971 179.607L44.483 65.2417L-69.8822 -55.7384L-190.862 58.6268Z" fill="#AF59E1"/>
<path d="M-69.8857 -55.7377L44.4795 65.2424L165.46 -49.1228L51.0944 -170.103L-69.8857 -55.7377Z" fill="#E56E00"/>
<path d="M44.479 65.2489L158.844 186.229L279.824 71.8638L165.459 -49.1163L44.479 65.2489Z" fill="#6A9A23"/>
</g>
<path d="M72.78 55.01V66.99H4V56.41L72.78 55.01Z" fill="#4B4D51"/>
<path d="M9.2998 61.6101H67.4998V58.9601C67.4998 57.6601 67.4098 56.3801 67.2498 55.1201L9.42979 56.3001C9.34979 57.1801 9.3098 58.0601 9.3098 58.9601V61.6101H9.2998Z" fill="#101214"/>
<path d="M55.1002 29.7899C55.0702 30.1499 56.1202 30.5399 56.3502 30.3099C56.6702 29.9699 56.9402 29.5899 57.2202 29.0699C57.4802 28.4499 57.3802 28.1899 57.6402 27.8099C58.0302 27.1299 59.0602 26.2399 59.3102 26.0499C59.3502 26.0199 59.3802 25.9899 59.4002 25.9499C59.5602 25.6599 60.3502 24.3999 61.3102 23.5799C61.9402 22.9599 62.3502 22.6099 62.5702 22.4299C63.0802 21.9999 63.4102 21.6299 63.7102 21.1799C63.8702 20.9299 63.3702 20.0999 63.0602 20.1699C62.4902 20.2899 61.9602 20.5199 61.3802 20.9799C61.1602 21.1599 60.5202 21.3399 59.8702 21.9099C59.7702 21.9999 59.6802 22.1099 59.6102 22.2399C59.0302 23.3299 58.0202 24.4399 58.0202 24.4399C58.0202 24.4399 57.6602 24.8799 57.2702 25.4399C56.8702 25.9899 56.4302 26.6699 56.1802 27.0799C55.8202 27.6999 55.6502 28.0099 55.5602 28.1999C55.2602 28.7799 55.1302 29.2799 55.1002 29.7899Z" fill="white"/>
<path d="M64.23 33.0201C63.96 33.2101 64.14 34.3101 64.53 34.3401C65.08 34.3801 65.66 34.3001 66.32 34.0301C67.05 33.6701 67.09 33.3501 67.57 33.1301C68.35 32.7101 69.73 32.1301 70.07 31.9801C70.12 31.9601 70.16 31.9301 70.2 31.9001C70.49 31.6501 71.68 30.5301 72.81 29.7901C73.58 29.2201 74.05 28.9001 74.31 28.7301C74.9 28.3301 75.29 27.9801 75.65 27.5501C75.84 27.3101 75.43 26.4401 75.1 26.4801C74.5 26.5501 73.93 26.7501 73.29 27.1701C73.04 27.3301 72.37 27.4601 71.65 27.9401C71.53 28.0201 71.43 28.1201 71.34 28.2301C70.6 29.2401 69.33 30.0701 69.33 30.0701C69.33 30.0701 68.88 30.4101 68.32 30.7801C67.77 31.1701 67.1 31.5601 66.7 31.7801C66.1 32.1001 65.8 32.2301 65.61 32.3101C65.06 32.5501 64.65 32.7701 64.25 33.0301L64.23 33.0201Z" fill="white"/>
<path d="M68.26 41.0099C67.97 41.1799 68.18 42.2799 68.51 42.3399C68.98 42.4199 69.46 42.4199 70.05 42.3099C70.71 42.1299 70.84 41.8699 71.3 41.8099C72.07 41.6599 73.43 41.7199 73.75 41.7399C73.8 41.7399 73.85 41.7399 73.89 41.7199C74.21 41.6199 75.64 41.1699 76.9 41.0099C77.78 40.8399 78.33 40.7299 78.62 40.6799C79.29 40.5399 79.78 40.3399 80.23 40.0299C80.48 39.8599 80.3 38.9099 80 38.8499C79.46 38.7399 78.94 38.7199 78.26 38.8499C78 38.8999 77.4 38.7399 76.62 38.8499C76.49 38.8699 76.37 38.9099 76.25 38.9699C75.24 39.5299 73.82 39.6999 73.82 39.6999C73.82 39.6999 71.73 40.0899 70.85 40.2599C70.19 40.3899 69.87 40.4499 69.67 40.4899C69.08 40.6099 68.63 40.7899 68.22 41.0299L68.26 41.0099Z" fill="white"/>
</svg>
