<svg width="20" height="20" viewBox="0 0 20 20" fill="none" xmlns="http://www.w3.org/2000/svg">
<mask id="path-1-inside-1_237_8020" fill="white">
<path d="M0 5C0 2.23858 2.23858 0 5 0H15C17.7614 0 20 2.23858 20 5V15C20 17.7614 17.7614 20 15 20H5C2.23858 20 0 17.7614 0 15V5Z"/>
</mask>
<path d="M0 5C0 2.23858 2.23858 0 5 0H15C17.7614 0 20 2.23858 20 5V15C20 17.7614 17.7614 20 15 20H5C2.23858 20 0 17.7614 0 15V5Z" fill="white"/>
<path d="M5 0V1H15V0V-1H5V0ZM20 5H19V15H20H21V5H20ZM15 20V19H5V20V21H15V20ZM0 15H1V5H0H-1V15H0ZM5 20V19C2.79086 19 1 17.2091 1 15H0H-1C-1 18.3137 1.68629 21 5 21V20ZM20 15H19C19 17.2091 17.2091 19 15 19V20V21C18.3137 21 21 18.3137 21 15H20ZM15 0V1C17.2091 1 19 2.79086 19 5H20H21C21 1.68629 18.3137 -1 15 -1V0ZM5 0V-1C1.68629 -1 -1 1.68629 -1 5H0H1C1 2.79086 2.79086 1 5 1V0Z" fill="#0B1228" fill-opacity="0.14" mask="url(#path-1-inside-1_237_8020)"/>
<path d="M4.71289 15.1124C9.33535 15.5737 13.047 12.8216 13.9729 11.6424C14.8988 10.463 13.4949 4.83691 13.4949 4.83691C11.9732 8.59993 9.2062 14.3032 4.71289 15.1143V15.1124Z" fill="url(#paint0_linear_237_8020)"/>
<path d="M6.84961 13.6102C9.57632 13.7112 11.6517 11.9854 12.152 11.2699C12.6523 10.5544 11.8863 7.33203 11.8863 7.33203C11.1285 9.56429 9.02015 12.8169 6.84961 13.61V13.6102Z" fill="url(#paint1_linear_237_8020)"/>
<defs>
<linearGradient id="paint0_linear_237_8020" x1="12.8394" y1="5.62999" x2="7.65201" y2="15.6511" gradientUnits="userSpaceOnUse">
<stop stop-color="#2B3990"/>
<stop offset="0.16" stop-color="#1E62A7"/>
<stop offset="0.32" stop-color="#1485BC"/>
<stop offset="0.49" stop-color="#0BA1CC"/>
<stop offset="0.66" stop-color="#05B4D7"/>
<stop offset="0.83" stop-color="#01C0DE"/>
<stop offset="1" stop-color="#00C4E0"/>
</linearGradient>
<linearGradient id="paint1_linear_237_8020" x1="-540.596" y1="-948.432" x2="-293.134" y2="-621.078" gradientUnits="userSpaceOnUse">
<stop stop-color="#2B3990"/>
<stop offset="0.16" stop-color="#1E62A7"/>
<stop offset="0.32" stop-color="#1485BC"/>
<stop offset="0.49" stop-color="#0BA1CC"/>
<stop offset="0.66" stop-color="#05B4D7"/>
<stop offset="0.83" stop-color="#01C0DE"/>
<stop offset="1" stop-color="#00C4E0"/>
</linearGradient>
</defs>
</svg>
