<svg width="16" height="16" viewBox="0 0 16 16" fill="none" xmlns="http://www.w3.org/2000/svg">
<path d="M0 4C0 1.79086 1.79086 0 4 0H12C14.2091 0 16 1.79086 16 4V12C16 14.2091 14.2091 16 12 16H4C1.79086 16 0 14.2091 0 12V4Z" fill="#017737"/>
<path d="M7.2001 7.02055C7.2001 7.77802 7.58436 8.59516 8.42997 8.59516C9.05708 8.59516 9.69115 8.10558 9.69115 7.00943C9.69115 6.0484 9.1927 5.40323 8.45084 5.40323C7.84633 5.40323 7.2001 5.82788 7.2001 7.02055ZM8.74874 4C10.2649 4 11.2844 5.20085 11.2844 6.98838C11.2844 8.74783 10.2105 9.97616 8.67514 9.97616C7.94312 9.97616 7.47424 9.66265 7.22908 9.4357C7.23082 9.48951 7.23197 9.54976 7.23197 9.61409V12H5.6613V5.64305C5.6613 5.55063 5.63175 5.52139 5.54017 5.52139H5V4.12927H6.31797C6.9248 4.12927 7.08012 4.43811 7.10968 4.67617C7.35601 4.40009 7.86662 4 8.74874 4Z" fill="white"/>
</svg>
