<svg width="20" height="20" viewBox="0 0 20 20" fill="none" xmlns="http://www.w3.org/2000/svg">
<path d="M0 5C0 2.23858 2.23858 0 5 0H15C17.7614 0 20 2.23858 20 5V15C20 17.7614 17.7614 20 15 20H5C2.23858 20 0 17.7614 0 15V5Z" fill="#017737"/>
<path d="M8.75207 8.77568C8.75207 9.72253 9.2324 10.7439 10.2894 10.7439C11.0733 10.7439 11.8659 10.132 11.8659 8.76179C11.8659 7.5605 11.2428 6.75404 10.3155 6.75404C9.55987 6.75404 8.75207 7.28486 8.75207 8.77568ZM10.6879 5C12.5831 5 13.8575 6.50106 13.8575 8.73547C13.8575 10.9348 12.515 12.4702 10.5959 12.4702C9.68086 12.4702 9.09475 12.0783 8.7883 11.7946C8.79047 11.8619 8.79192 11.9372 8.79192 12.0176V15H6.82858V7.05381C6.82858 6.93829 6.79164 6.90173 6.67717 6.90173H6.00195V5.16159H7.64942C8.40795 5.16159 8.60211 5.54763 8.63906 5.84521C8.94696 5.50011 9.58523 5 10.6879 5Z" fill="white"/>
</svg>
