<svg width="24" height="24" viewBox="0 0 24 24" fill="none" xmlns="http://www.w3.org/2000/svg">
<path d="M0 6.39569C0 2.86345 2.86345 0 6.39569 0H17.6043C21.1366 0 24 2.86345 24 6.39569V17.6043C24 21.1366 21.1366 24 17.6043 24H6.39569C2.86345 24 0 21.1366 0 17.6043V6.39569Z" fill="#017737"/>
<path d="M10.5009 10.8064C10.5009 12.0117 11.1123 13.312 12.4579 13.312C13.4558 13.312 14.4647 12.5329 14.4647 10.7887C14.4647 9.25949 13.6716 8.23288 12.4911 8.23288C11.5292 8.23288 10.5009 8.9086 10.5009 10.8064ZM12.9651 6C15.3778 6 17 7.91083 17 10.7552C17 13.5549 15.2911 15.5095 12.848 15.5095C11.6832 15.5095 10.9371 15.0106 10.547 14.6495C10.5498 14.7351 10.5516 14.831 10.5516 14.9334V18.7299H8.05229V8.61448C8.05229 8.46742 8.00526 8.42089 7.85954 8.42089H7V6.2057H9.09721C10.0628 6.2057 10.31 6.69713 10.357 7.07595C10.749 6.63664 11.5615 6 12.9651 6Z" fill="white"/>
</svg>
