<svg width="32" height="32" viewBox="0 0 32 32" fill="none" xmlns="http://www.w3.org/2000/svg">
<path d="M0 8C0 3.58172 3.58172 0 8 0H24C28.4183 0 32 3.58172 32 8V24C32 28.4183 28.4183 32 24 32H8C3.58172 32 0 28.4183 0 24V8Z" fill="#017737"/>
<path d="M14.4002 14.0411C14.4002 15.556 15.1687 17.1903 16.8599 17.1903C18.1142 17.1903 19.3823 16.2112 19.3823 14.0189C19.3823 12.0968 18.3854 10.8065 16.9017 10.8065C15.6927 10.8065 14.4002 11.6558 14.4002 14.0411ZM17.4975 8C20.5299 8 22.5688 10.4017 22.5688 13.9768C22.5688 17.4957 20.4209 19.9523 17.3503 19.9523C15.8862 19.9523 14.9485 19.3253 14.4582 18.8714C14.4616 18.979 14.4639 19.0995 14.4639 19.2282V24H11.3226V11.2861C11.3226 11.1013 11.2635 11.0428 11.0803 11.0428H10V8.25854H12.6359C13.8496 8.25854 14.1602 8.87621 14.2194 9.35234C14.712 8.80018 15.7332 8 17.4975 8Z" fill="white"/>
</svg>
