<svg width="16" height="16" viewBox="0 0 16 16" fill="none" xmlns="http://www.w3.org/2000/svg">
<path d="M0 4C0 1.79086 1.79086 0 4 0H12C14.2091 0 16 1.79086 16 4V12C16 14.2091 14.2091 16 12 16H4C1.79086 16 0 14.2091 0 12V4Z" fill="#292A2E"/>
<path fill-rule="evenodd" clip-rule="evenodd" d="M8.02953 2.96618C7.02388 2.96408 6.0408 3.26413 5.20772 3.82743C4.37463 4.39073 3.72998 5.1913 3.35732 6.12536C2.98466 7.05941 2.90119 8.08388 3.11773 9.06594C3.33427 10.048 3.84083 10.9424 4.57173 11.6331C4.74317 11.7963 4.96739 11.8928 5.2038 11.9051C5.44021 11.9174 5.67321 11.8446 5.86063 11.7C6.479 11.2398 7.22927 10.9913 8.00009 10.9913C8.7709 10.9913 9.52117 11.2398 10.1395 11.7C10.3288 11.845 10.5638 11.9171 10.8017 11.9032C11.0397 11.8893 11.2647 11.7904 11.4358 11.6244C12.161 10.9362 12.6641 10.0472 12.8808 9.07119C13.0974 8.09521 13.0176 7.07677 12.6516 6.14643C12.2857 5.21608 11.6502 4.41622 10.8267 3.84937C10.0032 3.28253 9.02922 2.97452 8.02953 2.96484M8.00009 10.4887C7.66956 10.4977 7.34068 10.4392 7.03352 10.3168C6.72635 10.1944 6.44733 10.0108 6.2135 9.77699C5.97966 9.54322 5.79592 9.26426 5.67346 8.95712C5.55101 8.64999 5.49242 8.32112 5.50126 7.9906C5.50126 7.32787 5.76453 6.69228 6.23315 6.22366C6.70178 5.75504 7.33736 5.49177 8.00009 5.49177C8.66282 5.49177 9.2984 5.75504 9.76702 6.22366C10.2356 6.69228 10.4989 7.32787 10.4989 7.9906C10.5078 8.32112 10.4492 8.64999 10.3267 8.95712C10.2043 9.26426 10.0205 9.54322 9.78668 9.77699C9.55284 10.0108 9.27383 10.1944 8.96666 10.3168C8.65949 10.4392 8.33061 10.4977 8.00009 10.4887Z" fill="#62D84E"/>
</svg>
