<svg width="20" height="20" viewBox="0 0 20 20" fill="none" xmlns="http://www.w3.org/2000/svg">
<path d="M0 5C0 2.23858 2.23858 0 5 0H15C17.7614 0 20 2.23858 20 5V15C20 17.7614 17.7614 20 15 20H5C2.23858 20 0 17.7614 0 15V5Z" fill="#292A2E"/>
<path fill-rule="evenodd" clip-rule="evenodd" d="M10.0354 4.00161C8.82866 3.99909 7.64896 4.35915 6.64926 5.03511C5.64956 5.71107 4.87597 6.67175 4.42878 7.79262C3.9816 8.91348 3.88143 10.1428 4.14128 11.3213C4.40112 12.4998 5.00899 13.573 5.88608 14.4019C6.09181 14.5978 6.36087 14.7136 6.64456 14.7283C6.92825 14.743 7.20785 14.6557 7.43276 14.4822C8.1748 13.93 9.07513 13.6317 10.0001 13.6317C10.9251 13.6317 11.8254 13.93 12.5675 14.4822C12.7945 14.6561 13.0765 14.7427 13.3621 14.726C13.6476 14.7093 13.9177 14.5906 14.123 14.3915C14.9932 13.5657 15.597 12.4988 15.8569 11.3276C16.1169 10.1564 16.0211 8.93432 15.582 7.8179C15.1428 6.70149 14.3803 5.74165 13.3921 5.06144C12.4039 4.38122 11.2351 4.01162 10.0354 4M10.0001 13.0287C9.60348 13.0394 9.20882 12.9692 8.84022 12.8224C8.47162 12.6755 8.1368 12.4551 7.8562 12.1746C7.5756 11.8941 7.3551 11.5593 7.20816 11.1907C7.06121 10.8222 6.9909 10.4275 7.00152 10.0309C7.00152 9.23563 7.31744 8.47293 7.87979 7.91058C8.44213 7.34824 9.20483 7.03232 10.0001 7.03232C10.7954 7.03232 11.5581 7.34824 12.1204 7.91058C12.6828 8.47293 12.9987 9.23563 12.9987 10.0309C13.0093 10.4275 12.939 10.8222 12.7921 11.1907C12.6451 11.5593 12.4246 11.8941 12.144 12.1746C11.8634 12.4551 11.5286 12.6755 11.16 12.8224C10.7914 12.9692 10.3967 13.0394 10.0001 13.0287Z" fill="#62D84E"/>
</svg>
