<svg width="24" height="24" viewBox="0 0 24 24" fill="none" xmlns="http://www.w3.org/2000/svg">
<path d="M0 6.39569C0 2.86345 2.86345 0 6.39569 0H17.6043C21.1366 0 24 2.86345 24 6.39569V17.6043C24 21.1366 21.1366 24 17.6043 24H6.39569C2.86345 24 0 21.1366 0 17.6043V6.39569Z" fill="#292A2E"/>
<path fill-rule="evenodd" clip-rule="evenodd" d="M11.8299 5.39722C10.5436 5.39454 9.28608 5.77834 8.22046 6.49888C7.15483 7.21941 6.33022 8.24345 5.85355 9.43824C5.37687 10.633 5.2701 11.9435 5.54708 13.1996C5.82406 14.4558 6.47202 15.5999 7.40695 16.4834C7.62624 16.6922 7.91304 16.8156 8.21545 16.8313C8.51785 16.847 8.81588 16.754 9.05562 16.569C9.84661 15.9803 10.8063 15.6624 11.7923 15.6624C12.7783 15.6624 13.738 15.9803 14.5289 16.569C14.771 16.7544 15.0716 16.8466 15.376 16.8289C15.6803 16.8111 15.9682 16.6846 16.187 16.4723C17.1146 15.592 17.7582 14.4548 18.0353 13.2064C18.3124 11.958 18.2104 10.6552 17.7423 9.46519C17.2742 8.27515 16.4613 7.25202 15.408 6.52694C14.3546 5.80187 13.1087 5.40789 11.8299 5.39551M11.7923 15.0196C11.3695 15.031 10.9488 14.9562 10.5559 14.7997C10.163 14.6432 9.80609 14.4082 9.50699 14.1092C9.20788 13.8102 8.97285 13.4533 8.81621 13.0605C8.65957 12.6676 8.58463 12.2469 8.59595 11.8241C8.59595 10.9764 8.9327 10.1634 9.53213 9.56398C10.1316 8.96455 10.9446 8.6278 11.7923 8.6278C12.64 8.6278 13.453 8.96455 14.0524 9.56398C14.6519 10.1634 14.9886 10.9764 14.9886 11.8241C14.9999 12.2469 14.925 12.6676 14.7684 13.0605C14.6117 13.4533 14.3767 13.8102 14.0776 14.1092C13.7785 14.4082 13.4216 14.6432 13.0287 14.7997C12.6358 14.9562 12.2151 15.031 11.7923 15.0196Z" fill="#62D84E"/>
</svg>
