<svg width="32" height="32" viewBox="0 0 32 32" fill="none" xmlns="http://www.w3.org/2000/svg">
<path d="M0 8C0 3.58172 3.58172 0 8 0H24C28.4183 0 32 3.58172 32 8V24C32 28.4183 28.4183 32 24 32H8C3.58172 32 0 28.4183 0 24V8Z" fill="#292A2E"/>
<path fill-rule="evenodd" clip-rule="evenodd" d="M16.0591 6.93139C14.0478 6.92719 12.0816 7.52729 10.4154 8.65389C8.74927 9.78049 7.45995 11.3816 6.71464 13.2497C5.96933 15.1178 5.80239 17.1668 6.23546 19.1309C6.66854 21.095 7.68165 22.8838 9.14347 24.2652C9.48635 24.5917 9.93478 24.7847 10.4076 24.8092C10.8804 24.8338 11.3464 24.6883 11.7213 24.3991C12.958 23.4787 14.4585 22.9816 16.0002 22.9816C17.5418 22.9816 19.0423 23.4787 20.2791 24.3991C20.6575 24.6889 21.1276 24.8331 21.6035 24.8054C22.0794 24.7776 22.5294 24.5797 22.8716 24.2478C24.322 22.8715 25.3283 21.0934 25.7615 19.1414C26.1948 17.1894 26.0352 15.1526 25.3033 13.2919C24.5714 11.4312 23.3005 9.83146 21.6535 8.69777C20.0065 7.56408 18.0584 6.94807 16.0591 6.92871M16.0002 21.9765C15.3391 21.9944 14.6814 21.8774 14.067 21.6326C13.4527 21.3879 12.8947 21.0205 12.427 20.553C11.9593 20.0855 11.5918 19.5275 11.3469 18.9133C11.102 18.299 10.9848 17.6413 11.0025 16.9802C11.0025 15.6548 11.5291 14.3836 12.4663 13.4463C13.4036 12.5091 14.6747 11.9826 16.0002 11.9826C17.3256 11.9826 18.5968 12.5091 19.534 13.4463C20.4713 14.3836 20.9978 15.6548 20.9978 16.9802C21.0155 17.6413 20.8983 18.299 20.6534 18.9133C20.4085 19.5275 20.041 20.0855 19.5734 20.553C19.1057 21.0205 18.5477 21.3879 17.9333 21.6326C17.319 21.8774 16.6612 21.9944 16.0002 21.9765Z" fill="#62D84E"/>
</svg>
