<svg width="96" height="96" viewBox="0 0 96 96" fill="none" xmlns="http://www.w3.org/2000/svg">
<path d="M59.7976 56.875C51.3776 65.295 37.6676 65.295 29.2376 56.875C20.8176 48.455 20.8176 34.745 29.2376 26.315C37.6576 17.895 51.3676 17.895 59.7976 26.315C68.2276 34.735 68.2176 48.445 59.7976 56.875ZM34.7376 31.815C29.3476 37.205 29.3476 45.985 34.7376 51.375C40.1276 56.765 48.9076 56.765 54.2976 51.375C59.6876 45.985 59.6876 37.205 54.2976 31.815C48.9076 26.425 40.1276 26.425 34.7376 31.815Z" fill="#1868DB"/>
<path d="M59.5075 48.555L51.4875 56.585L70.1876 75.285L78.2076 67.255L59.5075 48.555Z" fill="#BF63F3"/>
<path d="M51.4775 56.575L55.2575 60.355C56.8875 59.425 58.4175 58.265 59.8075 56.875C61.1975 55.485 62.3575 53.955 63.2875 52.325L59.5075 48.545L51.4775 56.575Z" fill="#AE2A19"/>
<path d="M24.0077 74.1845C24.0077 74.1845 23.9777 74.2345 23.9677 74.2545L24.6477 74.6045C24.6477 74.6045 24.6677 74.6045 24.7577 74.5845C24.7377 74.5845 24.7177 74.5845 24.6977 74.5645C24.6577 74.5345 24.6077 74.4745 24.5477 74.4345C24.4277 74.3645 24.2877 74.3445 24.1577 74.3645C24.0277 74.3745 23.8977 74.4145 23.7777 74.4545C23.6777 74.4645 23.5277 74.5345 23.5677 74.9145L23.6277 75.5845L24.6677 75.3145C24.6677 75.3145 24.7477 75.2845 24.7977 75.2545C25.8577 74.6145 26.3677 73.6645 26.8577 72.5345C27.3177 71.2345 27.1877 70.8245 27.5477 70.0745C28.1877 68.6845 29.5477 66.4645 29.8777 65.9245C29.9277 65.8445 29.9677 65.7645 29.9977 65.6745C30.2377 65.0645 31.2777 62.3345 32.4177 60.1345C33.1677 58.5545 33.6277 57.5845 33.8677 57.0745C34.1577 56.4645 34.3477 55.9345 34.5577 55.4745C34.7677 54.9845 34.9677 54.5145 35.1077 53.9345C35.1977 53.6145 34.9577 53.2645 34.6777 53.2845C34.3977 53.3045 34.1477 53.2845 33.9977 53.4645C33.7277 53.8145 33.4077 54.1845 33.0877 54.6345C32.7377 55.1045 32.4777 55.6545 32.1777 56.2445C31.9477 56.7145 31.2377 57.5945 30.5377 58.9745C30.4277 59.1945 30.3277 59.4345 30.2577 59.6745C29.6677 61.7745 28.4377 64.2445 28.4377 64.2445C28.4377 64.2445 26.6977 68.0245 25.9677 69.6145C25.4877 70.8545 25.2577 71.4445 25.1177 71.8145C24.6977 72.8545 24.3877 73.6445 23.9977 74.1545L24.0077 74.1845Z" fill="#101214"/>
<path d="M27.6777 51.0345C27.4177 50.4045 26.3377 50.7045 26.3577 51.3245C26.3777 52.2145 26.4177 53.1445 26.5877 54.3845C26.8477 55.7845 27.1577 56.1145 27.3277 57.0545C27.6677 58.6545 28.0877 61.3545 28.1777 61.9945C28.1877 62.0945 28.2077 62.1845 28.2377 62.2745C28.3477 62.6045 28.6277 63.4745 28.9177 64.5845C29.2177 65.6745 29.4377 67.0345 29.6277 68.3545C29.9577 70.1745 30.1277 71.2645 30.1977 71.8445C30.3877 73.2045 30.5677 74.1945 30.7777 75.1845C30.8877 75.7245 31.8577 75.7745 31.9777 75.1845C32.1877 74.1245 32.2277 73.0145 32.0477 71.5945C31.9777 71.0445 32.0677 69.8445 31.8277 68.2545C31.7877 67.9945 31.7277 67.7445 31.6377 67.4945C31.2777 66.4545 30.9977 65.1245 30.7477 64.1445C30.5077 63.1545 30.3377 62.4345 30.3377 62.4345C30.3377 62.4345 30.0577 61.3845 29.7277 60.1045C29.3877 58.8345 29.0177 57.3545 28.8477 56.4845C28.5677 55.1645 28.4977 54.5245 28.4277 54.1245C28.2477 52.9145 28.0177 51.9445 27.6577 51.0545L27.6777 51.0345Z" fill="#101214"/>
<path d="M22.3077 56.2745C21.5177 56.1345 21.4177 57.2745 21.8077 57.5245C22.4277 57.9545 23.0177 58.5545 24.0977 59.3045C25.2577 60.0145 25.6577 60.0145 26.3877 60.5745C27.6577 61.4745 29.4577 63.3845 29.8577 63.8745C29.9177 63.9445 29.9877 64.0045 30.0577 64.0645C30.5877 64.4545 32.8077 66.3545 34.4577 68.2945C35.6677 69.6145 36.3977 70.4545 36.7877 70.8945C37.6977 71.9245 38.4577 72.6345 39.2877 73.2545C39.7477 73.5945 40.4677 72.9545 40.1977 72.4645C39.6877 71.5645 39.1077 70.7145 38.1977 69.6645C37.8477 69.2645 37.3077 68.2345 36.2677 67.0245C36.0977 66.8245 35.9077 66.6445 35.7077 66.4845C34.8177 65.7945 33.8877 64.9145 33.1577 64.2245C32.4377 63.5245 31.9177 63.0245 31.9177 63.0245C31.9177 63.0245 31.1277 62.2845 30.1277 61.4345C29.1277 60.5845 27.9077 59.6445 27.1577 59.1145C26.0377 58.3145 25.4777 57.9545 25.1477 57.7345C24.2177 57.1145 23.3477 56.4945 22.3277 56.2645L22.3077 56.2745Z" fill="#101214"/>
<path d="M17.2576 65.3045C16.6976 65.6345 17.1376 66.6645 17.7476 66.5645C18.6076 66.4045 19.4876 66.2045 20.6076 65.8745C21.8576 65.4545 22.1376 65.1645 23.0176 64.9645C24.5076 64.6045 27.1176 64.3845 27.7476 64.3245C27.8376 64.3245 27.9376 64.3045 28.0276 64.2745C28.6676 64.0845 31.5176 63.3645 34.0076 62.7545C35.7576 62.2745 36.8276 61.8745 37.3776 61.6645C38.6876 61.1745 39.5976 60.6145 40.4176 59.9545C40.8676 59.5945 40.3876 58.7545 39.8576 58.8845C38.8876 59.1445 37.9576 59.4545 36.7176 59.9045C36.2376 60.0845 35.1476 60.2045 33.6776 60.5645C33.4376 60.6245 33.2076 60.7145 32.9776 60.8145C31.0176 61.7145 28.2476 62.1745 28.2476 62.1745C28.2476 62.1745 24.1376 63.0045 22.3976 63.4445C21.0876 63.7745 20.4676 63.9645 20.0776 64.0745C18.9176 64.4245 18.0376 64.8245 17.2576 65.3045Z" fill="#101214"/>
</svg>
