<svg width="96" height="96" viewBox="0 0 96 96" fill="none" xmlns="http://www.w3.org/2000/svg">
<path d="M59.7976 56.875C51.3776 65.295 37.6676 65.295 29.2376 56.875C20.8176 48.455 20.8176 34.745 29.2376 26.315C37.6576 17.895 51.3676 17.895 59.7976 26.315C68.2276 34.735 68.2176 48.445 59.7976 56.875ZM34.7376 31.815C29.3476 37.205 29.3476 45.985 34.7376 51.375C40.1276 56.765 48.9076 56.765 54.2976 51.375C59.6876 45.985 59.6876 37.205 54.2976 31.815C48.9076 26.425 40.1276 26.425 34.7376 31.815Z" fill="#1868DB"/>
<path d="M59.5075 48.555L51.4875 56.585L70.1876 75.285L78.2076 67.255L59.5075 48.555Z" fill="#BF63F3"/>
<path d="M51.4775 56.575L55.2575 60.355C56.8875 59.425 58.4175 58.265 59.8075 56.875C61.1975 55.485 62.3575 53.955 63.2875 52.325L59.5075 48.545L51.4775 56.575Z" fill="#AE2A19"/>
</svg>
