<svg width="16" height="16" viewBox="0 0 16 16" fill="none" xmlns="http://www.w3.org/2000/svg">
<path d="M0 4C0 1.79086 1.79086 0 4 0H12C14.2091 0 16 1.79086 16 4V12C16 14.2091 14.2091 16 12 16H4C1.79086 16 0 14.2091 0 12V4Z" fill="#F06A6A"/>
<path fill-rule="evenodd" clip-rule="evenodd" d="M10.6375 8.25366C9.51644 8.25366 8.60768 9.16247 8.60768 10.2836C8.60768 11.4046 9.51644 12.3134 10.6375 12.3134C11.7586 12.3134 12.6673 11.4046 12.6673 10.2836C12.6673 9.16247 11.7586 8.25366 10.6375 8.25366ZM5.36382 8.25384C4.24278 8.25384 3.33398 9.16247 3.33398 10.2836C3.33398 11.4046 4.24278 12.3134 5.36382 12.3134C6.4849 12.3134 7.39374 11.4046 7.39374 10.2836C7.39374 9.16247 6.4849 8.25384 5.36382 8.25384ZM10.0304 5.71631C10.0304 6.83744 9.12169 7.74633 8.00067 7.74633C6.87958 7.74633 5.97082 6.83744 5.97082 5.71631C5.97082 4.59541 6.87958 3.68652 8.00067 3.68652C9.12169 3.68652 10.0304 4.59541 10.0304 5.71631Z" fill="white"/>
</svg>
