<svg width="20" height="20" viewBox="0 0 20 20" fill="none" xmlns="http://www.w3.org/2000/svg">
<path d="M0 5C0 2.23858 2.23858 0 5 0H15C17.7614 0 20 2.23858 20 5V15C20 17.7614 17.7614 20 15 20H5C2.23858 20 0 17.7614 0 15V5Z" fill="#F06A6A"/>
<path fill-rule="evenodd" clip-rule="evenodd" d="M12.8252 9.89336C11.6241 9.89336 10.6504 10.8671 10.6504 12.0683C10.6504 13.2694 11.6241 14.2431 12.8252 14.2431C14.0263 14.2431 15 13.2694 15 12.0683C15 10.8671 14.0263 9.89336 12.8252 9.89336ZM7.17482 9.89355C5.97371 9.89355 5 10.8671 5 12.0683C5 13.2694 5.97371 14.2431 7.17482 14.2431C8.37598 14.2431 9.34974 13.2694 9.34974 12.0683C9.34974 10.8671 8.37598 9.89355 7.17482 9.89355ZM12.1748 7.17477C12.1748 8.37598 11.2011 9.34979 10 9.34979C8.79885 9.34979 7.82518 8.37598 7.82518 7.17477C7.82518 5.9738 8.79885 5 10 5C11.2011 5 12.1748 5.9738 12.1748 7.17477Z" fill="white"/>
</svg>
