<svg width="24" height="24" viewBox="0 0 24 24" fill="none" xmlns="http://www.w3.org/2000/svg">
<path d="M0 6.39569C0 2.86345 2.86345 0 6.39569 0H17.6043C21.1366 0 24 2.86345 24 6.39569V17.6043C24 21.1366 21.1366 24 17.6043 24H6.39569C2.86345 24 0 21.1366 0 17.6043V6.39569Z" fill="#F06A6A"/>
<path fill-rule="evenodd" clip-rule="evenodd" d="M15.406 12.1392C13.8696 12.1392 12.6241 13.3847 12.6241 14.9212C12.6241 16.4576 13.8696 17.7031 15.406 17.7031C16.9424 17.7031 18.1879 16.4576 18.1879 14.9212C18.1879 13.3847 16.9424 12.1392 15.406 12.1392ZM8.17838 12.1394C6.64199 12.1394 5.39648 13.3847 5.39648 14.9212C5.39648 16.4576 6.64199 17.7031 8.17838 17.7031C9.71483 17.7031 10.9604 16.4576 10.9604 14.9212C10.9604 13.3847 9.71483 12.1394 8.17838 12.1394ZM14.574 8.66172C14.574 10.1982 13.3286 11.4439 11.7922 11.4439C10.2557 11.4439 9.01028 10.1982 9.01028 8.66172C9.01028 7.12551 10.2557 5.87988 11.7922 5.87988C13.3286 5.87988 14.574 7.12551 14.574 8.66172Z" fill="white"/>
</svg>
