<svg width="32" height="32" viewBox="0 0 32 32" fill="none" xmlns="http://www.w3.org/2000/svg">
<path d="M0 8C0 3.58172 3.58172 0 8 0H24C28.4183 0 32 3.58172 32 8V24C32 28.4183 28.4183 32 24 32H8C3.58172 32 0 28.4183 0 24V8Z" fill="#F06A6A"/>
<path fill-rule="evenodd" clip-rule="evenodd" d="M20.5203 16.8294C18.5985 16.8294 17.0406 18.3873 17.0406 20.3092C17.0406 22.231 18.5985 23.789 20.5203 23.789C22.4421 23.789 24 22.231 24 20.3092C24 18.3873 22.4421 16.8294 20.5203 16.8294ZM11.4797 16.8297C9.55794 16.8297 8 18.3873 8 20.3092C8 22.231 9.55794 23.789 11.4797 23.789C13.4016 23.789 14.9596 22.231 14.9596 20.3092C14.9596 18.3873 13.4016 16.8297 11.4797 16.8297ZM19.4797 12.4796C19.4797 14.4016 17.9218 15.9597 16 15.9597C14.0782 15.9597 12.5203 14.4016 12.5203 12.4796C12.5203 10.5581 14.0782 9 16 9C17.9218 9 19.4797 10.5581 19.4797 12.4796Z" fill="white"/>
</svg>
