<svg width="96" height="96" viewBox="0 0 96 96" fill="none" xmlns="http://www.w3.org/2000/svg">
<path d="M77.82 56.0173C77.82 58.3273 76.34 60.2973 74.28 61.0373V73.7373C74.28 77.6573 71.0999 80.8273 67.1899 80.8273H28.2V53.2973H42.4799C48.63 51.0873 53.02 45.1973 53.02 38.2873C53.02 36.3373 54.61 34.7373 56.57 34.7373C58.53 34.7373 60.1199 36.3273 60.1199 38.2873V50.6973H72.52C75.46 50.6973 77.84 53.0773 77.84 56.0173H77.82Z" fill="#FCA700"/>
<path d="M37.66 49.3273H16V84.5573H37.66V49.3273Z" fill="#BF63F3"/>
<path d="M37.67 53.3073H28.2V80.8373H37.67V53.3073Z" fill="#AE2A19"/>
<path d="M37.67 53.3073H28.2V80.8373H37.67V53.3073Z" fill="#AE2A19"/>
<path d="M63.7903 34.1477C67.4503 31.6877 70.6203 28.2877 74.1003 25.5877C75.6803 24.3677 77.7103 23.3277 79.1103 21.8777C79.3703 21.6077 79.6203 21.4677 79.6903 21.1177" fill="#101214"/>
<path d="M63.7804 33.4477C63.4304 33.8377 64.0304 34.7677 64.5504 34.5577C65.2704 34.2577 65.9804 33.8477 66.7804 33.2177C67.6504 32.4477 67.7204 32.0777 68.3304 31.5977C69.3304 30.7377 71.1704 29.4977 71.6204 29.2077C71.6904 29.1677 71.7504 29.1177 71.8004 29.0577C72.1904 28.6677 73.9104 26.8677 75.6104 25.7877C76.8104 24.9677 77.6304 24.4377 78.0304 24.1377C79.0204 23.4277 79.6104 22.7177 80.1204 21.8477C80.3204 21.4477 80.0404 21.1777 79.7904 21.1477C79.5204 21.1077 79.2404 21.1277 79.1504 21.1477C78.4904 21.5177 77.8404 22.0077 76.9404 22.6277C76.5904 22.8877 75.7004 23.1477 74.5604 23.8577C74.3704 23.9777 74.2004 24.1177 74.0504 24.2777C73.3504 24.9977 72.6104 25.7077 71.9704 26.2677C71.3504 26.8177 70.8904 27.1977 70.8904 27.1977C70.8904 27.1977 68.2404 29.5277 67.1304 30.5177C66.2904 31.2477 65.8804 31.5777 65.6204 31.7777C64.8504 32.3977 64.3004 32.9277 63.7904 33.4777L63.7804 33.4477Z" fill="#101214"/>
<path d="M56.6003 31.8477C56.4603 28.4577 56.5103 25.0877 56.2703 21.6777C56.0403 18.4577 55.7903 15.2277 55.5503 12.0077" fill="#101214"/>
<path d="M56.0003 31.4977C56.1403 31.9977 57.2503 31.9477 57.3503 31.4477C57.4903 30.7277 57.5603 29.9777 57.5403 29.0177C57.4703 27.9277 57.2303 27.6577 57.2403 26.9077C57.2203 25.6477 57.4603 23.5077 57.5003 22.9777C57.5003 22.8977 57.5003 22.8277 57.5003 22.7477C57.4403 22.1877 57.0803 19.8377 57.0103 17.7877C56.9003 16.3477 56.8303 15.4577 56.8003 14.9877C56.7103 13.8877 56.5303 13.0777 56.2603 12.2877C56.1103 11.8577 55.1403 11.9277 55.0603 12.3777C54.9103 13.1977 54.8603 14.0277 54.9303 15.1277C54.9603 15.5577 54.7603 16.4677 54.8103 17.7177C54.8103 17.9177 54.8503 18.1277 54.9103 18.3277C55.4003 20.0477 55.4703 22.3277 55.4703 22.3277C55.4703 22.3277 55.5103 23.1677 55.5603 24.1877C55.5903 25.2077 55.6203 26.4177 55.6403 27.1277C55.6603 28.2077 55.6803 28.7277 55.6803 29.0477C55.7103 30.0177 55.8203 30.7777 56.0103 31.4877L56.0003 31.4977Z" fill="#101214"/>
<path d="M36.3804 22.9377C39.1804 24.7477 41.4304 27.6277 43.8004 29.9277C45.3004 31.3777 47.3704 32.8277 48.3504 34.7177" fill="#101214"/>
<path d="M36.9804 22.6377C36.5404 22.4777 35.9604 23.4277 36.2204 23.7577C36.6004 24.2177 37.0304 24.6477 37.6204 25.1677C38.3204 25.7177 38.6504 25.7077 39.0704 26.1577C39.8204 26.8777 40.8204 28.4077 41.0604 28.7777C41.1004 28.8277 41.1404 28.8777 41.1904 28.9277C41.5304 29.2177 43.0604 30.6377 44.3604 31.8377C45.2904 32.6377 45.8004 33.1277 46.0604 33.3977C46.6704 34.0177 47.1404 34.4177 47.6304 34.8377C47.8904 35.0577 48.7804 34.6577 48.6704 34.2377C48.4804 33.4877 48.0804 32.7977 47.4004 32.0877C47.1404 31.8177 46.7404 31.0677 45.9604 30.3177C45.8304 30.1977 45.6904 30.0977 45.5404 30.0177C44.2104 29.3577 42.9704 27.8677 42.9704 27.8677C42.9704 27.8677 42.4704 27.3477 41.8804 26.7077C41.2804 26.0677 40.5504 25.3177 40.1004 24.8877C39.4204 24.2377 39.0704 23.9377 38.8604 23.7577C38.2104 23.2077 37.6204 22.8677 37.0004 22.6477L36.9804 22.6377Z" fill="#101214"/>
</svg>
