<svg width="96" height="96" viewBox="0 0 96 96" fill="none" xmlns="http://www.w3.org/2000/svg">
<path d="M77.82 56.0173C77.82 58.3273 76.34 60.2973 74.28 61.0373V73.7373C74.28 77.6573 71.0999 80.8273 67.1899 80.8273H28.2V53.2973H42.4799C48.63 51.0873 53.02 45.1973 53.02 38.2873C53.02 36.3373 54.61 34.7373 56.57 34.7373C58.53 34.7373 60.1199 36.3273 60.1199 38.2873V50.6973H72.52C75.46 50.6973 77.84 53.0773 77.84 56.0173H77.82Z" fill="#FCA700"/>
<path d="M37.66 49.3273H16V84.5573H37.66V49.3273Z" fill="#BF63F3"/>
<path d="M37.67 53.3073H28.2V80.8372H37.67V53.3073Z" fill="#AE2A19"/>
<path d="M37.67 53.3073H28.2V80.8372H37.67V53.3073Z" fill="#AE2A19"/>
</svg>
