<svg width="96" height="96" viewBox="0 0 96 96" fill="none" xmlns="http://www.w3.org/2000/svg">
<path fill-rule="evenodd" clip-rule="evenodd" d="M15 34.1417V75.5417L26.99 65.2617H62.98V34.1417H15Z" fill="#FCA700"/>
<path d="M36.31 35.3717C36.31 32.4017 38.68 30.0217 41.61 30.0217C44.54 30.0217 46.91 32.3917 46.91 35.3717C46.91 36.8817 46.55 37.5717 46.22 38.0117C45.83 38.5217 45.34 38.8817 44.48 39.5117C44.34 39.6217 44.18 39.7317 44.01 39.8517C42.94 40.6417 41.58 41.7217 40.56 43.5117C39.53 45.3117 38.96 47.5717 38.96 50.5617H44.26C44.26 48.2417 44.69 46.9517 45.15 46.1617C45.61 45.3517 46.24 44.8017 47.16 44.1217C47.27 44.0417 47.39 43.9517 47.52 43.8617C48.35 43.2617 49.53 42.4117 50.42 41.2417C51.57 39.7417 52.21 37.8617 52.21 35.3717C52.21 29.5117 47.51 24.7217 41.61 24.7217C35.71 24.7217 31.01 29.5117 31.01 35.3717V38.0217H36.31V35.3717Z" fill="#1868DB"/>
<path d="M41.61 54.5517C39.78 54.5517 38.3 56.0317 38.3 57.8617C38.3 59.6917 39.78 61.1717 41.61 61.1717C43.44 61.1717 44.92 59.6917 44.92 57.8617C44.92 56.0317 43.44 54.5517 41.61 54.5517Z" fill="#1868DB"/>
<path fill-rule="evenodd" clip-rule="evenodd" d="M31.07 34.1417H36.45C36.35 34.5317 36.3 34.9517 36.3 35.3717V38.0217H31V35.3717C31 34.9617 31.02 34.5517 31.07 34.1417Z" fill="#AE2A19"/>
<path fill-rule="evenodd" clip-rule="evenodd" d="M44.92 57.8617C44.92 59.6917 43.44 61.1817 41.61 61.1817C39.78 61.1817 38.29 59.6917 38.29 57.8617C38.29 56.0317 39.78 54.5517 41.61 54.5517C43.44 54.5517 44.92 56.0317 44.92 57.8617Z" fill="#AE2A19"/>
<path fill-rule="evenodd" clip-rule="evenodd" d="M52.21 35.3717C52.21 37.8717 51.57 39.7417 50.42 41.2417C49.53 42.4117 48.35 43.2617 47.52 43.8617C47.39 43.9617 47.27 44.0417 47.16 44.1217C46.24 44.8117 45.61 45.3617 45.15 46.1717C44.69 46.9717 44.26 48.2617 44.26 50.5717H38.96C38.96 47.5817 39.52 45.3217 40.55 43.5317C41.58 41.7417 42.94 40.6617 44 39.8617C44.17 39.7417 44.33 39.6317 44.47 39.5217C45.34 38.8817 45.82 38.5317 46.21 38.0217C46.55 37.5717 46.91 36.8817 46.91 35.3717C46.91 34.9517 46.86 34.5317 46.76 34.1417H52.14C52.19 34.5517 52.21 34.9617 52.21 35.3717Z" fill="#AE2A19"/>
<path d="M64.57 30.7517C64.49 31.1717 65.55 31.5317 65.76 31.3917C66.12 31.0817 66.43 30.7017 66.75 30.1617C67.05 29.5217 66.94 29.2517 67.2 28.8517C67.6 28.1517 68.55 27.1217 68.78 26.8717C68.81 26.8317 68.84 26.7917 68.86 26.7517C69 26.4317 69.62 25.0217 70.35 23.9217C70.82 23.1217 71.11 22.6217 71.26 22.3617C71.61 21.7517 71.79 21.2317 71.87 20.7017C71.87 20.4717 71.16 19.8117 70.86 20.0517C70.39 20.4017 70.02 20.8017 69.65 21.4117C69.51 21.6517 68.98 22.0117 68.53 22.6917C68.46 22.8017 68.41 22.9217 68.37 23.0617C68.11 24.2217 67.28 25.4517 67.28 25.4517C67.28 25.4517 66.18 27.3517 65.71 28.1617C65.37 28.7717 65.2 29.0617 65.1 29.2417C64.8 29.7917 64.64 30.2617 64.55 30.7617L64.57 30.7517Z" fill="#101214"/>
<path d="M59.16 31.7617C59.29 31.7417 60.42 32.2617 60.49 31.5517C60.56 31.0317 60.53 30.5417 60.38 29.9517C60.15 29.3017 59.88 29.2017 59.78 28.7517C59.57 28.0017 59.5 26.6617 59.49 26.3317C59.49 26.2817 59.48 26.2417 59.46 26.1917C59.33 25.8817 58.75 24.5217 58.46 23.3017C58.2 22.4517 58.03 21.9217 57.95 21.6517C57.74 21.0017 57.48 20.5517 57.13 20.1317C56.93 19.8817 56.02 20.2217 55.98 20.5017C55.93 21.0317 55.97 21.5517 56.16 22.2017C56.24 22.4517 56.14 23.0517 56.32 23.8117C56.35 23.9317 56.4 24.0517 56.48 24.1617C57.14 25.0917 57.44 26.4617 57.44 26.4617C57.44 26.4617 58.02 28.4617 58.26 29.3117C58.44 29.9417 58.52 30.2517 58.57 30.4417C58.73 31.0117 58.92 31.4217 59.16 31.7817V31.7617Z" fill="#101214"/>
<path d="M68.84 34.5518C68.72 34.6918 68.54 35.8318 69.07 35.8818C69.55 35.9618 70.02 35.9618 70.61 35.8418C71.26 35.6518 71.38 35.3918 71.83 35.3318C72.58 35.1718 73.92 35.2118 74.24 35.2218C74.29 35.2218 74.33 35.2218 74.38 35.2018C74.7 35.0918 76.09 34.6318 77.33 34.4518C78.19 34.2718 78.73 34.1618 79.01 34.1018C79.67 33.9618 80.14 33.7518 80.57 33.4518C80.63 33.3218 80.8 32.3218 80.36 32.2618C79.82 32.1418 79.3 32.1318 78.63 32.2618C78.37 32.3118 77.78 32.1618 77.01 32.2718C76.89 32.2918 76.77 32.3318 76.65 32.4018C75.67 32.9818 74.28 33.1618 74.28 33.1618C74.28 33.1618 72.24 33.5818 71.38 33.7618C70.73 33.9018 70.42 33.9618 70.23 34.0018C69.65 34.1218 69.22 34.3018 68.83 34.5418L68.84 34.5518Z" fill="#101214"/>
</svg>
