<svg width="96" height="96" viewBox="0 0 96 96" fill="none" xmlns="http://www.w3.org/2000/svg">
<path fill-rule="evenodd" clip-rule="evenodd" d="M15 34.1417V75.5417L26.99 65.2617H62.98V34.1417H15Z" fill="#FCA700"/>
<path d="M36.31 35.3717C36.31 32.4017 38.68 30.0217 41.61 30.0217C44.54 30.0217 46.91 32.3917 46.91 35.3717C46.91 36.8817 46.55 37.5717 46.22 38.0117C45.83 38.5217 45.34 38.8817 44.48 39.5117C44.34 39.6217 44.18 39.7317 44.01 39.8517C42.94 40.6417 41.58 41.7217 40.56 43.5117C39.53 45.3117 38.96 47.5717 38.96 50.5617H44.26C44.26 48.2417 44.69 46.9517 45.15 46.1617C45.61 45.3517 46.24 44.8017 47.16 44.1217C47.27 44.0417 47.39 43.9517 47.52 43.8617C48.35 43.2617 49.53 42.4117 50.42 41.2417C51.57 39.7417 52.21 37.8617 52.21 35.3717C52.21 29.5117 47.51 24.7217 41.61 24.7217C35.71 24.7217 31.01 29.5117 31.01 35.3717V38.0217H36.31V35.3717Z" fill="#1868DB"/>
<path d="M41.61 54.5517C39.78 54.5517 38.3 56.0317 38.3 57.8617C38.3 59.6917 39.78 61.1717 41.61 61.1717C43.44 61.1717 44.92 59.6917 44.92 57.8617C44.92 56.0317 43.44 54.5517 41.61 54.5517Z" fill="#1868DB"/>
<path fill-rule="evenodd" clip-rule="evenodd" d="M31.07 34.1417H36.45C36.35 34.5317 36.3 34.9517 36.3 35.3717V38.0217H31V35.3717C31 34.9617 31.02 34.5517 31.07 34.1417Z" fill="#AE2A19"/>
<path fill-rule="evenodd" clip-rule="evenodd" d="M44.92 57.8617C44.92 59.6917 43.44 61.1817 41.61 61.1817C39.78 61.1817 38.29 59.6917 38.29 57.8617C38.29 56.0317 39.78 54.5517 41.61 54.5517C43.44 54.5517 44.92 56.0317 44.92 57.8617Z" fill="#AE2A19"/>
<path fill-rule="evenodd" clip-rule="evenodd" d="M52.21 35.3717C52.21 37.8717 51.57 39.7417 50.42 41.2417C49.53 42.4117 48.35 43.2617 47.52 43.8617C47.39 43.9617 47.27 44.0417 47.16 44.1217C46.24 44.8117 45.61 45.3617 45.15 46.1717C44.69 46.9717 44.26 48.2617 44.26 50.5717H38.96C38.96 47.5817 39.52 45.3217 40.55 43.5317C41.58 41.7417 42.94 40.6617 44 39.8617C44.17 39.7417 44.33 39.6317 44.47 39.5217C45.34 38.8817 45.82 38.5317 46.21 38.0217C46.55 37.5717 46.91 36.8817 46.91 35.3717C46.91 34.9517 46.86 34.5317 46.76 34.1417H52.14C52.19 34.5517 52.21 34.9617 52.21 35.3717Z" fill="#AE2A19"/>
</svg>
