<svg width="96" height="96" viewBox="0 0 96 96" fill="none" xmlns="http://www.w3.org/2000/svg">
<path d="M55.99 73.0996H21V81.3096H55.99V73.0996Z" fill="#BF63F3"/>
<path d="M49.3002 77.6696H27.7002L34.1902 39.4896H42.8102L49.3002 77.6696Z" fill="#BF63F3"/>
<path d="M51.1699 40.7896C51.3299 39.8996 51.4099 38.9496 51.4099 37.9496C51.4099 36.9496 51.3299 35.9796 51.1599 35.0796C50.1999 29.7196 46.4699 26.4196 41.2499 25.5696C40.3599 25.4296 39.4199 25.3496 38.4499 25.3496C37.4799 25.3496 36.4599 25.4296 35.5399 25.5896C30.3099 26.4596 26.5999 29.7596 25.6299 35.0896C25.4699 35.9896 25.3799 36.9496 25.3799 37.9596C25.3799 38.9696 25.4599 39.9096 25.6199 40.7996C26.5799 46.1196 30.2999 49.4296 35.5299 50.2996C36.4599 50.4496 37.4299 50.5296 38.4399 50.5296C39.4499 50.5296 40.3499 50.4596 41.2399 50.3096C46.4699 49.4596 50.1999 46.1496 51.1499 40.7996H51.1699V40.7896Z" fill="#BF63F3"/>
<path d="M49.3002 77.6696H27.7002L28.4802 73.0996H48.5202L49.3002 77.6696Z" fill="#AE2A19"/>
<path d="M35.55 50.2896C34.47 50.1096 33.44 49.8096 32.5 49.4296L34.19 39.4896H42.82L44.5 49.3696C43.51 49.7996 42.42 50.1096 41.27 50.2996C40.38 50.4396 39.45 50.5196 38.48 50.5196C37.51 50.5196 36.49 50.4396 35.56 50.2896H35.55Z" fill="#AE2A19"/>
<path d="M51.0504 48.2888C51.0504 48.2888 50.9904 48.3588 50.9804 48.3888L51.8204 48.6988C51.7604 48.7288 51.6804 48.5688 51.5604 48.4588C51.4404 48.3488 51.2904 48.3288 51.1604 48.3488C51.0304 48.3688 50.9004 48.4288 50.7904 48.4788C50.6904 48.5188 50.5404 48.6288 50.5804 49.0588L50.6604 49.8288L51.6804 49.4588C51.6804 49.4588 51.7804 49.4088 51.8404 49.3788C53.2104 48.4988 53.9004 47.1488 54.6004 45.5388C55.2904 43.6788 55.1804 43.1288 55.7104 41.9988C56.6304 39.9788 58.4804 36.6988 58.9304 35.9088C59.0004 35.7888 59.0504 35.6688 59.1104 35.5488C59.4804 34.6688 61.0504 30.7488 62.6704 27.5488C63.7504 25.2588 64.4304 23.8388 64.7804 23.0988C65.2104 22.2188 65.5004 21.4388 65.8304 20.7788C66.1604 20.0688 66.4804 19.4088 66.7104 18.6288C66.8504 18.1988 66.6104 17.7788 66.3304 17.7988C66.0504 17.8188 65.8004 17.8688 65.6004 18.1588C65.2504 18.7088 64.8004 19.2788 64.3604 19.9388C63.8904 20.6188 63.5204 21.4088 63.0904 22.2788C62.7604 22.9688 61.8404 24.2788 60.8404 26.2888C60.6804 26.6188 60.5404 26.9488 60.4204 27.2988C59.4204 30.2688 57.6704 33.8788 57.6704 33.8788C57.6704 33.8788 55.1604 39.3488 54.0904 41.6688C53.4004 43.4588 53.0604 44.3188 52.8604 44.8488C52.2404 46.3788 51.7404 47.5588 51.0404 48.3088L51.0504 48.2888Z" fill="#101214"/>
<path d="M55.9502 14.5588C55.6202 13.6388 54.5502 13.9388 54.6302 14.8488C54.7402 16.1388 54.8402 17.4988 55.0902 19.2888C55.4402 21.3088 55.7802 21.7888 56.0402 23.1588C56.5302 25.4688 57.2802 29.3388 57.4402 30.2688C57.4602 30.4088 57.5002 30.5388 57.5402 30.6788C57.6902 31.1588 58.0802 32.4388 58.4902 34.0588C58.6902 34.8688 58.8902 35.7688 59.0502 36.6888C59.2002 37.6388 59.3602 38.6088 59.5202 39.5488C59.9902 42.1788 60.2402 43.7888 60.3502 44.6288C60.6302 46.5988 60.8402 48.0688 61.0502 49.5388C61.1602 50.3388 62.1302 50.3788 62.2502 49.5388C62.4602 48.0188 62.4702 46.4388 62.2002 44.3788C62.1002 43.5888 62.1102 41.8788 61.7402 39.5788C61.6802 39.1988 61.6002 38.8288 61.4902 38.4688C61.0502 36.9288 60.6802 35.0288 60.3202 33.5988C59.9802 32.1588 59.7302 31.1288 59.7302 31.1288C59.7302 31.1288 59.3302 29.5988 58.8402 27.7488C58.3502 25.9088 57.8102 23.7588 57.5502 22.4788C57.1502 20.5488 57.0302 19.6088 56.9402 19.0288C56.6802 17.2688 56.4002 15.8588 55.9502 14.5688V14.5588Z" fill="#101214"/>
<path d="M48.3304 22.3388C47.8304 22.1988 47.5004 22.4588 47.4404 22.7588C47.3804 23.0688 47.4904 23.3988 47.8304 23.5888C48.8304 24.1688 49.7504 25.0488 51.2804 26.1088C52.9504 27.1588 53.4804 27.2588 54.5504 28.0588C56.4004 29.3688 59.1204 32.0488 59.7204 32.7288C59.8104 32.8288 59.9104 32.9188 60.0204 33.0088C60.7804 33.5988 63.9704 36.4288 66.3904 39.2188C68.1504 41.1388 69.2104 42.3588 69.7704 42.9988C71.0904 44.4988 72.1604 45.5488 73.2904 46.5188C73.9104 47.0488 74.6404 46.4088 74.2004 45.7288C73.3904 44.4888 72.5004 43.2788 71.1904 41.7688C70.6804 41.1788 69.8104 39.7788 68.2904 38.0488C68.0404 37.7688 67.7704 37.4988 67.4904 37.2588C66.2704 36.1988 64.9404 34.9188 63.8904 33.9188C62.8504 32.9088 62.0904 32.1888 62.0904 32.1888C62.0904 32.1888 60.9504 31.1188 59.5004 29.8988C58.0604 28.6688 56.2904 27.3188 55.2204 26.5488C53.6104 25.3888 52.8004 24.8788 52.3104 24.5488C50.9304 23.6188 49.7304 22.7288 48.3304 22.3388Z" fill="#101214"/>
<path d="M41.1901 35.4388C40.3701 35.8688 40.8101 36.8988 41.6801 36.6988C42.9101 36.3988 44.1901 36.0588 45.8201 35.5788C47.6601 34.9888 48.0801 34.6688 49.3601 34.3688C51.5201 33.8388 55.2901 33.3788 56.2001 33.2688C56.3301 33.2488 56.4701 33.2288 56.6001 33.1988C57.5501 32.9688 61.6901 31.9388 65.2601 31.0488C67.7801 30.3588 69.3101 29.7788 70.1101 29.4788C71.9901 28.7688 73.3201 28.0188 74.5301 27.1588C75.2001 26.6888 74.7201 25.8488 73.9701 26.0888C72.6101 26.5488 71.2601 27.0588 69.4501 27.7188C68.7501 27.9888 67.1901 28.2688 65.0501 28.8188C64.7001 28.9088 64.3601 29.0288 64.0301 29.1588C61.1301 30.3088 57.1201 31.0188 57.1201 31.0188C57.1201 31.0188 51.1601 32.2188 48.6501 32.8588C46.7601 33.3288 45.8601 33.6088 45.3001 33.7688C43.6201 34.2688 42.3501 34.7988 41.2001 35.4288L41.1901 35.4388Z" fill="#101214"/>
</svg>
