<svg width="96" height="96" viewBox="0 0 96 96" fill="none" xmlns="http://www.w3.org/2000/svg">
<path d="M55.99 73.0996H21V81.3096H55.99V73.0996Z" fill="#BF63F3"/>
<path d="M49.3002 77.6696H27.7002L34.1902 39.4896H42.8102L49.3002 77.6696Z" fill="#BF63F3"/>
<path d="M51.1699 40.7896C51.3299 39.8996 51.4099 38.9496 51.4099 37.9496C51.4099 36.9496 51.3299 35.9796 51.1599 35.0796C50.1999 29.7196 46.4699 26.4196 41.2499 25.5696C40.3599 25.4296 39.4199 25.3496 38.4499 25.3496C37.4799 25.3496 36.4599 25.4296 35.5399 25.5896C30.3099 26.4596 26.5999 29.7596 25.6299 35.0896C25.4699 35.9896 25.3799 36.9496 25.3799 37.9596C25.3799 38.9696 25.4599 39.9096 25.6199 40.7996C26.5799 46.1196 30.2999 49.4296 35.5299 50.2996C36.4599 50.4496 37.4299 50.5296 38.4399 50.5296C39.4499 50.5296 40.3499 50.4596 41.2399 50.3096C46.4699 49.4596 50.1999 46.1496 51.1499 40.7996H51.1699V40.7896Z" fill="#BF63F3"/>
<path d="M49.3002 77.6696H27.7002L28.4802 73.0996H48.5202L49.3002 77.6696Z" fill="#AE2A19"/>
<path d="M35.55 50.2896C34.47 50.1096 33.44 49.8096 32.5 49.4296L34.19 39.4896H42.82L44.5 49.3696C43.51 49.7996 42.42 50.1096 41.27 50.2996C40.38 50.4396 39.45 50.5196 38.48 50.5196C37.51 50.5196 36.49 50.4396 35.56 50.2896H35.55Z" fill="#AE2A19"/>
</svg>
