<svg width="275" height="275" viewBox="0 0 275 275" fill="none" xmlns="http://www.w3.org/2000/svg">
<path d="M235.185 148.988C236.455 141.278 237.055 133.098 236.935 124.448C236.815 115.678 235.975 107.398 234.465 99.6376C225.505 53.4176 192.915 25.2976 147.675 18.5776C139.955 17.4276 131.875 16.8976 123.465 17.0176C114.695 17.1376 106.305 17.9476 98.3146 19.3976C53.2546 27.5476 21.5246 56.4776 13.8146 102.668C12.5146 110.478 11.8946 118.768 12.0146 127.538C12.1346 136.188 12.9646 144.348 14.4546 152.018C23.3646 197.928 55.9146 226.018 101.265 232.948C109.285 234.178 117.705 234.758 126.475 234.638C134.875 234.518 142.945 233.768 150.625 232.408C195.735 224.438 227.565 195.378 235.185 148.988Z" fill="#DDDEE1"/>
<path d="M189.805 210.067C190.745 158.717 164.745 139.607 125.025 140.297C87.7552 140.947 63.0552 160.927 63.9452 212.247L64.0952 220.987C75.1352 226.827 87.6052 230.867 101.265 232.947C109.285 234.177 117.705 234.757 126.475 234.637C134.875 234.517 142.945 233.767 150.625 232.407C165.265 229.817 178.475 224.977 189.945 218.077L189.805 210.067Z" fill="#B7B9BE"/>
<path d="M162.816 103.927C163.256 101.237 163.466 98.3873 163.426 95.3673C163.386 92.3073 163.086 89.4173 162.566 86.7073C159.436 70.5773 148.076 60.7673 132.286 58.4273C129.596 58.0273 126.776 57.8373 123.846 57.8773C120.786 57.9173 117.856 58.2073 115.076 58.7073C99.3556 61.5573 88.2756 71.6473 85.5956 87.7673C85.1456 90.4873 84.9256 93.3873 84.9656 96.4473C85.0056 99.4673 85.2956 102.317 85.8156 104.987C88.9256 121.007 100.286 130.807 116.106 133.217C118.906 133.647 121.846 133.847 124.896 133.807C127.826 133.767 130.646 133.507 133.326 133.027C149.066 130.247 160.166 120.107 162.826 103.927H162.816Z" fill="#B7B9BE"/>
<path d="M261.534 220.158C262.104 216.678 262.374 212.978 262.324 209.068C262.274 205.108 261.894 201.368 261.204 197.858C257.154 176.968 242.434 164.268 221.984 161.228C218.494 160.708 214.844 160.468 211.044 160.518C207.084 160.568 203.294 160.938 199.684 161.588C179.324 165.278 164.974 178.348 161.494 199.218C160.904 202.748 160.624 206.498 160.684 210.458C160.734 214.368 161.114 218.058 161.784 221.518C165.814 242.258 180.524 254.958 201.014 258.088C204.644 258.638 208.444 258.908 212.404 258.848C216.204 258.798 219.844 258.458 223.314 257.838C243.694 254.238 258.084 241.108 261.524 220.138L261.534 220.158Z" fill="#1868DB"/>
<path d="M231.804 163.577C228.704 162.527 225.434 161.727 221.984 161.217C218.494 160.697 214.844 160.457 211.044 160.507C207.084 160.557 203.294 160.927 199.684 161.587C179.324 165.277 164.974 178.347 161.494 199.217C160.904 202.747 160.624 206.497 160.684 210.457C160.734 214.367 161.114 218.057 161.784 221.517C162.314 224.257 163.044 226.857 163.934 229.307C197.304 219.667 221.714 197.137 231.804 163.567V163.577Z" fill="#09326C"/>
<path fill-rule="evenodd" clip-rule="evenodd" d="M238.216 212.027H187.066V205.027H238.216V212.027Z" fill="white"/>
<path fill-rule="evenodd" clip-rule="evenodd" d="M209.145 234.107V182.947H216.145V234.107H209.145Z" fill="white"/>
</svg>
