<svg width="16" height="16" viewBox="0 0 16 16" fill="none" xmlns="http://www.w3.org/2000/svg">
<g clip-path="url(#clip0_237_8164)">
<path d="M13.7826 8.60154C13.4553 8.18699 12.3862 7.5979 12.3862 7.5979C12.8662 7.55426 13.3898 7.40154 13.3898 7.40154C13.8698 7.24881 13.8916 7.00881 13.8916 7.00881C13.9353 6.74699 13.4553 6.55063 13.4553 6.55063C12.9535 6.28881 11.928 6.13608 11.928 6.13608C12.3644 5.89608 12.6262 5.6779 12.6262 5.6779C13.0626 5.28517 12.9535 5.11063 12.9535 5.11063C12.888 4.89245 12.408 4.82699 12.408 4.82699C11.9716 4.76154 11.2516 4.89245 11.2516 4.89245C11.5135 4.52154 11.6007 4.19426 11.6007 4.19426C11.6662 3.93245 11.5789 3.80154 11.5789 3.80154C11.4698 3.60517 11.0335 3.69245 11.0335 3.69245C10.4226 3.84517 9.98619 4.12881 9.98619 4.12881C10.0735 3.84517 10.0516 3.43063 10.0516 3.43063C10.0298 3.2779 10.008 3.05972 9.85529 2.97245C9.68074 2.84154 9.44074 2.95063 9.26619 3.05972C9.11347 3.16881 8.96074 3.29972 8.82983 3.45245C8.80801 3.47426 8.69892 3.58336 8.69892 3.60517C8.65528 3.45245 8.61165 3.29972 8.54619 3.16881C8.45892 2.95063 8.24074 2.68881 7.97892 2.66699C7.7171 2.68881 7.49892 2.95063 7.41165 3.16881C7.34619 3.32154 7.30256 3.45245 7.25892 3.60517C7.25892 3.58336 7.14983 3.47426 7.12801 3.45245C6.9971 3.29972 6.86619 3.16881 6.69165 3.05972C6.53892 2.95063 6.2771 2.86336 6.10256 2.97245C5.97165 3.08154 5.92801 3.2779 5.90619 3.43063C5.90619 3.43063 5.88438 3.84517 5.97165 4.12881C5.97165 4.12881 5.53528 3.84517 4.92438 3.69245C4.92438 3.69245 4.50983 3.60517 4.37892 3.80154C4.37892 3.80154 4.26983 3.93245 4.3571 4.19426C4.3571 4.19426 4.46619 4.52154 4.72801 4.87063C4.72801 4.87063 4.00801 4.73972 3.57165 4.80517C3.57165 4.80517 3.09165 4.84881 3.02619 5.08881C3.02619 5.08881 2.9171 5.28517 3.35347 5.65608C3.35347 5.65608 3.61528 5.87426 4.05165 6.11426C4.05165 6.11426 3.02619 6.26699 2.52438 6.52881C2.52438 6.52881 2.06619 6.74699 2.08801 6.98699C2.08801 6.98699 2.10983 7.22699 2.58983 7.37972C2.58983 7.37972 3.11347 7.55426 3.59347 7.57608C3.59347 7.57608 2.50256 8.14336 2.1971 8.57972C2.1971 8.57972 1.93528 8.84154 2.00074 9.05972C2.00074 9.05972 2.06619 9.34336 2.82983 9.29972C2.82983 9.29972 3.44074 9.25608 4.16074 9.0379C4.16074 9.0379 3.44074 9.86699 3.22256 10.3034C3.22256 10.3034 2.74256 11.0452 3.02619 11.3506C3.02619 11.3506 3.1571 11.5252 3.68074 11.3724C3.68074 11.3724 4.40074 11.1324 5.18619 10.4997C5.18619 10.4997 4.85892 11.3943 4.8371 12.0924C4.8371 12.0924 4.77165 12.7688 5.12074 12.9215C5.12074 12.9215 5.42619 13.0743 5.97165 12.4852C5.97165 12.4852 6.64801 11.7434 7.04074 11.0015C7.08438 11.4161 7.14983 11.8306 7.25892 12.2452C7.32438 12.507 7.41165 12.747 7.52074 12.987C7.60801 13.1615 7.73892 13.4015 7.9571 13.4234C8.17528 13.4015 8.30619 13.1615 8.39347 12.987C8.50256 12.747 8.58983 12.507 8.65528 12.2452C8.76438 11.8306 8.82983 11.4161 8.87347 11.0015C9.26619 11.7434 9.94256 12.4852 9.94256 12.4852C10.5098 13.0743 10.7935 12.9215 10.7935 12.9215C11.1426 12.7906 11.0771 12.0924 11.0771 12.0924C11.0335 11.3943 10.728 10.4997 10.728 10.4997C11.4916 11.1324 12.2335 11.3724 12.2335 11.3724C12.7571 11.5252 12.888 11.3506 12.888 11.3506C13.1716 11.067 12.6916 10.3034 12.6916 10.3034C12.4735 9.86699 11.7535 9.0379 11.7535 9.0379C12.4953 9.25608 13.0844 9.29972 13.0844 9.29972C13.848 9.34336 13.9135 9.05972 13.9135 9.05972C14.0444 8.86336 13.7826 8.60154 13.7826 8.60154ZM12.5171 8.51426C12.5171 8.51426 12.408 8.95063 10.7062 8.44881C10.7062 8.44881 9.74619 8.14336 9.33165 7.90336C9.33165 7.90336 10.2044 9.38699 10.2916 10.5652C10.2916 10.5652 10.3571 11.1324 10.0735 11.2415C10.0735 11.2415 9.76801 11.3724 9.1571 10.6088C9.1571 10.6088 8.41528 9.71426 8.00074 8.40517C7.56438 9.73608 6.84438 10.6088 6.84438 10.6088C6.23347 11.3724 5.92801 11.2415 5.92801 11.2415C5.64438 11.1324 5.70983 10.5652 5.70983 10.5652C5.7971 9.38699 6.66983 7.90336 6.66983 7.90336C6.25528 8.14336 5.29528 8.44881 5.29528 8.44881C3.61529 8.95063 3.48438 8.51426 3.48438 8.51426C3.35347 8.14336 4.31347 7.57608 4.31347 7.57608C5.05528 7.09608 6.18983 6.74699 6.18983 6.74699C4.85892 6.37608 4.37892 5.9179 4.37892 5.9179C3.96438 5.56881 4.09528 5.41608 4.09528 5.41608C4.29165 5.06699 5.46983 5.28517 5.46983 5.28517C6.32074 5.4379 6.77892 5.6779 6.77892 5.6779C6.42983 5.02336 6.34256 4.45608 6.34256 4.45608C6.23347 3.73608 6.53892 3.67063 6.53892 3.67063C6.77892 3.58336 7.10619 3.91063 7.10619 3.91063C7.76074 4.58699 7.97892 5.24154 7.97892 5.24154C7.97892 5.24154 8.1971 4.56517 8.85165 3.91063C8.85165 3.91063 9.17892 3.58336 9.41892 3.67063C9.41892 3.67063 9.72438 3.73608 9.61529 4.45608C9.61529 4.45608 9.52801 5.02336 9.17892 5.6779C9.17892 5.6779 9.6371 5.45972 10.488 5.28517C10.488 5.28517 11.6444 5.06699 11.8626 5.41608C11.8626 5.41608 11.9935 5.56881 11.5789 5.9179C11.5789 5.9179 11.0989 6.37608 9.76801 6.74699C9.76801 6.74699 10.9026 7.09608 11.6444 7.57608C11.6662 7.57608 12.648 8.14336 12.5171 8.51426Z" fill="#1976D2"/>
</g>
<defs>
<clipPath id="clip0_237_8164">
<rect width="12" height="12" fill="white" transform="translate(2 2.0127)"/>
</clipPath>
</defs>
</svg>
