<svg width="16" height="16" viewBox="0 0 16 16" fill="none" xmlns="http://www.w3.org/2000/svg">
<mask id="path-1-inside-1_237_8092" fill="white">
<path d="M0 4C0 1.79086 1.79086 0 4 0H12C14.2091 0 16 1.79086 16 4V12C16 14.2091 14.2091 16 12 16H4C1.79086 16 0 14.2091 0 12V4Z"/>
</mask>
<path d="M0 4C0 1.79086 1.79086 0 4 0H12C14.2091 0 16 1.79086 16 4V12C16 14.2091 14.2091 16 12 16H4C1.79086 16 0 14.2091 0 12V4Z" fill="white"/>
<path d="M4 0V1H12V0V-1H4V0ZM16 4H15V12H16H17V4H16ZM12 16V15H4V16V17H12V16ZM0 12H1V4H0H-1V12H0ZM4 16V15C2.34315 15 1 13.6569 1 12H0H-1C-1 14.7614 1.23858 17 4 17V16ZM16 12H15C15 13.6569 13.6569 15 12 15V16V17C14.7614 17 17 14.7614 17 12H16ZM12 0V1C13.6569 1 15 2.34315 15 4H16H17C17 1.23858 14.7614 -1 12 -1V0ZM4 0V-1C1.23858 -1 -1 1.23858 -1 4H0H1C1 2.34315 2.34315 1 4 1V0Z" fill="#0B1228" fill-opacity="0.14" mask="url(#path-1-inside-1_237_8092)"/>
<g clip-path="url(#clip0_237_8092)">
<path d="M12.8191 8.49331C12.5464 8.14785 11.6555 7.65694 11.6555 7.65694C12.0555 7.62058 12.4919 7.49331 12.4919 7.49331C12.8919 7.36603 12.91 7.16603 12.91 7.16603C12.9464 6.94785 12.5464 6.78422 12.5464 6.78422C12.1282 6.56603 11.2737 6.43876 11.2737 6.43876C11.6373 6.23876 11.8555 6.05694 11.8555 6.05694C12.2191 5.72967 12.1282 5.58422 12.1282 5.58422C12.0737 5.4024 11.6737 5.34785 11.6737 5.34785C11.31 5.29331 10.71 5.4024 10.71 5.4024C10.9282 5.09331 11.0009 4.82058 11.0009 4.82058C11.0555 4.6024 10.9828 4.49331 10.9828 4.49331C10.8919 4.32967 10.5282 4.4024 10.5282 4.4024C10.0191 4.52967 9.65549 4.76603 9.65549 4.76603C9.72821 4.52967 9.71003 4.18422 9.71003 4.18422C9.69185 4.05694 9.67367 3.87512 9.5464 3.8024C9.40094 3.69331 9.20094 3.78422 9.05549 3.87512C8.92821 3.96603 8.80094 4.07512 8.69185 4.2024C8.67367 4.22058 8.58276 4.31149 8.58276 4.32967C8.5464 4.2024 8.51003 4.07512 8.45549 3.96603C8.38276 3.78422 8.20094 3.56603 7.98276 3.54785C7.76458 3.56603 7.58276 3.78422 7.51003 3.96603C7.45549 4.09331 7.41912 4.2024 7.38276 4.32967C7.38276 4.31149 7.29185 4.22058 7.27367 4.2024C7.16458 4.07512 7.05549 3.96603 6.91003 3.87512C6.78276 3.78422 6.56458 3.71149 6.41912 3.8024C6.31003 3.89331 6.27367 4.05694 6.25549 4.18422C6.25549 4.18422 6.23731 4.52967 6.31003 4.76603C6.31003 4.76603 5.9464 4.52967 5.43731 4.4024C5.43731 4.4024 5.09185 4.32967 4.98276 4.49331C4.98276 4.49331 4.89185 4.6024 4.96458 4.82058C4.96458 4.82058 5.05549 5.09331 5.27367 5.38422C5.27367 5.38422 4.67367 5.27512 4.31003 5.32967C4.31003 5.32967 3.91003 5.36603 3.85549 5.56603C3.85549 5.56603 3.76458 5.72967 4.12821 6.03876C4.12821 6.03876 4.3464 6.22058 4.71003 6.42058C4.71003 6.42058 3.85549 6.54785 3.43731 6.76603C3.43731 6.76603 3.05549 6.94785 3.07367 7.14785C3.07367 7.14785 3.09185 7.34785 3.49185 7.47512C3.49185 7.47512 3.92821 7.62058 4.32821 7.63876C4.32821 7.63876 3.41912 8.11149 3.16458 8.47512C3.16458 8.47512 2.9464 8.69331 3.00094 8.87512C3.00094 8.87512 3.05549 9.11149 3.69185 9.07512C3.69185 9.07512 4.20094 9.03876 4.80094 8.85694C4.80094 8.85694 4.20094 9.54785 4.01912 9.91149C4.01912 9.91149 3.61912 10.5297 3.85549 10.7842C3.85549 10.7842 3.96458 10.9297 4.40094 10.8024C4.40094 10.8024 5.00094 10.6024 5.65549 10.0751C5.65549 10.0751 5.38276 10.8206 5.36458 11.4024C5.36458 11.4024 5.31003 11.966 5.60094 12.0933C5.60094 12.0933 5.85549 12.2206 6.31003 11.7297C6.31003 11.7297 6.87367 11.1115 7.20094 10.4933C7.23731 10.8388 7.29185 11.1842 7.38276 11.5297C7.43731 11.7479 7.51003 11.9479 7.60094 12.1479C7.67367 12.2933 7.78276 12.4933 7.96458 12.5115C8.1464 12.4933 8.25549 12.2933 8.32821 12.1479C8.41912 11.9479 8.49185 11.7479 8.5464 11.5297C8.6373 11.1842 8.69185 10.8388 8.72821 10.4933C9.05549 11.1115 9.61912 11.7297 9.61912 11.7297C10.0919 12.2206 10.3282 12.0933 10.3282 12.0933C10.6191 11.9842 10.5646 11.4024 10.5646 11.4024C10.5282 10.8206 10.2737 10.0751 10.2737 10.0751C10.91 10.6024 11.5282 10.8024 11.5282 10.8024C11.9646 10.9297 12.0737 10.7842 12.0737 10.7842C12.31 10.5479 11.91 9.91149 11.91 9.91149C11.7282 9.54785 11.1282 8.85694 11.1282 8.85694C11.7464 9.03876 12.2373 9.07512 12.2373 9.07512C12.8737 9.11149 12.9282 8.87512 12.9282 8.87512C13.0373 8.71149 12.8191 8.49331 12.8191 8.49331ZM11.7646 8.42058C11.7646 8.42058 11.6737 8.78422 10.2555 8.36603C10.2555 8.36603 9.45549 8.11149 9.11003 7.91149C9.11003 7.91149 9.83731 9.14785 9.91003 10.1297C9.91003 10.1297 9.96458 10.6024 9.72821 10.6933C9.72821 10.6933 9.47367 10.8024 8.96458 10.166C8.96458 10.166 8.3464 9.42058 8.00094 8.32967C7.6373 9.43876 7.03731 10.166 7.03731 10.166C6.52821 10.8024 6.27367 10.6933 6.27367 10.6933C6.03731 10.6024 6.09185 10.1297 6.09185 10.1297C6.16458 9.14785 6.89185 7.91149 6.89185 7.91149C6.5464 8.11149 5.7464 8.36603 5.7464 8.36603C4.3464 8.78422 4.23731 8.42058 4.23731 8.42058C4.12821 8.11149 4.92821 7.63876 4.92821 7.63876C5.5464 7.23876 6.49185 6.94785 6.49185 6.94785C5.38276 6.63876 4.98276 6.25694 4.98276 6.25694C4.63731 5.96603 4.7464 5.83876 4.7464 5.83876C4.91003 5.54785 5.89185 5.72967 5.89185 5.72967C6.60094 5.85694 6.98276 6.05694 6.98276 6.05694C6.69185 5.51149 6.61912 5.03876 6.61912 5.03876C6.52821 4.43876 6.78276 4.38422 6.78276 4.38422C6.98276 4.31149 7.25549 4.58422 7.25549 4.58422C7.80094 5.14785 7.98276 5.69331 7.98276 5.69331C7.98276 5.69331 8.16458 5.12967 8.71003 4.58422C8.71003 4.58422 8.98276 4.31149 9.18276 4.38422C9.18276 4.38422 9.43731 4.43876 9.3464 5.03876C9.3464 5.03876 9.27367 5.51149 8.98276 6.05694C8.98276 6.05694 9.36458 5.87512 10.0737 5.72967C10.0737 5.72967 11.0373 5.54785 11.2191 5.83876C11.2191 5.83876 11.3282 5.96603 10.9828 6.25694C10.9828 6.25694 10.5828 6.63876 9.47367 6.94785C9.47367 6.94785 10.4191 7.23876 11.0373 7.63876C11.0555 7.63876 11.8737 8.11149 11.7646 8.42058Z" fill="#1976D2"/>
</g>
<defs>
<clipPath id="clip0_237_8092">
<rect width="10" height="10" fill="white" transform="translate(3 3.00195)"/>
</clipPath>
</defs>
</svg>
