<svg width="20" height="20" viewBox="0 0 20 20" fill="none" xmlns="http://www.w3.org/2000/svg">
<mask id="path-1-inside-1_237_8024" fill="white">
<path d="M0 5C0 2.23858 2.23858 0 5 0H15C17.7614 0 20 2.23858 20 5V15C20 17.7614 17.7614 20 15 20H5C2.23858 20 0 17.7614 0 15V5Z"/>
</mask>
<path d="M0 5C0 2.23858 2.23858 0 5 0H15C17.7614 0 20 2.23858 20 5V15C20 17.7614 17.7614 20 15 20H5C2.23858 20 0 17.7614 0 15V5Z" fill="white"/>
<path d="M5 0V1H15V0V-1H5V0ZM20 5H19V15H20H21V5H20ZM15 20V19H5V20V21H15V20ZM0 15H1V5H0H-1V15H0ZM5 20V19C2.79086 19 1 17.2091 1 15H0H-1C-1 18.3137 1.68629 21 5 21V20ZM20 15H19C19 17.2091 17.2091 19 15 19V20V21C18.3137 21 21 18.3137 21 15H20ZM15 0V1C17.2091 1 19 2.79086 19 5H20H21C21 1.68629 18.3137 -1 15 -1V0ZM5 0V-1C1.68629 -1 -1 1.68629 -1 5H0H1C1 2.79086 2.79086 1 5 1V0Z" fill="#0B1228" fill-opacity="0.14" mask="url(#path-1-inside-1_237_8024)"/>
<g clip-path="url(#clip0_237_8024)">
<path d="M15.7826 10.6074C15.4553 10.1929 14.3862 9.60376 14.3862 9.60376C14.8662 9.56012 15.3898 9.4074 15.3898 9.4074C15.8698 9.25467 15.8916 9.01467 15.8916 9.01467C15.9353 8.75285 15.4553 8.55649 15.4553 8.55649C14.9535 8.29467 13.928 8.14194 13.928 8.14194C14.3644 7.90194 14.6262 7.68376 14.6262 7.68376C15.0626 7.29103 14.9535 7.11649 14.9535 7.11649C14.888 6.89831 14.408 6.83285 14.408 6.83285C13.9716 6.7674 13.2516 6.89831 13.2516 6.89831C13.5135 6.5274 13.6007 6.20012 13.6007 6.20012C13.6662 5.93831 13.5789 5.8074 13.5789 5.8074C13.4698 5.61103 13.0335 5.69831 13.0335 5.69831C12.4226 5.85103 11.9862 6.13467 11.9862 6.13467C12.0735 5.85103 12.0516 5.43649 12.0516 5.43649C12.0298 5.28376 12.008 5.06558 11.8553 4.97831C11.6807 4.8474 11.4407 4.95649 11.2662 5.06558C11.1135 5.17467 10.9607 5.30558 10.8298 5.45831C10.808 5.48012 10.6989 5.58922 10.6989 5.61103C10.6553 5.45831 10.6116 5.30558 10.5462 5.17467C10.4589 4.95649 10.2407 4.69467 9.97892 4.67285C9.7171 4.69467 9.49892 4.95649 9.41165 5.17467C9.34619 5.3274 9.30256 5.45831 9.25892 5.61103C9.25892 5.58922 9.14983 5.48012 9.12801 5.45831C8.9971 5.30558 8.86619 5.17467 8.69165 5.06558C8.53892 4.95649 8.2771 4.86922 8.10256 4.97831C7.97165 5.0874 7.92801 5.28376 7.90619 5.43649C7.90619 5.43649 7.88438 5.85103 7.97165 6.13467C7.97165 6.13467 7.53528 5.85103 6.92438 5.69831C6.92438 5.69831 6.50983 5.61103 6.37892 5.8074C6.37892 5.8074 6.26983 5.93831 6.3571 6.20012C6.3571 6.20012 6.46619 6.5274 6.72801 6.87649C6.72801 6.87649 6.00801 6.74558 5.57165 6.81103C5.57165 6.81103 5.09165 6.85467 5.02619 7.09467C5.02619 7.09467 4.9171 7.29103 5.35347 7.66194C5.35347 7.66194 5.61528 7.88012 6.05165 8.12012C6.05165 8.12012 5.02619 8.27285 4.52438 8.53467C4.52438 8.53467 4.06619 8.75285 4.08801 8.99285C4.08801 8.99285 4.10983 9.23285 4.58983 9.38558C4.58983 9.38558 5.11347 9.56012 5.59347 9.58194C5.59347 9.58194 4.50256 10.1492 4.1971 10.5856C4.1971 10.5856 3.93528 10.8474 4.00074 11.0656C4.00074 11.0656 4.06619 11.3492 4.82983 11.3056C4.82983 11.3056 5.44074 11.2619 6.16074 11.0438C6.16074 11.0438 5.44074 11.8729 5.22256 12.3092C5.22256 12.3092 4.74256 13.051 5.02619 13.3565C5.02619 13.3565 5.1571 13.531 5.68074 13.3783C5.68074 13.3783 6.40074 13.1383 7.18619 12.5056C7.18619 12.5056 6.85892 13.4001 6.8371 14.0983C6.8371 14.0983 6.77165 14.7747 7.12074 14.9274C7.12074 14.9274 7.42619 15.0801 7.97165 14.491C7.97165 14.491 8.64801 13.7492 9.04074 13.0074C9.08438 13.4219 9.14983 13.8365 9.25892 14.251C9.32438 14.5129 9.41165 14.7529 9.52074 14.9929C9.60801 15.1674 9.73892 15.4074 9.9571 15.4292C10.1753 15.4074 10.3062 15.1674 10.3935 14.9929C10.5026 14.7529 10.5898 14.5129 10.6553 14.251C10.7644 13.8365 10.8298 13.4219 10.8735 13.0074C11.2662 13.7492 11.9426 14.491 11.9426 14.491C12.5098 15.0801 12.7935 14.9274 12.7935 14.9274C13.1426 14.7965 13.0771 14.0983 13.0771 14.0983C13.0335 13.4001 12.728 12.5056 12.728 12.5056C13.4916 13.1383 14.2335 13.3783 14.2335 13.3783C14.7571 13.531 14.888 13.3565 14.888 13.3565C15.1716 13.0729 14.6916 12.3092 14.6916 12.3092C14.4735 11.8729 13.7535 11.0438 13.7535 11.0438C14.4953 11.2619 15.0844 11.3056 15.0844 11.3056C15.848 11.3492 15.9135 11.0656 15.9135 11.0656C16.0444 10.8692 15.7826 10.6074 15.7826 10.6074ZM14.5171 10.5201C14.5171 10.5201 14.408 10.9565 12.7062 10.4547C12.7062 10.4547 11.7462 10.1492 11.3316 9.90921C11.3316 9.90921 12.2044 11.3929 12.2916 12.571C12.2916 12.571 12.3571 13.1383 12.0735 13.2474C12.0735 13.2474 11.768 13.3783 11.1571 12.6147C11.1571 12.6147 10.4153 11.7201 10.0007 10.411C9.56438 11.7419 8.84438 12.6147 8.84438 12.6147C8.23347 13.3783 7.92801 13.2474 7.92801 13.2474C7.64438 13.1383 7.70983 12.571 7.70983 12.571C7.7971 11.3929 8.66983 9.90921 8.66983 9.90921C8.25528 10.1492 7.29528 10.4547 7.29528 10.4547C5.61529 10.9565 5.48438 10.5201 5.48438 10.5201C5.35347 10.1492 6.31347 9.58194 6.31347 9.58194C7.05528 9.10194 8.18983 8.75285 8.18983 8.75285C6.85892 8.38194 6.37892 7.92376 6.37892 7.92376C5.96438 7.57467 6.09528 7.42194 6.09528 7.42194C6.29165 7.07285 7.46983 7.29103 7.46983 7.29103C8.32074 7.44376 8.77892 7.68376 8.77892 7.68376C8.42983 7.02922 8.34256 6.46194 8.34256 6.46194C8.23347 5.74194 8.53892 5.67649 8.53892 5.67649C8.77892 5.58922 9.10619 5.91649 9.10619 5.91649C9.76074 6.59285 9.97892 7.2474 9.97892 7.2474C9.97892 7.2474 10.1971 6.57103 10.8516 5.91649C10.8516 5.91649 11.1789 5.58922 11.4189 5.67649C11.4189 5.67649 11.7244 5.74194 11.6153 6.46194C11.6153 6.46194 11.528 7.02922 11.1789 7.68376C11.1789 7.68376 11.6371 7.46558 12.488 7.29103C12.488 7.29103 13.6444 7.07285 13.8626 7.42194C13.8626 7.42194 13.9935 7.57467 13.5789 7.92376C13.5789 7.92376 13.0989 8.38194 11.768 8.75285C11.768 8.75285 12.9026 9.10194 13.6444 9.58194C13.6662 9.58194 14.648 10.1492 14.5171 10.5201Z" fill="#1976D2"/>
</g>
<defs>
<clipPath id="clip0_237_8024">
<rect width="12" height="12" fill="white" transform="translate(4 4.01855)"/>
</clipPath>
</defs>
</svg>
