<svg width="24" height="24" viewBox="0 0 24 24" fill="none" xmlns="http://www.w3.org/2000/svg">
<mask id="path-1-inside-1_237_7952" fill="white">
<path d="M0 6.39569C0 2.86345 2.86345 0 6.39569 0H17.6043C21.1366 0 24 2.86345 24 6.39569V17.6043C24 21.1366 21.1366 24 17.6043 24H6.39569C2.86345 24 0 21.1366 0 17.6043V6.39569Z"/>
</mask>
<path d="M0 6.39569C0 2.86345 2.86345 0 6.39569 0H17.6043C21.1366 0 24 2.86345 24 6.39569V17.6043C24 21.1366 21.1366 24 17.6043 24H6.39569C2.86345 24 0 21.1366 0 17.6043V6.39569Z" fill="white"/>
<path d="M6.39569 0V1H17.6043V0V-1H6.39569V0ZM24 6.39569H23V17.6043H24H25V6.39569H24ZM17.6043 24V23H6.39569V24V25H17.6043V24ZM0 17.6043H1V6.39569H0H-1V17.6043H0ZM6.39569 24V23C3.41573 23 1 20.5843 1 17.6043H0H-1C-1 21.6888 2.31116 25 6.39569 25V24ZM24 17.6043H23C23 20.5843 20.5843 23 17.6043 23V24V25C21.6888 25 25 21.6888 25 17.6043H24ZM17.6043 0V1C20.5843 1 23 3.41573 23 6.39569H24H25C25 2.31116 21.6888 -1 17.6043 -1V0ZM6.39569 0V-1C2.31116 -1 -1 2.31116 -1 6.39569H0H1C1 3.41573 3.41573 1 6.39569 1V0Z" fill="#0B1228" fill-opacity="0.14" mask="url(#path-1-inside-1_237_7952)"/>
<g clip-path="url(#clip0_237_7952)">
<path d="M19.7094 12.7858C19.2731 12.233 17.8476 11.4476 17.8476 11.4476C18.4876 11.3894 19.1858 11.1858 19.1858 11.1858C19.8258 10.9821 19.8549 10.6621 19.8549 10.6621C19.9131 10.313 19.2731 10.0512 19.2731 10.0512C18.604 9.70214 17.2367 9.4985 17.2367 9.4985C17.8185 9.1785 18.1676 8.88759 18.1676 8.88759C18.7494 8.36396 18.604 8.13123 18.604 8.13123C18.5167 7.84032 17.8767 7.75305 17.8767 7.75305C17.2949 7.66577 16.3349 7.84032 16.3349 7.84032C16.684 7.34577 16.8003 6.90941 16.8003 6.90941C16.8876 6.56032 16.7712 6.38577 16.7712 6.38577C16.6258 6.12396 16.044 6.24032 16.044 6.24032C15.2294 6.44396 14.6476 6.82214 14.6476 6.82214C14.764 6.44396 14.7349 5.89123 14.7349 5.89123C14.7058 5.68759 14.6767 5.39668 14.4731 5.28032C14.2403 5.10577 13.9203 5.25123 13.6876 5.39668C13.484 5.54214 13.2803 5.71668 13.1058 5.92032C13.0767 5.94941 12.9312 6.09487 12.9312 6.12396C12.8731 5.92032 12.8149 5.71668 12.7276 5.54214C12.6112 5.25123 12.3203 4.90214 11.9712 4.87305C11.6222 4.90214 11.3312 5.25123 11.2149 5.54214C11.1276 5.74577 11.0694 5.92032 11.0112 6.12396C11.0112 6.09487 10.8658 5.94941 10.8367 5.92032C10.6622 5.71668 10.4876 5.54214 10.2549 5.39668C10.0512 5.25123 9.70215 5.13487 9.46943 5.28032C9.29488 5.42577 9.2367 5.68759 9.20761 5.89123C9.20761 5.89123 9.17852 6.44396 9.29488 6.82214C9.29488 6.82214 8.71306 6.44396 7.89852 6.24032C7.89852 6.24032 7.34579 6.12396 7.17124 6.38577C7.17124 6.38577 7.02579 6.56032 7.14215 6.90941C7.14215 6.90941 7.28761 7.34577 7.6367 7.81123C7.6367 7.81123 6.6767 7.63668 6.09488 7.72396C6.09488 7.72396 5.45488 7.78214 5.36761 8.10214C5.36761 8.10214 5.22215 8.36396 5.80397 8.8585C5.80397 8.8585 6.15306 9.14941 6.73488 9.46941C6.73488 9.46941 5.36761 9.67305 4.69852 10.0221C4.69852 10.0221 4.08761 10.313 4.1167 10.633C4.1167 10.633 4.14579 10.953 4.78579 11.1567C4.78579 11.1567 5.48397 11.3894 6.12397 11.4185C6.12397 11.4185 4.66943 12.1749 4.26215 12.7567C4.26215 12.7567 3.91306 13.1058 4.00033 13.3967C4.00033 13.3967 4.08761 13.7749 5.10579 13.7167C5.10579 13.7167 5.92033 13.6585 6.88033 13.3676C6.88033 13.3676 5.92033 14.473 5.62943 15.0549C5.62943 15.0549 4.98943 16.044 5.36761 16.4512C5.36761 16.4512 5.54215 16.684 6.24033 16.4803C6.24033 16.4803 7.20033 16.1603 8.24761 15.3167C8.24761 15.3167 7.81124 16.5094 7.78215 17.4403C7.78215 17.4403 7.69488 18.3421 8.16033 18.5458C8.16033 18.5458 8.56761 18.7494 9.29488 17.964C9.29488 17.964 10.1967 16.9749 10.7203 15.9858C10.7785 16.5385 10.8658 17.0912 11.0112 17.644C11.0985 17.993 11.2149 18.313 11.3603 18.633C11.4767 18.8658 11.6512 19.1858 11.9422 19.2149C12.2331 19.1858 12.4076 18.8658 12.524 18.633C12.6694 18.313 12.7858 17.993 12.8731 17.644C13.0185 17.0912 13.1058 16.5385 13.164 15.9858C13.6876 16.9749 14.5894 17.964 14.5894 17.964C15.3458 18.7494 15.724 18.5458 15.724 18.5458C16.1894 18.3712 16.1022 17.4403 16.1022 17.4403C16.044 16.5094 15.6367 15.3167 15.6367 15.3167C16.6549 16.1603 17.644 16.4803 17.644 16.4803C18.3422 16.684 18.5167 16.4512 18.5167 16.4512C18.8949 16.073 18.2549 15.0549 18.2549 15.0549C17.964 14.473 17.004 13.3676 17.004 13.3676C17.9931 13.6585 18.7785 13.7167 18.7785 13.7167C19.7967 13.7749 19.884 13.3967 19.884 13.3967C20.0585 13.1349 19.7094 12.7858 19.7094 12.7858ZM18.0222 12.6694C18.0222 12.6694 17.8767 13.2512 15.6076 12.5821C15.6076 12.5821 14.3276 12.1749 13.7749 11.8549C13.7749 11.8549 14.9385 13.833 15.0549 15.404C15.0549 15.404 15.1422 16.1603 14.764 16.3058C14.764 16.3058 14.3567 16.4803 13.5422 15.4621C13.5422 15.4621 12.5531 14.2694 12.0003 12.524C11.4185 14.2985 10.4585 15.4621 10.4585 15.4621C9.64397 16.4803 9.2367 16.3058 9.2367 16.3058C8.85852 16.1603 8.94579 15.404 8.94579 15.404C9.06215 13.833 10.2258 11.8549 10.2258 11.8549C9.67306 12.1749 8.39306 12.5821 8.39306 12.5821C6.15306 13.2512 5.97852 12.6694 5.97852 12.6694C5.80397 12.1749 7.08397 11.4185 7.08397 11.4185C8.07306 10.7785 9.58579 10.313 9.58579 10.313C7.81124 9.8185 7.17124 9.20759 7.17124 9.20759C6.61852 8.74214 6.79306 8.5385 6.79306 8.5385C7.05488 8.07305 8.62579 8.36396 8.62579 8.36396C9.76033 8.56759 10.3712 8.88759 10.3712 8.88759C9.90579 8.01487 9.78943 7.2585 9.78943 7.2585C9.64397 6.2985 10.0512 6.21123 10.0512 6.21123C10.3712 6.09486 10.8076 6.53123 10.8076 6.53123C11.6803 7.43305 11.9712 8.30577 11.9712 8.30577C11.9712 8.30577 12.2622 7.40396 13.1349 6.53123C13.1349 6.53123 13.5712 6.09486 13.8912 6.21123C13.8912 6.21123 14.2985 6.2985 14.1531 7.2585C14.1531 7.2585 14.0367 8.01487 13.5712 8.88759C13.5712 8.88759 14.1822 8.59668 15.3167 8.36396C15.3167 8.36396 16.8585 8.07305 17.1494 8.5385C17.1494 8.5385 17.324 8.74214 16.7712 9.20759C16.7712 9.20759 16.1312 9.8185 14.3567 10.313C14.3567 10.313 15.8694 10.7785 16.8585 11.4185C16.8876 11.4185 18.1967 12.1749 18.0222 12.6694Z" fill="#1976D2"/>
</g>
<defs>
<clipPath id="clip0_237_7952">
<rect width="16" height="16" fill="white" transform="translate(4 4)"/>
</clipPath>
</defs>
</svg>
