<svg width="32" height="32" viewBox="0 0 32 32" fill="none" xmlns="http://www.w3.org/2000/svg">
<mask id="path-1-inside-1_237_7880" fill="white">
<path d="M0 8C0 3.58172 3.58172 0 8 0H24C28.4183 0 32 3.58172 32 8V24C32 28.4183 28.4183 32 24 32H8C3.58172 32 0 28.4183 0 24V8Z"/>
</mask>
<path d="M0 8C0 3.58172 3.58172 0 8 0H24C28.4183 0 32 3.58172 32 8V24C32 28.4183 28.4183 32 24 32H8C3.58172 32 0 28.4183 0 24V8Z" fill="white"/>
<path d="M8 0V1H24V0V-1H8V0ZM32 8H31V24H32H33V8H32ZM24 32V31H8V32V33H24V32ZM0 24H1V8H0H-1V24H0ZM8 32V31C4.13401 31 1 27.866 1 24H0H-1C-1 28.9706 3.02944 33 8 33V32ZM32 24H31C31 27.866 27.866 31 24 31V32V33C28.9706 33 33 28.9706 33 24H32ZM24 0V1C27.866 1 31 4.13401 31 8H32H33C33 3.02944 28.9706 -1 24 -1V0ZM8 0V-1C3.02944 -1 -1 3.02944 -1 8H0H1C1 4.13401 4.13401 1 8 1V0Z" fill="#0B1228" fill-opacity="0.14" mask="url(#path-1-inside-1_237_7880)"/>
<g clip-path="url(#clip0_237_7880)">
<path d="M25.6363 16.9817C25.0908 16.2908 23.309 15.309 23.309 15.309C24.109 15.2363 24.9817 14.9817 24.9817 14.9817C25.7817 14.7272 25.8181 14.3272 25.8181 14.3272C25.8908 13.8908 25.0908 13.5635 25.0908 13.5635C24.2545 13.1272 22.5454 12.8726 22.5454 12.8726C23.2727 12.4726 23.709 12.109 23.709 12.109C24.4363 11.4545 24.2545 11.1635 24.2545 11.1635C24.1454 10.7999 23.3454 10.6908 23.3454 10.6908C22.6181 10.5817 21.4181 10.7999 21.4181 10.7999C21.8545 10.1817 21.9999 9.63627 21.9999 9.63627C22.109 9.19991 21.9636 8.98173 21.9636 8.98173C21.7817 8.65446 21.0545 8.79991 21.0545 8.79991C20.0363 9.05446 19.309 9.52718 19.309 9.52718C19.4545 9.05446 19.4181 8.36355 19.4181 8.36355C19.3817 8.109 19.3454 7.74537 19.0908 7.59991C18.7999 7.38173 18.3999 7.56355 18.109 7.74537C17.8545 7.92718 17.5999 8.14537 17.3817 8.39991C17.3454 8.43627 17.1636 8.61809 17.1636 8.65446C17.0908 8.39991 17.0181 8.14537 16.909 7.92718C16.7636 7.56355 16.3999 7.12718 15.9636 7.09082C15.5272 7.12718 15.1636 7.56355 15.0181 7.92718C14.909 8.18173 14.8363 8.39991 14.7636 8.65446C14.7636 8.61809 14.5817 8.43627 14.5454 8.39991C14.3272 8.14537 14.109 7.92718 13.8181 7.74537C13.5636 7.56355 13.1272 7.41809 12.8363 7.59991C12.6181 7.78173 12.5454 8.109 12.509 8.36355C12.509 8.36355 12.4727 9.05446 12.6181 9.52718C12.6181 9.52718 11.8908 9.05446 10.8727 8.79991C10.8727 8.79991 10.1817 8.65446 9.96357 8.98173C9.96357 8.98173 9.78175 9.19991 9.9272 9.63627C9.9272 9.63627 10.109 10.1817 10.5454 10.7635C10.5454 10.7635 9.34538 10.5454 8.61811 10.6545C8.61811 10.6545 7.81811 10.7272 7.70902 11.1272C7.70902 11.1272 7.5272 11.4545 8.25448 12.0726C8.25448 12.0726 8.69084 12.4363 9.41811 12.8363C9.41811 12.8363 7.70902 13.0908 6.87266 13.5272C6.87266 13.5272 6.10902 13.8908 6.14538 14.2908C6.14538 14.2908 6.18175 14.6908 6.98175 14.9454C6.98175 14.9454 7.85448 15.2363 8.65448 15.2726C8.65448 15.2726 6.83629 16.2181 6.3272 16.9454C6.3272 16.9454 5.89084 17.3817 5.99993 17.7454C5.99993 17.7454 6.10902 18.2181 7.38175 18.1454C7.38175 18.1454 8.39993 18.0726 9.59993 17.709C9.59993 17.709 8.39993 19.0908 8.03629 19.8181C8.03629 19.8181 7.23629 21.0545 7.70902 21.5635C7.70902 21.5635 7.9272 21.8545 8.79993 21.5999C8.79993 21.5999 9.99993 21.1999 11.309 20.1454C11.309 20.1454 10.7636 21.6363 10.7272 22.7999C10.7272 22.7999 10.6181 23.9272 11.1999 24.1817C11.1999 24.1817 11.709 24.4363 12.6181 23.4545C12.6181 23.4545 13.7454 22.2181 14.3999 20.9817C14.4727 21.6726 14.5817 22.3635 14.7636 23.0545C14.8727 23.4908 15.0181 23.8908 15.1999 24.2908C15.3454 24.5817 15.5636 24.9817 15.9272 25.0181C16.2908 24.9817 16.509 24.5817 16.6545 24.2908C16.8363 23.8908 16.9817 23.4908 17.0908 23.0545C17.2727 22.3635 17.3817 21.6726 17.4545 20.9817C18.109 22.2181 19.2363 23.4545 19.2363 23.4545C20.1817 24.4363 20.6545 24.1817 20.6545 24.1817C21.2363 23.9635 21.1272 22.7999 21.1272 22.7999C21.0545 21.6363 20.5454 20.1454 20.5454 20.1454C21.8181 21.1999 23.0545 21.5999 23.0545 21.5999C23.9272 21.8545 24.1454 21.5635 24.1454 21.5635C24.6181 21.0908 23.8181 19.8181 23.8181 19.8181C23.4545 19.0908 22.2545 17.709 22.2545 17.709C23.4908 18.0726 24.4727 18.1454 24.4727 18.1454C25.7454 18.2181 25.8545 17.7454 25.8545 17.7454C26.0727 17.4181 25.6363 16.9817 25.6363 16.9817ZM23.5272 16.8363C23.5272 16.8363 23.3454 17.5635 20.509 16.7272C20.509 16.7272 18.909 16.2181 18.2181 15.8181C18.2181 15.8181 19.6727 18.2908 19.8181 20.2545C19.8181 20.2545 19.9272 21.1999 19.4545 21.3817C19.4545 21.3817 18.9454 21.5999 17.9272 20.3272C17.9272 20.3272 16.6908 18.8363 15.9999 16.6545C15.2727 18.8726 14.0727 20.3272 14.0727 20.3272C13.0545 21.5999 12.5454 21.3817 12.5454 21.3817C12.0727 21.1999 12.1817 20.2545 12.1817 20.2545C12.3272 18.2908 13.7817 15.8181 13.7817 15.8181C13.0908 16.2181 11.4908 16.7272 11.4908 16.7272C8.69084 17.5635 8.47266 16.8363 8.47266 16.8363C8.25448 16.2181 9.85448 15.2726 9.85448 15.2726C11.0908 14.4726 12.9817 13.8908 12.9817 13.8908C10.7636 13.2726 9.96357 12.509 9.96357 12.509C9.27266 11.9272 9.49084 11.6726 9.49084 11.6726C9.81811 11.0908 11.7817 11.4545 11.7817 11.4545C13.1999 11.709 13.9636 12.109 13.9636 12.109C13.3817 11.0181 13.2363 10.0726 13.2363 10.0726C13.0545 8.87264 13.5636 8.76355 13.5636 8.76355C13.9636 8.61809 14.509 9.16355 14.509 9.16355C15.5999 10.2908 15.9636 11.3817 15.9636 11.3817C15.9636 11.3817 16.3272 10.2545 17.4181 9.16355C17.4181 9.16355 17.9636 8.61809 18.3636 8.76355C18.3636 8.76355 18.8727 8.87264 18.6908 10.0726C18.6908 10.0726 18.5454 11.0181 17.9636 12.109C17.9636 12.109 18.7272 11.7454 20.1454 11.4545C20.1454 11.4545 22.0727 11.0908 22.4363 11.6726C22.4363 11.6726 22.6545 11.9272 21.9636 12.509C21.9636 12.509 21.1636 13.2726 18.9454 13.8908C18.9454 13.8908 20.8363 14.4726 22.0727 15.2726C22.109 15.2726 23.7454 16.2181 23.5272 16.8363Z" fill="#1976D2"/>
</g>
<defs>
<clipPath id="clip0_237_7880">
<rect width="20" height="20" fill="white" transform="translate(6 6)"/>
</clipPath>
</defs>
</svg>
