<svg width="16" height="16" viewBox="0 0 16 16" fill="none" xmlns="http://www.w3.org/2000/svg">
<path d="M0 4C0 1.79086 1.79086 0 4 0H12C14.2091 0 16 1.79086 16 4V12C16 14.2091 14.2091 16 12 16H4C1.79086 16 0 14.2091 0 12V4Z" fill="#DE483A"/>
<path d="M10.7225 4H5.2947C4.58936 4 4.01758 4.57179 4.01758 5.27713V10.7049C4.01758 11.4102 4.58936 11.982 5.2947 11.982H10.7225C11.4278 11.982 11.9996 11.4102 11.9996 10.7049V5.27713C11.9996 4.57179 11.4278 4 10.7225 4Z" fill="white"/>
<path d="M5.70515 7.73962L7.29507 6.82468L7.29706 6.82343L8.93537 5.88055C9.00446 5.84064 9.0077 5.71842 8.93038 5.67402L8.87625 5.64309C8.79718 5.59819 8.69491 5.53982 8.65126 5.51438C8.61301 5.49355 8.57007 5.48289 8.52652 5.48342C8.48298 5.48394 8.4403 5.49563 8.40257 5.51737C8.36391 5.53982 5.78323 7.02348 5.69692 7.07262C5.64607 7.10169 5.5885 7.11699 5.52992 7.11699C5.47134 7.11699 5.41378 7.10169 5.36293 7.07262L4 6.28065V6.95389L4.01397 6.96187C4.3542 7.16017 5.15938 7.62912 5.35644 7.74012C5.47592 7.80747 5.59016 7.80597 5.70515 7.73962Z" fill="#DE483A"/>
<path d="M5.70515 9.08435L7.29307 8.1704L7.29906 8.16691L8.93537 7.22528C9.00446 7.18537 9.0077 7.0629 8.93038 7.01875L8.87625 6.98782C8.79743 6.94292 8.69491 6.88455 8.65126 6.8591C8.61301 6.83828 8.57007 6.82762 8.52652 6.82814C8.48298 6.82867 8.4403 6.84036 8.40257 6.8621C8.36391 6.8843 5.78323 8.36821 5.69692 8.4171C5.64607 8.44617 5.5885 8.46146 5.52992 8.46146C5.47134 8.46146 5.41378 8.44617 5.36293 8.4171C5.28161 8.3702 4 7.62538 4 7.62538V8.29837L4.01397 8.3066C4.35445 8.5049 5.15938 8.9736 5.35644 9.08485C5.47592 9.15219 5.59016 9.1507 5.70515 9.08435Z" fill="#DE483A"/>
<path d="M7.29532 9.51511L5.70515 10.4303C5.59016 10.4967 5.47567 10.4981 5.35644 10.4308C5.15938 10.3195 4.35445 9.85085 4.01397 9.65255L4 9.64432V8.97133L5.36293 9.76305C5.46594 9.82267 5.59366 9.82192 5.69692 9.76305C5.78323 9.71416 8.36391 8.23025 8.40257 8.2078C8.4403 8.18606 8.48298 8.17437 8.52652 8.17385C8.57007 8.17332 8.61302 8.18398 8.65126 8.20481C8.74411 8.2585 8.83723 8.31172 8.93063 8.36445C9.00795 8.40885 9.00446 8.53132 8.93537 8.57123L7.29532 9.51511Z" fill="#DE483A"/>
</svg>
