<svg width="20" height="20" viewBox="0 0 20 20" fill="none" xmlns="http://www.w3.org/2000/svg">
<path d="M0 5C0 2.23858 2.23858 0 5 0H15C17.7614 0 20 2.23858 20 5V15C20 17.7614 17.7614 20 15 20H5C2.23858 20 0 17.7614 0 15V5Z" fill="#DE483A"/>
<path d="M13.4 5H6.6C5.71634 5 5 5.71635 5 6.60001V13.4C5 14.2837 5.71634 15.0001 6.6 15.0001H13.4C14.2837 15.0001 15 14.2837 15 13.4V6.60001C15 5.71635 14.2837 5 13.4 5Z" fill="white"/>
<path d="M6.65465 9.63407L8.97327 8.29978L8.97618 8.29797L11.3654 6.92294C11.4661 6.86473 11.4709 6.68649 11.3581 6.62174L11.2792 6.57663C11.1639 6.51115 11.0147 6.42603 10.9511 6.38893C10.8953 6.35856 10.8326 6.34301 10.7691 6.34378C10.7056 6.34454 10.6434 6.36159 10.5884 6.39329C10.532 6.42603 6.76851 8.5897 6.64265 8.66137C6.56848 8.70376 6.48453 8.72607 6.39911 8.72607C6.31368 8.72607 6.22973 8.70376 6.15557 8.66137L4.16797 7.50641V8.48821L4.18834 8.49985C4.68451 8.78905 5.85874 9.47293 6.14611 9.6348C6.32035 9.73302 6.48696 9.73083 6.65465 9.63407Z" fill="#DE483A"/>
<path d="M6.65465 11.595L8.97036 10.2622L8.97909 10.2571L11.3654 8.88387C11.4661 8.82567 11.4709 8.64706 11.3581 8.58268L11.2792 8.53757C11.1642 8.47209 11.0147 8.38697 10.9511 8.34987C10.8953 8.3195 10.8326 8.30395 10.7691 8.30471C10.7056 8.30548 10.6434 8.32253 10.5884 8.35423C10.532 8.38661 6.76851 10.5506 6.64265 10.6219C6.56848 10.6643 6.48453 10.6866 6.39911 10.6866C6.31368 10.6866 6.22973 10.6643 6.15557 10.6219C6.03698 10.5536 4.16797 9.46735 4.16797 9.46735V10.4488L4.18834 10.4608C4.68488 10.75 5.85874 11.4335 6.14611 11.5957C6.32035 11.694 6.48696 11.6918 6.65465 11.595Z" fill="#DE483A"/>
<path d="M8.97364 12.2217L6.65465 13.5563C6.48696 13.6531 6.31999 13.6553 6.14611 13.557C5.85874 13.3948 4.68488 12.7113 4.18834 12.4221L4.16797 12.4101V11.4287L6.15557 12.5832C6.3058 12.6702 6.49205 12.6691 6.64265 12.5832C6.76851 12.5119 10.532 10.3479 10.5884 10.3152C10.6434 10.2835 10.7056 10.2664 10.7691 10.2657C10.8326 10.2649 10.8953 10.2804 10.9511 10.3108C11.0865 10.3891 11.2223 10.4667 11.3585 10.5436C11.4712 10.6084 11.4661 10.787 11.3654 10.8452L8.97364 12.2217Z" fill="#DE483A"/>
</svg>
