<svg width="24" height="24" viewBox="0 0 24 24" fill="none" xmlns="http://www.w3.org/2000/svg">
<path d="M0 6.39569C0 2.86345 2.86345 0 6.39569 0H17.6043C21.1366 0 24 2.86345 24 6.39569V17.6043C24 21.1366 21.1366 24 17.6043 24H6.39569C2.86345 24 0 21.1366 0 17.6043V6.39569Z" fill="#DE483A"/>
<path d="M16.0956 5.39551H7.93562C6.87524 5.39551 6.01562 6.31182 6.01562 7.44214V16.1403C6.01562 17.2706 6.87524 18.1869 7.93562 18.1869H16.0956C17.156 18.1869 18.0156 17.2706 18.0156 16.1403V7.44214C18.0156 6.31182 17.156 5.39551 16.0956 5.39551Z" fill="white"/>
<path d="M7.98402 11.5607L10.7664 9.95955L10.7699 9.95736L13.6369 8.30733C13.7578 8.23748 13.7635 8.02359 13.6282 7.94589L13.5334 7.89176C13.3951 7.81319 13.2161 7.71104 13.1397 7.66652C13.0728 7.63008 12.9976 7.61142 12.9214 7.61234C12.8452 7.61325 12.7705 7.63371 12.7045 7.67176C12.6368 7.71104 8.12065 10.3074 7.96961 10.3934C7.88062 10.4443 7.77988 10.4711 7.67737 10.4711C7.57485 10.4711 7.47412 10.4443 7.38512 10.3934L5 9.0075V10.1857L5.02444 10.1996C5.61985 10.5467 7.02892 11.3673 7.37377 11.5616C7.58286 11.6794 7.78279 11.6768 7.98402 11.5607Z" fill="#DE483A"/>
<path d="M7.98402 13.9142L10.7629 12.3148L10.7734 12.3087L13.6369 10.6608C13.7578 10.591 13.7635 10.3767 13.6282 10.2994L13.5334 10.2453C13.3955 10.1667 13.2161 10.0646 13.1397 10.02C13.0728 9.98359 12.9976 9.96494 12.9214 9.96585C12.8452 9.96677 12.7705 9.98723 12.7045 10.0253C12.6368 10.0641 8.12065 12.661 7.96961 12.7465C7.88062 12.7974 7.77988 12.8242 7.67737 12.8242C7.57485 12.8242 7.47412 12.7974 7.38512 12.7465C7.24282 12.6645 5 11.361 5 11.361V12.5387L5.02444 12.5531C5.62029 12.9002 7.02892 13.7204 7.37377 13.9151C7.58286 14.0329 7.78279 14.0303 7.98402 13.9142Z" fill="#DE483A"/>
<path d="M10.7668 14.6666L7.98402 16.2682C7.78279 16.3843 7.58242 16.3869 7.37377 16.269C7.02892 16.0743 5.62029 15.2541 5.02444 14.9071L5 14.8927V13.715L7.38512 15.1005C7.5654 15.2048 7.7889 15.2035 7.96961 15.1005C8.12065 15.0149 12.6368 12.4181 12.7045 12.3788C12.7705 12.3407 12.8452 12.3203 12.9214 12.3194C12.9976 12.3185 13.0728 12.3371 13.1397 12.3736C13.3022 12.4675 13.4652 12.5606 13.6286 12.6529C13.7639 12.7306 13.7578 12.945 13.6369 13.0148L10.7668 14.6666Z" fill="#DE483A"/>
</svg>
