<svg width="32" height="32" viewBox="0 0 32 32" fill="none" xmlns="http://www.w3.org/2000/svg">
<path d="M0 8C0 3.58172 3.58172 0 8 0H24C28.4183 0 32 3.58172 32 8V24C32 28.4183 28.4183 32 24 32H8C3.58172 32 0 28.4183 0 24V8Z" fill="#DE483A"/>
<path d="M21.4469 8H10.5913C9.18068 8 8.03711 9.14358 8.03711 10.5543V21.4098C8.03711 22.8205 9.18068 23.9641 10.5913 23.9641H21.4469C22.8575 23.9641 24.0011 22.8205 24.0011 21.4098V10.5543C24.0011 9.14358 22.8575 8 21.4469 8Z" fill="white"/>
<path d="M11.4103 15.4792L14.5901 13.6494L14.5941 13.6469L17.8707 11.7611C18.0089 11.6813 18.0154 11.4368 17.8608 11.348L17.7525 11.2862C17.5944 11.1964 17.3898 11.0796 17.3025 11.0288C17.226 10.9871 17.1401 10.9658 17.053 10.9668C16.966 10.9679 16.8806 10.9913 16.8051 11.0347C16.7278 11.0796 11.5665 14.047 11.3938 14.1452C11.2921 14.2034 11.177 14.234 11.0598 14.234C10.9427 14.234 10.8276 14.2034 10.7259 14.1452L8 12.5613V13.9078L8.02794 13.9237C8.7084 14.3203 10.3188 15.2582 10.7129 15.4802C10.9518 15.6149 11.1803 15.6119 11.4103 15.4792Z" fill="#DE483A"/>
<path d="M11.4103 18.1697L14.5861 16.3418L14.5981 16.3348L17.8707 14.4515C18.0089 14.3717 18.0154 14.1268 17.8608 14.0385L17.7525 13.9766C17.5949 13.8868 17.3898 13.7701 17.3025 13.7192C17.226 13.6775 17.1401 13.6562 17.053 13.6573C16.966 13.6583 16.8806 13.6817 16.8051 13.7252C16.7278 13.7696 11.5665 16.7374 11.3938 16.8352C11.2921 16.8933 11.177 16.9239 11.0598 16.9239C10.9427 16.9239 10.8276 16.8933 10.7259 16.8352C10.5632 16.7414 8 15.2517 8 15.2517V16.5977L8.02794 16.6142C8.7089 17.0108 10.3188 17.9482 10.7129 18.1707C10.9518 18.3054 11.1803 18.3024 11.4103 18.1697Z" fill="#DE483A"/>
<path d="M14.5906 19.0292L11.4103 20.8596C11.1803 20.9923 10.9513 20.9953 10.7129 20.8606C10.3188 20.6381 8.7089 19.7007 8.02794 19.3041L8 19.2877V17.9417L10.7259 19.5251C10.9319 19.6444 11.1873 19.6429 11.3938 19.5251C11.5665 19.4273 16.7278 16.4595 16.8051 16.4146C16.8806 16.3711 16.966 16.3478 17.053 16.3467C17.1401 16.3457 17.226 16.367 17.3025 16.4086C17.4882 16.516 17.6745 16.6225 17.8613 16.7279C18.0159 16.8167 18.0089 17.0617 17.8707 17.1415L14.5906 19.0292Z" fill="#DE483A"/>
</svg>
