<svg width="16" height="16" viewBox="0 0 16 16" fill="none" xmlns="http://www.w3.org/2000/svg">
<g clip-path="url(#clip0_237_7307)">
<path d="M13.3568 10.924L12.0258 10.046L10.9154 11.9007L9.62394 11.5232L8.48682 13.2586L8.54508 13.8048L14.728 12.6655L14.3689 8.8025L13.3568 10.924ZM7.59105 9.25867L8.58316 9.12225C8.74355 9.19437 8.85527 9.22186 9.04769 9.27078C9.34754 9.3487 9.6943 9.42359 10.208 9.16487C10.3275 9.10561 10.5767 8.87789 10.6773 8.74803L14.7416 8.01093L15.1562 13.0286L8.19302 14.2834L7.59105 9.25867ZM15.1406 7.45061L14.7393 7.52701L13.9686 -0.435547L0.835938 1.08706L2.45398 14.2156L3.99132 13.9924C3.8685 13.8172 3.67734 13.6051 3.35101 13.3338C2.89833 12.9578 3.05822 12.3188 3.32554 11.9153C3.67885 11.2337 5.4994 10.3675 5.39626 9.27809C5.35918 8.88193 5.29639 8.36649 4.92845 8.01295C4.91458 8.15971 4.93954 8.30068 4.93954 8.30068C4.93954 8.30068 4.78848 8.10802 4.71333 7.84551C4.63868 7.74464 4.57992 7.71261 4.50048 7.57795C4.44374 7.73354 4.45131 7.9141 4.45131 7.9141C4.45131 7.9141 4.32773 7.62233 4.30781 7.37596C4.23468 7.48616 4.21627 7.69546 4.21627 7.69546C4.21627 7.69546 4.05588 7.2355 4.09244 6.98762C4.01931 6.77201 3.80217 6.34408 3.86346 5.37171C4.26418 5.65237 5.14659 5.5858 5.49032 5.07919C5.60431 4.91124 5.68274 4.4533 5.43333 3.55052C5.27319 2.97179 4.87675 2.10987 4.72216 1.7828L4.70375 1.79617C4.7852 2.05969 4.95316 2.61169 5.01772 2.87975C5.21291 3.69174 5.26512 3.97468 5.17357 4.34915C5.09565 4.6747 4.90878 4.88754 4.43517 5.12559C3.96156 5.36439 3.33285 4.78314 3.29326 4.75111C2.83302 4.38445 2.47693 3.78656 2.43733 3.4958C2.39597 3.17782 2.62067 2.98692 2.73391 2.72693C2.57175 2.77308 2.39118 2.85554 2.39118 2.85554C2.39118 2.85554 2.6068 2.63237 2.87261 2.43946C2.98281 2.36658 3.04738 2.32018 3.16338 2.22385C2.99542 2.22108 2.85899 2.22587 2.85899 2.22587C2.85899 2.22587 3.13917 2.07457 3.42944 1.96437C3.2171 1.95504 3.01358 1.96285 3.01358 1.96285C3.01358 1.96285 3.63876 1.6832 4.13229 1.47818C4.47173 1.33898 4.80336 1.38009 4.98973 1.64966C5.23435 2.0027 5.49133 2.19435 6.0358 2.31312C6.37021 2.16484 6.47159 2.08894 6.89173 1.9742C7.26144 1.56745 7.55171 1.515 7.55171 1.515C7.55171 1.515 7.40771 1.64714 7.36912 1.85467C7.57869 1.6895 7.80843 1.55156 7.80843 1.55156C7.80843 1.55156 7.71941 1.66126 7.63644 1.83576L7.65561 1.86451C7.90023 1.71774 8.18773 1.60225 8.18773 1.60225C8.18773 1.60225 8.10551 1.70614 8.00918 1.84055C8.19378 1.83904 8.56777 1.84837 8.71303 1.86476C9.57022 1.88367 9.74801 0.94963 10.0769 0.83237C10.4887 0.685354 10.6728 0.596338 11.3746 1.28577C11.9766 1.87787 12.4472 2.93699 12.2134 3.17428C12.0175 3.37123 11.6311 3.09737 11.2029 2.56378C10.9767 2.28109 10.8054 1.94697 10.7252 1.52231C10.6577 1.16398 10.3944 0.956186 10.3944 0.956186C10.3944 0.956186 10.5469 1.29662 10.5469 1.59645C10.5469 1.76036 10.5674 2.37288 10.8302 2.71685C10.8042 2.76703 10.7921 2.96549 10.7633 3.00357C10.4577 2.63413 9.80122 2.36986 9.69404 2.29194C10.0564 2.58874 10.8892 3.27061 11.2089 3.92449C11.5116 4.54257 11.3333 5.1092 11.4863 5.25571C11.53 5.29757 12.137 6.05408 12.2538 6.4341C12.4575 7.0963 12.2659 7.79255 11.9993 8.22427L11.2546 8.34027C11.1456 8.31001 11.0723 8.29487 10.9747 8.23839C11.0286 8.14307 11.1356 7.90552 11.1366 7.85635L11.0944 7.78272C10.8627 8.11104 10.4746 8.42979 10.152 8.61286C9.72986 8.85217 9.24339 8.8151 8.92664 8.71726C8.02784 8.44013 7.17771 7.83265 6.97268 7.67302C6.97268 7.67302 6.96638 7.80037 7.00496 7.82911C7.23143 8.08482 7.75068 8.54705 8.25279 8.86957L7.18276 8.98734L7.68864 12.9255C7.46445 12.9575 7.4294 12.9734 7.18402 13.0082C6.96764 12.2439 6.5538 11.7448 6.10137 11.4541C5.70241 11.1976 5.15214 11.1399 4.62557 11.2443L4.59178 11.2836C4.95795 11.2455 5.3902 11.2985 5.83431 11.5797C6.27009 11.8553 6.62139 12.5672 6.75076 12.9956C6.91645 13.5433 7.03094 14.1294 6.58507 14.7505C6.26807 15.192 5.34254 15.4359 4.59455 14.9081C4.79428 15.2293 5.06412 15.4918 5.42778 15.5413C5.96746 15.6147 6.47966 15.5208 6.83221 15.159C7.13307 14.8496 7.29296 14.2025 7.25085 13.5211L7.72723 13.452L7.89922 14.6751L15.7839 13.7256L15.1406 7.45061ZM10.3434 4.12926C10.3215 4.17944 10.2867 4.21247 10.3386 4.37588L10.3417 4.38521L10.35 4.40639L10.3717 4.45531C10.4652 4.64671 10.5679 4.82702 10.7399 4.91931C10.7843 4.91175 10.8304 4.9067 10.8781 4.90443C11.0395 4.89737 11.1414 4.92284 11.2057 4.95764C11.2115 4.92536 11.2127 4.87846 11.2092 4.80911C11.1966 4.56677 11.2571 4.15473 10.7913 3.93786C10.6155 3.85641 10.3689 3.88137 10.2867 3.98325C10.3016 3.98527 10.3149 3.98829 10.3255 3.99182C10.4501 4.03495 10.3659 4.07781 10.3434 4.12926ZM11.6493 6.39023C11.5882 6.35643 11.3028 6.3698 11.102 6.39376C10.7197 6.43889 10.3069 6.57128 10.2166 6.64189C10.0522 6.76899 10.1268 6.99039 10.2484 7.08143C10.5891 7.33587 10.8877 7.50659 11.2026 7.46498C11.3961 7.43951 11.5668 7.13312 11.6876 6.85523C11.7703 6.66383 11.7703 6.4573 11.6493 6.39023ZM8.26464 4.42909C8.37233 4.32671 7.72773 4.1923 7.22739 4.53349C6.85844 4.78516 6.84659 5.3248 7.1999 5.63069C7.23521 5.66095 7.26446 5.68238 7.29145 5.70003C7.39459 5.65136 7.51211 5.60244 7.64754 5.55856C7.87602 5.48443 8.06617 5.4461 8.22228 5.42567C8.29692 5.3422 8.38393 5.19519 8.36224 4.92889C8.33248 4.56753 8.05911 4.62477 8.26464 4.42909Z" fill="#632CA6"/>
</g>
<defs>
<clipPath id="clip0_237_7307">
<path d="M0 4C0 1.79086 1.79086 0 4 0H12C14.2091 0 16 1.79086 16 4V12C16 14.2091 14.2091 16 12 16H4C1.79086 16 0 14.2091 0 12V4Z" fill="white"/>
</clipPath>
</defs>
</svg>
