<svg width="16" height="16" viewBox="0 0 16 16" fill="none" xmlns="http://www.w3.org/2000/svg">
<mask id="path-1-inside-1_237_7304" fill="white">
<path d="M0 4C0 1.79086 1.79086 0 4 0H12C14.2091 0 16 1.79086 16 4V12C16 14.2091 14.2091 16 12 16H4C1.79086 16 0 14.2091 0 12V4Z"/>
</mask>
<path d="M0 4C0 1.79086 1.79086 0 4 0H12C14.2091 0 16 1.79086 16 4V12C16 14.2091 14.2091 16 12 16H4C1.79086 16 0 14.2091 0 12V4Z" fill="white"/>
<path d="M4 0V1H12V0V-1H4V0ZM16 4H15V12H16H17V4H16ZM12 16V15H4V16V17H12V16ZM0 12H1V4H0H-1V12H0ZM4 16V15C2.34315 15 1 13.6569 1 12H0H-1C-1 14.7614 1.23858 17 4 17V16ZM16 12H15C15 13.6569 13.6569 15 12 15V16V17C14.7614 17 17 14.7614 17 12H16ZM12 0V1C13.6569 1 15 2.34315 15 4H16H17C17 1.23858 14.7614 -1 12 -1V0ZM4 0V-1C1.23858 -1 -1 1.23858 -1 4H0H1C1 2.34315 2.34315 1 4 1V0Z" fill="#0B1228" fill-opacity="0.14" mask="url(#path-1-inside-1_237_7304)"/>
<path d="M10.7011 10.0795L9.9887 9.6096L9.39443 10.6022L8.70325 10.4002L8.09468 11.329L8.12586 11.6213L11.4349 11.0116L11.2427 8.94411L10.7011 10.0795ZM7.61527 9.18825L8.14624 9.11524C8.23208 9.15384 8.29187 9.16855 8.39485 9.19473C8.55533 9.23644 8.74091 9.27652 9.01584 9.13805C9.07982 9.10633 9.21317 8.98447 9.26702 8.91496L11.4422 8.52047L11.6641 11.2059L7.93744 11.8775L7.61527 9.18825ZM11.6557 8.22059L11.441 8.26149L11.0285 4L4 4.81489L4.86596 11.8412L5.68873 11.7217C5.623 11.6279 5.52069 11.5144 5.34604 11.3692C5.10377 11.168 5.18934 10.826 5.33241 10.6101C5.5215 10.2453 6.49584 9.78167 6.44064 9.19865C6.4208 8.98662 6.38719 8.71077 6.19027 8.52155C6.18285 8.6001 6.19621 8.67554 6.19621 8.67554C6.19621 8.67554 6.11536 8.57243 6.07514 8.43194C6.03519 8.37796 6.00375 8.36082 5.96123 8.28875C5.93086 8.37202 5.93491 8.46865 5.93491 8.46865C5.93491 8.46865 5.86878 8.3125 5.85811 8.18065C5.81897 8.23962 5.80912 8.35164 5.80912 8.35164C5.80912 8.35164 5.72328 8.10547 5.74285 7.97281C5.70371 7.85742 5.5875 7.62839 5.6203 7.10799C5.83476 7.2582 6.30702 7.22257 6.49098 6.95143C6.55199 6.86155 6.59396 6.61646 6.46048 6.13331C6.37477 5.82358 6.1626 5.36228 6.07987 5.18724L6.07001 5.19439C6.11361 5.33543 6.2035 5.63085 6.23805 5.77431C6.34252 6.20888 6.37046 6.36031 6.32146 6.56072C6.27976 6.73496 6.17974 6.84886 5.92627 6.97627C5.6728 7.10407 5.33633 6.79299 5.31514 6.77585C5.06882 6.57962 4.87824 6.25963 4.85705 6.10402C4.83492 5.93384 4.95517 5.83167 5.01577 5.69253C4.92899 5.71723 4.83235 5.76136 4.83235 5.76136C4.83235 5.76136 4.94775 5.64192 5.09001 5.53868C5.14899 5.49967 5.18354 5.47484 5.24563 5.42328C5.15574 5.4218 5.08272 5.42436 5.08272 5.42436C5.08272 5.42436 5.23267 5.34339 5.38802 5.28441C5.27437 5.27942 5.16545 5.2836 5.16545 5.2836C5.16545 5.2836 5.50004 5.13393 5.76418 5.02421C5.94584 4.94971 6.12333 4.97171 6.22307 5.11598C6.35399 5.30493 6.49152 5.40749 6.78292 5.47106C6.96189 5.3917 7.01615 5.35108 7.241 5.28967C7.43887 5.07198 7.59422 5.04391 7.59422 5.04391C7.59422 5.04391 7.51715 5.11463 7.4965 5.2257C7.60866 5.13731 7.73161 5.06348 7.73161 5.06348C7.73161 5.06348 7.68397 5.12219 7.63957 5.21558L7.64982 5.23097C7.78074 5.15242 7.93461 5.09061 7.93461 5.09061C7.93461 5.09061 7.89061 5.14621 7.83905 5.21815C7.93785 5.21734 8.13801 5.22233 8.21575 5.2311C8.67451 5.24122 8.76966 4.74133 8.94566 4.67858C9.16606 4.5999 9.26459 4.55226 9.64021 4.92123C9.96238 5.23812 10.2142 5.80495 10.0891 5.93195C9.98424 6.03735 9.77747 5.89078 9.54829 5.60521C9.42723 5.45392 9.33558 5.2751 9.29266 5.04783C9.25649 4.85605 9.11558 4.74484 9.11558 4.74484C9.11558 4.74484 9.19724 4.92704 9.19724 5.08751C9.19724 5.17523 9.20817 5.50305 9.34881 5.68713C9.33491 5.71399 9.32843 5.8202 9.31304 5.84058C9.14946 5.64286 8.79814 5.50143 8.74078 5.45972C8.93473 5.61857 9.38039 5.9835 9.55153 6.33345C9.7135 6.66424 9.61807 6.96749 9.7 7.0459C9.72335 7.06831 10.0482 7.47319 10.1107 7.67657C10.2198 8.03098 10.1172 8.4036 9.97453 8.63465L9.57596 8.69673C9.51766 8.68054 9.47838 8.67244 9.42615 8.64221C9.45503 8.59119 9.51226 8.46406 9.5128 8.43774L9.49026 8.39834C9.36622 8.57405 9.1585 8.74464 8.98588 8.84262C8.75994 8.9707 8.49959 8.95086 8.33007 8.8985C7.84904 8.75018 7.39406 8.42506 7.28433 8.33963C7.28433 8.33963 7.28095 8.40778 7.3016 8.42317C7.42281 8.56002 7.70071 8.8074 7.96943 8.98001L7.39676 9.04304L7.6675 11.1507C7.54752 11.1678 7.52876 11.1763 7.39743 11.195C7.28163 10.7859 7.06015 10.5188 6.81801 10.3632C6.60449 10.226 6.30999 10.1951 6.02817 10.2509L6.01009 10.272C6.20606 10.2516 6.4374 10.2799 6.67508 10.4304C6.90831 10.5779 7.09632 10.9589 7.16556 11.1882C7.25423 11.4814 7.31551 11.795 7.07688 12.1274C6.90723 12.3637 6.41189 12.4942 6.01157 12.2118C6.11847 12.3837 6.26289 12.5242 6.45751 12.5506C6.74634 12.5899 7.02046 12.5397 7.20915 12.346C7.37017 12.1804 7.45574 11.8341 7.4332 11.4695L7.68815 11.4325L7.7802 12.0871L12 11.5789L11.6557 8.22059ZM9.08832 6.44304C9.07658 6.4699 9.05795 6.48758 9.08576 6.57503L9.08738 6.58002L9.09183 6.59136L9.10344 6.61754C9.15351 6.71998 9.20844 6.81647 9.30049 6.86587C9.32425 6.86182 9.34894 6.85912 9.37445 6.85791C9.46083 6.85413 9.51536 6.86776 9.54978 6.88638C9.55288 6.86911 9.55356 6.84401 9.55167 6.80689C9.54492 6.67719 9.57731 6.45667 9.32802 6.34061C9.23395 6.29701 9.10195 6.31037 9.05795 6.3649C9.06592 6.36598 9.07307 6.3676 9.07874 6.36949C9.14541 6.39257 9.10033 6.41551 9.08832 6.44304ZM9.78719 7.65309C9.75453 7.635 9.60174 7.64216 9.49431 7.65498C9.28969 7.67914 9.06875 7.74999 9.02043 7.78778C8.93243 7.8558 8.97238 7.97429 9.03744 8.02301C9.21978 8.15919 9.37958 8.25055 9.54816 8.22829C9.65168 8.21466 9.74305 8.05068 9.8077 7.90195C9.85197 7.79952 9.85197 7.68899 9.78719 7.65309ZM7.97577 6.60351C8.0334 6.54871 7.68842 6.47678 7.42065 6.65938C7.22319 6.79407 7.21684 7.08288 7.40594 7.24659C7.42483 7.26279 7.44049 7.27426 7.45493 7.2837C7.51013 7.25766 7.57303 7.23147 7.6455 7.20799C7.76779 7.16831 7.86955 7.1478 7.9531 7.13687C7.99305 7.0922 8.03961 7.01351 8.02801 6.871C8.01208 6.6776 7.86577 6.70824 7.97577 6.60351Z" fill="#632CA6"/>
</svg>
