<svg width="20" height="20" viewBox="0 0 20 20" fill="none" xmlns="http://www.w3.org/2000/svg">
<mask id="path-1-inside-1_237_7301" fill="white">
<path d="M0 5C0 2.23858 2.23858 0 5 0H15C17.7614 0 20 2.23858 20 5V15C20 17.7614 17.7614 20 15 20H5C2.23858 20 0 17.7614 0 15V5Z"/>
</mask>
<path d="M0 5C0 2.23858 2.23858 0 5 0H15C17.7614 0 20 2.23858 20 5V15C20 17.7614 17.7614 20 15 20H5C2.23858 20 0 17.7614 0 15V5Z" fill="white"/>
<path d="M5 0V1H15V0V-1H5V0ZM20 5H19V15H20H21V5H20ZM15 20V19H5V20V21H15V20ZM0 15H1V5H0H-1V15H0ZM5 20V19C2.79086 19 1 17.2091 1 15H0H-1C-1 18.3137 1.68629 21 5 21V20ZM20 15H19C19 17.2091 17.2091 19 15 19V20V21C18.3137 21 21 18.3137 21 15H20ZM15 0V1C17.2091 1 19 2.79086 19 5H20H21C21 1.68629 18.3137 -1 15 -1V0ZM5 0V-1C1.68629 -1 -1 1.68629 -1 5H0H1C1 2.79086 2.79086 1 5 1V0Z" fill="#0B1228" fill-opacity="0.14" mask="url(#path-1-inside-1_237_7301)"/>
<path d="M14.0516 13.1193L12.983 12.4144L12.0916 13.9033L11.0549 13.6003L10.142 14.9935L10.1888 15.432L15.1523 14.5173L14.864 11.4162L14.0516 13.1193ZM9.42291 11.7824L10.2194 11.6729C10.3481 11.7308 10.4378 11.7528 10.5923 11.7921C10.833 11.8547 11.1114 11.9148 11.5238 11.7071C11.6197 11.6595 11.8198 11.4767 11.9005 11.3724L15.1633 10.7807L15.4961 14.8089L9.90616 15.8162L9.42291 11.7824ZM15.4835 10.3309L15.1614 10.3922L14.5427 4L4 5.22233L5.29894 15.7617L6.53309 15.5826C6.4345 15.4419 6.28104 15.2716 6.01906 15.0538C5.65566 14.752 5.78402 14.239 5.99862 13.9151C6.28225 13.3679 7.74376 12.6725 7.66096 11.798C7.6312 11.4799 7.58079 11.0662 7.28541 10.7823C7.27427 10.9002 7.29432 11.0133 7.29432 11.0133C7.29432 11.0133 7.17305 10.8587 7.11272 10.6479C7.05279 10.5669 7.00562 10.5412 6.94185 10.4331C6.89629 10.558 6.90237 10.703 6.90237 10.703C6.90237 10.703 6.80317 10.4688 6.78717 10.271C6.72846 10.3594 6.71368 10.5275 6.71368 10.5275C6.71368 10.5275 6.58492 10.1582 6.61428 9.95921C6.55557 9.78613 6.38125 9.44259 6.43045 8.66198C6.75215 8.8873 7.46053 8.83385 7.73647 8.42715C7.82798 8.29233 7.89095 7.9247 7.69072 7.19996C7.56216 6.73536 7.24391 6.04342 7.1198 5.78086L7.10502 5.79159C7.17041 6.00314 7.30525 6.44628 7.35708 6.66147C7.51378 7.31333 7.55568 7.54047 7.48219 7.84109C7.41963 8.10244 7.26962 8.2733 6.88941 8.4644C6.5092 8.65611 6.00449 8.18949 5.9727 8.16378C5.60323 7.86943 5.31736 7.38945 5.28558 7.15603C5.25237 6.90076 5.43276 6.74751 5.52366 6.53879C5.39348 6.57584 5.24853 6.64204 5.24853 6.64204C5.24853 6.64204 5.42163 6.46288 5.63501 6.30801C5.72348 6.24951 5.77531 6.21226 5.86844 6.13493C5.73361 6.1327 5.62408 6.13655 5.62408 6.13655C5.62408 6.13655 5.849 6.01508 6.08203 5.92662C5.91156 5.91913 5.74818 5.9254 5.74818 5.9254C5.74818 5.9254 6.25006 5.7009 6.64626 5.53631C6.91877 5.42457 7.18499 5.45756 7.3346 5.67397C7.53098 5.95739 7.73728 6.11124 8.17438 6.20659C8.44283 6.08756 8.52422 6.02662 8.86151 5.93451C9.1583 5.60798 9.39133 5.56587 9.39133 5.56587C9.39133 5.56587 9.27572 5.67195 9.24475 5.83856C9.41299 5.70596 9.59742 5.59522 9.59742 5.59522C9.59742 5.59522 9.52596 5.68328 9.45935 5.82337L9.47474 5.84645C9.67112 5.72863 9.90191 5.63591 9.90191 5.63591C9.90191 5.63591 9.83591 5.71932 9.75858 5.82722C9.90677 5.826 10.207 5.83349 10.3236 5.84665C11.0118 5.86184 11.1545 5.112 11.4185 5.01787C11.7491 4.89984 11.8969 4.82838 12.4603 5.38185C12.9436 5.85718 13.3213 6.70743 13.1337 6.89792C12.9764 7.05603 12.6662 6.83618 12.3224 6.40782C12.1408 6.18088 12.0034 5.91265 11.939 5.57174C11.8847 5.28407 11.6734 5.11726 11.6734 5.11726C11.6734 5.11726 11.7959 5.39056 11.7959 5.63126C11.7959 5.76284 11.8123 6.25457 12.0232 6.5307C12.0024 6.57098 11.9926 6.7303 11.9696 6.76087C11.7242 6.4643 11.1972 6.25214 11.1112 6.18959C11.4021 6.42786 12.0706 6.97525 12.3273 7.50018C12.5702 7.99636 12.4271 8.45124 12.55 8.56886C12.585 8.60246 13.0723 9.20978 13.1661 9.51486C13.3296 10.0465 13.1758 10.6054 12.9618 10.952L12.3639 11.0451C12.2765 11.0208 12.2176 11.0087 12.1392 10.9633C12.1825 10.8868 12.2684 10.6961 12.2692 10.6566L12.2354 10.5975C12.0493 10.8611 11.7378 11.117 11.4788 11.2639C11.1399 11.4561 10.7494 11.4263 10.4951 11.3477C9.77356 11.1253 9.09109 10.6376 8.92649 10.5094C8.92649 10.5094 8.92143 10.6117 8.95241 10.6348C9.13421 10.84 9.55106 11.2111 9.95414 11.47L9.09514 11.5646L9.50126 14.7261C9.32128 14.7518 9.29314 14.7645 9.09615 14.7925C8.92244 14.1789 8.59022 13.7782 8.22702 13.5448C7.90674 13.3389 7.46498 13.2926 7.04226 13.3764L7.01513 13.408C7.3091 13.3774 7.6561 13.4199 8.01262 13.6456C8.36246 13.8669 8.64448 14.4384 8.74833 14.7823C8.88135 15.222 8.97326 15.6925 8.61532 16.1911C8.36084 16.5456 7.61784 16.7413 7.01736 16.3176C7.1777 16.5755 7.39433 16.7863 7.68627 16.826C8.11952 16.8849 8.5307 16.8096 8.81373 16.5191C9.05525 16.2707 9.18361 15.7512 9.1498 15.2042L9.53223 15.1488L9.67031 16.1306L16 15.3684L15.4835 10.3309ZM11.6325 7.66456C11.6149 7.70485 11.5869 7.73137 11.6286 7.86255L11.6311 7.87004L11.6377 7.88704L11.6552 7.92631C11.7303 8.07997 11.8127 8.22471 11.9507 8.2988C11.9864 8.29273 12.0234 8.28868 12.0617 8.28686C12.1913 8.28119 12.273 8.30164 12.3247 8.32957C12.3293 8.30366 12.3303 8.26601 12.3275 8.21034C12.3174 8.01579 12.366 7.68501 11.992 7.51091C11.8509 7.44552 11.6529 7.46556 11.5869 7.54735C11.5989 7.54897 11.6096 7.5514 11.6181 7.55423C11.7181 7.58885 11.6505 7.62326 11.6325 7.66456ZM12.6808 9.47963C12.6318 9.45251 12.4026 9.46324 12.2415 9.48247C11.9345 9.5187 11.6031 9.62499 11.5306 9.68167C11.3986 9.7837 11.4586 9.96144 11.5562 10.0345C11.8297 10.2388 12.0694 10.3758 12.3222 10.3424C12.4775 10.322 12.6146 10.076 12.7116 9.85293C12.778 9.69928 12.778 9.53348 12.6808 9.47963ZM9.96366 7.90526C10.0501 7.82307 9.53264 7.71517 9.13097 7.98907C8.83478 8.19111 8.82527 8.62433 9.1089 8.86989C9.13725 8.89418 9.16073 8.91139 9.18239 8.92556C9.2652 8.88649 9.35954 8.84721 9.46826 8.81199C9.65168 8.75247 9.80433 8.7217 9.92965 8.7053C9.98957 8.63829 10.0594 8.52027 10.042 8.3065C10.0181 8.0164 9.79866 8.06235 9.96366 7.90526Z" fill="#632CA6"/>
</svg>
