<svg width="24" height="24" viewBox="0 0 24 24" fill="none" xmlns="http://www.w3.org/2000/svg">
<mask id="path-1-inside-1_237_7298" fill="white">
<path d="M0 6.39569C0 2.86345 2.86345 0 6.39569 0H17.6043C21.1366 0 24 2.86345 24 6.39569V17.6043C24 21.1366 21.1366 24 17.6043 24H6.39569C2.86345 24 0 21.1366 0 17.6043V6.39569Z"/>
</mask>
<path d="M0 6.39569C0 2.86345 2.86345 0 6.39569 0H17.6043C21.1366 0 24 2.86345 24 6.39569V17.6043C24 21.1366 21.1366 24 17.6043 24H6.39569C2.86345 24 0 21.1366 0 17.6043V6.39569Z" fill="white"/>
<path d="M6.39569 0V1H17.6043V0V-1H6.39569V0ZM24 6.39569H23V17.6043H24H25V6.39569H24ZM17.6043 24V23H6.39569V24V25H17.6043V24ZM0 17.6043H1V6.39569H0H-1V17.6043H0ZM6.39569 24V23C3.41573 23 1 20.5843 1 17.6043H0H-1C-1 21.6888 2.31116 25 6.39569 25V24ZM24 17.6043H23C23 20.5843 20.5843 23 17.6043 23V24V25C21.6888 25 25 21.6888 25 17.6043H24ZM17.6043 0V1C20.5843 1 23 3.41573 23 6.39569H24H25C25 2.31116 21.6888 -1 17.6043 -1V0ZM6.39569 0V-1C2.31116 -1 -1 2.31116 -1 6.39569H0H1C1 3.41573 3.41573 1 6.39569 1V0Z" fill="#0B1228" fill-opacity="0.14" mask="url(#path-1-inside-1_237_7298)"/>
<path d="M17.5209 15.3596L16.1898 14.4815L15.0795 16.3362L13.788 15.9587L12.6509 17.6942L12.7091 18.2404L18.892 17.1011L18.5329 13.238L17.5209 15.3596ZM11.7551 13.6942L12.7472 13.5578C12.9076 13.6299 13.0193 13.6574 13.2117 13.7063C13.5116 13.7842 13.8584 13.8591 14.3721 13.6004C14.4916 13.5412 14.7408 13.3134 14.8414 13.1836L18.9057 12.4465L19.3202 17.4642L12.3571 18.719L11.7551 13.6942ZM19.3046 11.8862L18.9034 11.9626L18.1327 4L5 5.52261L6.61804 18.6511L8.15538 18.428C8.03256 18.2527 7.8414 18.0406 7.51507 17.7693C7.06239 17.3933 7.22228 16.7543 7.4896 16.3508C7.84292 15.6692 9.66346 14.803 9.56032 13.7136C9.52325 13.3175 9.46045 12.802 9.09251 12.4485C9.07864 12.5953 9.10361 12.7362 9.10361 12.7362C9.10361 12.7362 8.95254 12.5436 8.87739 12.2811C8.80274 12.1802 8.74398 12.1482 8.66455 12.0135C8.6078 12.1691 8.61537 12.3496 8.61537 12.3496C8.61537 12.3496 8.4918 12.0579 8.47187 11.8115C8.39874 11.9217 8.38033 12.131 8.38033 12.131C8.38033 12.131 8.21994 11.671 8.25651 11.4232C8.18337 11.2076 7.96624 10.7796 8.02752 9.80725C8.42825 10.0879 9.31065 10.0213 9.65438 9.51473C9.76837 9.34679 9.8468 8.88884 9.59739 7.98607C9.43725 7.40734 9.04081 6.54542 8.88622 6.21835L8.86781 6.23172C8.94927 6.49523 9.11722 7.04724 9.18178 7.3153C9.37698 8.12729 9.42918 8.41022 9.33764 8.7847C9.25971 9.11025 9.07284 9.32308 8.59923 9.56113C8.12562 9.79994 7.49691 9.21868 7.45732 9.18666C6.99708 8.82 6.64099 8.2221 6.60139 7.93135C6.56004 7.61336 6.78474 7.42247 6.89797 7.16248C6.73581 7.20863 6.55524 7.29109 6.55524 7.29109C6.55524 7.29109 6.77086 7.06792 7.03667 6.875C7.14688 6.80213 7.21144 6.75573 7.32744 6.6594C7.15949 6.65662 7.02305 6.66142 7.02305 6.66142C7.02305 6.66142 7.30323 6.51011 7.5935 6.39991C7.38116 6.39058 7.17764 6.3984 7.17764 6.3984C7.17764 6.3984 7.80282 6.11874 8.29635 5.91373C8.6358 5.77453 8.96742 5.81563 9.15379 6.0852C9.39841 6.43824 9.65539 6.62989 10.1999 6.74867C10.5343 6.60039 10.6356 6.52449 11.0558 6.40975C11.4255 6.003 11.7158 5.95054 11.7158 5.95054C11.7158 5.95054 11.5718 6.08268 11.5332 6.29022C11.7428 6.12505 11.9725 5.98711 11.9725 5.98711C11.9725 5.98711 11.8835 6.0968 11.8005 6.27131L11.8197 6.30005C12.0643 6.15329 12.3518 6.0378 12.3518 6.0378C12.3518 6.0378 12.2696 6.14169 12.1732 6.2761C12.3578 6.27458 12.7318 6.28391 12.8771 6.30031C13.7343 6.31922 13.9121 5.38518 14.2409 5.26792C14.6528 5.1209 14.8368 5.03188 15.5387 5.72132C16.1407 6.31342 16.6112 7.37254 16.3775 7.60983C16.1815 7.80678 15.7952 7.53292 15.3669 6.99932C15.1407 6.71664 14.9695 6.38251 14.8893 5.95786C14.8217 5.59952 14.5584 5.39173 14.5584 5.39173C14.5584 5.39173 14.711 5.73216 14.711 6.032C14.711 6.19591 14.7314 6.80843 14.9942 7.15239C14.9682 7.20257 14.9561 7.40103 14.9274 7.43911C14.6217 7.06968 13.9653 6.80541 13.8581 6.72748C14.2205 7.02429 15.0532 7.70616 15.373 8.36004C15.6756 8.97811 15.4973 9.54474 15.6504 9.69125C15.694 9.73311 16.3011 10.4896 16.4178 10.8696C16.6216 11.5319 16.4299 12.2281 16.1634 12.6598L15.4186 12.7758C15.3097 12.7456 15.2363 12.7304 15.1387 12.6739C15.1927 12.5786 15.2996 12.3411 15.3006 12.2919L15.2585 12.2183C15.0267 12.5466 14.6386 12.8653 14.3161 13.0484C13.8939 13.2877 13.4074 13.2507 13.0907 13.1528C12.1919 12.8757 11.3418 12.2682 11.1367 12.1086C11.1367 12.1086 11.1304 12.2359 11.169 12.2647C11.3955 12.5204 11.9147 12.9826 12.4169 13.3051L11.3468 13.4229L11.8527 17.361C11.6285 17.3931 11.5935 17.409 11.3481 17.4438C11.1317 16.6794 10.7179 16.1804 10.2654 15.8896C9.86647 15.6332 9.3162 15.5754 8.78963 15.6798L8.75584 15.7192C9.12201 15.6811 9.55427 15.734 9.99837 16.0152C10.4341 16.2908 10.7854 17.0027 10.9148 17.4311C11.0805 17.9789 11.195 18.5649 10.7491 19.186C10.4321 19.6276 9.5066 19.8714 8.75861 19.3436C8.95834 19.6649 9.22819 19.9274 9.59184 19.9768C10.1315 20.0502 10.6437 19.9564 10.9963 19.5945C11.2971 19.2851 11.457 18.638 11.4149 17.9567L11.8913 17.8876L12.0633 19.1106L19.9479 18.1612L19.3046 11.8862ZM14.5075 8.5648C14.4856 8.61499 14.4507 8.64802 14.5027 8.81143L14.5057 8.82076L14.514 8.84194L14.5357 8.89086C14.6293 9.08226 14.7319 9.26256 14.9039 9.35486C14.9483 9.34729 14.9945 9.34225 15.0421 9.33998C15.2035 9.33292 15.3054 9.35839 15.3697 9.39319C15.3755 9.36091 15.3768 9.314 15.3733 9.24466C15.3606 9.00232 15.4212 8.59027 14.9554 8.37341C14.7796 8.29195 14.533 8.31692 14.4507 8.4188C14.4656 8.42081 14.479 8.42384 14.4896 8.42737C14.6142 8.47049 14.5299 8.51336 14.5075 8.5648ZM15.8133 10.8258C15.7523 10.792 15.4668 10.8053 15.2661 10.8293C14.8838 10.8744 14.4709 11.0068 14.3806 11.0774C14.2162 11.2045 14.2909 11.4259 14.4124 11.517C14.7531 11.7714 15.0517 11.9421 15.3667 11.9005C15.5601 11.8751 15.7309 11.5687 15.8517 11.2908C15.9344 11.0994 15.9344 10.8928 15.8133 10.8258ZM12.4287 8.86464C12.5364 8.76225 11.8918 8.62785 11.3915 8.96903C11.0225 9.2207 11.0107 9.76035 11.364 10.0662C11.3993 10.0965 11.4285 10.1179 11.4555 10.1356C11.5587 10.0869 11.6762 10.038 11.8116 9.99411C12.0401 9.91997 12.2302 9.88164 12.3863 9.86122C12.461 9.77775 12.548 9.63073 12.5263 9.36444C12.4965 9.00308 12.2232 9.06032 12.4287 8.86464Z" fill="#632CA6"/>
</svg>
