<svg width="32" height="32" viewBox="0 0 32 32" fill="none" xmlns="http://www.w3.org/2000/svg">
<mask id="path-1-inside-1_237_7295" fill="white">
<path d="M0 8C0 3.58172 3.58172 0 8 0H24C28.4183 0 32 3.58172 32 8V24C32 28.4183 28.4183 32 24 32H8C3.58172 32 0 28.4183 0 24V8Z"/>
</mask>
<path d="M0 8C0 3.58172 3.58172 0 8 0H24C28.4183 0 32 3.58172 32 8V24C32 28.4183 28.4183 32 24 32H8C3.58172 32 0 28.4183 0 24V8Z" fill="white"/>
<path d="M8 0V1H24V0V-1H8V0ZM32 8H31V24H32H33V8H32ZM24 32V31H8V32V33H24V32ZM0 24H1V8H0H-1V24H0ZM8 32V31C4.13401 31 1 27.866 1 24H0H-1C-1 28.9706 3.02944 33 8 33V32ZM32 24H31C31 27.866 27.866 31 24 31V32V33C28.9706 33 33 28.9706 33 24H32ZM24 0V1C27.866 1 31 4.13401 31 8H32H33C33 3.02944 28.9706 -1 24 -1V0ZM8 0V-1C3.02944 -1 -1 3.02944 -1 8H0H1C1 4.13401 4.13401 1 8 1V0Z" fill="#0B1228" fill-opacity="0.14" mask="url(#path-1-inside-1_237_7295)"/>
<path d="M23.3625 20.4791L21.5878 19.3083L20.1072 21.7813L18.3853 21.278L16.8691 23.5919L16.9468 24.3202L25.1907 22.8011L24.7119 17.6504L23.3625 20.4791ZM15.6748 18.2586L16.9976 18.0767C17.2114 18.1729 17.3604 18.2095 17.617 18.2748C18.0168 18.3787 18.4791 18.4785 19.1641 18.1336C19.3234 18.0545 19.6557 17.7509 19.7898 17.5778L25.2088 16.595L25.7616 23.2852L16.4774 24.9583L15.6748 18.2586ZM25.7408 15.8479L25.2058 15.9498L24.1782 5.33301L6.66797 7.36315L8.82535 24.8679L10.8751 24.5703C10.7114 24.3366 10.4565 24.0539 10.0214 23.6921C9.41783 23.1908 9.63101 22.3388 9.98744 21.8008C10.4585 20.892 12.8859 19.737 12.7484 18.2845C12.699 17.7563 12.6152 17.0691 12.1246 16.5977C12.1062 16.7934 12.1394 16.9813 12.1394 16.9813C12.1394 16.9813 11.938 16.7244 11.8378 16.3744C11.7383 16.2399 11.6599 16.1972 11.554 16.0177C11.4784 16.2251 11.4885 16.4659 11.4885 16.4659C11.4885 16.4659 11.3237 16.0768 11.2971 15.7484C11.1996 15.8953 11.1751 16.1744 11.1751 16.1744C11.1751 16.1744 10.9612 15.5611 11.01 15.2306C10.9125 14.9431 10.623 14.3725 10.7047 13.076C11.239 13.4502 12.4155 13.3615 12.8738 12.686C13.0258 12.4621 13.1304 11.8515 12.7978 10.6478C12.5843 9.87613 12.0557 8.7269 11.8496 8.29081L11.825 8.30863C11.9337 8.65999 12.1576 9.39599 12.2437 9.7534C12.5039 10.8361 12.5735 11.2133 12.4515 11.7126C12.3476 12.1467 12.0984 12.4305 11.4669 12.7479C10.8355 13.0663 9.99719 12.2913 9.9444 12.2486C9.33074 11.7597 8.85595 10.9625 8.80316 10.5748C8.74802 10.1508 9.04762 9.8963 9.19859 9.54965C8.98238 9.61118 8.74163 9.72112 8.74163 9.72112C8.74163 9.72112 9.02912 9.42356 9.38353 9.16635C9.53047 9.06918 9.61655 9.00731 9.77123 8.87887C9.54728 8.87517 9.36537 8.88156 9.36537 8.88156C9.36537 8.88156 9.73895 8.67982 10.126 8.53289C9.84285 8.52045 9.57149 8.53088 9.57149 8.53088C9.57149 8.53088 10.4051 8.158 11.0631 7.88464C11.5157 7.69905 11.9579 7.75385 12.2064 8.11328C12.5325 8.584 12.8752 8.83953 13.6011 8.9979C14.047 8.80019 14.1822 8.69899 14.7424 8.54601C15.2353 8.00367 15.6223 7.93373 15.6223 7.93373C15.6223 7.93373 15.4303 8.10992 15.3789 8.38663C15.6583 8.1664 15.9646 7.98249 15.9646 7.98249C15.9646 7.98249 15.8459 8.12875 15.7353 8.36142L15.7609 8.39975C16.087 8.20406 16.4704 8.05007 16.4704 8.05007C16.4704 8.05007 16.3607 8.1886 16.2323 8.36781C16.4784 8.36579 16.9771 8.37823 17.1708 8.40008C18.3137 8.4253 18.5507 7.17991 18.9892 7.02356C19.5383 6.82754 19.7838 6.70885 20.7196 7.6281C21.5222 8.41757 22.1496 9.82973 21.8379 10.1461C21.5767 10.4087 21.0615 10.0436 20.4906 9.33211C20.1889 8.9552 19.9606 8.50969 19.8537 7.94348C19.7636 7.4657 19.4125 7.18865 19.4125 7.18865C19.4125 7.18865 19.616 7.64256 19.616 8.04234C19.616 8.26088 19.6432 9.07758 19.9936 9.5362C19.959 9.60311 19.9428 9.86772 19.9045 9.91849C19.4969 9.42592 18.6217 9.07355 18.4788 8.96965C18.962 9.36539 20.0723 10.2746 20.4986 11.1464C20.9021 11.9705 20.6644 12.726 20.8685 12.9213C20.9267 12.9772 21.736 13.9858 21.8917 14.4925C22.1634 15.3755 21.9079 16.3038 21.5524 16.8794L20.5595 17.0341C20.4142 16.9937 20.3164 16.9736 20.1863 16.8983C20.2582 16.7712 20.4008 16.4544 20.4021 16.3889L20.346 16.2907C20.037 16.7285 19.5195 17.1535 19.0894 17.3976C18.5265 17.7166 17.8779 17.6672 17.4556 17.5368C16.2572 17.1672 15.1237 16.3573 14.8503 16.1444C14.8503 16.1444 14.8419 16.3142 14.8933 16.3526C15.1953 16.6935 15.8876 17.3098 16.5571 17.7398L15.1304 17.8969L15.8049 23.1477C15.506 23.1904 15.4592 23.2116 15.1321 23.258C14.8436 22.2389 14.2918 21.5735 13.6885 21.1858C13.1566 20.8439 12.4229 20.7669 11.7208 20.9061L11.6758 20.9585C12.164 20.9078 12.7403 20.9784 13.3325 21.3533C13.9135 21.7208 14.3819 22.67 14.5544 23.2412C14.7753 23.9715 14.928 24.7529 14.3335 25.581C13.9108 26.1698 12.6768 26.4949 11.6795 25.7912C11.9458 26.2195 12.3055 26.5695 12.7904 26.6354C13.51 26.7333 14.1929 26.6082 14.663 26.1257C15.0642 25.7132 15.2773 24.8504 15.2212 23.9419L15.8564 23.8498L16.0857 25.4805L26.5986 24.2146L25.7408 15.8479ZM19.3446 11.4194C19.3154 11.4863 19.269 11.5304 19.3382 11.7482L19.3423 11.7607L19.3534 11.7889L19.3823 11.8542C19.507 12.1094 19.6439 12.3498 19.8732 12.4728C19.9324 12.4627 19.9939 12.456 20.0575 12.453C20.2727 12.4436 20.4085 12.4775 20.4943 12.5239C20.502 12.4809 20.5037 12.4183 20.499 12.3259C20.4822 12.0028 20.5629 11.4534 19.9418 11.1642C19.7074 11.0556 19.3786 11.0889 19.269 11.2247C19.2888 11.2274 19.3066 11.2315 19.3207 11.2362C19.4869 11.2937 19.3746 11.3508 19.3446 11.4194ZM21.0857 14.434C21.0044 14.389 20.6237 14.4068 20.3561 14.4387C19.8463 14.4989 19.2959 14.6754 19.1755 14.7696C18.9563 14.9391 19.0558 15.2343 19.2179 15.3556C19.6721 15.6949 20.0703 15.9225 20.4902 15.867C20.7481 15.8331 20.9758 15.4246 21.1368 15.054C21.2471 14.7988 21.2471 14.5235 21.0857 14.434ZM16.5729 11.8192C16.7165 11.6827 15.857 11.5035 15.1899 11.9584C14.698 12.2939 14.6822 13.0135 15.1533 13.4213C15.2003 13.4617 15.2393 13.4902 15.2753 13.5138C15.4128 13.4489 15.5695 13.3837 15.7501 13.3252C16.0547 13.2263 16.3083 13.1752 16.5164 13.148C16.6159 13.0367 16.732 12.8407 16.703 12.4856C16.6634 12.0038 16.2989 12.0801 16.5729 11.8192Z" fill="#632CA6"/>
</svg>
