<svg width="96" height="96" viewBox="0 0 96 96" fill="none" xmlns="http://www.w3.org/2000/svg">
<path d="M68.7719 34.3984V81.2084H35.5819V34.3984L44.0419 33.3984C44.0419 35.9984 47.6819 39.3384 52.1719 39.3384C56.6619 39.3384 60.3119 35.9984 60.3119 33.3984L68.7719 34.3984Z" fill="#1868DB"/>
<path d="M37.1819 60.6684L22.4719 56.7384L26.7219 40.6384C27.9119 37.7884 30.7019 35.9384 33.7819 35.9384H40.9119L37.1719 60.6684H37.1819Z" fill="#82B536"/>
<path d="M67.1719 60.6684L81.8819 56.7384L77.6319 40.6384C76.4419 37.7884 73.6519 35.9384 70.5719 35.9384H63.4419L67.1819 60.6684H67.1719Z" fill="#82B536"/>
<path d="M40.9219 35.9384L37.1819 60.6684L35.5819 60.2384V35.9484H40.9219V35.9384Z" fill="#09326C"/>
<path d="M68.7719 35.9484V60.2384L67.1719 60.6684L63.4319 35.9384H68.7719V35.9484Z" fill="#09326C"/>
<path d="M48.882 14.258C48.742 13.868 47.632 13.938 47.532 14.348C47.402 14.918 47.352 15.508 47.392 16.258C47.502 17.108 47.742 17.308 47.752 17.888C47.812 18.868 47.612 20.538 47.562 20.938C47.562 20.998 47.562 21.058 47.562 21.118C47.632 21.538 47.912 23.368 47.942 24.968C48.012 26.088 48.062 26.788 48.082 27.148C48.142 28.008 48.302 28.638 48.552 29.258C48.692 29.598 49.662 29.538 49.752 29.178C49.922 28.538 50.002 27.888 49.952 27.028C49.932 26.698 50.152 25.988 50.142 24.998C50.142 24.838 50.112 24.678 50.062 24.528C49.612 23.188 49.602 21.408 49.602 21.408C49.602 21.408 49.442 18.758 49.372 17.638C49.312 16.798 49.292 16.388 49.272 16.148C49.212 15.398 49.092 14.818 48.892 14.268L48.882 14.258Z" fill="#101214"/>
<path d="M42.0819 20.908C41.7219 21.058 41.8219 22.168 42.1919 22.248C42.7319 22.368 43.2819 22.408 43.9919 22.358C44.7919 22.238 44.9719 21.988 45.5119 21.968C46.4319 21.888 48.0019 22.068 48.3819 22.118C48.4419 22.118 48.4919 22.118 48.5519 22.118C48.9419 22.038 50.6619 21.728 52.1519 21.678C53.2019 21.588 53.8519 21.528 54.1919 21.498C54.9919 21.418 55.5819 21.258 56.1519 20.998C56.4619 20.858 56.3819 19.888 56.0519 19.798C55.4419 19.638 54.8319 19.578 54.0319 19.638C53.7219 19.668 53.0519 19.448 52.1219 19.488C51.9719 19.488 51.8219 19.528 51.6819 19.578C50.4319 20.048 48.7619 20.088 48.7619 20.088C48.7619 20.088 46.2819 20.298 45.2319 20.378C44.4419 20.448 44.0619 20.478 43.8319 20.498C43.1219 20.568 42.5819 20.698 42.0719 20.908H42.0819Z" fill="#101214"/>
<path d="M66.7519 30.568C66.6219 30.288 65.5119 30.328 65.4019 30.618C65.2519 31.028 65.1819 31.458 65.1919 32.008C65.2719 32.628 65.5019 32.768 65.4919 33.188C65.5219 33.898 65.2619 35.108 65.1919 35.398C65.1919 35.438 65.1819 35.488 65.1919 35.528C65.2419 35.828 65.4719 37.168 65.4319 38.318C65.4719 39.128 65.4919 39.638 65.5019 39.898C65.5319 40.518 65.6619 40.978 65.8919 41.428C66.0219 41.678 66.9919 41.638 67.0919 41.378C67.2819 40.918 67.3819 40.448 67.3619 39.818C67.3619 39.578 67.6019 39.058 67.6219 38.348C67.6219 38.228 67.6019 38.118 67.5519 38.008C67.1519 37.028 67.2019 35.738 67.2019 35.738C67.2019 35.738 67.1319 33.818 67.1019 33.008C67.0719 32.398 67.0619 32.108 67.0519 31.928C67.0219 31.378 66.9219 30.958 66.7319 30.558L66.7519 30.568Z" fill="#101214"/>
<path d="M61.542 35.798C61.332 35.968 61.602 37.048 61.852 37.108C62.202 37.198 62.542 37.218 62.962 37.148C63.432 37.008 63.522 36.768 63.862 36.748C64.422 36.658 65.412 36.878 65.642 36.938C65.672 36.938 65.712 36.938 65.742 36.938C65.982 36.878 67.042 36.628 67.962 36.698C68.612 36.698 69.012 36.698 69.212 36.698C69.702 36.698 70.072 36.618 70.452 36.438C70.662 36.338 70.762 35.378 70.562 35.238C70.202 34.988 69.802 34.848 69.272 34.818C69.072 34.818 68.642 34.528 68.032 34.488C67.932 34.488 67.832 34.498 67.742 34.548C66.912 34.918 65.832 34.898 65.832 34.898C65.832 34.898 64.222 35.028 63.542 35.138C63.032 35.228 62.782 35.268 62.632 35.288C62.172 35.378 61.832 35.538 61.542 35.778V35.798Z" fill="#101214"/>
<path d="M42.1419 46.148C42.0019 45.838 40.8819 45.938 40.8019 46.268C40.6719 46.738 40.632 47.218 40.672 47.828C40.782 48.518 41.032 48.668 41.042 49.138C41.112 49.928 40.9219 51.288 40.8719 51.618C40.8719 51.668 40.8719 51.718 40.8719 51.758C40.9419 52.098 41.242 53.568 41.272 54.868C41.352 55.778 41.402 56.338 41.432 56.628C41.502 57.318 41.662 57.828 41.912 58.318C42.052 58.588 43.022 58.498 43.112 58.218C43.282 57.688 43.352 57.168 43.292 56.468C43.272 56.198 43.4819 55.618 43.4619 54.818C43.4619 54.688 43.4319 54.558 43.3719 54.438C42.9119 53.368 42.8919 51.918 42.8919 51.918C42.8919 51.918 42.712 49.778 42.632 48.878C42.572 48.198 42.542 47.868 42.522 47.668C42.462 47.058 42.332 46.598 42.132 46.158L42.1419 46.148Z" fill="#101214"/>
<path d="M35.5219 50.228C35.1819 50.318 35.1019 51.438 35.4219 51.578C35.8919 51.778 36.3819 51.898 37.0219 51.958C37.7519 51.958 37.9519 51.738 38.4419 51.798C39.2819 51.858 40.6619 52.268 41.0019 52.368C41.0519 52.388 41.1019 52.388 41.1519 52.388C41.5119 52.368 43.1019 52.318 44.4619 52.498C45.4219 52.568 46.0119 52.608 46.3319 52.628C47.0619 52.668 47.6219 52.598 48.1719 52.428C48.4719 52.338 48.5419 51.368 48.2619 51.228C47.7419 50.978 47.2019 50.828 46.4719 50.768C46.1919 50.748 45.6119 50.438 44.7819 50.328C44.6419 50.308 44.5119 50.328 44.3719 50.348C43.1819 50.628 41.6719 50.418 41.6719 50.418C41.6719 50.418 39.4119 50.248 38.4519 50.178C37.7319 50.128 37.3819 50.108 37.1719 50.088C36.5319 50.048 36.0219 50.098 35.5319 50.228H35.5219Z" fill="#101214"/>
<path d="M21.4419 17.628C21.2919 17.228 20.1819 17.328 20.1019 17.748C19.9919 18.348 19.9519 18.968 20.0219 19.758C20.1519 20.648 20.4019 20.848 20.4319 21.458C20.5219 22.488 20.3719 24.238 20.3319 24.668C20.3319 24.728 20.3319 24.788 20.3319 24.858C20.4119 25.298 20.7519 27.218 20.8219 28.888C20.9319 30.068 20.9919 30.798 21.0319 31.178C21.1219 32.078 21.2919 32.738 21.5619 33.378C21.7119 33.728 22.6719 33.648 22.7619 33.268C22.9119 32.588 22.9719 31.908 22.8919 31.008C22.8619 30.658 23.0619 29.908 23.0219 28.878C23.0219 28.708 22.9819 28.548 22.9219 28.378C22.4319 26.978 22.3719 25.108 22.3719 25.108C22.3719 25.108 22.1319 22.328 22.0219 21.158C21.9419 20.278 21.9019 19.848 21.8819 19.588C21.8019 18.798 21.6619 18.188 21.4419 17.618V17.628Z" fill="#101214"/>
<path d="M14.2319 25.488C13.9019 25.618 13.9319 26.728 14.2719 26.838C14.7419 26.988 15.2419 27.068 15.8719 27.058C16.5919 26.988 16.7619 26.748 17.2419 26.758C18.0619 26.738 19.4519 27.008 19.7919 27.078C19.8419 27.088 19.8919 27.088 19.9419 27.078C20.2919 27.028 21.8419 26.818 23.1719 26.858C24.1119 26.828 24.7019 26.808 25.0019 26.798C25.7219 26.768 26.2519 26.638 26.7819 26.418C27.0719 26.298 27.0419 25.328 26.7519 25.218C26.2219 25.018 25.6819 24.918 24.9619 24.938C24.6819 24.938 24.0919 24.698 23.2719 24.668C23.1419 24.668 23.0019 24.688 22.8719 24.728C21.7319 25.128 20.2419 25.068 20.2419 25.068C20.2419 25.068 18.0219 25.128 17.0819 25.148C16.3719 25.168 16.0319 25.178 15.8319 25.188C15.2019 25.218 14.7119 25.318 14.2519 25.498L14.2319 25.488Z" fill="#101214"/>
</svg>
