<svg width="96" height="96" viewBox="0 0 96 96" fill="none" xmlns="http://www.w3.org/2000/svg">
<path d="M68.7719 34.3984V81.2084H35.5819V34.3984L44.0419 33.3984C44.0419 35.9984 47.6819 39.3384 52.1719 39.3384C56.6619 39.3384 60.3119 35.9984 60.3119 33.3984L68.7719 34.3984Z" fill="#1868DB"/>
<path d="M37.1819 60.6684L22.4719 56.7384L26.7219 40.6384C27.9119 37.7884 30.7019 35.9384 33.7819 35.9384H40.9119L37.1719 60.6684H37.1819Z" fill="#82B536"/>
<path d="M67.1719 60.6684L81.8819 56.7384L77.6319 40.6384C76.4419 37.7884 73.6519 35.9384 70.5719 35.9384H63.4419L67.1819 60.6684H67.1719Z" fill="#82B536"/>
<path d="M40.9219 35.9384L37.1819 60.6684L35.5819 60.2384V35.9484H40.9219V35.9384Z" fill="#09326C"/>
<path d="M68.7719 35.9484V60.2384L67.1719 60.6684L63.4319 35.9384H68.7719V35.9484Z" fill="#09326C"/>
</svg>
