<svg width="96" height="96" viewBox="0 0 96 96" fill="none" xmlns="http://www.w3.org/2000/svg">
<mask id="mask0_213_19671" style="mask-type:luminance" maskUnits="userSpaceOnUse" x="4" y="4" width="88" height="88">
<path d="M91.8698 4H4.0498V91.82H91.8698V4Z" fill="white"/>
</mask>
<g mask="url(#mask0_213_19671)">
<path d="M45.1997 24.09H55.3197L71.7697 71.98H59.0397L55.7897 61.8L53.0197 53.13L52.3797 51.08C50.7097 45.62 49.1297 39.57 47.5897 33.14L45.1797 24.1L45.1997 24.09Z" fill="#BF63F3"/>
<path d="M47.5996 33.13C46.1496 39.59 44.7396 45.63 43.1696 51.07L42.5296 53.12L39.8596 61.79L36.7396 71.98H24.1396L40.1096 24.09H49.8296L47.5996 33.12V33.13Z" fill="#1868DB"/>
<path d="M45.1997 24.09L47.6097 33.12L49.8497 24.09H45.2097H45.1997Z" fill="#101214"/>
<path d="M59.7996 53.12H36.1196V61.79H59.7996V53.12Z" fill="#82B536"/>
<path d="M36.1196 53.12V61.79H39.8596L42.5296 53.12H36.1196Z" fill="#101214"/>
<path d="M59.7995 53.12H53.0396L55.8095 61.79H59.7995V53.12Z" fill="#101214"/>
</g>
<path d="M90.19 72.6899C92.43 72.5699 92.43 71.4599 90.19 71.3399C87.02 71.1699 83.69 71.0899 79.41 71.0799C74.56 71.1299 73.35 71.3599 70.06 71.3399C64.5 71.3399 55.13 71.0299 52.87 70.9499C52.54 70.9399 52.2 70.9399 51.87 70.9499C49.48 70.9899 38.98 71.1599 29.95 71.0799C23.57 71.0799 19.62 71.0799 17.56 71.0799C12.69 71.0799 9.05 71.2 5.47 71.41C3.51 71.53 3.51 72.4999 5.47 72.6099C9.04 72.8199 12.69 72.9399 17.56 72.9399C19.45 72.9399 23.4 73.2099 28.97 73.2499C29.88 73.2499 30.78 73.2399 31.68 73.1999C39.44 72.8399 49.53 72.9399 49.53 72.9399C49.53 72.9399 64.57 72.9399 70.92 72.9399C75.7 72.9399 78 72.9399 79.42 72.9399C83.7 72.9399 87.03 72.8399 90.2 72.6799L90.19 72.6899Z" fill="#101214"/>
<path d="M90.19 25.02C92.43 24.9 92.43 23.79 90.19 23.67C87.02 23.5 83.69 23.42 79.41 23.41C74.56 23.46 73.35 23.69 70.06 23.67C64.5 23.67 55.13 23.36 52.87 23.28C52.54 23.27 52.2 23.27 51.87 23.28C49.48 23.32 38.98 23.49 29.95 23.41C23.57 23.41 19.62 23.41 17.56 23.41C12.69 23.41 9.05 23.53 5.47 23.74C3.51 23.86 3.51 24.83 5.47 24.94C9.04 25.15 12.69 25.27 17.56 25.27C19.45 25.27 23.4 25.54 28.97 25.58C29.88 25.58 30.78 25.57 31.68 25.53C39.44 25.17 49.53 25.27 49.53 25.27C49.53 25.27 64.57 25.27 70.92 25.27C75.7 25.27 78 25.27 79.42 25.27C83.7 25.27 87.03 25.17 90.2 25.01L90.19 25.02Z" fill="#101214"/>
<path d="M61.0498 83.99C60.2698 84.11 60.2698 85.22 61.0498 85.34C62.1598 85.51 63.3298 85.59 64.8298 85.6C66.5298 85.55 66.9598 85.32 68.1098 85.34C70.0598 85.34 73.3398 85.65 74.1398 85.73C74.2598 85.74 74.3698 85.74 74.4898 85.73C75.3298 85.69 79.0098 85.52 82.1798 85.6C84.4198 85.6 85.7998 85.6 86.5298 85.6C88.2398 85.6 89.5198 85.48 90.7698 85.27C91.4598 85.15 91.4598 84.18 90.7698 84.07C89.5198 83.86 88.2398 83.74 86.5298 83.74C85.8698 83.74 84.4798 83.47 82.5298 83.43C82.2098 83.43 81.8898 83.44 81.5798 83.48C78.8598 83.84 75.3198 83.74 75.3198 83.74C75.3198 83.74 70.0398 83.74 67.8198 83.74C66.1398 83.74 65.3398 83.74 64.8398 83.74C63.3398 83.74 62.1698 83.84 61.0598 84L61.0498 83.99Z" fill="#101214"/>
<path d="M60.91 89.83C60.31 89.95 60.31 91.06 60.91 91.18C61.76 91.35 62.66 91.43 63.81 91.44C65.11 91.39 65.44 91.16 66.32 91.18C67.81 91.18 70.33 91.49 70.93 91.57C71.02 91.58 71.11 91.58 71.2 91.57C71.84 91.53 74.66 91.36 77.09 91.44C78.8 91.44 79.86 91.44 80.42 91.44C81.73 91.44 82.71 91.32 83.67 91.11C84.2 90.99 84.2 90.02 83.67 89.91C82.71 89.7 81.73 89.58 80.42 89.58C79.91 89.58 78.85 89.31 77.36 89.27C77.12 89.27 76.87 89.28 76.63 89.32C74.54 89.68 71.84 89.58 71.84 89.58C71.84 89.58 67.8 89.58 66.1 89.58C64.82 89.58 64.2 89.58 63.82 89.58C62.67 89.58 61.78 89.68 60.92 89.84L60.91 89.83Z" fill="#101214"/>
<path d="M32.9998 76.3499C32.4798 76.0699 31.6698 76.85 32.1498 77.4C32.7798 78.12 33.4998 78.76 34.4798 79.51C35.6198 80.31 36.0398 80.34 36.7698 80.93C38.0398 81.9 39.9298 83.8299 40.2898 84.3099C40.3498 84.3799 40.4098 84.44 40.4698 84.5C40.5298 84.55 40.6098 84.62 40.7198 84.71C40.8198 84.81 40.8598 84.8199 41.1898 85.1999C41.3298 85.3299 41.4298 85.54 41.6198 85.62C41.8398 85.64 42.0598 85.68 42.3098 85.66C42.6198 85.66 42.9498 85.6399 43.2998 85.6299C44.4698 85.5899 45.8698 85.57 47.1798 85.61C49.0198 85.61 50.1598 85.61 50.7498 85.61C52.1498 85.61 53.1998 85.49 54.2298 85.28C54.7998 85.16 54.7998 84.19 54.2298 84.08C53.1998 83.87 52.1498 83.75 50.7498 83.75C50.1998 83.75 49.0698 83.48 47.4598 83.44C47.1998 83.44 46.9398 83.4499 46.6798 83.4899C45.5598 83.6699 44.2798 83.74 43.2698 83.76C43.0398 83.76 42.8198 83.76 42.6298 83.76C42.5698 83.76 42.5098 83.76 42.4798 83.75C42.4198 83.66 42.4298 83.66 42.3898 83.62C42.3898 83.62 42.3398 83.56 42.2398 83.46C42.1398 83.35 42.0098 83.2199 41.8398 83.0599C41.5098 82.7299 41.0398 82.33 40.5298 81.9C39.5098 81.04 38.2798 80.09 37.5598 79.53C36.4598 78.69 35.9298 78.29 35.6098 78.05C34.6198 77.31 33.7998 76.7999 32.9998 76.3799V76.3499Z" fill="#101214"/>
</svg>
