<svg width="96" height="96" viewBox="0 0 96 96" fill="none" xmlns="http://www.w3.org/2000/svg">
<mask id="mask0_213_19693" style="mask-type:luminance" maskUnits="userSpaceOnUse" x="4" y="4" width="88" height="88">
<path d="M91.8698 4H4.0498V91.82H91.8698V4Z" fill="white"/>
</mask>
<g mask="url(#mask0_213_19693)">
<path d="M45.1997 24.09H55.3197L71.7697 71.98H59.0397L55.7897 61.8L53.0197 53.13L52.3797 51.08C50.7097 45.62 49.1297 39.57 47.5897 33.14L45.1797 24.1L45.1997 24.09Z" fill="#BF63F3"/>
<path d="M47.5996 33.13C46.1496 39.59 44.7396 45.63 43.1696 51.07L42.5296 53.12L39.8596 61.79L36.7396 71.98H24.1396L40.1096 24.09H49.8296L47.5996 33.12V33.13Z" fill="#1868DB"/>
<path d="M45.1997 24.09L47.6097 33.12L49.8497 24.09H45.2097H45.1997Z" fill="#101214"/>
<path d="M59.7996 53.12H36.1196V61.79H59.7996V53.12Z" fill="#82B536"/>
<path d="M36.1196 53.12V61.79H39.8596L42.5296 53.12H36.1196Z" fill="#101214"/>
<path d="M59.7995 53.12H53.0396L55.8095 61.79H59.7995V53.12Z" fill="#101214"/>
</g>
</svg>
