<svg width="16" height="16" viewBox="0 0 16 16" fill="none" xmlns="http://www.w3.org/2000/svg">
<g clip-path="url(#clip0_237_7068)">
<mask id="mask0_237_7068" style="mask-type:luminance" maskUnits="userSpaceOnUse" x="-1" y="2" width="17" height="12">
<path d="M15.8359 2.06055H-0.164062V13.7066H15.8359V2.06055Z" fill="white"/>
</mask>
<g mask="url(#mask0_237_7068)">
<path d="M4.80039 13.6605C1.83776 13.6605 0.829389 9.91367 0.603447 9.18479C0.0360435 7.35446 -0.136443 5.70572 -0.154704 5.53271C-0.260068 4.53432 0.540664 3.83954 1.41949 3.83954C2.08488 3.83954 2.85716 4.23787 2.95949 5.20432C2.97722 5.36685 3.11251 6.76881 3.59108 8.29637C4.09052 9.8906 4.62033 10.5037 5.00186 10.5037C5.61803 10.5037 5.99393 8.92116 6.32628 7.41427C6.57115 6.30406 6.83581 5.18537 7.35837 4.19163C8.26746 2.46285 9.64121 2.06055 10.828 2.06055C13.4303 2.06055 14.7327 5.07559 14.7327 5.85679C14.7327 7.1622 13.668 7.49519 13.2065 7.49519C12.1972 7.49519 11.855 6.81888 11.567 6.22607C11.308 5.69279 11.0374 5.24939 10.6876 5.24939C10.5727 5.24939 10.4662 5.30758 10.3677 5.40775C9.49828 6.29137 9.20677 10.9142 7.46844 12.681C6.50473 13.6605 5.45619 13.6605 4.80039 13.6605Z" fill="url(#paint0_linear_237_7068)"/>
<path d="M4.80039 13.6605C1.83776 13.6605 0.829389 9.91367 0.603447 9.18479C0.0360435 7.35446 -0.136443 5.70572 -0.154704 5.53271C-0.260068 4.53432 0.540664 3.83954 1.41949 3.83954C2.08488 3.83954 2.85716 4.23787 2.95949 5.20432C2.97722 5.36685 3.11251 6.76881 3.59108 8.29637C4.09052 9.8906 4.62033 10.5037 5.00186 10.5037C5.61803 10.5037 5.99393 8.92116 6.32628 7.41427C6.57115 6.30406 6.83581 5.18537 7.35837 4.19163C8.26746 2.46285 9.64121 2.06055 10.828 2.06055C13.4303 2.06055 14.7327 5.07559 14.7327 5.85679C14.7327 7.1622 13.668 7.49519 13.2065 7.49519C12.1972 7.49519 11.855 6.81888 11.567 6.22607C11.308 5.69279 11.0374 5.24939 10.6876 5.24939C10.5727 5.24939 10.4662 5.30758 10.3677 5.40775C9.49828 6.29137 9.20677 10.9142 7.46844 12.681C6.50473 13.6605 5.45619 13.6605 4.80039 13.6605Z" fill="url(#paint1_radial_237_7068)"/>
<path d="M4.80039 13.6605C1.83776 13.6605 0.829389 9.91367 0.603447 9.18479C0.0360435 7.35446 -0.136443 5.70572 -0.154704 5.53271C-0.260068 4.53432 0.540664 3.83954 1.41949 3.83954C2.08488 3.83954 2.85716 4.23787 2.95949 5.20432C2.97722 5.36685 3.11251 6.76881 3.59108 8.29637C4.09052 9.8906 4.62033 10.5037 5.00186 10.5037C5.61803 10.5037 5.99393 8.92116 6.32628 7.41427C6.57115 6.30406 6.83581 5.18537 7.35837 4.19163C8.26746 2.46285 9.64121 2.06055 10.828 2.06055C13.4303 2.06055 14.7327 5.07559 14.7327 5.85679C14.7327 7.1622 13.668 7.49519 13.2065 7.49519C12.1972 7.49519 11.855 6.81888 11.567 6.22607C11.308 5.69279 11.0374 5.24939 10.6876 5.24939C10.5727 5.24939 10.4662 5.30758 10.3677 5.40775C9.49828 6.29137 9.20677 10.9142 7.46844 12.681C6.50473 13.6605 5.45619 13.6605 4.80039 13.6605Z" fill="url(#paint2_radial_237_7068)"/>
<path d="M4.80039 13.6605C1.83776 13.6605 0.829389 9.91367 0.603447 9.18479C0.0360435 7.35446 -0.136443 5.70572 -0.154704 5.53271C-0.260068 4.53432 0.540664 3.83954 1.41949 3.83954C2.08488 3.83954 2.85716 4.23787 2.95949 5.20432C2.97722 5.36685 3.11251 6.76881 3.59108 8.29637C4.09052 9.8906 4.62033 10.5037 5.00186 10.5037C5.61803 10.5037 5.99393 8.92116 6.32628 7.41427C6.57115 6.30406 6.83581 5.18537 7.35837 4.19163C8.26746 2.46285 9.64121 2.06055 10.828 2.06055C13.4303 2.06055 14.7327 5.07559 14.7327 5.85679C14.7327 7.1622 13.668 7.49519 13.2065 7.49519C12.1972 7.49519 11.855 6.81888 11.567 6.22607C11.308 5.69279 11.0374 5.24939 10.6876 5.24939C10.5727 5.24939 10.4662 5.30758 10.3677 5.40775C9.49828 6.29137 9.20677 10.9142 7.46844 12.681C6.50473 13.6605 5.45619 13.6605 4.80039 13.6605Z" fill="url(#paint3_radial_237_7068)"/>
<path d="M4.80039 13.6605C1.83776 13.6605 0.829389 9.91367 0.603447 9.18479C0.0360435 7.35446 -0.136443 5.70572 -0.154704 5.53271C-0.260068 4.53432 0.540664 3.83954 1.41949 3.83954C2.08488 3.83954 2.85716 4.23787 2.95949 5.20432C2.97722 5.36685 3.11251 6.76881 3.59108 8.29637C4.09052 9.8906 4.62033 10.5037 5.00186 10.5037C5.61803 10.5037 5.99393 8.92116 6.32628 7.41427C6.57115 6.30406 6.83581 5.18537 7.35837 4.19163C8.26746 2.46285 9.64121 2.06055 10.828 2.06055C13.4303 2.06055 14.7327 5.07559 14.7327 5.85679C14.7327 7.1622 13.668 7.49519 13.2065 7.49519C12.1972 7.49519 11.855 6.81888 11.567 6.22607C11.308 5.69279 11.0374 5.24939 10.6876 5.24939C10.5727 5.24939 10.4662 5.30758 10.3677 5.40775C9.49828 6.29137 9.20677 10.9142 7.46844 12.681C6.50473 13.6605 5.45619 13.6605 4.80039 13.6605Z" fill="url(#paint4_radial_237_7068)"/>
<path d="M4.80039 13.6605C1.83776 13.6605 0.829389 9.91367 0.603447 9.18479C0.0360435 7.35446 -0.136443 5.70572 -0.154704 5.53271C-0.260068 4.53432 0.540664 3.83954 1.41949 3.83954C2.08488 3.83954 2.85716 4.23787 2.95949 5.20432C2.97722 5.36685 3.11251 6.76881 3.59108 8.29637C4.09052 9.8906 4.62033 10.5037 5.00186 10.5037C5.61803 10.5037 5.99393 8.92116 6.32628 7.41427C6.57115 6.30406 6.83581 5.18537 7.35837 4.19163C8.26746 2.46285 9.64121 2.06055 10.828 2.06055C13.4303 2.06055 14.7327 5.07559 14.7327 5.85679C14.7327 7.1622 13.668 7.49519 13.2065 7.49519C12.1972 7.49519 11.855 6.81888 11.567 6.22607C11.308 5.69279 11.0374 5.24939 10.6876 5.24939C10.5727 5.24939 10.4662 5.30758 10.3677 5.40775C9.49828 6.29137 9.20677 10.9142 7.46844 12.681C6.50473 13.6605 5.45619 13.6605 4.80039 13.6605Z" fill="url(#paint5_radial_237_7068)"/>
<path d="M4.80039 13.6605C1.83776 13.6605 0.829389 9.91367 0.603447 9.18479C0.0360435 7.35446 -0.136443 5.70572 -0.154704 5.53271C-0.260068 4.53432 0.540664 3.83954 1.41949 3.83954C2.08488 3.83954 2.85716 4.23787 2.95949 5.20432C2.97722 5.36685 3.11251 6.76881 3.59108 8.29637C4.09052 9.8906 4.62033 10.5037 5.00186 10.5037C5.61803 10.5037 5.99393 8.92116 6.32628 7.41427C6.57115 6.30406 6.83581 5.18537 7.35837 4.19163C8.26746 2.46285 9.64121 2.06055 10.828 2.06055C13.4303 2.06055 14.7327 5.07559 14.7327 5.85679C14.7327 7.1622 13.668 7.49519 13.2065 7.49519C12.1972 7.49519 11.855 6.81888 11.567 6.22607C11.308 5.69279 11.0374 5.24939 10.6876 5.24939C10.5727 5.24939 10.4662 5.30758 10.3677 5.40775C9.49828 6.29137 9.20677 10.9142 7.46844 12.681C6.50473 13.6605 5.45619 13.6605 4.80039 13.6605Z" fill="url(#paint6_radial_237_7068)"/>
<path d="M4.80039 13.6605C1.83776 13.6605 0.829389 9.91367 0.603447 9.18479C0.0360435 7.35446 -0.136443 5.70572 -0.154704 5.53271C-0.260068 4.53432 0.540664 3.83954 1.41949 3.83954C2.08488 3.83954 2.85716 4.23787 2.95949 5.20432C2.97722 5.36685 3.11251 6.76881 3.59108 8.29637C4.09052 9.8906 4.62033 10.5037 5.00186 10.5037C5.61803 10.5037 5.99393 8.92116 6.32628 7.41427C6.57115 6.30406 6.83581 5.18537 7.35837 4.19163C8.26746 2.46285 9.64121 2.06055 10.828 2.06055C13.4303 2.06055 14.7327 5.07559 14.7327 5.85679C14.7327 7.1622 13.668 7.49519 13.2065 7.49519C12.1972 7.49519 11.855 6.81888 11.567 6.22607C11.308 5.69279 11.0374 5.24939 10.6876 5.24939C10.5727 5.24939 10.4662 5.30758 10.3677 5.40775C9.49828 6.29137 9.20677 10.9142 7.46844 12.681C6.50473 13.6605 5.45619 13.6605 4.80039 13.6605Z" fill="url(#paint7_linear_237_7068)"/>
<path d="M4.80039 13.6605C1.83776 13.6605 0.829389 9.91367 0.603447 9.18479C0.0360435 7.35446 -0.136443 5.70572 -0.154704 5.53271C-0.260068 4.53432 0.540664 3.83954 1.41949 3.83954C2.08488 3.83954 2.85716 4.23787 2.95949 5.20432C2.97722 5.36685 3.11251 6.76881 3.59108 8.29637C4.09052 9.8906 4.62033 10.5037 5.00186 10.5037C5.61803 10.5037 5.99393 8.92116 6.32628 7.41427C6.57115 6.30406 6.83581 5.18537 7.35837 4.19163C8.26746 2.46285 9.64121 2.06055 10.828 2.06055C13.4303 2.06055 14.7327 5.07559 14.7327 5.85679C14.7327 7.1622 13.668 7.49519 13.2065 7.49519C12.1972 7.49519 11.855 6.81888 11.567 6.22607C11.308 5.69279 11.0374 5.24939 10.6876 5.24939C10.5727 5.24939 10.4662 5.30758 10.3677 5.40775C9.49828 6.29137 9.20677 10.9142 7.46844 12.681C6.50473 13.6605 5.45619 13.6605 4.80039 13.6605Z" fill="url(#paint8_radial_237_7068)"/>
<path d="M10.8282 2.06055C9.64141 2.06055 8.26766 2.46285 7.35852 4.19163C6.83597 5.18537 6.57131 6.30406 6.32649 7.41427C6.24586 7.77959 6.16268 8.14932 6.07422 8.49995V13.5229C6.5233 13.3959 7.00574 13.1514 7.46864 12.681C9.20693 10.9142 9.49848 6.29137 10.3679 5.40775C10.4663 5.30758 10.5729 5.24939 10.6878 5.24939C11.0376 5.24939 11.3082 5.69279 11.5672 6.22607C11.8552 6.81888 12.1973 7.49519 13.2067 7.49519C13.6682 7.49519 14.7329 7.1622 14.7329 5.85679C14.7329 5.07559 13.4305 2.06055 10.8282 2.06055Z" fill="url(#paint9_radial_237_7068)"/>
<path d="M4.80039 13.6605C1.83776 13.6605 0.829389 9.91367 0.603447 9.18479C0.0360435 7.35446 -0.136443 5.70572 -0.154704 5.53271C-0.260068 4.53432 0.540664 3.83954 1.41949 3.83954C2.08488 3.83954 2.85716 4.23787 2.95949 5.20432C2.97722 5.36685 3.11251 6.76881 3.59108 8.29637C4.09052 9.8906 4.62033 10.5037 5.00186 10.5037C5.61803 10.5037 5.99393 8.92116 6.32628 7.41427C6.57115 6.30406 6.83581 5.18537 7.35837 4.19163C8.26746 2.46285 9.64121 2.06055 10.828 2.06055C13.4303 2.06055 14.7327 5.07559 14.7327 5.85679C14.7327 7.1622 13.668 7.49519 13.2065 7.49519C12.1972 7.49519 11.855 6.81888 11.567 6.22607C11.308 5.69279 11.0374 5.24939 10.6876 5.24939C10.5727 5.24939 10.4662 5.30758 10.3677 5.40775C9.49828 6.29137 9.20677 10.9142 7.46844 12.681C6.50473 13.6605 5.45619 13.6605 4.80039 13.6605Z" fill="url(#paint10_radial_237_7068)"/>
<path d="M4.80039 13.6605C1.83776 13.6605 0.829389 9.91367 0.603447 9.18479C0.0360435 7.35446 -0.136443 5.70572 -0.154704 5.53271C-0.260068 4.53432 0.540664 3.83954 1.41949 3.83954C2.08488 3.83954 2.85716 4.23787 2.95949 5.20432C2.97722 5.36685 3.11251 6.76881 3.59108 8.29637C4.09052 9.8906 4.62033 10.5037 5.00186 10.5037C5.61803 10.5037 5.99393 8.92116 6.32628 7.41427C6.57115 6.30406 6.83581 5.18537 7.35837 4.19163C8.26746 2.46285 9.64121 2.06055 10.828 2.06055C13.4303 2.06055 14.7327 5.07559 14.7327 5.85679C14.7327 7.1622 13.668 7.49519 13.2065 7.49519C12.1972 7.49519 11.855 6.81888 11.567 6.22607C11.308 5.69279 11.0374 5.24939 10.6876 5.24939C10.5727 5.24939 10.4662 5.30758 10.3677 5.40775C9.49828 6.29137 9.20677 10.9142 7.46844 12.681C6.50473 13.6605 5.45619 13.6605 4.80039 13.6605Z" fill="url(#paint11_radial_237_7068)"/>
<path d="M4.80039 13.6605C1.83776 13.6605 0.829389 9.91367 0.603447 9.18479C0.0360435 7.35446 -0.136443 5.70572 -0.154704 5.53271C-0.260068 4.53432 0.540664 3.83954 1.41949 3.83954C2.08488 3.83954 2.85716 4.23787 2.95949 5.20432C2.97722 5.36685 3.11251 6.76881 3.59108 8.29637C4.09052 9.8906 4.62033 10.5037 5.00186 10.5037C5.61803 10.5037 5.99393 8.92116 6.32628 7.41427C6.57115 6.30406 6.83581 5.18537 7.35837 4.19163C8.26746 2.46285 9.64121 2.06055 10.828 2.06055C13.4303 2.06055 14.7327 5.07559 14.7327 5.85679C14.7327 7.1622 13.668 7.49519 13.2065 7.49519C12.1972 7.49519 11.855 6.81888 11.567 6.22607C11.308 5.69279 11.0374 5.24939 10.6876 5.24939C10.5727 5.24939 10.4662 5.30758 10.3677 5.40775C9.49828 6.29137 9.20677 10.9142 7.46844 12.681C6.50473 13.6605 5.45619 13.6605 4.80039 13.6605Z" fill="url(#paint12_radial_237_7068)"/>
<path d="M4.80039 13.6605C1.83776 13.6605 0.829389 9.91367 0.603447 9.18479C0.0360435 7.35446 -0.136443 5.70572 -0.154704 5.53271C-0.260068 4.53432 0.540664 3.83954 1.41949 3.83954C2.08488 3.83954 2.85716 4.23787 2.95949 5.20432C2.97722 5.36685 3.11251 6.76881 3.59108 8.29637C4.09052 9.8906 4.62033 10.5037 5.00186 10.5037C5.61803 10.5037 5.99393 8.92116 6.32628 7.41427C6.57115 6.30406 6.83581 5.18537 7.35837 4.19163C8.26746 2.46285 9.64121 2.06055 10.828 2.06055C13.4303 2.06055 14.7327 5.07559 14.7327 5.85679C14.7327 7.1622 13.668 7.49519 13.2065 7.49519C12.1972 7.49519 11.855 6.81888 11.567 6.22607C11.308 5.69279 11.0374 5.24939 10.6876 5.24939C10.5727 5.24939 10.4662 5.30758 10.3677 5.40775C9.49828 6.29137 9.20677 10.9142 7.46844 12.681C6.50473 13.6605 5.45619 13.6605 4.80039 13.6605Z" fill="url(#paint13_radial_237_7068)"/>
<path d="M4.80039 13.6605C1.83776 13.6605 0.829389 9.91367 0.603447 9.18479C0.0360435 7.35446 -0.136443 5.70572 -0.154704 5.53271C-0.260068 4.53432 0.540664 3.83954 1.41949 3.83954C2.08488 3.83954 2.85716 4.23787 2.95949 5.20432C2.97722 5.36685 3.11251 6.76881 3.59108 8.29637C4.09052 9.8906 4.62033 10.5037 5.00186 10.5037C5.61803 10.5037 5.99393 8.92116 6.32628 7.41427C6.57115 6.30406 6.83581 5.18537 7.35837 4.19163C8.26746 2.46285 9.64121 2.06055 10.828 2.06055C13.4303 2.06055 14.7327 5.07559 14.7327 5.85679C14.7327 7.1622 13.668 7.49519 13.2065 7.49519C12.1972 7.49519 11.855 6.81888 11.567 6.22607C11.308 5.69279 11.0374 5.24939 10.6876 5.24939C10.5727 5.24939 10.4662 5.30758 10.3677 5.40775C9.49828 6.29137 9.20677 10.9142 7.46844 12.681C6.50473 13.6605 5.45619 13.6605 4.80039 13.6605Z" fill="url(#paint14_radial_237_7068)"/>
<path d="M14.2525 3.83954C14.1352 3.83954 14.0172 3.85061 13.9015 3.87344C14.4516 4.66663 14.7268 5.49764 14.7268 5.85669C14.7268 7.16216 13.6621 7.4951 13.2006 7.4951C12.8405 7.4951 12.5653 7.40898 12.3472 7.27129C12.3452 7.27947 12.3432 7.28755 12.3412 7.29573C12.2763 7.55481 12.2251 7.83838 12.1365 8.11435C11.9661 8.64489 11.7363 9.25097 11.4909 9.71994C11.2264 10.2255 10.9645 10.5214 10.6524 10.5058C10.2973 10.4882 10.0095 10.0306 9.65176 8.73733C9.5364 8.32038 9.42957 7.86316 9.33057 7.41427C9.08502 6.30078 8.78357 5.18106 8.26821 4.19163C7.42638 2.57561 5.99042 2.06055 4.84401 2.06055C3.78081 2.06055 2.98649 2.5639 2.36249 3.19815C2.19007 3.37341 2.00168 3.60956 1.8125 3.88705C2.35676 4.01813 2.87138 4.42783 2.95353 5.20423C2.96974 5.35225 3.08333 6.52801 3.46492 7.89054C3.5744 7.54893 3.73403 7.04303 4.10489 6.22608C4.28667 5.85199 4.45072 5.60526 4.5987 5.45488C4.73443 5.31689 4.85664 5.25992 4.96671 5.25992C5.0854 5.25992 5.49064 5.36857 5.88516 6.75304C6.37445 8.46983 6.7386 11.202 8.12592 12.6527C8.73777 13.2926 9.59406 13.7066 10.7808 13.7066C11.8221 13.7066 12.6903 13.248 13.3093 12.6101C14.327 11.561 14.8847 9.82658 15.0836 9.18479C15.6497 7.35883 15.8083 5.70744 15.8267 5.53271C15.932 4.53432 15.091 3.83954 14.2525 3.83954Z" fill="#316AFF"/>
<path d="M14.2525 3.83954C14.1352 3.83954 14.0172 3.85061 13.9015 3.87344C14.4516 4.66663 14.7268 5.49764 14.7268 5.85669C14.7268 7.16216 13.6621 7.4951 13.2006 7.4951C12.8405 7.4951 12.5653 7.40898 12.3472 7.27129C12.3452 7.27947 12.3432 7.28755 12.3412 7.29573C12.2763 7.55481 12.2251 7.83838 12.1365 8.11435C11.9661 8.64489 11.7363 9.25097 11.4909 9.71994C11.2264 10.2255 10.9645 10.5214 10.6524 10.5058C10.2973 10.4882 10.0095 10.0306 9.65176 8.73733C9.5364 8.32038 9.42957 7.86316 9.33057 7.41427C9.08502 6.30078 8.78357 5.18106 8.26821 4.19163C7.42638 2.57561 5.99042 2.06055 4.84401 2.06055C3.78081 2.06055 2.98649 2.5639 2.36249 3.19815C2.19007 3.37341 2.00168 3.60956 1.8125 3.88705C2.35676 4.01813 2.87138 4.42783 2.95353 5.20423C2.96974 5.35225 3.08333 6.52801 3.46492 7.89054C3.5744 7.54893 3.73403 7.04303 4.10489 6.22608C4.28667 5.85199 4.45072 5.60526 4.5987 5.45488C4.73443 5.31689 4.85664 5.25992 4.96671 5.25992C5.0854 5.25992 5.49064 5.36857 5.88516 6.75304C6.37445 8.46983 6.7386 11.202 8.12592 12.6527C8.73777 13.2926 9.59406 13.7066 10.7808 13.7066C11.8221 13.7066 12.6903 13.248 13.3093 12.6101C14.327 11.561 14.8847 9.82658 15.0836 9.18479C15.6497 7.35883 15.8083 5.70744 15.8267 5.53271C15.932 4.53432 15.091 3.83954 14.2525 3.83954Z" fill="url(#paint15_radial_237_7068)"/>
<path d="M14.2525 3.83954C14.1352 3.83954 14.0172 3.85061 13.9015 3.87344C14.4516 4.66663 14.7268 5.49764 14.7268 5.85669C14.7268 7.16216 13.6621 7.4951 13.2006 7.4951C12.8405 7.4951 12.5653 7.40898 12.3472 7.27129C12.3452 7.27947 12.3432 7.28755 12.3412 7.29573C12.2763 7.55481 12.2251 7.83838 12.1365 8.11435C11.9661 8.64489 11.7363 9.25097 11.4909 9.71994C11.2264 10.2255 10.9645 10.5214 10.6524 10.5058C10.2973 10.4882 10.0095 10.0306 9.65176 8.73733C9.5364 8.32038 9.42957 7.86316 9.33057 7.41427C9.08502 6.30078 8.78357 5.18106 8.26821 4.19163C7.42638 2.57561 5.99042 2.06055 4.84401 2.06055C3.78081 2.06055 2.98649 2.5639 2.36249 3.19815C2.19007 3.37341 2.00168 3.60956 1.8125 3.88705C2.35676 4.01813 2.87138 4.42783 2.95353 5.20423C2.96974 5.35225 3.08333 6.52801 3.46492 7.89054C3.5744 7.54893 3.73403 7.04303 4.10489 6.22608C4.28667 5.85199 4.45072 5.60526 4.5987 5.45488C4.73443 5.31689 4.85664 5.25992 4.96671 5.25992C5.0854 5.25992 5.49064 5.36857 5.88516 6.75304C6.37445 8.46983 6.7386 11.202 8.12592 12.6527C8.73777 13.2926 9.59406 13.7066 10.7808 13.7066C11.8221 13.7066 12.6903 13.248 13.3093 12.6101C14.327 11.561 14.8847 9.82658 15.0836 9.18479C15.6497 7.35883 15.8083 5.70744 15.8267 5.53271C15.932 4.53432 15.091 3.83954 14.2525 3.83954Z" fill="url(#paint16_radial_237_7068)"/>
<path d="M14.2525 3.83954C14.1352 3.83954 14.0172 3.85061 13.9015 3.87344C14.4516 4.66663 14.7268 5.49764 14.7268 5.85669C14.7268 7.16216 13.6621 7.4951 13.2006 7.4951C12.8405 7.4951 12.5653 7.40898 12.3472 7.27129C12.3452 7.27947 12.3432 7.28755 12.3412 7.29573C12.2763 7.55481 12.2251 7.83838 12.1365 8.11435C11.9661 8.64489 11.7363 9.25097 11.4909 9.71994C11.2264 10.2255 10.9645 10.5214 10.6524 10.5058C10.2973 10.4882 10.0095 10.0306 9.65176 8.73733C9.5364 8.32038 9.42957 7.86316 9.33057 7.41427C9.08502 6.30078 8.78357 5.18106 8.26821 4.19163C7.42638 2.57561 5.99042 2.06055 4.84401 2.06055C3.78081 2.06055 2.98649 2.5639 2.36249 3.19815C2.19007 3.37341 2.00168 3.60956 1.8125 3.88705C2.35676 4.01813 2.87138 4.42783 2.95353 5.20423C2.96974 5.35225 3.08333 6.52801 3.46492 7.89054C3.5744 7.54893 3.73403 7.04303 4.10489 6.22608C4.28667 5.85199 4.45072 5.60526 4.5987 5.45488C4.73443 5.31689 4.85664 5.25992 4.96671 5.25992C5.0854 5.25992 5.49064 5.36857 5.88516 6.75304C6.37445 8.46983 6.7386 11.202 8.12592 12.6527C8.73777 13.2926 9.59406 13.7066 10.7808 13.7066C11.8221 13.7066 12.6903 13.248 13.3093 12.6101C14.327 11.561 14.8847 9.82658 15.0836 9.18479C15.6497 7.35883 15.8083 5.70744 15.8267 5.53271C15.932 4.53432 15.091 3.83954 14.2525 3.83954Z" fill="url(#paint17_radial_237_7068)"/>
<path d="M14.2525 3.83954C14.1352 3.83954 14.0172 3.85061 13.9015 3.87344C14.4516 4.66663 14.7268 5.49764 14.7268 5.85669C14.7268 7.16216 13.6621 7.4951 13.2006 7.4951C12.8405 7.4951 12.5653 7.40898 12.3472 7.27129C12.3452 7.27947 12.3432 7.28755 12.3412 7.29573C12.2763 7.55481 12.2251 7.83838 12.1365 8.11435C11.9661 8.64489 11.7363 9.25097 11.4909 9.71994C11.2264 10.2255 10.9645 10.5214 10.6524 10.5058C10.2973 10.4882 10.0095 10.0306 9.65176 8.73733C9.5364 8.32038 9.42957 7.86316 9.33057 7.41427C9.08502 6.30078 8.78357 5.18106 8.26821 4.19163C7.42638 2.57561 5.99042 2.06055 4.84401 2.06055C3.78081 2.06055 2.98649 2.5639 2.36249 3.19815C2.19007 3.37341 2.00168 3.60956 1.8125 3.88705C2.35676 4.01813 2.87138 4.42783 2.95353 5.20423C2.96974 5.35225 3.08333 6.52801 3.46492 7.89054C3.5744 7.54893 3.73403 7.04303 4.10489 6.22608C4.28667 5.85199 4.45072 5.60526 4.5987 5.45488C4.73443 5.31689 4.85664 5.25992 4.96671 5.25992C5.0854 5.25992 5.49064 5.36857 5.88516 6.75304C6.37445 8.46983 6.7386 11.202 8.12592 12.6527C8.73777 13.2926 9.59406 13.7066 10.7808 13.7066C11.8221 13.7066 12.6903 13.248 13.3093 12.6101C14.327 11.561 14.8847 9.82658 15.0836 9.18479C15.6497 7.35883 15.8083 5.70744 15.8267 5.53271C15.932 4.53432 15.091 3.83954 14.2525 3.83954Z" fill="url(#paint18_radial_237_7068)"/>
<path d="M14.2525 3.83954C14.1352 3.83954 14.0172 3.85061 13.9015 3.87344C14.4516 4.66663 14.7268 5.49764 14.7268 5.85669C14.7268 7.16216 13.6621 7.4951 13.2006 7.4951C12.8405 7.4951 12.5653 7.40898 12.3472 7.27129C12.3452 7.27947 12.3432 7.28755 12.3412 7.29573C12.2763 7.55481 12.2251 7.83838 12.1365 8.11435C11.9661 8.64489 11.7363 9.25097 11.4909 9.71994C11.2264 10.2255 10.9645 10.5214 10.6524 10.5058C10.2973 10.4882 10.0095 10.0306 9.65176 8.73733C9.5364 8.32038 9.42957 7.86316 9.33057 7.41427C9.08502 6.30078 8.78357 5.18106 8.26821 4.19163C7.42638 2.57561 5.99042 2.06055 4.84401 2.06055C3.78081 2.06055 2.98649 2.5639 2.36249 3.19815C2.19007 3.37341 2.00168 3.60956 1.8125 3.88705C2.35676 4.01813 2.87138 4.42783 2.95353 5.20423C2.96974 5.35225 3.08333 6.52801 3.46492 7.89054C3.5744 7.54893 3.73403 7.04303 4.10489 6.22608C4.28667 5.85199 4.45072 5.60526 4.5987 5.45488C4.73443 5.31689 4.85664 5.25992 4.96671 5.25992C5.0854 5.25992 5.49064 5.36857 5.88516 6.75304C6.37445 8.46983 6.7386 11.202 8.12592 12.6527C8.73777 13.2926 9.59406 13.7066 10.7808 13.7066C11.8221 13.7066 12.6903 13.248 13.3093 12.6101C14.327 11.561 14.8847 9.82658 15.0836 9.18479C15.6497 7.35883 15.8083 5.70744 15.8267 5.53271C15.932 4.53432 15.091 3.83954 14.2525 3.83954Z" fill="url(#paint19_radial_237_7068)"/>
<path d="M14.2525 3.83954C14.1352 3.83954 14.0172 3.85061 13.9015 3.87344C14.4516 4.66663 14.7268 5.49764 14.7268 5.85669C14.7268 7.16216 13.6621 7.4951 13.2006 7.4951C12.8405 7.4951 12.5653 7.40898 12.3472 7.27129C12.3452 7.27947 12.3432 7.28755 12.3412 7.29573C12.2763 7.55481 12.2251 7.83838 12.1365 8.11435C11.9661 8.64489 11.7363 9.25097 11.4909 9.71994C11.2264 10.2255 10.9645 10.5214 10.6524 10.5058C10.2973 10.4882 10.0095 10.0306 9.65176 8.73733C9.5364 8.32038 9.42957 7.86316 9.33057 7.41427C9.08502 6.30078 8.78357 5.18106 8.26821 4.19163C7.42638 2.57561 5.99042 2.06055 4.84401 2.06055C3.78081 2.06055 2.98649 2.5639 2.36249 3.19815C2.19007 3.37341 2.00168 3.60956 1.8125 3.88705C2.35676 4.01813 2.87138 4.42783 2.95353 5.20423C2.96974 5.35225 3.08333 6.52801 3.46492 7.89054C3.5744 7.54893 3.73403 7.04303 4.10489 6.22608C4.28667 5.85199 4.45072 5.60526 4.5987 5.45488C4.73443 5.31689 4.85664 5.25992 4.96671 5.25992C5.0854 5.25992 5.49064 5.36857 5.88516 6.75304C6.37445 8.46983 6.7386 11.202 8.12592 12.6527C8.73777 13.2926 9.59406 13.7066 10.7808 13.7066C11.8221 13.7066 12.6903 13.248 13.3093 12.6101C14.327 11.561 14.8847 9.82658 15.0836 9.18479C15.6497 7.35883 15.8083 5.70744 15.8267 5.53271C15.932 4.53432 15.091 3.83954 14.2525 3.83954Z" fill="url(#paint20_radial_237_7068)"/>
<path d="M14.2525 3.83954C14.1352 3.83954 14.0172 3.85061 13.9015 3.87344C14.4516 4.66663 14.7268 5.49764 14.7268 5.85669C14.7268 7.16216 13.6621 7.4951 13.2006 7.4951C12.8405 7.4951 12.5653 7.40898 12.3472 7.27129C12.3452 7.27947 12.3432 7.28755 12.3412 7.29573C12.2763 7.55481 12.2251 7.83838 12.1365 8.11435C11.9661 8.64489 11.7363 9.25097 11.4909 9.71994C11.2264 10.2255 10.9645 10.5214 10.6524 10.5058C10.2973 10.4882 10.0095 10.0306 9.65176 8.73733C9.5364 8.32038 9.42957 7.86316 9.33057 7.41427C9.08502 6.30078 8.78357 5.18106 8.26821 4.19163C7.42638 2.57561 5.99042 2.06055 4.84401 2.06055C3.78081 2.06055 2.98649 2.5639 2.36249 3.19815C2.19007 3.37341 2.00168 3.60956 1.8125 3.88705C2.35676 4.01813 2.87138 4.42783 2.95353 5.20423C2.96974 5.35225 3.08333 6.52801 3.46492 7.89054C3.5744 7.54893 3.73403 7.04303 4.10489 6.22608C4.28667 5.85199 4.45072 5.60526 4.5987 5.45488C4.73443 5.31689 4.85664 5.25992 4.96671 5.25992C5.0854 5.25992 5.49064 5.36857 5.88516 6.75304C6.37445 8.46983 6.7386 11.202 8.12592 12.6527C8.73777 13.2926 9.59406 13.7066 10.7808 13.7066C11.8221 13.7066 12.6903 13.248 13.3093 12.6101C14.327 11.561 14.8847 9.82658 15.0836 9.18479C15.6497 7.35883 15.8083 5.70744 15.8267 5.53271C15.932 4.53432 15.091 3.83954 14.2525 3.83954Z" fill="url(#paint21_radial_237_7068)"/>
<path d="M14.2525 3.83954C14.1352 3.83954 14.0172 3.85061 13.9015 3.87344C14.4516 4.66663 14.7268 5.49764 14.7268 5.85669C14.7268 7.16216 13.6621 7.4951 13.2006 7.4951C12.8405 7.4951 12.5653 7.40898 12.3472 7.27129C12.3452 7.27947 12.3432 7.28755 12.3412 7.29573C12.2763 7.55481 12.2251 7.83838 12.1365 8.11435C11.9661 8.64489 11.7363 9.25097 11.4909 9.71994C11.2264 10.2255 10.9645 10.5214 10.6524 10.5058C10.2973 10.4882 10.0095 10.0306 9.65176 8.73733C9.5364 8.32038 9.42957 7.86316 9.33057 7.41427C9.08502 6.30078 8.78357 5.18106 8.26821 4.19163C7.42638 2.57561 5.99042 2.06055 4.84401 2.06055C3.78081 2.06055 2.98649 2.5639 2.36249 3.19815C2.19007 3.37341 2.00168 3.60956 1.8125 3.88705C2.35676 4.01813 2.87138 4.42783 2.95353 5.20423C2.96974 5.35225 3.08333 6.52801 3.46492 7.89054C3.5744 7.54893 3.73403 7.04303 4.10489 6.22608C4.28667 5.85199 4.45072 5.60526 4.5987 5.45488C4.73443 5.31689 4.85664 5.25992 4.96671 5.25992C5.0854 5.25992 5.49064 5.36857 5.88516 6.75304C6.37445 8.46983 6.7386 11.202 8.12592 12.6527C8.73777 13.2926 9.59406 13.7066 10.7808 13.7066C11.8221 13.7066 12.6903 13.248 13.3093 12.6101C14.327 11.561 14.8847 9.82658 15.0836 9.18479C15.6497 7.35883 15.8083 5.70744 15.8267 5.53271C15.932 4.53432 15.091 3.83954 14.2525 3.83954Z" fill="url(#paint22_radial_237_7068)"/>
<path d="M14.2525 3.83954C14.1352 3.83954 14.0172 3.85061 13.9015 3.87344C14.4516 4.66663 14.7268 5.49764 14.7268 5.85669C14.7268 7.16216 13.6621 7.4951 13.2006 7.4951C12.8405 7.4951 12.5653 7.40898 12.3472 7.27129C12.3452 7.27947 12.3432 7.28755 12.3412 7.29573C12.2763 7.55481 12.2251 7.83838 12.1365 8.11435C11.9661 8.64489 11.7363 9.25097 11.4909 9.71994C11.2264 10.2255 10.9645 10.5214 10.6524 10.5058C10.2973 10.4882 10.0095 10.0306 9.65176 8.73733C9.5364 8.32038 9.42957 7.86316 9.33057 7.41427C9.08502 6.30078 8.78357 5.18106 8.26821 4.19163C7.42638 2.57561 5.99042 2.06055 4.84401 2.06055C3.78081 2.06055 2.98649 2.5639 2.36249 3.19815C2.19007 3.37341 2.00168 3.60956 1.8125 3.88705C2.35676 4.01813 2.87138 4.42783 2.95353 5.20423C2.96974 5.35225 3.08333 6.52801 3.46492 7.89054C3.5744 7.54893 3.73403 7.04303 4.10489 6.22608C4.28667 5.85199 4.45072 5.60526 4.5987 5.45488C4.73443 5.31689 4.85664 5.25992 4.96671 5.25992C5.0854 5.25992 5.49064 5.36857 5.88516 6.75304C6.37445 8.46983 6.7386 11.202 8.12592 12.6527C8.73777 13.2926 9.59406 13.7066 10.7808 13.7066C11.8221 13.7066 12.6903 13.248 13.3093 12.6101C14.327 11.561 14.8847 9.82658 15.0836 9.18479C15.6497 7.35883 15.8083 5.70744 15.8267 5.53271C15.932 4.53432 15.091 3.83954 14.2525 3.83954Z" fill="url(#paint23_radial_237_7068)"/>
<path d="M14.2525 3.83954C14.1352 3.83954 14.0172 3.85061 13.9015 3.87344C14.4516 4.66663 14.7268 5.49764 14.7268 5.85669C14.7268 7.16216 13.6621 7.4951 13.2006 7.4951C12.8405 7.4951 12.5653 7.40898 12.3472 7.27129C12.3452 7.27947 12.3432 7.28755 12.3412 7.29573C12.2763 7.55481 12.2251 7.83838 12.1365 8.11435C11.9661 8.64489 11.7363 9.25097 11.4909 9.71994C11.2264 10.2255 10.9645 10.5214 10.6524 10.5058C10.2973 10.4882 10.0095 10.0306 9.65176 8.73733C9.5364 8.32038 9.42957 7.86316 9.33057 7.41427C9.08502 6.30078 8.78357 5.18106 8.26821 4.19163C7.42638 2.57561 5.99042 2.06055 4.84401 2.06055C3.78081 2.06055 2.98649 2.5639 2.36249 3.19815C2.19007 3.37341 2.00168 3.60956 1.8125 3.88705C2.35676 4.01813 2.87138 4.42783 2.95353 5.20423C2.96974 5.35225 3.08333 6.52801 3.46492 7.89054C3.5744 7.54893 3.73403 7.04303 4.10489 6.22608C4.28667 5.85199 4.45072 5.60526 4.5987 5.45488C4.73443 5.31689 4.85664 5.25992 4.96671 5.25992C5.0854 5.25992 5.49064 5.36857 5.88516 6.75304C6.37445 8.46983 6.7386 11.202 8.12592 12.6527C8.73777 13.2926 9.59406 13.7066 10.7808 13.7066C11.8221 13.7066 12.6903 13.248 13.3093 12.6101C14.327 11.561 14.8847 9.82658 15.0836 9.18479C15.6497 7.35883 15.8083 5.70744 15.8267 5.53271C15.932 4.53432 15.091 3.83954 14.2525 3.83954Z" fill="url(#paint24_radial_237_7068)"/>
<path d="M4.80039 13.6605C1.83776 13.6605 0.829389 9.91367 0.603447 9.18479C0.0360435 7.35446 -0.136443 5.70572 -0.154704 5.53271C-0.260068 4.53432 0.540664 3.83954 1.41949 3.83954C2.08488 3.83954 2.85716 4.23787 2.95949 5.20432C2.97727 5.36685 3.11251 6.76881 3.59108 8.29637C4.09052 9.8906 4.62033 10.5037 5.00186 10.5037C5.61803 10.5037 5.99393 8.92116 6.32628 7.41427C6.57115 6.30406 6.83581 5.18537 7.35837 4.19163C8.26746 2.46285 9.64121 2.06055 10.828 2.06055C13.4303 2.06055 14.7327 5.07559 14.7327 5.85679C14.7327 7.1622 13.668 7.49519 13.2065 7.49519C12.1972 7.49519 11.855 6.81888 11.567 6.22607C11.308 5.69279 11.0374 5.24939 10.6876 5.24939C10.5727 5.24939 10.4662 5.30758 10.3677 5.40775C9.49828 6.29137 9.20677 10.9142 7.46844 12.681C6.50473 13.6605 5.45619 13.6605 4.80039 13.6605Z" fill="url(#paint25_linear_237_7068)"/>
<path d="M4.80039 13.6605C1.83776 13.6605 0.829389 9.91367 0.603447 9.18479C0.0360435 7.35446 -0.136443 5.70572 -0.154704 5.53271C-0.260068 4.53432 0.540664 3.83954 1.41949 3.83954C2.08488 3.83954 2.85716 4.23787 2.95949 5.20432C2.97727 5.36685 3.11251 6.76881 3.59108 8.29637C4.09052 9.8906 4.62033 10.5037 5.00186 10.5037C5.61803 10.5037 5.99393 8.92116 6.32628 7.41427C6.57115 6.30406 6.83581 5.18537 7.35837 4.19163C8.26746 2.46285 9.64121 2.06055 10.828 2.06055C13.4303 2.06055 14.7327 5.07559 14.7327 5.85679C14.7327 7.1622 13.668 7.49519 13.2065 7.49519C12.1972 7.49519 11.855 6.81888 11.567 6.22607C11.308 5.69279 11.0374 5.24939 10.6876 5.24939C10.5727 5.24939 10.4662 5.30758 10.3677 5.40775C9.49828 6.29137 9.20677 10.9142 7.46844 12.681C6.50473 13.6605 5.45619 13.6605 4.80039 13.6605Z" fill="url(#paint26_radial_237_7068)"/>
<path d="M4.80039 13.6605C1.83776 13.6605 0.829389 9.91367 0.603447 9.18479C0.0360435 7.35446 -0.136443 5.70572 -0.154704 5.53271C-0.260068 4.53432 0.540664 3.83954 1.41949 3.83954C2.08488 3.83954 2.85716 4.23787 2.95949 5.20432C2.97727 5.36685 3.11251 6.76881 3.59108 8.29637C4.09052 9.8906 4.62033 10.5037 5.00186 10.5037C5.61803 10.5037 5.99393 8.92116 6.32628 7.41427C6.57115 6.30406 6.83581 5.18537 7.35837 4.19163C8.26746 2.46285 9.64121 2.06055 10.828 2.06055C13.4303 2.06055 14.7327 5.07559 14.7327 5.85679C14.7327 7.1622 13.668 7.49519 13.2065 7.49519C12.1972 7.49519 11.855 6.81888 11.567 6.22607C11.308 5.69279 11.0374 5.24939 10.6876 5.24939C10.5727 5.24939 10.4662 5.30758 10.3677 5.40775C9.49828 6.29137 9.20677 10.9142 7.46844 12.681C6.50473 13.6605 5.45619 13.6605 4.80039 13.6605Z" fill="url(#paint27_linear_237_7068)"/>
<path d="M4.80039 13.6605C1.83776 13.6605 0.829389 9.91367 0.603447 9.18479C0.0360435 7.35446 -0.136443 5.70572 -0.154704 5.53271C-0.260068 4.53432 0.540664 3.83954 1.41949 3.83954C2.08488 3.83954 2.85716 4.23787 2.95949 5.20432C2.97727 5.36685 3.11251 6.76881 3.59108 8.29637C4.09052 9.8906 4.62033 10.5037 5.00186 10.5037C5.61803 10.5037 5.99393 8.92116 6.32628 7.41427C6.57115 6.30406 6.83581 5.18537 7.35837 4.19163C8.26746 2.46285 9.64121 2.06055 10.828 2.06055C13.4303 2.06055 14.7327 5.07559 14.7327 5.85679C14.7327 7.1622 13.668 7.49519 13.2065 7.49519C12.1972 7.49519 11.855 6.81888 11.567 6.22607C11.308 5.69279 11.0374 5.24939 10.6876 5.24939C10.5727 5.24939 10.4662 5.30758 10.3677 5.40775C9.49828 6.29137 9.20677 10.9142 7.46844 12.681C6.50473 13.6605 5.45619 13.6605 4.80039 13.6605Z" fill="url(#paint28_linear_237_7068)"/>
<path d="M4.80039 13.6605C1.83776 13.6605 0.829389 9.91367 0.603447 9.18479C0.0360435 7.35446 -0.136443 5.70572 -0.154704 5.53271C-0.260068 4.53432 0.540664 3.83954 1.41949 3.83954C2.08488 3.83954 2.85716 4.23787 2.95949 5.20432C2.97727 5.36685 3.11251 6.76881 3.59108 8.29637C4.09052 9.8906 4.62033 10.5037 5.00186 10.5037C5.61803 10.5037 5.99393 8.92116 6.32628 7.41427C6.57115 6.30406 6.83581 5.18537 7.35837 4.19163C8.26746 2.46285 9.64121 2.06055 10.828 2.06055C13.4303 2.06055 14.7327 5.07559 14.7327 5.85679C14.7327 7.1622 13.668 7.49519 13.2065 7.49519C12.1972 7.49519 11.855 6.81888 11.567 6.22607C11.308 5.69279 11.0374 5.24939 10.6876 5.24939C10.5727 5.24939 10.4662 5.30758 10.3677 5.40775C9.49828 6.29137 9.20677 10.9142 7.46844 12.681C6.50473 13.6605 5.45619 13.6605 4.80039 13.6605Z" fill="url(#paint29_radial_237_7068)"/>
</g>
</g>
<defs>
<linearGradient id="paint0_linear_237_7068" x1="13.1117" y1="5.46399" x2="2.64579" y2="8.89628" gradientUnits="userSpaceOnUse">
<stop stop-color="#5CEE64"/>
<stop offset="1" stop-color="#00BBFF"/>
</linearGradient>
<radialGradient id="paint1_radial_237_7068" cx="0" cy="0" r="1" gradientUnits="userSpaceOnUse" gradientTransform="translate(5.92594 8.24655) rotate(-120.86) scale(6.85625 5.75574)">
<stop stop-color="#007383"/>
<stop offset="0.407867" stop-color="#00717E" stop-opacity="0.75"/>
<stop offset="0.874482" stop-color="#007281" stop-opacity="0"/>
</radialGradient>
<radialGradient id="paint2_radial_237_7068" cx="0" cy="0" r="1" gradientUnits="userSpaceOnUse" gradientTransform="translate(10.4307 6.97082) rotate(-126.734) scale(5.59154 3.67393)">
<stop stop-color="#218970"/>
<stop offset="0.459527" stop-color="#267E6A"/>
<stop offset="1" stop-color="#026C51" stop-opacity="0"/>
</radialGradient>
<radialGradient id="paint3_radial_237_7068" cx="0" cy="0" r="1" gradientUnits="userSpaceOnUse" gradientTransform="translate(5.53113 8.57048) rotate(-107.468) scale(4.554 2.37251)">
<stop stop-color="#178697"/>
<stop offset="0.407867" stop-color="#17838F" stop-opacity="0.79"/>
<stop offset="0.874482" stop-color="#007281" stop-opacity="0"/>
</radialGradient>
<radialGradient id="paint4_radial_237_7068" cx="0" cy="0" r="1" gradientUnits="userSpaceOnUse" gradientTransform="translate(7.55583 8.54619) rotate(-120.86) scale(11.5648 3.56733)">
<stop stop-color="#25342F" stop-opacity="0.3"/>
<stop offset="1" stop-color="#25342F" stop-opacity="0"/>
</radialGradient>
<radialGradient id="paint5_radial_237_7068" cx="0" cy="0" r="1" gradientUnits="userSpaceOnUse" gradientTransform="translate(9.61873 7.09764) rotate(85.0979) scale(4.35562 2.47045)">
<stop stop-color="#056D4F"/>
<stop offset="0.232593" stop-color="#056C4E" stop-opacity="0.75"/>
<stop offset="0.598902" stop-color="#056C4E" stop-opacity="0.300824"/>
<stop offset="0.874482" stop-color="#056C4F" stop-opacity="0"/>
</radialGradient>
<radialGradient id="paint6_radial_237_7068" cx="0" cy="0" r="1" gradientUnits="userSpaceOnUse" gradientTransform="translate(9.81138 0.0534236) rotate(57.0774) scale(5.12012 2.6855)">
<stop stop-color="#22B67B"/>
<stop offset="0.407867" stop-color="#24BE82"/>
<stop offset="1" stop-color="#24BE82" stop-opacity="0.07"/>
</radialGradient>
<linearGradient id="paint7_linear_237_7068" x1="-4.10075" y1="7.75931" x2="3.31614" y2="7.8203" gradientUnits="userSpaceOnUse">
<stop stop-color="#09F8FF"/>
<stop offset="1" stop-color="#0BF7F9" stop-opacity="0"/>
</linearGradient>
<radialGradient id="paint8_radial_237_7068" cx="0" cy="0" r="1" gradientUnits="userSpaceOnUse" gradientTransform="translate(-2.50737 1.07885) rotate(49.6506) scale(6.68716 6.67046)">
<stop stop-color="#09F8FF"/>
<stop offset="1" stop-color="#0BF7F9" stop-opacity="0"/>
</radialGradient>
<radialGradient id="paint9_radial_237_7068" cx="0" cy="0" r="1" gradientUnits="userSpaceOnUse" gradientTransform="translate(2.84937 -2.28795) rotate(48.0118) scale(13.5629 13.5415)">
<stop stop-color="#00B8FF"/>
<stop offset="0.745423" stop-color="#00B9FC" stop-opacity="0"/>
</radialGradient>
<radialGradient id="paint10_radial_237_7068" cx="0" cy="0" r="1" gradientUnits="userSpaceOnUse" gradientTransform="translate(3.56733 7.88481) rotate(-107.468) scale(6.53747 4.52974)">
<stop stop-color="#00BCFF" stop-opacity="0.76"/>
<stop offset="0.57273" stop-color="#00BAFC" stop-opacity="0"/>
</radialGradient>
<radialGradient id="paint11_radial_237_7068" cx="0" cy="0" r="1" gradientUnits="userSpaceOnUse" gradientTransform="translate(13.5061 5.40187) rotate(-129.551) scale(4.62291 3.23649)">
<stop stop-color="#5FEC50"/>
<stop offset="1" stop-color="#3CC08E" stop-opacity="0"/>
</radialGradient>
<radialGradient id="paint12_radial_237_7068" cx="0" cy="0" r="1" gradientUnits="userSpaceOnUse" gradientTransform="translate(12.8444 8.37945) rotate(-79.0944) scale(1.39957 0.968007)">
<stop stop-color="#28855B"/>
<stop offset="1" stop-color="#14795C" stop-opacity="0"/>
</radialGradient>
<radialGradient id="paint13_radial_237_7068" cx="0" cy="0" r="1" gradientUnits="userSpaceOnUse" gradientTransform="translate(12.7769 8.27644) rotate(-77.8798) scale(1.15379 1.61246)">
<stop stop-color="#28855B"/>
<stop offset="1" stop-color="#14795C" stop-opacity="0"/>
</radialGradient>
<radialGradient id="paint14_radial_237_7068" cx="0" cy="0" r="1" gradientUnits="userSpaceOnUse" gradientTransform="translate(14.1514 6.19781) rotate(-132.79) scale(3.82739 2.68878)">
<stop stop-color="#5FF05B"/>
<stop offset="0.813285" stop-color="#5DE955" stop-opacity="0"/>
</radialGradient>
<radialGradient id="paint15_radial_237_7068" cx="0" cy="0" r="1" gradientUnits="userSpaceOnUse" gradientTransform="translate(12.954 7.2972) rotate(37.4559) scale(3.40381 4.73123)">
<stop stop-color="#123AA8"/>
<stop offset="0.966119" stop-color="#123AA8" stop-opacity="0"/>
</radialGradient>
<radialGradient id="paint16_radial_237_7068" cx="0" cy="0" r="1" gradientUnits="userSpaceOnUse" gradientTransform="translate(12.1072 7.68084) rotate(8.48611) scale(4.01618 5.99473)">
<stop stop-color="#123AA8"/>
<stop offset="0.592487" stop-color="#123AA8" stop-opacity="0"/>
</radialGradient>
<radialGradient id="paint17_radial_237_7068" cx="0" cy="0" r="1" gradientUnits="userSpaceOnUse" gradientTransform="translate(12.4331 8.17906) rotate(24.6631) scale(3.43068 6.11312)">
<stop stop-color="#123AA8"/>
<stop offset="0.756788" stop-color="#123AA8" stop-opacity="0"/>
</radialGradient>
<radialGradient id="paint18_radial_237_7068" cx="0" cy="0" r="1" gradientUnits="userSpaceOnUse" gradientTransform="translate(12.0302 8.38229) rotate(95.8028) scale(6.16725 3.37972)">
<stop stop-color="#123AA8"/>
<stop offset="0.592487" stop-color="#123AA8" stop-opacity="0"/>
<stop offset="1" stop-color="#123AA8" stop-opacity="0"/>
</radialGradient>
<radialGradient id="paint19_radial_237_7068" cx="0" cy="0" r="1" gradientUnits="userSpaceOnUse" gradientTransform="translate(12.954 5.65948) rotate(93.6671) scale(7.42212 2.64877)">
<stop stop-color="#123AA8"/>
<stop offset="0.884611" stop-color="#123AA8" stop-opacity="0"/>
</radialGradient>
<radialGradient id="paint20_radial_237_7068" cx="0" cy="0" r="1" gradientUnits="userSpaceOnUse" gradientTransform="translate(4.54271 7.20271) rotate(84.8296) scale(3.93849 2.08658)">
<stop stop-color="#123AA8"/>
<stop offset="0.884611" stop-color="#123AA8" stop-opacity="0"/>
</radialGradient>
<radialGradient id="paint21_radial_237_7068" cx="0" cy="0" r="1" gradientUnits="userSpaceOnUse" gradientTransform="translate(4.53987 7.30867) rotate(87.2504) scale(4.11044 3.39353)">
<stop stop-color="#123AA8"/>
<stop offset="0.884611" stop-color="#123AA8" stop-opacity="0"/>
</radialGradient>
<radialGradient id="paint22_radial_237_7068" cx="0" cy="0" r="1" gradientUnits="userSpaceOnUse" gradientTransform="translate(5.47506 11.171) rotate(-23.1725) scale(4.58388 8.95991)">
<stop stop-color="#123AA8"/>
<stop offset="0.708977" stop-color="#123AA8" stop-opacity="0"/>
</radialGradient>
<radialGradient id="paint23_radial_237_7068" cx="0" cy="0" r="1" gradientUnits="userSpaceOnUse" gradientTransform="translate(3.8441 6.30367) rotate(-159.526) scale(3.03689 5.19997)">
<stop stop-color="#1A3DA0"/>
<stop offset="0.708977" stop-color="#123AA8" stop-opacity="0"/>
</radialGradient>
<radialGradient id="paint24_radial_237_7068" cx="0" cy="0" r="1" gradientUnits="userSpaceOnUse" gradientTransform="translate(1.17086 7.33727) rotate(16.749) scale(5.79218 5.84719)">
<stop stop-color="#1E3882"/>
<stop offset="0.761404" stop-color="#123AA8" stop-opacity="0"/>
</radialGradient>
<linearGradient id="paint25_linear_237_7068" x1="-0.645751" y1="4.13354" x2="5.06192" y2="7.77646" gradientUnits="userSpaceOnUse">
<stop offset="0.229329" stop-color="#1DC4FF"/>
<stop offset="1" stop-color="#1CC1FF" stop-opacity="0"/>
</linearGradient>
<radialGradient id="paint26_radial_237_7068" cx="0" cy="0" r="1" gradientUnits="userSpaceOnUse" gradientTransform="translate(-2.50772 1.07858) rotate(49.6506) scale(6.68716 6.67046)">
<stop stop-color="#09F8FF"/>
<stop offset="1" stop-color="#0BF7F9" stop-opacity="0"/>
</radialGradient>
<linearGradient id="paint27_linear_237_7068" x1="-0.330262" y1="4.31963" x2="1.27072" y2="5.77102" gradientUnits="userSpaceOnUse">
<stop stop-color="#26FBFF"/>
<stop offset="0.637346" stop-color="#0BF7F9" stop-opacity="0"/>
</linearGradient>
<linearGradient id="paint28_linear_237_7068" x1="-0.755612" y1="5.43053" x2="1.45882" y2="5.5885" gradientUnits="userSpaceOnUse">
<stop stop-color="#26FBFF"/>
<stop offset="0.637346" stop-color="#0BF7F9" stop-opacity="0"/>
</linearGradient>
<radialGradient id="paint29_radial_237_7068" cx="0" cy="0" r="1" gradientUnits="userSpaceOnUse" gradientTransform="translate(3.56713 7.88486) rotate(-107.468) scale(6.53747 4.52974)">
<stop stop-color="#00BCFF" stop-opacity="0.76"/>
<stop offset="0.57273" stop-color="#00BAFC" stop-opacity="0"/>
</radialGradient>
<clipPath id="clip0_237_7068">
<rect width="16" height="16" rx="4" fill="white"/>
</clipPath>
</defs>
</svg>
