<svg width="16" height="16" viewBox="0 0 16 16" fill="none" xmlns="http://www.w3.org/2000/svg">
<mask id="path-1-inside-1_237_7032" fill="white">
<path d="M0 4C0 1.79086 1.79086 0 4 0H12C14.2091 0 16 1.79086 16 4V12C16 14.2091 14.2091 16 12 16H4C1.79086 16 0 14.2091 0 12V4Z"/>
</mask>
<path d="M0 4C0 1.79086 1.79086 0 4 0H12C14.2091 0 16 1.79086 16 4V12C16 14.2091 14.2091 16 12 16H4C1.79086 16 0 14.2091 0 12V4Z" fill="white"/>
<path d="M4 0V1H12V0V-1H4V0ZM16 4H15V12H16H17V4H16ZM12 16V15H4V16V17H12V16ZM0 12H1V4H0H-1V12H0ZM4 16V15C2.34315 15 1 13.6569 1 12H0H-1C-1 14.7614 1.23858 17 4 17V16ZM16 12H15C15 13.6569 13.6569 15 12 15V16V17C14.7614 17 17 14.7614 17 12H16ZM12 0V1C13.6569 1 15 2.34315 15 4H16H17C17 1.23858 14.7614 -1 12 -1V0ZM4 0V-1C1.23858 -1 -1 1.23858 -1 4H0H1C1 2.34315 2.34315 1 4 1V0Z" fill="#0B1228" fill-opacity="0.14" mask="url(#path-1-inside-1_237_7032)"/>
<mask id="mask0_237_7032" style="mask-type:luminance" maskUnits="userSpaceOnUse" x="2" y="4" width="12" height="9">
<path d="M13.6673 4.11816H2.33398V12.3675H13.6673V4.11816Z" fill="white"/>
</mask>
<g mask="url(#mask0_237_7032)">
<path d="M5.85047 12.3348C3.75194 12.3348 3.03768 9.68079 2.87764 9.1645C2.47573 7.86802 2.35355 6.70016 2.34061 6.57761C2.26598 5.87042 2.83317 5.37828 3.45566 5.37828C3.92699 5.37828 4.47402 5.66044 4.5465 6.34501C4.55906 6.46013 4.65489 7.45319 4.99388 8.53521C5.34765 9.66445 5.72293 10.0988 5.99318 10.0988C6.42963 10.0988 6.6959 8.97777 6.93131 7.91039C7.10476 7.12398 7.29223 6.33158 7.66238 5.62768C8.30631 4.40313 9.27939 4.11816 10.12 4.11816C11.9633 4.11816 12.8859 6.25382 12.8859 6.80717C12.8859 7.73184 12.1317 7.96771 11.8048 7.96771C11.0899 7.96771 10.8475 7.48865 10.6435 7.06875C10.46 6.691 10.2684 6.37693 10.0206 6.37693C9.93922 6.37693 9.86375 6.41815 9.79397 6.4891C9.17814 7.115 8.97166 10.3895 7.74034 11.641C7.05771 12.3348 6.31499 12.3348 5.85047 12.3348Z" fill="url(#paint0_linear_237_7032)"/>
<path d="M5.85047 12.3348C3.75194 12.3348 3.03768 9.68079 2.87764 9.1645C2.47573 7.86802 2.35355 6.70016 2.34061 6.57761C2.26598 5.87042 2.83317 5.37828 3.45566 5.37828C3.92699 5.37828 4.47402 5.66044 4.5465 6.34501C4.55906 6.46013 4.65489 7.45319 4.99388 8.53521C5.34765 9.66445 5.72293 10.0988 5.99318 10.0988C6.42963 10.0988 6.6959 8.97777 6.93131 7.91039C7.10476 7.12398 7.29223 6.33158 7.66238 5.62768C8.30631 4.40313 9.27939 4.11816 10.12 4.11816C11.9633 4.11816 12.8859 6.25382 12.8859 6.80717C12.8859 7.73184 12.1317 7.96771 11.8048 7.96771C11.0899 7.96771 10.8475 7.48865 10.6435 7.06875C10.46 6.691 10.2684 6.37693 10.0206 6.37693C9.93922 6.37693 9.86375 6.41815 9.79397 6.4891C9.17814 7.115 8.97166 10.3895 7.74034 11.641C7.05771 12.3348 6.31499 12.3348 5.85047 12.3348Z" fill="url(#paint1_radial_237_7032)"/>
<path d="M5.85047 12.3348C3.75194 12.3348 3.03768 9.68079 2.87764 9.1645C2.47573 7.86802 2.35355 6.70016 2.34061 6.57761C2.26598 5.87042 2.83317 5.37828 3.45566 5.37828C3.92699 5.37828 4.47402 5.66044 4.5465 6.34501C4.55906 6.46013 4.65489 7.45319 4.99388 8.53521C5.34765 9.66445 5.72293 10.0988 5.99318 10.0988C6.42963 10.0988 6.6959 8.97777 6.93131 7.91039C7.10476 7.12398 7.29223 6.33158 7.66238 5.62768C8.30631 4.40313 9.27939 4.11816 10.12 4.11816C11.9633 4.11816 12.8859 6.25382 12.8859 6.80717C12.8859 7.73184 12.1317 7.96771 11.8048 7.96771C11.0899 7.96771 10.8475 7.48865 10.6435 7.06875C10.46 6.691 10.2684 6.37693 10.0206 6.37693C9.93922 6.37693 9.86375 6.41815 9.79397 6.4891C9.17814 7.115 8.97166 10.3895 7.74034 11.641C7.05771 12.3348 6.31499 12.3348 5.85047 12.3348Z" fill="url(#paint2_radial_237_7032)"/>
<path d="M5.85047 12.3348C3.75194 12.3348 3.03768 9.68079 2.87764 9.1645C2.47573 7.86802 2.35355 6.70016 2.34061 6.57761C2.26598 5.87042 2.83317 5.37828 3.45566 5.37828C3.92699 5.37828 4.47402 5.66044 4.5465 6.34501C4.55906 6.46013 4.65489 7.45319 4.99388 8.53521C5.34765 9.66445 5.72293 10.0988 5.99318 10.0988C6.42963 10.0988 6.6959 8.97777 6.93131 7.91039C7.10476 7.12398 7.29223 6.33158 7.66238 5.62768C8.30631 4.40313 9.27939 4.11816 10.12 4.11816C11.9633 4.11816 12.8859 6.25382 12.8859 6.80717C12.8859 7.73184 12.1317 7.96771 11.8048 7.96771C11.0899 7.96771 10.8475 7.48865 10.6435 7.06875C10.46 6.691 10.2684 6.37693 10.0206 6.37693C9.93922 6.37693 9.86375 6.41815 9.79397 6.4891C9.17814 7.115 8.97166 10.3895 7.74034 11.641C7.05771 12.3348 6.31499 12.3348 5.85047 12.3348Z" fill="url(#paint3_radial_237_7032)"/>
<path d="M5.85047 12.3348C3.75194 12.3348 3.03768 9.68079 2.87764 9.1645C2.47573 7.86802 2.35355 6.70016 2.34061 6.57761C2.26598 5.87042 2.83317 5.37828 3.45566 5.37828C3.92699 5.37828 4.47402 5.66044 4.5465 6.34501C4.55906 6.46013 4.65489 7.45319 4.99388 8.53521C5.34765 9.66445 5.72293 10.0988 5.99318 10.0988C6.42963 10.0988 6.6959 8.97777 6.93131 7.91039C7.10476 7.12398 7.29223 6.33158 7.66238 5.62768C8.30631 4.40313 9.27939 4.11816 10.12 4.11816C11.9633 4.11816 12.8859 6.25382 12.8859 6.80717C12.8859 7.73184 12.1317 7.96771 11.8048 7.96771C11.0899 7.96771 10.8475 7.48865 10.6435 7.06875C10.46 6.691 10.2684 6.37693 10.0206 6.37693C9.93922 6.37693 9.86375 6.41815 9.79397 6.4891C9.17814 7.115 8.97166 10.3895 7.74034 11.641C7.05771 12.3348 6.31499 12.3348 5.85047 12.3348Z" fill="url(#paint4_radial_237_7032)"/>
<path d="M5.85047 12.3348C3.75194 12.3348 3.03768 9.68079 2.87764 9.1645C2.47573 7.86802 2.35355 6.70016 2.34061 6.57761C2.26598 5.87042 2.83317 5.37828 3.45566 5.37828C3.92699 5.37828 4.47402 5.66044 4.5465 6.34501C4.55906 6.46013 4.65489 7.45319 4.99388 8.53521C5.34765 9.66445 5.72293 10.0988 5.99318 10.0988C6.42963 10.0988 6.6959 8.97777 6.93131 7.91039C7.10476 7.12398 7.29223 6.33158 7.66238 5.62768C8.30631 4.40313 9.27939 4.11816 10.12 4.11816C11.9633 4.11816 12.8859 6.25382 12.8859 6.80717C12.8859 7.73184 12.1317 7.96771 11.8048 7.96771C11.0899 7.96771 10.8475 7.48865 10.6435 7.06875C10.46 6.691 10.2684 6.37693 10.0206 6.37693C9.93922 6.37693 9.86375 6.41815 9.79397 6.4891C9.17814 7.115 8.97166 10.3895 7.74034 11.641C7.05771 12.3348 6.31499 12.3348 5.85047 12.3348Z" fill="url(#paint5_radial_237_7032)"/>
<path d="M5.85047 12.3348C3.75194 12.3348 3.03768 9.68079 2.87764 9.1645C2.47573 7.86802 2.35355 6.70016 2.34061 6.57761C2.26598 5.87042 2.83317 5.37828 3.45566 5.37828C3.92699 5.37828 4.47402 5.66044 4.5465 6.34501C4.55906 6.46013 4.65489 7.45319 4.99388 8.53521C5.34765 9.66445 5.72293 10.0988 5.99318 10.0988C6.42963 10.0988 6.6959 8.97777 6.93131 7.91039C7.10476 7.12398 7.29223 6.33158 7.66238 5.62768C8.30631 4.40313 9.27939 4.11816 10.12 4.11816C11.9633 4.11816 12.8859 6.25382 12.8859 6.80717C12.8859 7.73184 12.1317 7.96771 11.8048 7.96771C11.0899 7.96771 10.8475 7.48865 10.6435 7.06875C10.46 6.691 10.2684 6.37693 10.0206 6.37693C9.93922 6.37693 9.86375 6.41815 9.79397 6.4891C9.17814 7.115 8.97166 10.3895 7.74034 11.641C7.05771 12.3348 6.31499 12.3348 5.85047 12.3348Z" fill="url(#paint6_radial_237_7032)"/>
<path d="M5.85047 12.3348C3.75194 12.3348 3.03768 9.68079 2.87764 9.1645C2.47573 7.86802 2.35355 6.70016 2.34061 6.57761C2.26598 5.87042 2.83317 5.37828 3.45566 5.37828C3.92699 5.37828 4.47402 5.66044 4.5465 6.34501C4.55906 6.46013 4.65489 7.45319 4.99388 8.53521C5.34765 9.66445 5.72293 10.0988 5.99318 10.0988C6.42963 10.0988 6.6959 8.97777 6.93131 7.91039C7.10476 7.12398 7.29223 6.33158 7.66238 5.62768C8.30631 4.40313 9.27939 4.11816 10.12 4.11816C11.9633 4.11816 12.8859 6.25382 12.8859 6.80717C12.8859 7.73184 12.1317 7.96771 11.8048 7.96771C11.0899 7.96771 10.8475 7.48865 10.6435 7.06875C10.46 6.691 10.2684 6.37693 10.0206 6.37693C9.93922 6.37693 9.86375 6.41815 9.79397 6.4891C9.17814 7.115 8.97166 10.3895 7.74034 11.641C7.05771 12.3348 6.31499 12.3348 5.85047 12.3348Z" fill="url(#paint7_linear_237_7032)"/>
<path d="M5.85047 12.3348C3.75194 12.3348 3.03768 9.68079 2.87764 9.1645C2.47573 7.86802 2.35355 6.70016 2.34061 6.57761C2.26598 5.87042 2.83317 5.37828 3.45566 5.37828C3.92699 5.37828 4.47402 5.66044 4.5465 6.34501C4.55906 6.46013 4.65489 7.45319 4.99388 8.53521C5.34765 9.66445 5.72293 10.0988 5.99318 10.0988C6.42963 10.0988 6.6959 8.97777 6.93131 7.91039C7.10476 7.12398 7.29223 6.33158 7.66238 5.62768C8.30631 4.40313 9.27939 4.11816 10.12 4.11816C11.9633 4.11816 12.8859 6.25382 12.8859 6.80717C12.8859 7.73184 12.1317 7.96771 11.8048 7.96771C11.0899 7.96771 10.8475 7.48865 10.6435 7.06875C10.46 6.691 10.2684 6.37693 10.0206 6.37693C9.93922 6.37693 9.86375 6.41815 9.79397 6.4891C9.17814 7.115 8.97166 10.3895 7.74034 11.641C7.05771 12.3348 6.31499 12.3348 5.85047 12.3348Z" fill="url(#paint8_radial_237_7032)"/>
<path d="M10.1193 4.11816C9.27871 4.11816 8.30564 4.40313 7.66167 5.62768C7.29152 6.33158 7.10406 7.12398 6.93064 7.91039C6.87353 8.16916 6.81462 8.43105 6.75195 8.67941V12.2374C7.07005 12.1474 7.41178 11.9742 7.73967 11.641C8.97095 10.3895 9.17747 7.115 9.7933 6.4891C9.86304 6.41815 9.93851 6.37693 10.0199 6.37693C10.2677 6.37693 10.4593 6.691 10.6428 7.06875C10.8468 7.48865 11.0892 7.96771 11.8041 7.96771C12.131 7.96771 12.8852 7.73184 12.8852 6.80717C12.8852 6.25382 11.9627 4.11816 10.1193 4.11816Z" fill="url(#paint9_radial_237_7032)"/>
<path d="M5.85047 12.3348C3.75194 12.3348 3.03768 9.68079 2.87764 9.1645C2.47573 7.86802 2.35355 6.70016 2.34061 6.57761C2.26598 5.87042 2.83317 5.37828 3.45566 5.37828C3.92699 5.37828 4.47402 5.66044 4.5465 6.34501C4.55906 6.46013 4.65489 7.45319 4.99388 8.53521C5.34765 9.66445 5.72293 10.0988 5.99318 10.0988C6.42963 10.0988 6.6959 8.97777 6.93131 7.91039C7.10476 7.12398 7.29223 6.33158 7.66238 5.62768C8.30631 4.40313 9.27939 4.11816 10.12 4.11816C11.9633 4.11816 12.8859 6.25382 12.8859 6.80717C12.8859 7.73184 12.1317 7.96771 11.8048 7.96771C11.0899 7.96771 10.8475 7.48865 10.6435 7.06875C10.46 6.691 10.2684 6.37693 10.0206 6.37693C9.93922 6.37693 9.86375 6.41815 9.79397 6.4891C9.17814 7.115 8.97166 10.3895 7.74034 11.641C7.05771 12.3348 6.31499 12.3348 5.85047 12.3348Z" fill="url(#paint10_radial_237_7032)"/>
<path d="M5.85047 12.3348C3.75194 12.3348 3.03768 9.68079 2.87764 9.1645C2.47573 7.86802 2.35355 6.70016 2.34061 6.57761C2.26598 5.87042 2.83317 5.37828 3.45566 5.37828C3.92699 5.37828 4.47402 5.66044 4.5465 6.34501C4.55906 6.46013 4.65489 7.45319 4.99388 8.53521C5.34765 9.66445 5.72293 10.0988 5.99318 10.0988C6.42963 10.0988 6.6959 8.97777 6.93131 7.91039C7.10476 7.12398 7.29223 6.33158 7.66238 5.62768C8.30631 4.40313 9.27939 4.11816 10.12 4.11816C11.9633 4.11816 12.8859 6.25382 12.8859 6.80717C12.8859 7.73184 12.1317 7.96771 11.8048 7.96771C11.0899 7.96771 10.8475 7.48865 10.6435 7.06875C10.46 6.691 10.2684 6.37693 10.0206 6.37693C9.93922 6.37693 9.86375 6.41815 9.79397 6.4891C9.17814 7.115 8.97166 10.3895 7.74034 11.641C7.05771 12.3348 6.31499 12.3348 5.85047 12.3348Z" fill="url(#paint11_radial_237_7032)"/>
<path d="M5.85047 12.3348C3.75194 12.3348 3.03768 9.68079 2.87764 9.1645C2.47573 7.86802 2.35355 6.70016 2.34061 6.57761C2.26598 5.87042 2.83317 5.37828 3.45566 5.37828C3.92699 5.37828 4.47402 5.66044 4.5465 6.34501C4.55906 6.46013 4.65489 7.45319 4.99388 8.53521C5.34765 9.66445 5.72293 10.0988 5.99318 10.0988C6.42963 10.0988 6.6959 8.97777 6.93131 7.91039C7.10476 7.12398 7.29223 6.33158 7.66238 5.62768C8.30631 4.40313 9.27939 4.11816 10.12 4.11816C11.9633 4.11816 12.8859 6.25382 12.8859 6.80717C12.8859 7.73184 12.1317 7.96771 11.8048 7.96771C11.0899 7.96771 10.8475 7.48865 10.6435 7.06875C10.46 6.691 10.2684 6.37693 10.0206 6.37693C9.93922 6.37693 9.86375 6.41815 9.79397 6.4891C9.17814 7.115 8.97166 10.3895 7.74034 11.641C7.05771 12.3348 6.31499 12.3348 5.85047 12.3348Z" fill="url(#paint12_radial_237_7032)"/>
<path d="M5.85047 12.3348C3.75194 12.3348 3.03768 9.68079 2.87764 9.1645C2.47573 7.86802 2.35355 6.70016 2.34061 6.57761C2.26598 5.87042 2.83317 5.37828 3.45566 5.37828C3.92699 5.37828 4.47402 5.66044 4.5465 6.34501C4.55906 6.46013 4.65489 7.45319 4.99388 8.53521C5.34765 9.66445 5.72293 10.0988 5.99318 10.0988C6.42963 10.0988 6.6959 8.97777 6.93131 7.91039C7.10476 7.12398 7.29223 6.33158 7.66238 5.62768C8.30631 4.40313 9.27939 4.11816 10.12 4.11816C11.9633 4.11816 12.8859 6.25382 12.8859 6.80717C12.8859 7.73184 12.1317 7.96771 11.8048 7.96771C11.0899 7.96771 10.8475 7.48865 10.6435 7.06875C10.46 6.691 10.2684 6.37693 10.0206 6.37693C9.93922 6.37693 9.86375 6.41815 9.79397 6.4891C9.17814 7.115 8.97166 10.3895 7.74034 11.641C7.05771 12.3348 6.31499 12.3348 5.85047 12.3348Z" fill="url(#paint13_radial_237_7032)"/>
<path d="M5.85047 12.3348C3.75194 12.3348 3.03768 9.68079 2.87764 9.1645C2.47573 7.86802 2.35355 6.70016 2.34061 6.57761C2.26598 5.87042 2.83317 5.37828 3.45566 5.37828C3.92699 5.37828 4.47402 5.66044 4.5465 6.34501C4.55906 6.46013 4.65489 7.45319 4.99388 8.53521C5.34765 9.66445 5.72293 10.0988 5.99318 10.0988C6.42963 10.0988 6.6959 8.97777 6.93131 7.91039C7.10476 7.12398 7.29223 6.33158 7.66238 5.62768C8.30631 4.40313 9.27939 4.11816 10.12 4.11816C11.9633 4.11816 12.8859 6.25382 12.8859 6.80717C12.8859 7.73184 12.1317 7.96771 11.8048 7.96771C11.0899 7.96771 10.8475 7.48865 10.6435 7.06875C10.46 6.691 10.2684 6.37693 10.0206 6.37693C9.93922 6.37693 9.86375 6.41815 9.79397 6.4891C9.17814 7.115 8.97166 10.3895 7.74034 11.641C7.05771 12.3348 6.31499 12.3348 5.85047 12.3348Z" fill="url(#paint14_radial_237_7032)"/>
<path d="M12.546 5.37828C12.4629 5.37828 12.3794 5.38612 12.2974 5.40229C12.6871 5.96414 12.882 6.55277 12.882 6.8071C12.882 7.7318 12.1278 7.96764 11.8009 7.96764C11.5458 7.96764 11.351 7.90664 11.1965 7.80911C11.195 7.8149 11.1936 7.82063 11.1922 7.82642C11.1462 8.00993 11.11 8.21079 11.0472 8.40628C10.9265 8.78208 10.7637 9.21138 10.5899 9.54357C10.4025 9.90171 10.217 10.1112 9.99594 10.1002C9.74445 10.0878 9.54058 9.76362 9.28718 8.84755C9.20547 8.55221 9.1298 8.22835 9.05968 7.91039C8.88574 7.12166 8.67222 6.32853 8.30717 5.62768C7.71087 4.483 6.69374 4.11816 5.88169 4.11816C5.1286 4.11816 4.56595 4.47471 4.12395 4.92396C4.00182 5.04811 3.86837 5.21538 3.73438 5.41194C4.11989 5.50479 4.48442 5.79499 4.5426 6.34494C4.55409 6.44979 4.63455 7.28262 4.90484 8.24775C4.98238 8.00577 5.09546 7.64742 5.35815 7.06875C5.48691 6.80377 5.60311 6.629 5.70793 6.52248C5.80407 6.42474 5.89064 6.38439 5.96861 6.38439C6.05268 6.38439 6.33972 6.46134 6.61917 7.44202C6.96576 8.65807 7.2237 10.5934 8.20638 11.6209C8.63978 12.0742 9.24631 12.3675 10.0869 12.3675C10.8245 12.3675 11.4395 12.0426 11.8779 11.5907C12.5988 10.8476 12.9938 9.6191 13.1347 9.16451C13.5357 7.87111 13.6481 6.70138 13.6611 6.57761C13.7357 5.87042 13.14 5.37828 12.546 5.37828Z" fill="#316AFF"/>
<path d="M12.546 5.37828C12.4629 5.37828 12.3794 5.38612 12.2974 5.40229C12.6871 5.96414 12.882 6.55277 12.882 6.8071C12.882 7.7318 12.1278 7.96764 11.8009 7.96764C11.5458 7.96764 11.351 7.90664 11.1965 7.80911C11.195 7.8149 11.1936 7.82063 11.1922 7.82642C11.1462 8.00993 11.11 8.21079 11.0472 8.40628C10.9265 8.78208 10.7637 9.21138 10.5899 9.54357C10.4025 9.90171 10.217 10.1112 9.99594 10.1002C9.74445 10.0878 9.54058 9.76362 9.28718 8.84755C9.20547 8.55221 9.1298 8.22835 9.05968 7.91039C8.88574 7.12166 8.67222 6.32853 8.30717 5.62768C7.71087 4.483 6.69374 4.11816 5.88169 4.11816C5.1286 4.11816 4.56595 4.47471 4.12395 4.92396C4.00182 5.04811 3.86837 5.21538 3.73438 5.41194C4.11989 5.50479 4.48442 5.79499 4.5426 6.34494C4.55409 6.44979 4.63455 7.28262 4.90484 8.24775C4.98238 8.00577 5.09546 7.64742 5.35815 7.06875C5.48691 6.80377 5.60311 6.629 5.70793 6.52248C5.80407 6.42474 5.89064 6.38439 5.96861 6.38439C6.05268 6.38439 6.33972 6.46134 6.61917 7.44202C6.96576 8.65807 7.2237 10.5934 8.20638 11.6209C8.63978 12.0742 9.24631 12.3675 10.0869 12.3675C10.8245 12.3675 11.4395 12.0426 11.8779 11.5907C12.5988 10.8476 12.9938 9.6191 13.1347 9.16451C13.5357 7.87111 13.6481 6.70138 13.6611 6.57761C13.7357 5.87042 13.14 5.37828 12.546 5.37828Z" fill="url(#paint15_radial_237_7032)"/>
<path d="M12.546 5.37828C12.4629 5.37828 12.3794 5.38612 12.2974 5.40229C12.6871 5.96414 12.882 6.55277 12.882 6.8071C12.882 7.7318 12.1278 7.96764 11.8009 7.96764C11.5458 7.96764 11.351 7.90664 11.1965 7.80911C11.195 7.8149 11.1936 7.82063 11.1922 7.82642C11.1462 8.00993 11.11 8.21079 11.0472 8.40628C10.9265 8.78208 10.7637 9.21138 10.5899 9.54357C10.4025 9.90171 10.217 10.1112 9.99594 10.1002C9.74445 10.0878 9.54058 9.76362 9.28718 8.84755C9.20547 8.55221 9.1298 8.22835 9.05968 7.91039C8.88574 7.12166 8.67222 6.32853 8.30717 5.62768C7.71087 4.483 6.69374 4.11816 5.88169 4.11816C5.1286 4.11816 4.56595 4.47471 4.12395 4.92396C4.00182 5.04811 3.86837 5.21538 3.73438 5.41194C4.11989 5.50479 4.48442 5.79499 4.5426 6.34494C4.55409 6.44979 4.63455 7.28262 4.90484 8.24775C4.98238 8.00577 5.09546 7.64742 5.35815 7.06875C5.48691 6.80377 5.60311 6.629 5.70793 6.52248C5.80407 6.42474 5.89064 6.38439 5.96861 6.38439C6.05268 6.38439 6.33972 6.46134 6.61917 7.44202C6.96576 8.65807 7.2237 10.5934 8.20638 11.6209C8.63978 12.0742 9.24631 12.3675 10.0869 12.3675C10.8245 12.3675 11.4395 12.0426 11.8779 11.5907C12.5988 10.8476 12.9938 9.6191 13.1347 9.16451C13.5357 7.87111 13.6481 6.70138 13.6611 6.57761C13.7357 5.87042 13.14 5.37828 12.546 5.37828Z" fill="url(#paint16_radial_237_7032)"/>
<path d="M12.546 5.37828C12.4629 5.37828 12.3794 5.38612 12.2974 5.40229C12.6871 5.96414 12.882 6.55277 12.882 6.8071C12.882 7.7318 12.1278 7.96764 11.8009 7.96764C11.5458 7.96764 11.351 7.90664 11.1965 7.80911C11.195 7.8149 11.1936 7.82063 11.1922 7.82642C11.1462 8.00993 11.11 8.21079 11.0472 8.40628C10.9265 8.78208 10.7637 9.21138 10.5899 9.54357C10.4025 9.90171 10.217 10.1112 9.99594 10.1002C9.74445 10.0878 9.54058 9.76362 9.28718 8.84755C9.20547 8.55221 9.1298 8.22835 9.05968 7.91039C8.88574 7.12166 8.67222 6.32853 8.30717 5.62768C7.71087 4.483 6.69374 4.11816 5.88169 4.11816C5.1286 4.11816 4.56595 4.47471 4.12395 4.92396C4.00182 5.04811 3.86837 5.21538 3.73438 5.41194C4.11989 5.50479 4.48442 5.79499 4.5426 6.34494C4.55409 6.44979 4.63455 7.28262 4.90484 8.24775C4.98238 8.00577 5.09546 7.64742 5.35815 7.06875C5.48691 6.80377 5.60311 6.629 5.70793 6.52248C5.80407 6.42474 5.89064 6.38439 5.96861 6.38439C6.05268 6.38439 6.33972 6.46134 6.61917 7.44202C6.96576 8.65807 7.2237 10.5934 8.20638 11.6209C8.63978 12.0742 9.24631 12.3675 10.0869 12.3675C10.8245 12.3675 11.4395 12.0426 11.8779 11.5907C12.5988 10.8476 12.9938 9.6191 13.1347 9.16451C13.5357 7.87111 13.6481 6.70138 13.6611 6.57761C13.7357 5.87042 13.14 5.37828 12.546 5.37828Z" fill="url(#paint17_radial_237_7032)"/>
<path d="M12.546 5.37828C12.4629 5.37828 12.3794 5.38612 12.2974 5.40229C12.6871 5.96414 12.882 6.55277 12.882 6.8071C12.882 7.7318 12.1278 7.96764 11.8009 7.96764C11.5458 7.96764 11.351 7.90664 11.1965 7.80911C11.195 7.8149 11.1936 7.82063 11.1922 7.82642C11.1462 8.00993 11.11 8.21079 11.0472 8.40628C10.9265 8.78208 10.7637 9.21138 10.5899 9.54357C10.4025 9.90171 10.217 10.1112 9.99594 10.1002C9.74445 10.0878 9.54058 9.76362 9.28718 8.84755C9.20547 8.55221 9.1298 8.22835 9.05968 7.91039C8.88574 7.12166 8.67222 6.32853 8.30717 5.62768C7.71087 4.483 6.69374 4.11816 5.88169 4.11816C5.1286 4.11816 4.56595 4.47471 4.12395 4.92396C4.00182 5.04811 3.86837 5.21538 3.73438 5.41194C4.11989 5.50479 4.48442 5.79499 4.5426 6.34494C4.55409 6.44979 4.63455 7.28262 4.90484 8.24775C4.98238 8.00577 5.09546 7.64742 5.35815 7.06875C5.48691 6.80377 5.60311 6.629 5.70793 6.52248C5.80407 6.42474 5.89064 6.38439 5.96861 6.38439C6.05268 6.38439 6.33972 6.46134 6.61917 7.44202C6.96576 8.65807 7.2237 10.5934 8.20638 11.6209C8.63978 12.0742 9.24631 12.3675 10.0869 12.3675C10.8245 12.3675 11.4395 12.0426 11.8779 11.5907C12.5988 10.8476 12.9938 9.6191 13.1347 9.16451C13.5357 7.87111 13.6481 6.70138 13.6611 6.57761C13.7357 5.87042 13.14 5.37828 12.546 5.37828Z" fill="url(#paint18_radial_237_7032)"/>
<path d="M12.546 5.37828C12.4629 5.37828 12.3794 5.38612 12.2974 5.40229C12.6871 5.96414 12.882 6.55277 12.882 6.8071C12.882 7.7318 12.1278 7.96764 11.8009 7.96764C11.5458 7.96764 11.351 7.90664 11.1965 7.80911C11.195 7.8149 11.1936 7.82063 11.1922 7.82642C11.1462 8.00993 11.11 8.21079 11.0472 8.40628C10.9265 8.78208 10.7637 9.21138 10.5899 9.54357C10.4025 9.90171 10.217 10.1112 9.99594 10.1002C9.74445 10.0878 9.54058 9.76362 9.28718 8.84755C9.20547 8.55221 9.1298 8.22835 9.05968 7.91039C8.88574 7.12166 8.67222 6.32853 8.30717 5.62768C7.71087 4.483 6.69374 4.11816 5.88169 4.11816C5.1286 4.11816 4.56595 4.47471 4.12395 4.92396C4.00182 5.04811 3.86837 5.21538 3.73438 5.41194C4.11989 5.50479 4.48442 5.79499 4.5426 6.34494C4.55409 6.44979 4.63455 7.28262 4.90484 8.24775C4.98238 8.00577 5.09546 7.64742 5.35815 7.06875C5.48691 6.80377 5.60311 6.629 5.70793 6.52248C5.80407 6.42474 5.89064 6.38439 5.96861 6.38439C6.05268 6.38439 6.33972 6.46134 6.61917 7.44202C6.96576 8.65807 7.2237 10.5934 8.20638 11.6209C8.63978 12.0742 9.24631 12.3675 10.0869 12.3675C10.8245 12.3675 11.4395 12.0426 11.8779 11.5907C12.5988 10.8476 12.9938 9.6191 13.1347 9.16451C13.5357 7.87111 13.6481 6.70138 13.6611 6.57761C13.7357 5.87042 13.14 5.37828 12.546 5.37828Z" fill="url(#paint19_radial_237_7032)"/>
<path d="M12.546 5.37828C12.4629 5.37828 12.3794 5.38612 12.2974 5.40229C12.6871 5.96414 12.882 6.55277 12.882 6.8071C12.882 7.7318 12.1278 7.96764 11.8009 7.96764C11.5458 7.96764 11.351 7.90664 11.1965 7.80911C11.195 7.8149 11.1936 7.82063 11.1922 7.82642C11.1462 8.00993 11.11 8.21079 11.0472 8.40628C10.9265 8.78208 10.7637 9.21138 10.5899 9.54357C10.4025 9.90171 10.217 10.1112 9.99594 10.1002C9.74445 10.0878 9.54058 9.76362 9.28718 8.84755C9.20547 8.55221 9.1298 8.22835 9.05968 7.91039C8.88574 7.12166 8.67222 6.32853 8.30717 5.62768C7.71087 4.483 6.69374 4.11816 5.88169 4.11816C5.1286 4.11816 4.56595 4.47471 4.12395 4.92396C4.00182 5.04811 3.86837 5.21538 3.73438 5.41194C4.11989 5.50479 4.48442 5.79499 4.5426 6.34494C4.55409 6.44979 4.63455 7.28262 4.90484 8.24775C4.98238 8.00577 5.09546 7.64742 5.35815 7.06875C5.48691 6.80377 5.60311 6.629 5.70793 6.52248C5.80407 6.42474 5.89064 6.38439 5.96861 6.38439C6.05268 6.38439 6.33972 6.46134 6.61917 7.44202C6.96576 8.65807 7.2237 10.5934 8.20638 11.6209C8.63978 12.0742 9.24631 12.3675 10.0869 12.3675C10.8245 12.3675 11.4395 12.0426 11.8779 11.5907C12.5988 10.8476 12.9938 9.6191 13.1347 9.16451C13.5357 7.87111 13.6481 6.70138 13.6611 6.57761C13.7357 5.87042 13.14 5.37828 12.546 5.37828Z" fill="url(#paint20_radial_237_7032)"/>
<path d="M12.546 5.37828C12.4629 5.37828 12.3794 5.38612 12.2974 5.40229C12.6871 5.96414 12.882 6.55277 12.882 6.8071C12.882 7.7318 12.1278 7.96764 11.8009 7.96764C11.5458 7.96764 11.351 7.90664 11.1965 7.80911C11.195 7.8149 11.1936 7.82063 11.1922 7.82642C11.1462 8.00993 11.11 8.21079 11.0472 8.40628C10.9265 8.78208 10.7637 9.21138 10.5899 9.54357C10.4025 9.90171 10.217 10.1112 9.99594 10.1002C9.74445 10.0878 9.54058 9.76362 9.28718 8.84755C9.20547 8.55221 9.1298 8.22835 9.05968 7.91039C8.88574 7.12166 8.67222 6.32853 8.30717 5.62768C7.71087 4.483 6.69374 4.11816 5.88169 4.11816C5.1286 4.11816 4.56595 4.47471 4.12395 4.92396C4.00182 5.04811 3.86837 5.21538 3.73438 5.41194C4.11989 5.50479 4.48442 5.79499 4.5426 6.34494C4.55409 6.44979 4.63455 7.28262 4.90484 8.24775C4.98238 8.00577 5.09546 7.64742 5.35815 7.06875C5.48691 6.80377 5.60311 6.629 5.70793 6.52248C5.80407 6.42474 5.89064 6.38439 5.96861 6.38439C6.05268 6.38439 6.33972 6.46134 6.61917 7.44202C6.96576 8.65807 7.2237 10.5934 8.20638 11.6209C8.63978 12.0742 9.24631 12.3675 10.0869 12.3675C10.8245 12.3675 11.4395 12.0426 11.8779 11.5907C12.5988 10.8476 12.9938 9.6191 13.1347 9.16451C13.5357 7.87111 13.6481 6.70138 13.6611 6.57761C13.7357 5.87042 13.14 5.37828 12.546 5.37828Z" fill="url(#paint21_radial_237_7032)"/>
<path d="M12.546 5.37828C12.4629 5.37828 12.3794 5.38612 12.2974 5.40229C12.6871 5.96414 12.882 6.55277 12.882 6.8071C12.882 7.7318 12.1278 7.96764 11.8009 7.96764C11.5458 7.96764 11.351 7.90664 11.1965 7.80911C11.195 7.8149 11.1936 7.82063 11.1922 7.82642C11.1462 8.00993 11.11 8.21079 11.0472 8.40628C10.9265 8.78208 10.7637 9.21138 10.5899 9.54357C10.4025 9.90171 10.217 10.1112 9.99594 10.1002C9.74445 10.0878 9.54058 9.76362 9.28718 8.84755C9.20547 8.55221 9.1298 8.22835 9.05968 7.91039C8.88574 7.12166 8.67222 6.32853 8.30717 5.62768C7.71087 4.483 6.69374 4.11816 5.88169 4.11816C5.1286 4.11816 4.56595 4.47471 4.12395 4.92396C4.00182 5.04811 3.86837 5.21538 3.73438 5.41194C4.11989 5.50479 4.48442 5.79499 4.5426 6.34494C4.55409 6.44979 4.63455 7.28262 4.90484 8.24775C4.98238 8.00577 5.09546 7.64742 5.35815 7.06875C5.48691 6.80377 5.60311 6.629 5.70793 6.52248C5.80407 6.42474 5.89064 6.38439 5.96861 6.38439C6.05268 6.38439 6.33972 6.46134 6.61917 7.44202C6.96576 8.65807 7.2237 10.5934 8.20638 11.6209C8.63978 12.0742 9.24631 12.3675 10.0869 12.3675C10.8245 12.3675 11.4395 12.0426 11.8779 11.5907C12.5988 10.8476 12.9938 9.6191 13.1347 9.16451C13.5357 7.87111 13.6481 6.70138 13.6611 6.57761C13.7357 5.87042 13.14 5.37828 12.546 5.37828Z" fill="url(#paint22_radial_237_7032)"/>
<path d="M12.546 5.37828C12.4629 5.37828 12.3794 5.38612 12.2974 5.40229C12.6871 5.96414 12.882 6.55277 12.882 6.8071C12.882 7.7318 12.1278 7.96764 11.8009 7.96764C11.5458 7.96764 11.351 7.90664 11.1965 7.80911C11.195 7.8149 11.1936 7.82063 11.1922 7.82642C11.1462 8.00993 11.11 8.21079 11.0472 8.40628C10.9265 8.78208 10.7637 9.21138 10.5899 9.54357C10.4025 9.90171 10.217 10.1112 9.99594 10.1002C9.74445 10.0878 9.54058 9.76362 9.28718 8.84755C9.20547 8.55221 9.1298 8.22835 9.05968 7.91039C8.88574 7.12166 8.67222 6.32853 8.30717 5.62768C7.71087 4.483 6.69374 4.11816 5.88169 4.11816C5.1286 4.11816 4.56595 4.47471 4.12395 4.92396C4.00182 5.04811 3.86837 5.21538 3.73438 5.41194C4.11989 5.50479 4.48442 5.79499 4.5426 6.34494C4.55409 6.44979 4.63455 7.28262 4.90484 8.24775C4.98238 8.00577 5.09546 7.64742 5.35815 7.06875C5.48691 6.80377 5.60311 6.629 5.70793 6.52248C5.80407 6.42474 5.89064 6.38439 5.96861 6.38439C6.05268 6.38439 6.33972 6.46134 6.61917 7.44202C6.96576 8.65807 7.2237 10.5934 8.20638 11.6209C8.63978 12.0742 9.24631 12.3675 10.0869 12.3675C10.8245 12.3675 11.4395 12.0426 11.8779 11.5907C12.5988 10.8476 12.9938 9.6191 13.1347 9.16451C13.5357 7.87111 13.6481 6.70138 13.6611 6.57761C13.7357 5.87042 13.14 5.37828 12.546 5.37828Z" fill="url(#paint23_radial_237_7032)"/>
<path d="M12.546 5.37828C12.4629 5.37828 12.3794 5.38612 12.2974 5.40229C12.6871 5.96414 12.882 6.55277 12.882 6.8071C12.882 7.7318 12.1278 7.96764 11.8009 7.96764C11.5458 7.96764 11.351 7.90664 11.1965 7.80911C11.195 7.8149 11.1936 7.82063 11.1922 7.82642C11.1462 8.00993 11.11 8.21079 11.0472 8.40628C10.9265 8.78208 10.7637 9.21138 10.5899 9.54357C10.4025 9.90171 10.217 10.1112 9.99594 10.1002C9.74445 10.0878 9.54058 9.76362 9.28718 8.84755C9.20547 8.55221 9.1298 8.22835 9.05968 7.91039C8.88574 7.12166 8.67222 6.32853 8.30717 5.62768C7.71087 4.483 6.69374 4.11816 5.88169 4.11816C5.1286 4.11816 4.56595 4.47471 4.12395 4.92396C4.00182 5.04811 3.86837 5.21538 3.73438 5.41194C4.11989 5.50479 4.48442 5.79499 4.5426 6.34494C4.55409 6.44979 4.63455 7.28262 4.90484 8.24775C4.98238 8.00577 5.09546 7.64742 5.35815 7.06875C5.48691 6.80377 5.60311 6.629 5.70793 6.52248C5.80407 6.42474 5.89064 6.38439 5.96861 6.38439C6.05268 6.38439 6.33972 6.46134 6.61917 7.44202C6.96576 8.65807 7.2237 10.5934 8.20638 11.6209C8.63978 12.0742 9.24631 12.3675 10.0869 12.3675C10.8245 12.3675 11.4395 12.0426 11.8779 11.5907C12.5988 10.8476 12.9938 9.6191 13.1347 9.16451C13.5357 7.87111 13.6481 6.70138 13.6611 6.57761C13.7357 5.87042 13.14 5.37828 12.546 5.37828Z" fill="url(#paint24_radial_237_7032)"/>
<path d="M5.85047 12.3348C3.75194 12.3348 3.03768 9.68079 2.87764 9.1645C2.47573 7.86802 2.35355 6.70016 2.34061 6.57761C2.26598 5.87042 2.83317 5.37828 3.45566 5.37828C3.92699 5.37828 4.47402 5.66044 4.5465 6.34501C4.55909 6.46013 4.65489 7.45319 4.99388 8.53521C5.34765 9.66445 5.72293 10.0988 5.99318 10.0988C6.42963 10.0988 6.6959 8.97777 6.93131 7.91039C7.10476 7.12398 7.29223 6.33158 7.66238 5.62768C8.30631 4.40313 9.27939 4.11816 10.12 4.11816C11.9633 4.11816 12.8859 6.25382 12.8859 6.80717C12.8859 7.73184 12.1317 7.96771 11.8048 7.96771C11.0899 7.96771 10.8475 7.48865 10.6435 7.06875C10.46 6.691 10.2684 6.37693 10.0206 6.37693C9.93922 6.37693 9.86375 6.41815 9.79397 6.4891C9.17814 7.115 8.97166 10.3895 7.74034 11.641C7.05771 12.3348 6.31499 12.3348 5.85047 12.3348Z" fill="url(#paint25_linear_237_7032)"/>
<path d="M5.85047 12.3348C3.75194 12.3348 3.03768 9.68079 2.87764 9.1645C2.47573 7.86802 2.35355 6.70016 2.34061 6.57761C2.26598 5.87042 2.83317 5.37828 3.45566 5.37828C3.92699 5.37828 4.47402 5.66044 4.5465 6.34501C4.55909 6.46013 4.65489 7.45319 4.99388 8.53521C5.34765 9.66445 5.72293 10.0988 5.99318 10.0988C6.42963 10.0988 6.6959 8.97777 6.93131 7.91039C7.10476 7.12398 7.29223 6.33158 7.66238 5.62768C8.30631 4.40313 9.27939 4.11816 10.12 4.11816C11.9633 4.11816 12.8859 6.25382 12.8859 6.80717C12.8859 7.73184 12.1317 7.96771 11.8048 7.96771C11.0899 7.96771 10.8475 7.48865 10.6435 7.06875C10.46 6.691 10.2684 6.37693 10.0206 6.37693C9.93922 6.37693 9.86375 6.41815 9.79397 6.4891C9.17814 7.115 8.97166 10.3895 7.74034 11.641C7.05771 12.3348 6.31499 12.3348 5.85047 12.3348Z" fill="url(#paint26_radial_237_7032)"/>
<path d="M5.85047 12.3348C3.75194 12.3348 3.03768 9.68079 2.87764 9.1645C2.47573 7.86802 2.35355 6.70016 2.34061 6.57761C2.26598 5.87042 2.83317 5.37828 3.45566 5.37828C3.92699 5.37828 4.47402 5.66044 4.5465 6.34501C4.55909 6.46013 4.65489 7.45319 4.99388 8.53521C5.34765 9.66445 5.72293 10.0988 5.99318 10.0988C6.42963 10.0988 6.6959 8.97777 6.93131 7.91039C7.10476 7.12398 7.29223 6.33158 7.66238 5.62768C8.30631 4.40313 9.27939 4.11816 10.12 4.11816C11.9633 4.11816 12.8859 6.25382 12.8859 6.80717C12.8859 7.73184 12.1317 7.96771 11.8048 7.96771C11.0899 7.96771 10.8475 7.48865 10.6435 7.06875C10.46 6.691 10.2684 6.37693 10.0206 6.37693C9.93922 6.37693 9.86375 6.41815 9.79397 6.4891C9.17814 7.115 8.97166 10.3895 7.74034 11.641C7.05771 12.3348 6.31499 12.3348 5.85047 12.3348Z" fill="url(#paint27_linear_237_7032)"/>
<path d="M5.85047 12.3348C3.75194 12.3348 3.03768 9.68079 2.87764 9.1645C2.47573 7.86802 2.35355 6.70016 2.34061 6.57761C2.26598 5.87042 2.83317 5.37828 3.45566 5.37828C3.92699 5.37828 4.47402 5.66044 4.5465 6.34501C4.55909 6.46013 4.65489 7.45319 4.99388 8.53521C5.34765 9.66445 5.72293 10.0988 5.99318 10.0988C6.42963 10.0988 6.6959 8.97777 6.93131 7.91039C7.10476 7.12398 7.29223 6.33158 7.66238 5.62768C8.30631 4.40313 9.27939 4.11816 10.12 4.11816C11.9633 4.11816 12.8859 6.25382 12.8859 6.80717C12.8859 7.73184 12.1317 7.96771 11.8048 7.96771C11.0899 7.96771 10.8475 7.48865 10.6435 7.06875C10.46 6.691 10.2684 6.37693 10.0206 6.37693C9.93922 6.37693 9.86375 6.41815 9.79397 6.4891C9.17814 7.115 8.97166 10.3895 7.74034 11.641C7.05771 12.3348 6.31499 12.3348 5.85047 12.3348Z" fill="url(#paint28_linear_237_7032)"/>
<path d="M5.85047 12.3348C3.75194 12.3348 3.03768 9.68079 2.87764 9.1645C2.47573 7.86802 2.35355 6.70016 2.34061 6.57761C2.26598 5.87042 2.83317 5.37828 3.45566 5.37828C3.92699 5.37828 4.47402 5.66044 4.5465 6.34501C4.55909 6.46013 4.65489 7.45319 4.99388 8.53521C5.34765 9.66445 5.72293 10.0988 5.99318 10.0988C6.42963 10.0988 6.6959 8.97777 6.93131 7.91039C7.10476 7.12398 7.29223 6.33158 7.66238 5.62768C8.30631 4.40313 9.27939 4.11816 10.12 4.11816C11.9633 4.11816 12.8859 6.25382 12.8859 6.80717C12.8859 7.73184 12.1317 7.96771 11.8048 7.96771C11.0899 7.96771 10.8475 7.48865 10.6435 7.06875C10.46 6.691 10.2684 6.37693 10.0206 6.37693C9.93922 6.37693 9.86375 6.41815 9.79397 6.4891C9.17814 7.115 8.97166 10.3895 7.74034 11.641C7.05771 12.3348 6.31499 12.3348 5.85047 12.3348Z" fill="url(#paint29_radial_237_7032)"/>
</g>
<defs>
<linearGradient id="paint0_linear_237_7032" x1="11.7376" y1="6.52893" x2="4.3243" y2="8.96014" gradientUnits="userSpaceOnUse">
<stop stop-color="#5CEE64"/>
<stop offset="1" stop-color="#00BBFF"/>
</linearGradient>
<radialGradient id="paint1_radial_237_7032" cx="0" cy="0" r="1" gradientUnits="userSpaceOnUse" gradientTransform="translate(6.64774 8.49992) rotate(-120.86) scale(4.85651 4.07698)">
<stop stop-color="#007383"/>
<stop offset="0.407867" stop-color="#00717E" stop-opacity="0.75"/>
<stop offset="0.874482" stop-color="#007281" stop-opacity="0"/>
</radialGradient>
<radialGradient id="paint2_radial_237_7032" cx="0" cy="0" r="1" gradientUnits="userSpaceOnUse" gradientTransform="translate(9.83863 7.59628) rotate(-126.734) scale(3.96068 2.60237)">
<stop stop-color="#218970"/>
<stop offset="0.459527" stop-color="#267E6A"/>
<stop offset="1" stop-color="#026C51" stop-opacity="0"/>
</radialGradient>
<radialGradient id="paint3_radial_237_7032" cx="0" cy="0" r="1" gradientUnits="userSpaceOnUse" gradientTransform="translate(6.36808 8.72937) rotate(-107.468) scale(3.22575 1.68053)">
<stop stop-color="#178697"/>
<stop offset="0.407867" stop-color="#17838F" stop-opacity="0.79"/>
<stop offset="0.874482" stop-color="#007281" stop-opacity="0"/>
</radialGradient>
<radialGradient id="paint4_radial_237_7032" cx="0" cy="0" r="1" gradientUnits="userSpaceOnUse" gradientTransform="translate(7.80224 8.71216) rotate(-120.86) scale(8.19171 2.52686)">
<stop stop-color="#25342F" stop-opacity="0.3"/>
<stop offset="1" stop-color="#25342F" stop-opacity="0"/>
</radialGradient>
<radialGradient id="paint5_radial_237_7032" cx="0" cy="0" r="1" gradientUnits="userSpaceOnUse" gradientTransform="translate(9.26346 7.68611) rotate(85.0979) scale(3.08523 1.7499)">
<stop stop-color="#056D4F"/>
<stop offset="0.232593" stop-color="#056C4E" stop-opacity="0.75"/>
<stop offset="0.598902" stop-color="#056C4E" stop-opacity="0.300824"/>
<stop offset="0.874482" stop-color="#056C4F" stop-opacity="0"/>
</radialGradient>
<radialGradient id="paint6_radial_237_7032" cx="0" cy="0" r="1" gradientUnits="userSpaceOnUse" gradientTransform="translate(9.39992 2.69645) rotate(57.0774) scale(3.62675 1.90223)">
<stop stop-color="#22B67B"/>
<stop offset="0.407867" stop-color="#24BE82"/>
<stop offset="1" stop-color="#24BE82" stop-opacity="0.07"/>
</radialGradient>
<linearGradient id="paint7_linear_237_7032" x1="-0.454505" y1="8.15479" x2="4.79913" y2="8.19799" gradientUnits="userSpaceOnUse">
<stop stop-color="#09F8FF"/>
<stop offset="1" stop-color="#0BF7F9" stop-opacity="0"/>
</linearGradient>
<radialGradient id="paint8_radial_237_7032" cx="0" cy="0" r="1" gradientUnits="userSpaceOnUse" gradientTransform="translate(0.674139 3.42279) rotate(49.6506) scale(4.73674 4.72491)">
<stop stop-color="#09F8FF"/>
<stop offset="1" stop-color="#0BF7F9" stop-opacity="0"/>
</radialGradient>
<radialGradient id="paint9_radial_237_7032" cx="0" cy="0" r="1" gradientUnits="userSpaceOnUse" gradientTransform="translate(4.46769 1.03798) rotate(48.0118) scale(9.60703 9.5919)">
<stop stop-color="#00B8FF"/>
<stop offset="0.745423" stop-color="#00B9FC" stop-opacity="0"/>
</radialGradient>
<radialGradient id="paint10_radial_237_7032" cx="0" cy="0" r="1" gradientUnits="userSpaceOnUse" gradientTransform="translate(4.97705 8.24368) rotate(-107.468) scale(4.63071 3.20857)">
<stop stop-color="#00BCFF" stop-opacity="0.76"/>
<stop offset="0.57273" stop-color="#00BAFC" stop-opacity="0"/>
</radialGradient>
<radialGradient id="paint11_radial_237_7032" cx="0" cy="0" r="1" gradientUnits="userSpaceOnUse" gradientTransform="translate(12.017 6.48494) rotate(-129.551) scale(3.27456 2.29252)">
<stop stop-color="#5FEC50"/>
<stop offset="1" stop-color="#3CC08E" stop-opacity="0"/>
</radialGradient>
<radialGradient id="paint12_radial_237_7032" cx="0" cy="0" r="1" gradientUnits="userSpaceOnUse" gradientTransform="translate(11.5483 8.59405) rotate(-79.0944) scale(0.991364 0.685671)">
<stop stop-color="#28855B"/>
<stop offset="1" stop-color="#14795C" stop-opacity="0"/>
</radialGradient>
<radialGradient id="paint13_radial_237_7032" cx="0" cy="0" r="1" gradientUnits="userSpaceOnUse" gradientTransform="translate(11.5005 8.52109) rotate(-77.8798) scale(0.817266 1.14216)">
<stop stop-color="#28855B"/>
<stop offset="1" stop-color="#14795C" stop-opacity="0"/>
</radialGradient>
<radialGradient id="paint14_radial_237_7032" cx="0" cy="0" r="1" gradientUnits="userSpaceOnUse" gradientTransform="translate(12.4741 7.04873) rotate(-132.79) scale(2.71107 1.90455)">
<stop stop-color="#5FF05B"/>
<stop offset="0.813285" stop-color="#5DE955" stop-opacity="0"/>
</radialGradient>
<radialGradient id="paint15_radial_237_7032" cx="0" cy="0" r="1" gradientUnits="userSpaceOnUse" gradientTransform="translate(11.6263 7.82746) rotate(37.4559) scale(2.41103 3.35129)">
<stop stop-color="#123AA8"/>
<stop offset="0.966119" stop-color="#123AA8" stop-opacity="0"/>
</radialGradient>
<radialGradient id="paint16_radial_237_7032" cx="0" cy="0" r="1" gradientUnits="userSpaceOnUse" gradientTransform="translate(11.0265 8.09921) rotate(8.48611) scale(2.8448 4.24627)">
<stop stop-color="#123AA8"/>
<stop offset="0.592487" stop-color="#123AA8" stop-opacity="0"/>
</radialGradient>
<radialGradient id="paint17_radial_237_7032" cx="0" cy="0" r="1" gradientUnits="userSpaceOnUse" gradientTransform="translate(11.2573 8.45211) rotate(24.6631) scale(2.43006 4.33013)">
<stop stop-color="#123AA8"/>
<stop offset="0.756788" stop-color="#123AA8" stop-opacity="0"/>
</radialGradient>
<radialGradient id="paint18_radial_237_7032" cx="0" cy="0" r="1" gradientUnits="userSpaceOnUse" gradientTransform="translate(10.9719 8.59607) rotate(95.8028) scale(4.36847 2.39397)">
<stop stop-color="#123AA8"/>
<stop offset="0.592487" stop-color="#123AA8" stop-opacity="0"/>
<stop offset="1" stop-color="#123AA8" stop-opacity="0"/>
</radialGradient>
<radialGradient id="paint19_radial_237_7032" cx="0" cy="0" r="1" gradientUnits="userSpaceOnUse" gradientTransform="translate(11.6263 6.66741) rotate(93.6671) scale(5.25733 1.87621)">
<stop stop-color="#123AA8"/>
<stop offset="0.884611" stop-color="#123AA8" stop-opacity="0"/>
</radialGradient>
<radialGradient id="paint20_radial_237_7032" cx="0" cy="0" r="1" gradientUnits="userSpaceOnUse" gradientTransform="translate(5.66827 7.76053) rotate(84.8296) scale(2.78977 1.47799)">
<stop stop-color="#123AA8"/>
<stop offset="0.884611" stop-color="#123AA8" stop-opacity="0"/>
</radialGradient>
<radialGradient id="paint21_radial_237_7032" cx="0" cy="0" r="1" gradientUnits="userSpaceOnUse" gradientTransform="translate(5.66626 7.83558) rotate(87.2504) scale(2.91156 2.40375)">
<stop stop-color="#123AA8"/>
<stop offset="0.884611" stop-color="#123AA8" stop-opacity="0"/>
</radialGradient>
<radialGradient id="paint22_radial_237_7032" cx="0" cy="0" r="1" gradientUnits="userSpaceOnUse" gradientTransform="translate(6.32869 10.5714) rotate(-23.1725) scale(3.24692 6.3466)">
<stop stop-color="#123AA8"/>
<stop offset="0.708977" stop-color="#123AA8" stop-opacity="0"/>
</radialGradient>
<radialGradient id="paint23_radial_237_7032" cx="0" cy="0" r="1" gradientUnits="userSpaceOnUse" gradientTransform="translate(5.17343 7.12371) rotate(-159.526) scale(2.15113 3.68331)">
<stop stop-color="#1A3DA0"/>
<stop offset="0.708977" stop-color="#123AA8" stop-opacity="0"/>
</radialGradient>
<radialGradient id="paint24_radial_237_7032" cx="0" cy="0" r="1" gradientUnits="userSpaceOnUse" gradientTransform="translate(3.27988 7.85584) rotate(16.749) scale(4.1028 4.14176)">
<stop stop-color="#1E3882"/>
<stop offset="0.761404" stop-color="#123AA8" stop-opacity="0"/>
</radialGradient>
<linearGradient id="paint25_linear_237_7032" x1="1.99279" y1="5.58653" x2="6.03572" y2="8.16693" gradientUnits="userSpaceOnUse">
<stop offset="0.229329" stop-color="#1DC4FF"/>
<stop offset="1" stop-color="#1CC1FF" stop-opacity="0"/>
</linearGradient>
<radialGradient id="paint26_radial_237_7032" cx="0" cy="0" r="1" gradientUnits="userSpaceOnUse" gradientTransform="translate(0.673897 3.4226) rotate(49.6506) scale(4.73674 4.72491)">
<stop stop-color="#09F8FF"/>
<stop offset="1" stop-color="#0BF7F9" stop-opacity="0"/>
</radialGradient>
<linearGradient id="paint27_linear_237_7032" x1="2.21626" y1="5.71835" x2="3.35029" y2="6.74641" gradientUnits="userSpaceOnUse">
<stop stop-color="#26FBFF"/>
<stop offset="0.637346" stop-color="#0BF7F9" stop-opacity="0"/>
</linearGradient>
<linearGradient id="paint28_linear_237_7032" x1="1.91497" y1="6.50524" x2="3.48353" y2="6.61713" gradientUnits="userSpaceOnUse">
<stop stop-color="#26FBFF"/>
<stop offset="0.637346" stop-color="#0BF7F9" stop-opacity="0"/>
</linearGradient>
<radialGradient id="paint29_radial_237_7032" cx="0" cy="0" r="1" gradientUnits="userSpaceOnUse" gradientTransform="translate(4.97691 8.24372) rotate(-107.468) scale(4.63071 3.20857)">
<stop stop-color="#00BCFF" stop-opacity="0.76"/>
<stop offset="0.57273" stop-color="#00BAFC" stop-opacity="0"/>
</radialGradient>
</defs>
</svg>
