<svg width="20" height="20" viewBox="0 0 20 20" fill="none" xmlns="http://www.w3.org/2000/svg">
<mask id="path-1-inside-1_237_6996" fill="white">
<path d="M0 5C0 2.23858 2.23858 0 5 0H15C17.7614 0 20 2.23858 20 5V15C20 17.7614 17.7614 20 15 20H5C2.23858 20 0 17.7614 0 15V5Z"/>
</mask>
<path d="M0 5C0 2.23858 2.23858 0 5 0H15C17.7614 0 20 2.23858 20 5V15C20 17.7614 17.7614 20 15 20H5C2.23858 20 0 17.7614 0 15V5Z" fill="white"/>
<path d="M5 0V1H15V0V-1H5V0ZM20 5H19V15H20H21V5H20ZM15 20V19H5V20V21H15V20ZM0 15H1V5H0H-1V15H0ZM5 20V19C2.79086 19 1 17.2091 1 15H0H-1C-1 18.3137 1.68629 21 5 21V20ZM20 15H19C19 17.2091 17.2091 19 15 19V20V21C18.3137 21 21 18.3137 21 15H20ZM15 0V1C17.2091 1 19 2.79086 19 5H20H21C21 1.68629 18.3137 -1 15 -1V0ZM5 0V-1C1.68629 -1 -1 1.68629 -1 5H0H1C1 2.79086 2.79086 1 5 1V0Z" fill="#0B1228" fill-opacity="0.14" mask="url(#path-1-inside-1_237_6996)"/>
<mask id="mask0_237_6996" style="mask-type:luminance" maskUnits="userSpaceOnUse" x="4" y="6" width="12" height="9">
<path d="M16 6H4V14.7346H16V6Z" fill="white"/>
</mask>
<g mask="url(#mask0_237_6996)">
<path d="M7.72334 14.7C5.50137 14.7 4.74509 11.8898 4.57563 11.3432C4.15008 9.97044 4.02071 8.73388 4.00702 8.60412C3.928 7.85533 4.52855 7.33424 5.18766 7.33424C5.68671 7.33424 6.26592 7.633 6.34266 8.35783C6.35596 8.47973 6.45743 9.5312 6.81636 10.6769C7.19094 11.8725 7.58829 12.3324 7.87444 12.3324C8.33657 12.3324 8.61849 11.1455 8.86776 10.0153C9.05141 9.18263 9.24991 8.34361 9.64183 7.59831C10.3236 6.30173 11.354 6 12.244 6C14.1958 6 15.1726 8.26129 15.1726 8.84718C15.1726 9.82624 14.374 10.076 14.0279 10.076C13.2709 10.076 13.0143 9.56875 12.7983 9.12415C12.604 8.72418 12.4011 8.39163 12.1388 8.39163C12.0526 8.39163 11.9727 8.43528 11.8988 8.5104C11.2468 9.17312 11.0281 12.6402 9.72438 13.9653C9.0016 14.7 8.21519 14.7 7.72334 14.7Z" fill="url(#paint0_linear_237_6996)"/>
<path d="M7.72334 14.7C5.50137 14.7 4.74509 11.8898 4.57563 11.3432C4.15008 9.97044 4.02071 8.73388 4.00702 8.60412C3.928 7.85533 4.52855 7.33424 5.18766 7.33424C5.68671 7.33424 6.26592 7.633 6.34266 8.35783C6.35596 8.47973 6.45743 9.5312 6.81636 10.6769C7.19094 11.8725 7.58829 12.3324 7.87444 12.3324C8.33657 12.3324 8.61849 11.1455 8.86776 10.0153C9.05141 9.18263 9.24991 8.34361 9.64183 7.59831C10.3236 6.30173 11.354 6 12.244 6C14.1958 6 15.1726 8.26129 15.1726 8.84718C15.1726 9.82624 14.374 10.076 14.0279 10.076C13.2709 10.076 13.0143 9.56875 12.7983 9.12415C12.604 8.72418 12.4011 8.39163 12.1388 8.39163C12.0526 8.39163 11.9727 8.43528 11.8988 8.5104C11.2468 9.17312 11.0281 12.6402 9.72438 13.9653C9.0016 14.7 8.21519 14.7 7.72334 14.7Z" fill="url(#paint1_radial_237_6996)"/>
<path d="M7.72334 14.7C5.50137 14.7 4.74509 11.8898 4.57563 11.3432C4.15008 9.97044 4.02071 8.73388 4.00702 8.60412C3.928 7.85533 4.52855 7.33424 5.18766 7.33424C5.68671 7.33424 6.26592 7.633 6.34266 8.35783C6.35596 8.47973 6.45743 9.5312 6.81636 10.6769C7.19094 11.8725 7.58829 12.3324 7.87444 12.3324C8.33657 12.3324 8.61849 11.1455 8.86776 10.0153C9.05141 9.18263 9.24991 8.34361 9.64183 7.59831C10.3236 6.30173 11.354 6 12.244 6C14.1958 6 15.1726 8.26129 15.1726 8.84718C15.1726 9.82624 14.374 10.076 14.0279 10.076C13.2709 10.076 13.0143 9.56875 12.7983 9.12415C12.604 8.72418 12.4011 8.39163 12.1388 8.39163C12.0526 8.39163 11.9727 8.43528 11.8988 8.5104C11.2468 9.17312 11.0281 12.6402 9.72438 13.9653C9.0016 14.7 8.21519 14.7 7.72334 14.7Z" fill="url(#paint2_radial_237_6996)"/>
<path d="M7.72334 14.7C5.50137 14.7 4.74509 11.8898 4.57563 11.3432C4.15008 9.97044 4.02071 8.73388 4.00702 8.60412C3.928 7.85533 4.52855 7.33424 5.18766 7.33424C5.68671 7.33424 6.26592 7.633 6.34266 8.35783C6.35596 8.47973 6.45743 9.5312 6.81636 10.6769C7.19094 11.8725 7.58829 12.3324 7.87444 12.3324C8.33657 12.3324 8.61849 11.1455 8.86776 10.0153C9.05141 9.18263 9.24991 8.34361 9.64183 7.59831C10.3236 6.30173 11.354 6 12.244 6C14.1958 6 15.1726 8.26129 15.1726 8.84718C15.1726 9.82624 14.374 10.076 14.0279 10.076C13.2709 10.076 13.0143 9.56875 12.7983 9.12415C12.604 8.72418 12.4011 8.39163 12.1388 8.39163C12.0526 8.39163 11.9727 8.43528 11.8988 8.5104C11.2468 9.17312 11.0281 12.6402 9.72438 13.9653C9.0016 14.7 8.21519 14.7 7.72334 14.7Z" fill="url(#paint3_radial_237_6996)"/>
<path d="M7.72334 14.7C5.50137 14.7 4.74509 11.8898 4.57563 11.3432C4.15008 9.97044 4.02071 8.73388 4.00702 8.60412C3.928 7.85533 4.52855 7.33424 5.18766 7.33424C5.68671 7.33424 6.26592 7.633 6.34266 8.35783C6.35596 8.47973 6.45743 9.5312 6.81636 10.6769C7.19094 11.8725 7.58829 12.3324 7.87444 12.3324C8.33657 12.3324 8.61849 11.1455 8.86776 10.0153C9.05141 9.18263 9.24991 8.34361 9.64183 7.59831C10.3236 6.30173 11.354 6 12.244 6C14.1958 6 15.1726 8.26129 15.1726 8.84718C15.1726 9.82624 14.374 10.076 14.0279 10.076C13.2709 10.076 13.0143 9.56875 12.7983 9.12415C12.604 8.72418 12.4011 8.39163 12.1388 8.39163C12.0526 8.39163 11.9727 8.43528 11.8988 8.5104C11.2468 9.17312 11.0281 12.6402 9.72438 13.9653C9.0016 14.7 8.21519 14.7 7.72334 14.7Z" fill="url(#paint4_radial_237_6996)"/>
<path d="M7.72334 14.7C5.50137 14.7 4.74509 11.8898 4.57563 11.3432C4.15008 9.97044 4.02071 8.73388 4.00702 8.60412C3.928 7.85533 4.52855 7.33424 5.18766 7.33424C5.68671 7.33424 6.26592 7.633 6.34266 8.35783C6.35596 8.47973 6.45743 9.5312 6.81636 10.6769C7.19094 11.8725 7.58829 12.3324 7.87444 12.3324C8.33657 12.3324 8.61849 11.1455 8.86776 10.0153C9.05141 9.18263 9.24991 8.34361 9.64183 7.59831C10.3236 6.30173 11.354 6 12.244 6C14.1958 6 15.1726 8.26129 15.1726 8.84718C15.1726 9.82624 14.374 10.076 14.0279 10.076C13.2709 10.076 13.0143 9.56875 12.7983 9.12415C12.604 8.72418 12.4011 8.39163 12.1388 8.39163C12.0526 8.39163 11.9727 8.43528 11.8988 8.5104C11.2468 9.17312 11.0281 12.6402 9.72438 13.9653C9.0016 14.7 8.21519 14.7 7.72334 14.7Z" fill="url(#paint5_radial_237_6996)"/>
<path d="M7.72334 14.7C5.50137 14.7 4.74509 11.8898 4.57563 11.3432C4.15008 9.97044 4.02071 8.73388 4.00702 8.60412C3.928 7.85533 4.52855 7.33424 5.18766 7.33424C5.68671 7.33424 6.26592 7.633 6.34266 8.35783C6.35596 8.47973 6.45743 9.5312 6.81636 10.6769C7.19094 11.8725 7.58829 12.3324 7.87444 12.3324C8.33657 12.3324 8.61849 11.1455 8.86776 10.0153C9.05141 9.18263 9.24991 8.34361 9.64183 7.59831C10.3236 6.30173 11.354 6 12.244 6C14.1958 6 15.1726 8.26129 15.1726 8.84718C15.1726 9.82624 14.374 10.076 14.0279 10.076C13.2709 10.076 13.0143 9.56875 12.7983 9.12415C12.604 8.72418 12.4011 8.39163 12.1388 8.39163C12.0526 8.39163 11.9727 8.43528 11.8988 8.5104C11.2468 9.17312 11.0281 12.6402 9.72438 13.9653C9.0016 14.7 8.21519 14.7 7.72334 14.7Z" fill="url(#paint6_radial_237_6996)"/>
<path d="M7.72334 14.7C5.50137 14.7 4.74509 11.8898 4.57563 11.3432C4.15008 9.97044 4.02071 8.73388 4.00702 8.60412C3.928 7.85533 4.52855 7.33424 5.18766 7.33424C5.68671 7.33424 6.26592 7.633 6.34266 8.35783C6.35596 8.47973 6.45743 9.5312 6.81636 10.6769C7.19094 11.8725 7.58829 12.3324 7.87444 12.3324C8.33657 12.3324 8.61849 11.1455 8.86776 10.0153C9.05141 9.18263 9.24991 8.34361 9.64183 7.59831C10.3236 6.30173 11.354 6 12.244 6C14.1958 6 15.1726 8.26129 15.1726 8.84718C15.1726 9.82624 14.374 10.076 14.0279 10.076C13.2709 10.076 13.0143 9.56875 12.7983 9.12415C12.604 8.72418 12.4011 8.39163 12.1388 8.39163C12.0526 8.39163 11.9727 8.43528 11.8988 8.5104C11.2468 9.17312 11.0281 12.6402 9.72438 13.9653C9.0016 14.7 8.21519 14.7 7.72334 14.7Z" fill="url(#paint7_linear_237_6996)"/>
<path d="M7.72334 14.7C5.50137 14.7 4.74509 11.8898 4.57563 11.3432C4.15008 9.97044 4.02071 8.73388 4.00702 8.60412C3.928 7.85533 4.52855 7.33424 5.18766 7.33424C5.68671 7.33424 6.26592 7.633 6.34266 8.35783C6.35596 8.47973 6.45743 9.5312 6.81636 10.6769C7.19094 11.8725 7.58829 12.3324 7.87444 12.3324C8.33657 12.3324 8.61849 11.1455 8.86776 10.0153C9.05141 9.18263 9.24991 8.34361 9.64183 7.59831C10.3236 6.30173 11.354 6 12.244 6C14.1958 6 15.1726 8.26129 15.1726 8.84718C15.1726 9.82624 14.374 10.076 14.0279 10.076C13.2709 10.076 13.0143 9.56875 12.7983 9.12415C12.604 8.72418 12.4011 8.39163 12.1388 8.39163C12.0526 8.39163 11.9727 8.43528 11.8988 8.5104C11.2468 9.17312 11.0281 12.6402 9.72438 13.9653C9.0016 14.7 8.21519 14.7 7.72334 14.7Z" fill="url(#paint8_radial_237_6996)"/>
<path d="M12.2432 6C11.3531 6 10.3228 6.30173 9.64096 7.59831C9.24904 8.34361 9.05055 9.18263 8.86693 10.0153C8.80646 10.2893 8.74408 10.5666 8.67773 10.8296V14.5968C9.01455 14.5015 9.37638 14.3181 9.72355 13.9653C11.0273 12.6402 11.2459 9.17312 11.898 8.5104C11.9718 8.43528 12.0517 8.39163 12.1379 8.39163C12.4003 8.39163 12.6032 8.72418 12.7975 9.12415C13.0135 9.56875 13.2701 10.076 14.0271 10.076C14.3732 10.076 15.1717 9.82624 15.1717 8.84718C15.1717 8.26129 14.1949 6 12.2432 6Z" fill="url(#paint9_radial_237_6996)"/>
<path d="M7.72334 14.7C5.50137 14.7 4.74509 11.8898 4.57563 11.3432C4.15008 9.97044 4.02071 8.73388 4.00702 8.60412C3.928 7.85533 4.52855 7.33424 5.18766 7.33424C5.68671 7.33424 6.26592 7.633 6.34266 8.35783C6.35596 8.47973 6.45743 9.5312 6.81636 10.6769C7.19094 11.8725 7.58829 12.3324 7.87444 12.3324C8.33657 12.3324 8.61849 11.1455 8.86776 10.0153C9.05141 9.18263 9.24991 8.34361 9.64183 7.59831C10.3236 6.30173 11.354 6 12.244 6C14.1958 6 15.1726 8.26129 15.1726 8.84718C15.1726 9.82624 14.374 10.076 14.0279 10.076C13.2709 10.076 13.0143 9.56875 12.7983 9.12415C12.604 8.72418 12.4011 8.39163 12.1388 8.39163C12.0526 8.39163 11.9727 8.43528 11.8988 8.5104C11.2468 9.17312 11.0281 12.6402 9.72438 13.9653C9.0016 14.7 8.21519 14.7 7.72334 14.7Z" fill="url(#paint10_radial_237_6996)"/>
<path d="M7.72334 14.7C5.50137 14.7 4.74509 11.8898 4.57563 11.3432C4.15008 9.97044 4.02071 8.73388 4.00702 8.60412C3.928 7.85533 4.52855 7.33424 5.18766 7.33424C5.68671 7.33424 6.26592 7.633 6.34266 8.35783C6.35596 8.47973 6.45743 9.5312 6.81636 10.6769C7.19094 11.8725 7.58829 12.3324 7.87444 12.3324C8.33657 12.3324 8.61849 11.1455 8.86776 10.0153C9.05141 9.18263 9.24991 8.34361 9.64183 7.59831C10.3236 6.30173 11.354 6 12.244 6C14.1958 6 15.1726 8.26129 15.1726 8.84718C15.1726 9.82624 14.374 10.076 14.0279 10.076C13.2709 10.076 13.0143 9.56875 12.7983 9.12415C12.604 8.72418 12.4011 8.39163 12.1388 8.39163C12.0526 8.39163 11.9727 8.43528 11.8988 8.5104C11.2468 9.17312 11.0281 12.6402 9.72438 13.9653C9.0016 14.7 8.21519 14.7 7.72334 14.7Z" fill="url(#paint11_radial_237_6996)"/>
<path d="M7.72334 14.7C5.50137 14.7 4.74509 11.8898 4.57563 11.3432C4.15008 9.97044 4.02071 8.73388 4.00702 8.60412C3.928 7.85533 4.52855 7.33424 5.18766 7.33424C5.68671 7.33424 6.26592 7.633 6.34266 8.35783C6.35596 8.47973 6.45743 9.5312 6.81636 10.6769C7.19094 11.8725 7.58829 12.3324 7.87444 12.3324C8.33657 12.3324 8.61849 11.1455 8.86776 10.0153C9.05141 9.18263 9.24991 8.34361 9.64183 7.59831C10.3236 6.30173 11.354 6 12.244 6C14.1958 6 15.1726 8.26129 15.1726 8.84718C15.1726 9.82624 14.374 10.076 14.0279 10.076C13.2709 10.076 13.0143 9.56875 12.7983 9.12415C12.604 8.72418 12.4011 8.39163 12.1388 8.39163C12.0526 8.39163 11.9727 8.43528 11.8988 8.5104C11.2468 9.17312 11.0281 12.6402 9.72438 13.9653C9.0016 14.7 8.21519 14.7 7.72334 14.7Z" fill="url(#paint12_radial_237_6996)"/>
<path d="M7.72334 14.7C5.50137 14.7 4.74509 11.8898 4.57563 11.3432C4.15008 9.97044 4.02071 8.73388 4.00702 8.60412C3.928 7.85533 4.52855 7.33424 5.18766 7.33424C5.68671 7.33424 6.26592 7.633 6.34266 8.35783C6.35596 8.47973 6.45743 9.5312 6.81636 10.6769C7.19094 11.8725 7.58829 12.3324 7.87444 12.3324C8.33657 12.3324 8.61849 11.1455 8.86776 10.0153C9.05141 9.18263 9.24991 8.34361 9.64183 7.59831C10.3236 6.30173 11.354 6 12.244 6C14.1958 6 15.1726 8.26129 15.1726 8.84718C15.1726 9.82624 14.374 10.076 14.0279 10.076C13.2709 10.076 13.0143 9.56875 12.7983 9.12415C12.604 8.72418 12.4011 8.39163 12.1388 8.39163C12.0526 8.39163 11.9727 8.43528 11.8988 8.5104C11.2468 9.17312 11.0281 12.6402 9.72438 13.9653C9.0016 14.7 8.21519 14.7 7.72334 14.7Z" fill="url(#paint13_radial_237_6996)"/>
<path d="M7.72334 14.7C5.50137 14.7 4.74509 11.8898 4.57563 11.3432C4.15008 9.97044 4.02071 8.73388 4.00702 8.60412C3.928 7.85533 4.52855 7.33424 5.18766 7.33424C5.68671 7.33424 6.26592 7.633 6.34266 8.35783C6.35596 8.47973 6.45743 9.5312 6.81636 10.6769C7.19094 11.8725 7.58829 12.3324 7.87444 12.3324C8.33657 12.3324 8.61849 11.1455 8.86776 10.0153C9.05141 9.18263 9.24991 8.34361 9.64183 7.59831C10.3236 6.30173 11.354 6 12.244 6C14.1958 6 15.1726 8.26129 15.1726 8.84718C15.1726 9.82624 14.374 10.076 14.0279 10.076C13.2709 10.076 13.0143 9.56875 12.7983 9.12415C12.604 8.72418 12.4011 8.39163 12.1388 8.39163C12.0526 8.39163 11.9727 8.43528 11.8988 8.5104C11.2468 9.17312 11.0281 12.6402 9.72438 13.9653C9.0016 14.7 8.21519 14.7 7.72334 14.7Z" fill="url(#paint14_radial_237_6996)"/>
<path d="M14.8124 7.33424C14.7244 7.33424 14.6359 7.34255 14.5492 7.35967C14.9617 7.95456 15.1682 8.57782 15.1682 8.84711C15.1682 9.82621 14.3696 10.0759 14.0235 10.0759C13.7534 10.0759 13.547 10.0113 13.3835 9.90806C13.3819 9.91419 13.3805 9.92025 13.3789 9.92639C13.3303 10.1207 13.2919 10.3334 13.2254 10.5404C13.0977 10.9383 12.9253 11.3928 12.7412 11.7445C12.5428 12.1238 12.3464 12.3456 12.1123 12.334C11.846 12.3207 11.6302 11.9775 11.3619 11.0076C11.2754 10.6949 11.1952 10.352 11.121 10.0153C10.9368 9.18017 10.7107 8.34038 10.3242 7.59832C9.69283 6.3863 8.61586 6 7.75605 6C6.95866 6 6.36292 6.37752 5.89491 6.8532C5.7656 6.98465 5.6243 7.16176 5.48242 7.36988C5.89062 7.46819 6.27658 7.77546 6.33819 8.35776C6.35035 8.46878 6.43555 9.3506 6.72174 10.3725C6.80384 10.1163 6.92357 9.73686 7.20171 9.12415C7.33805 8.84358 7.46108 8.65853 7.57207 8.54575C7.67387 8.44226 7.76553 8.39953 7.84808 8.39953C7.9371 8.39953 8.24103 8.48101 8.53691 9.51937C8.90389 10.807 9.177 12.8561 10.2175 13.9441C10.6764 14.4241 11.3186 14.7346 12.2087 14.7346C12.9896 14.7346 13.6408 14.3906 14.105 13.9121C14.8683 13.1253 15.2866 11.8245 15.4358 11.3432C15.8603 9.97371 15.9793 8.73517 15.9931 8.60412C16.0721 7.85533 15.4413 7.33424 14.8124 7.33424Z" fill="#316AFF"/>
<path d="M14.8124 7.33424C14.7244 7.33424 14.6359 7.34255 14.5492 7.35967C14.9617 7.95456 15.1682 8.57782 15.1682 8.84711C15.1682 9.82621 14.3696 10.0759 14.0235 10.0759C13.7534 10.0759 13.547 10.0113 13.3835 9.90806C13.3819 9.91419 13.3805 9.92025 13.3789 9.92639C13.3303 10.1207 13.2919 10.3334 13.2254 10.5404C13.0977 10.9383 12.9253 11.3928 12.7412 11.7445C12.5428 12.1238 12.3464 12.3456 12.1123 12.334C11.846 12.3207 11.6302 11.9775 11.3619 11.0076C11.2754 10.6949 11.1952 10.352 11.121 10.0153C10.9368 9.18017 10.7107 8.34038 10.3242 7.59832C9.69283 6.3863 8.61586 6 7.75605 6C6.95866 6 6.36292 6.37752 5.89491 6.8532C5.7656 6.98465 5.6243 7.16176 5.48242 7.36988C5.89062 7.46819 6.27658 7.77546 6.33819 8.35776C6.35035 8.46878 6.43555 9.3506 6.72174 10.3725C6.80384 10.1163 6.92357 9.73686 7.20171 9.12415C7.33805 8.84358 7.46108 8.65853 7.57207 8.54575C7.67387 8.44226 7.76553 8.39953 7.84808 8.39953C7.9371 8.39953 8.24103 8.48101 8.53691 9.51937C8.90389 10.807 9.177 12.8561 10.2175 13.9441C10.6764 14.4241 11.3186 14.7346 12.2087 14.7346C12.9896 14.7346 13.6408 14.3906 14.105 13.9121C14.8683 13.1253 15.2866 11.8245 15.4358 11.3432C15.8603 9.97371 15.9793 8.73517 15.9931 8.60412C16.0721 7.85533 15.4413 7.33424 14.8124 7.33424Z" fill="url(#paint15_radial_237_6996)"/>
<path d="M14.8124 7.33424C14.7244 7.33424 14.6359 7.34255 14.5492 7.35967C14.9617 7.95456 15.1682 8.57782 15.1682 8.84711C15.1682 9.82621 14.3696 10.0759 14.0235 10.0759C13.7534 10.0759 13.547 10.0113 13.3835 9.90806C13.3819 9.91419 13.3805 9.92025 13.3789 9.92639C13.3303 10.1207 13.2919 10.3334 13.2254 10.5404C13.0977 10.9383 12.9253 11.3928 12.7412 11.7445C12.5428 12.1238 12.3464 12.3456 12.1123 12.334C11.846 12.3207 11.6302 11.9775 11.3619 11.0076C11.2754 10.6949 11.1952 10.352 11.121 10.0153C10.9368 9.18017 10.7107 8.34038 10.3242 7.59832C9.69283 6.3863 8.61586 6 7.75605 6C6.95866 6 6.36292 6.37752 5.89491 6.8532C5.7656 6.98465 5.6243 7.16176 5.48242 7.36988C5.89062 7.46819 6.27658 7.77546 6.33819 8.35776C6.35035 8.46878 6.43555 9.3506 6.72174 10.3725C6.80384 10.1163 6.92357 9.73686 7.20171 9.12415C7.33805 8.84358 7.46108 8.65853 7.57207 8.54575C7.67387 8.44226 7.76553 8.39953 7.84808 8.39953C7.9371 8.39953 8.24103 8.48101 8.53691 9.51937C8.90389 10.807 9.177 12.8561 10.2175 13.9441C10.6764 14.4241 11.3186 14.7346 12.2087 14.7346C12.9896 14.7346 13.6408 14.3906 14.105 13.9121C14.8683 13.1253 15.2866 11.8245 15.4358 11.3432C15.8603 9.97371 15.9793 8.73517 15.9931 8.60412C16.0721 7.85533 15.4413 7.33424 14.8124 7.33424Z" fill="url(#paint16_radial_237_6996)"/>
<path d="M14.8124 7.33424C14.7244 7.33424 14.6359 7.34255 14.5492 7.35967C14.9617 7.95456 15.1682 8.57782 15.1682 8.84711C15.1682 9.82621 14.3696 10.0759 14.0235 10.0759C13.7534 10.0759 13.547 10.0113 13.3835 9.90806C13.3819 9.91419 13.3805 9.92025 13.3789 9.92639C13.3303 10.1207 13.2919 10.3334 13.2254 10.5404C13.0977 10.9383 12.9253 11.3928 12.7412 11.7445C12.5428 12.1238 12.3464 12.3456 12.1123 12.334C11.846 12.3207 11.6302 11.9775 11.3619 11.0076C11.2754 10.6949 11.1952 10.352 11.121 10.0153C10.9368 9.18017 10.7107 8.34038 10.3242 7.59832C9.69283 6.3863 8.61586 6 7.75605 6C6.95866 6 6.36292 6.37752 5.89491 6.8532C5.7656 6.98465 5.6243 7.16176 5.48242 7.36988C5.89062 7.46819 6.27658 7.77546 6.33819 8.35776C6.35035 8.46878 6.43555 9.3506 6.72174 10.3725C6.80384 10.1163 6.92357 9.73686 7.20171 9.12415C7.33805 8.84358 7.46108 8.65853 7.57207 8.54575C7.67387 8.44226 7.76553 8.39953 7.84808 8.39953C7.9371 8.39953 8.24103 8.48101 8.53691 9.51937C8.90389 10.807 9.177 12.8561 10.2175 13.9441C10.6764 14.4241 11.3186 14.7346 12.2087 14.7346C12.9896 14.7346 13.6408 14.3906 14.105 13.9121C14.8683 13.1253 15.2866 11.8245 15.4358 11.3432C15.8603 9.97371 15.9793 8.73517 15.9931 8.60412C16.0721 7.85533 15.4413 7.33424 14.8124 7.33424Z" fill="url(#paint17_radial_237_6996)"/>
<path d="M14.8124 7.33424C14.7244 7.33424 14.6359 7.34255 14.5492 7.35967C14.9617 7.95456 15.1682 8.57782 15.1682 8.84711C15.1682 9.82621 14.3696 10.0759 14.0235 10.0759C13.7534 10.0759 13.547 10.0113 13.3835 9.90806C13.3819 9.91419 13.3805 9.92025 13.3789 9.92639C13.3303 10.1207 13.2919 10.3334 13.2254 10.5404C13.0977 10.9383 12.9253 11.3928 12.7412 11.7445C12.5428 12.1238 12.3464 12.3456 12.1123 12.334C11.846 12.3207 11.6302 11.9775 11.3619 11.0076C11.2754 10.6949 11.1952 10.352 11.121 10.0153C10.9368 9.18017 10.7107 8.34038 10.3242 7.59832C9.69283 6.3863 8.61586 6 7.75605 6C6.95866 6 6.36292 6.37752 5.89491 6.8532C5.7656 6.98465 5.6243 7.16176 5.48242 7.36988C5.89062 7.46819 6.27658 7.77546 6.33819 8.35776C6.35035 8.46878 6.43555 9.3506 6.72174 10.3725C6.80384 10.1163 6.92357 9.73686 7.20171 9.12415C7.33805 8.84358 7.46108 8.65853 7.57207 8.54575C7.67387 8.44226 7.76553 8.39953 7.84808 8.39953C7.9371 8.39953 8.24103 8.48101 8.53691 9.51937C8.90389 10.807 9.177 12.8561 10.2175 13.9441C10.6764 14.4241 11.3186 14.7346 12.2087 14.7346C12.9896 14.7346 13.6408 14.3906 14.105 13.9121C14.8683 13.1253 15.2866 11.8245 15.4358 11.3432C15.8603 9.97371 15.9793 8.73517 15.9931 8.60412C16.0721 7.85533 15.4413 7.33424 14.8124 7.33424Z" fill="url(#paint18_radial_237_6996)"/>
<path d="M14.8124 7.33424C14.7244 7.33424 14.6359 7.34255 14.5492 7.35967C14.9617 7.95456 15.1682 8.57782 15.1682 8.84711C15.1682 9.82621 14.3696 10.0759 14.0235 10.0759C13.7534 10.0759 13.547 10.0113 13.3835 9.90806C13.3819 9.91419 13.3805 9.92025 13.3789 9.92639C13.3303 10.1207 13.2919 10.3334 13.2254 10.5404C13.0977 10.9383 12.9253 11.3928 12.7412 11.7445C12.5428 12.1238 12.3464 12.3456 12.1123 12.334C11.846 12.3207 11.6302 11.9775 11.3619 11.0076C11.2754 10.6949 11.1952 10.352 11.121 10.0153C10.9368 9.18017 10.7107 8.34038 10.3242 7.59832C9.69283 6.3863 8.61586 6 7.75605 6C6.95866 6 6.36292 6.37752 5.89491 6.8532C5.7656 6.98465 5.6243 7.16176 5.48242 7.36988C5.89062 7.46819 6.27658 7.77546 6.33819 8.35776C6.35035 8.46878 6.43555 9.3506 6.72174 10.3725C6.80384 10.1163 6.92357 9.73686 7.20171 9.12415C7.33805 8.84358 7.46108 8.65853 7.57207 8.54575C7.67387 8.44226 7.76553 8.39953 7.84808 8.39953C7.9371 8.39953 8.24103 8.48101 8.53691 9.51937C8.90389 10.807 9.177 12.8561 10.2175 13.9441C10.6764 14.4241 11.3186 14.7346 12.2087 14.7346C12.9896 14.7346 13.6408 14.3906 14.105 13.9121C14.8683 13.1253 15.2866 11.8245 15.4358 11.3432C15.8603 9.97371 15.9793 8.73517 15.9931 8.60412C16.0721 7.85533 15.4413 7.33424 14.8124 7.33424Z" fill="url(#paint19_radial_237_6996)"/>
<path d="M14.8124 7.33424C14.7244 7.33424 14.6359 7.34255 14.5492 7.35967C14.9617 7.95456 15.1682 8.57782 15.1682 8.84711C15.1682 9.82621 14.3696 10.0759 14.0235 10.0759C13.7534 10.0759 13.547 10.0113 13.3835 9.90806C13.3819 9.91419 13.3805 9.92025 13.3789 9.92639C13.3303 10.1207 13.2919 10.3334 13.2254 10.5404C13.0977 10.9383 12.9253 11.3928 12.7412 11.7445C12.5428 12.1238 12.3464 12.3456 12.1123 12.334C11.846 12.3207 11.6302 11.9775 11.3619 11.0076C11.2754 10.6949 11.1952 10.352 11.121 10.0153C10.9368 9.18017 10.7107 8.34038 10.3242 7.59832C9.69283 6.3863 8.61586 6 7.75605 6C6.95866 6 6.36292 6.37752 5.89491 6.8532C5.7656 6.98465 5.6243 7.16176 5.48242 7.36988C5.89062 7.46819 6.27658 7.77546 6.33819 8.35776C6.35035 8.46878 6.43555 9.3506 6.72174 10.3725C6.80384 10.1163 6.92357 9.73686 7.20171 9.12415C7.33805 8.84358 7.46108 8.65853 7.57207 8.54575C7.67387 8.44226 7.76553 8.39953 7.84808 8.39953C7.9371 8.39953 8.24103 8.48101 8.53691 9.51937C8.90389 10.807 9.177 12.8561 10.2175 13.9441C10.6764 14.4241 11.3186 14.7346 12.2087 14.7346C12.9896 14.7346 13.6408 14.3906 14.105 13.9121C14.8683 13.1253 15.2866 11.8245 15.4358 11.3432C15.8603 9.97371 15.9793 8.73517 15.9931 8.60412C16.0721 7.85533 15.4413 7.33424 14.8124 7.33424Z" fill="url(#paint20_radial_237_6996)"/>
<path d="M14.8124 7.33424C14.7244 7.33424 14.6359 7.34255 14.5492 7.35967C14.9617 7.95456 15.1682 8.57782 15.1682 8.84711C15.1682 9.82621 14.3696 10.0759 14.0235 10.0759C13.7534 10.0759 13.547 10.0113 13.3835 9.90806C13.3819 9.91419 13.3805 9.92025 13.3789 9.92639C13.3303 10.1207 13.2919 10.3334 13.2254 10.5404C13.0977 10.9383 12.9253 11.3928 12.7412 11.7445C12.5428 12.1238 12.3464 12.3456 12.1123 12.334C11.846 12.3207 11.6302 11.9775 11.3619 11.0076C11.2754 10.6949 11.1952 10.352 11.121 10.0153C10.9368 9.18017 10.7107 8.34038 10.3242 7.59832C9.69283 6.3863 8.61586 6 7.75605 6C6.95866 6 6.36292 6.37752 5.89491 6.8532C5.7656 6.98465 5.6243 7.16176 5.48242 7.36988C5.89062 7.46819 6.27658 7.77546 6.33819 8.35776C6.35035 8.46878 6.43555 9.3506 6.72174 10.3725C6.80384 10.1163 6.92357 9.73686 7.20171 9.12415C7.33805 8.84358 7.46108 8.65853 7.57207 8.54575C7.67387 8.44226 7.76553 8.39953 7.84808 8.39953C7.9371 8.39953 8.24103 8.48101 8.53691 9.51937C8.90389 10.807 9.177 12.8561 10.2175 13.9441C10.6764 14.4241 11.3186 14.7346 12.2087 14.7346C12.9896 14.7346 13.6408 14.3906 14.105 13.9121C14.8683 13.1253 15.2866 11.8245 15.4358 11.3432C15.8603 9.97371 15.9793 8.73517 15.9931 8.60412C16.0721 7.85533 15.4413 7.33424 14.8124 7.33424Z" fill="url(#paint21_radial_237_6996)"/>
<path d="M14.8124 7.33424C14.7244 7.33424 14.6359 7.34255 14.5492 7.35967C14.9617 7.95456 15.1682 8.57782 15.1682 8.84711C15.1682 9.82621 14.3696 10.0759 14.0235 10.0759C13.7534 10.0759 13.547 10.0113 13.3835 9.90806C13.3819 9.91419 13.3805 9.92025 13.3789 9.92639C13.3303 10.1207 13.2919 10.3334 13.2254 10.5404C13.0977 10.9383 12.9253 11.3928 12.7412 11.7445C12.5428 12.1238 12.3464 12.3456 12.1123 12.334C11.846 12.3207 11.6302 11.9775 11.3619 11.0076C11.2754 10.6949 11.1952 10.352 11.121 10.0153C10.9368 9.18017 10.7107 8.34038 10.3242 7.59832C9.69283 6.3863 8.61586 6 7.75605 6C6.95866 6 6.36292 6.37752 5.89491 6.8532C5.7656 6.98465 5.6243 7.16176 5.48242 7.36988C5.89062 7.46819 6.27658 7.77546 6.33819 8.35776C6.35035 8.46878 6.43555 9.3506 6.72174 10.3725C6.80384 10.1163 6.92357 9.73686 7.20171 9.12415C7.33805 8.84358 7.46108 8.65853 7.57207 8.54575C7.67387 8.44226 7.76553 8.39953 7.84808 8.39953C7.9371 8.39953 8.24103 8.48101 8.53691 9.51937C8.90389 10.807 9.177 12.8561 10.2175 13.9441C10.6764 14.4241 11.3186 14.7346 12.2087 14.7346C12.9896 14.7346 13.6408 14.3906 14.105 13.9121C14.8683 13.1253 15.2866 11.8245 15.4358 11.3432C15.8603 9.97371 15.9793 8.73517 15.9931 8.60412C16.0721 7.85533 15.4413 7.33424 14.8124 7.33424Z" fill="url(#paint22_radial_237_6996)"/>
<path d="M14.8124 7.33424C14.7244 7.33424 14.6359 7.34255 14.5492 7.35967C14.9617 7.95456 15.1682 8.57782 15.1682 8.84711C15.1682 9.82621 14.3696 10.0759 14.0235 10.0759C13.7534 10.0759 13.547 10.0113 13.3835 9.90806C13.3819 9.91419 13.3805 9.92025 13.3789 9.92639C13.3303 10.1207 13.2919 10.3334 13.2254 10.5404C13.0977 10.9383 12.9253 11.3928 12.7412 11.7445C12.5428 12.1238 12.3464 12.3456 12.1123 12.334C11.846 12.3207 11.6302 11.9775 11.3619 11.0076C11.2754 10.6949 11.1952 10.352 11.121 10.0153C10.9368 9.18017 10.7107 8.34038 10.3242 7.59832C9.69283 6.3863 8.61586 6 7.75605 6C6.95866 6 6.36292 6.37752 5.89491 6.8532C5.7656 6.98465 5.6243 7.16176 5.48242 7.36988C5.89062 7.46819 6.27658 7.77546 6.33819 8.35776C6.35035 8.46878 6.43555 9.3506 6.72174 10.3725C6.80384 10.1163 6.92357 9.73686 7.20171 9.12415C7.33805 8.84358 7.46108 8.65853 7.57207 8.54575C7.67387 8.44226 7.76553 8.39953 7.84808 8.39953C7.9371 8.39953 8.24103 8.48101 8.53691 9.51937C8.90389 10.807 9.177 12.8561 10.2175 13.9441C10.6764 14.4241 11.3186 14.7346 12.2087 14.7346C12.9896 14.7346 13.6408 14.3906 14.105 13.9121C14.8683 13.1253 15.2866 11.8245 15.4358 11.3432C15.8603 9.97371 15.9793 8.73517 15.9931 8.60412C16.0721 7.85533 15.4413 7.33424 14.8124 7.33424Z" fill="url(#paint23_radial_237_6996)"/>
<path d="M14.8124 7.33424C14.7244 7.33424 14.6359 7.34255 14.5492 7.35967C14.9617 7.95456 15.1682 8.57782 15.1682 8.84711C15.1682 9.82621 14.3696 10.0759 14.0235 10.0759C13.7534 10.0759 13.547 10.0113 13.3835 9.90806C13.3819 9.91419 13.3805 9.92025 13.3789 9.92639C13.3303 10.1207 13.2919 10.3334 13.2254 10.5404C13.0977 10.9383 12.9253 11.3928 12.7412 11.7445C12.5428 12.1238 12.3464 12.3456 12.1123 12.334C11.846 12.3207 11.6302 11.9775 11.3619 11.0076C11.2754 10.6949 11.1952 10.352 11.121 10.0153C10.9368 9.18017 10.7107 8.34038 10.3242 7.59832C9.69283 6.3863 8.61586 6 7.75605 6C6.95866 6 6.36292 6.37752 5.89491 6.8532C5.7656 6.98465 5.6243 7.16176 5.48242 7.36988C5.89062 7.46819 6.27658 7.77546 6.33819 8.35776C6.35035 8.46878 6.43555 9.3506 6.72174 10.3725C6.80384 10.1163 6.92357 9.73686 7.20171 9.12415C7.33805 8.84358 7.46108 8.65853 7.57207 8.54575C7.67387 8.44226 7.76553 8.39953 7.84808 8.39953C7.9371 8.39953 8.24103 8.48101 8.53691 9.51937C8.90389 10.807 9.177 12.8561 10.2175 13.9441C10.6764 14.4241 11.3186 14.7346 12.2087 14.7346C12.9896 14.7346 13.6408 14.3906 14.105 13.9121C14.8683 13.1253 15.2866 11.8245 15.4358 11.3432C15.8603 9.97371 15.9793 8.73517 15.9931 8.60412C16.0721 7.85533 15.4413 7.33424 14.8124 7.33424Z" fill="url(#paint24_radial_237_6996)"/>
<path d="M7.72334 14.7C5.50137 14.7 4.74509 11.8898 4.57563 11.3432C4.15008 9.97044 4.02071 8.73388 4.00702 8.60412C3.928 7.85533 4.52855 7.33424 5.18766 7.33424C5.68671 7.33424 6.26592 7.633 6.34266 8.35783C6.356 8.47973 6.45743 9.5312 6.81636 10.6769C7.19094 11.8725 7.58829 12.3324 7.87444 12.3324C8.33657 12.3324 8.61849 11.1455 8.86776 10.0153C9.05141 9.18263 9.24991 8.34361 9.64183 7.59831C10.3236 6.30173 11.354 6 12.244 6C14.1958 6 15.1726 8.26129 15.1726 8.84718C15.1726 9.82624 14.374 10.076 14.0279 10.076C13.2709 10.076 13.0143 9.56875 12.7983 9.12415C12.604 8.72418 12.4011 8.39163 12.1388 8.39163C12.0526 8.39163 11.9727 8.43528 11.8988 8.5104C11.2468 9.17312 11.0281 12.6402 9.72438 13.9653C9.0016 14.7 8.21519 14.7 7.72334 14.7Z" fill="url(#paint25_linear_237_6996)"/>
<path d="M7.72334 14.7C5.50137 14.7 4.74509 11.8898 4.57563 11.3432C4.15008 9.97044 4.02071 8.73388 4.00702 8.60412C3.928 7.85533 4.52855 7.33424 5.18766 7.33424C5.68671 7.33424 6.26592 7.633 6.34266 8.35783C6.356 8.47973 6.45743 9.5312 6.81636 10.6769C7.19094 11.8725 7.58829 12.3324 7.87444 12.3324C8.33657 12.3324 8.61849 11.1455 8.86776 10.0153C9.05141 9.18263 9.24991 8.34361 9.64183 7.59831C10.3236 6.30173 11.354 6 12.244 6C14.1958 6 15.1726 8.26129 15.1726 8.84718C15.1726 9.82624 14.374 10.076 14.0279 10.076C13.2709 10.076 13.0143 9.56875 12.7983 9.12415C12.604 8.72418 12.4011 8.39163 12.1388 8.39163C12.0526 8.39163 11.9727 8.43528 11.8988 8.5104C11.2468 9.17312 11.0281 12.6402 9.72438 13.9653C9.0016 14.7 8.21519 14.7 7.72334 14.7Z" fill="url(#paint26_radial_237_6996)"/>
<path d="M7.72334 14.7C5.50137 14.7 4.74509 11.8898 4.57563 11.3432C4.15008 9.97044 4.02071 8.73388 4.00702 8.60412C3.928 7.85533 4.52855 7.33424 5.18766 7.33424C5.68671 7.33424 6.26592 7.633 6.34266 8.35783C6.356 8.47973 6.45743 9.5312 6.81636 10.6769C7.19094 11.8725 7.58829 12.3324 7.87444 12.3324C8.33657 12.3324 8.61849 11.1455 8.86776 10.0153C9.05141 9.18263 9.24991 8.34361 9.64183 7.59831C10.3236 6.30173 11.354 6 12.244 6C14.1958 6 15.1726 8.26129 15.1726 8.84718C15.1726 9.82624 14.374 10.076 14.0279 10.076C13.2709 10.076 13.0143 9.56875 12.7983 9.12415C12.604 8.72418 12.4011 8.39163 12.1388 8.39163C12.0526 8.39163 11.9727 8.43528 11.8988 8.5104C11.2468 9.17312 11.0281 12.6402 9.72438 13.9653C9.0016 14.7 8.21519 14.7 7.72334 14.7Z" fill="url(#paint27_linear_237_6996)"/>
<path d="M7.72334 14.7C5.50137 14.7 4.74509 11.8898 4.57563 11.3432C4.15008 9.97044 4.02071 8.73388 4.00702 8.60412C3.928 7.85533 4.52855 7.33424 5.18766 7.33424C5.68671 7.33424 6.26592 7.633 6.34266 8.35783C6.356 8.47973 6.45743 9.5312 6.81636 10.6769C7.19094 11.8725 7.58829 12.3324 7.87444 12.3324C8.33657 12.3324 8.61849 11.1455 8.86776 10.0153C9.05141 9.18263 9.24991 8.34361 9.64183 7.59831C10.3236 6.30173 11.354 6 12.244 6C14.1958 6 15.1726 8.26129 15.1726 8.84718C15.1726 9.82624 14.374 10.076 14.0279 10.076C13.2709 10.076 13.0143 9.56875 12.7983 9.12415C12.604 8.72418 12.4011 8.39163 12.1388 8.39163C12.0526 8.39163 11.9727 8.43528 11.8988 8.5104C11.2468 9.17312 11.0281 12.6402 9.72438 13.9653C9.0016 14.7 8.21519 14.7 7.72334 14.7Z" fill="url(#paint28_linear_237_6996)"/>
<path d="M7.72334 14.7C5.50137 14.7 4.74509 11.8898 4.57563 11.3432C4.15008 9.97044 4.02071 8.73388 4.00702 8.60412C3.928 7.85533 4.52855 7.33424 5.18766 7.33424C5.68671 7.33424 6.26592 7.633 6.34266 8.35783C6.356 8.47973 6.45743 9.5312 6.81636 10.6769C7.19094 11.8725 7.58829 12.3324 7.87444 12.3324C8.33657 12.3324 8.61849 11.1455 8.86776 10.0153C9.05141 9.18263 9.24991 8.34361 9.64183 7.59831C10.3236 6.30173 11.354 6 12.244 6C14.1958 6 15.1726 8.26129 15.1726 8.84718C15.1726 9.82624 14.374 10.076 14.0279 10.076C13.2709 10.076 13.0143 9.56875 12.7983 9.12415C12.604 8.72418 12.4011 8.39163 12.1388 8.39163C12.0526 8.39163 11.9727 8.43528 11.8988 8.5104C11.2468 9.17312 11.0281 12.6402 9.72438 13.9653C9.0016 14.7 8.21519 14.7 7.72334 14.7Z" fill="url(#paint29_radial_237_6996)"/>
</g>
<defs>
<linearGradient id="paint0_linear_237_6996" x1="13.9568" y1="8.55258" x2="6.10739" y2="11.1268" gradientUnits="userSpaceOnUse">
<stop stop-color="#5CEE64"/>
<stop offset="1" stop-color="#00BBFF"/>
</linearGradient>
<radialGradient id="paint1_radial_237_6996" cx="0" cy="0" r="1" gradientUnits="userSpaceOnUse" gradientTransform="translate(8.5675 10.6395) rotate(-120.86) scale(5.14219 4.3168)">
<stop stop-color="#007383"/>
<stop offset="0.407867" stop-color="#00717E" stop-opacity="0.75"/>
<stop offset="0.874482" stop-color="#007281" stop-opacity="0"/>
</radialGradient>
<radialGradient id="paint2_radial_237_6996" cx="0" cy="0" r="1" gradientUnits="userSpaceOnUse" gradientTransform="translate(11.9461 9.68271) rotate(-126.734) scale(4.19366 2.75545)">
<stop stop-color="#218970"/>
<stop offset="0.459527" stop-color="#267E6A"/>
<stop offset="1" stop-color="#026C51" stop-opacity="0"/>
</radialGradient>
<radialGradient id="paint3_radial_237_6996" cx="0" cy="0" r="1" gradientUnits="userSpaceOnUse" gradientTransform="translate(8.2714 10.8825) rotate(-107.468) scale(3.4155 1.77938)">
<stop stop-color="#178697"/>
<stop offset="0.407867" stop-color="#17838F" stop-opacity="0.79"/>
<stop offset="0.874482" stop-color="#007281" stop-opacity="0"/>
</radialGradient>
<radialGradient id="paint4_radial_237_6996" cx="0" cy="0" r="1" gradientUnits="userSpaceOnUse" gradientTransform="translate(9.78992 10.8642) rotate(-120.86) scale(8.67357 2.6755)">
<stop stop-color="#25342F" stop-opacity="0.3"/>
<stop offset="1" stop-color="#25342F" stop-opacity="0"/>
</radialGradient>
<radialGradient id="paint5_radial_237_6996" cx="0" cy="0" r="1" gradientUnits="userSpaceOnUse" gradientTransform="translate(11.3371 9.77782) rotate(85.0979) scale(3.26672 1.85284)">
<stop stop-color="#056D4F"/>
<stop offset="0.232593" stop-color="#056C4E" stop-opacity="0.75"/>
<stop offset="0.598902" stop-color="#056C4E" stop-opacity="0.300824"/>
<stop offset="0.874482" stop-color="#056C4F" stop-opacity="0"/>
</radialGradient>
<radialGradient id="paint6_radial_237_6996" cx="0" cy="0" r="1" gradientUnits="userSpaceOnUse" gradientTransform="translate(11.4816 4.49466) rotate(57.0774) scale(3.84009 2.01412)">
<stop stop-color="#22B67B"/>
<stop offset="0.407867" stop-color="#24BE82"/>
<stop offset="1" stop-color="#24BE82" stop-opacity="0.07"/>
</radialGradient>
<linearGradient id="paint7_linear_237_6996" x1="1.04748" y1="10.2741" x2="6.61015" y2="10.3198" gradientUnits="userSpaceOnUse">
<stop stop-color="#09F8FF"/>
<stop offset="1" stop-color="#0BF7F9" stop-opacity="0"/>
</linearGradient>
<radialGradient id="paint8_radial_237_6996" cx="0" cy="0" r="1" gradientUnits="userSpaceOnUse" gradientTransform="translate(2.24252 5.26373) rotate(49.6506) scale(5.01537 5.00284)">
<stop stop-color="#09F8FF"/>
<stop offset="1" stop-color="#0BF7F9" stop-opacity="0"/>
</radialGradient>
<radialGradient id="paint9_radial_237_6996" cx="0" cy="0" r="1" gradientUnits="userSpaceOnUse" gradientTransform="translate(6.2591 2.73863) rotate(48.0118) scale(10.1721 10.1561)">
<stop stop-color="#00B8FF"/>
<stop offset="0.745423" stop-color="#00B9FC" stop-opacity="0"/>
</radialGradient>
<radialGradient id="paint10_radial_237_6996" cx="0" cy="0" r="1" gradientUnits="userSpaceOnUse" gradientTransform="translate(6.79854 10.3682) rotate(-107.468) scale(4.9031 3.39731)">
<stop stop-color="#00BCFF" stop-opacity="0.76"/>
<stop offset="0.57273" stop-color="#00BAFC" stop-opacity="0"/>
</radialGradient>
<radialGradient id="paint11_radial_237_6996" cx="0" cy="0" r="1" gradientUnits="userSpaceOnUse" gradientTransform="translate(14.2526 8.506) rotate(-129.551) scale(3.46718 2.42737)">
<stop stop-color="#5FEC50"/>
<stop offset="1" stop-color="#3CC08E" stop-opacity="0"/>
</radialGradient>
<radialGradient id="paint12_radial_237_6996" cx="0" cy="0" r="1" gradientUnits="userSpaceOnUse" gradientTransform="translate(13.7563 10.7392) rotate(-79.0944) scale(1.04968 0.726005)">
<stop stop-color="#28855B"/>
<stop offset="1" stop-color="#14795C" stop-opacity="0"/>
</radialGradient>
<radialGradient id="paint13_radial_237_6996" cx="0" cy="0" r="1" gradientUnits="userSpaceOnUse" gradientTransform="translate(13.7057 10.6619) rotate(-77.8798) scale(0.865341 1.20934)">
<stop stop-color="#28855B"/>
<stop offset="1" stop-color="#14795C" stop-opacity="0"/>
</radialGradient>
<radialGradient id="paint14_radial_237_6996" cx="0" cy="0" r="1" gradientUnits="userSpaceOnUse" gradientTransform="translate(14.7366 9.10295) rotate(-132.79) scale(2.87054 2.01659)">
<stop stop-color="#5FF05B"/>
<stop offset="0.813285" stop-color="#5DE955" stop-opacity="0"/>
</radialGradient>
<radialGradient id="paint15_radial_237_6996" cx="0" cy="0" r="1" gradientUnits="userSpaceOnUse" gradientTransform="translate(13.8385 9.92749) rotate(37.4559) scale(2.55286 3.54842)">
<stop stop-color="#123AA8"/>
<stop offset="0.966119" stop-color="#123AA8" stop-opacity="0"/>
</radialGradient>
<radialGradient id="paint16_radial_237_6996" cx="0" cy="0" r="1" gradientUnits="userSpaceOnUse" gradientTransform="translate(13.2035 10.2152) rotate(8.48611) scale(3.01214 4.49605)">
<stop stop-color="#123AA8"/>
<stop offset="0.592487" stop-color="#123AA8" stop-opacity="0"/>
</radialGradient>
<radialGradient id="paint17_radial_237_6996" cx="0" cy="0" r="1" gradientUnits="userSpaceOnUse" gradientTransform="translate(13.4479 10.5889) rotate(24.6631) scale(2.57301 4.58484)">
<stop stop-color="#123AA8"/>
<stop offset="0.756788" stop-color="#123AA8" stop-opacity="0"/>
</radialGradient>
<radialGradient id="paint18_radial_237_6996" cx="0" cy="0" r="1" gradientUnits="userSpaceOnUse" gradientTransform="translate(13.1457 10.7413) rotate(95.8028) scale(4.62544 2.53479)">
<stop stop-color="#123AA8"/>
<stop offset="0.592487" stop-color="#123AA8" stop-opacity="0"/>
<stop offset="1" stop-color="#123AA8" stop-opacity="0"/>
</radialGradient>
<radialGradient id="paint19_radial_237_6996" cx="0" cy="0" r="1" gradientUnits="userSpaceOnUse" gradientTransform="translate(13.8385 8.6992) rotate(93.6671) scale(5.56659 1.98658)">
<stop stop-color="#123AA8"/>
<stop offset="0.884611" stop-color="#123AA8" stop-opacity="0"/>
</radialGradient>
<radialGradient id="paint20_radial_237_6996" cx="0" cy="0" r="1" gradientUnits="userSpaceOnUse" gradientTransform="translate(7.53008 9.85662) rotate(84.8296) scale(2.95387 1.56493)">
<stop stop-color="#123AA8"/>
<stop offset="0.884611" stop-color="#123AA8" stop-opacity="0"/>
</radialGradient>
<radialGradient id="paint21_radial_237_6996" cx="0" cy="0" r="1" gradientUnits="userSpaceOnUse" gradientTransform="translate(7.52795 9.93609) rotate(87.2504) scale(3.08283 2.54515)">
<stop stop-color="#123AA8"/>
<stop offset="0.884611" stop-color="#123AA8" stop-opacity="0"/>
</radialGradient>
<radialGradient id="paint22_radial_237_6996" cx="0" cy="0" r="1" gradientUnits="userSpaceOnUse" gradientTransform="translate(8.22934 12.8328) rotate(-23.1725) scale(3.43791 6.71993)">
<stop stop-color="#123AA8"/>
<stop offset="0.708977" stop-color="#123AA8" stop-opacity="0"/>
</radialGradient>
<radialGradient id="paint23_radial_237_6996" cx="0" cy="0" r="1" gradientUnits="userSpaceOnUse" gradientTransform="translate(7.00612 9.18234) rotate(-159.526) scale(2.27767 3.89998)">
<stop stop-color="#1A3DA0"/>
<stop offset="0.708977" stop-color="#123AA8" stop-opacity="0"/>
</radialGradient>
<radialGradient id="paint24_radial_237_6996" cx="0" cy="0" r="1" gradientUnits="userSpaceOnUse" gradientTransform="translate(5.00119 9.95754) rotate(16.749) scale(4.34414 4.38539)">
<stop stop-color="#1E3882"/>
<stop offset="0.761404" stop-color="#123AA8" stop-opacity="0"/>
</radialGradient>
<linearGradient id="paint25_linear_237_6996" x1="3.63873" y1="7.55474" x2="7.91948" y2="10.2869" gradientUnits="userSpaceOnUse">
<stop offset="0.229329" stop-color="#1DC4FF"/>
<stop offset="1" stop-color="#1CC1FF" stop-opacity="0"/>
</linearGradient>
<radialGradient id="paint26_radial_237_6996" cx="0" cy="0" r="1" gradientUnits="userSpaceOnUse" gradientTransform="translate(2.24226 5.26352) rotate(49.6506) scale(5.01537 5.00284)">
<stop stop-color="#09F8FF"/>
<stop offset="1" stop-color="#0BF7F9" stop-opacity="0"/>
</radialGradient>
<linearGradient id="paint27_linear_237_6996" x1="3.87535" y1="7.69431" x2="5.07609" y2="8.78285" gradientUnits="userSpaceOnUse">
<stop stop-color="#26FBFF"/>
<stop offset="0.637346" stop-color="#0BF7F9" stop-opacity="0"/>
</linearGradient>
<linearGradient id="paint28_linear_237_6996" x1="3.55634" y1="8.52749" x2="5.21716" y2="8.64597" gradientUnits="userSpaceOnUse">
<stop stop-color="#26FBFF"/>
<stop offset="0.637346" stop-color="#0BF7F9" stop-opacity="0"/>
</linearGradient>
<radialGradient id="paint29_radial_237_6996" cx="0" cy="0" r="1" gradientUnits="userSpaceOnUse" gradientTransform="translate(6.79839 10.3682) rotate(-107.468) scale(4.9031 3.39731)">
<stop stop-color="#00BCFF" stop-opacity="0.76"/>
<stop offset="0.57273" stop-color="#00BAFC" stop-opacity="0"/>
</radialGradient>
</defs>
</svg>
