<svg width="24" height="24" viewBox="0 0 24 24" fill="none" xmlns="http://www.w3.org/2000/svg">
<mask id="path-1-inside-1_237_6960" fill="white">
<path d="M0 6.39569C0 2.86345 2.86345 0 6.39569 0H17.6043C21.1366 0 24 2.86345 24 6.39569V17.6043C24 21.1366 21.1366 24 17.6043 24H6.39569C2.86345 24 0 21.1366 0 17.6043V6.39569Z"/>
</mask>
<path d="M0 6.39569C0 2.86345 2.86345 0 6.39569 0H17.6043C21.1366 0 24 2.86345 24 6.39569V17.6043C24 21.1366 21.1366 24 17.6043 24H6.39569C2.86345 24 0 21.1366 0 17.6043V6.39569Z" fill="white"/>
<path d="M6.39569 0V1H17.6043V0V-1H6.39569V0ZM24 6.39569H23V17.6043H24H25V6.39569H24ZM17.6043 24V23H6.39569V24V25H17.6043V24ZM0 17.6043H1V6.39569H0H-1V17.6043H0ZM6.39569 24V23C3.41573 23 1 20.5843 1 17.6043H0H-1C-1 21.6888 2.31116 25 6.39569 25V24ZM24 17.6043H23C23 20.5843 20.5843 23 17.6043 23V24V25C21.6888 25 25 21.6888 25 17.6043H24ZM17.6043 0V1C20.5843 1 23 3.41573 23 6.39569H24H25C25 2.31116 21.6888 -1 17.6043 -1V0ZM6.39569 0V-1C2.31116 -1 -1 2.31116 -1 6.39569H0H1C1 3.41573 3.41573 1 6.39569 1V0Z" fill="#0B1228" fill-opacity="0.14" mask="url(#path-1-inside-1_237_6960)"/>
<mask id="mask0_237_6960" style="mask-type:luminance" maskUnits="userSpaceOnUse" x="3" y="6" width="18" height="13">
<path d="M20.5 6.17676H3.5V18.5507H20.5V6.17676Z" fill="white"/>
</mask>
<g mask="url(#mask0_237_6960)">
<path d="M8.96244 18.5998C5.99984 18.5998 4.99149 14.853 4.76555 14.1242C4.19815 12.2939 4.02567 10.6451 4.00741 10.4721C3.90204 9.47375 4.70277 8.77897 5.58158 8.77897C6.24696 8.77897 7.01923 9.1773 7.12156 10.1437C7.13929 10.3063 7.27458 11.7082 7.75315 13.2357C8.25258 14.83 8.78238 15.4431 9.16391 15.4431C9.78007 15.4431 10.156 13.8605 10.4883 12.3537C10.7332 11.2435 10.9978 10.1248 11.5204 9.13106C12.4295 7.4023 13.8032 7 14.99 7C17.5922 7 18.8947 10.015 18.8947 10.7962C18.8947 12.1016 17.8299 12.4346 17.3684 12.4346C16.3591 12.4346 16.017 11.7583 15.729 11.1655C15.4699 10.6322 15.1994 10.1888 14.8496 10.1888C14.7347 10.1888 14.6282 10.247 14.5297 10.3472C13.6603 11.2308 13.3688 15.8535 11.6305 17.6203C10.6668 18.5998 9.61823 18.5998 8.96244 18.5998Z" fill="url(#paint0_linear_237_6960)"/>
<path d="M8.96244 18.5998C5.99984 18.5998 4.99149 14.853 4.76555 14.1242C4.19815 12.2939 4.02567 10.6451 4.00741 10.4721C3.90204 9.47375 4.70277 8.77897 5.58158 8.77897C6.24696 8.77897 7.01923 9.1773 7.12156 10.1437C7.13929 10.3063 7.27458 11.7082 7.75315 13.2357C8.25258 14.83 8.78238 15.4431 9.16391 15.4431C9.78007 15.4431 10.156 13.8605 10.4883 12.3537C10.7332 11.2435 10.9978 10.1248 11.5204 9.13106C12.4295 7.4023 13.8032 7 14.99 7C17.5922 7 18.8947 10.015 18.8947 10.7962C18.8947 12.1016 17.8299 12.4346 17.3684 12.4346C16.3591 12.4346 16.017 11.7583 15.729 11.1655C15.4699 10.6322 15.1994 10.1888 14.8496 10.1888C14.7347 10.1888 14.6282 10.247 14.5297 10.3472C13.6603 11.2308 13.3688 15.8535 11.6305 17.6203C10.6668 18.5998 9.61823 18.5998 8.96244 18.5998Z" fill="url(#paint1_radial_237_6960)"/>
<path d="M8.96244 18.5998C5.99984 18.5998 4.99149 14.853 4.76555 14.1242C4.19815 12.2939 4.02567 10.6451 4.00741 10.4721C3.90204 9.47375 4.70277 8.77897 5.58158 8.77897C6.24696 8.77897 7.01923 9.1773 7.12156 10.1437C7.13929 10.3063 7.27458 11.7082 7.75315 13.2357C8.25258 14.83 8.78238 15.4431 9.16391 15.4431C9.78007 15.4431 10.156 13.8605 10.4883 12.3537C10.7332 11.2435 10.9978 10.1248 11.5204 9.13106C12.4295 7.4023 13.8032 7 14.99 7C17.5922 7 18.8947 10.015 18.8947 10.7962C18.8947 12.1016 17.8299 12.4346 17.3684 12.4346C16.3591 12.4346 16.017 11.7583 15.729 11.1655C15.4699 10.6322 15.1994 10.1888 14.8496 10.1888C14.7347 10.1888 14.6282 10.247 14.5297 10.3472C13.6603 11.2308 13.3688 15.8535 11.6305 17.6203C10.6668 18.5998 9.61823 18.5998 8.96244 18.5998Z" fill="url(#paint2_radial_237_6960)"/>
<path d="M8.96244 18.5998C5.99984 18.5998 4.99149 14.853 4.76555 14.1242C4.19815 12.2939 4.02567 10.6451 4.00741 10.4721C3.90204 9.47375 4.70277 8.77897 5.58158 8.77897C6.24696 8.77897 7.01923 9.1773 7.12156 10.1437C7.13929 10.3063 7.27458 11.7082 7.75315 13.2357C8.25258 14.83 8.78238 15.4431 9.16391 15.4431C9.78007 15.4431 10.156 13.8605 10.4883 12.3537C10.7332 11.2435 10.9978 10.1248 11.5204 9.13106C12.4295 7.4023 13.8032 7 14.99 7C17.5922 7 18.8947 10.015 18.8947 10.7962C18.8947 12.1016 17.8299 12.4346 17.3684 12.4346C16.3591 12.4346 16.017 11.7583 15.729 11.1655C15.4699 10.6322 15.1994 10.1888 14.8496 10.1888C14.7347 10.1888 14.6282 10.247 14.5297 10.3472C13.6603 11.2308 13.3688 15.8535 11.6305 17.6203C10.6668 18.5998 9.61823 18.5998 8.96244 18.5998Z" fill="url(#paint3_radial_237_6960)"/>
<path d="M8.96244 18.5998C5.99984 18.5998 4.99149 14.853 4.76555 14.1242C4.19815 12.2939 4.02567 10.6451 4.00741 10.4721C3.90204 9.47375 4.70277 8.77897 5.58158 8.77897C6.24696 8.77897 7.01923 9.1773 7.12156 10.1437C7.13929 10.3063 7.27458 11.7082 7.75315 13.2357C8.25258 14.83 8.78238 15.4431 9.16391 15.4431C9.78007 15.4431 10.156 13.8605 10.4883 12.3537C10.7332 11.2435 10.9978 10.1248 11.5204 9.13106C12.4295 7.4023 13.8032 7 14.99 7C17.5922 7 18.8947 10.015 18.8947 10.7962C18.8947 12.1016 17.8299 12.4346 17.3684 12.4346C16.3591 12.4346 16.017 11.7583 15.729 11.1655C15.4699 10.6322 15.1994 10.1888 14.8496 10.1888C14.7347 10.1888 14.6282 10.247 14.5297 10.3472C13.6603 11.2308 13.3688 15.8535 11.6305 17.6203C10.6668 18.5998 9.61823 18.5998 8.96244 18.5998Z" fill="url(#paint4_radial_237_6960)"/>
<path d="M8.96244 18.5998C5.99984 18.5998 4.99149 14.853 4.76555 14.1242C4.19815 12.2939 4.02567 10.6451 4.00741 10.4721C3.90204 9.47375 4.70277 8.77897 5.58158 8.77897C6.24696 8.77897 7.01923 9.1773 7.12156 10.1437C7.13929 10.3063 7.27458 11.7082 7.75315 13.2357C8.25258 14.83 8.78238 15.4431 9.16391 15.4431C9.78007 15.4431 10.156 13.8605 10.4883 12.3537C10.7332 11.2435 10.9978 10.1248 11.5204 9.13106C12.4295 7.4023 13.8032 7 14.99 7C17.5922 7 18.8947 10.015 18.8947 10.7962C18.8947 12.1016 17.8299 12.4346 17.3684 12.4346C16.3591 12.4346 16.017 11.7583 15.729 11.1655C15.4699 10.6322 15.1994 10.1888 14.8496 10.1888C14.7347 10.1888 14.6282 10.247 14.5297 10.3472C13.6603 11.2308 13.3688 15.8535 11.6305 17.6203C10.6668 18.5998 9.61823 18.5998 8.96244 18.5998Z" fill="url(#paint5_radial_237_6960)"/>
<path d="M8.96244 18.5998C5.99984 18.5998 4.99149 14.853 4.76555 14.1242C4.19815 12.2939 4.02567 10.6451 4.00741 10.4721C3.90204 9.47375 4.70277 8.77897 5.58158 8.77897C6.24696 8.77897 7.01923 9.1773 7.12156 10.1437C7.13929 10.3063 7.27458 11.7082 7.75315 13.2357C8.25258 14.83 8.78238 15.4431 9.16391 15.4431C9.78007 15.4431 10.156 13.8605 10.4883 12.3537C10.7332 11.2435 10.9978 10.1248 11.5204 9.13106C12.4295 7.4023 13.8032 7 14.99 7C17.5922 7 18.8947 10.015 18.8947 10.7962C18.8947 12.1016 17.8299 12.4346 17.3684 12.4346C16.3591 12.4346 16.017 11.7583 15.729 11.1655C15.4699 10.6322 15.1994 10.1888 14.8496 10.1888C14.7347 10.1888 14.6282 10.247 14.5297 10.3472C13.6603 11.2308 13.3688 15.8535 11.6305 17.6203C10.6668 18.5998 9.61823 18.5998 8.96244 18.5998Z" fill="url(#paint6_radial_237_6960)"/>
<path d="M8.96244 18.5998C5.99984 18.5998 4.99149 14.853 4.76555 14.1242C4.19815 12.2939 4.02567 10.6451 4.00741 10.4721C3.90204 9.47375 4.70277 8.77897 5.58158 8.77897C6.24696 8.77897 7.01923 9.1773 7.12156 10.1437C7.13929 10.3063 7.27458 11.7082 7.75315 13.2357C8.25258 14.83 8.78238 15.4431 9.16391 15.4431C9.78007 15.4431 10.156 13.8605 10.4883 12.3537C10.7332 11.2435 10.9978 10.1248 11.5204 9.13106C12.4295 7.4023 13.8032 7 14.99 7C17.5922 7 18.8947 10.015 18.8947 10.7962C18.8947 12.1016 17.8299 12.4346 17.3684 12.4346C16.3591 12.4346 16.017 11.7583 15.729 11.1655C15.4699 10.6322 15.1994 10.1888 14.8496 10.1888C14.7347 10.1888 14.6282 10.247 14.5297 10.3472C13.6603 11.2308 13.3688 15.8535 11.6305 17.6203C10.6668 18.5998 9.61823 18.5998 8.96244 18.5998Z" fill="url(#paint7_linear_237_6960)"/>
<path d="M8.96244 18.5998C5.99984 18.5998 4.99149 14.853 4.76555 14.1242C4.19815 12.2939 4.02567 10.6451 4.00741 10.4721C3.90204 9.47375 4.70277 8.77897 5.58158 8.77897C6.24696 8.77897 7.01923 9.1773 7.12156 10.1437C7.13929 10.3063 7.27458 11.7082 7.75315 13.2357C8.25258 14.83 8.78238 15.4431 9.16391 15.4431C9.78007 15.4431 10.156 13.8605 10.4883 12.3537C10.7332 11.2435 10.9978 10.1248 11.5204 9.13106C12.4295 7.4023 13.8032 7 14.99 7C17.5922 7 18.8947 10.015 18.8947 10.7962C18.8947 12.1016 17.8299 12.4346 17.3684 12.4346C16.3591 12.4346 16.017 11.7583 15.729 11.1655C15.4699 10.6322 15.1994 10.1888 14.8496 10.1888C14.7347 10.1888 14.6282 10.247 14.5297 10.3472C13.6603 11.2308 13.3688 15.8535 11.6305 17.6203C10.6668 18.5998 9.61823 18.5998 8.96244 18.5998Z" fill="url(#paint8_radial_237_6960)"/>
<path d="M14.9902 7C13.8035 7 12.4297 7.4023 11.5206 9.13106C10.9981 10.1248 10.7334 11.2435 10.4886 12.3537C10.408 12.719 10.3248 13.0887 10.2363 13.4393V18.4622C10.6854 18.3352 11.1678 18.0907 11.6307 17.6203C13.369 15.8535 13.6605 11.2308 14.5299 10.3472C14.6284 10.247 14.7349 10.1888 14.8499 10.1888C15.1997 10.1888 15.4702 10.6322 15.7292 11.1655C16.0172 11.7583 16.3594 12.4346 17.3687 12.4346C17.8302 12.4346 18.8949 12.1016 18.8949 10.7962C18.8949 10.015 17.5925 7 14.9902 7Z" fill="url(#paint9_radial_237_6960)"/>
<path d="M8.96244 18.5998C5.99984 18.5998 4.99149 14.853 4.76555 14.1242C4.19815 12.2939 4.02567 10.6451 4.00741 10.4721C3.90204 9.47375 4.70277 8.77897 5.58158 8.77897C6.24696 8.77897 7.01923 9.1773 7.12156 10.1437C7.13929 10.3063 7.27458 11.7082 7.75315 13.2357C8.25258 14.83 8.78238 15.4431 9.16391 15.4431C9.78007 15.4431 10.156 13.8605 10.4883 12.3537C10.7332 11.2435 10.9978 10.1248 11.5204 9.13106C12.4295 7.4023 13.8032 7 14.99 7C17.5922 7 18.8947 10.015 18.8947 10.7962C18.8947 12.1016 17.8299 12.4346 17.3684 12.4346C16.3591 12.4346 16.017 11.7583 15.729 11.1655C15.4699 10.6322 15.1994 10.1888 14.8496 10.1888C14.7347 10.1888 14.6282 10.247 14.5297 10.3472C13.6603 11.2308 13.3688 15.8535 11.6305 17.6203C10.6668 18.5998 9.61823 18.5998 8.96244 18.5998Z" fill="url(#paint10_radial_237_6960)"/>
<path d="M8.96244 18.5998C5.99984 18.5998 4.99149 14.853 4.76555 14.1242C4.19815 12.2939 4.02567 10.6451 4.00741 10.4721C3.90204 9.47375 4.70277 8.77897 5.58158 8.77897C6.24696 8.77897 7.01923 9.1773 7.12156 10.1437C7.13929 10.3063 7.27458 11.7082 7.75315 13.2357C8.25258 14.83 8.78238 15.4431 9.16391 15.4431C9.78007 15.4431 10.156 13.8605 10.4883 12.3537C10.7332 11.2435 10.9978 10.1248 11.5204 9.13106C12.4295 7.4023 13.8032 7 14.99 7C17.5922 7 18.8947 10.015 18.8947 10.7962C18.8947 12.1016 17.8299 12.4346 17.3684 12.4346C16.3591 12.4346 16.017 11.7583 15.729 11.1655C15.4699 10.6322 15.1994 10.1888 14.8496 10.1888C14.7347 10.1888 14.6282 10.247 14.5297 10.3472C13.6603 11.2308 13.3688 15.8535 11.6305 17.6203C10.6668 18.5998 9.61823 18.5998 8.96244 18.5998Z" fill="url(#paint11_radial_237_6960)"/>
<path d="M8.96244 18.5998C5.99984 18.5998 4.99149 14.853 4.76555 14.1242C4.19815 12.2939 4.02567 10.6451 4.00741 10.4721C3.90204 9.47375 4.70277 8.77897 5.58158 8.77897C6.24696 8.77897 7.01923 9.1773 7.12156 10.1437C7.13929 10.3063 7.27458 11.7082 7.75315 13.2357C8.25258 14.83 8.78238 15.4431 9.16391 15.4431C9.78007 15.4431 10.156 13.8605 10.4883 12.3537C10.7332 11.2435 10.9978 10.1248 11.5204 9.13106C12.4295 7.4023 13.8032 7 14.99 7C17.5922 7 18.8947 10.015 18.8947 10.7962C18.8947 12.1016 17.8299 12.4346 17.3684 12.4346C16.3591 12.4346 16.017 11.7583 15.729 11.1655C15.4699 10.6322 15.1994 10.1888 14.8496 10.1888C14.7347 10.1888 14.6282 10.247 14.5297 10.3472C13.6603 11.2308 13.3688 15.8535 11.6305 17.6203C10.6668 18.5998 9.61823 18.5998 8.96244 18.5998Z" fill="url(#paint12_radial_237_6960)"/>
<path d="M8.96244 18.5998C5.99984 18.5998 4.99149 14.853 4.76555 14.1242C4.19815 12.2939 4.02567 10.6451 4.00741 10.4721C3.90204 9.47375 4.70277 8.77897 5.58158 8.77897C6.24696 8.77897 7.01923 9.1773 7.12156 10.1437C7.13929 10.3063 7.27458 11.7082 7.75315 13.2357C8.25258 14.83 8.78238 15.4431 9.16391 15.4431C9.78007 15.4431 10.156 13.8605 10.4883 12.3537C10.7332 11.2435 10.9978 10.1248 11.5204 9.13106C12.4295 7.4023 13.8032 7 14.99 7C17.5922 7 18.8947 10.015 18.8947 10.7962C18.8947 12.1016 17.8299 12.4346 17.3684 12.4346C16.3591 12.4346 16.017 11.7583 15.729 11.1655C15.4699 10.6322 15.1994 10.1888 14.8496 10.1888C14.7347 10.1888 14.6282 10.247 14.5297 10.3472C13.6603 11.2308 13.3688 15.8535 11.6305 17.6203C10.6668 18.5998 9.61823 18.5998 8.96244 18.5998Z" fill="url(#paint13_radial_237_6960)"/>
<path d="M8.96244 18.5998C5.99984 18.5998 4.99149 14.853 4.76555 14.1242C4.19815 12.2939 4.02567 10.6451 4.00741 10.4721C3.90204 9.47375 4.70277 8.77897 5.58158 8.77897C6.24696 8.77897 7.01923 9.1773 7.12156 10.1437C7.13929 10.3063 7.27458 11.7082 7.75315 13.2357C8.25258 14.83 8.78238 15.4431 9.16391 15.4431C9.78007 15.4431 10.156 13.8605 10.4883 12.3537C10.7332 11.2435 10.9978 10.1248 11.5204 9.13106C12.4295 7.4023 13.8032 7 14.99 7C17.5922 7 18.8947 10.015 18.8947 10.7962C18.8947 12.1016 17.8299 12.4346 17.3684 12.4346C16.3591 12.4346 16.017 11.7583 15.729 11.1655C15.4699 10.6322 15.1994 10.1888 14.8496 10.1888C14.7347 10.1888 14.6282 10.247 14.5297 10.3472C13.6603 11.2308 13.3688 15.8535 11.6305 17.6203C10.6668 18.5998 9.61823 18.5998 8.96244 18.5998Z" fill="url(#paint14_radial_237_6960)"/>
<path d="M18.4164 8.77897C18.2991 8.77897 18.1811 8.79004 18.0654 8.81287C18.6155 9.60605 18.8907 10.437 18.8907 10.7961C18.8907 12.1015 17.826 12.4345 17.3645 12.4345C17.0044 12.4345 16.7292 12.3484 16.5112 12.2107C16.5091 12.2189 16.5072 12.2269 16.5051 12.2351C16.4402 12.4942 16.3891 12.7778 16.3004 13.0537C16.1301 13.5843 15.9003 14.1903 15.6548 14.6593C15.3903 15.1649 15.1284 15.4607 14.8163 15.4452C14.4613 15.4276 14.1735 14.9699 13.8157 13.6767C13.7004 13.2598 13.5935 12.8025 13.4945 12.3537C13.249 11.2402 12.9475 10.1205 12.4322 9.13106C11.5904 7.51506 10.1544 7 9.00803 7C7.94485 7 7.15054 7.50335 6.52655 8.13758C6.35412 8.31285 6.16574 8.54899 5.97656 8.82648C6.52081 8.95756 7.03543 9.36726 7.11758 10.1436C7.13379 10.2917 7.24738 11.4674 7.62896 12.8299C7.73844 12.4883 7.89807 11.9824 8.26892 11.1655C8.4507 10.7914 8.61475 10.5447 8.76272 10.3943C8.89846 10.2563 9.02067 10.1993 9.13073 10.1993C9.24942 10.1993 9.65466 10.308 10.0492 11.6924C10.5385 13.4092 10.9026 16.1414 12.2899 17.592C12.9017 18.2319 13.758 18.6459 14.9448 18.6459C15.9861 18.6459 16.8542 18.1873 17.4732 17.5494C18.4909 16.5003 19.0486 14.7659 19.2475 14.1242C19.8136 12.2982 19.9722 10.6468 19.9906 10.4721C20.0959 9.47375 19.2549 8.77897 18.4164 8.77897Z" fill="#316AFF"/>
<path d="M18.4164 8.77897C18.2991 8.77897 18.1811 8.79004 18.0654 8.81287C18.6155 9.60605 18.8907 10.437 18.8907 10.7961C18.8907 12.1015 17.826 12.4345 17.3645 12.4345C17.0044 12.4345 16.7292 12.3484 16.5112 12.2107C16.5091 12.2189 16.5072 12.2269 16.5051 12.2351C16.4402 12.4942 16.3891 12.7778 16.3004 13.0537C16.1301 13.5843 15.9003 14.1903 15.6548 14.6593C15.3903 15.1649 15.1284 15.4607 14.8163 15.4452C14.4613 15.4276 14.1735 14.9699 13.8157 13.6767C13.7004 13.2598 13.5935 12.8025 13.4945 12.3537C13.249 11.2402 12.9475 10.1205 12.4322 9.13106C11.5904 7.51506 10.1544 7 9.00803 7C7.94485 7 7.15054 7.50335 6.52655 8.13758C6.35412 8.31285 6.16574 8.54899 5.97656 8.82648C6.52081 8.95756 7.03543 9.36726 7.11758 10.1436C7.13379 10.2917 7.24738 11.4674 7.62896 12.8299C7.73844 12.4883 7.89807 11.9824 8.26892 11.1655C8.4507 10.7914 8.61475 10.5447 8.76272 10.3943C8.89846 10.2563 9.02067 10.1993 9.13073 10.1993C9.24942 10.1993 9.65466 10.308 10.0492 11.6924C10.5385 13.4092 10.9026 16.1414 12.2899 17.592C12.9017 18.2319 13.758 18.6459 14.9448 18.6459C15.9861 18.6459 16.8542 18.1873 17.4732 17.5494C18.4909 16.5003 19.0486 14.7659 19.2475 14.1242C19.8136 12.2982 19.9722 10.6468 19.9906 10.4721C20.0959 9.47375 19.2549 8.77897 18.4164 8.77897Z" fill="url(#paint15_radial_237_6960)"/>
<path d="M18.4164 8.77897C18.2991 8.77897 18.1811 8.79004 18.0654 8.81287C18.6155 9.60605 18.8907 10.437 18.8907 10.7961C18.8907 12.1015 17.826 12.4345 17.3645 12.4345C17.0044 12.4345 16.7292 12.3484 16.5112 12.2107C16.5091 12.2189 16.5072 12.2269 16.5051 12.2351C16.4402 12.4942 16.3891 12.7778 16.3004 13.0537C16.1301 13.5843 15.9003 14.1903 15.6548 14.6593C15.3903 15.1649 15.1284 15.4607 14.8163 15.4452C14.4613 15.4276 14.1735 14.9699 13.8157 13.6767C13.7004 13.2598 13.5935 12.8025 13.4945 12.3537C13.249 11.2402 12.9475 10.1205 12.4322 9.13106C11.5904 7.51506 10.1544 7 9.00803 7C7.94485 7 7.15054 7.50335 6.52655 8.13758C6.35412 8.31285 6.16574 8.54899 5.97656 8.82648C6.52081 8.95756 7.03543 9.36726 7.11758 10.1436C7.13379 10.2917 7.24738 11.4674 7.62896 12.8299C7.73844 12.4883 7.89807 11.9824 8.26892 11.1655C8.4507 10.7914 8.61475 10.5447 8.76272 10.3943C8.89846 10.2563 9.02067 10.1993 9.13073 10.1993C9.24942 10.1993 9.65466 10.308 10.0492 11.6924C10.5385 13.4092 10.9026 16.1414 12.2899 17.592C12.9017 18.2319 13.758 18.6459 14.9448 18.6459C15.9861 18.6459 16.8542 18.1873 17.4732 17.5494C18.4909 16.5003 19.0486 14.7659 19.2475 14.1242C19.8136 12.2982 19.9722 10.6468 19.9906 10.4721C20.0959 9.47375 19.2549 8.77897 18.4164 8.77897Z" fill="url(#paint16_radial_237_6960)"/>
<path d="M18.4164 8.77897C18.2991 8.77897 18.1811 8.79004 18.0654 8.81287C18.6155 9.60605 18.8907 10.437 18.8907 10.7961C18.8907 12.1015 17.826 12.4345 17.3645 12.4345C17.0044 12.4345 16.7292 12.3484 16.5112 12.2107C16.5091 12.2189 16.5072 12.2269 16.5051 12.2351C16.4402 12.4942 16.3891 12.7778 16.3004 13.0537C16.1301 13.5843 15.9003 14.1903 15.6548 14.6593C15.3903 15.1649 15.1284 15.4607 14.8163 15.4452C14.4613 15.4276 14.1735 14.9699 13.8157 13.6767C13.7004 13.2598 13.5935 12.8025 13.4945 12.3537C13.249 11.2402 12.9475 10.1205 12.4322 9.13106C11.5904 7.51506 10.1544 7 9.00803 7C7.94485 7 7.15054 7.50335 6.52655 8.13758C6.35412 8.31285 6.16574 8.54899 5.97656 8.82648C6.52081 8.95756 7.03543 9.36726 7.11758 10.1436C7.13379 10.2917 7.24738 11.4674 7.62896 12.8299C7.73844 12.4883 7.89807 11.9824 8.26892 11.1655C8.4507 10.7914 8.61475 10.5447 8.76272 10.3943C8.89846 10.2563 9.02067 10.1993 9.13073 10.1993C9.24942 10.1993 9.65466 10.308 10.0492 11.6924C10.5385 13.4092 10.9026 16.1414 12.2899 17.592C12.9017 18.2319 13.758 18.6459 14.9448 18.6459C15.9861 18.6459 16.8542 18.1873 17.4732 17.5494C18.4909 16.5003 19.0486 14.7659 19.2475 14.1242C19.8136 12.2982 19.9722 10.6468 19.9906 10.4721C20.0959 9.47375 19.2549 8.77897 18.4164 8.77897Z" fill="url(#paint17_radial_237_6960)"/>
<path d="M18.4164 8.77897C18.2991 8.77897 18.1811 8.79004 18.0654 8.81287C18.6155 9.60605 18.8907 10.437 18.8907 10.7961C18.8907 12.1015 17.826 12.4345 17.3645 12.4345C17.0044 12.4345 16.7292 12.3484 16.5112 12.2107C16.5091 12.2189 16.5072 12.2269 16.5051 12.2351C16.4402 12.4942 16.3891 12.7778 16.3004 13.0537C16.1301 13.5843 15.9003 14.1903 15.6548 14.6593C15.3903 15.1649 15.1284 15.4607 14.8163 15.4452C14.4613 15.4276 14.1735 14.9699 13.8157 13.6767C13.7004 13.2598 13.5935 12.8025 13.4945 12.3537C13.249 11.2402 12.9475 10.1205 12.4322 9.13106C11.5904 7.51506 10.1544 7 9.00803 7C7.94485 7 7.15054 7.50335 6.52655 8.13758C6.35412 8.31285 6.16574 8.54899 5.97656 8.82648C6.52081 8.95756 7.03543 9.36726 7.11758 10.1436C7.13379 10.2917 7.24738 11.4674 7.62896 12.8299C7.73844 12.4883 7.89807 11.9824 8.26892 11.1655C8.4507 10.7914 8.61475 10.5447 8.76272 10.3943C8.89846 10.2563 9.02067 10.1993 9.13073 10.1993C9.24942 10.1993 9.65466 10.308 10.0492 11.6924C10.5385 13.4092 10.9026 16.1414 12.2899 17.592C12.9017 18.2319 13.758 18.6459 14.9448 18.6459C15.9861 18.6459 16.8542 18.1873 17.4732 17.5494C18.4909 16.5003 19.0486 14.7659 19.2475 14.1242C19.8136 12.2982 19.9722 10.6468 19.9906 10.4721C20.0959 9.47375 19.2549 8.77897 18.4164 8.77897Z" fill="url(#paint18_radial_237_6960)"/>
<path d="M18.4164 8.77897C18.2991 8.77897 18.1811 8.79004 18.0654 8.81287C18.6155 9.60605 18.8907 10.437 18.8907 10.7961C18.8907 12.1015 17.826 12.4345 17.3645 12.4345C17.0044 12.4345 16.7292 12.3484 16.5112 12.2107C16.5091 12.2189 16.5072 12.2269 16.5051 12.2351C16.4402 12.4942 16.3891 12.7778 16.3004 13.0537C16.1301 13.5843 15.9003 14.1903 15.6548 14.6593C15.3903 15.1649 15.1284 15.4607 14.8163 15.4452C14.4613 15.4276 14.1735 14.9699 13.8157 13.6767C13.7004 13.2598 13.5935 12.8025 13.4945 12.3537C13.249 11.2402 12.9475 10.1205 12.4322 9.13106C11.5904 7.51506 10.1544 7 9.00803 7C7.94485 7 7.15054 7.50335 6.52655 8.13758C6.35412 8.31285 6.16574 8.54899 5.97656 8.82648C6.52081 8.95756 7.03543 9.36726 7.11758 10.1436C7.13379 10.2917 7.24738 11.4674 7.62896 12.8299C7.73844 12.4883 7.89807 11.9824 8.26892 11.1655C8.4507 10.7914 8.61475 10.5447 8.76272 10.3943C8.89846 10.2563 9.02067 10.1993 9.13073 10.1993C9.24942 10.1993 9.65466 10.308 10.0492 11.6924C10.5385 13.4092 10.9026 16.1414 12.2899 17.592C12.9017 18.2319 13.758 18.6459 14.9448 18.6459C15.9861 18.6459 16.8542 18.1873 17.4732 17.5494C18.4909 16.5003 19.0486 14.7659 19.2475 14.1242C19.8136 12.2982 19.9722 10.6468 19.9906 10.4721C20.0959 9.47375 19.2549 8.77897 18.4164 8.77897Z" fill="url(#paint19_radial_237_6960)"/>
<path d="M18.4164 8.77897C18.2991 8.77897 18.1811 8.79004 18.0654 8.81287C18.6155 9.60605 18.8907 10.437 18.8907 10.7961C18.8907 12.1015 17.826 12.4345 17.3645 12.4345C17.0044 12.4345 16.7292 12.3484 16.5112 12.2107C16.5091 12.2189 16.5072 12.2269 16.5051 12.2351C16.4402 12.4942 16.3891 12.7778 16.3004 13.0537C16.1301 13.5843 15.9003 14.1903 15.6548 14.6593C15.3903 15.1649 15.1284 15.4607 14.8163 15.4452C14.4613 15.4276 14.1735 14.9699 13.8157 13.6767C13.7004 13.2598 13.5935 12.8025 13.4945 12.3537C13.249 11.2402 12.9475 10.1205 12.4322 9.13106C11.5904 7.51506 10.1544 7 9.00803 7C7.94485 7 7.15054 7.50335 6.52655 8.13758C6.35412 8.31285 6.16574 8.54899 5.97656 8.82648C6.52081 8.95756 7.03543 9.36726 7.11758 10.1436C7.13379 10.2917 7.24738 11.4674 7.62896 12.8299C7.73844 12.4883 7.89807 11.9824 8.26892 11.1655C8.4507 10.7914 8.61475 10.5447 8.76272 10.3943C8.89846 10.2563 9.02067 10.1993 9.13073 10.1993C9.24942 10.1993 9.65466 10.308 10.0492 11.6924C10.5385 13.4092 10.9026 16.1414 12.2899 17.592C12.9017 18.2319 13.758 18.6459 14.9448 18.6459C15.9861 18.6459 16.8542 18.1873 17.4732 17.5494C18.4909 16.5003 19.0486 14.7659 19.2475 14.1242C19.8136 12.2982 19.9722 10.6468 19.9906 10.4721C20.0959 9.47375 19.2549 8.77897 18.4164 8.77897Z" fill="url(#paint20_radial_237_6960)"/>
<path d="M18.4164 8.77897C18.2991 8.77897 18.1811 8.79004 18.0654 8.81287C18.6155 9.60605 18.8907 10.437 18.8907 10.7961C18.8907 12.1015 17.826 12.4345 17.3645 12.4345C17.0044 12.4345 16.7292 12.3484 16.5112 12.2107C16.5091 12.2189 16.5072 12.2269 16.5051 12.2351C16.4402 12.4942 16.3891 12.7778 16.3004 13.0537C16.1301 13.5843 15.9003 14.1903 15.6548 14.6593C15.3903 15.1649 15.1284 15.4607 14.8163 15.4452C14.4613 15.4276 14.1735 14.9699 13.8157 13.6767C13.7004 13.2598 13.5935 12.8025 13.4945 12.3537C13.249 11.2402 12.9475 10.1205 12.4322 9.13106C11.5904 7.51506 10.1544 7 9.00803 7C7.94485 7 7.15054 7.50335 6.52655 8.13758C6.35412 8.31285 6.16574 8.54899 5.97656 8.82648C6.52081 8.95756 7.03543 9.36726 7.11758 10.1436C7.13379 10.2917 7.24738 11.4674 7.62896 12.8299C7.73844 12.4883 7.89807 11.9824 8.26892 11.1655C8.4507 10.7914 8.61475 10.5447 8.76272 10.3943C8.89846 10.2563 9.02067 10.1993 9.13073 10.1993C9.24942 10.1993 9.65466 10.308 10.0492 11.6924C10.5385 13.4092 10.9026 16.1414 12.2899 17.592C12.9017 18.2319 13.758 18.6459 14.9448 18.6459C15.9861 18.6459 16.8542 18.1873 17.4732 17.5494C18.4909 16.5003 19.0486 14.7659 19.2475 14.1242C19.8136 12.2982 19.9722 10.6468 19.9906 10.4721C20.0959 9.47375 19.2549 8.77897 18.4164 8.77897Z" fill="url(#paint21_radial_237_6960)"/>
<path d="M18.4164 8.77897C18.2991 8.77897 18.1811 8.79004 18.0654 8.81287C18.6155 9.60605 18.8907 10.437 18.8907 10.7961C18.8907 12.1015 17.826 12.4345 17.3645 12.4345C17.0044 12.4345 16.7292 12.3484 16.5112 12.2107C16.5091 12.2189 16.5072 12.2269 16.5051 12.2351C16.4402 12.4942 16.3891 12.7778 16.3004 13.0537C16.1301 13.5843 15.9003 14.1903 15.6548 14.6593C15.3903 15.1649 15.1284 15.4607 14.8163 15.4452C14.4613 15.4276 14.1735 14.9699 13.8157 13.6767C13.7004 13.2598 13.5935 12.8025 13.4945 12.3537C13.249 11.2402 12.9475 10.1205 12.4322 9.13106C11.5904 7.51506 10.1544 7 9.00803 7C7.94485 7 7.15054 7.50335 6.52655 8.13758C6.35412 8.31285 6.16574 8.54899 5.97656 8.82648C6.52081 8.95756 7.03543 9.36726 7.11758 10.1436C7.13379 10.2917 7.24738 11.4674 7.62896 12.8299C7.73844 12.4883 7.89807 11.9824 8.26892 11.1655C8.4507 10.7914 8.61475 10.5447 8.76272 10.3943C8.89846 10.2563 9.02067 10.1993 9.13073 10.1993C9.24942 10.1993 9.65466 10.308 10.0492 11.6924C10.5385 13.4092 10.9026 16.1414 12.2899 17.592C12.9017 18.2319 13.758 18.6459 14.9448 18.6459C15.9861 18.6459 16.8542 18.1873 17.4732 17.5494C18.4909 16.5003 19.0486 14.7659 19.2475 14.1242C19.8136 12.2982 19.9722 10.6468 19.9906 10.4721C20.0959 9.47375 19.2549 8.77897 18.4164 8.77897Z" fill="url(#paint22_radial_237_6960)"/>
<path d="M18.4164 8.77897C18.2991 8.77897 18.1811 8.79004 18.0654 8.81287C18.6155 9.60605 18.8907 10.437 18.8907 10.7961C18.8907 12.1015 17.826 12.4345 17.3645 12.4345C17.0044 12.4345 16.7292 12.3484 16.5112 12.2107C16.5091 12.2189 16.5072 12.2269 16.5051 12.2351C16.4402 12.4942 16.3891 12.7778 16.3004 13.0537C16.1301 13.5843 15.9003 14.1903 15.6548 14.6593C15.3903 15.1649 15.1284 15.4607 14.8163 15.4452C14.4613 15.4276 14.1735 14.9699 13.8157 13.6767C13.7004 13.2598 13.5935 12.8025 13.4945 12.3537C13.249 11.2402 12.9475 10.1205 12.4322 9.13106C11.5904 7.51506 10.1544 7 9.00803 7C7.94485 7 7.15054 7.50335 6.52655 8.13758C6.35412 8.31285 6.16574 8.54899 5.97656 8.82648C6.52081 8.95756 7.03543 9.36726 7.11758 10.1436C7.13379 10.2917 7.24738 11.4674 7.62896 12.8299C7.73844 12.4883 7.89807 11.9824 8.26892 11.1655C8.4507 10.7914 8.61475 10.5447 8.76272 10.3943C8.89846 10.2563 9.02067 10.1993 9.13073 10.1993C9.24942 10.1993 9.65466 10.308 10.0492 11.6924C10.5385 13.4092 10.9026 16.1414 12.2899 17.592C12.9017 18.2319 13.758 18.6459 14.9448 18.6459C15.9861 18.6459 16.8542 18.1873 17.4732 17.5494C18.4909 16.5003 19.0486 14.7659 19.2475 14.1242C19.8136 12.2982 19.9722 10.6468 19.9906 10.4721C20.0959 9.47375 19.2549 8.77897 18.4164 8.77897Z" fill="url(#paint23_radial_237_6960)"/>
<path d="M18.4164 8.77897C18.2991 8.77897 18.1811 8.79004 18.0654 8.81287C18.6155 9.60605 18.8907 10.437 18.8907 10.7961C18.8907 12.1015 17.826 12.4345 17.3645 12.4345C17.0044 12.4345 16.7292 12.3484 16.5112 12.2107C16.5091 12.2189 16.5072 12.2269 16.5051 12.2351C16.4402 12.4942 16.3891 12.7778 16.3004 13.0537C16.1301 13.5843 15.9003 14.1903 15.6548 14.6593C15.3903 15.1649 15.1284 15.4607 14.8163 15.4452C14.4613 15.4276 14.1735 14.9699 13.8157 13.6767C13.7004 13.2598 13.5935 12.8025 13.4945 12.3537C13.249 11.2402 12.9475 10.1205 12.4322 9.13106C11.5904 7.51506 10.1544 7 9.00803 7C7.94485 7 7.15054 7.50335 6.52655 8.13758C6.35412 8.31285 6.16574 8.54899 5.97656 8.82648C6.52081 8.95756 7.03543 9.36726 7.11758 10.1436C7.13379 10.2917 7.24738 11.4674 7.62896 12.8299C7.73844 12.4883 7.89807 11.9824 8.26892 11.1655C8.4507 10.7914 8.61475 10.5447 8.76272 10.3943C8.89846 10.2563 9.02067 10.1993 9.13073 10.1993C9.24942 10.1993 9.65466 10.308 10.0492 11.6924C10.5385 13.4092 10.9026 16.1414 12.2899 17.592C12.9017 18.2319 13.758 18.6459 14.9448 18.6459C15.9861 18.6459 16.8542 18.1873 17.4732 17.5494C18.4909 16.5003 19.0486 14.7659 19.2475 14.1242C19.8136 12.2982 19.9722 10.6468 19.9906 10.4721C20.0959 9.47375 19.2549 8.77897 18.4164 8.77897Z" fill="url(#paint24_radial_237_6960)"/>
<path d="M8.96244 18.5998C5.99984 18.5998 4.99149 14.853 4.76555 14.1242C4.19815 12.2939 4.02567 10.6451 4.00741 10.4721C3.90204 9.47375 4.70277 8.77897 5.58158 8.77897C6.24696 8.77897 7.01923 9.1773 7.12156 10.1437C7.13934 10.3063 7.27458 11.7082 7.75315 13.2357C8.25258 14.83 8.78238 15.4431 9.16391 15.4431C9.78007 15.4431 10.156 13.8605 10.4883 12.3537C10.7332 11.2435 10.9978 10.1248 11.5204 9.13106C12.4295 7.4023 13.8032 7 14.99 7C17.5922 7 18.8947 10.015 18.8947 10.7962C18.8947 12.1016 17.8299 12.4346 17.3684 12.4346C16.3591 12.4346 16.017 11.7583 15.729 11.1655C15.4699 10.6322 15.1994 10.1888 14.8496 10.1888C14.7347 10.1888 14.6282 10.247 14.5297 10.3472C13.6603 11.2308 13.3688 15.8535 11.6305 17.6203C10.6668 18.5998 9.61823 18.5998 8.96244 18.5998Z" fill="url(#paint25_linear_237_6960)"/>
<path d="M8.96244 18.5998C5.99984 18.5998 4.99149 14.853 4.76555 14.1242C4.19815 12.2939 4.02567 10.6451 4.00741 10.4721C3.90204 9.47375 4.70277 8.77897 5.58158 8.77897C6.24696 8.77897 7.01923 9.1773 7.12156 10.1437C7.13934 10.3063 7.27458 11.7082 7.75315 13.2357C8.25258 14.83 8.78238 15.4431 9.16391 15.4431C9.78007 15.4431 10.156 13.8605 10.4883 12.3537C10.7332 11.2435 10.9978 10.1248 11.5204 9.13106C12.4295 7.4023 13.8032 7 14.99 7C17.5922 7 18.8947 10.015 18.8947 10.7962C18.8947 12.1016 17.8299 12.4346 17.3684 12.4346C16.3591 12.4346 16.017 11.7583 15.729 11.1655C15.4699 10.6322 15.1994 10.1888 14.8496 10.1888C14.7347 10.1888 14.6282 10.247 14.5297 10.3472C13.6603 11.2308 13.3688 15.8535 11.6305 17.6203C10.6668 18.5998 9.61823 18.5998 8.96244 18.5998Z" fill="url(#paint26_radial_237_6960)"/>
<path d="M8.96244 18.5998C5.99984 18.5998 4.99149 14.853 4.76555 14.1242C4.19815 12.2939 4.02567 10.6451 4.00741 10.4721C3.90204 9.47375 4.70277 8.77897 5.58158 8.77897C6.24696 8.77897 7.01923 9.1773 7.12156 10.1437C7.13934 10.3063 7.27458 11.7082 7.75315 13.2357C8.25258 14.83 8.78238 15.4431 9.16391 15.4431C9.78007 15.4431 10.156 13.8605 10.4883 12.3537C10.7332 11.2435 10.9978 10.1248 11.5204 9.13106C12.4295 7.4023 13.8032 7 14.99 7C17.5922 7 18.8947 10.015 18.8947 10.7962C18.8947 12.1016 17.8299 12.4346 17.3684 12.4346C16.3591 12.4346 16.017 11.7583 15.729 11.1655C15.4699 10.6322 15.1994 10.1888 14.8496 10.1888C14.7347 10.1888 14.6282 10.247 14.5297 10.3472C13.6603 11.2308 13.3688 15.8535 11.6305 17.6203C10.6668 18.5998 9.61823 18.5998 8.96244 18.5998Z" fill="url(#paint27_linear_237_6960)"/>
<path d="M8.96244 18.5998C5.99984 18.5998 4.99149 14.853 4.76555 14.1242C4.19815 12.2939 4.02567 10.6451 4.00741 10.4721C3.90204 9.47375 4.70277 8.77897 5.58158 8.77897C6.24696 8.77897 7.01923 9.1773 7.12156 10.1437C7.13934 10.3063 7.27458 11.7082 7.75315 13.2357C8.25258 14.83 8.78238 15.4431 9.16391 15.4431C9.78007 15.4431 10.156 13.8605 10.4883 12.3537C10.7332 11.2435 10.9978 10.1248 11.5204 9.13106C12.4295 7.4023 13.8032 7 14.99 7C17.5922 7 18.8947 10.015 18.8947 10.7962C18.8947 12.1016 17.8299 12.4346 17.3684 12.4346C16.3591 12.4346 16.017 11.7583 15.729 11.1655C15.4699 10.6322 15.1994 10.1888 14.8496 10.1888C14.7347 10.1888 14.6282 10.247 14.5297 10.3472C13.6603 11.2308 13.3688 15.8535 11.6305 17.6203C10.6668 18.5998 9.61823 18.5998 8.96244 18.5998Z" fill="url(#paint28_linear_237_6960)"/>
<path d="M8.96244 18.5998C5.99984 18.5998 4.99149 14.853 4.76555 14.1242C4.19815 12.2939 4.02567 10.6451 4.00741 10.4721C3.90204 9.47375 4.70277 8.77897 5.58158 8.77897C6.24696 8.77897 7.01923 9.1773 7.12156 10.1437C7.13934 10.3063 7.27458 11.7082 7.75315 13.2357C8.25258 14.83 8.78238 15.4431 9.16391 15.4431C9.78007 15.4431 10.156 13.8605 10.4883 12.3537C10.7332 11.2435 10.9978 10.1248 11.5204 9.13106C12.4295 7.4023 13.8032 7 14.99 7C17.5922 7 18.8947 10.015 18.8947 10.7962C18.8947 12.1016 17.8299 12.4346 17.3684 12.4346C16.3591 12.4346 16.017 11.7583 15.729 11.1655C15.4699 10.6322 15.1994 10.1888 14.8496 10.1888C14.7347 10.1888 14.6282 10.247 14.5297 10.3472C13.6603 11.2308 13.3688 15.8535 11.6305 17.6203C10.6668 18.5998 9.61823 18.5998 8.96244 18.5998Z" fill="url(#paint29_radial_237_6960)"/>
</g>
<defs>
<linearGradient id="paint0_linear_237_6960" x1="17.2736" y1="10.4034" x2="6.80787" y2="13.8356" gradientUnits="userSpaceOnUse">
<stop stop-color="#5CEE64"/>
<stop offset="1" stop-color="#00BBFF"/>
</linearGradient>
<radialGradient id="paint1_radial_237_6960" cx="0" cy="0" r="1" gradientUnits="userSpaceOnUse" gradientTransform="translate(10.088 13.1859) rotate(-120.86) scale(6.85617 5.75567)">
<stop stop-color="#007383"/>
<stop offset="0.407867" stop-color="#00717E" stop-opacity="0.75"/>
<stop offset="0.874482" stop-color="#007281" stop-opacity="0"/>
</radialGradient>
<radialGradient id="paint2_radial_237_6960" cx="0" cy="0" r="1" gradientUnits="userSpaceOnUse" gradientTransform="translate(14.5927 11.9102) rotate(-126.734) scale(5.59147 3.67389)">
<stop stop-color="#218970"/>
<stop offset="0.459527" stop-color="#267E6A"/>
<stop offset="1" stop-color="#026C51" stop-opacity="0"/>
</radialGradient>
<radialGradient id="paint3_radial_237_6960" cx="0" cy="0" r="1" gradientUnits="userSpaceOnUse" gradientTransform="translate(9.69317 13.5099) rotate(-107.468) scale(4.55394 2.37248)">
<stop stop-color="#178697"/>
<stop offset="0.407867" stop-color="#17838F" stop-opacity="0.79"/>
<stop offset="0.874482" stop-color="#007281" stop-opacity="0"/>
</radialGradient>
<radialGradient id="paint4_radial_237_6960" cx="0" cy="0" r="1" gradientUnits="userSpaceOnUse" gradientTransform="translate(11.7178 13.4856) rotate(-120.86) scale(11.5646 3.56729)">
<stop stop-color="#25342F" stop-opacity="0.3"/>
<stop offset="1" stop-color="#25342F" stop-opacity="0"/>
</radialGradient>
<radialGradient id="paint5_radial_237_6960" cx="0" cy="0" r="1" gradientUnits="userSpaceOnUse" gradientTransform="translate(13.7807 12.037) rotate(85.0979) scale(4.35557 2.47042)">
<stop stop-color="#056D4F"/>
<stop offset="0.232593" stop-color="#056C4E" stop-opacity="0.75"/>
<stop offset="0.598902" stop-color="#056C4E" stop-opacity="0.300824"/>
<stop offset="0.874482" stop-color="#056C4F" stop-opacity="0"/>
</radialGradient>
<radialGradient id="paint6_radial_237_6960" cx="0" cy="0" r="1" gradientUnits="userSpaceOnUse" gradientTransform="translate(13.9734 4.9929) rotate(57.0774) scale(5.12006 2.68547)">
<stop stop-color="#22B67B"/>
<stop offset="0.407867" stop-color="#24BE82"/>
<stop offset="1" stop-color="#24BE82" stop-opacity="0.07"/>
</radialGradient>
<linearGradient id="paint7_linear_237_6960" x1="0.0614044" y1="12.6987" x2="7.4782" y2="12.7597" gradientUnits="userSpaceOnUse">
<stop stop-color="#09F8FF"/>
<stop offset="1" stop-color="#0BF7F9" stop-opacity="0"/>
</linearGradient>
<radialGradient id="paint8_radial_237_6960" cx="0" cy="0" r="1" gradientUnits="userSpaceOnUse" gradientTransform="translate(1.65476 6.01831) rotate(49.6506) scale(6.68708 6.67038)">
<stop stop-color="#09F8FF"/>
<stop offset="1" stop-color="#0BF7F9" stop-opacity="0"/>
</radialGradient>
<radialGradient id="paint9_radial_237_6960" cx="0" cy="0" r="1" gradientUnits="userSpaceOnUse" gradientTransform="translate(7.01152 2.65156) rotate(48.0118) scale(13.5627 13.5413)">
<stop stop-color="#00B8FF"/>
<stop offset="0.745423" stop-color="#00B9FC" stop-opacity="0"/>
</radialGradient>
<radialGradient id="paint10_radial_237_6960" cx="0" cy="0" r="1" gradientUnits="userSpaceOnUse" gradientTransform="translate(7.72939 12.8242) rotate(-107.468) scale(6.53739 4.52969)">
<stop stop-color="#00BCFF" stop-opacity="0.76"/>
<stop offset="0.57273" stop-color="#00BAFC" stop-opacity="0"/>
</radialGradient>
<radialGradient id="paint11_radial_237_6960" cx="0" cy="0" r="1" gradientUnits="userSpaceOnUse" gradientTransform="translate(17.668 10.3413) rotate(-129.551) scale(4.62285 3.23645)">
<stop stop-color="#5FEC50"/>
<stop offset="1" stop-color="#3CC08E" stop-opacity="0"/>
</radialGradient>
<radialGradient id="paint12_radial_237_6960" cx="0" cy="0" r="1" gradientUnits="userSpaceOnUse" gradientTransform="translate(17.0063 13.3188) rotate(-79.0944) scale(1.39956 0.967995)">
<stop stop-color="#28855B"/>
<stop offset="1" stop-color="#14795C" stop-opacity="0"/>
</radialGradient>
<radialGradient id="paint13_radial_237_6960" cx="0" cy="0" r="1" gradientUnits="userSpaceOnUse" gradientTransform="translate(16.9389 13.2158) rotate(-77.8798) scale(1.15377 1.61244)">
<stop stop-color="#28855B"/>
<stop offset="1" stop-color="#14795C" stop-opacity="0"/>
</radialGradient>
<radialGradient id="paint14_radial_237_6960" cx="0" cy="0" r="1" gradientUnits="userSpaceOnUse" gradientTransform="translate(18.3133 11.1372) rotate(-132.79) scale(3.82734 2.68875)">
<stop stop-color="#5FF05B"/>
<stop offset="0.813285" stop-color="#5DE955" stop-opacity="0"/>
</radialGradient>
<radialGradient id="paint15_radial_237_6960" cx="0" cy="0" r="1" gradientUnits="userSpaceOnUse" gradientTransform="translate(17.1179 12.2366) rotate(37.4559) scale(3.40377 4.73117)">
<stop stop-color="#123AA8"/>
<stop offset="0.966119" stop-color="#123AA8" stop-opacity="0"/>
</radialGradient>
<radialGradient id="paint16_radial_237_6960" cx="0" cy="0" r="1" gradientUnits="userSpaceOnUse" gradientTransform="translate(16.2712 12.6202) rotate(8.48611) scale(4.01613 5.99466)">
<stop stop-color="#123AA8"/>
<stop offset="0.592487" stop-color="#123AA8" stop-opacity="0"/>
</radialGradient>
<radialGradient id="paint17_radial_237_6960" cx="0" cy="0" r="1" gradientUnits="userSpaceOnUse" gradientTransform="translate(16.597 13.1184) rotate(24.6631) scale(3.43064 6.11305)">
<stop stop-color="#123AA8"/>
<stop offset="0.756788" stop-color="#123AA8" stop-opacity="0"/>
</radialGradient>
<radialGradient id="paint18_radial_237_6960" cx="0" cy="0" r="1" gradientUnits="userSpaceOnUse" gradientTransform="translate(16.1942 13.3217) rotate(95.8028) scale(6.16717 3.37968)">
<stop stop-color="#123AA8"/>
<stop offset="0.592487" stop-color="#123AA8" stop-opacity="0"/>
<stop offset="1" stop-color="#123AA8" stop-opacity="0"/>
</radialGradient>
<radialGradient id="paint19_radial_237_6960" cx="0" cy="0" r="1" gradientUnits="userSpaceOnUse" gradientTransform="translate(17.1179 10.5989) rotate(93.6671) scale(7.42202 2.64874)">
<stop stop-color="#123AA8"/>
<stop offset="0.884611" stop-color="#123AA8" stop-opacity="0"/>
</radialGradient>
<radialGradient id="paint20_radial_237_6960" cx="0" cy="0" r="1" gradientUnits="userSpaceOnUse" gradientTransform="translate(8.70674 12.1421) rotate(84.8296) scale(3.93845 2.08655)">
<stop stop-color="#123AA8"/>
<stop offset="0.884611" stop-color="#123AA8" stop-opacity="0"/>
</radialGradient>
<radialGradient id="paint21_radial_237_6960" cx="0" cy="0" r="1" gradientUnits="userSpaceOnUse" gradientTransform="translate(8.7039 12.2481) rotate(87.2504) scale(4.11039 3.39349)">
<stop stop-color="#123AA8"/>
<stop offset="0.884611" stop-color="#123AA8" stop-opacity="0"/>
</radialGradient>
<radialGradient id="paint22_radial_237_6960" cx="0" cy="0" r="1" gradientUnits="userSpaceOnUse" gradientTransform="translate(9.63908 16.1103) rotate(-23.1725) scale(4.58383 8.9598)">
<stop stop-color="#123AA8"/>
<stop offset="0.708977" stop-color="#123AA8" stop-opacity="0"/>
</radialGradient>
<radialGradient id="paint23_radial_237_6960" cx="0" cy="0" r="1" gradientUnits="userSpaceOnUse" gradientTransform="translate(8.00814 11.2431) rotate(-159.526) scale(3.03685 5.1999)">
<stop stop-color="#1A3DA0"/>
<stop offset="0.708977" stop-color="#123AA8" stop-opacity="0"/>
</radialGradient>
<radialGradient id="paint24_radial_237_6960" cx="0" cy="0" r="1" gradientUnits="userSpaceOnUse" gradientTransform="translate(5.33493 12.2767) rotate(16.749) scale(5.79211 5.84712)">
<stop stop-color="#1E3882"/>
<stop offset="0.761404" stop-color="#123AA8" stop-opacity="0"/>
</radialGradient>
<linearGradient id="paint25_linear_237_6960" x1="3.51636" y1="9.07297" x2="9.22396" y2="12.7158" gradientUnits="userSpaceOnUse">
<stop offset="0.229329" stop-color="#1DC4FF"/>
<stop offset="1" stop-color="#1CC1FF" stop-opacity="0"/>
</linearGradient>
<radialGradient id="paint26_radial_237_6960" cx="0" cy="0" r="1" gradientUnits="userSpaceOnUse" gradientTransform="translate(1.65442 6.01804) rotate(49.6506) scale(6.68708 6.67038)">
<stop stop-color="#09F8FF"/>
<stop offset="1" stop-color="#0BF7F9" stop-opacity="0"/>
</radialGradient>
<linearGradient id="paint27_linear_237_6960" x1="3.83185" y1="9.25905" x2="5.43281" y2="10.7104" gradientUnits="userSpaceOnUse">
<stop stop-color="#26FBFF"/>
<stop offset="0.637346" stop-color="#0BF7F9" stop-opacity="0"/>
</linearGradient>
<linearGradient id="paint28_linear_237_6960" x1="3.4065" y1="10.3699" x2="5.62091" y2="10.5279" gradientUnits="userSpaceOnUse">
<stop stop-color="#26FBFF"/>
<stop offset="0.637346" stop-color="#0BF7F9" stop-opacity="0"/>
</linearGradient>
<radialGradient id="paint29_radial_237_6960" cx="0" cy="0" r="1" gradientUnits="userSpaceOnUse" gradientTransform="translate(7.72919 12.8242) rotate(-107.468) scale(6.53739 4.52969)">
<stop stop-color="#00BCFF" stop-opacity="0.76"/>
<stop offset="0.57273" stop-color="#00BAFC" stop-opacity="0"/>
</radialGradient>
</defs>
</svg>
