<svg width="32" height="32" viewBox="0 0 32 32" fill="none" xmlns="http://www.w3.org/2000/svg">
<mask id="path-1-inside-1_237_6924" fill="white">
<path d="M0 8C0 3.58172 3.58172 0 8 0H24C28.4183 0 32 3.58172 32 8V24C32 28.4183 28.4183 32 24 32H8C3.58172 32 0 28.4183 0 24V8Z"/>
</mask>
<path d="M0 8C0 3.58172 3.58172 0 8 0H24C28.4183 0 32 3.58172 32 8V24C32 28.4183 28.4183 32 24 32H8C3.58172 32 0 28.4183 0 24V8Z" fill="white"/>
<path d="M8 0V1H24V0V-1H8V0ZM32 8H31V24H32H33V8H32ZM24 32V31H8V32V33H24V32ZM0 24H1V8H0H-1V24H0ZM8 32V31C4.13401 31 1 27.866 1 24H0H-1C-1 28.9706 3.02944 33 8 33V32ZM32 24H31C31 27.866 27.866 31 24 31V32V33C28.9706 33 33 28.9706 33 24H32ZM24 0V1C27.866 1 31 4.13401 31 8H32H33C33 3.02944 28.9706 -1 24 -1V0ZM8 0V-1C3.02944 -1 -1 3.02944 -1 8H0H1C1 4.13401 4.13401 1 8 1V0Z" fill="#0B1228" fill-opacity="0.14" mask="url(#path-1-inside-1_237_6924)"/>
<mask id="mask0_237_6924" style="mask-type:luminance" maskUnits="userSpaceOnUse" x="4" y="8" width="24" height="17">
<path d="M27.3346 8.23633H4.66797V24.7349H27.3346V8.23633Z" fill="white"/>
</mask>
<g mask="url(#mask0_237_6924)">
<path d="M11.7009 24.6696C7.50388 24.6696 6.07536 19.3616 5.75527 18.329C4.95145 15.736 4.7071 13.4003 4.68123 13.1552C4.53196 11.7408 5.66633 10.7566 6.91133 10.7566C7.85397 10.7566 8.94803 11.3209 9.093 12.69C9.11812 12.9203 9.30978 14.9064 9.98776 17.0704C10.6953 19.3289 11.4459 20.1975 11.9864 20.1975C12.8593 20.1975 13.3918 17.9555 13.8626 15.8208C14.2095 14.248 14.5845 12.6632 15.3248 11.2554C16.6126 8.80626 18.5588 8.23633 20.24 8.23633C23.9266 8.23633 25.7718 12.5076 25.7718 13.6143C25.7718 15.4637 24.2633 15.9354 23.6096 15.9354C22.1797 15.9354 21.695 14.9773 21.287 14.1375C20.92 13.382 20.5368 12.7539 20.0412 12.7539C19.8784 12.7539 19.7275 12.8363 19.5879 12.9782C18.3563 14.23 17.9433 20.7789 15.4807 23.282C14.1154 24.6696 12.63 24.6696 11.7009 24.6696Z" fill="url(#paint0_linear_237_6924)"/>
<path d="M11.7009 24.6696C7.50388 24.6696 6.07536 19.3616 5.75527 18.329C4.95145 15.736 4.7071 13.4003 4.68123 13.1552C4.53196 11.7408 5.66633 10.7566 6.91133 10.7566C7.85397 10.7566 8.94803 11.3209 9.093 12.69C9.11812 12.9203 9.30978 14.9064 9.98776 17.0704C10.6953 19.3289 11.4459 20.1975 11.9864 20.1975C12.8593 20.1975 13.3918 17.9555 13.8626 15.8208C14.2095 14.248 14.5845 12.6632 15.3248 11.2554C16.6126 8.80626 18.5588 8.23633 20.24 8.23633C23.9266 8.23633 25.7718 12.5076 25.7718 13.6143C25.7718 15.4637 24.2633 15.9354 23.6096 15.9354C22.1797 15.9354 21.695 14.9773 21.287 14.1375C20.92 13.382 20.5368 12.7539 20.0412 12.7539C19.8784 12.7539 19.7275 12.8363 19.5879 12.9782C18.3563 14.23 17.9433 20.7789 15.4807 23.282C14.1154 24.6696 12.63 24.6696 11.7009 24.6696Z" fill="url(#paint1_radial_237_6924)"/>
<path d="M11.7009 24.6696C7.50388 24.6696 6.07536 19.3616 5.75527 18.329C4.95145 15.736 4.7071 13.4003 4.68123 13.1552C4.53196 11.7408 5.66633 10.7566 6.91133 10.7566C7.85397 10.7566 8.94803 11.3209 9.093 12.69C9.11812 12.9203 9.30978 14.9064 9.98776 17.0704C10.6953 19.3289 11.4459 20.1975 11.9864 20.1975C12.8593 20.1975 13.3918 17.9555 13.8626 15.8208C14.2095 14.248 14.5845 12.6632 15.3248 11.2554C16.6126 8.80626 18.5588 8.23633 20.24 8.23633C23.9266 8.23633 25.7718 12.5076 25.7718 13.6143C25.7718 15.4637 24.2633 15.9354 23.6096 15.9354C22.1797 15.9354 21.695 14.9773 21.287 14.1375C20.92 13.382 20.5368 12.7539 20.0412 12.7539C19.8784 12.7539 19.7275 12.8363 19.5879 12.9782C18.3563 14.23 17.9433 20.7789 15.4807 23.282C14.1154 24.6696 12.63 24.6696 11.7009 24.6696Z" fill="url(#paint2_radial_237_6924)"/>
<path d="M11.7009 24.6696C7.50388 24.6696 6.07536 19.3616 5.75527 18.329C4.95145 15.736 4.7071 13.4003 4.68123 13.1552C4.53196 11.7408 5.66633 10.7566 6.91133 10.7566C7.85397 10.7566 8.94803 11.3209 9.093 12.69C9.11812 12.9203 9.30978 14.9064 9.98776 17.0704C10.6953 19.3289 11.4459 20.1975 11.9864 20.1975C12.8593 20.1975 13.3918 17.9555 13.8626 15.8208C14.2095 14.248 14.5845 12.6632 15.3248 11.2554C16.6126 8.80626 18.5588 8.23633 20.24 8.23633C23.9266 8.23633 25.7718 12.5076 25.7718 13.6143C25.7718 15.4637 24.2633 15.9354 23.6096 15.9354C22.1797 15.9354 21.695 14.9773 21.287 14.1375C20.92 13.382 20.5368 12.7539 20.0412 12.7539C19.8784 12.7539 19.7275 12.8363 19.5879 12.9782C18.3563 14.23 17.9433 20.7789 15.4807 23.282C14.1154 24.6696 12.63 24.6696 11.7009 24.6696Z" fill="url(#paint3_radial_237_6924)"/>
<path d="M11.7009 24.6696C7.50388 24.6696 6.07536 19.3616 5.75527 18.329C4.95145 15.736 4.7071 13.4003 4.68123 13.1552C4.53196 11.7408 5.66633 10.7566 6.91133 10.7566C7.85397 10.7566 8.94803 11.3209 9.093 12.69C9.11812 12.9203 9.30978 14.9064 9.98776 17.0704C10.6953 19.3289 11.4459 20.1975 11.9864 20.1975C12.8593 20.1975 13.3918 17.9555 13.8626 15.8208C14.2095 14.248 14.5845 12.6632 15.3248 11.2554C16.6126 8.80626 18.5588 8.23633 20.24 8.23633C23.9266 8.23633 25.7718 12.5076 25.7718 13.6143C25.7718 15.4637 24.2633 15.9354 23.6096 15.9354C22.1797 15.9354 21.695 14.9773 21.287 14.1375C20.92 13.382 20.5368 12.7539 20.0412 12.7539C19.8784 12.7539 19.7275 12.8363 19.5879 12.9782C18.3563 14.23 17.9433 20.7789 15.4807 23.282C14.1154 24.6696 12.63 24.6696 11.7009 24.6696Z" fill="url(#paint4_radial_237_6924)"/>
<path d="M11.7009 24.6696C7.50388 24.6696 6.07536 19.3616 5.75527 18.329C4.95145 15.736 4.7071 13.4003 4.68123 13.1552C4.53196 11.7408 5.66633 10.7566 6.91133 10.7566C7.85397 10.7566 8.94803 11.3209 9.093 12.69C9.11812 12.9203 9.30978 14.9064 9.98776 17.0704C10.6953 19.3289 11.4459 20.1975 11.9864 20.1975C12.8593 20.1975 13.3918 17.9555 13.8626 15.8208C14.2095 14.248 14.5845 12.6632 15.3248 11.2554C16.6126 8.80626 18.5588 8.23633 20.24 8.23633C23.9266 8.23633 25.7718 12.5076 25.7718 13.6143C25.7718 15.4637 24.2633 15.9354 23.6096 15.9354C22.1797 15.9354 21.695 14.9773 21.287 14.1375C20.92 13.382 20.5368 12.7539 20.0412 12.7539C19.8784 12.7539 19.7275 12.8363 19.5879 12.9782C18.3563 14.23 17.9433 20.7789 15.4807 23.282C14.1154 24.6696 12.63 24.6696 11.7009 24.6696Z" fill="url(#paint5_radial_237_6924)"/>
<path d="M11.7009 24.6696C7.50388 24.6696 6.07536 19.3616 5.75527 18.329C4.95145 15.736 4.7071 13.4003 4.68123 13.1552C4.53196 11.7408 5.66633 10.7566 6.91133 10.7566C7.85397 10.7566 8.94803 11.3209 9.093 12.69C9.11812 12.9203 9.30978 14.9064 9.98776 17.0704C10.6953 19.3289 11.4459 20.1975 11.9864 20.1975C12.8593 20.1975 13.3918 17.9555 13.8626 15.8208C14.2095 14.248 14.5845 12.6632 15.3248 11.2554C16.6126 8.80626 18.5588 8.23633 20.24 8.23633C23.9266 8.23633 25.7718 12.5076 25.7718 13.6143C25.7718 15.4637 24.2633 15.9354 23.6096 15.9354C22.1797 15.9354 21.695 14.9773 21.287 14.1375C20.92 13.382 20.5368 12.7539 20.0412 12.7539C19.8784 12.7539 19.7275 12.8363 19.5879 12.9782C18.3563 14.23 17.9433 20.7789 15.4807 23.282C14.1154 24.6696 12.63 24.6696 11.7009 24.6696Z" fill="url(#paint6_radial_237_6924)"/>
<path d="M11.7009 24.6696C7.50388 24.6696 6.07536 19.3616 5.75527 18.329C4.95145 15.736 4.7071 13.4003 4.68123 13.1552C4.53196 11.7408 5.66633 10.7566 6.91133 10.7566C7.85397 10.7566 8.94803 11.3209 9.093 12.69C9.11812 12.9203 9.30978 14.9064 9.98776 17.0704C10.6953 19.3289 11.4459 20.1975 11.9864 20.1975C12.8593 20.1975 13.3918 17.9555 13.8626 15.8208C14.2095 14.248 14.5845 12.6632 15.3248 11.2554C16.6126 8.80626 18.5588 8.23633 20.24 8.23633C23.9266 8.23633 25.7718 12.5076 25.7718 13.6143C25.7718 15.4637 24.2633 15.9354 23.6096 15.9354C22.1797 15.9354 21.695 14.9773 21.287 14.1375C20.92 13.382 20.5368 12.7539 20.0412 12.7539C19.8784 12.7539 19.7275 12.8363 19.5879 12.9782C18.3563 14.23 17.9433 20.7789 15.4807 23.282C14.1154 24.6696 12.63 24.6696 11.7009 24.6696Z" fill="url(#paint7_linear_237_6924)"/>
<path d="M11.7009 24.6696C7.50388 24.6696 6.07536 19.3616 5.75527 18.329C4.95145 15.736 4.7071 13.4003 4.68123 13.1552C4.53196 11.7408 5.66633 10.7566 6.91133 10.7566C7.85397 10.7566 8.94803 11.3209 9.093 12.69C9.11812 12.9203 9.30978 14.9064 9.98776 17.0704C10.6953 19.3289 11.4459 20.1975 11.9864 20.1975C12.8593 20.1975 13.3918 17.9555 13.8626 15.8208C14.2095 14.248 14.5845 12.6632 15.3248 11.2554C16.6126 8.80626 18.5588 8.23633 20.24 8.23633C23.9266 8.23633 25.7718 12.5076 25.7718 13.6143C25.7718 15.4637 24.2633 15.9354 23.6096 15.9354C22.1797 15.9354 21.695 14.9773 21.287 14.1375C20.92 13.382 20.5368 12.7539 20.0412 12.7539C19.8784 12.7539 19.7275 12.8363 19.5879 12.9782C18.3563 14.23 17.9433 20.7789 15.4807 23.282C14.1154 24.6696 12.63 24.6696 11.7009 24.6696Z" fill="url(#paint8_radial_237_6924)"/>
<path d="M20.2407 8.23633C18.5594 8.23633 16.6132 8.80626 15.3253 11.2554C14.585 12.6632 14.2101 14.248 13.8632 15.8208C13.749 16.3383 13.6312 16.8621 13.5059 17.3588V24.4747C14.1421 24.2947 14.8255 23.9484 15.4813 23.282C17.9439 20.7789 18.3569 14.23 19.5886 12.9782C19.728 12.8363 19.879 12.7539 20.0418 12.7539C20.5374 12.7539 20.9206 13.382 21.2876 14.1375C21.6956 14.9773 22.1803 15.9354 23.6102 15.9354C24.264 15.9354 25.7723 15.4637 25.7723 13.6143C25.7723 12.5076 23.9273 8.23633 20.2407 8.23633Z" fill="url(#paint9_radial_237_6924)"/>
<path d="M11.7009 24.6696C7.50388 24.6696 6.07536 19.3616 5.75527 18.329C4.95145 15.736 4.7071 13.4003 4.68123 13.1552C4.53196 11.7408 5.66633 10.7566 6.91133 10.7566C7.85397 10.7566 8.94803 11.3209 9.093 12.69C9.11812 12.9203 9.30978 14.9064 9.98776 17.0704C10.6953 19.3289 11.4459 20.1975 11.9864 20.1975C12.8593 20.1975 13.3918 17.9555 13.8626 15.8208C14.2095 14.248 14.5845 12.6632 15.3248 11.2554C16.6126 8.80626 18.5588 8.23633 20.24 8.23633C23.9266 8.23633 25.7718 12.5076 25.7718 13.6143C25.7718 15.4637 24.2633 15.9354 23.6096 15.9354C22.1797 15.9354 21.695 14.9773 21.287 14.1375C20.92 13.382 20.5368 12.7539 20.0412 12.7539C19.8784 12.7539 19.7275 12.8363 19.5879 12.9782C18.3563 14.23 17.9433 20.7789 15.4807 23.282C14.1154 24.6696 12.63 24.6696 11.7009 24.6696Z" fill="url(#paint10_radial_237_6924)"/>
<path d="M11.7009 24.6696C7.50388 24.6696 6.07536 19.3616 5.75527 18.329C4.95145 15.736 4.7071 13.4003 4.68123 13.1552C4.53196 11.7408 5.66633 10.7566 6.91133 10.7566C7.85397 10.7566 8.94803 11.3209 9.093 12.69C9.11812 12.9203 9.30978 14.9064 9.98776 17.0704C10.6953 19.3289 11.4459 20.1975 11.9864 20.1975C12.8593 20.1975 13.3918 17.9555 13.8626 15.8208C14.2095 14.248 14.5845 12.6632 15.3248 11.2554C16.6126 8.80626 18.5588 8.23633 20.24 8.23633C23.9266 8.23633 25.7718 12.5076 25.7718 13.6143C25.7718 15.4637 24.2633 15.9354 23.6096 15.9354C22.1797 15.9354 21.695 14.9773 21.287 14.1375C20.92 13.382 20.5368 12.7539 20.0412 12.7539C19.8784 12.7539 19.7275 12.8363 19.5879 12.9782C18.3563 14.23 17.9433 20.7789 15.4807 23.282C14.1154 24.6696 12.63 24.6696 11.7009 24.6696Z" fill="url(#paint11_radial_237_6924)"/>
<path d="M11.7009 24.6696C7.50388 24.6696 6.07536 19.3616 5.75527 18.329C4.95145 15.736 4.7071 13.4003 4.68123 13.1552C4.53196 11.7408 5.66633 10.7566 6.91133 10.7566C7.85397 10.7566 8.94803 11.3209 9.093 12.69C9.11812 12.9203 9.30978 14.9064 9.98776 17.0704C10.6953 19.3289 11.4459 20.1975 11.9864 20.1975C12.8593 20.1975 13.3918 17.9555 13.8626 15.8208C14.2095 14.248 14.5845 12.6632 15.3248 11.2554C16.6126 8.80626 18.5588 8.23633 20.24 8.23633C23.9266 8.23633 25.7718 12.5076 25.7718 13.6143C25.7718 15.4637 24.2633 15.9354 23.6096 15.9354C22.1797 15.9354 21.695 14.9773 21.287 14.1375C20.92 13.382 20.5368 12.7539 20.0412 12.7539C19.8784 12.7539 19.7275 12.8363 19.5879 12.9782C18.3563 14.23 17.9433 20.7789 15.4807 23.282C14.1154 24.6696 12.63 24.6696 11.7009 24.6696Z" fill="url(#paint12_radial_237_6924)"/>
<path d="M11.7009 24.6696C7.50388 24.6696 6.07536 19.3616 5.75527 18.329C4.95145 15.736 4.7071 13.4003 4.68123 13.1552C4.53196 11.7408 5.66633 10.7566 6.91133 10.7566C7.85397 10.7566 8.94803 11.3209 9.093 12.69C9.11812 12.9203 9.30978 14.9064 9.98776 17.0704C10.6953 19.3289 11.4459 20.1975 11.9864 20.1975C12.8593 20.1975 13.3918 17.9555 13.8626 15.8208C14.2095 14.248 14.5845 12.6632 15.3248 11.2554C16.6126 8.80626 18.5588 8.23633 20.24 8.23633C23.9266 8.23633 25.7718 12.5076 25.7718 13.6143C25.7718 15.4637 24.2633 15.9354 23.6096 15.9354C22.1797 15.9354 21.695 14.9773 21.287 14.1375C20.92 13.382 20.5368 12.7539 20.0412 12.7539C19.8784 12.7539 19.7275 12.8363 19.5879 12.9782C18.3563 14.23 17.9433 20.7789 15.4807 23.282C14.1154 24.6696 12.63 24.6696 11.7009 24.6696Z" fill="url(#paint13_radial_237_6924)"/>
<path d="M11.7009 24.6696C7.50388 24.6696 6.07536 19.3616 5.75527 18.329C4.95145 15.736 4.7071 13.4003 4.68123 13.1552C4.53196 11.7408 5.66633 10.7566 6.91133 10.7566C7.85397 10.7566 8.94803 11.3209 9.093 12.69C9.11812 12.9203 9.30978 14.9064 9.98776 17.0704C10.6953 19.3289 11.4459 20.1975 11.9864 20.1975C12.8593 20.1975 13.3918 17.9555 13.8626 15.8208C14.2095 14.248 14.5845 12.6632 15.3248 11.2554C16.6126 8.80626 18.5588 8.23633 20.24 8.23633C23.9266 8.23633 25.7718 12.5076 25.7718 13.6143C25.7718 15.4637 24.2633 15.9354 23.6096 15.9354C22.1797 15.9354 21.695 14.9773 21.287 14.1375C20.92 13.382 20.5368 12.7539 20.0412 12.7539C19.8784 12.7539 19.7275 12.8363 19.5879 12.9782C18.3563 14.23 17.9433 20.7789 15.4807 23.282C14.1154 24.6696 12.63 24.6696 11.7009 24.6696Z" fill="url(#paint14_radial_237_6924)"/>
<path d="M25.0921 10.7566C24.9259 10.7566 24.7587 10.7722 24.5948 10.8046C25.3741 11.9283 25.764 13.1055 25.764 13.6142C25.764 15.4636 24.2556 15.9353 23.6019 15.9353C23.0917 15.9353 22.7019 15.8133 22.393 15.6182C22.39 15.6298 22.3873 15.6413 22.3844 15.6528C22.2925 16.0199 22.22 16.4216 22.0944 16.8126C21.8531 17.5642 21.5275 18.4228 21.1798 19.0871C20.8051 19.8034 20.434 20.2225 19.9919 20.2005C19.4889 20.1755 19.0812 19.5272 18.5744 17.6951C18.4109 17.1044 18.2596 16.4567 18.1194 15.8208C17.7715 14.2433 17.3444 12.6571 16.6143 11.2554C15.4217 8.966 13.3875 8.23633 11.7634 8.23633C10.2572 8.23633 9.13191 8.94942 8.2479 9.84793C8.00364 10.0962 7.73675 10.4308 7.46875 10.8239C8.23978 11.0096 8.96883 11.59 9.08521 12.6899C9.10817 12.8996 9.2691 14.5652 9.80967 16.4955C9.96477 16.0115 10.1909 15.2948 10.7163 14.1375C10.9738 13.6075 11.2062 13.258 11.4159 13.045C11.6081 12.8495 11.7813 12.7688 11.9372 12.7688C12.1054 12.7688 12.6794 12.9227 13.2383 14.884C13.9315 17.3161 14.4474 21.1868 16.4128 23.2419C17.2796 24.1484 18.4926 24.7349 20.1739 24.7349C21.6491 24.7349 22.8789 24.0852 23.7559 23.1815C25.1976 21.6953 25.9877 19.2382 26.2695 18.329C27.0714 15.7422 27.2961 13.4028 27.3222 13.1552C27.4714 11.7408 26.2799 10.7566 25.0921 10.7566Z" fill="#316AFF"/>
<path d="M25.0921 10.7566C24.9259 10.7566 24.7587 10.7722 24.5948 10.8046C25.3741 11.9283 25.764 13.1055 25.764 13.6142C25.764 15.4636 24.2556 15.9353 23.6019 15.9353C23.0917 15.9353 22.7019 15.8133 22.393 15.6182C22.39 15.6298 22.3873 15.6413 22.3844 15.6528C22.2925 16.0199 22.22 16.4216 22.0944 16.8126C21.8531 17.5642 21.5275 18.4228 21.1798 19.0871C20.8051 19.8034 20.434 20.2225 19.9919 20.2005C19.4889 20.1755 19.0812 19.5272 18.5744 17.6951C18.4109 17.1044 18.2596 16.4567 18.1194 15.8208C17.7715 14.2433 17.3444 12.6571 16.6143 11.2554C15.4217 8.966 13.3875 8.23633 11.7634 8.23633C10.2572 8.23633 9.13191 8.94942 8.2479 9.84793C8.00364 10.0962 7.73675 10.4308 7.46875 10.8239C8.23978 11.0096 8.96883 11.59 9.08521 12.6899C9.10817 12.8996 9.2691 14.5652 9.80967 16.4955C9.96477 16.0115 10.1909 15.2948 10.7163 14.1375C10.9738 13.6075 11.2062 13.258 11.4159 13.045C11.6081 12.8495 11.7813 12.7688 11.9372 12.7688C12.1054 12.7688 12.6794 12.9227 13.2383 14.884C13.9315 17.3161 14.4474 21.1868 16.4128 23.2419C17.2796 24.1484 18.4926 24.7349 20.1739 24.7349C21.6491 24.7349 22.8789 24.0852 23.7559 23.1815C25.1976 21.6953 25.9877 19.2382 26.2695 18.329C27.0714 15.7422 27.2961 13.4028 27.3222 13.1552C27.4714 11.7408 26.2799 10.7566 25.0921 10.7566Z" fill="url(#paint15_radial_237_6924)"/>
<path d="M25.0921 10.7566C24.9259 10.7566 24.7587 10.7722 24.5948 10.8046C25.3741 11.9283 25.764 13.1055 25.764 13.6142C25.764 15.4636 24.2556 15.9353 23.6019 15.9353C23.0917 15.9353 22.7019 15.8133 22.393 15.6182C22.39 15.6298 22.3873 15.6413 22.3844 15.6528C22.2925 16.0199 22.22 16.4216 22.0944 16.8126C21.8531 17.5642 21.5275 18.4228 21.1798 19.0871C20.8051 19.8034 20.434 20.2225 19.9919 20.2005C19.4889 20.1755 19.0812 19.5272 18.5744 17.6951C18.4109 17.1044 18.2596 16.4567 18.1194 15.8208C17.7715 14.2433 17.3444 12.6571 16.6143 11.2554C15.4217 8.966 13.3875 8.23633 11.7634 8.23633C10.2572 8.23633 9.13191 8.94942 8.2479 9.84793C8.00364 10.0962 7.73675 10.4308 7.46875 10.8239C8.23978 11.0096 8.96883 11.59 9.08521 12.6899C9.10817 12.8996 9.2691 14.5652 9.80967 16.4955C9.96477 16.0115 10.1909 15.2948 10.7163 14.1375C10.9738 13.6075 11.2062 13.258 11.4159 13.045C11.6081 12.8495 11.7813 12.7688 11.9372 12.7688C12.1054 12.7688 12.6794 12.9227 13.2383 14.884C13.9315 17.3161 14.4474 21.1868 16.4128 23.2419C17.2796 24.1484 18.4926 24.7349 20.1739 24.7349C21.6491 24.7349 22.8789 24.0852 23.7559 23.1815C25.1976 21.6953 25.9877 19.2382 26.2695 18.329C27.0714 15.7422 27.2961 13.4028 27.3222 13.1552C27.4714 11.7408 26.2799 10.7566 25.0921 10.7566Z" fill="url(#paint16_radial_237_6924)"/>
<path d="M25.0921 10.7566C24.9259 10.7566 24.7587 10.7722 24.5948 10.8046C25.3741 11.9283 25.764 13.1055 25.764 13.6142C25.764 15.4636 24.2556 15.9353 23.6019 15.9353C23.0917 15.9353 22.7019 15.8133 22.393 15.6182C22.39 15.6298 22.3873 15.6413 22.3844 15.6528C22.2925 16.0199 22.22 16.4216 22.0944 16.8126C21.8531 17.5642 21.5275 18.4228 21.1798 19.0871C20.8051 19.8034 20.434 20.2225 19.9919 20.2005C19.4889 20.1755 19.0812 19.5272 18.5744 17.6951C18.4109 17.1044 18.2596 16.4567 18.1194 15.8208C17.7715 14.2433 17.3444 12.6571 16.6143 11.2554C15.4217 8.966 13.3875 8.23633 11.7634 8.23633C10.2572 8.23633 9.13191 8.94942 8.2479 9.84793C8.00364 10.0962 7.73675 10.4308 7.46875 10.8239C8.23978 11.0096 8.96883 11.59 9.08521 12.6899C9.10817 12.8996 9.2691 14.5652 9.80967 16.4955C9.96477 16.0115 10.1909 15.2948 10.7163 14.1375C10.9738 13.6075 11.2062 13.258 11.4159 13.045C11.6081 12.8495 11.7813 12.7688 11.9372 12.7688C12.1054 12.7688 12.6794 12.9227 13.2383 14.884C13.9315 17.3161 14.4474 21.1868 16.4128 23.2419C17.2796 24.1484 18.4926 24.7349 20.1739 24.7349C21.6491 24.7349 22.8789 24.0852 23.7559 23.1815C25.1976 21.6953 25.9877 19.2382 26.2695 18.329C27.0714 15.7422 27.2961 13.4028 27.3222 13.1552C27.4714 11.7408 26.2799 10.7566 25.0921 10.7566Z" fill="url(#paint17_radial_237_6924)"/>
<path d="M25.0921 10.7566C24.9259 10.7566 24.7587 10.7722 24.5948 10.8046C25.3741 11.9283 25.764 13.1055 25.764 13.6142C25.764 15.4636 24.2556 15.9353 23.6019 15.9353C23.0917 15.9353 22.7019 15.8133 22.393 15.6182C22.39 15.6298 22.3873 15.6413 22.3844 15.6528C22.2925 16.0199 22.22 16.4216 22.0944 16.8126C21.8531 17.5642 21.5275 18.4228 21.1798 19.0871C20.8051 19.8034 20.434 20.2225 19.9919 20.2005C19.4889 20.1755 19.0812 19.5272 18.5744 17.6951C18.4109 17.1044 18.2596 16.4567 18.1194 15.8208C17.7715 14.2433 17.3444 12.6571 16.6143 11.2554C15.4217 8.966 13.3875 8.23633 11.7634 8.23633C10.2572 8.23633 9.13191 8.94942 8.2479 9.84793C8.00364 10.0962 7.73675 10.4308 7.46875 10.8239C8.23978 11.0096 8.96883 11.59 9.08521 12.6899C9.10817 12.8996 9.2691 14.5652 9.80967 16.4955C9.96477 16.0115 10.1909 15.2948 10.7163 14.1375C10.9738 13.6075 11.2062 13.258 11.4159 13.045C11.6081 12.8495 11.7813 12.7688 11.9372 12.7688C12.1054 12.7688 12.6794 12.9227 13.2383 14.884C13.9315 17.3161 14.4474 21.1868 16.4128 23.2419C17.2796 24.1484 18.4926 24.7349 20.1739 24.7349C21.6491 24.7349 22.8789 24.0852 23.7559 23.1815C25.1976 21.6953 25.9877 19.2382 26.2695 18.329C27.0714 15.7422 27.2961 13.4028 27.3222 13.1552C27.4714 11.7408 26.2799 10.7566 25.0921 10.7566Z" fill="url(#paint18_radial_237_6924)"/>
<path d="M25.0921 10.7566C24.9259 10.7566 24.7587 10.7722 24.5948 10.8046C25.3741 11.9283 25.764 13.1055 25.764 13.6142C25.764 15.4636 24.2556 15.9353 23.6019 15.9353C23.0917 15.9353 22.7019 15.8133 22.393 15.6182C22.39 15.6298 22.3873 15.6413 22.3844 15.6528C22.2925 16.0199 22.22 16.4216 22.0944 16.8126C21.8531 17.5642 21.5275 18.4228 21.1798 19.0871C20.8051 19.8034 20.434 20.2225 19.9919 20.2005C19.4889 20.1755 19.0812 19.5272 18.5744 17.6951C18.4109 17.1044 18.2596 16.4567 18.1194 15.8208C17.7715 14.2433 17.3444 12.6571 16.6143 11.2554C15.4217 8.966 13.3875 8.23633 11.7634 8.23633C10.2572 8.23633 9.13191 8.94942 8.2479 9.84793C8.00364 10.0962 7.73675 10.4308 7.46875 10.8239C8.23978 11.0096 8.96883 11.59 9.08521 12.6899C9.10817 12.8996 9.2691 14.5652 9.80967 16.4955C9.96477 16.0115 10.1909 15.2948 10.7163 14.1375C10.9738 13.6075 11.2062 13.258 11.4159 13.045C11.6081 12.8495 11.7813 12.7688 11.9372 12.7688C12.1054 12.7688 12.6794 12.9227 13.2383 14.884C13.9315 17.3161 14.4474 21.1868 16.4128 23.2419C17.2796 24.1484 18.4926 24.7349 20.1739 24.7349C21.6491 24.7349 22.8789 24.0852 23.7559 23.1815C25.1976 21.6953 25.9877 19.2382 26.2695 18.329C27.0714 15.7422 27.2961 13.4028 27.3222 13.1552C27.4714 11.7408 26.2799 10.7566 25.0921 10.7566Z" fill="url(#paint19_radial_237_6924)"/>
<path d="M25.0921 10.7566C24.9259 10.7566 24.7587 10.7722 24.5948 10.8046C25.3741 11.9283 25.764 13.1055 25.764 13.6142C25.764 15.4636 24.2556 15.9353 23.6019 15.9353C23.0917 15.9353 22.7019 15.8133 22.393 15.6182C22.39 15.6298 22.3873 15.6413 22.3844 15.6528C22.2925 16.0199 22.22 16.4216 22.0944 16.8126C21.8531 17.5642 21.5275 18.4228 21.1798 19.0871C20.8051 19.8034 20.434 20.2225 19.9919 20.2005C19.4889 20.1755 19.0812 19.5272 18.5744 17.6951C18.4109 17.1044 18.2596 16.4567 18.1194 15.8208C17.7715 14.2433 17.3444 12.6571 16.6143 11.2554C15.4217 8.966 13.3875 8.23633 11.7634 8.23633C10.2572 8.23633 9.13191 8.94942 8.2479 9.84793C8.00364 10.0962 7.73675 10.4308 7.46875 10.8239C8.23978 11.0096 8.96883 11.59 9.08521 12.6899C9.10817 12.8996 9.2691 14.5652 9.80967 16.4955C9.96477 16.0115 10.1909 15.2948 10.7163 14.1375C10.9738 13.6075 11.2062 13.258 11.4159 13.045C11.6081 12.8495 11.7813 12.7688 11.9372 12.7688C12.1054 12.7688 12.6794 12.9227 13.2383 14.884C13.9315 17.3161 14.4474 21.1868 16.4128 23.2419C17.2796 24.1484 18.4926 24.7349 20.1739 24.7349C21.6491 24.7349 22.8789 24.0852 23.7559 23.1815C25.1976 21.6953 25.9877 19.2382 26.2695 18.329C27.0714 15.7422 27.2961 13.4028 27.3222 13.1552C27.4714 11.7408 26.2799 10.7566 25.0921 10.7566Z" fill="url(#paint20_radial_237_6924)"/>
<path d="M25.0921 10.7566C24.9259 10.7566 24.7587 10.7722 24.5948 10.8046C25.3741 11.9283 25.764 13.1055 25.764 13.6142C25.764 15.4636 24.2556 15.9353 23.6019 15.9353C23.0917 15.9353 22.7019 15.8133 22.393 15.6182C22.39 15.6298 22.3873 15.6413 22.3844 15.6528C22.2925 16.0199 22.22 16.4216 22.0944 16.8126C21.8531 17.5642 21.5275 18.4228 21.1798 19.0871C20.8051 19.8034 20.434 20.2225 19.9919 20.2005C19.4889 20.1755 19.0812 19.5272 18.5744 17.6951C18.4109 17.1044 18.2596 16.4567 18.1194 15.8208C17.7715 14.2433 17.3444 12.6571 16.6143 11.2554C15.4217 8.966 13.3875 8.23633 11.7634 8.23633C10.2572 8.23633 9.13191 8.94942 8.2479 9.84793C8.00364 10.0962 7.73675 10.4308 7.46875 10.8239C8.23978 11.0096 8.96883 11.59 9.08521 12.6899C9.10817 12.8996 9.2691 14.5652 9.80967 16.4955C9.96477 16.0115 10.1909 15.2948 10.7163 14.1375C10.9738 13.6075 11.2062 13.258 11.4159 13.045C11.6081 12.8495 11.7813 12.7688 11.9372 12.7688C12.1054 12.7688 12.6794 12.9227 13.2383 14.884C13.9315 17.3161 14.4474 21.1868 16.4128 23.2419C17.2796 24.1484 18.4926 24.7349 20.1739 24.7349C21.6491 24.7349 22.8789 24.0852 23.7559 23.1815C25.1976 21.6953 25.9877 19.2382 26.2695 18.329C27.0714 15.7422 27.2961 13.4028 27.3222 13.1552C27.4714 11.7408 26.2799 10.7566 25.0921 10.7566Z" fill="url(#paint21_radial_237_6924)"/>
<path d="M25.0921 10.7566C24.9259 10.7566 24.7587 10.7722 24.5948 10.8046C25.3741 11.9283 25.764 13.1055 25.764 13.6142C25.764 15.4636 24.2556 15.9353 23.6019 15.9353C23.0917 15.9353 22.7019 15.8133 22.393 15.6182C22.39 15.6298 22.3873 15.6413 22.3844 15.6528C22.2925 16.0199 22.22 16.4216 22.0944 16.8126C21.8531 17.5642 21.5275 18.4228 21.1798 19.0871C20.8051 19.8034 20.434 20.2225 19.9919 20.2005C19.4889 20.1755 19.0812 19.5272 18.5744 17.6951C18.4109 17.1044 18.2596 16.4567 18.1194 15.8208C17.7715 14.2433 17.3444 12.6571 16.6143 11.2554C15.4217 8.966 13.3875 8.23633 11.7634 8.23633C10.2572 8.23633 9.13191 8.94942 8.2479 9.84793C8.00364 10.0962 7.73675 10.4308 7.46875 10.8239C8.23978 11.0096 8.96883 11.59 9.08521 12.6899C9.10817 12.8996 9.2691 14.5652 9.80967 16.4955C9.96477 16.0115 10.1909 15.2948 10.7163 14.1375C10.9738 13.6075 11.2062 13.258 11.4159 13.045C11.6081 12.8495 11.7813 12.7688 11.9372 12.7688C12.1054 12.7688 12.6794 12.9227 13.2383 14.884C13.9315 17.3161 14.4474 21.1868 16.4128 23.2419C17.2796 24.1484 18.4926 24.7349 20.1739 24.7349C21.6491 24.7349 22.8789 24.0852 23.7559 23.1815C25.1976 21.6953 25.9877 19.2382 26.2695 18.329C27.0714 15.7422 27.2961 13.4028 27.3222 13.1552C27.4714 11.7408 26.2799 10.7566 25.0921 10.7566Z" fill="url(#paint22_radial_237_6924)"/>
<path d="M25.0921 10.7566C24.9259 10.7566 24.7587 10.7722 24.5948 10.8046C25.3741 11.9283 25.764 13.1055 25.764 13.6142C25.764 15.4636 24.2556 15.9353 23.6019 15.9353C23.0917 15.9353 22.7019 15.8133 22.393 15.6182C22.39 15.6298 22.3873 15.6413 22.3844 15.6528C22.2925 16.0199 22.22 16.4216 22.0944 16.8126C21.8531 17.5642 21.5275 18.4228 21.1798 19.0871C20.8051 19.8034 20.434 20.2225 19.9919 20.2005C19.4889 20.1755 19.0812 19.5272 18.5744 17.6951C18.4109 17.1044 18.2596 16.4567 18.1194 15.8208C17.7715 14.2433 17.3444 12.6571 16.6143 11.2554C15.4217 8.966 13.3875 8.23633 11.7634 8.23633C10.2572 8.23633 9.13191 8.94942 8.2479 9.84793C8.00364 10.0962 7.73675 10.4308 7.46875 10.8239C8.23978 11.0096 8.96883 11.59 9.08521 12.6899C9.10817 12.8996 9.2691 14.5652 9.80967 16.4955C9.96477 16.0115 10.1909 15.2948 10.7163 14.1375C10.9738 13.6075 11.2062 13.258 11.4159 13.045C11.6081 12.8495 11.7813 12.7688 11.9372 12.7688C12.1054 12.7688 12.6794 12.9227 13.2383 14.884C13.9315 17.3161 14.4474 21.1868 16.4128 23.2419C17.2796 24.1484 18.4926 24.7349 20.1739 24.7349C21.6491 24.7349 22.8789 24.0852 23.7559 23.1815C25.1976 21.6953 25.9877 19.2382 26.2695 18.329C27.0714 15.7422 27.2961 13.4028 27.3222 13.1552C27.4714 11.7408 26.2799 10.7566 25.0921 10.7566Z" fill="url(#paint23_radial_237_6924)"/>
<path d="M25.0921 10.7566C24.9259 10.7566 24.7587 10.7722 24.5948 10.8046C25.3741 11.9283 25.764 13.1055 25.764 13.6142C25.764 15.4636 24.2556 15.9353 23.6019 15.9353C23.0917 15.9353 22.7019 15.8133 22.393 15.6182C22.39 15.6298 22.3873 15.6413 22.3844 15.6528C22.2925 16.0199 22.22 16.4216 22.0944 16.8126C21.8531 17.5642 21.5275 18.4228 21.1798 19.0871C20.8051 19.8034 20.434 20.2225 19.9919 20.2005C19.4889 20.1755 19.0812 19.5272 18.5744 17.6951C18.4109 17.1044 18.2596 16.4567 18.1194 15.8208C17.7715 14.2433 17.3444 12.6571 16.6143 11.2554C15.4217 8.966 13.3875 8.23633 11.7634 8.23633C10.2572 8.23633 9.13191 8.94942 8.2479 9.84793C8.00364 10.0962 7.73675 10.4308 7.46875 10.8239C8.23978 11.0096 8.96883 11.59 9.08521 12.6899C9.10817 12.8996 9.2691 14.5652 9.80967 16.4955C9.96477 16.0115 10.1909 15.2948 10.7163 14.1375C10.9738 13.6075 11.2062 13.258 11.4159 13.045C11.6081 12.8495 11.7813 12.7688 11.9372 12.7688C12.1054 12.7688 12.6794 12.9227 13.2383 14.884C13.9315 17.3161 14.4474 21.1868 16.4128 23.2419C17.2796 24.1484 18.4926 24.7349 20.1739 24.7349C21.6491 24.7349 22.8789 24.0852 23.7559 23.1815C25.1976 21.6953 25.9877 19.2382 26.2695 18.329C27.0714 15.7422 27.2961 13.4028 27.3222 13.1552C27.4714 11.7408 26.2799 10.7566 25.0921 10.7566Z" fill="url(#paint24_radial_237_6924)"/>
<path d="M11.7009 24.6696C7.50388 24.6696 6.07536 19.3616 5.75527 18.329C4.95145 15.736 4.7071 13.4003 4.68123 13.1552C4.53196 11.7408 5.66633 10.7566 6.91133 10.7566C7.85397 10.7566 8.94803 11.3209 9.093 12.69C9.11819 12.9203 9.30978 14.9064 9.98776 17.0704C10.6953 19.3289 11.4459 20.1975 11.9864 20.1975C12.8593 20.1975 13.3918 17.9555 13.8626 15.8208C14.2095 14.248 14.5845 12.6632 15.3248 11.2554C16.6126 8.80626 18.5588 8.23633 20.24 8.23633C23.9266 8.23633 25.7718 12.5076 25.7718 13.6143C25.7718 15.4637 24.2633 15.9354 23.6096 15.9354C22.1797 15.9354 21.695 14.9773 21.287 14.1375C20.92 13.382 20.5368 12.7539 20.0412 12.7539C19.8784 12.7539 19.7275 12.8363 19.5879 12.9782C18.3563 14.23 17.9433 20.7789 15.4807 23.282C14.1154 24.6696 12.63 24.6696 11.7009 24.6696Z" fill="url(#paint25_linear_237_6924)"/>
<path d="M11.7009 24.6696C7.50388 24.6696 6.07536 19.3616 5.75527 18.329C4.95145 15.736 4.7071 13.4003 4.68123 13.1552C4.53196 11.7408 5.66633 10.7566 6.91133 10.7566C7.85397 10.7566 8.94803 11.3209 9.093 12.69C9.11819 12.9203 9.30978 14.9064 9.98776 17.0704C10.6953 19.3289 11.4459 20.1975 11.9864 20.1975C12.8593 20.1975 13.3918 17.9555 13.8626 15.8208C14.2095 14.248 14.5845 12.6632 15.3248 11.2554C16.6126 8.80626 18.5588 8.23633 20.24 8.23633C23.9266 8.23633 25.7718 12.5076 25.7718 13.6143C25.7718 15.4637 24.2633 15.9354 23.6096 15.9354C22.1797 15.9354 21.695 14.9773 21.287 14.1375C20.92 13.382 20.5368 12.7539 20.0412 12.7539C19.8784 12.7539 19.7275 12.8363 19.5879 12.9782C18.3563 14.23 17.9433 20.7789 15.4807 23.282C14.1154 24.6696 12.63 24.6696 11.7009 24.6696Z" fill="url(#paint26_radial_237_6924)"/>
<path d="M11.7009 24.6696C7.50388 24.6696 6.07536 19.3616 5.75527 18.329C4.95145 15.736 4.7071 13.4003 4.68123 13.1552C4.53196 11.7408 5.66633 10.7566 6.91133 10.7566C7.85397 10.7566 8.94803 11.3209 9.093 12.69C9.11819 12.9203 9.30978 14.9064 9.98776 17.0704C10.6953 19.3289 11.4459 20.1975 11.9864 20.1975C12.8593 20.1975 13.3918 17.9555 13.8626 15.8208C14.2095 14.248 14.5845 12.6632 15.3248 11.2554C16.6126 8.80626 18.5588 8.23633 20.24 8.23633C23.9266 8.23633 25.7718 12.5076 25.7718 13.6143C25.7718 15.4637 24.2633 15.9354 23.6096 15.9354C22.1797 15.9354 21.695 14.9773 21.287 14.1375C20.92 13.382 20.5368 12.7539 20.0412 12.7539C19.8784 12.7539 19.7275 12.8363 19.5879 12.9782C18.3563 14.23 17.9433 20.7789 15.4807 23.282C14.1154 24.6696 12.63 24.6696 11.7009 24.6696Z" fill="url(#paint27_linear_237_6924)"/>
<path d="M11.7009 24.6696C7.50388 24.6696 6.07536 19.3616 5.75527 18.329C4.95145 15.736 4.7071 13.4003 4.68123 13.1552C4.53196 11.7408 5.66633 10.7566 6.91133 10.7566C7.85397 10.7566 8.94803 11.3209 9.093 12.69C9.11819 12.9203 9.30978 14.9064 9.98776 17.0704C10.6953 19.3289 11.4459 20.1975 11.9864 20.1975C12.8593 20.1975 13.3918 17.9555 13.8626 15.8208C14.2095 14.248 14.5845 12.6632 15.3248 11.2554C16.6126 8.80626 18.5588 8.23633 20.24 8.23633C23.9266 8.23633 25.7718 12.5076 25.7718 13.6143C25.7718 15.4637 24.2633 15.9354 23.6096 15.9354C22.1797 15.9354 21.695 14.9773 21.287 14.1375C20.92 13.382 20.5368 12.7539 20.0412 12.7539C19.8784 12.7539 19.7275 12.8363 19.5879 12.9782C18.3563 14.23 17.9433 20.7789 15.4807 23.282C14.1154 24.6696 12.63 24.6696 11.7009 24.6696Z" fill="url(#paint28_linear_237_6924)"/>
<path d="M11.7009 24.6696C7.50388 24.6696 6.07536 19.3616 5.75527 18.329C4.95145 15.736 4.7071 13.4003 4.68123 13.1552C4.53196 11.7408 5.66633 10.7566 6.91133 10.7566C7.85397 10.7566 8.94803 11.3209 9.093 12.69C9.11819 12.9203 9.30978 14.9064 9.98776 17.0704C10.6953 19.3289 11.4459 20.1975 11.9864 20.1975C12.8593 20.1975 13.3918 17.9555 13.8626 15.8208C14.2095 14.248 14.5845 12.6632 15.3248 11.2554C16.6126 8.80626 18.5588 8.23633 20.24 8.23633C23.9266 8.23633 25.7718 12.5076 25.7718 13.6143C25.7718 15.4637 24.2633 15.9354 23.6096 15.9354C22.1797 15.9354 21.695 14.9773 21.287 14.1375C20.92 13.382 20.5368 12.7539 20.0412 12.7539C19.8784 12.7539 19.7275 12.8363 19.5879 12.9782C18.3563 14.23 17.9433 20.7789 15.4807 23.282C14.1154 24.6696 12.63 24.6696 11.7009 24.6696Z" fill="url(#paint29_radial_237_6924)"/>
</g>
<defs>
<linearGradient id="paint0_linear_237_6924" x1="23.4752" y1="13.0579" x2="8.6486" y2="17.9203" gradientUnits="userSpaceOnUse">
<stop stop-color="#5CEE64"/>
<stop offset="1" stop-color="#00BBFF"/>
</linearGradient>
<radialGradient id="paint1_radial_237_6924" cx="0" cy="0" r="1" gradientUnits="userSpaceOnUse" gradientTransform="translate(13.2955 16.9998) rotate(-120.86) scale(9.71303 8.15396)">
<stop stop-color="#007383"/>
<stop offset="0.407867" stop-color="#00717E" stop-opacity="0.75"/>
<stop offset="0.874482" stop-color="#007281" stop-opacity="0"/>
</radialGradient>
<radialGradient id="paint2_radial_237_6924" cx="0" cy="0" r="1" gradientUnits="userSpaceOnUse" gradientTransform="translate(19.6773 15.1926) rotate(-126.734) scale(7.92135 5.20474)">
<stop stop-color="#218970"/>
<stop offset="0.459527" stop-color="#267E6A"/>
<stop offset="1" stop-color="#026C51" stop-opacity="0"/>
</radialGradient>
<radialGradient id="paint3_radial_237_6924" cx="0" cy="0" r="1" gradientUnits="userSpaceOnUse" gradientTransform="translate(12.7362 17.4587) rotate(-107.468) scale(6.4515 3.36105)">
<stop stop-color="#178697"/>
<stop offset="0.407867" stop-color="#17838F" stop-opacity="0.79"/>
<stop offset="0.874482" stop-color="#007281" stop-opacity="0"/>
</radialGradient>
<radialGradient id="paint4_radial_237_6924" cx="0" cy="0" r="1" gradientUnits="userSpaceOnUse" gradientTransform="translate(15.6045 17.4243) rotate(-120.86) scale(16.3834 5.05372)">
<stop stop-color="#25342F" stop-opacity="0.3"/>
<stop offset="1" stop-color="#25342F" stop-opacity="0"/>
</radialGradient>
<radialGradient id="paint5_radial_237_6924" cx="0" cy="0" r="1" gradientUnits="userSpaceOnUse" gradientTransform="translate(18.5269 15.3722) rotate(85.0979) scale(6.17047 3.4998)">
<stop stop-color="#056D4F"/>
<stop offset="0.232593" stop-color="#056C4E" stop-opacity="0.75"/>
<stop offset="0.598902" stop-color="#056C4E" stop-opacity="0.300824"/>
<stop offset="0.874482" stop-color="#056C4F" stop-opacity="0"/>
</radialGradient>
<radialGradient id="paint6_radial_237_6924" cx="0" cy="0" r="1" gradientUnits="userSpaceOnUse" gradientTransform="translate(18.7998 5.3929) rotate(57.0774) scale(7.25351 3.80446)">
<stop stop-color="#22B67B"/>
<stop offset="0.407867" stop-color="#24BE82"/>
<stop offset="1" stop-color="#24BE82" stop-opacity="0.07"/>
</radialGradient>
<linearGradient id="paint7_linear_237_6924" x1="-0.909009" y1="16.3096" x2="9.59825" y2="16.396" gradientUnits="userSpaceOnUse">
<stop stop-color="#09F8FF"/>
<stop offset="1" stop-color="#0BF7F9" stop-opacity="0"/>
</linearGradient>
<radialGradient id="paint8_radial_237_6924" cx="0" cy="0" r="1" gradientUnits="userSpaceOnUse" gradientTransform="translate(1.34828 6.84559) rotate(49.6506) scale(9.47348 9.44982)">
<stop stop-color="#09F8FF"/>
<stop offset="1" stop-color="#0BF7F9" stop-opacity="0"/>
</radialGradient>
<radialGradient id="paint9_radial_237_6924" cx="0" cy="0" r="1" gradientUnits="userSpaceOnUse" gradientTransform="translate(8.93733 2.07596) rotate(48.0118) scale(19.2141 19.1838)">
<stop stop-color="#00B8FF"/>
<stop offset="0.745423" stop-color="#00B9FC" stop-opacity="0"/>
</radialGradient>
<radialGradient id="paint10_radial_237_6924" cx="0" cy="0" r="1" gradientUnits="userSpaceOnUse" gradientTransform="translate(9.9541 16.4874) rotate(-107.468) scale(9.26141 6.41713)">
<stop stop-color="#00BCFF" stop-opacity="0.76"/>
<stop offset="0.57273" stop-color="#00BAFC" stop-opacity="0"/>
</radialGradient>
<radialGradient id="paint11_radial_237_6924" cx="0" cy="0" r="1" gradientUnits="userSpaceOnUse" gradientTransform="translate(24.034 12.9699) rotate(-129.551) scale(6.54912 4.58503)">
<stop stop-color="#5FEC50"/>
<stop offset="1" stop-color="#3CC08E" stop-opacity="0"/>
</radialGradient>
<radialGradient id="paint12_radial_237_6924" cx="0" cy="0" r="1" gradientUnits="userSpaceOnUse" gradientTransform="translate(23.0966 17.1881) rotate(-79.0944) scale(1.98273 1.37134)">
<stop stop-color="#28855B"/>
<stop offset="1" stop-color="#14795C" stop-opacity="0"/>
</radialGradient>
<radialGradient id="paint13_radial_237_6924" cx="0" cy="0" r="1" gradientUnits="userSpaceOnUse" gradientTransform="translate(23.001 17.0422) rotate(-77.8798) scale(1.63453 2.28431)">
<stop stop-color="#28855B"/>
<stop offset="1" stop-color="#14795C" stop-opacity="0"/>
</radialGradient>
<radialGradient id="paint14_radial_237_6924" cx="0" cy="0" r="1" gradientUnits="userSpaceOnUse" gradientTransform="translate(24.9482 14.0975) rotate(-132.79) scale(5.42213 3.80911)">
<stop stop-color="#5FF05B"/>
<stop offset="0.813285" stop-color="#5DE955" stop-opacity="0"/>
</radialGradient>
<radialGradient id="paint15_radial_237_6924" cx="0" cy="0" r="1" gradientUnits="userSpaceOnUse" gradientTransform="translate(23.2525 15.6549) rotate(37.4559) scale(4.82207 6.70258)">
<stop stop-color="#123AA8"/>
<stop offset="0.966119" stop-color="#123AA8" stop-opacity="0"/>
</radialGradient>
<radialGradient id="paint16_radial_237_6924" cx="0" cy="0" r="1" gradientUnits="userSpaceOnUse" gradientTransform="translate(22.0529 16.1984) rotate(8.48611) scale(5.68959 8.49253)">
<stop stop-color="#123AA8"/>
<stop offset="0.592487" stop-color="#123AA8" stop-opacity="0"/>
</radialGradient>
<radialGradient id="paint17_radial_237_6924" cx="0" cy="0" r="1" gradientUnits="userSpaceOnUse" gradientTransform="translate(22.5146 16.9042) rotate(24.6631) scale(4.86013 8.66026)">
<stop stop-color="#123AA8"/>
<stop offset="0.756788" stop-color="#123AA8" stop-opacity="0"/>
</radialGradient>
<radialGradient id="paint18_radial_237_6924" cx="0" cy="0" r="1" gradientUnits="userSpaceOnUse" gradientTransform="translate(21.9438 17.1921) rotate(95.8028) scale(8.73694 4.78794)">
<stop stop-color="#123AA8"/>
<stop offset="0.592487" stop-color="#123AA8" stop-opacity="0"/>
<stop offset="1" stop-color="#123AA8" stop-opacity="0"/>
</radialGradient>
<radialGradient id="paint19_radial_237_6924" cx="0" cy="0" r="1" gradientUnits="userSpaceOnUse" gradientTransform="translate(23.2525 13.3348) rotate(93.6671) scale(10.5147 3.75243)">
<stop stop-color="#123AA8"/>
<stop offset="0.884611" stop-color="#123AA8" stop-opacity="0"/>
</radialGradient>
<radialGradient id="paint20_radial_237_6924" cx="0" cy="0" r="1" gradientUnits="userSpaceOnUse" gradientTransform="translate(11.3365 15.5211) rotate(84.8296) scale(5.57953 2.95598)">
<stop stop-color="#123AA8"/>
<stop offset="0.884611" stop-color="#123AA8" stop-opacity="0"/>
</radialGradient>
<radialGradient id="paint21_radial_237_6924" cx="0" cy="0" r="1" gradientUnits="userSpaceOnUse" gradientTransform="translate(11.3325 15.6712) rotate(87.2504) scale(5.82312 4.80751)">
<stop stop-color="#123AA8"/>
<stop offset="0.884611" stop-color="#123AA8" stop-opacity="0"/>
</radialGradient>
<radialGradient id="paint22_radial_237_6924" cx="0" cy="0" r="1" gradientUnits="userSpaceOnUse" gradientTransform="translate(12.6574 21.1428) rotate(-23.1725) scale(6.49384 12.6932)">
<stop stop-color="#123AA8"/>
<stop offset="0.708977" stop-color="#123AA8" stop-opacity="0"/>
</radialGradient>
<radialGradient id="paint23_radial_237_6924" cx="0" cy="0" r="1" gradientUnits="userSpaceOnUse" gradientTransform="translate(10.3469 14.2474) rotate(-159.526) scale(4.30226 7.36662)">
<stop stop-color="#1A3DA0"/>
<stop offset="0.708977" stop-color="#123AA8" stop-opacity="0"/>
</radialGradient>
<radialGradient id="paint24_radial_237_6924" cx="0" cy="0" r="1" gradientUnits="userSpaceOnUse" gradientTransform="translate(6.55976 15.7117) rotate(16.749) scale(8.20559 8.28352)">
<stop stop-color="#1E3882"/>
<stop offset="0.761404" stop-color="#123AA8" stop-opacity="0"/>
</radialGradient>
<linearGradient id="paint25_linear_237_6924" x1="3.98558" y1="11.1731" x2="12.0714" y2="16.3339" gradientUnits="userSpaceOnUse">
<stop offset="0.229329" stop-color="#1DC4FF"/>
<stop offset="1" stop-color="#1CC1FF" stop-opacity="0"/>
</linearGradient>
<radialGradient id="paint26_radial_237_6924" cx="0" cy="0" r="1" gradientUnits="userSpaceOnUse" gradientTransform="translate(1.34779 6.84521) rotate(49.6506) scale(9.47348 9.44982)">
<stop stop-color="#09F8FF"/>
<stop offset="1" stop-color="#0BF7F9" stop-opacity="0"/>
</radialGradient>
<linearGradient id="paint27_linear_237_6924" x1="4.43252" y1="11.4367" x2="6.70058" y2="13.4928" gradientUnits="userSpaceOnUse">
<stop stop-color="#26FBFF"/>
<stop offset="0.637346" stop-color="#0BF7F9" stop-opacity="0"/>
</linearGradient>
<linearGradient id="paint28_linear_237_6924" x1="3.82994" y1="13.0105" x2="6.96705" y2="13.2343" gradientUnits="userSpaceOnUse">
<stop stop-color="#26FBFF"/>
<stop offset="0.637346" stop-color="#0BF7F9" stop-opacity="0"/>
</linearGradient>
<radialGradient id="paint29_radial_237_6924" cx="0" cy="0" r="1" gradientUnits="userSpaceOnUse" gradientTransform="translate(9.95382 16.4874) rotate(-107.468) scale(9.26141 6.41713)">
<stop stop-color="#00BCFF" stop-opacity="0.76"/>
<stop offset="0.57273" stop-color="#00BAFC" stop-opacity="0"/>
</radialGradient>
</defs>
</svg>
