<svg width="16" height="16" viewBox="0 0 16 16" fill="none" xmlns="http://www.w3.org/2000/svg">
<path d="M0 4C0 1.79086 1.79086 0 4 0H12C14.2091 0 16 1.79086 16 4V12C16 14.2091 14.2091 16 12 16H4C1.79086 16 0 14.2091 0 12V4Z" fill="#635BFF"/>
<path fill-rule="evenodd" clip-rule="evenodd" d="M7.22182 6.38182C7.22182 6.04 7.50182 5.90545 7.96727 5.90545C8.63636 5.90545 9.48 6.10909 10.1491 6.46909V4.40364C9.41818 4.11273 8.69818 4 7.97091 4C6.18545 4 5 4.93091 5 6.48727C5 8.91273 8.34182 8.52727 8.34182 9.57455C8.34182 9.97818 7.98909 10.1091 7.49818 10.1091C6.76727 10.1091 5.83636 9.81091 5.09818 9.40727V11.4982C5.91636 11.8509 6.74182 12 7.49818 12C9.32727 12 10.5855 11.0945 10.5855 9.52C10.5709 6.90182 7.22182 7.36727 7.22182 6.38182Z" fill="white"/>
</svg>
