<svg width="20" height="20" viewBox="0 0 20 20" fill="none" xmlns="http://www.w3.org/2000/svg">
<path d="M0 5C0 2.23858 2.23858 0 5 0H15C17.7614 0 20 2.23858 20 5V15C20 17.7614 17.7614 20 15 20H5C2.23858 20 0 17.7614 0 15V5Z" fill="#635BFF"/>
<path fill-rule="evenodd" clip-rule="evenodd" d="M9.77727 7.97727C9.77727 7.55 10.1273 7.38182 10.7091 7.38182C11.5455 7.38182 12.6 7.63636 13.4364 8.08636V5.50455C12.5227 5.14091 11.6227 5 10.7136 5C8.48182 5 7 6.16364 7 8.10909C7 11.1409 11.1773 10.6591 11.1773 11.9682C11.1773 12.4727 10.7364 12.6364 10.1227 12.6364C9.20909 12.6364 8.04545 12.2636 7.12273 11.7591V14.3727C8.14545 14.8136 9.17727 15 10.1227 15C12.4091 15 13.9818 13.8682 13.9818 11.9C13.9636 8.62727 9.77727 9.20909 9.77727 7.97727Z" fill="white"/>
</svg>
