<svg width="24" height="24" viewBox="0 0 24 24" fill="none" xmlns="http://www.w3.org/2000/svg">
<path d="M0 6.39569C0 2.86345 2.86345 0 6.39569 0H17.6043C21.1366 0 24 2.86345 24 6.39569V17.6043C24 21.1366 21.1366 24 17.6043 24H6.39569C2.86345 24 0 21.1366 0 17.6043V6.39569Z" fill="#635BFF"/>
<path fill-rule="evenodd" clip-rule="evenodd" d="M11.0799 9.20385C11.0799 8.65731 11.5276 8.44218 12.2718 8.44218C13.3416 8.44218 14.6905 8.76778 15.7603 9.34339V6.04089C14.5917 5.57575 13.4404 5.39551 12.2776 5.39551C9.42279 5.39551 7.52734 6.88396 7.52734 9.37246C7.52734 13.2506 12.8706 12.6343 12.8706 14.3088C12.8706 14.9542 12.3067 15.1635 11.5217 15.1635C10.3531 15.1635 8.86462 14.6867 7.68433 14.0413V17.3845C8.99254 17.9485 10.3124 18.1869 11.5217 18.1869C14.4463 18.1869 16.458 16.7391 16.458 14.2216C16.4348 10.0353 11.0799 10.7795 11.0799 9.20385Z" fill="white"/>
</svg>
