<svg width="32" height="32" viewBox="0 0 32 32" fill="none" xmlns="http://www.w3.org/2000/svg">
<path d="M0 8C0 3.58172 3.58172 0 8 0H24C28.4183 0 32 3.58172 32 8V24C32 28.4183 28.4183 32 24 32H8C3.58172 32 0 28.4183 0 24V8Z" fill="#635BFF"/>
<path fill-rule="evenodd" clip-rule="evenodd" d="M14.4436 12.7636C14.4436 12.08 15.0036 11.8109 15.9345 11.8109C17.2727 11.8109 18.96 12.2182 20.2982 12.9382V8.80727C18.8364 8.22545 17.3964 8 15.9418 8C12.3709 8 10 9.86182 10 12.9745C10 17.8255 16.6836 17.0545 16.6836 19.1491C16.6836 19.9564 15.9782 20.2182 14.9964 20.2182C13.5345 20.2182 11.6727 19.6218 10.1964 18.8145V22.9964C11.8327 23.7018 13.4836 24 14.9964 24C18.6545 24 21.1709 22.1891 21.1709 19.04C21.1418 13.8036 14.4436 14.7345 14.4436 12.7636Z" fill="white"/>
</svg>
