<svg width="96" height="96" viewBox="0 0 96 96" fill="none" xmlns="http://www.w3.org/2000/svg">
<path d="M41.59 53.2576C40.66 49.6776 40.75 45.9076 41.85 42.3776C42.95 38.8476 45.03 35.6976 47.83 33.2875L46.44 31.8975L41.86 34.1476C41.55 33.9976 41.24 33.8576 40.92 33.7176C40.6 33.5776 40.21 33.4475 39.85 33.3275L38.2 28.4875H31.43L29.78 33.3275C29.09 33.5575 28.42 33.8276 27.77 34.1476L23.2 31.8975L18.42 36.6775L20.58 41.0875C20.46 41.3075 20.36 41.5175 20.25 41.7475C20 42.2675 19.79 42.7975 19.6 43.3375L15 44.9075V51.6575L19.36 53.1476C19.63 54.0676 19.98 54.9676 20.42 55.8276L18.42 59.8976L23.2 64.6975L27.11 62.7775C28.04 63.2875 29.02 63.6975 30.04 64.0175L31.43 68.1075H38.18L39.57 64.0175C39.7 63.9775 39.82 63.9276 39.95 63.8876C40.44 63.7276 40.91 63.5376 41.37 63.3276C41.75 63.1576 42.13 62.9775 42.5 62.7775L46.42 64.6975L47.81 63.3075C44.76 60.6775 42.59 57.1775 41.58 53.2775L41.59 53.2576ZM38.4 53.2576C37.61 53.8176 36.71 54.1876 35.75 54.3276C35.45 54.3776 35.14 54.3976 34.83 54.3976C33.2 54.3976 31.64 53.7476 30.49 52.5976C29.34 51.4476 28.69 49.8876 28.69 48.2576C28.69 46.6276 29.34 45.0676 30.49 43.9176C31.64 42.7676 33.2 42.1175 34.83 42.1175C35.14 42.1175 35.44 42.1475 35.74 42.1975C36.95 42.3775 38.07 42.9176 38.97 43.7376C39.87 44.5576 40.5 45.6375 40.79 46.8175C41.08 48.0075 41 49.2475 40.57 50.3875C40.14 51.5275 39.39 52.5175 38.39 53.2275L38.4 53.2576Z" fill="#BF63F3"/>
<path d="M60.7401 28.4775C56.7801 28.4775 52.9001 29.6575 49.6301 31.8975C49.0001 32.3275 48.4001 32.7875 47.8201 33.2875L51.2001 36.6675L49.0401 41.0775C49.4301 41.7975 49.7501 42.5575 50.0201 43.3275L54.6201 44.8975V51.6475L50.2601 53.1375C49.9901 54.0575 49.6401 54.9575 49.2101 55.8175L51.2101 59.8875L47.8301 63.2675C48.4101 63.7675 49.0101 64.2275 49.6401 64.6575C52.2001 66.3975 55.1401 67.5075 58.2101 67.9075C61.2801 68.3075 64.4001 67.9775 67.3301 66.9475C70.2501 65.9175 72.8901 64.2175 75.0401 61.9875C77.1901 59.7575 78.7801 57.0475 79.6901 54.0875C80.6001 51.1275 80.8001 47.9975 80.2801 44.9375C79.7601 41.8875 78.5301 38.9975 76.6901 36.5075C74.8501 34.0175 72.4501 31.9875 69.6801 30.5975C66.9101 29.2075 63.8601 28.4775 60.7601 28.4775H60.7401ZM58.1201 60.3675L54.0901 56.3375L62.1501 48.2775L54.0901 40.2175L58.1201 36.1875L70.2101 48.2775L58.1201 60.3675Z" fill="#82B536"/>
<path d="M49.1999 55.8176C49.6299 54.9576 49.9799 54.0676 50.2499 53.1376L54.6099 51.6476V44.8976L50.0099 43.3276C49.7399 42.5476 49.4199 41.7976 49.0299 41.0776L51.1899 36.6676L47.8099 33.2876C45.6499 35.1476 43.9199 37.4476 42.7299 40.0276C41.5399 42.6176 40.9299 45.4276 40.9299 48.2776C40.9299 51.1276 41.5399 53.9376 42.7299 56.5276C43.9199 59.1176 45.6499 61.4176 47.8099 63.2676L51.1899 59.8876L49.1999 55.8176Z" fill="#101214"/>
<path d="M75.7498 28.4675C75.8698 30.6775 76.9798 30.6775 77.0998 28.4675C77.2698 25.3275 77.3498 22.0375 77.3598 17.7975C77.3298 16.1375 77.2998 14.7975 77.2898 14.1975C76.6298 14.2075 76.0098 14.2175 75.4298 14.2275C75.0698 14.2375 74.7398 14.2475 74.4198 14.2675C73.8498 14.2875 73.3498 14.3175 72.8498 14.3375C71.8598 14.3775 70.9398 14.4075 69.7198 14.3975C64.2198 14.3975 54.9498 14.0875 52.7198 14.0075C52.3898 13.9975 52.0598 13.9975 51.7298 14.0075C49.3598 14.0475 38.9798 14.2175 30.0398 14.1375H18.2998V16.7175C18.2998 21.5375 18.4198 25.1375 18.6298 28.6775C18.7498 30.6175 19.7198 30.6175 19.8298 28.6775C20.0398 25.1375 20.1598 21.5375 20.1598 16.7175C20.1598 16.2475 20.1598 16.2475 20.1798 16.0375C20.2398 16.0375 20.3098 16.0575 20.3798 16.0675L20.4898 16.0875C20.6398 16.0875 20.7898 16.0975 20.9598 16.1075C21.5998 16.1375 22.3398 16.1675 23.1598 16.1975C24.8098 16.2575 26.7898 16.3175 29.0498 16.3275C29.9498 16.3275 30.8398 16.3175 31.7298 16.2775C39.4098 15.9175 49.3798 16.0175 49.3798 16.0175C49.3798 16.0175 64.2598 16.0175 70.5398 16.0175H75.4598V17.7975C75.4598 22.0275 75.5598 25.3275 75.7198 28.4675H75.7498Z" fill="#101214"/>
<path d="M48.0697 14.7075C47.8897 14.4675 46.8297 14.8075 46.7597 15.0275C46.6697 15.3575 46.6297 15.6675 46.6597 16.0875C46.7397 16.5575 46.9697 16.6875 46.9497 17.0275C46.9497 17.6075 46.5797 18.5975 46.4897 18.8375C46.4797 18.8775 46.4697 18.9075 46.4797 18.9475C46.4897 19.0775 46.5197 19.4375 46.5397 19.8975C46.5497 20.3675 46.5797 20.9375 46.5397 21.4175C46.5397 22.1175 46.5397 22.5475 46.5397 22.7775C46.5397 23.3075 46.6597 23.7075 46.8697 24.0975C46.9897 24.3175 47.9597 24.3175 48.0697 24.0975C48.2797 23.7075 48.3997 23.3075 48.3997 22.7775C48.3997 22.5675 48.6697 22.1375 48.7097 21.5275C48.7097 21.4275 48.6997 21.3275 48.6597 21.2275C48.4797 20.7875 48.4097 20.3375 48.4097 19.9675C48.4097 19.5975 48.4497 19.3275 48.4497 19.3275C48.4497 19.3275 48.5597 17.6775 48.5497 16.9375C48.5497 16.3875 48.5197 16.1075 48.5097 15.9475C48.4597 15.4375 48.3097 15.0375 48.0597 14.7075H48.0697Z" fill="#101214"/>
<path d="M19.9298 67.1475C19.8098 64.9375 18.6998 64.9375 18.5798 67.1475C18.4098 70.2875 18.3298 73.5775 18.3198 77.8175C18.3498 79.4775 18.3798 80.8175 18.3898 81.4075C19.0498 81.3975 19.6698 81.3875 20.2498 81.3775C20.6098 81.3675 20.9398 81.3575 21.2598 81.3375C21.8298 81.3175 22.3298 81.2875 22.8298 81.2675C23.8198 81.2275 24.7398 81.1975 25.9598 81.2075C31.4598 81.2075 40.7298 81.5175 42.9598 81.5975C43.2898 81.6075 43.6198 81.6075 43.9498 81.5975C46.3198 81.5575 56.6998 81.3875 65.6398 81.4675H77.3798V78.8875C77.3798 74.0675 77.2598 70.4675 77.0498 66.9275C76.9298 64.9875 75.9598 64.9875 75.8498 66.9275C75.6398 70.4675 75.5198 74.0675 75.5198 78.8875C75.5198 79.3575 75.5198 79.3575 75.4998 79.5675C75.4398 79.5675 75.3698 79.5475 75.2998 79.5375L75.1898 79.5175C75.0398 79.5175 74.8898 79.5075 74.7198 79.4975C74.0798 79.4675 73.3398 79.4375 72.5098 79.4075C70.8598 79.3475 68.8798 79.2875 66.6198 79.2775C65.7198 79.2775 64.8298 79.2875 63.9398 79.3275C56.2598 79.6875 46.2898 79.5875 46.2898 79.5875C46.2898 79.5875 31.4098 79.5875 25.1298 79.5875H20.2098V77.8075C20.2098 73.5775 20.1098 70.2775 19.9498 67.1375L19.9298 67.1475Z" fill="#101214"/>
<path d="M47.6097 80.9075C47.7897 81.1475 48.8497 80.8075 48.9197 80.5875C49.0097 80.2575 49.0497 79.9475 49.0197 79.5275C48.9397 79.0575 48.7097 78.9275 48.7297 78.5875C48.7297 78.0075 49.0997 77.0175 49.1897 76.7775C49.1997 76.7375 49.2097 76.7075 49.1997 76.6675C49.1897 76.5375 49.1597 76.1775 49.1397 75.7175C49.1297 75.2475 49.0997 74.6775 49.1397 74.1975C49.1397 73.4975 49.1397 73.0675 49.1397 72.8375C49.1397 72.3075 49.0197 71.9075 48.8097 71.5175C48.6897 71.2975 47.7197 71.2975 47.6097 71.5175C47.3997 71.9075 47.2797 72.3075 47.2797 72.8375C47.2797 73.0475 47.0097 73.4775 46.9697 74.0875C46.9697 74.1875 46.9797 74.2875 47.0197 74.3875C47.1997 74.8275 47.2697 75.2775 47.2697 75.6475C47.2697 76.0175 47.2297 76.2875 47.2297 76.2875C47.2297 76.2875 47.1197 77.9375 47.1297 78.6775C47.1297 79.2275 47.1597 79.5075 47.1697 79.6675C47.2197 80.1775 47.3697 80.5775 47.6197 80.9075H47.6097Z" fill="#101214"/>
</svg>
