<svg width="96" height="96" viewBox="0 0 96 96" fill="none" xmlns="http://www.w3.org/2000/svg">
<path d="M41.59 53.2576C40.66 49.6776 40.75 45.9076 41.85 42.3776C42.95 38.8476 45.03 35.6976 47.83 33.2875L46.44 31.8975L41.86 34.1476C41.55 33.9976 41.24 33.8576 40.92 33.7176C40.6 33.5776 40.21 33.4475 39.85 33.3275L38.2 28.4875H31.43L29.78 33.3275C29.09 33.5575 28.42 33.8276 27.77 34.1476L23.2 31.8975L18.42 36.6775L20.58 41.0875C20.46 41.3075 20.36 41.5175 20.25 41.7475C20 42.2675 19.79 42.7975 19.6 43.3375L15 44.9075V51.6575L19.36 53.1476C19.63 54.0676 19.98 54.9676 20.42 55.8276L18.42 59.8976L23.2 64.6975L27.11 62.7775C28.04 63.2875 29.02 63.6975 30.04 64.0175L31.43 68.1075H38.18L39.57 64.0175C39.7 63.9775 39.82 63.9276 39.95 63.8876C40.44 63.7276 40.91 63.5376 41.37 63.3276C41.75 63.1576 42.13 62.9775 42.5 62.7775L46.42 64.6975L47.81 63.3075C44.76 60.6775 42.59 57.1775 41.58 53.2775L41.59 53.2576ZM38.4 53.2576C37.61 53.8176 36.71 54.1876 35.75 54.3276C35.45 54.3776 35.14 54.3976 34.83 54.3976C33.2 54.3976 31.64 53.7476 30.49 52.5976C29.34 51.4476 28.69 49.8876 28.69 48.2576C28.69 46.6276 29.34 45.0676 30.49 43.9176C31.64 42.7676 33.2 42.1175 34.83 42.1175C35.14 42.1175 35.44 42.1475 35.74 42.1975C36.95 42.3775 38.07 42.9176 38.97 43.7376C39.87 44.5576 40.5 45.6375 40.79 46.8175C41.08 48.0075 41 49.2475 40.57 50.3875C40.14 51.5275 39.39 52.5175 38.39 53.2275L38.4 53.2576Z" fill="#BF63F3"/>
<path d="M60.7401 28.4775C56.7801 28.4775 52.9001 29.6575 49.6301 31.8975C49.0001 32.3275 48.4001 32.7875 47.8201 33.2875L51.2001 36.6675L49.0401 41.0775C49.4301 41.7975 49.7501 42.5575 50.0201 43.3275L54.6201 44.8975V51.6475L50.2601 53.1375C49.9901 54.0575 49.6401 54.9575 49.2101 55.8175L51.2101 59.8875L47.8301 63.2675C48.4101 63.7675 49.0101 64.2275 49.6401 64.6575C52.2001 66.3975 55.1401 67.5075 58.2101 67.9075C61.2801 68.3075 64.4001 67.9775 67.3301 66.9475C70.2501 65.9175 72.8901 64.2175 75.0401 61.9875C77.1901 59.7575 78.7801 57.0475 79.6901 54.0875C80.6001 51.1275 80.8001 47.9975 80.2801 44.9375C79.7601 41.8875 78.5301 38.9975 76.6901 36.5075C74.8501 34.0175 72.4501 31.9875 69.6801 30.5975C66.9101 29.2075 63.8601 28.4775 60.7601 28.4775H60.7401ZM58.1201 60.3675L54.0901 56.3375L62.1501 48.2775L54.0901 40.2175L58.1201 36.1875L70.2101 48.2775L58.1201 60.3675Z" fill="#82B536"/>
<path d="M49.1999 55.8175C49.6299 54.9575 49.9799 54.0675 50.2499 53.1375L54.6099 51.6475V44.8975L50.0099 43.3275C49.7399 42.5475 49.4199 41.7975 49.0299 41.0775L51.1899 36.6675L47.8099 33.2875C45.6499 35.1475 43.9199 37.4475 42.7299 40.0275C41.5399 42.6175 40.9299 45.4275 40.9299 48.2775C40.9299 51.1275 41.5399 53.9375 42.7299 56.5275C43.9199 59.1175 45.6499 61.4175 47.8099 63.2675L51.1899 59.8875L49.1999 55.8175Z" fill="#101214"/>
</svg>
