<svg width="16" height="16" viewBox="0 0 16 16" fill="none" xmlns="http://www.w3.org/2000/svg">
<g clip-path="url(#clip0_237_6780)">
<g clip-path="url(#clip1_237_6780)">
<path d="M7.68973 9.29618C10.1557 9.29618 12.1548 7.24948 12.1548 4.72475C12.1548 2.20002 10.1557 0.15332 7.68973 0.15332C5.22371 0.15332 3.22461 2.20002 3.22461 4.72475C3.22461 7.24948 5.22371 9.29618 7.68973 9.29618Z" fill="#036C70"/>
<path d="M11.4114 13.1056C13.6719 13.1056 15.5044 11.2294 15.5044 8.91509C15.5044 6.60075 13.6719 4.72461 11.4114 4.72461C9.15087 4.72461 7.31836 6.60075 7.31836 8.91509C7.31836 11.2294 9.15087 13.1056 11.4114 13.1056Z" fill="#1A9BA1"/>
<path d="M8.24873 16.1529C9.99549 16.1529 11.4115 14.7032 11.4115 12.9149C11.4115 11.1265 9.99549 9.67676 8.24873 9.67676C6.50197 9.67676 5.08594 11.1265 5.08594 12.9149C5.08594 14.7032 6.50197 16.1529 8.24873 16.1529Z" fill="#37C6D0"/>
<path opacity="0.1" d="M8.43457 4.27917V12.4087C8.43272 12.6912 8.26552 12.9449 8.01038 13.0525C7.92915 13.0877 7.84184 13.1058 7.75364 13.1058H5.08945C5.08573 13.0411 5.08573 12.9801 5.08573 12.9154C5.0845 12.8518 5.08698 12.7882 5.09318 12.7249C5.16128 11.5072 5.89402 10.4327 6.98713 9.94774V9.23917C4.55435 8.84447 2.89471 6.50539 3.28023 4.01469C3.2829 3.99744 3.28566 3.9802 3.28853 3.96298C3.30705 3.8345 3.33315 3.70729 3.36667 3.58203H7.75365C8.12911 3.58349 8.43314 3.89476 8.43457 4.27917Z" fill="black"/>
<path opacity="0.2" d="M7.38163 3.96289H3.2886C2.87513 6.44911 4.50855 8.80775 6.93693 9.23107C7.01046 9.24388 7.0843 9.25481 7.15837 9.26384C6.00488 9.82384 5.16432 11.4143 5.09288 12.7248C5.08669 12.7881 5.0842 12.8517 5.08544 12.9153C5.08544 12.98 5.08544 13.041 5.08916 13.1057C5.09587 13.2338 5.11204 13.3611 5.13752 13.4867H7.38125C7.65716 13.4848 7.90503 13.3136 8.01008 13.0524C8.04444 12.9692 8.06216 12.8799 8.06218 12.7896V4.66003C8.06076 4.27577 7.75696 3.96457 7.38163 3.96289Z" fill="black"/>
<path opacity="0.2" d="M7.3816 3.96289H3.28857C2.87519 6.44934 4.50885 8.80809 6.93747 9.23132C6.98715 9.23998 7.03697 9.24777 7.0869 9.25471C5.97062 9.85508 5.16318 11.4418 5.09323 12.7248H7.3816C7.75648 12.7219 8.05969 12.4115 8.06253 12.0277V4.66003C8.0611 4.27562 7.75707 3.96435 7.3816 3.96289Z" fill="black"/>
<path opacity="0.2" d="M7.00938 3.96289H3.28845C2.8981 6.31012 4.33469 8.57053 6.58892 9.15603C5.73536 10.1545 5.21183 11.4035 5.0931 12.7248H7.00939C7.38486 12.7233 7.68889 12.4121 7.69032 12.0277V4.66003C7.69011 4.2751 7.38536 3.9631 7.00938 3.96289Z" fill="black"/>
<path d="M0.185953 3.96289H7.00791C7.38459 3.96289 7.68995 4.27552 7.68995 4.66118V11.6456C7.68995 12.0312 7.38459 12.3438 7.00791 12.3438H0.185953C-0.190731 12.3438 -0.496094 12.0312 -0.496094 11.6456V4.66118C-0.496094 4.27552 -0.190731 3.96289 0.185953 3.96289Z" fill="url(#paint0_linear_237_6780)"/>
<path d="M2.55012 8.06829C2.39028 7.95974 2.25677 7.81524 2.15979 7.64581C2.06582 7.46869 2.01899 7.2694 2.02397 7.0679C2.01561 6.79508 2.10553 6.52865 2.27662 6.31933C2.45641 6.10975 2.68881 5.95455 2.94862 5.87056C3.24472 5.77078 3.55487 5.72161 3.86657 5.72504C4.27649 5.70971 4.68583 5.76839 5.07587 5.89838V6.77457C4.9064 6.66946 4.72181 6.59232 4.5289 6.546C4.31957 6.49344 4.10479 6.46709 3.88927 6.46752C3.662 6.45898 3.43618 6.50792 3.23178 6.61C3.07397 6.67968 2.97165 6.83863 2.97132 7.01457C2.97067 7.1213 3.01072 7.22408 3.08294 7.30105C3.16825 7.3918 3.26915 7.46566 3.38062 7.51896C3.50465 7.58219 3.6907 7.66626 3.93876 7.77115C3.96607 7.77999 3.9927 7.79094 4.01839 7.80392C4.26253 7.9016 4.49806 8.02052 4.72239 8.15934C4.89227 8.26658 5.03485 8.4136 5.13839 8.58829C5.24454 8.78632 5.296 9.01021 5.28723 9.23592C5.29935 9.51601 5.21565 9.79165 5.05058 10.0153C4.88604 10.221 4.66606 10.3726 4.41801 10.4512C4.12626 10.5448 3.82177 10.59 3.51606 10.5852C3.24178 10.5865 2.9679 10.5636 2.69746 10.5167C2.46911 10.4784 2.24627 10.4114 2.03402 10.317V9.39324C2.23691 9.54159 2.46358 9.65247 2.70379 9.72086C2.94319 9.79724 3.19204 9.83804 3.44276 9.84201C3.67481 9.85705 3.90645 9.80673 4.11253 9.69649C4.25689 9.61308 4.34469 9.45511 4.341 9.28544C4.34196 9.16738 4.29635 9.05392 4.21449 8.97077C4.11269 8.86846 3.99483 8.78437 3.86584 8.72201C3.71701 8.64581 3.49784 8.54537 3.20835 8.42067C2.97805 8.32588 2.75755 8.20784 2.55012 8.06829Z" fill="white"/>
</g>
</g>
<defs>
<linearGradient id="paint0_linear_237_6780" x1="0.925988" y1="3.41727" x2="6.45862" y2="12.7767" gradientUnits="userSpaceOnUse">
<stop stop-color="#058F92"/>
<stop offset="0.5" stop-color="#038489"/>
<stop offset="1" stop-color="#026D71"/>
</linearGradient>
<clipPath id="clip0_237_6780">
<rect width="16" height="16" fill="white"/>
</clipPath>
<clipPath id="clip1_237_6780">
<rect width="16" height="16" fill="white" transform="translate(-0.496094 0.15332)"/>
</clipPath>
</defs>
</svg>
