<svg width="16" height="16" viewBox="0 0 16 16" fill="none" xmlns="http://www.w3.org/2000/svg">
<mask id="path-1-inside-1_237_6768" fill="white">
<path d="M0 4C0 1.79086 1.79086 0 4 0H12C14.2091 0 16 1.79086 16 4V12C16 14.2091 14.2091 16 12 16H4C1.79086 16 0 14.2091 0 12V4Z"/>
</mask>
<path d="M0 4C0 1.79086 1.79086 0 4 0H12C14.2091 0 16 1.79086 16 4V12C16 14.2091 14.2091 16 12 16H4C1.79086 16 0 14.2091 0 12V4Z" fill="white"/>
<path d="M4 0V1H12V0V-1H4V0ZM16 4H15V12H16H17V4H16ZM12 16V15H4V16V17H12V16ZM0 12H1V4H0H-1V12H0ZM4 16V15C2.34315 15 1 13.6569 1 12H0H-1C-1 14.7614 1.23858 17 4 17V16ZM16 12H15C15 13.6569 13.6569 15 12 15V16V17C14.7614 17 17 14.7614 17 12H16ZM12 0V1C13.6569 1 15 2.34315 15 4H16H17C17 1.23858 14.7614 -1 12 -1V0ZM4 0V-1C1.23858 -1 -1 1.23858 -1 4H0H1C1 2.34315 2.34315 1 4 1V0Z" fill="#0B1228" fill-opacity="0.14" mask="url(#path-1-inside-1_237_6768)"/>
<g clip-path="url(#clip0_237_6768)">
<path d="M8.11687 8.71429C9.65813 8.71429 10.9076 7.4351 10.9076 5.85714C10.9076 4.27919 9.65813 3 8.11687 3C6.57561 3 5.32617 4.27919 5.32617 5.85714C5.32617 7.4351 6.57561 8.71429 8.11687 8.71429Z" fill="#036C70"/>
<path d="M10.4429 11.0955C11.8557 11.0955 13.001 9.92293 13.001 8.47647C13.001 7.03001 11.8557 5.85742 10.4429 5.85742C9.03008 5.85742 7.88477 7.03001 7.88477 8.47647C7.88477 9.92293 9.03008 11.0955 10.4429 11.0955Z" fill="#1A9BA1"/>
<path d="M8.46502 12.9998C9.55675 12.9998 10.4418 12.0937 10.4418 10.976C10.4418 9.85824 9.55675 8.95215 8.46502 8.95215C7.3733 8.95215 6.48828 9.85824 6.48828 10.976C6.48828 12.0937 7.3733 12.9998 8.46502 12.9998Z" fill="#37C6D0"/>
<path opacity="0.1" d="M8.5824 5.57829V10.6592C8.58124 10.8358 8.47674 10.9944 8.31728 11.0616C8.26651 11.0836 8.21194 11.0949 8.15682 11.095H6.4917C6.48937 11.0545 6.48937 11.0164 6.48937 10.9759C6.4886 10.9362 6.49015 10.8964 6.49403 10.8569C6.53659 10.0958 6.99455 9.42427 7.67775 9.12114V8.67829C6.15726 8.4316 5.11998 6.96968 5.36093 5.41299C5.3626 5.40221 5.36433 5.39143 5.36612 5.38067C5.3777 5.30037 5.39401 5.22086 5.41496 5.14258H8.15682C8.39149 5.14349 8.5815 5.33804 8.5824 5.57829Z" fill="black"/>
<path opacity="0.2" d="M7.92431 5.38086H5.36617C5.10775 6.93474 6.12863 8.4089 7.64637 8.67347C7.69233 8.68148 7.73848 8.68831 7.78477 8.69395C7.06384 9.04395 6.53849 10.038 6.49384 10.857C6.48997 10.8966 6.48842 10.9364 6.48919 10.9761C6.48919 11.0166 6.48919 11.0547 6.49151 11.0951C6.49571 11.1752 6.50582 11.2548 6.52174 11.3332H7.92407C8.09652 11.3321 8.25143 11.2251 8.31709 11.0618C8.33857 11.0098 8.34964 10.954 8.34965 10.8975V5.81657C8.34877 5.57641 8.15889 5.38191 7.92431 5.38086Z" fill="black"/>
<path opacity="0.2" d="M7.92429 5.38086H5.36615C5.10778 6.93489 6.12882 8.40911 7.64671 8.67363C7.67776 8.67904 7.70889 8.68391 7.7401 8.68824C7.04243 9.06348 6.53778 10.0552 6.49406 10.8571H7.92429C8.15859 10.8552 8.3481 10.6612 8.34987 10.4213V5.81657C8.34898 5.57632 8.15896 5.38177 7.92429 5.38086Z" fill="black"/>
<path opacity="0.2" d="M7.69165 5.38086H5.36607C5.12211 6.84788 6.01997 8.26063 7.42886 8.62657C6.89539 9.2506 6.56819 10.0313 6.49398 10.8571H7.69166C7.92633 10.8561 8.11634 10.6616 8.11724 10.4213V5.81657C8.11711 5.57599 7.92664 5.38099 7.69165 5.38086Z" fill="black"/>
<path d="M3.42628 5.38086H7.69C7.92543 5.38086 8.11628 5.57626 8.11628 5.81729V10.1825C8.11628 10.4236 7.92543 10.619 7.69 10.619H3.42628C3.19085 10.619 3 10.4236 3 10.1825V5.81729C3 5.57626 3.19085 5.38086 3.42628 5.38086Z" fill="url(#paint0_linear_237_6768)"/>
<path d="M4.90339 7.94649C4.8035 7.87865 4.72005 7.78833 4.65944 7.68244C4.60071 7.57174 4.57144 7.44718 4.57455 7.32125C4.56932 7.15074 4.62552 6.98422 4.73246 6.85339C4.84483 6.7224 4.99008 6.6254 5.15246 6.57291C5.33752 6.51055 5.53136 6.47982 5.72618 6.48196C5.98238 6.47238 6.23822 6.50905 6.48199 6.59029V7.13792C6.37607 7.07222 6.2607 7.02401 6.14013 6.99506C6.0093 6.96221 5.87506 6.94574 5.74036 6.94601C5.59832 6.94067 5.45718 6.97126 5.32943 7.03506C5.2308 7.07861 5.16685 7.17795 5.16664 7.28792C5.16624 7.35462 5.19127 7.41886 5.23641 7.46697C5.28973 7.52368 5.35279 7.56985 5.42246 7.60316C5.49998 7.64268 5.61626 7.69522 5.7713 7.76078C5.78837 7.7663 5.80501 7.77315 5.82106 7.78126C5.97365 7.84231 6.12086 7.91663 6.26106 8.0034C6.36724 8.07042 6.45635 8.16231 6.52107 8.27149C6.58741 8.39526 6.61957 8.53519 6.61409 8.67626C6.62166 8.85131 6.56935 9.02359 6.46618 9.1634C6.36335 9.29193 6.22586 9.38666 6.07083 9.43578C5.88849 9.49429 5.69818 9.52258 5.50711 9.51959C5.33568 9.52038 5.16451 9.50605 4.99548 9.47673C4.85277 9.45282 4.71349 9.41092 4.58083 9.35196V8.77459C4.70764 8.8673 4.84931 8.93661 4.99944 8.97935C5.14906 9.02708 5.3046 9.05258 5.4613 9.05506C5.60633 9.06447 5.7511 9.03301 5.8799 8.96411C5.97013 8.91199 6.025 8.81325 6.0227 8.70721C6.0233 8.63342 5.99479 8.56251 5.94363 8.51054C5.88 8.44659 5.80634 8.39404 5.72572 8.35506C5.6327 8.30744 5.49572 8.24467 5.31479 8.16673C5.17085 8.10748 5.03304 8.03371 4.90339 7.94649Z" fill="white"/>
</g>
<defs>
<linearGradient id="paint0_linear_237_6768" x1="3.8888" y1="5.03984" x2="7.3467" y2="10.8895" gradientUnits="userSpaceOnUse">
<stop stop-color="#058F92"/>
<stop offset="0.5" stop-color="#038489"/>
<stop offset="1" stop-color="#026D71"/>
</linearGradient>
<clipPath id="clip0_237_6768">
<rect width="10" height="10" fill="white" transform="translate(3 3)"/>
</clipPath>
</defs>
</svg>
