<svg width="20" height="20" viewBox="0 0 20 20" fill="none" xmlns="http://www.w3.org/2000/svg">
<mask id="path-1-inside-1_237_6756" fill="white">
<path d="M0 5C0 2.23858 2.23858 0 5 0H15C17.7614 0 20 2.23858 20 5V15C20 17.7614 17.7614 20 15 20H5C2.23858 20 0 17.7614 0 15V5Z"/>
</mask>
<path d="M0 5C0 2.23858 2.23858 0 5 0H15C17.7614 0 20 2.23858 20 5V15C20 17.7614 17.7614 20 15 20H5C2.23858 20 0 17.7614 0 15V5Z" fill="white"/>
<path d="M5 0V1H15V0V-1H5V0ZM20 5H19V15H20H21V5H20ZM15 20V19H5V20V21H15V20ZM0 15H1V5H0H-1V15H0ZM5 20V19C2.79086 19 1 17.2091 1 15H0H-1C-1 18.3137 1.68629 21 5 21V20ZM20 15H19C19 17.2091 17.2091 19 15 19V20V21C18.3137 21 21 18.3137 21 15H20ZM15 0V1C17.2091 1 19 2.79086 19 5H20H21C21 1.68629 18.3137 -1 15 -1V0ZM5 0V-1C1.68629 -1 -1 1.68629 -1 5H0H1C1 2.79086 2.79086 1 5 1V0Z" fill="#0B1228" fill-opacity="0.14" mask="url(#path-1-inside-1_237_6756)"/>
<g clip-path="url(#clip0_237_6756)">
<path d="M10.1418 10.8571C11.9913 10.8571 13.4906 9.32212 13.4906 7.42857C13.4906 5.53502 11.9913 4 10.1418 4C8.29229 4 6.79297 5.53502 6.79297 7.42857C6.79297 9.32212 8.29229 10.8571 10.1418 10.8571Z" fill="#036C70"/>
<path d="M12.9311 13.7144C14.6265 13.7144 16.0009 12.3073 16.0009 10.5716C16.0009 8.83582 14.6265 7.42871 12.9311 7.42871C11.2357 7.42871 9.86133 8.83582 9.86133 10.5716C9.86133 12.3073 11.2357 13.7144 12.9311 13.7144Z" fill="#1A9BA1"/>
<path d="M10.5596 15.9997C11.8697 15.9997 12.9317 14.9124 12.9317 13.5711C12.9317 12.2299 11.8697 11.1426 10.5596 11.1426C9.24952 11.1426 8.1875 12.2299 8.1875 13.5711C8.1875 14.9124 9.24952 15.9997 10.5596 15.9997Z" fill="#37C6D0"/>
<path opacity="0.1" d="M10.6985 7.09415V13.1913C10.6971 13.4031 10.5717 13.5935 10.3803 13.6741C10.3194 13.7005 10.2539 13.7141 10.1878 13.7141H8.18965C8.18686 13.6656 8.18686 13.6199 8.18686 13.5713C8.18593 13.5236 8.18779 13.4759 8.19244 13.4284C8.24352 12.5151 8.79307 11.7093 9.61291 11.3456V10.8141C7.78832 10.5181 6.54359 8.76381 6.83273 6.89578C6.83473 6.88285 6.83681 6.86991 6.83896 6.857C6.85285 6.76064 6.87242 6.66523 6.89756 6.57129H10.1878C10.4694 6.57239 10.6974 6.80584 10.6985 7.09415Z" fill="black"/>
<path opacity="0.2" d="M9.90878 6.85742H6.83901C6.52891 8.72208 7.75397 10.4911 9.57526 10.8086C9.63041 10.8182 9.68578 10.8264 9.74133 10.8331C8.87622 11.2531 8.2458 12.446 8.19222 13.4288C8.18758 13.4763 8.18571 13.524 8.18664 13.5717C8.18664 13.6203 8.18664 13.666 8.18943 13.7146C8.19446 13.8106 8.20659 13.9061 8.2257 14.0003H9.90849C10.1154 13.9989 10.3013 13.8705 10.3801 13.6746C10.4059 13.6122 10.4192 13.5451 10.4192 13.4774V7.38028C10.4181 7.09208 10.1903 6.85868 9.90878 6.85742Z" fill="black"/>
<path opacity="0.2" d="M9.90876 6.85742H6.83899C6.52895 8.72226 7.7542 10.4913 9.57566 10.8087C9.61292 10.8152 9.65028 10.8211 9.68773 10.8263C8.85052 11.2766 8.24495 12.4666 8.19248 13.4289H9.90876C10.1899 13.4267 10.4173 13.1939 10.4195 12.906V7.38028C10.4184 7.09197 10.1904 6.85852 9.90876 6.85742Z" fill="black"/>
<path opacity="0.2" d="M9.62959 6.85742H6.8389C6.54614 8.61785 7.62358 10.3132 9.31425 10.7523C8.67408 11.5011 8.28143 12.4379 8.19239 13.4289H9.6296C9.9112 13.4278 10.1392 13.1943 10.1403 12.906V7.38028C10.1401 7.09158 9.91158 6.85758 9.62959 6.85742Z" fill="black"/>
<path d="M4.51349 6.85742H9.62995C9.91247 6.85742 10.1415 7.0919 10.1415 7.38114V12.6194C10.1415 12.9087 9.91247 13.1431 9.62995 13.1431H4.51349C4.23098 13.1431 4.00195 12.9087 4.00195 12.6194V7.38114C4.00195 7.0919 4.23098 6.85742 4.51349 6.85742Z" fill="url(#paint0_linear_237_6756)"/>
<path d="M6.28564 9.93598C6.16576 9.85457 6.06562 9.74619 5.99289 9.61912C5.92241 9.48628 5.88729 9.33681 5.89103 9.18569C5.88475 8.98108 5.95219 8.78125 6.08051 8.62426C6.21536 8.46708 6.38965 8.35068 6.58451 8.28769C6.80659 8.21285 7.0392 8.17598 7.27298 8.17855C7.58041 8.16705 7.88742 8.21106 8.17995 8.30855V8.96569C8.05285 8.88686 7.91441 8.82901 7.76972 8.79427C7.61273 8.75485 7.45164 8.73509 7.29 8.73541C7.11954 8.729 6.95018 8.7657 6.79688 8.84227C6.67853 8.89453 6.60178 9.01374 6.60153 9.14569C6.60105 9.22574 6.63109 9.30282 6.68526 9.36055C6.74923 9.42861 6.82491 9.48401 6.90851 9.52398C7.00153 9.57141 7.14107 9.63446 7.32712 9.71313C7.3476 9.71976 7.36757 9.72797 7.38684 9.7377C7.56994 9.81097 7.74659 9.90015 7.91484 10.0043C8.04225 10.0847 8.14919 10.195 8.22684 10.326C8.30645 10.4745 8.34504 10.6424 8.33847 10.8117C8.34756 11.0218 8.28478 11.2285 8.16098 11.3963C8.03758 11.5505 7.87259 11.6642 7.68656 11.7231C7.46774 11.7933 7.23937 11.8273 7.01009 11.8237C6.80438 11.8247 6.59897 11.8074 6.39614 11.7723C6.22488 11.7436 6.05775 11.6933 5.89856 11.6226V10.9297C6.05073 11.041 6.22073 11.1241 6.40089 11.1754C6.58044 11.2327 6.76708 11.2633 6.95512 11.2663C7.12916 11.2776 7.30289 11.2398 7.45745 11.1571C7.56572 11.0946 7.63157 10.9761 7.6288 10.8488C7.62952 10.7603 7.59531 10.6752 7.53391 10.6128C7.45757 10.5361 7.36917 10.473 7.27243 10.4263C7.1608 10.3691 6.99643 10.2938 6.77931 10.2003C6.60659 10.1292 6.44121 10.0406 6.28564 9.93598Z" fill="white"/>
</g>
<defs>
<linearGradient id="paint0_linear_237_6756" x1="5.06851" y1="6.4482" x2="9.21799" y2="13.4678" gradientUnits="userSpaceOnUse">
<stop stop-color="#058F92"/>
<stop offset="0.5" stop-color="#038489"/>
<stop offset="1" stop-color="#026D71"/>
</linearGradient>
<clipPath id="clip0_237_6756">
<rect width="12" height="12" fill="white" transform="translate(4.00195 4)"/>
</clipPath>
</defs>
</svg>
