<svg width="24" height="24" viewBox="0 0 24 24" fill="none" xmlns="http://www.w3.org/2000/svg">
<mask id="path-1-inside-1_237_6744" fill="white">
<path d="M0 6.39569C0 2.86345 2.86345 0 6.39569 0H17.6043C21.1366 0 24 2.86345 24 6.39569V17.6043C24 21.1366 21.1366 24 17.6043 24H6.39569C2.86345 24 0 21.1366 0 17.6043V6.39569Z"/>
</mask>
<path d="M0 6.39569C0 2.86345 2.86345 0 6.39569 0H17.6043C21.1366 0 24 2.86345 24 6.39569V17.6043C24 21.1366 21.1366 24 17.6043 24H6.39569C2.86345 24 0 21.1366 0 17.6043V6.39569Z" fill="white"/>
<path d="M6.39569 0V1H17.6043V0V-1H6.39569V0ZM24 6.39569H23V17.6043H24H25V6.39569H24ZM17.6043 24V23H6.39569V24V25H17.6043V24ZM0 17.6043H1V6.39569H0H-1V17.6043H0ZM6.39569 24V23C3.41573 23 1 20.5843 1 17.6043H0H-1C-1 21.6888 2.31116 25 6.39569 25V24ZM24 17.6043H23C23 20.5843 20.5843 23 17.6043 23V24V25C21.6888 25 25 21.6888 25 17.6043H24ZM17.6043 0V1C20.5843 1 23 3.41573 23 6.39569H24H25C25 2.31116 21.6888 -1 17.6043 -1V0ZM6.39569 0V-1C2.31116 -1 -1 2.31116 -1 6.39569H0H1C1 3.41573 3.41573 1 6.39569 1V0Z" fill="#0B1228" fill-opacity="0.14" mask="url(#path-1-inside-1_237_6744)"/>
<g clip-path="url(#clip0_237_6744)">
<path d="M12.1858 13.1429C14.6518 13.1429 16.6509 11.0962 16.6509 8.57143C16.6509 6.0467 14.6518 4 12.1858 4C9.7198 4 7.7207 6.0467 7.7207 8.57143C7.7207 11.0962 9.7198 13.1429 12.1858 13.1429Z" fill="#036C70"/>
<path d="M15.9055 16.9522C18.166 16.9522 19.9986 15.0761 19.9986 12.7618C19.9986 10.4474 18.166 8.57129 15.9055 8.57129C13.645 8.57129 11.8125 10.4474 11.8125 12.7618C11.8125 15.0761 13.645 16.9522 15.9055 16.9522Z" fill="#1A9BA1"/>
<path d="M12.7429 19.9996C14.4896 19.9996 15.9057 18.5499 15.9057 16.7615C15.9057 14.9732 14.4896 13.5234 12.7429 13.5234C10.9961 13.5234 9.58008 14.9732 9.58008 16.7615C9.58008 18.5499 10.9961 19.9996 12.7429 19.9996Z" fill="#37C6D0"/>
<path opacity="0.1" d="M12.9307 8.12585V16.2554C12.9288 16.5379 12.7616 16.7916 12.5065 16.8992C12.4252 16.9344 12.3379 16.9525 12.2497 16.9525H9.58554C9.58183 16.8878 9.58183 16.8268 9.58183 16.762C9.58059 16.6984 9.58307 16.6348 9.58927 16.5716C9.65737 15.3538 10.3901 14.2794 11.4832 13.7944V13.0858C9.05045 12.6911 7.3908 10.3521 7.77632 7.86137C7.779 7.84412 7.78176 7.82688 7.78463 7.80966C7.80314 7.68118 7.82924 7.55396 7.86276 7.42871H12.2497C12.6252 7.43017 12.9292 7.74144 12.9307 8.12585Z" fill="black"/>
<path opacity="0.2" d="M11.8758 7.80957H7.78275C7.36927 10.2958 9.00269 12.6544 11.4311 13.0777C11.5046 13.0906 11.5784 13.1015 11.6525 13.1105C10.499 13.6705 9.65846 15.261 9.58702 16.5715C9.58083 16.6348 9.57834 16.6984 9.57958 16.7619C9.57958 16.8267 9.57958 16.8877 9.5833 16.9524C9.59001 17.0805 9.60618 17.2078 9.63167 17.3334H11.8754C12.1513 17.3315 12.3992 17.1603 12.5042 16.8991C12.5386 16.8159 12.5563 16.7265 12.5563 16.6362V8.50671C12.5549 8.12245 12.2511 7.81125 11.8758 7.80957Z" fill="black"/>
<path opacity="0.2" d="M11.8777 7.80957H7.78467C7.37128 10.296 9.00494 12.6548 11.4336 13.078C11.4832 13.0867 11.5331 13.0945 11.583 13.1014C10.4667 13.7018 9.65928 15.2884 9.58932 16.5715H11.8777C12.2526 16.5686 12.5558 16.2581 12.5586 15.8743V8.50671C12.5572 8.1223 12.2532 7.81103 11.8777 7.80957Z" fill="black"/>
<path opacity="0.2" d="M11.5055 7.80957H7.78454C7.3942 10.1568 8.83079 12.4172 11.085 13.0027C10.2315 14.0012 9.70792 15.2502 9.5892 16.5715H11.5055C11.881 16.57 12.185 16.2587 12.1864 15.8743V8.50671C12.1862 8.12178 11.8815 7.80978 11.5055 7.80957Z" fill="black"/>
<path d="M4.68205 7.80957H11.504C11.8807 7.80957 12.186 8.1222 12.186 8.50786V15.4922C12.186 15.8779 11.8807 16.1905 11.504 16.1905H4.68205C4.30536 16.1905 4 15.8779 4 15.4922V8.50786C4 8.1222 4.30536 7.80957 4.68205 7.80957Z" fill="url(#paint0_linear_237_6744)"/>
<path d="M7.04621 11.915C6.88638 11.8064 6.75286 11.6619 6.65588 11.4925C6.56192 11.3154 6.51508 11.1161 6.52007 10.9146C6.5117 10.6418 6.60162 10.3753 6.77272 10.166C6.95251 9.95643 7.1849 9.80123 7.44472 9.71724C7.74082 9.61746 8.05096 9.56829 8.36267 9.57172C8.77258 9.55639 9.18193 9.61507 9.57197 9.74506V10.6213C9.40249 10.5161 9.21791 10.439 9.02499 10.3927C8.81567 10.3401 8.60088 10.3138 8.38536 10.3142C8.15809 10.3057 7.93227 10.3546 7.72787 10.4567C7.57007 10.5264 7.46774 10.6853 7.46741 10.8613C7.46677 10.968 7.50682 11.0708 7.57904 11.1477C7.66434 11.2385 7.76525 11.3123 7.87672 11.3656C8.00074 11.4289 8.18679 11.5129 8.43486 11.6178C8.46217 11.6267 8.48879 11.6376 8.51448 11.6506C8.75862 11.7483 8.99415 11.8672 9.21848 12.006C9.38837 12.1133 9.53095 12.2603 9.63449 12.435C9.74064 12.633 9.79209 12.8569 9.78332 13.0826C9.79544 13.3627 9.71174 13.6383 9.54667 13.862C9.38213 14.0677 9.16216 14.2192 8.91411 14.2978C8.62236 14.3915 8.31786 14.4367 8.01215 14.4319C7.73787 14.4332 7.46399 14.4103 7.19355 14.3634C6.96521 14.3251 6.74237 14.2581 6.53011 14.1637V13.2399C6.733 13.3883 6.95967 13.4992 7.19988 13.5675C7.43928 13.6439 7.68814 13.6847 7.93886 13.6887C8.17091 13.7037 8.40255 13.6534 8.60863 13.5432C8.75299 13.4598 8.84079 13.3018 8.83709 13.1321C8.83806 13.0141 8.79244 12.9006 8.71058 12.8175C8.60879 12.7151 8.49093 12.6311 8.36194 12.5687C8.2131 12.4925 7.99393 12.3921 7.70445 12.2674C7.47415 12.1726 7.25365 12.0545 7.04621 11.915Z" fill="white"/>
</g>
<defs>
<linearGradient id="paint0_linear_237_6744" x1="5.42208" y1="7.26395" x2="10.9547" y2="16.6234" gradientUnits="userSpaceOnUse">
<stop stop-color="#058F92"/>
<stop offset="0.5" stop-color="#038489"/>
<stop offset="1" stop-color="#026D71"/>
</linearGradient>
<clipPath id="clip0_237_6744">
<rect width="16" height="16" fill="white" transform="translate(4 4)"/>
</clipPath>
</defs>
</svg>
