<svg width="32" height="32" viewBox="0 0 32 32" fill="none" xmlns="http://www.w3.org/2000/svg">
<mask id="path-1-inside-1_237_6732" fill="white">
<path d="M0 8C0 3.58172 3.58172 0 8 0H24C28.4183 0 32 3.58172 32 8V24C32 28.4183 28.4183 32 24 32H8C3.58172 32 0 28.4183 0 24V8Z"/>
</mask>
<path d="M0 8C0 3.58172 3.58172 0 8 0H24C28.4183 0 32 3.58172 32 8V24C32 28.4183 28.4183 32 24 32H8C3.58172 32 0 28.4183 0 24V8Z" fill="white"/>
<path d="M8 0V1H24V0V-1H8V0ZM32 8H31V24H32H33V8H32ZM24 32V31H8V32V33H24V32ZM0 24H1V8H0H-1V24H0ZM8 32V31C4.13401 31 1 27.866 1 24H0H-1C-1 28.9706 3.02944 33 8 33V32ZM32 24H31C31 27.866 27.866 31 24 31V32V33C28.9706 33 33 28.9706 33 24H32ZM24 0V1C27.866 1 31 4.13401 31 8H32H33C33 3.02944 28.9706 -1 24 -1V0ZM8 0V-1C3.02944 -1 -1 3.02944 -1 8H0H1C1 4.13401 4.13401 1 8 1V0Z" fill="#0B1228" fill-opacity="0.14" mask="url(#path-1-inside-1_237_6732)"/>
<g clip-path="url(#clip0_237_6732)">
<path d="M16.2504 17.5235C19.5384 17.5235 22.2039 14.7946 22.2039 11.4282C22.2039 8.06194 19.5384 5.33301 16.2504 5.33301C12.9623 5.33301 10.2969 8.06194 10.2969 11.4282C10.2969 14.7946 12.9623 17.5235 16.2504 17.5235Z" fill="#036C70"/>
<path d="M21.2113 22.6023C24.2253 22.6023 26.6686 20.1008 26.6686 17.015C26.6686 13.9293 24.2253 11.4277 21.2113 11.4277C18.1973 11.4277 15.7539 13.9293 15.7539 17.015C15.7539 20.1008 18.1973 22.6023 21.2113 22.6023Z" fill="#1A9BA1"/>
<path d="M16.9944 26.6662C19.3234 26.6662 21.2114 24.7332 21.2114 22.3487C21.2114 19.9642 19.3234 18.0312 16.9944 18.0312C14.6654 18.0312 12.7773 19.9642 12.7773 22.3487C12.7773 24.7332 14.6654 26.6662 16.9944 26.6662Z" fill="#37C6D0"/>
<path opacity="0.1" d="M17.2415 10.8338V21.6732C17.2391 22.0498 17.0161 22.3882 16.676 22.5316C16.5676 22.5785 16.4512 22.6027 16.3336 22.6027H12.7814C12.7764 22.5164 12.7764 22.4351 12.7764 22.3487C12.7748 22.2639 12.7781 22.1791 12.7863 22.0948C12.8771 20.4711 13.8541 19.0386 15.3116 18.3919V17.4471C12.0679 16.9209 9.85506 13.8021 10.3691 10.4812C10.3726 10.4582 10.3763 10.4352 10.3802 10.4122C10.4048 10.2409 10.4396 10.0713 10.4843 9.9043H16.3336C16.8343 9.90625 17.2396 10.3213 17.2415 10.8338Z" fill="black"/>
<path opacity="0.2" d="M15.8376 10.4121H10.3802C9.82895 13.7271 12.0068 16.8719 15.2447 17.4363C15.3427 17.4534 15.4412 17.468 15.5399 17.48C14.002 18.2267 12.8812 20.3473 12.786 22.0946C12.7777 22.179 12.7744 22.2638 12.776 22.3486C12.776 22.435 12.776 22.5162 12.781 22.6026C12.7899 22.7733 12.8115 22.9431 12.8455 23.1105H15.8371C16.205 23.108 16.5355 22.8798 16.6755 22.5315C16.7214 22.4206 16.745 22.3014 16.745 22.181V11.3416C16.7431 10.8293 16.3381 10.4143 15.8376 10.4121Z" fill="black"/>
<path opacity="0.2" d="M15.8376 10.4121H10.3802C9.82903 13.7274 12.0072 16.8724 15.2454 17.4367C15.3116 17.4482 15.3781 17.4586 15.4446 17.4679C13.9563 18.2684 12.8797 20.3839 12.7864 22.0947H15.8376C16.3374 22.0908 16.7417 21.6769 16.7455 21.1651V11.3416C16.7436 10.8291 16.3382 10.4141 15.8376 10.4121Z" fill="black"/>
<path opacity="0.2" d="M15.3413 10.4121H10.38C9.85958 13.5418 11.775 16.5556 14.7807 17.3363C13.6426 18.6675 12.9445 20.333 12.7862 22.0947H15.3413C15.8419 22.0927 16.2473 21.6777 16.2492 21.1651V11.3416C16.2489 10.8284 15.8426 10.4124 15.3413 10.4121Z" fill="black"/>
<path d="M6.24338 10.4121H15.3393C15.8416 10.4121 16.2487 10.829 16.2487 11.3432V20.6557C16.2487 21.1699 15.8416 21.5867 15.3393 21.5867H6.24338C5.74113 21.5867 5.33398 21.1699 5.33398 20.6557V11.3432C5.33398 10.829 5.74113 10.4121 6.24338 10.4121Z" fill="url(#paint0_linear_237_6732)"/>
<path d="M9.3956 15.8863C9.18248 15.7416 9.00447 15.5489 8.87516 15.323C8.74987 15.0868 8.68742 14.8211 8.69407 14.5524C8.68292 14.1887 8.80281 13.8334 9.03094 13.5544C9.27066 13.2749 9.58052 13.068 9.92694 12.956C10.3217 12.823 10.7353 12.7574 11.1509 12.762C11.6974 12.7415 12.2432 12.8198 12.7633 12.9931V14.1613C12.5373 14.0212 12.2912 13.9183 12.034 13.8566C11.7549 13.7865 11.4685 13.7514 11.1811 13.7519C10.8781 13.7406 10.577 13.8058 10.3045 13.9419C10.0941 14.0348 9.95764 14.2468 9.9572 14.4813C9.95634 14.6236 10.0097 14.7607 10.106 14.8633C10.2198 14.9843 10.3543 15.0828 10.5029 15.1539C10.6683 15.2382 10.9164 15.3503 11.2471 15.4901C11.2835 15.5019 11.319 15.5165 11.3533 15.5338C11.6788 15.664 11.9929 15.8226 12.292 16.0077C12.5185 16.1507 12.7086 16.3467 12.8466 16.5796C12.9882 16.8437 13.0568 17.1422 13.0451 17.4431C13.0612 17.8166 12.9496 18.1841 12.7295 18.4824C12.5102 18.7566 12.2169 18.9587 11.8861 19.0634C11.4971 19.1883 11.0911 19.2486 10.6835 19.2422C10.3178 19.2439 9.95264 19.2134 9.59205 19.1508C9.28759 19.0998 8.99047 19.0104 8.70747 18.8846V17.6529C8.97799 17.8507 9.28021 17.9985 9.60049 18.0897C9.91969 18.1916 10.2515 18.246 10.5858 18.2513C10.8952 18.2713 11.204 18.2042 11.4788 18.0572C11.6713 17.946 11.7884 17.7354 11.7834 17.5092C11.7847 17.3517 11.7239 17.2005 11.6148 17.0896C11.479 16.9532 11.3219 16.8411 11.1499 16.7579C10.9515 16.6563 10.6592 16.5224 10.2732 16.3561C9.96618 16.2298 9.67218 16.0724 9.3956 15.8863Z" fill="white"/>
</g>
<defs>
<linearGradient id="paint0_linear_237_6732" x1="7.23009" y1="9.68461" x2="14.6069" y2="22.1639" gradientUnits="userSpaceOnUse">
<stop stop-color="#058F92"/>
<stop offset="0.5" stop-color="#038489"/>
<stop offset="1" stop-color="#026D71"/>
</linearGradient>
<clipPath id="clip0_237_6732">
<rect width="21.3333" height="21.3333" fill="white" transform="translate(5.33398 5.33301)"/>
</clipPath>
</defs>
</svg>
