<svg width="96" height="96" viewBox="0 0 96 96" fill="none" xmlns="http://www.w3.org/2000/svg">
<path d="M25.6697 24.75C25.5697 25.08 25.5697 25.44 25.6697 25.77C25.7997 25.89 25.9597 25.96 26.1397 25.97C26.3497 25.93 26.3997 25.75 26.5497 25.77C26.8197 25.81 27.0797 25.92 27.3097 26.07C27.3197 26.07 27.3397 26.07 27.3497 26.07C27.6597 25.97 27.9797 25.94 28.3097 25.97H28.8497C28.9497 25.97 29.0497 25.94 29.1397 25.9C29.2297 25.86 29.3097 25.79 29.3797 25.72C29.4597 25.42 29.4597 25.11 29.3797 24.81C29.3197 24.73 29.2297 24.67 29.1397 24.63C29.0497 24.59 28.9497 24.56 28.8497 24.56C28.7697 24.56 28.5997 24.36 28.3497 24.32C28.3297 24.32 28.3097 24.32 28.2897 24.32C28.2697 24.32 28.2497 24.34 28.2397 24.35C28.0197 24.52 27.7397 24.59 27.4597 24.55H26.1597C25.9797 24.55 25.8097 24.62 25.6797 24.75H25.6697Z" fill="#101214"/>
<path d="M33.3097 24.75C33.2197 25.08 33.2197 25.44 33.3097 25.77C33.4397 25.89 33.5997 25.96 33.7797 25.97C33.9897 25.93 34.0497 25.75 34.1897 25.77C34.4597 25.81 34.7197 25.92 34.9497 26.07C34.9597 26.07 34.9797 26.07 34.9997 26.07C35.3097 25.97 35.6297 25.94 35.9497 25.97H36.4897C36.5897 25.97 36.6897 25.94 36.7797 25.9C36.8697 25.86 36.9497 25.79 37.0197 25.72C37.0997 25.42 37.0997 25.11 37.0197 24.81C36.9597 24.73 36.8697 24.67 36.7797 24.63C36.6897 24.59 36.5897 24.56 36.4897 24.56C36.4097 24.56 36.2397 24.36 35.9997 24.32C35.9797 24.32 35.9597 24.32 35.9397 24.32C35.9197 24.32 35.8997 24.34 35.8797 24.35C35.6597 24.51 35.3897 24.58 35.1197 24.55H33.8197C33.7297 24.55 33.6397 24.57 33.5497 24.6C33.4597 24.63 33.3897 24.69 33.3197 24.75H33.3097Z" fill="#101214"/>
<path d="M40.95 24.75C40.85 25.08 40.85 25.44 40.95 25.77C41.07 25.89 41.24 25.96 41.42 25.97C41.63 25.93 41.69 25.75 41.83 25.77C42.1 25.82 42.36 25.92 42.59 26.07C42.6 26.07 42.62 26.07 42.63 26.07C42.94 25.97 43.26 25.94 43.59 25.97H44.13C44.23 25.97 44.33 25.94 44.42 25.9C44.51 25.86 44.59 25.79 44.65 25.72C44.74 25.42 44.74 25.11 44.65 24.81C44.59 24.73 44.51 24.67 44.42 24.63C44.33 24.59 44.23 24.56 44.13 24.56C44.05 24.56 43.88 24.36 43.63 24.32C43.61 24.32 43.59 24.32 43.57 24.32C43.55 24.32 43.53 24.34 43.52 24.35C43.3 24.52 43.02 24.59 42.74 24.55H41.44C41.26 24.55 41.09 24.62 40.96 24.75H40.95Z" fill="#101214"/>
<path d="M48.61 24.75C48.52 25.08 48.52 25.44 48.61 25.77C48.73 25.89 48.9 25.96 49.08 25.97C49.29 25.93 49.34 25.75 49.48 25.77C49.7 25.77 49.62 26.01 49.56 26.07L49.58 26.04C49.63 25.98 49.71 25.99 49.66 26.04V26.48C49.66 26.58 49.69 26.68 49.73 26.77C49.77 26.86 49.84 26.94 49.91 27.01C50.21 27.09 50.53 27.09 50.82 27.01C50.9 26.94 50.96 26.86 51 26.77C51.04 26.68 51.07 26.58 51.07 26.48C51.07 26.44 51.12 26.38 51.18 26.29C51.21 26.24 51.24 26.2 51.26 26.15C51.29 26.08 51.31 26 51.31 25.92C51.31 25.84 51.3 25.77 51.27 25.7C51.11 25.33 51.04 24.93 51.07 24.53H49.07C48.89 24.53 48.72 24.62 48.6 24.75H48.61Z" fill="#101214"/>
<path d="M50.8796 30.75C50.5396 30.66 50.1896 30.66 49.8596 30.75C49.7396 30.87 49.6796 31.03 49.6796 31.2C49.7196 31.4 49.8996 31.45 49.8796 31.58C49.8296 31.83 49.7296 32.07 49.5796 32.28C49.5796 32.28 49.5796 32.29 49.5796 32.3C49.5796 32.31 49.5796 32.31 49.5796 32.32C49.6796 32.61 49.7096 32.91 49.6796 33.21V33.72C49.6796 33.81 49.7096 33.91 49.7496 33.99C49.7896 34.07 49.8596 34.15 49.9296 34.21C50.2296 34.29 50.5496 34.29 50.8396 34.21C50.9096 34.15 50.9796 34.08 51.0196 33.99C51.0596 33.91 51.0896 33.81 51.0896 33.72C51.0896 33.64 51.2896 33.48 51.3296 33.25C51.3296 33.23 51.3296 33.21 51.3296 33.19C51.3296 33.17 51.3096 33.15 51.2996 33.14C51.2196 33.04 51.1596 32.92 51.1196 32.8C51.0896 32.67 51.0796 32.54 51.0996 32.41V31.19C51.0996 31.1 51.0696 31.02 51.0396 30.94C50.9996 30.86 50.9496 30.79 50.8796 30.74V30.75Z" fill="white"/>
<path d="M50.8796 37.91C50.5396 37.82 50.1896 37.82 49.8596 37.91C49.7396 38.03 49.6696 38.18 49.6596 38.35C49.6996 38.55 49.8796 38.6 49.8596 38.73C49.8096 38.98 49.7096 39.22 49.5596 39.43C49.5596 39.43 49.5596 39.44 49.5596 39.45C49.5596 39.46 49.5596 39.46 49.5596 39.47C49.6596 39.76 49.6896 40.06 49.6596 40.36V40.87C49.6596 40.96 49.6896 41.06 49.7296 41.14C49.7696 41.22 49.8396 41.3 49.9096 41.36C50.2096 41.44 50.5296 41.44 50.8196 41.36C50.8896 41.3 50.9596 41.23 50.9996 41.14C51.0396 41.06 51.0696 40.96 51.0696 40.87C51.0696 40.79 51.2696 40.63 51.3096 40.4C51.3096 40.38 51.3096 40.36 51.3096 40.34C51.3096 40.32 51.2896 40.3 51.2796 40.29C51.1996 40.19 51.1396 40.07 51.0996 39.95C51.0696 39.82 51.0596 39.69 51.0796 39.56V38.34C51.0796 38.17 50.9996 38.01 50.8796 37.9V37.91Z" fill="#101214"/>
<path d="M50.8796 45.08C50.5396 44.99 50.1896 44.99 49.8596 45.08C49.7396 45.2 49.6696 45.35 49.6596 45.52C49.6996 45.72 49.8796 45.77 49.8596 45.9C49.8096 46.15 49.7096 46.39 49.5596 46.6C49.5596 46.6 49.5596 46.61 49.5596 46.62C49.5596 46.63 49.5596 46.63 49.5596 46.64C49.6596 46.93 49.6896 47.23 49.6596 47.53V48.04C49.6596 48.13 49.6896 48.23 49.7296 48.31C49.7696 48.39 49.8396 48.47 49.9096 48.53C50.2096 48.61 50.5296 48.61 50.8196 48.53C50.8896 48.47 50.9596 48.4 50.9996 48.31C51.0396 48.23 51.0696 48.13 51.0696 48.04C51.0696 47.96 51.2696 47.8 51.3096 47.57C51.3096 47.55 51.3096 47.53 51.3096 47.51C51.3096 47.49 51.2896 47.47 51.2796 47.46C51.1996 47.36 51.1396 47.24 51.0996 47.12C51.0696 46.99 51.0596 46.86 51.0796 46.73V45.51C51.0796 45.34 50.9996 45.18 50.8796 45.07V45.08Z" fill="#101214"/>
<path d="M73.7898 52.27V18H23.5298V52.28H54.4498L51.4098 43.47L73.7798 52.27H73.7898Z" fill="#FCA700"/>
<g style="mix-blend-mode:multiply">
<path d="M73.79 52.27H54.46L60.83 70.7L65.57 58.27L77.45 53.71L73.79 52.27Z" fill="#1868DB"/>
</g>
<path d="M73.7899 52.27L51.4199 43.47L54.4599 52.27H73.7899Z" fill="#FCA700"/>
<path d="M73.7899 52.27L51.4199 43.47L54.4599 52.27H73.7899Z" fill="#101214"/>
<path d="M43.8696 25.2V28.85H66.5896V25.2H43.8696Z" fill="white"/>
<path d="M43.8696 32.51V36.16H60.7496V32.51H43.8696Z" fill="white"/>
<path d="M43.8696 39.81V43.46H51.4196V39.81H43.8696Z" fill="white"/>
<path d="M34.8496 24.59L30.0996 27.33V41.18L34.8496 43.92L39.5996 41.18V27.33L34.8496 24.59Z" fill="white"/>
<path d="M51.4501 52.43C51.3301 52.23 50.2201 52.23 50.1001 52.43C49.9301 52.72 49.8501 53.02 49.8401 53.41C49.8901 53.85 50.1201 53.96 50.1001 54.26C50.1001 54.77 49.7901 55.62 49.7101 55.82C49.7001 55.85 49.7001 55.88 49.7101 55.91C49.7501 56.13 49.9201 57.08 49.8401 57.91C49.8401 58.49 49.8401 58.85 49.8401 59.04C49.8401 59.48 49.9601 59.82 50.1701 60.14C50.2901 60.32 51.2601 60.32 51.3701 60.14C51.5801 59.81 51.7001 59.48 51.7001 59.04C51.7001 58.87 51.9701 58.51 52.0101 58C52.0101 57.92 52.0001 57.83 51.9601 57.75C51.6001 57.04 51.7001 56.13 51.7001 56.13C51.7001 56.13 51.7001 54.76 51.7001 54.18C51.7001 53.74 51.7001 53.53 51.7001 53.41C51.7001 53.02 51.6001 52.72 51.4401 52.43H51.4501Z" fill="#101214"/>
<path d="M51.4501 67.43C51.3301 67.23 50.2201 67.23 50.1001 67.43C49.9301 67.72 49.8501 68.02 49.8401 68.41C49.8901 68.85 50.1201 68.96 50.1001 69.26C50.1001 69.77 49.7901 70.62 49.7101 70.82C49.7001 70.85 49.7001 70.88 49.7101 70.91C49.7501 71.13 49.9201 72.08 49.8401 72.91C49.8401 73.49 49.8401 73.85 49.8401 74.04C49.8401 74.48 49.9601 74.82 50.1701 75.14C50.2901 75.32 51.2601 75.32 51.3701 75.14C51.5801 74.81 51.7001 74.48 51.7001 74.04C51.7001 73.87 51.9701 73.51 52.0101 73C52.0101 72.92 52.0001 72.83 51.9601 72.75C51.6001 72.04 51.7001 71.13 51.7001 71.13C51.7001 71.13 51.7001 69.76 51.7001 69.18C51.7001 68.74 51.7001 68.53 51.7001 68.41C51.7001 68.02 51.6001 67.72 51.4401 67.43H51.4501Z" fill="#101214"/>
<path d="M44.3299 76.48C44.5299 76.36 44.5299 75.25 44.3299 75.13C44.0399 74.96 43.7399 74.88 43.3499 74.87C42.9099 74.92 42.7999 75.15 42.4999 75.13C41.9899 75.13 41.1399 74.82 40.9399 74.74C40.9099 74.73 40.8799 74.73 40.8499 74.74C40.6299 74.78 39.6799 74.95 38.8499 74.87C38.2699 74.87 37.9099 74.87 37.7199 74.87C37.2799 74.87 36.9499 74.99 36.6199 75.2C36.4399 75.32 36.4399 76.29 36.6199 76.4C36.9499 76.61 37.2799 76.73 37.7199 76.73C37.8899 76.73 38.2499 77 38.7599 77.04C38.8399 77.04 38.9299 77.03 39.0099 76.99C39.7199 76.63 40.6299 76.73 40.6299 76.73C40.6299 76.73 41.9999 76.73 42.5799 76.73C43.0199 76.73 43.2199 76.73 43.3499 76.73C43.7399 76.73 44.0399 76.63 44.3299 76.47V76.48Z" fill="#101214"/>
<path d="M29.3299 76.48C29.5299 76.36 29.5299 75.25 29.3299 75.13C29.0399 74.96 28.7399 74.88 28.3499 74.87C27.9099 74.92 27.7999 75.15 27.4999 75.13C26.9899 75.13 26.1399 74.82 25.9399 74.74C25.9099 74.73 25.8799 74.73 25.8499 74.74C25.6299 74.78 24.6799 74.95 23.8499 74.87C23.2699 74.87 22.9099 74.87 22.7199 74.87C22.2799 74.87 21.9499 74.99 21.6199 75.2C21.4399 75.32 21.4399 76.29 21.6199 76.4C21.9499 76.61 22.2799 76.73 22.7199 76.73C22.8899 76.73 23.2499 77 23.7599 77.04C23.8399 77.04 23.9299 77.03 24.0099 76.99C24.7199 76.63 25.6299 76.73 25.6299 76.73C25.6299 76.73 26.9999 76.73 27.5799 76.73C28.0199 76.73 28.2199 76.73 28.3499 76.73C28.7399 76.73 29.0399 76.63 29.3299 76.47V76.48Z" fill="#101214"/>
<path d="M19.56 70.08C19.68 70.28 20.79 70.28 20.91 70.08C21.08 69.79 21.16 69.49 21.17 69.1C21.12 68.66 20.89 68.55 20.91 68.25C20.91 67.74 21.22 66.89 21.3 66.69C21.31 66.66 21.31 66.63 21.3 66.6C21.26 66.38 21.09 65.43 21.17 64.6C21.17 64.02 21.17 63.66 21.17 63.47C21.17 63.03 21.05 62.7 20.84 62.37C20.72 62.19 19.75 62.19 19.64 62.37C19.43 62.7 19.31 63.03 19.31 63.47C19.31 63.64 19.04 64 19 64.51C19 64.59 19.01 64.68 19.05 64.76C19.41 65.47 19.31 66.38 19.31 66.38C19.31 66.38 19.31 67.75 19.31 68.33C19.31 68.77 19.31 68.98 19.31 69.1C19.31 69.49 19.41 69.79 19.57 70.08H19.56Z" fill="#101214"/>
<path d="M19.56 55.08C19.68 55.28 20.79 55.28 20.91 55.08C21.08 54.79 21.16 54.49 21.17 54.1C21.12 53.66 20.89 53.55 20.91 53.25C20.91 52.74 21.22 51.89 21.3 51.69C21.31 51.66 21.31 51.63 21.3 51.6C21.26 51.38 21.09 50.43 21.17 49.6C21.17 49.02 21.17 48.66 21.17 48.47C21.17 48.03 21.05 47.7 20.84 47.37C20.72 47.19 19.75 47.19 19.64 47.37C19.43 47.7 19.31 48.03 19.31 48.47C19.31 48.64 19.04 49 19 49.51C19 49.59 19.01 49.68 19.05 49.76C19.41 50.47 19.31 51.38 19.31 51.38C19.31 51.38 19.31 52.75 19.31 53.33C19.31 53.77 19.31 53.98 19.31 54.1C19.31 54.49 19.41 54.79 19.57 55.08H19.56Z" fill="#101214"/>
<path d="M19.56 40.08C19.68 40.28 20.79 40.28 20.91 40.08C21.08 39.79 21.16 39.49 21.17 39.1C21.12 38.66 20.89 38.55 20.91 38.25C20.91 37.74 21.22 36.89 21.3 36.69C21.31 36.66 21.31 36.63 21.3 36.6C21.26 36.38 21.09 35.43 21.17 34.6C21.17 34.02 21.17 33.66 21.17 33.47C21.17 33.03 21.05 32.7 20.84 32.37C20.72 32.19 19.75 32.19 19.64 32.37C19.43 32.7 19.31 33.03 19.31 33.47C19.31 33.64 19.04 34 19 34.51C19 34.59 19.01 34.68 19.05 34.76C19.41 35.47 19.31 36.38 19.31 36.38C19.31 36.38 19.31 37.75 19.31 38.33C19.31 38.77 19.31 38.98 19.31 39.1C19.31 39.49 19.41 39.79 19.57 40.08H19.56Z" fill="#101214"/>
<path d="M19.5602 25.16C19.6802 25.26 20.7902 25.26 20.9102 25.16C21.0202 25.07 21.1002 24.97 21.1402 24.85L20.1502 25.84C20.1502 25.84 20.2502 25.87 20.3002 25.87C20.5102 25.82 20.5602 25.59 20.7002 25.61C20.9402 25.61 21.3402 25.92 21.4402 26C21.4502 26.01 21.4702 26.01 21.4802 26C21.5802 25.96 22.0302 25.79 22.4202 25.87C22.6902 25.87 22.8602 25.87 22.9502 25.87C23.1602 25.87 23.3102 25.75 23.4702 25.54C23.5502 25.42 23.5502 24.45 23.4702 24.34C23.3202 24.13 23.1602 24.01 22.9502 24.01C22.8702 24.01 22.7002 23.74 22.4602 23.7C22.4202 23.7 22.3802 23.71 22.3402 23.75C22.0102 24.11 21.5702 24.01 21.5702 24.01C21.5702 24.01 20.9302 24.01 20.6502 24.01C20.4502 24.01 20.3502 24.01 20.2902 24.01C20.2302 24.01 20.1802 24.02 20.1402 24.04L19.1802 24.42L19.3302 24.85C19.3702 24.97 19.4502 25.06 19.5602 25.16Z" fill="#101214"/>
</svg>
