<svg width="96" height="96" viewBox="0 0 96 96" fill="none" xmlns="http://www.w3.org/2000/svg">
<path d="M25.67 24.75C25.57 25.08 25.57 25.44 25.67 25.77C25.8 25.89 25.96 25.96 26.14 25.97C26.35 25.93 26.4 25.75 26.55 25.77C26.82 25.81 27.08 25.92 27.31 26.07C27.32 26.07 27.34 26.07 27.35 26.07C27.66 25.97 27.98 25.94 28.31 25.97H28.85C28.95 25.97 29.05 25.94 29.14 25.9C29.23 25.86 29.31 25.79 29.38 25.72C29.46 25.42 29.46 25.11 29.38 24.81C29.32 24.73 29.23 24.67 29.14 24.63C29.05 24.59 28.95 24.56 28.85 24.56C28.77 24.56 28.6 24.36 28.35 24.32C28.33 24.32 28.31 24.32 28.29 24.32C28.27 24.32 28.25 24.34 28.24 24.35C28.02 24.52 27.74 24.59 27.46 24.55H26.16C25.98 24.55 25.81 24.62 25.68 24.75H25.67Z" fill="#101214"/>
<path d="M33.3099 24.75C33.2199 25.08 33.2199 25.44 33.3099 25.77C33.4399 25.89 33.5999 25.96 33.7799 25.97C33.9899 25.93 34.0499 25.75 34.1899 25.77C34.4599 25.81 34.7199 25.92 34.9499 26.07C34.9599 26.07 34.9799 26.07 34.9999 26.07C35.3099 25.97 35.6299 25.94 35.9499 25.97H36.4899C36.5899 25.97 36.6899 25.94 36.7799 25.9C36.8699 25.86 36.9499 25.79 37.0199 25.72C37.0999 25.42 37.0999 25.11 37.0199 24.81C36.9599 24.73 36.8699 24.67 36.7799 24.63C36.6899 24.59 36.5899 24.56 36.4899 24.56C36.4099 24.56 36.2399 24.36 35.9999 24.32C35.9799 24.32 35.9599 24.32 35.9399 24.32C35.9199 24.32 35.8999 24.34 35.8799 24.35C35.6599 24.51 35.3899 24.58 35.1199 24.55H33.8199C33.7299 24.55 33.6399 24.57 33.5499 24.6C33.4599 24.63 33.3899 24.69 33.3199 24.75H33.3099Z" fill="#101214"/>
<path d="M40.95 24.75C40.85 25.08 40.85 25.44 40.95 25.77C41.07 25.89 41.24 25.96 41.42 25.97C41.63 25.93 41.69 25.75 41.83 25.77C42.1 25.82 42.36 25.92 42.59 26.07C42.6 26.07 42.62 26.07 42.63 26.07C42.94 25.97 43.26 25.94 43.59 25.97H44.13C44.23 25.97 44.33 25.94 44.42 25.9C44.51 25.86 44.59 25.79 44.65 25.72C44.74 25.42 44.74 25.11 44.65 24.81C44.59 24.73 44.51 24.67 44.42 24.63C44.33 24.59 44.23 24.56 44.13 24.56C44.05 24.56 43.88 24.36 43.63 24.32C43.61 24.32 43.59 24.32 43.57 24.32C43.55 24.32 43.53 24.34 43.52 24.35C43.3 24.52 43.02 24.59 42.74 24.55H41.44C41.26 24.55 41.09 24.62 40.96 24.75H40.95Z" fill="#101214"/>
<path d="M48.61 24.75C48.52 25.08 48.52 25.44 48.61 25.77C48.73 25.89 48.9 25.96 49.08 25.97C49.29 25.93 49.34 25.75 49.48 25.77C49.7 25.77 49.62 26.01 49.56 26.07L49.58 26.04C49.63 25.98 49.71 25.99 49.66 26.04V26.48C49.66 26.58 49.69 26.68 49.73 26.77C49.77 26.86 49.84 26.94 49.91 27.01C50.21 27.09 50.53 27.09 50.82 27.01C50.9 26.94 50.96 26.86 51 26.77C51.04 26.68 51.07 26.58 51.07 26.48C51.07 26.44 51.12 26.38 51.18 26.29C51.21 26.24 51.24 26.2 51.26 26.15C51.29 26.08 51.31 26 51.31 25.92C51.31 25.84 51.3 25.77 51.27 25.7C51.11 25.33 51.04 24.93 51.07 24.53H49.07C48.89 24.53 48.72 24.62 48.6 24.75H48.61Z" fill="#101214"/>
<path d="M50.8801 30.75C50.5401 30.66 50.1901 30.66 49.8601 30.75C49.7401 30.87 49.6801 31.03 49.6801 31.2C49.7201 31.4 49.9001 31.45 49.8801 31.58C49.8301 31.83 49.7301 32.07 49.5801 32.28C49.5801 32.28 49.5801 32.29 49.5801 32.3C49.5801 32.31 49.5801 32.31 49.5801 32.32C49.6801 32.61 49.7101 32.91 49.6801 33.21V33.72C49.6801 33.81 49.7101 33.91 49.7501 33.99C49.7901 34.07 49.8601 34.15 49.9301 34.21C50.2301 34.29 50.5501 34.29 50.8401 34.21C50.9101 34.15 50.9801 34.08 51.0201 33.99C51.0601 33.91 51.0901 33.81 51.0901 33.72C51.0901 33.64 51.2901 33.48 51.3301 33.25C51.3301 33.23 51.3301 33.21 51.3301 33.19C51.3301 33.17 51.3101 33.15 51.3001 33.14C51.2201 33.04 51.1601 32.92 51.1201 32.8C51.0901 32.67 51.0801 32.54 51.1001 32.41V31.19C51.1001 31.1 51.0701 31.02 51.0401 30.94C51.0001 30.86 50.9501 30.79 50.8801 30.74V30.75Z" fill="white"/>
<path d="M50.8801 37.91C50.5401 37.82 50.1901 37.82 49.8601 37.91C49.7401 38.03 49.6701 38.18 49.6601 38.35C49.7001 38.55 49.8801 38.6 49.8601 38.73C49.8101 38.98 49.7101 39.22 49.5601 39.43C49.5601 39.43 49.5601 39.44 49.5601 39.45C49.5601 39.46 49.5601 39.46 49.5601 39.47C49.6601 39.76 49.6901 40.06 49.6601 40.36V40.87C49.6601 40.96 49.6901 41.06 49.7301 41.14C49.7701 41.22 49.8401 41.3 49.9101 41.36C50.2101 41.44 50.5301 41.44 50.8201 41.36C50.8901 41.3 50.9601 41.23 51.0001 41.14C51.0401 41.06 51.0701 40.96 51.0701 40.87C51.0701 40.79 51.2701 40.63 51.3101 40.4C51.3101 40.38 51.3101 40.36 51.3101 40.34C51.3101 40.32 51.2901 40.3 51.2801 40.29C51.2001 40.19 51.1401 40.07 51.1001 39.95C51.0701 39.82 51.0601 39.69 51.0801 39.56V38.34C51.0801 38.17 51.0001 38.01 50.8801 37.9V37.91Z" fill="#101214"/>
<path d="M50.8801 45.08C50.5401 44.99 50.1901 44.99 49.8601 45.08C49.7401 45.2 49.6701 45.35 49.6601 45.52C49.7001 45.72 49.8801 45.77 49.8601 45.9C49.8101 46.15 49.7101 46.39 49.5601 46.6C49.5601 46.6 49.5601 46.61 49.5601 46.62C49.5601 46.63 49.5601 46.63 49.5601 46.64C49.6601 46.93 49.6901 47.23 49.6601 47.53V48.04C49.6601 48.13 49.6901 48.23 49.7301 48.31C49.7701 48.39 49.8401 48.47 49.9101 48.53C50.2101 48.61 50.5301 48.61 50.8201 48.53C50.8901 48.47 50.9601 48.4 51.0001 48.31C51.0401 48.23 51.0701 48.13 51.0701 48.04C51.0701 47.96 51.2701 47.8 51.3101 47.57C51.3101 47.55 51.3101 47.53 51.3101 47.51C51.3101 47.49 51.2901 47.47 51.2801 47.46C51.2001 47.36 51.1401 47.24 51.1001 47.12C51.0701 46.99 51.0601 46.86 51.0801 46.73V45.51C51.0801 45.34 51.0001 45.18 50.8801 45.07V45.08Z" fill="#101214"/>
<path d="M73.79 52.27V18H23.53V52.28H54.45L51.41 43.47L73.78 52.27H73.79Z" fill="#FCA700"/>
<g style="mix-blend-mode:multiply">
<path d="M73.79 52.27H54.46L60.83 70.7L65.57 58.27L77.45 53.71L73.79 52.27Z" fill="#1868DB"/>
</g>
<path d="M73.7899 52.27L51.4199 43.47L54.4599 52.27H73.7899Z" fill="#FCA700"/>
<path d="M73.7899 52.27L51.4199 43.47L54.4599 52.27H73.7899Z" fill="#101214"/>
<path d="M43.8701 25.2V28.85H66.5901V25.2H43.8701Z" fill="white"/>
<path d="M43.8701 32.51V36.16H60.7501V32.51H43.8701Z" fill="white"/>
<path d="M43.8701 39.81V43.46H51.4201V39.81H43.8701Z" fill="white"/>
<path d="M34.8501 24.59L30.1001 27.33V41.18L34.8501 43.92L39.6001 41.18V27.33L34.8501 24.59Z" fill="white"/>
</svg>
