<svg width="96" height="96" viewBox="0 0 96 96" fill="none" xmlns="http://www.w3.org/2000/svg">
<path fill-rule="evenodd" clip-rule="evenodd" d="M33.3901 48.49L39.7301 42.15L33.3901 35.81L38.6801 30.52H51.3701L60.8901 21H75.6901V35.8L66.1701 45.32V58.01L60.8801 63.3L54.5401 56.96L48.2001 63.3L42.3901 57.49L49.3501 50.53L46.1801 47.36L39.2201 54.32L33.4001 48.5L33.3901 48.49ZM68.2801 33.69C66.8201 35.15 64.4501 35.15 62.9901 33.69C61.5301 32.23 61.5301 29.86 62.9901 28.4C64.4501 26.94 66.8201 26.94 68.2801 28.4C69.7401 29.86 69.7401 32.23 68.2801 33.69Z" fill="#1868DB"/>
<path fill-rule="evenodd" clip-rule="evenodd" d="M50.2501 66C43.8801 72.37 34.9301 76.64 20.0701 76.32C19.7401 61.46 24.0101 52.52 30.3901 46.14C36.2301 40.3 45.3201 39.04 54.4801 41.9C57.3401 51.06 56.0901 60.15 50.2401 65.99H50.2501V66Z" fill="#FCA700"/>
<path fill-rule="evenodd" clip-rule="evenodd" d="M55.1201 57.52L54.5501 56.95L48.2001 63.29L42.3901 57.48L49.3501 50.52L46.1801 47.35L39.2201 54.31L33.4001 48.49L39.7401 42.14L38.8701 41.27C43.6001 39.95 49.0301 40.2 54.4901 41.9C56.1901 47.36 56.4401 52.79 55.1201 57.52Z" fill="#09326C"/>
<path d="M20.2499 54.5204C20.5499 54.3404 20.6599 53.2004 19.9999 53.1904C19.1699 53.2104 18.4699 53.4004 17.5999 53.7504C16.6499 54.2004 16.5199 54.5304 15.8599 54.7904C14.7799 55.2804 12.8499 55.8604 12.3899 56.0004C12.3199 56.0204 12.2599 56.0504 12.1899 56.0904C11.7499 56.3504 9.81992 57.4704 8.06992 58.2404C6.85992 58.8204 6.10992 59.1904 5.71992 59.3804C4.79992 59.8204 4.14992 60.2404 3.58992 60.6804C3.30992 60.9004 3.48992 61.8604 3.97992 61.8204C4.81992 61.7404 5.56992 61.5104 6.51992 61.0804C6.88992 60.9104 7.75992 60.7904 8.83992 60.3104C9.01992 60.2304 9.17992 60.1304 9.32992 60.0104C10.6499 58.9604 12.6099 58.1204 12.6099 58.1204C12.6099 58.1204 15.4699 56.7404 16.6799 56.2004C17.5899 55.7804 18.0299 55.6004 18.2999 55.4904C19.1099 55.1504 19.7299 54.8104 20.2299 54.5304L20.2499 54.5204Z" fill="#101214"/>
<path d="M49.9199 70.5004C49.8799 69.9004 48.7399 70.0704 48.5899 70.3004C48.3299 70.7704 48.0699 71.3704 47.8199 72.1504C47.5899 73.0604 47.7299 73.3504 47.5099 73.9504C47.1699 74.9804 46.2699 76.6004 46.0499 76.9904C46.0199 77.0504 45.9899 77.1104 45.9799 77.1704C45.8699 77.6304 45.3399 79.6104 44.6599 81.2604C44.2399 82.4404 43.9899 83.1704 43.8499 83.5604C43.5399 84.4704 43.4099 85.1804 43.3999 85.9604C43.3999 86.4204 44.3599 86.5804 44.5599 86.2804C44.9499 85.7104 45.2899 85.0704 45.6199 84.1804C45.7399 83.8304 46.2499 83.2004 46.6599 82.1804C46.7299 82.0204 46.7699 81.8404 46.7899 81.6604C46.9599 80.1104 47.7199 78.2804 47.7199 78.2804C47.7199 78.2804 48.6899 75.4904 49.0999 74.3104C49.3899 73.4104 49.5299 72.9704 49.6099 72.7104C49.8599 71.8904 49.9599 71.2304 49.9299 70.5104L49.9199 70.5004Z" fill="#101214"/>
<path d="M30.9099 66.5604C31.0299 66.3404 30.6099 65.2904 30.1799 65.4304C29.6399 65.6004 29.2199 65.8404 28.7299 66.2404C28.2299 66.7404 28.2499 67.0304 27.8799 67.3204C27.2899 67.8504 26.0899 68.5304 25.7999 68.6904C25.7599 68.7104 25.7199 68.7404 25.6899 68.7804C25.4699 69.0404 24.4899 70.1904 23.4999 71.0304C22.8499 71.6704 22.4499 72.0704 22.2299 72.2804C21.7399 72.7804 21.4499 73.2304 21.2399 73.7804C21.1199 74.0904 21.8899 74.6904 22.1399 74.5804C22.6199 74.3704 23.0599 74.0904 23.5499 73.6104C23.7399 73.4204 24.3199 73.2204 24.9199 72.7104C25.0199 72.6304 25.0999 72.5204 25.1599 72.4104C25.6999 71.3904 26.8099 70.4904 26.8099 70.4904C26.8099 70.4904 28.3799 69.0604 29.0399 68.4604C29.5399 68.0204 29.7799 67.8104 29.9299 67.6804C30.3799 67.2904 30.6799 66.9304 30.8999 66.5804L30.9099 66.5604Z" fill="#101214"/>
</svg>
