<svg width="96" height="96" viewBox="0 0 96 96" fill="none" xmlns="http://www.w3.org/2000/svg">
<path fill-rule="evenodd" clip-rule="evenodd" d="M33.5801 47.5L39.9201 41.16L33.5801 34.82L38.8701 29.53H51.5601L61.0801 20.01H75.8801V34.81L66.3601 44.33V57.02L61.0701 62.31L54.7301 55.97L48.3901 62.31L42.5801 56.5L49.5401 49.54L46.3701 46.37L39.4101 53.33L33.5901 47.51L33.5801 47.5ZM68.4701 32.7C67.0101 34.16 64.6401 34.16 63.1801 32.7C61.7201 31.24 61.7201 28.87 63.1801 27.41C64.6401 25.95 67.0101 25.95 68.4701 27.41C69.9301 28.87 69.9301 31.24 68.4701 32.7Z" fill="#1868DB"/>
<path fill-rule="evenodd" clip-rule="evenodd" d="M50.4401 65.01C44.0701 71.38 35.1201 75.65 20.2601 75.33C19.9301 60.47 24.2001 51.53 30.5801 45.15C36.4201 39.31 45.5101 38.05 54.6701 40.91C57.5301 50.07 56.2801 59.16 50.4301 65L50.4401 65.01Z" fill="#FCA700"/>
<path fill-rule="evenodd" clip-rule="evenodd" d="M55.3101 56.53L54.7401 55.96L48.3901 62.3L42.5801 56.49L49.5401 49.53L46.3701 46.36L39.4101 53.32L33.5901 47.5L39.9301 41.15L39.0601 40.28C43.7901 38.96 49.2201 39.21 54.6801 40.91C56.3801 46.37 56.6301 51.8 55.3101 56.53Z" fill="#09326C"/>
</svg>
