<svg width="275" height="275" viewBox="0 0 275 275" fill="none" xmlns="http://www.w3.org/2000/svg">
<path d="M252.19 144H241.86L236.89 131.48H208.9C209.34 105.59 211.98 81.6105 216.72 60.0005H80.86C80.46 63.9205 80.1 67.8905 79.76 71.8805H40.59L45.56 84.4105H95.07L100.04 96.9405H78.05C78.05 97.1005 78.03 97.2605 78.02 97.4205L77.83 96.9405H18L22.97 109.47H40.6L45.57 122H77.19C77.08 127.4 77.02 132.83 77.02 138.32C77.02 156.29 77.57 173.69 78.62 190.53H55.04L60.01 203.06H45.06L50.03 215.59H216.38C214.05 204.77 212.26 193.36 211 181.4H189.24L184.27 168.87H201.65L196.68 156.34L257.17 156.52L252.2 143.99L252.19 144Z" fill="#DDDEE1"/>
<path d="M145.442 121.791C130.362 121.791 121.562 127.751 116.512 136.341C121.562 144.931 130.372 150.891 145.442 150.891V121.801V121.791Z" fill="white"/>
<path d="M145.441 150.891C160.521 150.891 169.321 144.931 174.371 136.341C169.321 127.751 160.511 121.791 145.441 121.791V150.881V150.891Z" fill="white"/>
<path d="M155.811 138.661C155.941 137.941 156.011 137.171 156.011 136.361C156.011 135.551 155.941 134.761 155.811 134.031C155.031 129.681 152.001 126.991 147.761 126.301C147.041 126.181 146.281 126.121 145.491 126.121C144.701 126.121 143.881 126.191 143.121 126.311C138.881 127.021 135.861 129.691 135.071 134.021C134.941 134.751 134.871 135.531 134.871 136.351C134.871 137.171 134.941 137.931 135.071 138.651C135.851 142.971 138.871 145.651 143.121 146.361C143.871 146.491 144.661 146.551 145.491 146.551C146.321 146.551 147.041 146.491 147.761 146.371C152.011 145.681 155.031 142.991 155.811 138.641V138.661Z" fill="#DDDEE1"/>
<path fill-rule="evenodd" clip-rule="evenodd" d="M120.898 156.68L165.778 111.8L169.979 116.001L125.099 160.881L120.898 156.68Z" fill="white"/>
<path d="M77.1797 122.001H106L101.03 109.471H77.1797V122.001Z" fill="#B7B9BE"/>
<path d="M81.1087 215.601H109.929L104.959 203.061H80.2188L81.1087 215.601Z" fill="#B7B9BE"/>
<path d="M208.171 143.831H189.891L194.861 156.371H199.441H208.171V143.831Z" fill="#B7B9BE"/>
</svg>
