<svg width="275" height="275" viewBox="0 0 275 275" fill="none" xmlns="http://www.w3.org/2000/svg">
<path d="M252.19 144H241.86L236.89 131.48H208.9C209.34 105.59 211.98 81.6105 216.72 60.0005H80.86C80.46 63.9205 80.1 67.8905 79.76 71.8805H40.59L45.56 84.4105H95.07L100.04 96.9405H78.05C78.05 97.1005 78.03 97.2605 78.02 97.4205L77.83 96.9405H18L22.97 109.47H40.6L45.57 122H77.19C77.08 127.4 77.02 132.83 77.02 138.32C77.02 156.29 77.57 173.69 78.62 190.53H55.04L60.01 203.06H45.06L50.03 215.59H216.38C214.05 204.77 212.26 193.36 211 181.4H189.24L184.27 168.87H201.65L196.68 156.34L257.17 156.52L252.2 143.99L252.19 144Z" fill="#4B4D51"/>
<path d="M77.1797 122.001H106L101.03 109.471H77.1797V122.001Z" fill="#7E8188"/>
<path d="M81.1087 215.601H109.929L104.959 203.061H80.2188L81.1087 215.601Z" fill="#7E8188"/>
<path d="M208.171 143.831H189.891L194.861 156.371H199.441H208.171V143.831Z" fill="#7E8188"/>
<path fill-rule="evenodd" clip-rule="evenodd" d="M142.48 149.061V99.2007H148.42V149.061H142.48Z" fill="#101214"/>
<path fill-rule="evenodd" clip-rule="evenodd" d="M144.101 158.149C144.634 158.054 145.143 158.025 145.579 158.025C146.04 158.025 146.497 158.057 146.956 158.128L146.973 158.131L146.99 158.133C149.897 158.608 152.316 160.631 152.903 163.864C153.006 164.411 153.034 164.937 153.034 165.37C153.034 165.706 153.017 166.085 152.964 166.485V166.547L152.906 166.868C152.328 170.091 149.914 172.14 146.99 172.617L146.973 172.62L146.956 172.623C146.497 172.693 146.04 172.725 145.579 172.725C145.139 172.725 144.626 172.696 144.089 172.599C141.22 172.102 138.812 170.097 138.225 166.879C138.123 166.337 138.094 165.822 138.094 165.38C138.094 164.93 138.123 164.409 138.227 163.86C138.821 160.691 141.179 158.641 144.101 158.149ZM145.424 165.361C145.424 165.367 145.424 165.374 145.424 165.38C145.424 165.384 145.424 165.387 145.424 165.39C145.427 165.39 145.431 165.39 145.435 165.391C145.469 165.393 145.517 165.395 145.579 165.395C145.626 165.395 145.667 165.394 145.704 165.392C145.704 165.385 145.704 165.378 145.704 165.37C145.704 165.366 145.704 165.363 145.704 165.359C145.667 165.357 145.626 165.355 145.579 165.355C145.517 165.355 145.469 165.358 145.435 165.36C145.431 165.361 145.427 165.361 145.424 165.361Z" fill="#101214"/>
</svg>
