<svg width="16" height="16" viewBox="0 0 16 16" fill="none" xmlns="http://www.w3.org/2000/svg">
<g clip-path="url(#clip0_237_8322)">
<path d="M6.64914 1.49505L0.684313 3.96323C0.352607 4.1005 0.356043 4.57166 0.689829 4.70396L6.67962 7.07926C7.20594 7.28797 7.79203 7.28797 8.31825 7.07926L14.3081 4.70396C14.6418 4.57166 14.6454 4.1005 14.3136 3.96323L8.34882 1.49505C7.8046 1.26988 7.19328 1.26988 6.64914 1.49505Z" fill="#FFBF00"/>
<path d="M8.03125 8.37647V14.3103C8.03125 14.5925 8.31584 14.7858 8.57819 14.6818L15.2526 12.0911C15.405 12.0307 15.5049 11.8834 15.5049 11.7196V5.78576C15.5049 5.50352 15.2204 5.31027 14.958 5.41426L8.28356 8.00497C8.13127 8.06538 8.03125 8.2126 8.03125 8.37647Z" fill="#26B5F8"/>
<path d="M6.47064 8.68189L4.48981 9.6383L4.28869 9.73552L0.107271 11.7391C-0.157786 11.8669 -0.496094 11.6738 -0.496094 11.3793V5.80994C-0.496094 5.70341 -0.441473 5.61144 -0.368222 5.54217C-0.337656 5.51151 -0.303021 5.48628 -0.267028 5.4663C-0.167101 5.40634 -0.0245791 5.39033 0.0966004 5.43826L6.43736 7.95056C6.75966 8.07844 6.78498 8.53006 6.47064 8.68189Z" fill="#ED3049"/>
<path d="M6.47167 8.68189L4.49084 9.6383L-0.367188 5.54217C-0.336621 5.51151 -0.301986 5.48628 -0.265994 5.4663C-0.166066 5.40634 -0.0235443 5.39033 0.0976351 5.43826L6.43839 7.95056C6.7607 8.07844 6.78602 8.53006 6.47167 8.68189Z" fill="black" fill-opacity="0.25"/>
</g>
<defs>
<clipPath id="clip0_237_8322">
<rect width="16" height="16" rx="4" fill="white"/>
</clipPath>
</defs>
</svg>
