<svg width="16" height="16" viewBox="0 0 16 16" fill="none" xmlns="http://www.w3.org/2000/svg">
<mask id="path-1-inside-1_237_8316" fill="white">
<path d="M0 4C0 1.79086 1.79086 0 4 0H12C14.2091 0 16 1.79086 16 4V12C16 14.2091 14.2091 16 12 16H4C1.79086 16 0 14.2091 0 12V4Z"/>
</mask>
<path d="M0 4C0 1.79086 1.79086 0 4 0H12C14.2091 0 16 1.79086 16 4V12C16 14.2091 14.2091 16 12 16H4C1.79086 16 0 14.2091 0 12V4Z" fill="white"/>
<path d="M4 0V1H12V0V-1H4V0ZM16 4H15V12H16H17V4H16ZM12 16V15H4V16V17H12V16ZM0 12H1V4H0H-1V12H0ZM4 16V15C2.34315 15 1 13.6569 1 12H0H-1C-1 14.7614 1.23858 17 4 17V16ZM16 12H15C15 13.6569 13.6569 15 12 15V16V17C14.7614 17 17 14.7614 17 12H16ZM12 0V1C13.6569 1 15 2.34315 15 4H16H17C17 1.23858 14.7614 -1 12 -1V0ZM4 0V-1C1.23858 -1 -1 1.23858 -1 4H0H1C1 2.34315 2.34315 1 4 1V0Z" fill="#0B1228" fill-opacity="0.14" mask="url(#path-1-inside-1_237_8316)"/>
<path d="M7.43043 3.4456L3.45361 5.09116C3.23246 5.18268 3.23475 5.4968 3.45729 5.58501L7.45075 7.16865C7.80165 7.3078 8.1924 7.3078 8.54324 7.16865L12.5368 5.58501C12.7592 5.4968 12.7616 5.18268 12.5404 5.09116L8.56362 3.4456C8.20078 3.29548 7.79321 3.29548 7.43043 3.4456Z" fill="#FFBF00"/>
<path d="M8.34961 8.03301V11.9891C8.34961 12.1773 8.53935 12.3062 8.71426 12.2368L13.1642 10.5096C13.2658 10.4693 13.3324 10.3711 13.3324 10.2619V6.30576C13.3324 6.11759 13.1427 5.98874 12.9678 6.05808L8.51782 7.78533C8.41629 7.8256 8.34961 7.92376 8.34961 8.03301Z" fill="#26B5F8"/>
<path d="M7.31081 8.23696L5.99017 8.87461L5.85608 8.93943L3.06829 10.2752C2.89157 10.3605 2.66602 10.2317 2.66602 10.0354V6.3222C2.66602 6.25118 2.70243 6.18986 2.75127 6.14368C2.77165 6.12324 2.79474 6.10642 2.81874 6.09309C2.88536 6.05312 2.98038 6.04245 3.06117 6.0744L7.28862 7.74938C7.5035 7.83463 7.52038 8.13573 7.31081 8.23696Z" fill="#ED3049"/>
<path d="M7.31149 8.23696L5.99085 8.87461L2.75195 6.14368C2.77233 6.12324 2.79542 6.10642 2.81942 6.09309C2.88604 6.05312 2.98106 6.04245 3.06186 6.0744L7.2893 7.74938C7.50418 7.83463 7.52107 8.13573 7.31149 8.23696Z" fill="black" fill-opacity="0.25"/>
</svg>
