<svg width="20" height="20" viewBox="0 0 20 20" fill="none" xmlns="http://www.w3.org/2000/svg">
<mask id="path-1-inside-1_237_8310" fill="white">
<path d="M0 5C0 2.23858 2.23858 0 5 0H15C17.7614 0 20 2.23858 20 5V15C20 17.7614 17.7614 20 15 20H5C2.23858 20 0 17.7614 0 15V5Z"/>
</mask>
<path d="M0 5C0 2.23858 2.23858 0 5 0H15C17.7614 0 20 2.23858 20 5V15C20 17.7614 17.7614 20 15 20H5C2.23858 20 0 17.7614 0 15V5Z" fill="white"/>
<path d="M5 0V1H15V0V-1H5V0ZM20 5H19V15H20H21V5H20ZM15 20V19H5V20V21H15V20ZM0 15H1V5H0H-1V15H0ZM5 20V19C2.79086 19 1 17.2091 1 15H0H-1C-1 18.3137 1.68629 21 5 21V20ZM20 15H19C19 17.2091 17.2091 19 15 19V20V21C18.3137 21 21 18.3137 21 15H20ZM15 0V1C17.2091 1 19 2.79086 19 5H20H21C21 1.68629 18.3137 -1 15 -1V0ZM5 0V-1C1.68629 -1 -1 1.68629 -1 5H0H1C1 2.79086 2.79086 1 5 1V0Z" fill="#0B1228" fill-opacity="0.14" mask="url(#path-1-inside-1_237_8310)"/>
<path d="M9.35999 4.85127L4.88628 6.70244C4.6375 6.8054 4.64008 7.15877 4.89042 7.258L9.38285 9.0395C9.77759 9.19604 10.2172 9.19604 10.6118 9.0395L15.1043 7.258C15.3546 7.15877 15.3573 6.8054 15.1084 6.70244L10.6348 4.85127C10.2266 4.68239 9.7681 4.68239 9.35999 4.85127Z" fill="#FFBF00"/>
<path d="M10.3965 10.0126V14.4631C10.3965 14.6747 10.6099 14.8197 10.8067 14.7417L15.8126 12.7986C15.9269 12.7533 16.0019 12.6429 16.0019 12.52V8.06955C16.0019 7.85787 15.7884 7.71292 15.5917 7.79092L10.5857 9.73399C10.4715 9.7793 10.3965 9.88972 10.3965 10.0126Z" fill="#26B5F8"/>
<path d="M9.2271 10.2419L7.74145 10.9593L7.5906 11.0322L4.45449 12.5348C4.25569 12.6307 4.00195 12.4859 4.00195 12.265V8.08793C4.00195 8.00803 4.04292 7.93905 4.09786 7.8871C4.12078 7.8641 4.14676 7.84518 4.17376 7.83019C4.2487 7.78522 4.3556 7.77322 4.44648 7.80917L9.20214 9.69343C9.44387 9.78933 9.46286 10.1281 9.2271 10.2419Z" fill="#ED3049"/>
<path d="M9.2269 10.2419L7.74125 10.9593L4.09766 7.8871C4.12058 7.8641 4.14656 7.84518 4.17355 7.83019C4.2485 7.78522 4.35539 7.77322 4.44628 7.80917L9.20194 9.69343C9.44367 9.78933 9.46266 10.1281 9.2269 10.2419Z" fill="black" fill-opacity="0.25"/>
</svg>
