<svg width="24" height="24" viewBox="0 0 24 24" fill="none" xmlns="http://www.w3.org/2000/svg">
<mask id="path-1-inside-1_237_8304" fill="white">
<path d="M0 6.39569C0 2.86345 2.86345 0 6.39569 0H17.6043C21.1366 0 24 2.86345 24 6.39569V17.6043C24 21.1366 21.1366 24 17.6043 24H6.39569C2.86345 24 0 21.1366 0 17.6043V6.39569Z"/>
</mask>
<path d="M0 6.39569C0 2.86345 2.86345 0 6.39569 0H17.6043C21.1366 0 24 2.86345 24 6.39569V17.6043C24 21.1366 21.1366 24 17.6043 24H6.39569C2.86345 24 0 21.1366 0 17.6043V6.39569Z" fill="white"/>
<path d="M6.39569 0V1H17.6043V0V-1H6.39569V0ZM24 6.39569H23V17.6043H24H25V6.39569H24ZM17.6043 24V23H6.39569V24V25H17.6043V24ZM0 17.6043H1V6.39569H0H-1V17.6043H0ZM6.39569 24V23C3.41573 23 1 20.5843 1 17.6043H0H-1C-1 21.6888 2.31116 25 6.39569 25V24ZM24 17.6043H23C23 20.5843 20.5843 23 17.6043 23V24V25C21.6888 25 25 21.6888 25 17.6043H24ZM17.6043 0V1C20.5843 1 23 3.41573 23 6.39569H24H25C25 2.31116 21.6888 -1 17.6043 -1V0ZM6.39569 0V-1C2.31116 -1 -1 2.31116 -1 6.39569H0H1C1 3.41573 3.41573 1 6.39569 1V0Z" fill="#0B1228" fill-opacity="0.14" mask="url(#path-1-inside-1_237_8304)"/>
<path d="M11.4052 6.15142L6.05723 8.36436C5.75982 8.48744 5.7629 8.90987 6.06217 9.0285L11.4326 11.1582C11.9045 11.3453 12.4299 11.3453 12.9018 11.1582L18.2722 9.0285C18.5714 8.90987 18.5746 8.48744 18.2771 8.36436L12.9292 6.15142C12.4412 5.94953 11.8931 5.94953 11.4052 6.15142Z" fill="#FFBF00"/>
<path d="M12.6426 12.3211V17.6413C12.6426 17.8944 12.8977 18.0676 13.133 17.9744L19.1172 15.6516C19.2538 15.5974 19.3434 15.4654 19.3434 15.3185V9.9983C19.3434 9.74525 19.0883 9.57198 18.8531 9.66522L12.8688 11.988C12.7323 12.0422 12.6426 12.1742 12.6426 12.3211Z" fill="#26B5F8"/>
<path d="M11.2463 12.5955L9.47032 13.453L9.28999 13.5402L5.54097 15.3365C5.30332 15.4512 5 15.278 5 15.014V10.0206C5 9.92504 5.04897 9.84258 5.11465 9.78047C5.14205 9.75298 5.17311 9.73036 5.20538 9.71244C5.29497 9.65869 5.42276 9.64434 5.5314 9.68731L11.2165 11.9398C11.5054 12.0545 11.5282 12.4594 11.2463 12.5955Z" fill="#ED3049"/>
<path d="M11.2469 12.5955L9.4709 13.453L5.11523 9.78047C5.14264 9.75298 5.17369 9.73036 5.20596 9.71244C5.29556 9.65869 5.42334 9.64434 5.53199 9.68731L11.2171 11.9398C11.506 12.0545 11.5287 12.4594 11.2469 12.5955Z" fill="black" fill-opacity="0.25"/>
</svg>
