<svg width="32" height="32" viewBox="0 0 32 32" fill="none" xmlns="http://www.w3.org/2000/svg">
<mask id="path-1-inside-1_237_8298" fill="white">
<path d="M0 8C0 3.58172 3.58172 0 8 0H24C28.4183 0 32 3.58172 32 8V24C32 28.4183 28.4183 32 24 32H8C3.58172 32 0 28.4183 0 24V8Z"/>
</mask>
<path d="M0 8C0 3.58172 3.58172 0 8 0H24C28.4183 0 32 3.58172 32 8V24C32 28.4183 28.4183 32 24 32H8C3.58172 32 0 28.4183 0 24V8Z" fill="white"/>
<path d="M8 0V1H24V0V-1H8V0ZM32 8H31V24H32H33V8H32ZM24 32V31H8V32V33H24V32ZM0 24H1V8H0H-1V24H0ZM8 32V31C4.13401 31 1 27.866 1 24H0H-1C-1 28.9706 3.02944 33 8 33V32ZM32 24H31C31 27.866 27.866 31 24 31V32V33C28.9706 33 33 28.9706 33 24H32ZM24 0V1C27.866 1 31 4.13401 31 8H32H33C33 3.02944 28.9706 -1 24 -1V0ZM8 0V-1C3.02944 -1 -1 3.02944 -1 8H0H1C1 4.13401 4.13401 1 8 1V0Z" fill="#0B1228" fill-opacity="0.14" mask="url(#path-1-inside-1_237_8298)"/>
<path d="M15.0374 8.19001L8.32651 10.9669C7.95332 11.1213 7.95718 11.6514 8.33272 11.8003L15.0717 14.4726C15.6638 14.7075 16.3232 14.7075 16.9153 14.4726L23.6543 11.8003C24.0297 11.6514 24.0337 11.1213 23.6604 10.9669L16.9496 8.19001C16.3374 7.93666 15.6496 7.93666 15.0374 8.19001Z" fill="#FFBF00"/>
<path d="M16.5898 15.9322V22.6081C16.5898 22.9257 16.91 23.1431 17.2052 23.0261L24.7144 20.1114C24.8859 20.0434 24.9983 19.8778 24.9983 19.6934V13.0174C24.9983 12.6999 24.6781 12.4825 24.383 12.5995L16.8737 15.5142C16.7024 15.5822 16.5898 15.7478 16.5898 15.9322Z" fill="#26B5F8"/>
<path d="M14.8381 16.2766L12.6095 17.3527L12.3832 17.4621L7.67883 19.7162C7.38062 19.86 7 19.6427 7 19.3114V13.0455C7 12.9256 7.06145 12.8222 7.14386 12.7442C7.17825 12.7097 7.21722 12.6813 7.25772 12.6589C7.37014 12.5914 7.53049 12.5734 7.66682 12.6273L14.8006 15.4538C15.1633 15.5977 15.1917 16.1058 14.8381 16.2766Z" fill="#ED3049"/>
<path d="M14.8368 16.2766L12.6082 17.3527L7.14258 12.7442C7.17697 12.7097 7.21593 12.6813 7.25643 12.6589C7.36885 12.5914 7.5292 12.5734 7.66554 12.6273L14.7994 15.4538C15.162 15.5977 15.1905 16.1058 14.8368 16.2766Z" fill="black" fill-opacity="0.25"/>
</svg>
