<svg width="96" height="96" viewBox="0 0 96 96" fill="none" xmlns="http://www.w3.org/2000/svg">
<path d="M10.0192 47.8895C10.0107 54.5576 11.7664 61.1075 15.1173 66.8725H80.7178C84.0519 61.1075 85.8075 54.566 85.8075 47.9064C85.8075 41.2467 84.0519 34.7053 80.7178 28.9403H15.1089C11.7664 34.6968 10.0107 41.2383 10.0107 47.8979L10.0192 47.8895Z" fill="#FCA700"/>
<path d="M47.9091 85.7793H85.799V66.8555H80.7093C77.3837 72.612 72.5979 77.3894 66.8414 80.715C61.0849 84.0406 54.5518 85.7878 47.9006 85.7793H47.9091Z" fill="#1868DB"/>
<path d="M15.1175 66.8555H10.0024V85.7793H47.9093C41.2665 85.7793 34.7335 84.0321 28.977 80.715C23.2205 77.3894 18.4346 72.612 15.109 66.8555H15.1175Z" fill="#1868DB"/>
<path d="M47.9091 85.7793C54.5604 85.7793 61.085 84.0321 66.8499 80.715C72.6064 77.3894 77.3922 72.612 80.7178 66.8555H15.1089C18.4345 72.612 23.2119 77.3894 28.9768 80.715C34.7333 84.0406 41.2664 85.7878 47.9091 85.7793Z" fill="#101214"/>
<path d="M47.9093 10H10.0024V28.9239H15.1175C18.4431 23.1674 23.2205 18.39 28.9854 15.0644C34.7419 11.7388 41.275 9.99159 47.9177 10H47.9093Z" fill="#1868DB"/>
<path d="M85.7994 10H47.9094C54.5606 10 61.0852 11.7472 66.8502 15.0644C72.6067 18.39 77.3925 23.1674 80.7181 28.9239H85.8078V10H85.7994Z" fill="#1868DB"/>
<path d="M47.9091 10C41.2664 10 34.7333 11.7472 28.9768 15.0644C23.2203 18.39 18.4345 23.1674 15.1089 28.9239H80.7094C77.3838 23.1674 72.598 18.39 66.8415 15.0644C61.085 11.7388 54.5519 9.99159 47.9007 10H47.9091Z" fill="#101214"/>
<path d="M36.0303 35.71C35.2903 35.87 35.5903 36.96 36.0803 37.06C36.9503 37.2 37.8803 37.28 39.0803 37.27C40.4303 37.2 40.7703 36.97 41.6803 36.99C43.2303 36.98 45.8503 37.27 46.4803 37.35C46.5703 37.36 46.6703 37.36 46.7603 37.35C47.4303 37.3 50.3603 37.12 52.8803 37.19C54.6603 37.19 55.7603 37.18 56.3403 37.18C57.7003 37.17 58.7203 37.05 59.7103 36.84C60.2303 36.73 60.2903 35.76 59.7103 35.64C58.7103 35.43 57.6903 35.31 56.3303 35.31C55.8003 35.31 54.7003 35.04 53.1403 35C52.8903 35 52.6303 35.01 52.3803 35.05C50.2103 35.42 47.4003 35.33 47.4003 35.33C47.4003 35.33 43.2003 35.35 41.4203 35.36C40.0803 35.38 39.4403 35.38 39.0503 35.39C37.8503 35.41 36.9203 35.51 36.0303 35.7V35.71Z" fill="#101214"/>
<path d="M36.0303 59.71C35.2903 59.87 35.5903 60.96 36.0803 61.06C36.9503 61.2 37.8803 61.28 39.0803 61.27C40.4303 61.2 40.7703 60.97 41.6803 60.99C43.2303 60.98 45.8503 61.27 46.4803 61.35C46.5703 61.36 46.6703 61.36 46.7603 61.35C47.4303 61.3 50.3603 61.12 52.8803 61.19C54.6603 61.19 55.7603 61.18 56.3403 61.18C57.7003 61.17 58.7203 61.05 59.7103 60.84C60.2303 60.73 60.2903 59.76 59.7103 59.64C58.7103 59.43 57.6903 59.31 56.3303 59.31C55.8003 59.31 54.7003 59.04 53.1403 59C52.8903 59 52.6303 59.01 52.3803 59.05C50.2103 59.42 47.4003 59.33 47.4003 59.33C47.4003 59.33 43.2003 59.35 41.4203 59.36C40.0803 59.38 39.4403 59.38 39.0503 59.39C37.8503 59.41 36.9203 59.51 36.0303 59.7V59.71Z" fill="#101214"/>
<path d="M47.3204 59.2914C47.4804 59.9409 48.5804 59.7553 48.6704 59.2728C48.8104 58.4563 48.8904 57.5964 48.8804 56.4891C48.8104 55.2333 48.5804 54.924 48.6004 54.0766C48.5904 52.6414 48.8804 50.2165 48.9604 49.635C48.9704 49.5484 48.9704 49.4618 48.9604 49.3752C48.9104 48.7566 48.7304 46.041 48.8004 43.7088C48.8004 42.0572 48.7904 41.0365 48.7904 40.5045C48.7804 39.2425 48.6604 38.3023 48.4504 37.3806C48.3404 36.8919 47.3704 36.8548 47.2504 37.3806C47.0404 38.3085 46.9204 39.2487 46.9204 40.5107C46.9204 40.9994 46.6504 42.0201 46.6104 43.4614C46.6104 43.6965 46.6204 43.9315 46.6604 44.1604C47.0304 46.1709 46.9404 48.7752 46.9404 48.7752C46.9404 48.7752 46.9604 52.6662 46.9704 54.3116C46.9904 55.5488 46.9904 56.1427 47.0004 56.5077C47.0204 57.615 47.1204 58.4748 47.3104 59.2975L47.3204 59.2914Z" fill="#101214"/>
</svg>
