<svg width="96" height="96" viewBox="0 0 96 96" fill="none" xmlns="http://www.w3.org/2000/svg">
<path d="M10.0192 47.8895C10.0107 54.5576 11.7664 61.1075 15.1173 66.8725H80.7178C84.0519 61.1075 85.8075 54.566 85.8075 47.9064C85.8075 41.2467 84.0519 34.7053 80.7178 28.9403H15.1089C11.7664 34.6968 10.0107 41.2383 10.0107 47.8979L10.0192 47.8895Z" fill="#FCA700"/>
<path d="M47.9091 85.7793H85.799V66.8555H80.7093C77.3837 72.612 72.5979 77.3894 66.8414 80.715C61.0849 84.0406 54.5518 85.7878 47.9006 85.7793H47.9091Z" fill="#1868DB"/>
<path d="M15.1175 66.8555H10.0024V85.7793H47.9093C41.2665 85.7793 34.7335 84.0321 28.977 80.715C23.2205 77.3894 18.4346 72.612 15.109 66.8555H15.1175Z" fill="#1868DB"/>
<path d="M47.9091 85.7793C54.5604 85.7793 61.085 84.0321 66.8499 80.715C72.6064 77.3894 77.3922 72.612 80.7178 66.8555H15.1089C18.4345 72.612 23.2119 77.3894 28.9768 80.715C34.7333 84.0406 41.2664 85.7878 47.9091 85.7793Z" fill="#101214"/>
<path d="M47.9093 10H10.0024V28.9239H15.1175C18.4431 23.1674 23.2205 18.39 28.9854 15.0644C34.7419 11.7388 41.275 9.99159 47.9177 10H47.9093Z" fill="#1868DB"/>
<path d="M85.7994 10H47.9094C54.5606 10 61.0852 11.7472 66.8502 15.0644C72.6067 18.39 77.3925 23.1674 80.7181 28.9239H85.8078V10H85.7994Z" fill="#1868DB"/>
<path d="M47.9091 10C41.2664 10 34.7333 11.7472 28.9768 15.0644C23.2203 18.39 18.4345 23.1674 15.1089 28.9239H80.7094C77.3838 23.1674 72.598 18.39 66.8415 15.0644C61.085 11.7388 54.5519 9.99159 47.9007 10H47.9091Z" fill="#101214"/>
</svg>
