<svg width="96" height="96" viewBox="0 0 96 96" fill="none" xmlns="http://www.w3.org/2000/svg">
<path d="M21.1 7L25.74 15.47L34.21 20.11L25.74 24.74L21.1 33.21L16.47 24.74L8 20.11L16.47 15.47L21.1 7Z" fill="#FCA700"/>
<path d="M26.9599 62.66L31.5999 71.14L40.0699 75.77L31.5999 80.4L26.9599 88.87L22.3299 80.4L13.8599 75.77L22.3299 71.14L26.9599 62.66Z" fill="#FCA700"/>
<path d="M75.1098 36.55L79.7498 45.0201L88.2198 49.6501L79.7498 54.28L75.1098 62.7501L70.4798 54.28L62.0098 49.6501L70.4798 45.0201L75.1098 36.55Z" fill="#FCA700"/>
<path d="M16.7898 54.83C21.1998 54.83 24.7798 51.25 24.7798 46.84C24.7798 42.43 21.1998 38.85 16.7898 38.85C12.3798 38.85 8.7998 42.43 8.7998 46.84C8.7998 51.25 12.3798 54.83 16.7898 54.83Z" fill="#BF63F3"/>
<path d="M66.2698 25.2999C70.6798 25.2999 74.2598 21.7199 74.2598 17.3099C74.2598 12.8999 70.6798 9.31995 66.2698 9.31995C61.8598 9.31995 58.2798 12.8999 58.2798 17.3099C58.2798 21.7199 61.8598 25.2999 66.2698 25.2999Z" fill="#BF63F3"/>
<path d="M71.78 83.75C76.19 83.75 79.77 80.17 79.77 75.76C79.77 71.35 76.19 67.77 71.78 67.77C67.37 67.77 63.79 71.35 63.79 75.76C63.79 80.17 67.37 83.75 71.78 83.75Z" fill="#BF63F3"/>
<path d="M49.4202 57.64C53.8302 57.64 57.4102 54.06 57.4102 49.65C57.4102 45.24 53.8302 41.66 49.4202 41.66C45.0102 41.66 41.4302 45.24 41.4302 49.65C41.4302 54.06 45.0102 57.64 49.4202 57.64Z" fill="#82B536"/>
<path d="M69.8 28.39C69.64 28.22 68.55 28.46 68.48 28.68C68.38 29 68.36 29.31 68.44 29.7C68.59 30.12 68.84 30.18 68.88 30.47C68.99 30.96 68.88 31.86 68.84 32.08C68.84 32.11 68.84 32.14 68.85 32.17C68.94 32.37 69.31 33.27 69.41 34.09C69.54 34.66 69.62 35.01 69.66 35.19C69.76 35.62 69.95 35.92 70.23 36.19C70.38 36.34 71.33 36.13 71.4 35.93C71.54 35.57 71.58 35.22 71.49 34.78C71.45 34.61 71.64 34.2 71.57 33.7C71.56 33.62 71.52 33.54 71.46 33.47C70.95 32.86 70.85 31.94 70.85 31.94C70.85 31.94 70.56 30.6 70.43 30.04C70.33 29.62 70.29 29.41 70.26 29.29C70.17 28.91 70.02 28.63 69.79 28.39H69.8Z" fill="#101214"/>
<path d="M36.1596 17.86C35.9796 18.01 36.1796 19.11 36.3996 19.19C36.7096 19.3 37.0296 19.34 37.4096 19.28C37.8396 19.15 37.8996 18.9 38.1996 18.88C38.6996 18.79 39.5896 18.95 39.8096 18.99C39.8396 18.99 39.8696 18.99 39.8996 18.99C40.1096 18.91 41.0196 18.58 41.8396 18.51C42.4096 18.4 42.7696 18.34 42.9496 18.31C43.3896 18.22 43.6896 18.05 43.9696 17.79C44.1296 17.64 43.9596 16.69 43.7596 16.61C43.3996 16.46 43.0596 16.4 42.6196 16.47C42.4496 16.5 42.0496 16.3 41.5396 16.34C41.4596 16.34 41.3796 16.38 41.3096 16.44C40.6796 16.92 39.7596 16.98 39.7596 16.98C39.7596 16.98 38.4096 17.22 37.8396 17.32C37.4096 17.4 37.2096 17.44 37.0796 17.46C36.6996 17.54 36.4096 17.68 36.1596 17.89V17.86Z" fill="#101214"/>
<path d="M50.9095 15.23C50.7595 15.38 50.9594 16.47 51.1494 16.56C51.4194 16.68 51.6894 16.72 52.0194 16.67C52.3794 16.55 52.4295 16.31 52.6895 16.29C53.1095 16.21 53.8795 16.39 54.0695 16.44C54.0995 16.44 54.1194 16.44 54.1494 16.44C54.3194 16.37 55.0895 16.06 55.7995 16.01C56.2895 15.92 56.5894 15.86 56.7394 15.84C57.1094 15.77 57.3695 15.6 57.5995 15.35C57.7295 15.21 57.5595 14.25 57.3895 14.16C57.0795 14 56.7795 13.94 56.4095 13.99C56.2695 14.01 55.9194 13.81 55.4894 13.84C55.4194 13.84 55.3494 13.88 55.2894 13.93C54.7594 14.39 53.9795 14.43 53.9795 14.43C53.9795 14.43 52.8295 14.63 52.3495 14.71C51.9895 14.78 51.8094 14.81 51.6994 14.83C51.3794 14.9 51.1394 15.03 50.9294 15.23H50.9095Z" fill="#101214"/>
<path d="M43.1301 42.75C43.3501 42.84 44.2301 42.16 44.2001 41.93C44.1601 41.6 44.0401 41.31 43.8101 40.99C43.5001 40.67 43.2501 40.72 43.0901 40.47C42.7801 40.07 42.5101 39.2 42.4501 38.99C42.4501 38.96 42.4201 38.93 42.4001 38.91C42.2301 38.76 41.5201 38.11 41.0801 37.41C40.7201 36.95 40.5001 36.67 40.3901 36.52C40.1101 36.17 39.8201 35.98 39.4601 35.85C39.2601 35.78 38.4901 36.37 38.5001 36.58C38.5301 36.97 38.6401 37.3 38.9001 37.66C39.0001 37.8 39.0101 38.24 39.2801 38.68C39.3201 38.75 39.3901 38.8 39.4701 38.84C40.1901 39.18 40.6701 39.97 40.6701 39.97C40.6701 39.97 41.5001 41.06 41.8501 41.52C42.1201 41.86 42.2501 42.03 42.3201 42.13C42.5601 42.43 42.8201 42.62 43.1201 42.75H43.1301Z" fill="#101214"/>
<path d="M34.01 30.8399C34.23 30.9299 35.11 30.2499 35.08 30.0199C35.04 29.6899 34.92 29.3999 34.69 29.0799C34.38 28.7599 34.13 28.8099 33.97 28.5599C33.66 28.1599 33.39 27.2899 33.33 27.0799C33.33 27.0499 33.3 27.0199 33.28 26.9999C33.11 26.8499 32.4 26.1999 31.96 25.4999C31.6 25.0399 31.38 24.7599 31.27 24.6099C30.99 24.2599 30.7 24.0699 30.34 23.9399C30.14 23.8699 29.37 24.4599 29.38 24.6699C29.41 25.0599 29.52 25.3899 29.78 25.7499C29.88 25.8899 29.89 26.3299 30.16 26.7699C30.2 26.8399 30.27 26.8899 30.35 26.9299C31.07 27.2699 31.55 28.0599 31.55 28.0599C31.55 28.0599 32.38 29.1499 32.73 29.6099C33 29.9499 33.13 30.1199 33.2 30.2199C33.44 30.5299 33.7 30.7099 34 30.8399H34.01Z" fill="#101214"/>
<path d="M68.1599 74.92C68.3799 75.01 69.2599 74.33 69.2299 74.1C69.1899 73.77 69.0699 73.48 68.8399 73.16C68.5299 72.84 68.2799 72.89 68.1199 72.64C67.8099 72.24 67.5399 71.37 67.4799 71.16C67.4799 71.13 67.4499 71.1 67.4299 71.08C67.2599 70.93 66.5499 70.28 66.1099 69.58C65.7499 69.12 65.5299 68.84 65.4199 68.69C65.1399 68.34 64.8499 68.15 64.4899 68.02C64.2899 67.95 63.5199 68.54 63.5299 68.75C63.5599 69.14 63.6699 69.47 63.9299 69.83C64.0299 69.97 64.0399 70.41 64.3099 70.85C64.3499 70.92 64.4199 70.97 64.4999 71.01C65.2199 71.35 65.6999 72.14 65.6999 72.14C65.6999 72.14 66.5299 73.23 66.8799 73.69C67.1499 74.03 67.2799 74.2 67.3499 74.3C67.5899 74.6 67.8499 74.79 68.1499 74.92H68.1599Z" fill="#101214"/>
<path d="M59.05 63.03C59.25 63.1 60.14 62.42 60.12 62.21C60.1 61.91 60 61.64 59.8 61.36C59.52 61.08 59.28 61.15 59.14 60.92C58.87 60.57 58.66 59.78 58.61 59.59C58.61 59.56 58.59 59.54 58.57 59.52C58.42 59.39 57.77 58.83 57.39 58.2C57.08 57.79 56.88 57.54 56.78 57.41C56.53 57.1 56.27 56.94 55.92 56.84C55.73 56.79 54.96 57.38 54.96 57.57C54.96 57.93 55.05 58.23 55.29 58.55C55.38 58.67 55.36 59.09 55.6 59.47C55.64 59.53 55.7 59.58 55.77 59.61C56.44 59.89 56.85 60.59 56.85 60.59C56.85 60.59 57.58 61.55 57.89 61.96C58.13 62.26 58.24 62.41 58.31 62.5C58.53 62.77 58.76 62.93 59.05 63.03Z" fill="#101214"/>
<path d="M37.4898 78.72C37.2898 78.84 37.2898 79.95 37.4898 80.07C37.7798 80.23 38.0798 80.32 38.4698 80.33C38.9098 80.28 39.0198 80.04 39.3198 80.07C39.8298 80.07 40.6798 80.37 40.8898 80.45C40.9198 80.46 40.9498 80.46 40.9798 80.45C41.1998 80.41 42.1498 80.23 42.9798 80.31C43.5598 80.31 43.9198 80.3 44.1098 80.3C44.5498 80.29 44.8798 80.17 45.2098 79.96C45.3898 79.84 45.3798 78.87 45.2098 78.76C44.8798 78.55 44.5498 78.44 44.1098 78.43C43.9398 78.43 43.5798 78.16 43.0698 78.12C42.9898 78.12 42.8998 78.13 42.8198 78.17C42.1198 78.54 41.1998 78.44 41.1998 78.44C41.1998 78.44 39.8298 78.44 39.2498 78.44C38.8098 78.44 38.6098 78.44 38.4798 78.44C38.0898 78.44 37.7898 78.54 37.4998 78.71L37.4898 78.72Z" fill="#101214"/>
<path d="M52.4898 78.64C52.2898 78.76 52.2898 79.87 52.4898 79.99C52.7798 80.15 53.0798 80.24 53.4698 80.25C53.9098 80.2 54.0198 79.96 54.3198 79.99C54.8298 79.99 55.6798 80.29 55.8898 80.37C55.9198 80.38 55.9498 80.38 55.9798 80.37C56.1998 80.33 57.1498 80.15 57.9798 80.23C58.5598 80.23 58.9198 80.22 59.1098 80.22C59.5498 80.21 59.8798 80.09 60.2098 79.88C60.3898 79.76 60.3798 78.79 60.2098 78.68C59.8798 78.47 59.5498 78.36 59.1098 78.35C58.9398 78.35 58.5798 78.08 58.0698 78.04C57.9898 78.04 57.8998 78.05 57.8198 78.09C57.1198 78.46 56.1998 78.36 56.1998 78.36C56.1998 78.36 54.8298 78.36 54.2498 78.36C53.8098 78.36 53.6098 78.36 53.4798 78.36C53.0898 78.36 52.7898 78.46 52.4998 78.63L52.4898 78.64Z" fill="#101214"/>
<path d="M19.6098 57.17C19.4498 57 18.3598 57.26 18.2998 57.48C18.2098 57.8 18.1898 58.11 18.2698 58.5C18.4198 58.92 18.6698 58.97 18.7198 59.27C18.8398 59.76 18.7298 60.66 18.6998 60.88C18.6998 60.91 18.6998 60.94 18.7098 60.97C18.7998 61.17 19.1898 62.06 19.2998 62.88C19.4398 63.44 19.5198 63.79 19.5698 63.98C19.6798 64.41 19.8698 64.71 20.1498 64.97C20.2998 65.12 21.2498 64.89 21.3198 64.69C21.4498 64.32 21.4898 63.98 21.3898 63.54C21.3498 63.37 21.5298 62.96 21.4598 62.46C21.4498 62.38 21.4098 62.3 21.3498 62.23C20.8298 61.63 20.7198 60.71 20.7198 60.71C20.7198 60.71 20.4098 59.38 20.2798 58.81C20.1798 58.39 20.1298 58.18 20.0998 58.06C19.9998 57.68 19.8498 57.41 19.6198 57.17H19.6098Z" fill="#101214"/>
</svg>
