<svg width="96" height="96" viewBox="0 0 96 96" fill="none" xmlns="http://www.w3.org/2000/svg">
<path d="M21.1 7L25.74 15.47L34.21 20.11L25.74 24.74L21.1 33.21L16.47 24.74L8 20.11L16.47 15.47L21.1 7Z" fill="#FCA700"/>
<path d="M26.9599 62.66L31.5999 71.14L40.0699 75.77L31.5999 80.4L26.9599 88.87L22.3299 80.4L13.8599 75.77L22.3299 71.14L26.9599 62.66Z" fill="#FCA700"/>
<path d="M75.1098 36.55L79.7498 45.0201L88.2198 49.6501L79.7498 54.28L75.1098 62.7501L70.4798 54.28L62.0098 49.6501L70.4798 45.0201L75.1098 36.55Z" fill="#FCA700"/>
<path d="M16.7898 54.83C21.1998 54.83 24.7798 51.25 24.7798 46.84C24.7798 42.43 21.1998 38.85 16.7898 38.85C12.3798 38.85 8.7998 42.43 8.7998 46.84C8.7998 51.25 12.3798 54.83 16.7898 54.83Z" fill="#BF63F3"/>
<path d="M66.2698 25.2999C70.6798 25.2999 74.2598 21.7199 74.2598 17.3099C74.2598 12.8999 70.6798 9.31995 66.2698 9.31995C61.8598 9.31995 58.2798 12.8999 58.2798 17.3099C58.2798 21.7199 61.8598 25.2999 66.2698 25.2999Z" fill="#BF63F3"/>
<path d="M71.78 83.75C76.19 83.75 79.77 80.17 79.77 75.76C79.77 71.35 76.19 67.77 71.78 67.77C67.37 67.77 63.79 71.35 63.79 75.76C63.79 80.17 67.37 83.75 71.78 83.75Z" fill="#BF63F3"/>
<path d="M49.4202 57.64C53.8302 57.64 57.4102 54.06 57.4102 49.65C57.4102 45.24 53.8302 41.66 49.4202 41.66C45.0102 41.66 41.4302 45.24 41.4302 49.65C41.4302 54.06 45.0102 57.64 49.4202 57.64Z" fill="#82B536"/>
</svg>
