<svg width="96" height="96" viewBox="0 0 96 96" fill="none" xmlns="http://www.w3.org/2000/svg">
<path d="M28.48 65.3306C28.48 68.4106 29 71.0306 29.89 73.2706C31.88 78.2606 35.84 81.2906 40.69 82.7106C42.95 83.3706 45.4 83.6806 47.93 83.6806C50.59 83.6806 53.14 83.3606 55.47 82.6906C60.38 81.2606 64.3 78.2406 66.28 73.2806C67.17 71.0406 67.68 68.4206 67.68 65.3406C67.68 64.6606 67.66 52.9906 67.6 52.3506H28.56C28.5 52.9906 28.48 64.6606 28.48 65.3406V65.3306Z" fill="#1868DB"/>
<path d="M16 66.2706C16 56.7106 21.48 56.2706 35.53 56.2706V61.9706C26.18 61.9706 21.81 61.5606 21.81 66.2706C21.81 70.9806 25.76 70.5106 35.53 70.5106V76.2106C21.48 76.2106 16 75.6706 16 66.2806V66.2706Z" fill="#1868DB"/>
<path d="M35.52 61.9706V56.2706C32.89 56.2706 30.56 56.2906 28.51 56.3706C28.51 58.1906 28.49 60.2906 28.49 62.0106C30.41 61.9406 32.74 61.9706 35.52 61.9706ZM29.03 70.4606C29.25 71.4506 29.54 72.3906 29.89 73.2706C30.32 74.3306 30.83 75.2906 31.42 76.1806C32.7 76.2006 34.06 76.2106 35.52 76.2106V70.5106C32.97 70.5106 30.81 70.5306 29.03 70.4606Z" fill="#09326C"/>
<path d="M80.3699 35.2606C80.3699 39.9906 78.7299 43.5406 75.9599 46.0506C74.6199 47.2606 73.0099 48.2206 71.1999 48.9506C68.2799 50.1506 64.8299 50.7506 61.0499 50.8106L50.8299 60.7706V49.4306C50.3099 49.2706 49.8199 49.0806 49.3299 48.8906C47.5799 48.1506 46.0099 47.2206 44.6999 46.0506C41.8499 43.5406 40.1599 39.9906 40.1599 35.2606C40.1599 30.5306 41.9099 26.7406 44.8299 24.1706C46.1199 23.0406 47.6399 22.1206 49.3399 21.4006C52.5099 20.0506 56.3099 19.3906 60.4299 19.3906C64.5499 19.3906 68.1399 20.0206 71.2199 21.3206C72.9699 22.0506 74.5399 22.9906 75.8499 24.1706C78.7099 26.7406 80.3899 30.4106 80.3899 35.2606H80.3699Z" fill="#FCA700"/>
<path d="M59.4701 52.3406L50.8201 60.7706V52.3406H59.4701Z" fill="#09326C"/>
</svg>
