<svg width="16" height="16" viewBox="0 0 16 16" fill="none" xmlns="http://www.w3.org/2000/svg">
<g clip-path="url(#clip0_237_6498)">
<path d="M6.0997 5.99991L6.09986 5.99936L9.45884 8.01135L11.4604 7.16906C11.8671 6.99323 12.3057 6.90306 12.7488 6.9035C12.8226 6.9035 12.8956 6.90685 12.9682 6.91169C12.7275 5.97336 12.2195 5.12511 11.5059 4.47005C10.7923 3.81498 9.90375 3.38128 8.94829 3.22167C7.99282 3.06206 7.01157 3.1834 6.12377 3.57094C5.23596 3.95848 4.47984 4.59555 3.94727 5.40472C3.96438 5.4045 3.98123 5.40343 3.99838 5.40343C4.74074 5.40242 5.46859 5.60903 6.0997 5.99991Z" fill="#0364B8"/>
<path d="M6.10167 5.99926L6.10151 5.99981C5.4704 5.60893 4.74255 5.40232 4.00019 5.40332C3.98304 5.40332 3.96616 5.4044 3.94907 5.40461C3.22249 5.41361 2.51209 5.62043 1.89422 6.00284C1.27635 6.38525 0.774362 6.9288 0.442206 7.57508C0.110051 8.22136 -0.039717 8.94594 0.00899698 9.67094C0.057711 10.3959 0.303065 11.094 0.718693 11.69L3.68083 10.4435L4.99761 9.88937L7.92951 8.65558L9.46065 8.01125L6.10167 5.99926Z" fill="#0078D4"/>
<path d="M12.9683 6.91249C12.8957 6.90765 12.8228 6.9043 12.7489 6.9043C12.3058 6.90387 11.8674 6.99437 11.4606 7.1702L9.45898 8.01216L10.0394 8.35981L11.942 9.49942L12.772 9.99663L15.6103 11.6967C15.8682 11.218 16.0019 10.6822 15.999 10.1384C15.9962 9.59455 15.857 9.06015 15.5941 8.58411C15.3312 8.10806 14.9531 7.70558 14.4943 7.41354C14.0356 7.1215 13.5109 6.94922 12.9683 6.91249Z" fill="#1490DF"/>
<path d="M12.7718 9.99619L11.9417 9.49898L10.0392 8.35938L9.45875 8.01172L7.92761 8.65604L4.99571 9.88983L3.67894 10.4439L0.716797 11.6905C1.0849 12.2197 1.57561 12.652 2.14704 12.9504C2.71847 13.2488 3.35363 13.4045 3.99829 13.4042H12.7487C13.3354 13.4043 13.9112 13.2457 14.415 12.945C14.9188 12.6443 15.3318 12.2128 15.6101 11.6963L12.7718 9.99619Z" fill="#28A8EA"/>
</g>
<defs>
<clipPath id="clip0_237_6498">
<rect width="16" height="16" fill="white"/>
</clipPath>
</defs>
</svg>
