<svg width="16" height="16" viewBox="0 0 16 16" fill="none" xmlns="http://www.w3.org/2000/svg">
<mask id="path-1-inside-1_237_6492" fill="white">
<path d="M0 4C0 1.79086 1.79086 0 4 0H12C14.2091 0 16 1.79086 16 4V12C16 14.2091 14.2091 16 12 16H4C1.79086 16 0 14.2091 0 12V4Z"/>
</mask>
<path d="M0 4C0 1.79086 1.79086 0 4 0H12C14.2091 0 16 1.79086 16 4V12C16 14.2091 14.2091 16 12 16H4C1.79086 16 0 14.2091 0 12V4Z" fill="white"/>
<path d="M4 0V1H12V0V-1H4V0ZM16 4H15V12H16H17V4H16ZM12 16V15H4V16V17H12V16ZM0 12H1V4H0H-1V12H0ZM4 16V15C2.34315 15 1 13.6569 1 12H0H-1C-1 14.7614 1.23858 17 4 17V16ZM16 12H15C15 13.6569 13.6569 15 12 15V16V17C14.7614 17 17 14.7614 17 12H16ZM12 0V1C13.6569 1 15 2.34315 15 4H16H17C17 1.23858 14.7614 -1 12 -1V0ZM4 0V-1C1.23858 -1 -1 1.23858 -1 4H0H1C1 2.34315 2.34315 1 4 1V0Z" fill="#0B1228" fill-opacity="0.14" mask="url(#path-1-inside-1_237_6492)"/>
<path d="M6.69458 6.43352L6.69469 6.43314L9.0039 7.81633L10.3799 7.23727C10.6595 7.11639 10.961 7.05441 11.2657 7.05471C11.3164 7.05471 11.3666 7.05701 11.4165 7.06034C11.251 6.41526 10.9018 5.83212 10.4112 5.38177C9.92061 4.93143 9.30976 4.63328 8.65291 4.52355C7.99605 4.41382 7.32147 4.49724 6.71113 4.76366C6.10079 5.03009 5.58097 5.46805 5.21484 6.02434C5.22661 6.02419 5.23819 6.02345 5.24998 6.02345C5.76033 6.02276 6.26071 6.1648 6.69458 6.43352Z" fill="#0364B8"/>
<path d="M6.69473 6.43313L6.69462 6.43351C6.26075 6.16479 5.76037 6.02275 5.25002 6.02344C5.23823 6.02344 5.22663 6.02418 5.21488 6.02433C4.71537 6.03051 4.22699 6.17269 3.80222 6.43559C3.37745 6.69849 3.03235 7.07217 2.804 7.51646C2.57566 7.96076 2.4727 8.45889 2.50619 8.95731C2.53967 9.45573 2.70835 9.9356 2.99408 10.3454L5.03047 9.48841L5.93572 9.10747L7.95132 8.25928L9.00394 7.81632L6.69473 6.43313Z" fill="#0078D4"/>
<path d="M11.4165 7.06032C11.3666 7.05699 11.3164 7.05469 11.2657 7.05469C10.961 7.05439 10.6596 7.11661 10.38 7.23749L9.00391 7.81631L9.40292 8.05531L10.7109 8.83876L11.2815 9.18058L13.2328 10.3494C13.4101 10.0202 13.502 9.65186 13.5 9.27801C13.4981 8.90416 13.4023 8.53678 13.2216 8.20951C13.0409 7.88224 12.7809 7.60555 12.4656 7.40478C12.1502 7.20401 11.7895 7.08557 11.4165 7.06032Z" fill="#1490DF"/>
<path d="M11.2816 9.18067L10.711 8.83886L9.40301 8.05541L9.00399 7.81641L7.95138 8.25936L5.93578 9.10755L5.03053 9.4885L2.99414 10.3454C3.2472 10.7093 3.58455 11.0065 3.97739 11.2116C4.37023 11.4168 4.80689 11.5238 5.25007 11.5236H11.2657C11.6691 11.5237 12.0649 11.4146 12.4113 11.2079C12.7576 11.0012 13.0415 10.7045 13.2329 10.3495L11.2816 9.18067Z" fill="#28A8EA"/>
</svg>
