<svg width="20" height="20" viewBox="0 0 20 20" fill="none" xmlns="http://www.w3.org/2000/svg">
<mask id="path-1-inside-1_237_6486" fill="white">
<path d="M0 5C0 2.23858 2.23858 0 5 0H15C17.7614 0 20 2.23858 20 5V15C20 17.7614 17.7614 20 15 20H5C2.23858 20 0 17.7614 0 15V5Z"/>
</mask>
<path d="M0 5C0 2.23858 2.23858 0 5 0H15C17.7614 0 20 2.23858 20 5V15C20 17.7614 17.7614 20 15 20H5C2.23858 20 0 17.7614 0 15V5Z" fill="white"/>
<path d="M5 0V1H15V0V-1H5V0ZM20 5H19V15H20H21V5H20ZM15 20V19H5V20V21H15V20ZM0 15H1V5H0H-1V15H0ZM5 20V19C2.79086 19 1 17.2091 1 15H0H-1C-1 18.3137 1.68629 21 5 21V20ZM20 15H19C19 17.2091 17.2091 19 15 19V20V21C18.3137 21 21 18.3137 21 15H20ZM15 0V1C17.2091 1 19 2.79086 19 5H20H21C21 1.68629 18.3137 -1 15 -1V0ZM5 0V-1C1.68629 -1 -1 1.68629 -1 5H0H1C1 2.79086 2.79086 1 5 1V0Z" fill="#0B1228" fill-opacity="0.14" mask="url(#path-1-inside-1_237_6486)"/>
<path d="M8.36921 8.0419L8.36934 8.04142L11.2559 9.77041L12.9759 9.04659C13.3254 8.89549 13.7023 8.81801 14.083 8.81838C14.1465 8.81838 14.2092 8.82126 14.2716 8.82542C14.0648 8.01907 13.6282 7.29015 13.015 6.72722C12.4017 6.16429 11.6382 5.7916 10.8171 5.65444C9.99604 5.51728 9.15281 5.62155 8.38989 5.95458C7.62696 6.28761 6.97719 6.83507 6.51953 7.53042C6.53424 7.53023 6.54872 7.52931 6.56345 7.52931C7.20139 7.52845 7.82686 7.70599 8.36921 8.0419Z" fill="#0364B8"/>
<path d="M8.36841 8.04141L8.36828 8.04189C7.82593 7.70598 7.20046 7.52844 6.56252 7.5293C6.54779 7.5293 6.53328 7.53022 6.5186 7.53041C5.89421 7.53814 5.28374 7.71586 4.75278 8.04449C4.22182 8.37311 3.79044 8.84021 3.50501 9.39558C3.21957 9.95096 3.09087 10.5736 3.13273 11.1966C3.17459 11.8197 3.38544 12.4195 3.7426 12.9317L6.28809 11.8605L7.41965 11.3843L9.93915 10.3241L11.2549 9.7704L8.36841 8.04141Z" fill="#0078D4"/>
<path d="M14.2716 8.8254C14.2092 8.82124 14.1465 8.81836 14.083 8.81836C13.7023 8.81799 13.3255 8.89576 12.976 9.04686L11.2559 9.77039L11.7546 10.0691L13.3896 11.0485L14.1029 11.4757L16.542 12.9367C16.7636 12.5253 16.8784 12.0648 16.876 11.5975C16.8736 11.1302 16.7539 10.671 16.528 10.2619C16.3021 9.8528 15.9771 9.50694 15.5829 9.25597C15.1887 9.00501 14.7378 8.85696 14.2716 8.8254Z" fill="#1490DF"/>
<path d="M14.1015 11.4758L13.3882 11.0486L11.7533 10.0693L11.2545 9.77051L9.93873 10.3242L7.41923 11.3844L6.28767 11.8606L3.74219 12.9318C4.05851 13.3866 4.4802 13.7581 4.97125 14.0145C5.4623 14.271 6.00813 14.4047 6.56211 14.4045H14.0817C14.5859 14.4046 15.0807 14.2682 15.5136 14.0098C15.9465 13.7514 16.3014 13.3807 16.5406 12.9368L14.1015 11.4758Z" fill="#28A8EA"/>
</svg>
