<svg width="24" height="24" viewBox="0 0 24 24" fill="none" xmlns="http://www.w3.org/2000/svg">
<mask id="path-1-inside-1_237_6480" fill="white">
<path d="M0 6.39569C0 2.86345 2.86345 0 6.39569 0H17.6043C21.1366 0 24 2.86345 24 6.39569V17.6043C24 21.1366 21.1366 24 17.6043 24H6.39569C2.86345 24 0 21.1366 0 17.6043V6.39569Z"/>
</mask>
<path d="M0 6.39569C0 2.86345 2.86345 0 6.39569 0H17.6043C21.1366 0 24 2.86345 24 6.39569V17.6043C24 21.1366 21.1366 24 17.6043 24H6.39569C2.86345 24 0 21.1366 0 17.6043V6.39569Z" fill="white"/>
<path d="M6.39569 0V1H17.6043V0V-1H6.39569V0ZM24 6.39569H23V17.6043H24H25V6.39569H24ZM17.6043 24V23H6.39569V24V25H17.6043V24ZM0 17.6043H1V6.39569H0H-1V17.6043H0ZM6.39569 24V23C3.41573 23 1 20.5843 1 17.6043H0H-1C-1 21.6888 2.31116 25 6.39569 25V24ZM24 17.6043H23C23 20.5843 20.5843 23 17.6043 23V24V25C21.6888 25 25 21.6888 25 17.6043H24ZM17.6043 0V1C20.5843 1 23 3.41573 23 6.39569H24H25C25 2.31116 21.6888 -1 17.6043 -1V0ZM6.39569 0V-1C2.31116 -1 -1 2.31116 -1 6.39569H0H1C1 3.41573 3.41573 1 6.39569 1V0Z" fill="#0B1228" fill-opacity="0.14" mask="url(#path-1-inside-1_237_6480)"/>
<path d="M10.0419 9.65028L10.042 9.64971L13.5059 11.7245L15.5699 10.8559C15.9893 10.6746 16.4415 10.5816 16.8985 10.5821C16.9746 10.5821 17.0499 10.5855 17.1247 10.5905C16.8766 9.62289 16.3527 8.74817 15.6168 8.07266C14.8809 7.39715 13.9646 6.94992 12.9794 6.78533C11.9941 6.62073 10.9822 6.74586 10.0667 7.1455C9.15118 7.54513 8.37146 8.20208 7.82227 9.0365C7.83991 9.03628 7.85729 9.03517 7.87497 9.03517C8.6405 9.03414 9.39106 9.24719 10.0419 9.65028Z" fill="#0364B8"/>
<path d="M10.0421 9.6497L10.0419 9.65026C9.39112 9.24718 8.64056 9.03412 7.87503 9.03516C7.85734 9.03516 7.83994 9.03627 7.82232 9.03649C7.07306 9.04577 6.34049 9.25904 5.70334 9.65338C5.06618 10.0477 4.54853 10.6082 4.20601 11.2747C3.86349 11.9411 3.70904 12.6883 3.75928 13.436C3.80951 14.1836 4.06252 14.9034 4.49112 15.518L7.54571 14.2326L8.90358 13.6612L11.927 12.3889L13.5059 11.7245L10.0421 9.6497Z" fill="#0078D4"/>
<path d="M17.1247 10.5905C17.0499 10.5855 16.9746 10.582 16.8985 10.582C16.4416 10.5816 15.9894 10.6749 15.57 10.8562L13.5059 11.7245L14.1044 12.083L16.0663 13.2581L16.9223 13.7709L19.8492 15.5241C20.1151 15.0303 20.253 14.4778 20.25 13.917C20.2471 13.3562 20.1035 12.8052 19.8324 12.3143C19.5613 11.8234 19.1714 11.4083 18.6983 11.1072C18.2253 10.806 17.6842 10.6284 17.1247 10.5905Z" fill="#1490DF"/>
<path d="M16.9215 13.771L16.0655 13.2583L14.1035 12.0831L13.505 11.7246L11.9261 12.389L8.90269 13.6613L7.54482 14.2327L4.49023 15.5182C4.86982 16.0639 5.37585 16.5097 5.96511 16.8174C6.55437 17.1251 7.20936 17.2857 7.87414 17.2853H16.8976C17.5027 17.2855 18.0964 17.1219 18.6159 16.8118C19.1355 16.5017 19.5613 16.0568 19.8483 15.5242L16.9215 13.771Z" fill="#28A8EA"/>
</svg>
