<svg width="32" height="32" viewBox="0 0 32 32" fill="none" xmlns="http://www.w3.org/2000/svg">
<mask id="path-1-inside-1_237_6474" fill="white">
<path d="M0 8C0 3.58172 3.58172 0 8 0H24C28.4183 0 32 3.58172 32 8V24C32 28.4183 28.4183 32 24 32H8C3.58172 32 0 28.4183 0 24V8Z"/>
</mask>
<path d="M0 8C0 3.58172 3.58172 0 8 0H24C28.4183 0 32 3.58172 32 8V24C32 28.4183 28.4183 32 24 32H8C3.58172 32 0 28.4183 0 24V8Z" fill="white"/>
<path d="M8 0V1H24V0V-1H8V0ZM32 8H31V24H32H33V8H32ZM24 32V31H8V32V33H24V32ZM0 24H1V8H0H-1V24H0ZM8 32V31C4.13401 31 1 27.866 1 24H0H-1C-1 28.9706 3.02944 33 8 33V32ZM32 24H31C31 27.866 27.866 31 24 31V32V33C28.9706 33 33 28.9706 33 24H32ZM24 0V1C27.866 1 31 4.13401 31 8H32H33C33 3.02944 28.9706 -1 24 -1V0ZM8 0V-1C3.02944 -1 -1 3.02944 -1 8H0H1C1 4.13401 4.13401 1 8 1V0Z" fill="#0B1228" fill-opacity="0.14" mask="url(#path-1-inside-1_237_6474)"/>
<path d="M13.3891 12.867L13.3894 12.8662L18.0077 15.6326L20.7598 14.4745C21.319 14.2327 21.922 14.1088 22.5312 14.1094C22.6327 14.1094 22.733 14.114 22.8329 14.1206C22.502 12.8305 21.8035 11.6642 20.8223 10.7635C19.8411 9.86286 18.6195 9.26656 17.3058 9.0471C15.9921 8.82765 14.6429 8.99448 13.4222 9.52732C12.2016 10.0602 11.1619 10.9361 10.4297 12.0486C10.4532 12.0484 10.4764 12.0469 10.5 12.0469C11.5207 12.0455 12.5214 12.3296 13.3891 12.867Z" fill="#0364B8"/>
<path d="M13.3894 12.8663L13.3892 12.867C12.5214 12.3296 11.5207 12.0455 10.5 12.0469C10.4764 12.0469 10.4532 12.0484 10.4297 12.0487C9.43071 12.061 8.45396 12.3454 7.60443 12.8712C6.75489 13.397 6.0647 14.1443 5.608 15.0329C5.15131 15.9215 4.94539 16.9177 5.01237 17.9146C5.07935 18.9114 5.4167 19.8711 5.98816 20.6907L10.0609 18.9768L11.8714 18.2149L15.9026 16.5185L18.0078 15.6326L13.3894 12.8663Z" fill="#0078D4"/>
<path d="M22.8329 14.1206C22.7331 14.114 22.6328 14.1094 22.5313 14.1094C21.922 14.1088 21.3192 14.2332 20.7599 14.475L18.0078 15.6326L18.8058 16.1106L21.4217 17.6775L22.563 18.3611L26.4655 20.6987C26.8201 20.0404 27.0039 19.3037 27 18.556C26.9961 17.8083 26.8046 17.0735 26.4432 16.419C26.0817 15.7645 25.5618 15.2111 24.9311 14.8096C24.3003 14.408 23.5789 14.1711 22.8329 14.1206Z" fill="#1490DF"/>
<path d="M22.5631 18.3613L21.4218 17.6777L18.8059 16.1108L18.0079 15.6328L15.9027 16.5187L11.8715 18.2151L10.061 18.977L5.98828 20.6909C6.49439 21.4185 7.1691 22.0129 7.95477 22.4232C8.74045 22.8335 9.61375 23.0475 10.5001 23.0471H22.5314C23.338 23.0473 24.1297 22.8291 24.8224 22.4157C25.5151 22.0023 26.0829 21.409 26.4656 20.6989L22.5631 18.3613Z" fill="#28A8EA"/>
</svg>
