<svg width="16" height="16" viewBox="0 0 16 16" fill="none" xmlns="http://www.w3.org/2000/svg">
<g clip-path="url(#clip0_237_7285)">
<path d="M7.56235 11.2283H8.43791V8.84081H10.6401V7.99194H8.43791V5.60449H7.56235V7.99194H5.38672V8.84081H7.56235V11.2283Z" fill="#E8762D"/>
<path d="M3.50244 14.6772H4.24534V12.555H6.20872V11.8919H4.24534V9.74316H3.50244V11.8919H1.53906V12.555H3.50244V14.6772Z" fill="#C72037"/>
<path d="M11.7544 7.01007H12.4973V4.88789H14.4872V4.25124H12.4973V2.10254H11.7544V4.25124H9.79102V4.88789H11.7544V7.01007Z" fill="#5B879B"/>
<path d="M7.69575 16.3487H8.33252V14.8367H9.68566V14.2796H8.33252V12.7676H7.69575V14.2796H6.36914V14.8367H7.69575V16.3487Z" fill="#5C6692"/>
<path d="M3.52897 7.01007H4.21881V4.86137H6.20872V4.25124H4.21881V2.10254H3.52897V4.25124H1.53906V4.86137H3.52897V7.01007Z" fill="#EB9129"/>
<path d="M14.0102 10.1943H14.647V8.70877H16.0001V8.12517H14.647V6.63965H14.0102V8.12517H12.6836V8.70877H14.0102V10.1943Z" fill="#5C6692"/>
<path fill-rule="evenodd" clip-rule="evenodd" d="M11.7544 14.6772H12.4973V12.555H14.4872V11.8919H12.4973V9.74316H11.7544V11.8919H9.79102V12.555H11.7544V14.6772Z" fill="#1F457E"/>
<path d="M9.5781 2.47441V2.02345H8.25149V0.564453H7.77392V2.02345H6.44731V2.47441H7.77392V3.93341H8.25149V2.47441H9.5781ZM1.32661 10.0877H1.80419V8.62872H3.13079V8.17776H1.80419V6.74529H1.32661V8.17776H0V8.65524L1.32661 8.62872V10.0877Z" fill="#7199A6"/>
</g>
<defs>
<clipPath id="clip0_237_7285">
<path d="M0 4C0 1.79086 1.79086 0 4 0H12C14.2091 0 16 1.79086 16 4V12C16 14.2091 14.2091 16 12 16H4C1.79086 16 0 14.2091 0 12V4Z" fill="white"/>
</clipPath>
</defs>
</svg>
