<svg width="16" height="16" viewBox="0 0 16 16" fill="none" xmlns="http://www.w3.org/2000/svg">
<mask id="path-1-inside-1_237_7275" fill="white">
<path d="M0 4C0 1.79086 1.79086 0 4 0H12C14.2091 0 16 1.79086 16 4V12C16 14.2091 14.2091 16 12 16H4C1.79086 16 0 14.2091 0 12V4Z"/>
</mask>
<path d="M0 4C0 1.79086 1.79086 0 4 0H12C14.2091 0 16 1.79086 16 4V12C16 14.2091 14.2091 16 12 16H4C1.79086 16 0 14.2091 0 12V4Z" fill="white"/>
<path d="M4 0V1H12V0V-1H4V0ZM16 4H15V12H16H17V4H16ZM12 16V15H4V16V17H12V16ZM0 12H1V4H0H-1V12H0ZM4 16V15C2.34315 15 1 13.6569 1 12H0H-1C-1 14.7614 1.23858 17 4 17V16ZM16 12H15C15 13.6569 13.6569 15 12 15V16V17C14.7614 17 17 14.7614 17 12H16ZM12 0V1C13.6569 1 15 2.34315 15 4H16H17C17 1.23858 14.7614 -1 12 -1V0ZM4 0V-1C1.23858 -1 -1 1.23858 -1 4H0H1C1 2.34315 2.34315 1 4 1V0Z" fill="#0B1228" fill-opacity="0.14" mask="url(#path-1-inside-1_237_7275)"/>
<path d="M7.72706 9.73287H8.27432V8.24061H9.65077V7.71003H8.27432V6.21777H7.72706V7.71003H6.36719V8.24061H7.72706V9.73287Z" fill="#E8762D"/>
<path d="M5.19009 11.8887H5.65443V10.5622H6.88163V10.1477H5.65443V8.80469H5.19009V10.1477H3.96289V10.5622H5.19009V11.8887Z" fill="#C72037"/>
<path d="M10.3463 7.09672H10.8107V5.77027H12.0545V5.37233H10.8107V4.0293H10.3463V5.37233H9.11914V5.77027H10.3463V7.09672Z" fill="#5B879B"/>
<path d="M7.80966 12.9327H8.20767V11.9876H9.05344V11.6394H8.20767V10.6943H7.80966V11.6394H6.98047V11.9876H7.80966V12.9327Z" fill="#5C6692"/>
<path d="M5.20667 7.09672H5.63785V5.75368H6.88163V5.37233H5.63785V4.0293H5.20667V5.37233H3.96289V5.75368H5.20667V7.09672Z" fill="#EB9129"/>
<path d="M11.7569 9.08607H12.1549V8.15755H13.0007V7.79277H12.1549V6.86426H11.7569V7.79277H10.9277V8.15755H11.7569V9.08607Z" fill="#5C6692"/>
<path fill-rule="evenodd" clip-rule="evenodd" d="M10.3463 11.8887H10.8107V10.5622H12.0545V10.1477H10.8107V8.80469H10.3463V10.1477H9.11914V10.5622H10.3463V11.8887Z" fill="#1F457E"/>
<path d="M8.98673 4.26119V3.97932H8.15755V3.06738H7.85904V3.97932H7.02985V4.26119H7.85904V5.17313H8.15755V4.26119H8.98673ZM3.82919 9.01984H4.1277V8.1079H4.95688V7.82603H4.1277V6.93068H3.82919V7.82603H3V8.12448L3.82919 8.1079V9.01984Z" fill="#7199A6"/>
</svg>
