<svg width="20" height="20" viewBox="0 0 20 20" fill="none" xmlns="http://www.w3.org/2000/svg">
<mask id="path-1-inside-1_237_7265" fill="white">
<path d="M0 5C0 2.23858 2.23858 0 5 0H15C17.7614 0 20 2.23858 20 5V15C20 17.7614 17.7614 20 15 20H5C2.23858 20 0 17.7614 0 15V5Z"/>
</mask>
<path d="M0 5C0 2.23858 2.23858 0 5 0H15C17.7614 0 20 2.23858 20 5V15C20 17.7614 17.7614 20 15 20H5C2.23858 20 0 17.7614 0 15V5Z" fill="white"/>
<path d="M5 0V1H15V0V-1H5V0ZM20 5H19V15H20H21V5H20ZM15 20V19H5V20V21H15V20ZM0 15H1V5H0H-1V15H0ZM5 20V19C2.79086 19 1 17.2091 1 15H0H-1C-1 18.3137 1.68629 21 5 21V20ZM20 15H19C19 17.2091 17.2091 19 15 19V20V21C18.3137 21 21 18.3137 21 15H20ZM15 0V1C17.2091 1 19 2.79086 19 5H20H21C21 1.68629 18.3137 -1 15 -1V0ZM5 0V-1C1.68629 -1 -1 1.68629 -1 5H0H1C1 2.79086 2.79086 1 5 1V0Z" fill="#0B1228" fill-opacity="0.14" mask="url(#path-1-inside-1_237_7265)"/>
<path d="M9.65685 12.1664H10.3409V10.301H12.0615V9.6378H10.3409V7.77246H9.65685V9.6378H7.95703V10.301H9.65685V12.1664Z" fill="#E8762D"/>
<path d="M6.48516 14.8599H7.06558V13.2018H8.59957V12.6837H7.06558V11.0049H6.48516V12.6837H4.95117V13.2018H6.48516V14.8599Z" fill="#C72037"/>
<path d="M12.9344 8.87044H13.5148V7.21236H15.0695V6.71494H13.5148V5.03613H12.9344V6.71494H11.4004V7.21236H12.9344V8.87044Z" fill="#5B879B"/>
<path d="M9.76109 16.1662H10.2586V14.9848H11.3158V14.5495H10.2586V13.3682H9.76109V14.5495H8.72461V14.9848H9.76109V16.1662Z" fill="#5C6692"/>
<path d="M6.50589 8.87044H7.04485V7.19163H8.59957V6.71494H7.04485V5.03613H6.50589V6.71494H4.95117V7.19163H6.50589V8.87044Z" fill="#EB9129"/>
<path d="M14.6947 11.3574H15.1922V10.1967H16.2494V9.74073H15.1922V8.58008H14.6947V9.74073H13.6582V10.1967H14.6947V11.3574Z" fill="#5C6692"/>
<path fill-rule="evenodd" clip-rule="evenodd" d="M12.9344 14.8599H13.5148V13.2018H15.0695V12.6837H13.5148V11.0049H12.9344V12.6837H11.4004V13.2018H12.9344V14.8599Z" fill="#1F457E"/>
<path d="M11.2334 5.32625V4.97391H10.1969V3.83398H9.82375V4.97391H8.78728V5.32625H9.82375V6.46618H10.1969V5.32625H11.2334ZM4.78648 11.2746H5.15961V10.1347H6.19609V9.78234H5.15961V8.66314H4.78648V9.78234H3.75V10.1554L4.78648 10.1347V11.2746Z" fill="#7199A6"/>
</svg>
