<svg width="24" height="24" viewBox="0 0 24 24" fill="none" xmlns="http://www.w3.org/2000/svg">
<mask id="path-1-inside-1_237_7255" fill="white">
<path d="M0 6.39569C0 2.86345 2.86345 0 6.39569 0H17.6043C21.1366 0 24 2.86345 24 6.39569V17.6043C24 21.1366 21.1366 24 17.6043 24H6.39569C2.86345 24 0 21.1366 0 17.6043V6.39569Z"/>
</mask>
<path d="M0 6.39569C0 2.86345 2.86345 0 6.39569 0H17.6043C21.1366 0 24 2.86345 24 6.39569V17.6043C24 21.1366 21.1366 24 17.6043 24H6.39569C2.86345 24 0 21.1366 0 17.6043V6.39569Z" fill="white"/>
<path d="M6.39569 0V1H17.6043V0V-1H6.39569V0ZM24 6.39569H23V17.6043H24H25V6.39569H24ZM17.6043 24V23H6.39569V24V25H17.6043V24ZM0 17.6043H1V6.39569H0H-1V17.6043H0ZM6.39569 24V23C3.41573 23 1 20.5843 1 17.6043H0H-1C-1 21.6888 2.31116 25 6.39569 25V24ZM24 17.6043H23C23 20.5843 20.5843 23 17.6043 23V24V25C21.6888 25 25 21.6888 25 17.6043H24ZM17.6043 0V1C20.5843 1 23 3.41573 23 6.39569H24H25C25 2.31116 21.6888 -1 17.6043 -1V0ZM6.39569 0V-1C2.31116 -1 -1 2.31116 -1 6.39569H0H1C1 3.41573 3.41573 1 6.39569 1V0Z" fill="#0B1228" fill-opacity="0.14" mask="url(#path-1-inside-1_237_7255)"/>
<path d="M11.5906 14.5988H12.4115V12.3604H14.4762V11.5646H12.4115V9.32617H11.5906V11.5646H9.55078V12.3604H11.5906V14.5988Z" fill="#E8762D"/>
<path d="M7.78416 17.8321H8.48067V15.8424H10.3215V15.2206H8.48067V13.2061H7.78416V15.2206H5.94336V15.8424H7.78416V17.8321Z" fill="#C72037"/>
<path d="M15.5205 10.6441H16.217V8.65442H18.0827V8.05752H16.217V6.04297H15.5205V8.05752H13.6797V8.65442H15.5205V10.6441Z" fill="#5B879B"/>
<path d="M11.7145 19.3986H12.3115V17.981H13.5802V17.4587H12.3115V16.041H11.7145V17.4587H10.4707V17.981H11.7145V19.3986Z" fill="#5C6692"/>
<path d="M7.80903 10.6441H8.4558V8.62955H10.3215V8.05752H8.4558V6.04297H7.80903V8.05752H5.94336V8.62955H7.80903V10.6441Z" fill="#EB9129"/>
<path d="M17.6344 13.6286H18.2314V12.2358H19.5001V11.6887H18.2314V10.2959H17.6344V11.6887H16.3906V12.2358H17.6344V13.6286Z" fill="#5C6692"/>
<path fill-rule="evenodd" clip-rule="evenodd" d="M15.5205 17.8321H16.217V15.8424H18.0827V15.2206H16.217V13.2061H15.5205V15.2206H13.6797V15.8424H15.5205V17.8321Z" fill="#1F457E"/>
<path d="M13.4801 6.3913V5.96849H12.2363V4.60059H11.7886V5.96849H10.5448V6.3913H11.7886V7.7592H12.2363V6.3913H13.4801ZM5.74378 13.5293H6.19154V12.1614H7.43532V11.7386H6.19154V10.3955H5.74378V11.7386H4.5V12.1862L5.74378 12.1614V13.5293Z" fill="#7199A6"/>
</svg>
