<svg width="32" height="32" viewBox="0 0 32 32" fill="none" xmlns="http://www.w3.org/2000/svg">
<mask id="path-1-inside-1_237_7245" fill="white">
<path d="M0 8C0 3.58172 3.58172 0 8 0H24C28.4183 0 32 3.58172 32 8V24C32 28.4183 28.4183 32 24 32H8C3.58172 32 0 28.4183 0 24V8Z"/>
</mask>
<path d="M0 8C0 3.58172 3.58172 0 8 0H24C28.4183 0 32 3.58172 32 8V24C32 28.4183 28.4183 32 24 32H8C3.58172 32 0 28.4183 0 24V8Z" fill="white"/>
<path d="M8 0V1H24V0V-1H8V0ZM32 8H31V24H32H33V8H32ZM24 32V31H8V32V33H24V32ZM0 24H1V8H0H-1V24H0ZM8 32V31C4.13401 31 1 27.866 1 24H0H-1C-1 28.9706 3.02944 33 8 33V32ZM32 24H31C31 27.866 27.866 31 24 31V32V33C28.9706 33 33 28.9706 33 24H32ZM24 0V1C27.866 1 31 4.13401 31 8H32H33C33 3.02944 28.9706 -1 24 -1V0ZM8 0V-1C3.02944 -1 -1 3.02944 -1 8H0H1C1 4.13401 4.13401 1 8 1V0Z" fill="#0B1228" fill-opacity="0.14" mask="url(#path-1-inside-1_237_7245)"/>
<path d="M15.4541 19.4657H16.5486V16.4812H19.3015V15.4201H16.5486V12.4355H15.4541V15.4201H12.7344V16.4812H15.4541V19.4657Z" fill="#E8762D"/>
<path d="M10.3782 23.7764H11.3069V21.1235H13.7613V20.2945H11.3069V17.6084H10.3782V20.2945H7.92383V21.1235H10.3782V23.7764Z" fill="#C72037"/>
<path d="M20.6927 14.1934H21.6214V11.5405H24.1089V10.7447H21.6214V8.05859H20.6927V10.7447H18.2383V11.5405H20.6927V14.1934Z" fill="#5B879B"/>
<path d="M15.6174 25.8654H16.4134V23.9753H18.1049V23.2789H16.4134V21.3887H15.6174V23.2789H13.959V23.9753H15.6174V25.8654Z" fill="#5C6692"/>
<path d="M10.4114 14.1934H11.2737V11.5074H13.7613V10.7447H11.2737V8.05859H10.4114V10.7447H7.92383V11.5074H10.4114V14.1934Z" fill="#EB9129"/>
<path d="M23.5119 18.1721H24.3079V16.3151H25.9995V15.5855H24.3079V13.7285H23.5119V15.5855H21.8535V16.3151H23.5119V18.1721Z" fill="#5C6692"/>
<path fill-rule="evenodd" clip-rule="evenodd" d="M20.6927 23.7764H21.6214V21.1235H24.1089V20.2945H21.6214V17.6084H20.6927V20.2945H18.2383V21.1235H20.6927V23.7764Z" fill="#1F457E"/>
<path d="M17.9735 8.52238V7.95864H16.3151V6.13477H15.7181V7.95864H14.0597V8.52238H15.7181V10.3463H16.3151V8.52238H17.9735ZM7.65838 18.0397H8.25539V16.2158H9.91377V15.6521H8.25539V13.8614H7.65838V15.6521H6V16.249L7.65838 16.2158V18.0397Z" fill="#7199A6"/>
</svg>
