<svg width="275" height="275" viewBox="0 0 275 275" fill="none" xmlns="http://www.w3.org/2000/svg">
<path d="M143.858 192.847C144.428 189.367 144.698 185.667 144.648 181.757C144.598 177.797 144.218 174.057 143.528 170.547C139.478 149.657 124.758 136.957 104.308 133.917C100.818 133.397 97.168 133.157 93.368 133.207C89.408 133.257 85.618 133.627 82.008 134.277C61.648 137.967 47.298 151.037 43.818 171.907C43.228 175.437 42.948 179.187 43.008 183.147C43.058 187.057 43.438 190.747 44.108 194.207C48.138 214.947 62.848 227.647 83.338 230.777C86.968 231.327 90.768 231.597 94.728 231.537C98.528 231.487 102.168 231.147 105.638 230.527C126.018 226.927 140.408 213.797 143.848 192.827L143.858 192.847Z" fill="#DDDEE1"/>
<path d="M143.858 102.647C144.428 99.1672 144.698 95.4672 144.648 91.5572C144.598 87.5972 144.218 83.8572 143.528 80.3472C139.478 59.4572 124.758 46.7572 104.308 43.7172C100.818 43.1972 97.168 42.9572 93.368 43.0072C89.408 43.0572 85.618 43.4272 82.008 44.0772C61.648 47.7672 47.298 60.8372 43.818 81.7072C43.228 85.2372 42.948 88.9872 43.008 92.9472C43.058 96.8572 43.438 100.547 44.108 104.007C48.138 124.747 62.848 137.447 83.338 140.577C86.968 141.127 90.768 141.397 94.728 141.337C98.528 141.287 102.168 140.947 105.638 140.327C126.018 136.727 140.408 123.597 143.848 102.627L143.858 102.647Z" fill="#DDDEE1"/>
<path d="M123.357 130.247C123.777 107.047 112.037 98.407 94.087 98.717C77.247 99.007 66.087 108.037 66.487 131.227L66.557 135.177C71.547 137.817 77.177 139.637 83.357 140.587C86.987 141.137 90.787 141.407 94.747 141.347C98.547 141.297 102.187 140.957 105.657 140.337C112.277 139.167 118.247 136.977 123.427 133.857L123.367 130.237L123.357 130.247Z" fill="#B7B9BE"/>
<path d="M111.157 82.2872C111.357 81.0672 111.447 79.7771 111.437 78.4171C111.417 77.0371 111.287 75.7272 111.047 74.5072C109.637 67.2172 104.497 62.7871 97.3671 61.7271C96.1471 61.5471 94.8771 61.4671 93.5471 61.4771C92.1671 61.4971 90.8371 61.6272 89.5871 61.8572C82.4871 63.1472 77.4771 67.7071 76.2671 74.9871C76.0571 76.2171 75.9671 77.5272 75.9871 78.9072C76.0071 80.2672 76.1371 81.5572 76.3671 82.7672C77.7671 90.0072 82.9071 94.4371 90.0571 95.5271C91.3271 95.7171 92.6471 95.8072 94.0271 95.7972C95.3471 95.7772 96.6271 95.6572 97.8371 95.4472C104.947 94.1872 109.967 89.6072 111.167 82.2972L111.157 82.2872Z" fill="#B7B9BE"/>
<path d="M232.049 102.647C232.619 99.1672 232.889 95.4672 232.839 91.5572C232.789 87.5972 232.409 83.8572 231.719 80.3472C227.669 59.4572 212.949 46.7572 192.499 43.7172C189.009 43.1972 185.359 42.9572 181.559 43.0072C177.599 43.0572 173.809 43.4272 170.199 44.0772C149.839 47.7672 135.489 60.8372 132.009 81.7072C131.419 85.2372 131.139 88.9872 131.199 92.9472C131.249 96.8572 131.629 100.547 132.299 104.007C136.329 124.747 151.039 137.447 171.529 140.577C175.159 141.127 178.959 141.397 182.919 141.337C186.719 141.287 190.359 140.947 193.829 140.327C214.209 136.727 228.599 123.597 232.039 102.627L232.049 102.647Z" fill="#DDDEE1"/>
<path d="M211.537 130.247C211.957 107.047 200.217 98.407 182.267 98.717C165.427 99.007 154.267 108.037 154.667 131.227L154.737 135.177C159.727 137.817 165.357 139.637 171.537 140.587C175.167 141.137 178.967 141.407 182.927 141.347C186.727 141.297 190.367 140.957 193.837 140.337C200.457 139.167 206.427 136.977 211.607 133.857L211.547 130.237L211.537 130.247Z" fill="#B7B9BE"/>
<path d="M199.348 82.2872C199.549 81.0672 199.638 79.7771 199.628 78.4171C199.608 77.0371 199.479 75.7272 199.238 74.5072C197.828 67.2172 192.689 62.7871 185.559 61.7271C184.339 61.5471 183.068 61.4671 181.738 61.4771C180.358 61.4971 179.029 61.6272 177.779 61.8572C170.679 63.1472 165.668 67.7071 164.458 74.9871C164.248 76.2171 164.159 77.5272 164.179 78.9072C164.199 80.2672 164.329 81.5572 164.559 82.7672C165.959 90.0072 171.099 94.4371 178.249 95.5271C179.519 95.7171 180.838 95.8072 182.218 95.7972C183.538 95.7772 184.819 95.6572 186.029 95.4472C193.139 94.1872 198.158 89.6072 199.358 82.2972L199.348 82.2872Z" fill="#B7B9BE"/>
<path d="M144.649 91.5572C144.599 87.5972 144.219 83.8572 143.529 80.3472C142.429 74.6572 140.509 69.5972 137.919 65.1472C135.069 69.9472 133.049 75.4772 132.009 81.7172C131.419 85.2472 131.139 88.9972 131.199 92.9572C131.249 96.8672 131.629 100.557 132.299 104.017C133.409 109.727 135.349 114.807 137.979 119.257C140.819 114.447 142.829 108.897 143.859 102.637C144.429 99.1572 144.709 95.4572 144.649 91.5472V91.5572Z" fill="white"/>
<path d="M123.357 220.447C123.777 197.247 112.037 188.607 94.087 188.917C77.247 189.207 66.087 198.237 66.487 221.427L66.557 225.377C71.547 228.017 77.177 229.837 83.357 230.787C86.987 231.337 90.787 231.607 94.747 231.547C98.547 231.497 102.187 231.157 105.657 230.537C112.277 229.367 118.247 227.177 123.427 224.057L123.367 220.437L123.357 220.447Z" fill="#B7B9BE"/>
<path d="M111.157 172.477C111.357 171.257 111.447 169.967 111.437 168.607C111.417 167.227 111.287 165.917 111.047 164.697C109.637 157.407 104.497 152.977 97.3671 151.917C96.1471 151.737 94.8771 151.657 93.5471 151.667C92.1671 151.687 90.8371 151.817 89.5871 152.047C82.4871 153.337 77.4771 157.897 76.2671 165.177C76.0571 166.407 75.9671 167.717 75.9871 169.097C76.0071 170.457 76.1371 171.747 76.3671 172.957C77.7671 180.197 82.9071 184.627 90.0571 185.717C91.3271 185.907 92.6471 185.997 94.0271 185.987C95.4071 185.977 96.6271 185.847 97.8371 185.637C104.947 184.377 109.967 179.797 111.167 172.487L111.157 172.477Z" fill="#B7B9BE"/>
<path d="M232.049 192.847C232.619 189.367 232.889 185.667 232.839 181.757C232.789 177.797 232.409 174.057 231.719 170.547C227.669 149.657 212.949 136.957 192.499 133.917C189.009 133.397 185.359 133.157 181.559 133.207C177.599 133.257 173.809 133.627 170.199 134.277C149.839 137.967 135.489 151.037 132.009 171.907C131.419 175.437 131.139 179.187 131.199 183.147C131.249 187.057 131.629 190.747 132.299 194.207C136.329 214.947 151.039 227.647 171.529 230.777C175.159 231.327 178.959 231.597 182.919 231.537C186.719 231.487 190.359 231.147 193.829 230.527C214.209 226.927 228.599 213.797 232.039 192.827L232.049 192.847Z" fill="#1868DB"/>
<path fill-rule="evenodd" clip-rule="evenodd" d="M208.738 184.717H157.578V177.717H208.738V184.717Z" fill="white"/>
<path fill-rule="evenodd" clip-rule="evenodd" d="M179.656 206.787V155.637H186.656V206.787H179.656Z" fill="white"/>
<path d="M144.649 181.757C144.599 177.797 144.219 174.057 143.529 170.547C142.429 164.857 140.509 159.797 137.919 155.347C135.069 160.147 133.049 165.677 132.009 171.917C131.419 175.447 131.139 179.197 131.199 183.157C131.249 187.067 131.629 190.757 132.299 194.217C133.409 199.927 135.349 205.007 137.979 209.457C140.819 204.647 142.829 199.097 143.859 192.837C144.429 189.357 144.709 185.657 144.649 181.747V181.757Z" fill="#09326C"/>
<path d="M192.51 133.907C189.02 133.387 185.37 133.147 181.57 133.197C177.61 133.247 173.81 133.617 170.21 134.267C166.39 134.957 162.79 135.977 159.43 137.317C163.18 138.817 167.23 139.917 171.54 140.577C175.17 141.127 178.97 141.397 182.93 141.337C186.73 141.287 190.37 140.947 193.84 140.327C197.74 139.637 201.41 138.587 204.83 137.207C201.01 135.677 196.9 134.547 192.51 133.897V133.907Z" fill="#09326C"/>
</svg>
