<svg width="16" height="16" viewBox="0 0 16 16" fill="none" xmlns="http://www.w3.org/2000/svg">
<g clip-path="url(#clip0_237_8380)">
<g clip-path="url(#clip1_237_8380)">
<path d="M0.877591 13.3427L1.5832 14.5553C1.72982 14.8105 1.94059 15.0111 2.18801 15.157L4.70806 10.8174H-0.332031C-0.332031 11.1 -0.258721 11.3826 -0.1121 11.6379L0.877591 13.3427Z" fill="#0066DA"/>
<path d="M7.66797 5.71167L5.14792 1.37207C4.9005 1.51794 4.68973 1.71851 4.54311 1.97378L-0.1121 9.99657C-0.256024 10.2463 -0.33184 10.5292 -0.332031 10.8171H4.70806L7.66797 5.71167Z" fill="#00AC47"/>
<path d="M13.1493 15.157C13.3967 15.0111 13.6075 14.8105 13.7541 14.5553L14.0474 14.0538L15.4494 11.6379C15.5961 11.3826 15.6694 11.1 15.6694 10.8174H10.6289L11.7014 12.9142L13.1493 15.157Z" fill="#EA4335"/>
<path d="M7.66848 5.71172L10.1885 1.37212C9.94111 1.22625 9.65703 1.15332 9.36379 1.15332H5.97318C5.67994 1.15332 5.39586 1.23537 5.14844 1.37212L7.66848 5.71172Z" fill="#00832D"/>
<path d="M10.6274 10.8174H4.70755L2.1875 15.157C2.43492 15.3029 2.719 15.3758 3.01224 15.3758H12.3227C12.6159 15.3758 12.9 15.2937 13.1474 15.157L10.6274 10.8174Z" fill="#2684FC"/>
<path d="M13.1204 5.98517L10.7928 1.97378C10.6462 1.71851 10.4354 1.51794 10.188 1.37207L7.66797 5.71167L10.6279 10.8171H15.6588C15.6588 10.5345 15.5855 10.2518 15.4389 9.99657L13.1204 5.98517Z" fill="#FFBA00"/>
</g>
</g>
<defs>
<clipPath id="clip0_237_8380">
<rect width="16" height="16" fill="white"/>
</clipPath>
<clipPath id="clip1_237_8380">
<rect width="16" height="14.2222" fill="white" transform="translate(-0.332031 1.15332)"/>
</clipPath>
</defs>
</svg>
