<svg width="16" height="16" viewBox="0 0 16 16" fill="none" xmlns="http://www.w3.org/2000/svg">
<mask id="path-1-inside-1_237_8372" fill="white">
<path d="M0 4C0 1.79086 1.79086 0 4 0H12C14.2091 0 16 1.79086 16 4V12C16 14.2091 14.2091 16 12 16H4C1.79086 16 0 14.2091 0 12V4Z"/>
</mask>
<path d="M0 4C0 1.79086 1.79086 0 4 0H12C14.2091 0 16 1.79086 16 4V12C16 14.2091 14.2091 16 12 16H4C1.79086 16 0 14.2091 0 12V4Z" fill="white"/>
<path d="M4 0V1H12V0V-1H4V0ZM16 4H15V12H16H17V4H16ZM12 16V15H4V16V17H12V16ZM0 12H1V4H0H-1V12H0ZM4 16V15C2.34315 15 1 13.6569 1 12H0H-1C-1 14.7614 1.23858 17 4 17V16ZM16 12H15C15 13.6569 13.6569 15 12 15V16V17C14.7614 17 17 14.7614 17 12H16ZM12 0V1C13.6569 1 15 2.34315 15 4H16H17C17 1.23858 14.7614 -1 12 -1V0ZM4 0V-1C1.23858 -1 -1 1.23858 -1 4H0H1C1 2.34315 2.34315 1 4 1V0Z" fill="#0B1228" fill-opacity="0.14" mask="url(#path-1-inside-1_237_8372)"/>
<g clip-path="url(#clip0_237_8372)">
<path d="M3.47243 11.3857L3.94284 12.1941C4.04059 12.3643 4.1811 12.498 4.34605 12.5952L6.02608 9.70215H2.66602C2.66602 9.89056 2.71489 10.079 2.81264 10.2492L3.47243 11.3857Z" fill="#0066DA"/>
<path d="M7.99935 6.29834L6.31932 3.40527C6.15437 3.50252 6.01386 3.63623 5.91611 3.80641L2.81264 9.15494C2.71669 9.32145 2.66614 9.51002 2.66602 9.70195H6.02608L7.99935 6.29834Z" fill="#00AC47"/>
<path d="M11.6529 12.5952C11.8179 12.498 11.9584 12.3643 12.0561 12.1941L12.2516 11.8598L13.1863 10.2492C13.2841 10.079 13.333 9.89056 13.333 9.70215H9.97266L10.6877 11.1001L11.6529 12.5952Z" fill="#EA4335"/>
<path d="M8.00034 6.2987L9.68037 3.40563C9.51543 3.30839 9.32604 3.25977 9.13055 3.25977H6.87014C6.67465 3.25977 6.48526 3.31447 6.32031 3.40563L8.00034 6.2987Z" fill="#00832D"/>
<path d="M9.97228 9.70215H6.02573L4.3457 12.5952C4.51065 12.6925 4.70004 12.7411 4.89553 12.7411H11.1025C11.298 12.7411 11.4874 12.6864 11.6523 12.5952L9.97228 9.70215Z" fill="#2684FC"/>
<path d="M11.635 6.48068L10.0832 3.80641C9.98549 3.63623 9.84498 3.50252 9.68003 3.40527L8 6.29834L9.97327 9.70195H13.3272C13.3272 9.51353 13.2784 9.32512 13.1806 9.15494L11.635 6.48068Z" fill="#FFBA00"/>
</g>
<defs>
<clipPath id="clip0_237_8372">
<rect width="10.6667" height="9.48148" fill="white" transform="translate(2.66602 3.25977)"/>
</clipPath>
</defs>
</svg>
