<svg width="20" height="20" viewBox="0 0 20 20" fill="none" xmlns="http://www.w3.org/2000/svg">
<mask id="path-1-inside-1_237_8364" fill="white">
<path d="M0 5C0 2.23858 2.23858 0 5 0H15C17.7614 0 20 2.23858 20 5V15C20 17.7614 17.7614 20 15 20H5C2.23858 20 0 17.7614 0 15V5Z"/>
</mask>
<path d="M0 5C0 2.23858 2.23858 0 5 0H15C17.7614 0 20 2.23858 20 5V15C20 17.7614 17.7614 20 15 20H5C2.23858 20 0 17.7614 0 15V5Z" fill="white"/>
<path d="M5 0V1H15V0V-1H5V0ZM20 5H19V15H20H21V5H20ZM15 20V19H5V20V21H15V20ZM0 15H1V5H0H-1V15H0ZM5 20V19C2.79086 19 1 17.2091 1 15H0H-1C-1 18.3137 1.68629 21 5 21V20ZM20 15H19C19 17.2091 17.2091 19 15 19V20V21C18.3137 21 21 18.3137 21 15H20ZM15 0V1C17.2091 1 19 2.79086 19 5H20H21C21 1.68629 18.3137 -1 15 -1V0ZM5 0V-1C1.68629 -1 -1 1.68629 -1 5H0H1C1 2.79086 2.79086 1 5 1V0Z" fill="#0B1228" fill-opacity="0.14" mask="url(#path-1-inside-1_237_8364)"/>
<g clip-path="url(#clip0_237_8364)">
<path d="M4.342 14.2324L4.93001 15.2428C5.0522 15.4556 5.22784 15.6227 5.43402 15.7443L7.53406 12.1279H3.33398C3.33398 12.3634 3.39508 12.599 3.51726 12.8117L4.342 14.2324Z" fill="#0066DA"/>
<path d="M10.0007 7.87317L7.90061 4.25684C7.69443 4.37839 7.51879 4.54553 7.3966 4.75826L3.51726 11.4439C3.39732 11.6521 3.33414 11.8878 3.33398 12.1277H7.53406L10.0007 7.87317Z" fill="#00AC47"/>
<path d="M14.5691 15.7443C14.7753 15.6227 14.9509 15.4556 15.0731 15.2428L15.3175 14.825L16.4859 12.8117C16.608 12.599 16.6691 12.3634 16.6691 12.1279H12.4688L13.3625 13.8753L14.5691 15.7443Z" fill="#EA4335"/>
<path d="M10.0004 7.87289L12.1005 4.25655C11.8943 4.135 11.6576 4.07422 11.4132 4.07422H8.58768C8.34331 4.07422 8.10658 4.14259 7.90039 4.25655L10.0004 7.87289Z" fill="#00832D"/>
<path d="M12.4668 12.1279H7.53363L5.43359 15.7443C5.63978 15.8658 5.87651 15.9266 6.12088 15.9266H13.8796C14.1239 15.9266 14.3607 15.8582 14.5669 15.7443L12.4668 12.1279Z" fill="#2684FC"/>
<path d="M14.5457 8.10109L12.606 4.75826C12.4838 4.54553 12.3082 4.37839 12.102 4.25684L10.002 7.87317L12.4685 12.1277H16.661C16.661 11.8922 16.5999 11.6566 16.4777 11.4439L14.5457 8.10109Z" fill="#FFBA00"/>
</g>
<defs>
<clipPath id="clip0_237_8364">
<rect width="13.3333" height="11.8519" fill="white" transform="translate(3.33398 4.07422)"/>
</clipPath>
</defs>
</svg>
