<svg width="24" height="24" viewBox="0 0 24 24" fill="none" xmlns="http://www.w3.org/2000/svg">
<mask id="path-1-inside-1_237_8356" fill="white">
<path d="M0 6.39569C0 2.86345 2.86345 0 6.39569 0H17.6043C21.1366 0 24 2.86345 24 6.39569V17.6043C24 21.1366 21.1366 24 17.6043 24H6.39569C2.86345 24 0 21.1366 0 17.6043V6.39569Z"/>
</mask>
<path d="M0 6.39569C0 2.86345 2.86345 0 6.39569 0H17.6043C21.1366 0 24 2.86345 24 6.39569V17.6043C24 21.1366 21.1366 24 17.6043 24H6.39569C2.86345 24 0 21.1366 0 17.6043V6.39569Z" fill="white"/>
<path d="M6.39569 0V1H17.6043V0V-1H6.39569V0ZM24 6.39569H23V17.6043H24H25V6.39569H24ZM17.6043 24V23H6.39569V24V25H17.6043V24ZM0 17.6043H1V6.39569H0H-1V17.6043H0ZM6.39569 24V23C3.41573 23 1 20.5843 1 17.6043H0H-1C-1 21.6888 2.31116 25 6.39569 25V24ZM24 17.6043H23C23 20.5843 20.5843 23 17.6043 23V24V25C21.6888 25 25 21.6888 25 17.6043H24ZM17.6043 0V1C20.5843 1 23 3.41573 23 6.39569H24H25C25 2.31116 21.6888 -1 17.6043 -1V0ZM6.39569 0V-1C2.31116 -1 -1 2.31116 -1 6.39569H0H1C1 3.41573 3.41573 1 6.39569 1V0Z" fill="#0B1228" fill-opacity="0.14" mask="url(#path-1-inside-1_237_8356)"/>
<g clip-path="url(#clip0_237_8356)">
<path d="M4.55307 17.2036L5.30521 18.4961C5.4615 18.7682 5.68617 18.982 5.94991 19.1375L8.63615 14.5117H3.26367C3.26367 14.813 3.34182 15.1142 3.49811 15.3863L4.55307 17.2036Z" fill="#0066DA"/>
<path d="M11.7913 9.07012L9.10502 4.44434C8.84128 4.59982 8.61661 4.81362 8.46032 5.08573L3.49811 13.6376C3.34469 13.9038 3.26388 14.2053 3.26367 14.5122H8.63615L11.7913 9.07012Z" fill="#00AC47"/>
<path d="M17.6319 19.1375C17.8957 18.982 18.1203 18.7682 18.2766 18.4961L18.5892 17.9616L20.0837 15.3863C20.24 15.1142 20.3182 14.813 20.3182 14.5117H14.9453L16.0886 16.7469L17.6319 19.1375Z" fill="#EA4335"/>
<path d="M11.7917 9.06996L14.4779 4.44417C14.2142 4.28868 13.9114 4.21094 13.5988 4.21094H9.9846C9.67202 4.21094 9.36921 4.2984 9.10547 4.44417L11.7917 9.06996Z" fill="#00832D"/>
<path d="M14.9457 14.5117H8.63546L5.94922 19.1375C6.21296 19.293 6.51577 19.3707 6.82835 19.3707H16.7528C17.0654 19.3707 17.3682 19.2833 17.6319 19.1375L14.9457 14.5117Z" fill="#2684FC"/>
<path d="M17.6031 9.36166L15.1219 5.08573C14.9657 4.81362 14.741 4.59982 14.4773 4.44434L11.791 9.07012L14.9461 14.5122H20.3088C20.3088 14.211 20.2307 13.9097 20.0744 13.6376L17.6031 9.36166Z" fill="#FFBA00"/>
</g>
<defs>
<clipPath id="clip0_237_8356">
<rect width="17.0552" height="15.1601" fill="white" transform="translate(3.26367 4.21094)"/>
</clipPath>
</defs>
</svg>
