<svg width="32" height="32" viewBox="0 0 32 32" fill="none" xmlns="http://www.w3.org/2000/svg">
<mask id="path-1-inside-1_237_8348" fill="white">
<path d="M0 8C0 3.58172 3.58172 0 8 0H24C28.4183 0 32 3.58172 32 8V24C32 28.4183 28.4183 32 24 32H8C3.58172 32 0 28.4183 0 24V8Z"/>
</mask>
<path d="M0 8C0 3.58172 3.58172 0 8 0H24C28.4183 0 32 3.58172 32 8V24C32 28.4183 28.4183 32 24 32H8C3.58172 32 0 28.4183 0 24V8Z" fill="white"/>
<path d="M8 0V1H24V0V-1H8V0ZM32 8H31V24H32H33V8H32ZM24 32V31H8V32V33H24V32ZM0 24H1V8H0H-1V24H0ZM8 32V31C4.13401 31 1 27.866 1 24H0H-1C-1 28.9706 3.02944 33 8 33V32ZM32 24H31C31 27.866 27.866 31 24 31V32V33C28.9706 33 33 28.9706 33 24H32ZM24 0V1C27.866 1 31 4.13401 31 8H32H33C33 3.02944 28.9706 -1 24 -1V0ZM8 0V-1C3.02944 -1 -1 3.02944 -1 8H0H1C1 4.13401 4.13401 1 8 1V0Z" fill="#0B1228" fill-opacity="0.14" mask="url(#path-1-inside-1_237_8348)"/>
<g clip-path="url(#clip0_237_8348)">
<path d="M6.94681 22.7705L7.88763 24.3872C8.08313 24.7275 8.36415 24.995 8.69405 25.1895L12.0541 19.4033H5.33398C5.33398 19.7801 5.43173 20.157 5.62723 20.4973L6.94681 22.7705Z" fill="#0066DA"/>
<path d="M16.0007 12.5967L12.6406 6.81055C12.3107 7.00504 12.0297 7.27247 11.8342 7.61283L5.62723 18.3099C5.43533 18.6429 5.33424 19.02 5.33398 19.4039H12.0541L16.0007 12.5967Z" fill="#00AC47"/>
<path d="M23.3059 25.1895C23.6358 24.995 23.9168 24.7275 24.1123 24.3872L24.5033 23.7186L26.3727 20.4973C26.5682 20.157 26.6659 19.7801 26.6659 19.4033H19.9453L21.3754 22.1991L23.3059 25.1895Z" fill="#EA4335"/>
<path d="M16.0007 12.5964L19.3607 6.81029C19.0309 6.6158 18.6521 6.51855 18.2611 6.51855H13.7403C13.3493 6.51855 12.9705 6.62796 12.6406 6.81029L16.0007 12.5964Z" fill="#00832D"/>
<path d="M19.9465 19.4033H12.0534L8.69336 25.1895C9.02326 25.3839 9.40203 25.4812 9.79302 25.4812H22.2069C22.5979 25.4812 22.9767 25.3718 23.3066 25.1895L19.9465 19.4033Z" fill="#2684FC"/>
<path d="M23.27 12.9614L20.1665 7.61283C19.971 7.27247 19.69 7.00504 19.3601 6.81055L16 12.5967L19.9465 19.4039H26.6544C26.6544 19.0271 26.5567 18.6502 26.3612 18.3099L23.27 12.9614Z" fill="#FFBA00"/>
</g>
<defs>
<clipPath id="clip0_237_8348">
<rect width="21.3333" height="18.963" fill="white" transform="translate(5.33398 6.51855)"/>
</clipPath>
</defs>
</svg>
