<svg width="16" height="16" viewBox="0 0 16 16" fill="none" xmlns="http://www.w3.org/2000/svg">
<path d="M0 4C0 1.79086 1.79086 0 4 0H12C14.2091 0 16 1.79086 16 4V12C16 14.2091 14.2091 16 12 16H4C1.79086 16 0 14.2091 0 12V4Z" fill="#5951FF"/>
<path fill-rule="evenodd" clip-rule="evenodd" d="M7.55775 4.66895C8.78295 4.66895 10.6343 5.03569 11.496 5.87672C11.7143 6.08996 12 6.50761 12 7.1193C12 8.20681 11.1021 9.87536 10.1108 10.8431C9.59824 11.3434 8.78295 11.9971 7.68629 11.9971C6.6142 11.9971 5.79545 11.2865 5.55842 11.0551C4.65041 10.1689 4 8.82368 4 7.56942C4 6.77801 4.23114 6.08581 4.8209 5.51049C5.36709 4.97751 6.30823 4.66895 7.55775 4.66895ZM9.11908 9.05036C9.53274 8.64647 9.64417 8.14908 9.64417 7.87531C9.64417 7.67688 9.59072 7.38571 9.33632 7.13766C8.94618 6.75689 8.51409 6.64936 8.04405 6.64936C7.44868 6.64936 7.04866 6.83299 6.78224 7.09324C6.57328 7.29714 6.39264 7.61064 6.39264 8.05608C6.39264 8.50128 6.63581 8.9314 6.90089 9.18984C7.14566 9.42879 7.53046 9.60567 7.91793 9.60567C8.30539 9.60567 8.70543 9.45424 9.11908 9.05036Z" fill="white"/>
</svg>
