<svg width="20" height="20" viewBox="0 0 20 20" fill="none" xmlns="http://www.w3.org/2000/svg">
<path d="M0 5C0 2.23858 2.23858 0 5 0H15C17.7614 0 20 2.23858 20 5V15C20 17.7614 17.7614 20 15 20H5C2.23858 20 0 17.7614 0 15V5Z" fill="#5951FF"/>
<path fill-rule="evenodd" clip-rule="evenodd" d="M9.44718 5C10.9787 5 13.2928 5.45843 14.37 6.50972C14.6429 6.77627 15 7.29834 15 8.06294C15 9.42233 13.8777 11.508 12.6385 12.7177C11.9978 13.3431 10.9787 14.1603 9.60786 14.1603C8.26775 14.1603 7.24431 13.2719 6.94803 12.9827C5.81301 11.8749 5 10.1934 5 8.6256C5 7.63633 5.28893 6.77108 6.02612 6.05193C6.70887 5.38571 7.88529 5 9.44718 5ZM11.3988 10.4768C11.9159 9.9719 12.0552 9.35017 12.0552 9.00796C12.0552 8.75992 11.9884 8.39595 11.6704 8.08589C11.1827 7.60993 10.6426 7.47551 10.0551 7.47551C9.31085 7.47551 8.81083 7.70506 8.4778 8.03037C8.21661 8.28524 7.9908 8.67712 7.9908 9.23392C7.9908 9.79041 8.29476 10.3281 8.62611 10.6511C8.93208 10.9498 9.41307 11.1709 9.89742 11.1709C10.3817 11.1709 10.8818 10.9816 11.3988 10.4768Z" fill="white"/>
</svg>
