<svg width="24" height="24" viewBox="0 0 24 24" fill="none" xmlns="http://www.w3.org/2000/svg">
<path d="M0 6C0 2.68629 2.68629 0 6 0H18C21.3137 0 24 2.68629 24 6V18C24 21.3137 21.3137 24 18 24H6C2.68629 24 0 21.3137 0 18V6Z" fill="#5951FF"/>
<path fill-rule="evenodd" clip-rule="evenodd" d="M11.3366 7C13.1744 7 15.9514 7.55012 17.244 8.81166C17.5715 9.13152 18 9.758 18 10.6755C18 12.3068 16.6532 14.8096 15.1662 16.2613C14.3974 17.0117 13.1744 17.9923 11.5294 17.9923C9.92131 17.9923 8.69317 16.9263 8.33763 16.5792C6.97562 15.2499 6 13.2321 6 11.3507C6 10.1636 6.34672 9.12529 7.23135 8.26232C8.05064 7.46285 9.46235 7 11.3366 7ZM13.6786 13.5721C14.2991 12.9663 14.4662 12.2202 14.4662 11.8096C14.4662 11.5119 14.3861 11.0751 14.0045 10.7031C13.4193 10.1319 12.7711 9.97062 12.0661 9.97062C11.173 9.97062 10.573 10.2461 10.1734 10.6364C9.85993 10.9423 9.58896 11.4125 9.58896 12.0807C9.58896 12.7485 9.95371 13.3937 10.3513 13.7813C10.7185 14.1398 11.2957 14.4051 11.8769 14.4051C12.4581 14.4051 13.0581 14.1779 13.6786 13.5721Z" fill="white"/>
</svg>
