<svg width="32" height="32" viewBox="0 0 32 32" fill="none" xmlns="http://www.w3.org/2000/svg">
<path d="M0 8C0 3.58172 3.58172 0 8 0H24C28.4183 0 32 3.58172 32 8V24C32 28.4183 28.4183 32 24 32H8C3.58172 32 0 28.4183 0 24V8Z" fill="#5951FF"/>
<path fill-rule="evenodd" clip-rule="evenodd" d="M15.0049 8C17.7616 8 21.9271 8.82518 23.8661 10.7175C24.3573 11.1973 25 12.137 25 13.5133C25 15.9602 22.9798 19.7144 20.7492 21.8919C19.596 23.0175 17.7616 24.4885 15.2941 24.4885C12.882 24.4885 11.0398 22.8895 10.5064 22.3688C8.46342 20.3748 7 17.3482 7 14.5261C7 12.7454 7.52008 11.1879 8.84702 9.89348C10.076 8.69428 12.1935 8 15.0049 8ZM18.5179 17.8582C19.4487 16.9494 19.6994 15.8303 19.6994 15.2143C19.6994 14.7679 19.5791 14.1127 19.0067 13.5546C18.1289 12.6979 17.1567 12.4559 16.0991 12.4559C14.7595 12.4559 13.8595 12.8691 13.26 13.4547C12.7899 13.9134 12.3834 14.6188 12.3834 15.6211C12.3834 16.6227 12.9306 17.5905 13.527 18.172C14.0777 18.7097 14.9435 19.1076 15.8154 19.1076C16.6871 19.1076 17.5872 18.7669 18.5179 17.8582Z" fill="white"/>
</svg>
