<svg width="16" height="16" viewBox="0 0 16 16" fill="none" xmlns="http://www.w3.org/2000/svg">
<path d="M0 4C0 1.79086 1.79086 0 4 0H12C14.2091 0 16 1.79086 16 4V12C16 14.2091 14.2091 16 12 16H4C1.79086 16 0 14.2091 0 12V4Z" fill="#005CB8"/>
<path d="M6.37141 11.5125C6.43695 11.3811 6.4558 11.2548 6.48817 11.1338C6.75858 10.1243 7.02688 9.11457 7.29623 8.10483C7.34718 7.91403 7.38513 7.88564 7.58283 7.88537C7.85696 7.8851 8.13109 7.88537 8.40521 7.88537C8.62123 7.88537 8.65891 7.91642 8.71596 8.12872C9.00655 9.21037 9.29792 10.292 9.58877 11.3737C9.59885 11.4114 9.59806 11.4533 9.63946 11.4854C9.8016 10.8238 9.96321 10.1657 10.1243 9.50759C10.2416 9.02779 10.3583 8.54774 10.4748 8.06741C10.5032 7.95012 10.568 7.88298 10.6967 7.88484C10.8955 7.88776 11.0945 7.88272 11.2935 7.8867C11.457 7.88988 11.5321 7.99231 11.4899 8.15207C11.1086 9.59304 10.7254 11.0335 10.3461 12.475C10.3095 12.6143 10.2336 12.6719 10.0919 12.6695C9.80903 12.6647 9.52614 12.6687 9.24326 12.6679C9.07475 12.6674 9.02804 12.6302 8.98293 12.4654C8.66475 11.3089 8.3471 10.1522 8.02892 8.99568C8.01777 8.95482 8.0053 8.91421 7.98274 8.83593C7.90393 9.13368 7.8344 9.39639 7.76487 9.65938C7.51808 10.593 7.27155 11.5265 7.02422 12.4598C6.97805 12.6345 6.93426 12.6676 6.75593 12.6682C6.47305 12.669 6.19016 12.6663 5.90727 12.6692C5.77273 12.6705 5.6971 12.6151 5.6618 12.4811C5.28232 11.0396 4.89939 9.59887 4.51832 8.15791C4.474 7.98993 4.54937 7.88908 4.72106 7.88643C4.90682 7.88378 5.09232 7.88484 5.27808 7.8859C5.44871 7.88696 5.49515 7.92518 5.53496 8.09024C5.79157 9.14907 6.04819 10.2079 6.30533 11.2665C6.32391 11.3429 6.34646 11.418 6.3722 11.5127L6.37141 11.5125Z" fill="#FEFEFE"/>
<path d="M8.00738 3.33051C9.61712 3.33051 11.0326 4.40447 11.4763 5.9622C11.5538 6.23447 11.4267 6.49374 11.1786 6.56937C10.9169 6.64925 10.6807 6.50913 10.5889 6.22465C10.2522 5.18227 9.55927 4.51885 8.47709 4.31318C7.12821 4.05683 5.82709 4.86754 5.43009 6.18511C5.36534 6.40059 5.25681 6.56459 5.01771 6.59246C4.6852 6.63147 4.42301 6.32762 4.52067 6.00466C4.93783 4.62685 5.84169 3.75431 7.24497 3.41172C7.49442 3.35068 7.74997 3.32786 8.00738 3.33025V3.33051Z" fill="#F28A00"/>
</svg>
