<svg width="20" height="20" viewBox="0 0 20 20" fill="none" xmlns="http://www.w3.org/2000/svg">
<path d="M0 5C0 2.23858 2.23858 0 5 0H15C17.7614 0 20 2.23858 20 5V15C20 17.7614 17.7614 20 15 20H5C2.23858 20 0 17.7614 0 15V5Z" fill="#005CB8"/>
<path d="M8.00338 13.7613C8.07356 13.6206 8.09374 13.4854 8.1284 13.3558C8.41795 12.2749 8.70522 11.1938 8.99362 10.1126C9.04818 9.90829 9.08881 9.87788 9.3005 9.8776C9.59402 9.87732 9.88754 9.8776 10.1811 9.8776C10.4124 9.8776 10.4527 9.91084 10.5138 10.1382C10.8249 11.2963 11.1369 12.4545 11.4483 13.6127C11.4591 13.653 11.4583 13.6979 11.5026 13.7323C11.6762 13.0239 11.8493 12.3193 12.0218 11.6146C12.1473 11.1008 12.2724 10.5868 12.3971 10.0725C12.4275 9.94693 12.4968 9.87504 12.6346 9.87703C12.8475 9.88016 13.0606 9.87476 13.2737 9.87902C13.4487 9.88243 13.5291 9.99211 13.484 10.1632C13.0756 11.7061 12.6653 13.2484 12.2593 14.7919C12.2201 14.9411 12.1388 15.0027 11.9871 15.0002C11.6842 14.995 11.3813 14.9993 11.0784 14.9985C10.898 14.9979 10.848 14.9581 10.7996 14.7816C10.459 13.5433 10.1188 12.3048 9.77815 11.0665C9.76621 11.0227 9.75286 10.9792 9.72871 10.8954C9.64431 11.2142 9.56987 11.4955 9.49542 11.7771C9.23117 12.7767 8.9672 13.7763 8.70238 14.7757C8.65294 14.9626 8.60605 14.9982 8.41511 14.9987C8.11221 14.9996 7.80931 14.9967 7.50641 14.9999C7.36235 15.0013 7.28137 14.9419 7.24358 14.7984C6.83725 13.2549 6.42723 11.7123 6.0192 10.1694C5.97175 9.98955 6.05245 9.88158 6.23629 9.87874C6.43519 9.8759 6.63381 9.87703 6.83271 9.87817C7.01541 9.8793 7.06514 9.92022 7.10776 10.097C7.38253 11.2307 7.65729 12.3644 7.93263 13.4979C7.95252 13.5797 7.97667 13.6601 8.00423 13.7616L8.00338 13.7613Z" fill="#FEFEFE"/>
<path d="M9.7555 5.00046C11.4791 5.00046 12.9947 6.1504 13.4698 7.81832C13.5528 8.10986 13.4167 8.38747 13.151 8.46845C12.8709 8.55397 12.618 8.40395 12.5197 8.09934C12.1591 6.98322 11.4172 6.27286 10.2584 6.05265C8.81413 5.77817 7.42097 6.64623 6.99589 8.05701C6.92656 8.28773 6.81035 8.46333 6.55433 8.49317C6.1983 8.53494 5.91756 8.20959 6.02213 7.86379C6.4688 6.38851 7.4366 5.45424 8.93915 5.08741C9.20625 5.02206 9.47988 4.99762 9.7555 5.00018V5.00046Z" fill="#F28A00"/>
</svg>
