<svg width="24" height="24" viewBox="0 0 24 24" fill="none" xmlns="http://www.w3.org/2000/svg">
<path d="M0 6.39569C0 2.86345 2.86345 0 6.39569 0H17.6043C21.1366 0 24 2.86345 24 6.39569V17.6043C24 21.1366 21.1366 24 17.6043 24H6.39569C2.86345 24 0 21.1366 0 17.6043V6.39569Z" fill="#005CB8"/>
<path d="M9.80434 17.2652C9.9026 17.0683 9.93084 16.8789 9.97938 16.6976C10.3847 15.1843 10.7869 13.6707 11.1907 12.157C11.2671 11.871 11.3239 11.8285 11.6203 11.8281C12.0312 11.8277 12.4422 11.8281 12.8531 11.8281C13.1769 11.8281 13.2334 11.8746 13.3189 12.1928C13.7545 13.8143 14.1913 15.4357 14.6273 17.0572C14.6424 17.1137 14.6412 17.1765 14.7033 17.2246C14.9463 16.2329 15.1886 15.2464 15.4301 14.2598C15.6059 13.5406 15.7809 12.821 15.9556 12.1009C15.9981 11.9251 16.0952 11.8245 16.2881 11.8273C16.5861 11.8316 16.8844 11.8241 17.1828 11.83C17.4278 11.8348 17.5404 11.9884 17.4771 12.2278C16.9055 14.3879 16.3311 16.5472 15.7626 18.708C15.7077 18.9169 15.594 19.0032 15.3815 18.9996C14.9575 18.9925 14.5334 18.9984 14.1094 18.9972C13.8568 18.9964 13.7867 18.9408 13.7191 18.6937C13.2421 16.9601 12.766 15.2261 12.289 13.4925C12.2723 13.4312 12.2536 13.3703 12.2198 13.253C12.1016 13.6993 11.9974 14.0931 11.8932 14.4874C11.5232 15.8868 11.1537 17.2863 10.7829 18.6854C10.7137 18.9471 10.6481 18.9968 10.3808 18.9976C9.9567 18.9988 9.53264 18.9949 9.10859 18.9992C8.9069 19.0012 8.79353 18.9181 8.74062 18.7172C8.17176 16.5563 7.59773 14.3967 7.02649 12.2366C6.96006 11.9848 7.07303 11.8336 7.33041 11.8296C7.60887 11.8257 7.88694 11.8273 8.1654 11.8288C8.42118 11.8304 8.4908 11.8877 8.55047 12.1352C8.93514 13.7224 9.31982 15.3096 9.70529 16.8965C9.73314 17.011 9.76695 17.1236 9.80554 17.2656L9.80434 17.2652Z" fill="#FEFEFE"/>
<path d="M12.2577 5.00065C14.6708 5.00065 16.7926 6.61056 17.4578 8.94565C17.5739 9.3538 17.3834 9.74245 17.0114 9.85582C16.6192 9.97556 16.2652 9.76552 16.1275 9.33908C15.6227 7.77651 14.584 6.78201 12.9618 6.47371C10.9398 6.08943 8.98936 7.30472 8.39425 9.27981C8.29718 9.60282 8.13448 9.84866 7.77606 9.89043C7.27762 9.94891 6.88459 9.49343 7.03098 9.0093C7.65633 6.94391 9.01124 5.63594 11.1148 5.12238C11.4888 5.03088 11.8718 4.99667 12.2577 5.00025V5.00065Z" fill="#F28A00"/>
</svg>
