<svg width="32" height="32" viewBox="0 0 32 32" fill="none" xmlns="http://www.w3.org/2000/svg">
<path d="M0 8C0 3.58172 3.58172 0 8 0H24C28.4183 0 32 3.58172 32 8V24C32 28.4183 28.4183 32 24 32H8C3.58172 32 0 28.4183 0 24V8Z" fill="#005CB8"/>
<path d="M13.2058 22.0176C13.3181 21.7926 13.3504 21.5762 13.4058 21.3689C13.8691 19.6395 14.3287 17.9096 14.7902 16.1797C14.8775 15.8529 14.9425 15.8042 15.2812 15.8038C15.7508 15.8033 16.2204 15.8038 16.6901 15.8038C17.0601 15.8038 17.1247 15.857 17.2224 16.2207C17.7203 18.0737 18.2194 19.9268 18.7177 21.7799C18.735 21.8444 18.7336 21.9163 18.8045 21.9713C19.0823 20.8379 19.3592 19.7104 19.6351 18.5829C19.8361 17.7609 20.0361 16.9385 20.2357 16.1156C20.2844 15.9147 20.3953 15.7997 20.6158 15.8029C20.9563 15.8079 21.2973 15.7992 21.6382 15.806C21.9183 15.8115 22.047 15.987 21.9747 16.2607C21.3214 18.7293 20.6649 21.197 20.0152 23.6666C19.9525 23.9053 19.8225 24.0039 19.5797 23.9998C19.0951 23.9916 18.6104 23.9985 18.1258 23.9971C17.8371 23.9962 17.7571 23.9325 17.6798 23.6502C17.1347 21.6689 16.5905 19.6872 16.0454 17.7059C16.0263 17.6359 16.0049 17.5664 15.9663 17.4323C15.8313 17.9423 15.7122 18.3924 15.593 18.843C15.1702 20.4423 14.7479 22.0417 14.3242 23.6407C14.2451 23.9398 14.1701 23.9966 13.8645 23.9975C13.3799 23.9989 12.8953 23.9944 12.4106 23.9994C12.1801 24.0016 12.0506 23.9066 11.9901 23.677C11.34 21.2075 10.684 18.7393 10.0311 16.2707C9.95519 15.9829 10.0843 15.8101 10.3784 15.8056C10.6967 15.801 11.0145 15.8029 11.3327 15.8047C11.625 15.8065 11.7046 15.872 11.7728 16.1547C12.2124 17.9687 12.652 19.7827 13.0926 21.5962C13.1244 21.7271 13.1631 21.8558 13.2071 22.0181L13.2058 22.0176Z" fill="#FEFEFE"/>
<path d="M16.0088 8.00074C18.7666 8.00074 21.1915 9.84063 21.9517 12.5093C22.0844 12.9757 21.8667 13.4199 21.4416 13.5495C20.9933 13.6863 20.5887 13.4463 20.4314 12.9589C19.8545 11.1731 18.6674 10.0366 16.8135 9.68423C14.5026 9.24506 12.2735 10.634 11.5934 12.8912C11.4825 13.2603 11.2965 13.5413 10.8869 13.589C10.3173 13.6559 9.8681 13.1353 10.0354 12.582C10.7501 10.2216 12.2985 8.72679 14.7026 8.13986C15.13 8.03529 15.5678 7.9962 16.0088 8.00029V8.00074Z" fill="#F28A00"/>
</svg>
