<svg width="96" height="96" viewBox="0 0 96 96" fill="none" xmlns="http://www.w3.org/2000/svg">
<path fill-rule="evenodd" clip-rule="evenodd" d="M57.91 73.4104C63.31 69.8204 66.87 63.6804 66.87 56.7004C66.87 45.6304 57.89 36.6504 46.82 36.6504C35.75 36.6504 26.77 45.6304 26.77 56.7004C26.77 63.6704 30.33 69.8204 35.73 73.4104C36.71 68.1804 41.3 64.2204 46.82 64.2204C52.34 64.2204 56.93 68.1804 57.91 73.4104ZM46.82 60.4604C50.97 60.4604 54.34 57.0904 54.34 52.9404C54.34 48.7904 50.97 45.4204 46.82 45.4204C42.67 45.4204 39.3 48.7904 39.3 52.9404C39.3 57.0904 42.67 60.4604 46.82 60.4604Z" fill="#1868DB"/>
<path d="M83.13 32.9704C83.13 37.0104 81.73 40.0404 79.36 42.1904C78.22 43.2204 76.84 44.0404 75.29 44.6704C72.8 45.6904 69.84 46.2104 66.62 46.2604L57.89 54.7704V45.0804C57.45 44.9404 57.02 44.7804 56.61 44.6204C55.11 43.9904 53.77 43.1904 52.65 42.2004C50.22 40.0504 48.77 37.0204 48.77 32.9804C48.77 28.9404 50.27 25.7004 52.76 23.5104C53.86 22.5504 55.16 21.7604 56.61 21.1504C59.32 20.0004 62.57 19.4404 66.08 19.4404C69.59 19.4404 72.67 19.9804 75.3 21.0804C76.8 21.7004 78.14 22.5104 79.26 23.5104C81.7 25.7104 83.14 28.8404 83.14 32.9804L83.13 32.9704Z" fill="#BF63F3"/>
<path d="M64.87 47.9704L57.89 54.7804V45.0904C57.45 44.9504 57.02 44.7904 56.61 44.6304C55.11 44.0004 53.77 43.2004 52.65 42.2104C51.05 40.8004 49.88 39.0104 49.26 36.8004C56.15 37.6404 61.96 41.9704 64.87 47.9704Z" fill="#AE2A19"/>
<path d="M23.83 27.4496C24.48 27.1896 24.32 26.0796 23.57 26.1296C22.5 26.1696 21.39 26.3696 20.03 26.8496C18.52 27.4896 18.27 27.9096 17.29 28.3796C16.49 28.8396 15.38 29.4196 14.46 30.0596C13.51 30.6596 12.76 31.3196 12.44 31.5396C12.36 31.6196 12.28 31.6996 12.2 31.7896C11.64 32.3796 9.40998 35.2396 8.35998 38.1396C7.58998 40.1796 7.44998 41.5296 7.33998 42.2196C7.11998 43.8596 7.25998 45.1096 7.54998 46.2796C7.69998 46.9296 8.65998 46.8096 8.74998 46.1896C8.88998 45.0596 8.97998 43.9496 9.18998 42.4696C9.26998 41.8896 9.68998 40.7396 10.31 39.1996C10.41 38.9496 10.48 38.6896 10.54 38.4096C10.71 37.8496 10.91 37.2396 11.17 36.6796C11.47 36.1396 11.72 35.5796 12.04 35.1496C12.35 34.7196 12.62 34.3396 12.82 34.0896C13.04 33.8496 13.18 33.7096 13.18 33.7096C13.18 33.7096 13.92 32.8296 14.98 31.9196C16.05 31.0296 17.42 30.1096 18.3 29.6796C19.59 28.9696 20.28 28.7896 20.68 28.5996C21.93 28.1496 22.89 27.7896 23.83 27.4496Z" fill="#101214"/>
<path d="M30.56 37.0796C31.07 36.8496 30.91 35.7496 30.3 35.7596C29.44 35.7596 28.55 35.8996 27.46 36.2796C26.25 36.7996 26.08 37.1796 25.29 37.5496C24.65 37.9096 23.76 38.3696 23.01 38.8696C22.24 39.3396 21.63 39.8496 21.36 40.0296C21.29 40.0896 21.23 40.1596 21.17 40.2296C20.72 40.7096 18.97 43.0196 18.11 45.3396C17.49 46.9696 17.38 48.0596 17.29 48.6096C17.12 49.9296 17.25 50.9296 17.53 51.8596C17.67 52.3796 18.64 52.2596 18.73 51.7696C18.89 50.8796 18.98 50.0096 19.15 48.8596C19.21 48.4096 19.6 47.5196 20.08 46.3296C20.16 46.1296 20.21 45.9296 20.24 45.7196C20.35 45.2796 20.49 44.7996 20.69 44.3496C20.91 43.9196 21.11 43.4796 21.36 43.1496C21.6 42.8096 21.81 42.5196 21.97 42.3196C22.15 42.1396 22.25 42.0296 22.25 42.0296C22.25 42.0296 22.83 41.3396 23.66 40.6296C24.5 39.9296 25.57 39.2196 26.25 38.8796C27.26 38.3296 27.8 38.1796 28.11 38.0396C29.08 37.6896 29.83 37.3896 30.56 37.0796Z" fill="#101214"/>
</svg>
