<svg width="96" height="96" viewBox="0 0 96 96" fill="none" xmlns="http://www.w3.org/2000/svg">
<path fill-rule="evenodd" clip-rule="evenodd" d="M51.14 74.9614C56.54 71.3714 60.1 65.2314 60.1 58.2514C60.1 47.1814 51.12 38.2014 40.05 38.2014C28.98 38.2014 20 47.1814 20 58.2514C20 65.2214 23.56 71.3714 28.96 74.9614C29.94 69.7314 34.53 65.7714 40.05 65.7714C45.57 65.7714 50.16 69.7314 51.14 74.9614ZM40.05 62.0114C44.2 62.0114 47.57 58.6414 47.57 54.4914C47.57 50.3414 44.2 46.9714 40.05 46.9714C35.9 46.9714 32.53 50.3414 32.53 54.4914C32.53 58.6414 35.9 62.0114 40.05 62.0114Z" fill="#1868DB"/>
<path d="M76.36 34.53C76.36 38.57 74.96 41.6 72.59 43.75C71.45 44.78 70.07 45.6 68.52 46.23C66.03 47.25 63.07 47.77 59.85 47.82L51.12 56.33V46.64C50.68 46.5 50.25 46.34 49.84 46.18C48.34 45.55 47 44.75 45.88 43.76C43.45 41.61 42 38.58 42 34.54C42 30.5 43.5 27.26 45.99 25.07C47.09 24.11 48.39 23.32 49.84 22.71C52.55 21.56 55.8 21 59.31 21C62.82 21 65.9 21.54 68.53 22.64C70.03 23.26 71.37 24.07 72.49 25.07C74.93 27.27 76.37 30.4 76.37 34.54L76.36 34.53Z" fill="#BF63F3"/>
<path d="M58.104 49.522L51.1201 56.3299V46.6399C50.6801 46.4999 50.2501 46.3399 49.8401 46.1799C48.3401 45.5499 47.0001 44.7499 45.8801 43.7599C44.2842 42.348 43.111 40.5565 42.4937 38.3486C49.3826 39.1864 55.1957 43.5205 58.104 49.522Z" fill="#AE2A19"/>
</svg>
