<svg width="96" height="96" viewBox="0 0 96 96" fill="none" xmlns="http://www.w3.org/2000/svg">
<path d="M35.17 37.6295H7V83.3295L21.38 72.0995H60.86V60.9595H35.17V37.6295Z" fill="#BF63F3"/>
<path d="M35.1699 26.4795V37.6195H60.8599V60.9495H74.6499L89.0399 72.1795V26.4795H35.1699Z" fill="#FCA700"/>
<path d="M60.8599 37.6295H35.1699V60.9595H60.8599V37.6295Z" fill="#101214"/>
<path d="M24.9999 62.4895H28.7499L24.3499 46.2695H17.8199L13.4199 62.4895H17.1699L18.0799 59.0595H24.0799L24.9899 62.4895H24.9999ZM18.8699 56.1295L20.7199 49.1895H21.4699L23.3199 56.1295H18.8799H18.8699Z" fill="white"/>
<path d="M74.7201 39.2895V37.4595H81.9001V34.5895H74.7201V32.2995H71.8001V34.5895H67.1301V37.4595H71.8001V39.4495C68.6501 40.0795 66.5801 42.1895 66.5801 45.0195C66.5801 46.5495 67.1901 48.0095 68.2701 49.0895C69.3501 50.1695 70.8201 50.7795 72.3501 50.7795C76.4201 50.7795 79.0301 48.1695 79.5701 43.7095C80.0001 44.0895 80.3401 44.5495 80.5701 45.0695C80.8001 45.5895 80.9301 46.1495 80.9301 46.7195C80.9301 49.7995 78.2601 51.7895 74.1201 51.7895V54.1795C79.6201 54.1795 83.3101 51.1795 83.3101 46.7195C83.3301 42.3495 79.0901 39.6295 74.7101 39.2895H74.7201ZM68.9701 45.0195C68.9701 43.5095 70.0501 42.3795 71.7901 41.8995V48.3395C71.0001 48.2095 70.2901 47.8095 69.7701 47.1995C69.2501 46.5895 68.9701 45.8195 68.9601 45.0295L68.9701 45.0195ZM74.7201 47.8595V41.6995C75.6001 41.7895 76.4601 41.9995 77.2801 42.3195C77.2201 44.4795 76.6601 46.8295 74.7201 47.8595Z" fill="white"/>
<path d="M76.7098 11.23C76.4098 10.78 75.3698 11.17 75.4498 11.71C75.5698 12.48 75.7798 13.26 76.1498 14.22C76.6298 15.28 76.9598 15.46 77.2198 16.2C77.4698 16.81 77.7198 17.67 77.8898 18.41C78.0698 19.16 78.0998 19.77 78.0798 19.96C78.0798 20.02 78.0798 20.07 78.0898 20.13C78.1098 20.22 78.1298 20.39 78.1198 20.47C78.1098 20.53 78.1898 20.53 77.9298 20.68C77.3998 20.94 76.1798 21 75.1598 20.93C73.6798 20.9 72.7298 20.82 72.2398 20.8C71.0798 20.74 70.2098 20.79 69.3398 20.94C68.8598 21.02 68.7998 21.99 69.2598 22.14C70.0998 22.41 70.9598 22.58 72.1298 22.66C72.5898 22.69 73.5098 23.02 74.8698 23.11C75.0898 23.12 75.3198 23.11 75.5398 23.07C76.5098 22.88 77.6198 22.84 78.6698 22.41C79.1998 22.2 79.6798 21.74 79.8598 21.34C80.0298 20.94 80.0498 20.73 80.0498 20.73C80.0498 20.73 80.0598 20.65 80.0798 20.5C80.0798 20.37 80.0898 20.16 80.0798 19.94C80.0498 19.48 79.9098 18.95 79.7398 18.4C79.3998 17.3 78.9098 16.11 78.6298 15.4C78.1998 14.34 77.9898 13.83 77.8698 13.52C77.4798 12.58 77.1098 11.87 76.6898 11.23H76.7098Z" fill="#101214"/>
<path d="M77.41 20.63C78.11 21.32 78.64 21.52 78.88 21.34C79.13 21.16 79.05 20.54 78.41 19.73C76.58 17.46 74.39 15.3 71.16 13.05C69.3 11.82 68.04 11.21 66.95 10.69C65.85 10.18 64.9 9.79 63.52 9.19C61.18 8.21 57.91 7.16 54.9 6.63C51.89 6.06 49.19 6.04 48.15 6C47.84 6 47.53 6.02 47.22 6.05C46.12 6.1 43.14 6.4 39.54 7.32C38.63 7.52 37.72 7.84 36.76 8.12C35.81 8.39 34.79 8.74 33.82 9.12C31.86 9.87 29.9 10.76 28.06 11.7C22.91 14.48 20.14 16.91 18.77 18.22C15.48 21.29 13.61 24.21 12.34 27.24C11.63 28.92 12.54 29.25 13.42 27.77C15.01 25.06 16.92 22.49 20.05 19.59C20.36 19.31 20.76 18.97 21.24 18.57C21.74 18.19 22.35 17.76 23.03 17.27C23.71 16.78 24.53 16.31 25.39 15.73C26.29 15.22 27.24 14.62 28.33 14.06C29.03 13.68 29.72 13.29 30.41 12.91C31.9 12.08 33.56 11.28 35.23 10.65C36.06 10.33 36.89 10.07 37.72 9.81C38.54 9.55 39.33 9.3 40.08 9.14C41.57 8.75 42.87 8.56 43.8 8.39C44.73 8.29 45.28 8.22 45.28 8.22C45.28 8.22 46.1 8.1 47.42 8.05C48.74 7.96 50.56 7.98 52.55 8.14C56.53 8.46 61.07 9.81 63.59 10.99C65.51 11.83 66.87 12.58 67.89 13.19C68.91 13.79 69.59 14.25 70.1 14.6C73.19 16.74 75.41 18.68 77.4 20.63H77.41Z" fill="#101214"/>
<path d="M23.3998 88.9C23.6998 89.35 24.7398 88.96 24.6598 88.42C24.5398 87.65 24.3298 86.87 23.9598 85.91C23.4798 84.85 23.1498 84.67 22.8898 83.93C22.6398 83.32 22.3898 82.46 22.2198 81.72C22.0398 80.97 22.0098 80.36 22.0298 80.17C22.0298 80.11 22.0298 80.06 22.0198 80C21.9998 79.91 21.9798 79.74 21.9898 79.66C21.9998 79.6 21.9198 79.6 22.1798 79.46C22.7098 79.2 23.9298 79.14 24.9498 79.21C26.4298 79.24 27.3798 79.32 27.8698 79.34C29.0298 79.4 29.8998 79.35 30.7698 79.2C31.2498 79.12 31.3098 78.15 30.8498 78C30.0098 77.73 29.1498 77.56 27.9798 77.48C27.5198 77.45 26.5998 77.12 25.2398 77.03C25.0198 77.02 24.7898 77.03 24.5698 77.07C23.5998 77.26 22.4898 77.3 21.4398 77.73C20.9098 77.94 20.4298 78.4 20.2498 78.8C20.0798 79.2 20.0598 79.41 20.0598 79.41C20.0598 79.41 20.0498 79.49 20.0298 79.64C20.0298 79.77 20.0198 79.98 20.0298 80.2C20.0598 80.66 20.1998 81.19 20.3698 81.74C20.7098 82.84 21.1998 84.03 21.4798 84.74C21.9098 85.8 22.1198 86.31 22.2398 86.62C22.6298 87.56 22.9998 88.27 23.4198 88.91L23.3998 88.9Z" fill="#101214"/>
<path d="M22.9701 79.49C21.6101 78.45 20.8301 79.25 22.0901 80.51C23.8901 82.26 25.9801 83.94 28.9601 85.62C29.8301 86.05 30.5301 86.4 31.1501 86.68C31.7801 86.92 32.3101 87.12 32.8001 87.31C33.7801 87.68 34.6501 87.9 35.8701 88.37C37.9701 89.03 40.8501 89.81 43.4801 90.16C44.7901 90.34 46.0401 90.41 47.0601 90.51C48.0901 90.52 48.9001 90.53 49.3501 90.54C49.6201 90.54 49.8901 90.54 50.1601 90.52C50.6401 90.46 51.5101 90.34 52.6701 90.19C53.2501 90.13 53.9001 90 54.5901 89.85C55.2901 89.7 56.0401 89.55 56.8301 89.38C57.6001 89.16 58.4101 88.92 59.2501 88.68C60.0801 88.44 60.9501 88.2 61.8201 87.89C63.5501 87.28 65.2701 86.56 66.9001 85.81C71.4601 83.58 74.0101 81.68 75.3001 80.66C78.3701 78.27 80.3101 76.01 81.8301 73.6C82.6701 72.27 81.8501 71.76 80.8601 72.89C79.0601 74.95 77.0901 76.92 74.1501 79.19C73.0201 80.09 70.4301 81.66 66.6201 83.51C66.0101 83.83 65.3801 84.11 64.7801 84.45C63.4701 85.13 62.0101 85.78 60.5501 86.3C59.0801 86.78 57.6001 87.22 56.3201 87.57C55.0101 87.83 53.8901 88.06 53.0901 88.2C52.2801 88.28 51.8001 88.33 51.8001 88.33C51.8001 88.33 51.0901 88.41 49.9401 88.53C48.7901 88.53 47.2101 88.69 45.4801 88.53C45.0501 88.51 44.6101 88.48 44.1601 88.46C43.7201 88.4 43.2701 88.34 42.8201 88.29C42.3701 88.23 41.9201 88.17 41.4801 88.11C41.0401 88.04 40.6001 87.93 40.1701 87.84C39.3101 87.67 38.4901 87.49 37.7501 87.25C37.0101 87.02 36.3201 86.86 35.7601 86.63C32.3201 85.42 30.8201 84.48 29.8601 84C27.0101 82.41 24.9201 80.95 22.9601 79.5L22.9701 79.49Z" fill="#101214"/>
</svg>
