<svg width="96" height="96" viewBox="0 0 96 96" fill="none" xmlns="http://www.w3.org/2000/svg">
<path d="M35.17 37.6295H7V83.3295L21.38 72.0995H60.86V60.9595H35.17V37.6295Z" fill="#BF63F3"/>
<path d="M35.1699 26.4795V37.6195H60.8599V60.9495H74.6499L89.0399 72.1795V26.4795H35.1699Z" fill="#FCA700"/>
<path d="M60.8599 37.6295H35.1699V60.9595H60.8599V37.6295Z" fill="#101214"/>
<path d="M24.9999 62.4895H28.7499L24.3499 46.2695H17.8199L13.4199 62.4895H17.1699L18.0799 59.0595H24.0799L24.9899 62.4895H24.9999ZM18.8699 56.1295L20.7199 49.1895H21.4699L23.3199 56.1295H18.8799H18.8699Z" fill="white"/>
<path d="M74.7201 39.2895V37.4595H81.9001V34.5895H74.7201V32.2995H71.8001V34.5895H67.1301V37.4595H71.8001V39.4495C68.6501 40.0795 66.5801 42.1895 66.5801 45.0195C66.5801 46.5495 67.1901 48.0095 68.2701 49.0895C69.3501 50.1695 70.8201 50.7795 72.3501 50.7795C76.4201 50.7795 79.0301 48.1695 79.5701 43.7095C80.0001 44.0895 80.3401 44.5495 80.5701 45.0695C80.8001 45.5895 80.9301 46.1495 80.9301 46.7195C80.9301 49.7995 78.2601 51.7895 74.1201 51.7895V54.1795C79.6201 54.1795 83.3101 51.1795 83.3101 46.7195C83.3301 42.3495 79.0901 39.6295 74.7101 39.2895H74.7201ZM68.9701 45.0195C68.9701 43.5095 70.0501 42.3795 71.7901 41.8995V48.3395C71.0001 48.2095 70.2901 47.8095 69.7701 47.1995C69.2501 46.5895 68.9701 45.8195 68.9601 45.0295L68.9701 45.0195ZM74.7201 47.8595V41.6995C75.6001 41.7895 76.4601 41.9995 77.2801 42.3195C77.2201 44.4795 76.6601 46.8295 74.7201 47.8595Z" fill="white"/>
</svg>
