<svg width="16" height="16" viewBox="0 0 16 16" fill="none" xmlns="http://www.w3.org/2000/svg">
<path d="M0 4C0 1.79086 1.79086 0 4 0H12C14.2091 0 16 1.79086 16 4V12C16 14.2091 14.2091 16 12 16H4C1.79086 16 0 14.2091 0 12V4Z" fill="#584CCC"/>
<path d="M12.8265 9.25773C12.5031 8.89778 11.8832 8.73164 10.9938 8.73164C10.5087 8.73164 9.99659 8.78702 9.51146 8.87009C9.18805 8.56551 8.91853 8.20555 8.64902 7.84559C8.46036 7.5687 8.2717 7.29181 8.10999 6.98723C8.3795 6.21193 8.54121 5.38126 8.59511 4.55059C8.59511 3.80298 8.29865 3 7.49011 3C7.22059 3 6.95108 3.16613 6.81632 3.41534C6.46595 4.0245 6.60071 5.27051 7.16669 6.57189C6.97803 7.15336 6.76242 7.73483 6.51985 8.37168C6.30424 8.92546 6.06168 9.45156 5.76522 9.94996C4.92972 10.2822 3.17788 11.1129 3.01617 12.0266C2.96227 12.3035 3.04312 12.5804 3.25873 12.7466C3.44739 12.9127 3.71691 13.0234 3.98642 12.9958C5.03753 12.9958 6.08863 11.5005 6.81632 10.1992C7.22059 10.0607 7.62486 9.92227 8.05609 9.81152C8.51426 9.70076 8.94548 9.59 9.34975 9.50693C10.4817 10.5037 11.4789 10.6699 11.964 10.6699C12.6378 10.6699 12.9073 10.3653 12.9882 10.1161C13.096 9.81151 13.0421 9.47925 12.8265 9.25773ZM12.0988 9.78383C12.0718 9.97765 11.8562 10.1161 11.5867 10.1161C11.5059 10.1161 11.425 10.1161 11.3442 10.0884C10.8051 9.94996 10.2931 9.67307 9.86183 9.31311C10.2122 9.25773 10.5895 9.23004 10.9399 9.23004C11.1824 9.23004 11.425 9.25773 11.6676 9.28542C11.9101 9.3408 12.1797 9.45156 12.0988 9.78383ZM7.27449 3.66454C7.3284 3.58147 7.40925 3.52609 7.51706 3.4984C7.78657 3.4984 7.84047 3.80298 7.84047 4.07987C7.81352 4.71672 7.70572 5.32588 7.51706 5.93504C7.05888 4.74441 7.11279 3.94143 7.27449 3.66454ZM8.78377 8.98084C8.48731 9.03622 8.19084 9.11929 7.89438 9.20236C7.67877 9.25773 7.46315 9.3408 7.22059 9.39618C7.3284 9.14698 7.4362 8.89777 7.54401 8.67626C7.67877 8.37168 7.78657 8.0671 7.89438 7.76252C8.00218 7.92866 8.08304 8.0671 8.19084 8.20555C8.3795 8.48244 8.59511 8.73164 8.78377 8.98084ZM5.52265 10.5868C4.84887 11.6944 4.17508 12.4143 3.79776 12.4143C3.74386 12.4143 3.663 12.3866 3.63605 12.3589C3.5552 12.3035 3.52825 12.1928 3.5552 12.1097C3.6091 11.6944 4.39069 11.1129 5.52265 10.5868Z" fill="white"/>
</svg>
