<svg width="20" height="20" viewBox="0 0 20 20" fill="none" xmlns="http://www.w3.org/2000/svg">
<path d="M0 5C0 2.23858 2.23858 0 5 0H15C17.7614 0 20 2.23858 20 5V15C20 17.7614 17.7614 20 15 20H5C2.23858 20 0 17.7614 0 15V5Z" fill="#584CCC"/>
<path d="M15.7424 11.4778C15.3559 11.0477 14.6151 10.8491 13.5523 10.8491C12.9726 10.8491 12.3607 10.9153 11.781 11.0146C11.3945 10.6506 11.0725 10.2205 10.7504 9.79033C10.525 9.45946 10.2995 9.12858 10.1063 8.76462C10.4283 7.83816 10.6216 6.84553 10.686 5.85291C10.686 4.95954 10.3317 4 9.36554 4C9.04348 4 8.72142 4.19853 8.56039 4.49631C8.14171 5.22424 8.30274 6.71318 8.97907 8.2683C8.75362 8.96314 8.49597 9.65798 8.20612 10.419C7.94847 11.0808 7.65862 11.7094 7.30435 12.305C6.30596 12.702 4.21256 13.6947 4.01932 14.7866C3.95491 15.1174 4.05153 15.4483 4.30918 15.6468C4.53462 15.8454 4.85668 15.9777 5.17874 15.9446C6.43478 15.9446 7.69082 14.1579 8.56039 12.6028C9.04348 12.4373 9.52657 12.2719 10.0419 12.1396C10.5894 12.0072 11.1047 11.8749 11.5878 11.7756C12.9404 12.9667 14.132 13.1653 14.7118 13.1653C15.5169 13.1653 15.839 12.8013 15.9356 12.5035C16.0644 12.1396 16 11.7425 15.7424 11.4778ZM14.8728 12.1065C14.8406 12.3381 14.5829 12.5035 14.2609 12.5035C14.1643 12.5035 14.0676 12.5035 13.971 12.4704C13.3269 12.305 12.715 11.9741 12.1997 11.544C12.6184 11.4778 13.0692 11.4447 13.4879 11.4447C13.7778 11.4447 14.0676 11.4778 14.3575 11.5109C14.6473 11.5771 14.9694 11.7094 14.8728 12.1065ZM9.10789 4.7941C9.1723 4.69484 9.26892 4.62866 9.39775 4.59558C9.71981 4.59558 9.78422 4.95954 9.78422 5.29042C9.75201 6.05143 9.62319 6.77936 9.39775 7.50729C8.85024 6.08452 8.91465 5.12498 9.10789 4.7941ZM10.9114 11.1469C10.5572 11.2131 10.2029 11.3124 9.84863 11.4116C9.59098 11.4778 9.33333 11.5771 9.04348 11.6432C9.1723 11.3455 9.30113 11.0477 9.42995 10.783C9.59098 10.419 9.71981 10.055 9.84863 9.69107C9.97746 9.8896 10.0741 10.055 10.2029 10.2205C10.4283 10.5513 10.686 10.8491 10.9114 11.1469ZM7.01449 13.066C6.20934 14.3895 5.40419 15.2498 4.9533 15.2498C4.88889 15.2498 4.79227 15.2167 4.76006 15.1836C4.66345 15.1174 4.63124 14.9851 4.66345 14.8858C4.72786 14.3895 5.66184 13.6947 7.01449 13.066Z" fill="white"/>
</svg>
