<svg width="24" height="24" viewBox="0 0 24 24" fill="none" xmlns="http://www.w3.org/2000/svg">
<path d="M0 6.39569C0 2.86345 2.86345 0 6.39569 0H17.6043C21.1366 0 24 2.86345 24 6.39569V17.6043C24 21.1366 21.1366 24 17.6043 24H6.39569C2.86345 24 0 21.1366 0 17.6043V6.39569Z" fill="#584CCC"/>
<path d="M18.9329 13.6295C18.4523 13.0946 17.5311 12.8477 16.2094 12.8477C15.4885 12.8477 14.7275 12.93 14.0066 13.0534C13.526 12.6008 13.1254 12.0659 12.7249 11.531C12.4446 11.1195 12.1642 10.708 11.9239 10.2554C12.3244 9.10324 12.5647 7.8688 12.6448 6.63436C12.6448 5.52337 12.2042 4.33008 11.0027 4.33008C10.6022 4.33008 10.2017 4.57697 10.0014 4.9473C9.48073 5.85255 9.68099 7.70421 10.5221 9.63816C10.2417 10.5023 9.9213 11.3664 9.56083 12.3128C9.24042 13.1357 8.87995 13.9176 8.43938 14.6582C7.19778 15.152 4.59442 16.3864 4.35411 17.7443C4.27401 18.1558 4.39416 18.5673 4.71457 18.8142C4.99494 19.061 5.39545 19.2256 5.79597 19.1845C7.35799 19.1845 8.92 16.9625 10.0014 15.0285C10.6022 14.8228 11.203 14.6171 11.8438 14.4525C12.5247 14.2879 13.1655 14.1233 13.7663 13.9998C15.4484 15.4812 16.9303 15.7281 17.6513 15.7281C18.6526 15.7281 19.0531 15.2754 19.1732 14.9051C19.3334 14.4525 19.2533 13.9587 18.9329 13.6295ZM17.8515 14.4113C17.8115 14.6994 17.4911 14.9051 17.0906 14.9051C16.9704 14.9051 16.8502 14.9051 16.7301 14.864C15.9291 14.6582 15.1681 14.2467 14.5272 13.7118C15.0479 13.6295 15.6086 13.5884 16.1293 13.5884C16.4898 13.5884 16.8502 13.6295 17.2107 13.6707C17.5712 13.753 17.9717 13.9175 17.8515 14.4113ZM10.6823 5.31763C10.7624 5.19418 10.8825 5.11189 11.0427 5.07074C11.4433 5.07074 11.5234 5.52337 11.5234 5.93485C11.4833 6.88125 11.3231 7.78651 11.0427 8.69176C10.3619 6.9224 10.442 5.72911 10.6823 5.31763ZM12.9252 13.218C12.4846 13.3003 12.044 13.4238 11.6035 13.5472C11.2831 13.6295 10.9626 13.753 10.6022 13.8353C10.7624 13.4649 10.9226 13.0946 11.0828 12.7654C11.2831 12.3128 11.4433 11.8602 11.6035 11.4075C11.7637 11.6544 11.8838 11.8602 12.044 12.0659C12.3244 12.4774 12.6448 12.8477 12.9252 13.218ZM8.07892 15.6046C7.07763 17.2505 6.07633 18.3204 5.51561 18.3204C5.43551 18.3204 5.31535 18.2792 5.2753 18.2381C5.15514 18.1558 5.11509 17.9912 5.15514 17.8678C5.23525 17.2505 6.39675 16.3864 8.07892 15.6046Z" fill="white"/>
</svg>
