<svg width="32" height="32" viewBox="0 0 32 32" fill="none" xmlns="http://www.w3.org/2000/svg">
<path d="M0 8C0 3.58172 3.58172 0 8 0H24C28.4183 0 32 3.58172 32 8V24C32 28.4183 28.4183 32 24 32H8C3.58172 32 0 28.4183 0 24V8Z" fill="#584CCC"/>
<path d="M24.6877 18.2639C24.1055 17.616 22.9897 17.317 21.3888 17.317C20.5156 17.317 19.5939 17.4166 18.7206 17.5662C18.1385 17.0179 17.6534 16.37 17.1682 15.7221C16.8286 15.2237 16.4891 14.7253 16.198 14.177C16.6831 12.7815 16.9742 11.2863 17.0712 9.79106C17.0712 8.44537 16.5376 7 15.0822 7C14.5971 7 14.1119 7.29904 13.8694 7.74761C13.2387 8.84409 13.4813 11.0869 14.5 13.4294C14.1605 14.4761 13.7724 15.5227 13.3357 16.669C12.9476 17.6658 12.511 18.6128 11.9774 19.5099C10.4735 20.108 7.32018 21.6032 7.02911 23.248C6.93208 23.7464 7.07762 24.2448 7.46572 24.5438C7.80531 24.8428 8.29043 25.0422 8.77556 24.9924C10.6675 24.9924 12.5595 22.301 13.8694 19.9585C14.5971 19.7093 15.3248 19.4601 16.101 19.2607C16.9257 19.0614 17.7019 18.862 18.4296 18.7125C20.4671 20.5067 22.262 20.8058 23.1353 20.8058C24.3481 20.8058 24.8332 20.2575 24.9787 19.809C25.1728 19.2607 25.0758 18.6626 24.6877 18.2639ZM23.3778 19.2109C23.3293 19.5598 22.9412 19.809 22.4561 19.809C22.3106 19.809 22.165 19.809 22.0195 19.7591C21.0492 19.5099 20.1275 19.0115 19.3513 18.3636C19.982 18.2639 20.6611 18.2141 21.2918 18.2141C21.7284 18.2141 22.165 18.2639 22.6016 18.3138C23.0382 18.4134 23.5234 18.6128 23.3778 19.2109ZM14.6941 8.19617C14.7911 8.04665 14.9367 7.94697 15.1307 7.89713C15.6158 7.89713 15.7129 8.44537 15.7129 8.94377C15.6643 10.0901 15.4703 11.1866 15.1307 12.2831C14.306 10.1399 14.403 8.69457 14.6941 8.19617ZM17.4108 17.7655C16.8772 17.8652 16.3435 18.0147 15.8099 18.1642C15.4218 18.2639 15.0337 18.4134 14.5971 18.5131C14.7911 18.0646 14.9852 17.616 15.1792 17.2173C15.4218 16.669 15.6158 16.1208 15.8099 15.5725C16.0039 15.8716 16.1495 16.1208 16.3435 16.37C16.6831 16.8684 17.0712 17.317 17.4108 17.7655ZM11.5408 20.6563C10.328 22.6499 9.11515 23.9457 8.43597 23.9457C8.33895 23.9457 8.19341 23.8959 8.1449 23.846C7.99936 23.7464 7.95085 23.547 7.99936 23.3975C8.09638 22.6499 9.50325 21.6032 11.5408 20.6563Z" fill="white"/>
</svg>
