<svg width="96" height="96" viewBox="0 0 96 96" fill="none" xmlns="http://www.w3.org/2000/svg">
<path fill-rule="evenodd" clip-rule="evenodd" d="M52.2476 53.33L39.6276 35.03C32.6176 24.86 39.8976 11 52.2476 11C64.5976 11 71.8776 24.86 64.8676 35.03L52.2476 53.33ZM52.2476 33.63C56.2776 33.63 59.5476 30.36 59.5476 26.33C59.5476 22.3 56.2776 19.03 52.2476 19.03C48.2176 19.03 44.9476 22.3 44.9476 26.33C44.9476 30.36 48.2176 33.63 52.2476 33.63Z" fill="#FCA700"/>
<path d="M42.7276 79.37C45.7276 80.18 49.0076 80.56 52.4476 80.56C55.8876 80.56 58.8676 80.18 61.7776 79.4C68.0276 77.71 73.1176 74.11 75.6876 68.16C76.8376 65.49 77.5076 62.36 77.5076 58.7C77.5076 55.04 76.8376 51.81 75.6676 49.11C73.0876 43.16 68.0076 39.56 61.7776 37.87C58.8676 37.08 55.7076 36.7 52.4476 36.7C49.0176 36.7 45.7376 37.08 42.7276 37.89C36.4176 39.59 31.3776 43.18 28.8276 49.1C27.6576 51.8 26.9976 54.97 26.9976 58.69C26.9976 62.41 27.6476 65.48 28.7976 68.15C31.3376 74.06 36.3876 77.66 42.7176 79.36L42.7276 79.37Z" fill="#82B536"/>
<path fill-rule="evenodd" clip-rule="evenodd" d="M61.7776 37.87C58.8576 37.09 55.7076 36.71 52.4376 36.71C49.0076 36.71 45.7276 37.1 42.7176 37.9C42.4076 37.99 42.0876 38.08 41.7876 38.17L52.2576 53.34L62.7276 38.15C62.4176 38.05 62.0976 37.96 61.7776 37.87Z" fill="#164B35"/>
<path d="M17.2375 58.34C15.5875 58.46 15.5875 59.57 17.2375 59.69C19.5675 59.86 22.0275 59.94 25.1775 59.95C28.7475 59.9 29.6375 59.67 32.0575 59.69C36.1475 59.69 43.0475 60 44.7075 60.08C44.9575 60.09 45.1975 60.09 45.4475 60.08C47.2075 60.04 54.9275 59.87 61.5875 59.95C66.2875 59.95 69.1875 59.95 70.7075 59.95C74.2975 59.95 76.9775 59.83 79.6075 59.62C81.0475 59.5 81.0575 58.53 79.6075 58.42C76.9775 58.21 74.2975 58.09 70.7075 58.09C69.3175 58.09 66.4075 57.82 62.3075 57.78C61.6375 57.78 60.9675 57.79 60.3075 57.83C54.5975 58.19 47.1675 58.09 47.1675 58.09C47.1675 58.09 36.0975 58.09 31.4175 58.09C27.8975 58.09 26.2075 58.09 25.1675 58.09C22.0175 58.09 19.5675 58.19 17.2275 58.35L17.2375 58.34Z" fill="#101214"/>
<path d="M47.6875 36.3801C47.9475 36.2101 48.1275 36.1201 48.2675 35.9801C48.4075 35.8301 48.4875 35.6701 48.4875 35.5101C48.4875 35.3501 48.3975 35.2101 48.1775 35.1201C47.9575 35.0201 47.5875 34.9701 47.1975 35.1201C46.0675 35.5101 45.1475 36.2301 44.3275 37.0701C43.5175 37.9301 42.7275 38.9201 42.0275 40.1201C41.2375 41.4901 40.8875 42.4001 40.5775 43.1901C40.2775 43.9901 40.0375 44.6601 39.6475 45.6401C38.9875 47.2901 38.1975 49.5401 37.6475 51.5901C37.0775 53.6401 36.7275 55.4801 36.5975 56.1901C36.5675 56.4001 36.5375 56.6201 36.5175 56.8301C36.4575 57.6001 36.2975 59.6701 36.3975 62.2801C36.4975 64.8901 36.9475 68.0301 37.7975 70.8501C39.0475 74.8201 40.5975 76.9801 41.3275 78.0901C43.1975 80.6801 45.0775 82.2401 47.0575 83.4201C48.1475 84.0901 48.6575 83.2701 47.7775 82.4501C46.1375 80.9901 44.5775 79.4101 42.8675 77.0101C42.2375 76.0501 41.0875 73.9501 40.0875 70.7601C39.9275 70.2401 39.7175 69.7401 39.5675 69.2201C38.7675 67.0101 38.3675 64.2901 38.2975 62.1601C38.2375 60.0201 38.3975 58.4801 38.3975 58.4801C38.3975 58.4801 38.5475 56.1701 39.0875 53.4201C39.6075 50.6701 40.5975 47.5201 41.3575 45.7201C42.4775 43.0101 43.2075 41.8101 43.6475 41.0701C44.2975 39.9401 44.9775 39.0201 45.6275 38.2101C46.2875 37.4001 46.9775 36.7501 47.7175 36.3501L47.6875 36.3801Z" fill="#101214"/>
<path d="M55.6475 82.66C55.3875 82.83 55.2075 82.92 55.0675 83.06C54.9275 83.21 54.8475 83.37 54.8475 83.53C54.8475 83.68 54.9375 83.83 55.1575 83.92C55.3775 84.02 55.7475 84.07 56.1375 83.92C57.2675 83.53 58.1875 82.81 59.0075 81.97C59.8175 81.11 60.6075 80.12 61.3075 78.92C62.0975 77.55 62.4475 76.64 62.7575 75.85C63.0575 75.05 63.2975 74.38 63.6875 73.4C64.3475 71.75 65.1375 69.5 65.6875 67.45C66.2575 65.4 66.6075 63.56 66.7375 62.85C66.7675 62.64 66.7975 62.42 66.8075 62.21C66.8775 61.44 67.0275 59.37 66.9275 56.76C66.8275 54.15 66.3775 51.01 65.5275 48.19C64.2775 44.22 62.7275 42.06 61.9975 40.95C60.1275 38.36 58.2475 36.8 56.2675 35.62C55.1775 34.95 54.6675 35.77 55.5575 36.59C57.1975 38.05 58.7575 39.63 60.4675 42.03C61.0975 42.99 62.2475 45.09 63.2475 48.28C63.4075 48.8 63.6175 49.3 63.7675 49.82C64.5675 52.03 64.9675 54.75 65.0275 56.88C65.0875 59.02 64.9275 60.56 64.9275 60.56C64.9275 60.56 64.7775 62.87 64.2375 65.62C63.7175 68.37 62.7275 71.52 61.9675 73.32C60.8475 76.03 60.1175 77.23 59.6775 77.97C59.0275 79.1 58.3475 80.02 57.6975 80.83C57.0375 81.64 56.3475 82.29 55.6075 82.69L55.6475 82.66Z" fill="#101214"/>
</svg>
