<svg width="96" height="96" viewBox="0 0 96 96" fill="none" xmlns="http://www.w3.org/2000/svg">
<path fill-rule="evenodd" clip-rule="evenodd" d="M52.2476 53.33L39.6276 35.03C32.6176 24.86 39.8976 11 52.2476 11C64.5976 11 71.8776 24.86 64.8676 35.03L52.2476 53.33ZM52.2476 33.63C56.2776 33.63 59.5476 30.36 59.5476 26.33C59.5476 22.3 56.2776 19.03 52.2476 19.03C48.2176 19.03 44.9476 22.3 44.9476 26.33C44.9476 30.36 48.2176 33.63 52.2476 33.63Z" fill="#FCA700"/>
<path d="M42.7276 79.37C45.7276 80.18 49.0076 80.56 52.4476 80.56C55.8876 80.56 58.8676 80.18 61.7776 79.4C68.0276 77.71 73.1176 74.11 75.6876 68.16C76.8376 65.49 77.5076 62.36 77.5076 58.7C77.5076 55.04 76.8376 51.81 75.6676 49.11C73.0876 43.16 68.0076 39.56 61.7776 37.87C58.8676 37.08 55.7076 36.7 52.4476 36.7C49.0176 36.7 45.7376 37.08 42.7276 37.89C36.4176 39.59 31.3776 43.18 28.8276 49.1C27.6576 51.8 26.9976 54.97 26.9976 58.69C26.9976 62.41 27.6476 65.48 28.7976 68.15C31.3376 74.06 36.3876 77.66 42.7176 79.36L42.7276 79.37Z" fill="#82B536"/>
<path fill-rule="evenodd" clip-rule="evenodd" d="M61.7776 37.87C58.8576 37.09 55.7076 36.71 52.4376 36.71C49.0076 36.71 45.7276 37.1 42.7176 37.9C42.4076 37.99 42.0876 38.08 41.7876 38.17L52.2576 53.34L62.7276 38.15C62.4176 38.05 62.0976 37.96 61.7776 37.87Z" fill="#164B35"/>
</svg>
