<svg width="80" height="80" viewBox="0 0 80 80" fill="none" xmlns="http://www.w3.org/2000/svg">
<path d="M14.01 45.6323L21.75 51.2123L8.74 69.2523L1 63.6723L14.01 45.6323Z" fill="#4B4D51"/>
<path d="M12.3201 24.9223C19.4101 17.8423 30.9401 17.8423 38.0201 24.9223C45.1001 32.0123 45.1001 43.5423 38.0201 50.6223C30.9301 57.7023 19.4001 57.7023 12.3201 50.6223C5.2401 43.5323 5.2301 32.0023 12.3201 24.9223ZM16.9401 29.5523C12.4101 34.0823 12.4101 41.4723 16.9401 46.0023C21.4701 50.5323 28.8601 50.5323 33.3901 46.0023C37.9201 41.4723 37.9201 34.0823 33.3901 29.5523C28.8601 25.0223 21.4701 25.0223 16.9401 29.5523Z" fill="#4B4D51"/>
<mask id="mask0_213_30017" style="mask-type:luminance" maskUnits="userSpaceOnUse" x="27" y="16" width="43" height="44">
<path d="M45.86 40.3425H66.53C66.02 50.7425 57.43 59.0125 46.9 59.0125C36.37 59.0125 27.25 50.2125 27.25 39.3625C27.25 28.5125 35.49 20.2825 45.86 19.7425V40.3525V40.3425ZM50.18 16.5425C49.83 16.5425 49.48 16.5425 49.14 16.5725V37.1825H69.81C69.83 36.8525 69.83 36.5325 69.83 36.1925C69.83 25.3425 61.03 16.5425 50.18 16.5425Z" fill="white"/>
</mask>
<g mask="url(#mask0_213_30017)">
<path d="M135.03 -49.4103L47.9497 -49.304L48.0561 37.776L135.136 37.6696L135.03 -49.4103Z" fill="#AF59E1"/>
<path d="M135.136 37.6695L48.0562 37.7759L48.1625 124.856L135.242 124.749L135.136 37.6695Z" fill="#E56E00"/>
<path d="M48.0565 37.7757L-39.0234 37.8821L-38.917 124.962L48.1629 124.856L48.0565 37.7757Z" fill="#6A9A23"/>
<path d="M47.95 -49.3039L-39.1299 -49.1975L-39.0235 37.8824L48.0564 37.776L47.95 -49.3039Z" fill="#1558BC"/>
</g>
<path d="M64.2198 18.5324C64.2698 18.7924 65.3598 19.0424 65.5298 18.8724C65.7698 18.6224 65.9398 18.3524 66.0798 17.9724C66.1798 17.5224 66.0198 17.3324 66.1698 17.0424C66.3698 16.5324 67.0698 15.8724 67.2498 15.7324C67.2798 15.7124 67.2898 15.6824 67.2998 15.6524C67.3698 15.4324 67.7398 14.4724 68.3298 13.8424C68.6898 13.3624 68.9398 13.0824 69.0698 12.9424C69.3698 12.6024 69.5298 12.2924 69.6498 11.9124C69.7098 11.7024 69.0998 10.9524 68.8598 11.0024C68.4298 11.0924 68.0498 11.2924 67.6898 11.6724C67.5498 11.8224 67.0598 11.9624 66.6498 12.4224C66.5798 12.4924 66.5298 12.5824 66.5098 12.6924C66.2898 13.5824 65.6698 14.4424 65.6698 14.4424C65.6698 14.4424 65.4598 14.7824 65.2398 15.2224C65.0098 15.6524 64.7798 16.1724 64.6398 16.4824C64.4498 16.9624 64.3598 17.1924 64.3198 17.3424C64.1698 17.7824 64.1498 18.1624 64.2298 18.5324H64.2198Z" fill="#E2E3E4"/>
<path d="M69.9602 21.9323C69.8102 22.1223 70.1402 23.1823 70.4402 23.1923C70.8602 23.2123 71.2802 23.1123 71.7202 22.8523C72.2002 22.5023 72.1602 22.2223 72.4802 22.0223C72.9902 21.6523 73.9603 21.1623 74.2003 21.0423C74.2303 21.0223 74.2602 21.0023 74.2902 20.9723C74.4602 20.7623 75.1402 19.8223 75.8702 19.2223C76.3402 18.7523 76.6302 18.4923 76.7902 18.3523C77.1502 18.0223 77.3503 17.7223 77.5203 17.3423C77.6103 17.1323 77.0702 16.3223 76.8202 16.3623C76.3702 16.4223 75.9602 16.5923 75.5502 16.9523C75.3902 17.0923 74.8803 17.1923 74.4103 17.5923C74.3303 17.6523 74.2702 17.7423 74.2302 17.8423C73.8902 18.7023 73.0702 19.3623 73.0702 19.3623C73.0702 19.3623 71.9502 20.4423 71.4402 20.7923C71.0602 21.0723 70.8802 21.1823 70.7602 21.2523C70.4202 21.4723 70.1802 21.6723 69.9602 21.9423V21.9323Z" fill="#E2E3E4"/>
<path d="M71.4801 30.0823C71.3101 30.2623 71.6701 31.3223 71.9201 31.3623C72.2701 31.4223 72.6101 31.3923 73.0101 31.2623C73.4501 31.0623 73.4801 30.8023 73.8001 30.7223C74.3201 30.5423 75.3001 30.5323 75.5301 30.5423C75.5601 30.5423 75.6001 30.5423 75.6301 30.5223C75.8401 30.4023 76.77 29.9123 77.64 29.6923C78.24 29.4823 78.6001 29.3523 78.8001 29.2923C79.2501 29.1323 79.56 28.9023 79.82 28.5923C79.97 28.4223 79.65 27.5023 79.43 27.4523C79.03 27.3623 78.6501 27.3723 78.1901 27.5223C78.0101 27.5823 77.5601 27.4523 77.0201 27.5923C76.9301 27.6123 76.8501 27.6623 76.7801 27.7323C76.1701 28.3223 75.2001 28.5523 75.2001 28.5523C75.2001 28.5523 73.7901 29.0323 73.2001 29.2323C72.7501 29.3923 72.5401 29.4623 72.4101 29.5123C72.0101 29.6523 71.7301 29.8423 71.4901 30.1023L71.4801 30.0823Z" fill="#E2E3E4"/>
<path d="M38.02 24.9223C37.34 24.2423 36.61 23.6523 35.86 23.1023C34 24.3623 32.37 25.9423 31.05 27.7523C31.89 28.2423 32.68 28.8323 33.4 29.5523C35.67 31.8223 36.8 34.8123 36.8 37.7923C36.8 40.7723 35.66 43.7423 33.4 46.0023C32.26 47.1423 30.95 47.9923 29.54 48.5523C30.6 50.5523 31.99 52.3423 33.64 53.8523C35.22 53.0223 36.7 51.9523 38.02 50.6223C41.56 47.0823 43.33 42.4323 43.33 37.7723C43.33 33.1123 41.56 28.4623 38.02 24.9123V24.9223Z" fill="#101214"/>
</svg>
