<svg width="96" height="96" viewBox="0 0 96 96" fill="none" xmlns="http://www.w3.org/2000/svg">
<path d="M43.3001 26.37L48.2101 23.53L69.2801 35.69V47.85L53.1201 57.18V69.35L48.2101 72.19L27.1401 60.03V48.32L43.3001 38.99V26.37Z" fill="#BF63F3"/>
<path d="M69.2899 47.86L85.4499 57.19V75.85L69.2899 85.18L53.1299 75.85V69.36L69.2899 60.03V47.87V47.86Z" fill="#FCA700"/>
<path d="M69.2899 47.86V60.02L53.1299 69.35V57.18L69.2899 47.85V47.86Z" fill="#101214"/>
<path d="M27.15 11L43.31 20.33V26.37L27.15 35.7V48.32L11 38.99V20.33L27.15 11Z" fill="#82B536"/>
<path d="M43.3001 26.37V38.99L27.1401 48.32V35.7L43.3001 26.37Z" fill="#101214"/>
<path d="M30.6002 24.3097C28.9902 25.7197 29.7602 26.5397 31.4102 25.3897C33.8102 23.8197 36.4702 22.3697 40.1402 21.2497C42.2202 20.5997 43.5602 20.3397 44.7202 20.1097C45.8902 19.8997 46.9102 19.7797 48.4002 19.7997C50.9202 19.8197 54.2802 20.3697 57.0802 21.4097C57.7702 21.6897 58.4402 21.9597 59.0702 22.2097C59.6702 22.5297 60.2402 22.8197 60.7402 23.0897C60.9902 23.2197 61.2302 23.3497 61.4602 23.4697C61.6702 23.6097 61.8702 23.7397 62.0502 23.8597C62.4102 24.0997 62.7002 24.2897 62.9102 24.4297C63.1602 24.5897 63.4102 24.7497 63.6702 24.8997C64.1002 25.2197 64.9102 25.7797 65.9502 26.5597C66.4402 26.9897 66.9902 27.4797 67.5902 27.9997C68.1802 28.5397 68.7302 29.1997 69.3602 29.8497C69.9702 30.5197 70.5002 31.3197 71.1102 32.0897C71.6602 32.8997 72.1802 33.7797 72.7102 34.6597C73.1402 35.5897 73.6602 36.4997 74.0102 37.4797C74.3402 38.4597 74.7802 39.4097 74.9702 40.3997C75.1402 41.0897 75.3302 41.7497 75.4702 42.3797C75.5702 43.0197 75.6602 43.6297 75.7502 44.1997C75.7902 44.4897 75.8402 44.7697 75.8702 45.0397C75.8802 45.3097 75.9002 45.5797 75.9102 45.8397C75.9402 46.3597 75.9602 46.8497 75.9902 47.2997C76.0602 49.1297 75.9002 50.4797 75.7902 51.3897C75.2002 55.7197 74.0602 58.8397 72.6602 61.7597C71.8502 63.3397 72.6502 63.8997 73.7002 62.3597C75.5402 59.5297 77.0002 56.2597 77.6402 51.6297C77.7502 50.7297 77.9802 49.3497 78.0102 47.4997C77.9902 46.5797 78.0202 45.5397 77.9202 44.4097C77.8502 43.8397 77.7702 43.2497 77.6902 42.6397C77.6402 42.3297 77.6102 42.0097 77.5502 41.6997C77.4702 41.3897 77.3902 41.0597 77.3202 40.7397C77.0902 39.8897 76.9202 39.0297 76.5502 38.2397C75.2202 34.7297 72.9402 31.0597 70.7302 28.5497C70.1702 27.9297 69.6402 27.3597 69.1702 26.8497C68.6602 26.3797 68.2002 25.9697 67.8302 25.6197C67.0902 24.9097 66.6002 24.5697 66.6002 24.5697C66.6002 24.5697 65.8802 24.0297 64.7202 23.1697C64.1002 22.7897 63.3702 22.3497 62.5602 21.8597C61.7302 21.4097 60.7702 20.9797 59.7902 20.4997C58.7602 20.1397 57.7102 19.6897 56.6202 19.3797C56.0702 19.2397 55.5202 19.0997 54.9702 18.9497L54.1502 18.7497C53.8702 18.7097 53.6002 18.6697 53.3302 18.6197C52.2402 18.4597 51.2002 18.2597 50.2202 18.2497C49.2502 18.2197 48.3602 18.1197 47.6002 18.1597C45.3102 18.2097 43.6302 18.4897 42.3702 18.7397C41.1002 18.9897 40.2502 19.2397 39.6002 19.4397C35.6802 20.6497 32.9102 22.3697 30.6102 24.2897L30.6002 24.3097Z" fill="#101214"/>
<path d="M65.8803 71.3497C67.5103 69.9197 66.7403 69.0997 65.0703 70.2697C62.6503 71.8697 59.9503 73.3297 56.2203 74.4597C54.1103 75.1097 52.7503 75.3797 51.5703 75.5897C50.3803 75.7997 49.3503 75.9097 47.8403 75.8797C45.2903 75.8797 41.8903 75.2497 39.0603 74.1697C36.2003 73.1497 34.0203 71.6097 33.1703 71.0497C32.9103 70.8897 32.6603 70.7297 32.4203 70.5397C31.5603 69.9097 29.0803 68.2797 26.7203 65.4397C24.3403 62.6397 22.2103 58.6197 21.2803 54.6197C21.1903 54.2697 21.1003 53.9297 21.0103 53.5897C20.9303 53.2597 20.9003 52.9197 20.8403 52.5897C20.7403 51.9397 20.6503 51.3297 20.5603 50.7397C20.5003 49.5597 20.4303 48.5097 20.4103 47.5797C20.4303 45.7197 20.6103 44.3597 20.7503 43.4397C21.4703 39.0697 22.7603 35.9597 24.2703 33.0397C25.1503 31.4697 24.3703 30.8797 23.2503 32.4097C21.3003 35.2097 19.6903 38.4797 18.9003 43.1397C18.6303 44.9197 17.8303 48.8097 18.9003 54.1997C19.1103 55.0597 19.3503 55.9197 19.6203 56.7597C20.8803 60.3597 23.1203 64.1197 25.3103 66.7097C26.4503 67.9597 27.4203 69.0497 28.2203 69.7097C28.6003 70.0597 28.9003 70.3397 29.1103 70.5297C29.3103 70.7297 29.4403 70.8097 29.4403 70.8097C29.4403 70.8097 30.1703 71.3597 31.3403 72.2297C31.9303 72.6597 32.7003 73.0797 33.5103 73.5897C34.3203 74.1197 35.3103 74.4997 36.2903 74.9997C37.3003 75.4497 38.4003 75.8097 39.4803 76.1997C40.6003 76.4597 41.7103 76.8397 42.8103 76.9997C45.0103 77.4097 47.0803 77.4797 48.6203 77.4997C50.9403 77.4597 52.6403 77.1897 53.9303 76.9497C55.2203 76.6997 56.0803 76.4497 56.7403 76.2497C60.7103 75.0297 63.5203 73.2897 65.8603 71.3397L65.8803 71.3497Z" fill="#101214"/>
<path d="M64.6505 65.9597C64.7105 66.7497 65.8405 66.6097 65.9905 66.1197C66.2505 65.3997 66.6405 64.7397 67.3605 64.1397C68.1805 63.4897 68.4705 63.2397 69.2505 63.1997C69.9205 63.1797 70.7905 63.5197 71.3005 64.0897C71.8305 64.6497 72.0005 65.2797 72.0405 65.5097C72.0505 65.5797 72.0805 65.6397 72.1005 65.7097C72.1905 65.9297 72.4105 66.6297 72.1705 67.4897C72.0505 67.9097 71.8105 68.3497 71.4505 68.7097C71.0905 69.0597 70.6305 69.3397 70.1505 69.4497C68.7605 69.8097 67.9105 69.2597 67.5605 69.0397C66.6905 68.4197 66.2205 67.6997 65.9105 66.8697C65.7705 66.4297 64.7905 66.3197 64.7105 66.9997C64.6205 68.1697 65.0905 69.5697 66.4905 70.5897C66.7705 70.7697 67.1705 71.1097 67.8205 71.3797C68.4605 71.6497 69.3605 71.8397 70.4005 71.6497C70.7305 71.5797 71.0605 71.4597 71.3505 71.2897C72.6205 70.5697 73.6305 69.2497 73.9705 68.0497C74.1505 67.4597 74.2005 66.9297 74.2105 66.5597C74.2105 66.1897 74.1905 65.9597 74.1905 65.9597C74.1905 65.9597 74.1705 65.6297 74.0205 65.1097C73.8705 64.5997 73.5705 63.9097 73.0405 63.3097C72.5205 62.6997 71.7905 62.1697 71.0205 61.8997C70.2605 61.6097 69.4905 61.5497 68.9305 61.5997C68.0905 61.6597 67.4905 61.8997 67.0705 62.1197C66.6405 62.3297 66.3805 62.5397 66.1905 62.6897C65.0205 63.6697 64.6205 64.9097 64.6505 65.9697V65.9597Z" fill="#101214"/>
<path d="M22.5103 28.3597C22.5703 29.1497 23.7003 29.0097 23.8503 28.5197C24.1103 27.7997 24.5003 27.1397 25.2203 26.5397C26.0403 25.8897 26.3303 25.6397 27.1103 25.5997C27.7803 25.5797 28.6503 25.9197 29.1603 26.4897C29.6903 27.0497 29.8603 27.6797 29.9003 27.9097C29.9103 27.9797 29.9403 28.0397 29.9603 28.1097C30.0503 28.3297 30.2703 29.0297 30.0303 29.8897C29.9103 30.3097 29.6703 30.7497 29.3103 31.1097C28.9503 31.4597 28.4903 31.7397 28.0103 31.8497C26.6203 32.2097 25.7703 31.6597 25.4203 31.4397C24.5503 30.8197 24.0803 30.0997 23.7703 29.2697C23.6303 28.8297 22.6503 28.7197 22.5703 29.3997C22.4803 30.5697 22.9503 31.9697 24.3503 32.9897C24.6303 33.1697 25.0303 33.5097 25.6803 33.7797C26.3203 34.0497 27.2203 34.2397 28.2603 34.0497C28.5903 33.9797 28.9203 33.8597 29.2103 33.6897C30.4803 32.9697 31.4903 31.6497 31.8303 30.4497C32.0103 29.8597 32.0603 29.3297 32.0703 28.9597C32.0703 28.5897 32.0503 28.3597 32.0503 28.3597C32.0503 28.3597 32.0303 28.0297 31.8803 27.5097C31.7303 26.9997 31.4303 26.3097 30.9003 25.7097C30.3803 25.0997 29.6503 24.5697 28.8803 24.2997C28.1203 24.0097 27.3503 23.9497 26.7903 23.9997C25.9503 24.0597 25.3503 24.2997 24.9303 24.5197C24.5003 24.7297 24.2403 24.9397 24.0503 25.0897C22.8803 26.0697 22.4803 27.3097 22.5103 28.3697V28.3597Z" fill="#101214"/>
</svg>
