<svg width="96" height="96" viewBox="0 0 96 96" fill="none" xmlns="http://www.w3.org/2000/svg">
<path d="M43.3001 26.37L48.2101 23.53L69.2801 35.69V47.85L53.1201 57.18V69.35L48.2101 72.19L27.1401 60.03V48.32L43.3001 38.99V26.37Z" fill="#BF63F3"/>
<path d="M69.2899 47.86L85.4499 57.19V75.85L69.2899 85.18L53.1299 75.85V69.36L69.2899 60.03V47.87V47.86Z" fill="#FCA700"/>
<path d="M69.2899 47.86V60.02L53.1299 69.35V57.18L69.2899 47.85V47.86Z" fill="#101214"/>
<path d="M27.15 11L43.31 20.33V26.37L27.15 35.7V48.32L11 38.99V20.33L27.15 11Z" fill="#82B536"/>
<path d="M43.3001 26.37V38.99L27.1401 48.32V35.7L43.3001 26.37Z" fill="#101214"/>
</svg>
