<svg width="16" height="16" viewBox="0 0 16 16" fill="none" xmlns="http://www.w3.org/2000/svg">
<path d="M0 4C0 1.79086 1.79086 0 4 0H12C14.2091 0 16 1.79086 16 4V12C16 14.2091 14.2091 16 12 16H4C1.79086 16 0 14.2091 0 12V4Z" fill="#FF3621"/>
<path d="M12.6441 10.5536V8.83549L12.4584 8.71941L8.00065 11.1572L3.77511 8.83549V7.83715L8.00065 10.1357L12.6673 7.60498V5.91012L12.4816 5.79404L8.00065 8.25506L3.93763 6.02621L8.00065 3.79735L11.2743 5.58508L11.5297 5.44578V5.26004L8.00065 3.33301L3.33398 5.86369V6.11908L8.00065 8.67297L12.2262 6.35125V7.37281L8.00065 9.69453L3.51972 7.2335L3.33398 7.34959V9.06767L8.00065 11.5983L12.2262 9.29984V10.2982L8.00065 12.6199L3.51972 10.1821L3.33398 10.2982V10.5536L8.00065 13.0843L12.6441 10.5536Z" fill="white"/>
</svg>
