<svg width="20" height="20" viewBox="0 0 20 20" fill="none" xmlns="http://www.w3.org/2000/svg">
<path d="M0 5C0 2.23858 2.23858 0 5 0H15C17.7614 0 20 2.23858 20 5V15C20 17.7614 17.7614 20 15 20H5C2.23858 20 0 17.7614 0 15V5Z" fill="#FF3621"/>
<path d="M14.9751 12.7363V10.8955L14.7761 10.7711L10 13.3831L5.47264 10.8955V9.82587L10 12.2886L15 9.57711V7.76119L14.801 7.63682L10 10.2736L5.64677 7.88557L10 5.49751L13.5075 7.41294L13.7811 7.26368V7.06468L10 5L5 7.71144V7.98507L10 10.7214L14.5274 8.23383V9.32836L10 11.8159L5.199 9.1791L5 9.30348V11.1443L10 13.8557L14.5274 11.393V12.4627L10 14.9502L5.199 12.3383L5 12.4627V12.7363L10 15.4478L14.9751 12.7363Z" fill="white"/>
</svg>
