<svg width="24" height="24" viewBox="0 0 24 24" fill="none" xmlns="http://www.w3.org/2000/svg">
<path d="M0 6.39569C0 2.86345 2.86345 0 6.39569 0H17.6043C21.1366 0 24 2.86345 24 6.39569V17.6043C24 21.1366 21.1366 24 17.6043 24H6.39569C2.86345 24 0 21.1366 0 17.6043V6.39569Z" fill="#FF3621"/>
<path d="M18.156 15.2913V12.9367L17.9015 12.7776L11.7922 16.1186L6.00105 12.9367V11.5685L11.7922 14.7186L18.1879 11.2503V8.92745L17.9333 8.76836L11.7922 12.1412L6.22379 9.08655L11.7922 6.03189L16.2787 8.48198L16.6287 8.29107V8.03651L11.7922 5.39551L5.39648 8.86382V9.21383L11.7922 12.714L17.5833 9.53202V10.9321L11.7922 14.114L5.65104 10.7412L5.39648 10.9003V13.2549L11.7922 16.7232L17.5833 13.5731V14.9413L11.7922 18.1232L5.65104 14.7822L5.39648 14.9413V15.2913L11.7922 18.7596L18.156 15.2913Z" fill="white"/>
</svg>
