<svg width="32" height="32" viewBox="0 0 32 32" fill="none" xmlns="http://www.w3.org/2000/svg">
<path d="M0 8C0 3.58172 3.58172 0 8 0H24C28.4183 0 32 3.58172 32 8V24C32 28.4183 28.4183 32 24 32H8C3.58172 32 0 28.4183 0 24V8Z" fill="#FF3621"/>
<path d="M24.9552 20.9254V17.6119L24.597 17.3881L16 22.0896L7.85075 17.6119V15.6866L16 20.1194L25 15.2388V11.9701L24.6418 11.7463L16 16.4925L8.16418 12.194L16 7.89552L22.3134 11.3433L22.806 11.0746V10.7164L16 7L7 11.8806V12.3731L16 17.2985L24.1493 12.8209V14.791L16 19.2687L7.35821 14.5224L7 14.7463V18.0597L16 22.9403L24.1493 18.5075V20.4328L16 24.9104L7.35821 20.209L7 20.4328V20.9254L16 25.806L24.9552 20.9254Z" fill="white"/>
</svg>
