<svg width="96" height="96" viewBox="0 0 96 96" fill="none" xmlns="http://www.w3.org/2000/svg">
<path d="M58.0474 64.0605H53.3674L38.0574 20.3505H26.3274L11.3974 64.0605H6.56738V12.5605H58.0474V64.0505V64.0605ZM40.0574 53.9105L43.4274 64.0605H21.2774L24.5374 53.9105H40.0574ZM32.1074 27.3605C33.6374 33.3105 35.0074 38.4805 36.4174 42.9705L37.7374 46.9006H26.7674L28.0274 42.9705C29.3474 38.5705 30.6374 33.3805 32.1074 27.3605Z" fill="#BF63F3"/>
<path d="M64.1473 64.7005C57.8973 64.7005 53.2373 61.3605 53.2373 54.8705C53.2373 47.5405 59.1673 45.4205 65.6173 44.8105C71.2473 44.2505 73.5673 44.0205 73.5673 41.8805V41.7305C73.5673 38.9405 71.7173 37.3605 68.4373 37.3605C65.1573 37.3605 62.9473 39.0305 62.2473 41.1405L54.1773 39.7905C55.8473 34.1005 61.1273 30.8405 68.4673 30.8405C75.8073 30.8405 82.3673 34.0105 82.3673 41.9605V64.0505H74.0373V59.5005H73.7473C72.1673 62.5505 68.9973 64.6905 64.1573 64.6905L64.1473 64.7005ZM66.6373 58.5105C70.7473 58.5105 73.6173 55.7805 73.6173 52.3205V48.7705C72.5273 49.5305 69.0373 50.0005 67.1073 50.2705C63.8473 50.7405 61.6773 52.0005 61.6773 54.6405C61.6773 57.2805 63.7273 58.5105 66.6373 58.5105Z" fill="#1868DB"/>
<path d="M58.0475 63.3506C55.0975 61.8106 53.2275 58.9706 53.2275 54.8706C53.2275 50.7706 55.1675 48.1806 58.0475 46.7106V63.3506ZM58.0475 40.4406L54.1675 39.7906C54.8675 37.4106 56.1975 35.4606 58.0475 33.9906V40.4406Z" fill="#101214"/>
<path d="M6.7475 12.99C6.6275 11.67 5.5175 11.67 5.3975 12.99C5.2275 14.87 5.1475 16.84 5.1375 19.38C5.1875 22.26 5.4175 22.97 5.3975 24.92C5.3975 28.21 5.0875 33.76 5.0075 35.1C4.9975 35.3 4.9975 35.5 5.0075 35.69C5.0475 37.11 5.2175 43.32 5.1375 48.68C5.1375 52.46 5.1375 54.8 5.1375 56.02C5.1375 58.91 5.2575 61.06 5.4675 63.18C5.5875 64.34 6.5575 64.34 6.6675 63.18C6.8775 61.06 6.9975 58.91 6.9975 56.02C6.9975 54.9 7.2675 52.56 7.3075 49.26C7.3075 48.72 7.2975 48.19 7.2575 47.65C6.8975 43.05 6.9975 37.08 6.9975 37.08C6.9975 37.08 6.9975 28.17 6.9975 24.41C6.9975 21.58 6.9975 20.22 6.9975 19.38C6.9975 16.84 6.8975 14.87 6.7375 12.99H6.7475Z" fill="#101214"/>
<path d="M53.2477 75.54C52.2677 75.66 52.2677 76.77 53.2477 76.89C54.6477 77.06 56.1077 77.14 57.9977 77.15C60.1377 77.1 60.6677 76.87 62.1177 76.89C64.5677 76.89 68.6977 77.2 69.6877 77.28C69.8377 77.29 69.9777 77.29 70.1277 77.28C71.1777 77.24 75.8077 77.07 79.7877 77.15C82.5977 77.15 84.3377 77.15 85.2477 77.15C87.3977 77.15 88.9977 77.03 90.5677 76.82C91.4277 76.7 91.4277 75.73 90.5677 75.62C88.9977 75.41 87.3877 75.29 85.2477 75.29C84.4177 75.29 82.6777 75.02 80.2277 74.98C79.8277 74.98 79.4277 74.99 79.0277 75.03C75.6077 75.39 71.1677 75.29 71.1677 75.29C71.1677 75.29 64.5377 75.29 61.7477 75.29C59.6377 75.29 58.6277 75.29 58.0077 75.29C56.1177 75.29 54.6577 75.39 53.2577 75.55L53.2477 75.54Z" fill="#101214"/>
<path d="M53.0578 82.78C52.3278 82.9 52.3278 84.01 53.0578 84.13C54.0978 84.3 55.1778 84.38 56.5778 84.39C58.1578 84.34 58.5578 84.11 59.6278 84.13C61.4378 84.13 64.5078 84.44 65.2378 84.52C65.3478 84.53 65.4578 84.53 65.5678 84.52C66.3478 84.48 69.7778 84.31 72.7278 84.39C74.8078 84.39 76.0978 84.39 76.7778 84.39C78.3678 84.39 79.5578 84.27 80.7278 84.06C81.3678 83.94 81.3678 82.97 80.7278 82.86C79.5578 82.65 78.3678 82.53 76.7778 82.53C76.1578 82.53 74.8678 82.26 73.0478 82.22C72.7478 82.22 72.4578 82.23 72.1578 82.27C69.6178 82.63 66.3278 82.53 66.3278 82.53C66.3278 82.53 61.4178 82.53 59.3378 82.53C57.7778 82.53 57.0278 82.53 56.5678 82.53C55.1678 82.53 54.0778 82.63 53.0478 82.79L53.0578 82.78Z" fill="#101214"/>
<path d="M20.1076 67.95C19.5076 67.6 18.6976 68.38 19.2676 69C20.0276 69.81 20.8676 70.55 22.0076 71.43C23.3376 72.37 23.7976 72.44 24.6476 73.13C25.3776 73.7 26.3076 74.54 27.0676 75.32C27.4376 75.7 27.7976 76.09 27.9776 76.37C28.2076 76.67 28.4176 76.94 28.5876 77.17C28.8676 77.23 29.1076 77.29 29.3076 77.29H29.6476H29.8476C30.6476 77.25 34.1776 77.08 37.2176 77.16C39.3676 77.16 40.6976 77.16 41.3876 77.16C43.0276 77.16 44.2476 77.04 45.4576 76.83C46.1176 76.71 46.1176 75.74 45.4576 75.63C44.2576 75.42 43.0276 75.3 41.3876 75.3C40.7476 75.3 39.4276 75.03 37.5476 74.99C37.2376 74.99 36.9376 75 36.6376 75.04C34.0276 75.4 30.6376 75.3 30.6376 75.3C30.6376 75.3 30.3176 75.3 29.8176 75.3H29.6276C29.6276 75.3 29.5376 75.3 29.5276 75.25L29.4976 75.2L29.3076 74.99C29.1676 74.83 29.0276 74.7 28.8776 74.56C27.7076 73.45 26.2776 72.36 25.4376 71.69C24.1576 70.71 23.5376 70.24 23.1576 69.95C22.0076 69.08 21.0476 68.48 20.1276 67.96L20.1076 67.95Z" fill="#101214"/>
</svg>
