<svg width="96" height="96" viewBox="0 0 96 96" fill="none" xmlns="http://www.w3.org/2000/svg">
<path d="M58.0474 64.0605H53.3674L38.0574 20.3505H26.3274L11.3974 64.0605H6.56738V12.5605H58.0474V64.0505V64.0605ZM40.0574 53.9105L43.4274 64.0605H21.2774L24.5374 53.9105H40.0574ZM32.1074 27.3605C33.6374 33.3105 35.0074 38.4805 36.4174 42.9705L37.7374 46.9006H26.7674L28.0274 42.9705C29.3474 38.5705 30.6374 33.3805 32.1074 27.3605Z" fill="#BF63F3"/>
<path d="M64.1473 64.7005C57.8973 64.7005 53.2373 61.3605 53.2373 54.8705C53.2373 47.5405 59.1673 45.4205 65.6173 44.8105C71.2473 44.2505 73.5673 44.0205 73.5673 41.8805V41.7305C73.5673 38.9405 71.7173 37.3605 68.4373 37.3605C65.1573 37.3605 62.9473 39.0305 62.2473 41.1405L54.1773 39.7905C55.8473 34.1005 61.1273 30.8405 68.4673 30.8405C75.8073 30.8405 82.3673 34.0105 82.3673 41.9605V64.0505H74.0373V59.5005H73.7473C72.1673 62.5505 68.9973 64.6905 64.1573 64.6905L64.1473 64.7005ZM66.6373 58.5105C70.7473 58.5105 73.6173 55.7805 73.6173 52.3205V48.7705C72.5273 49.5305 69.0373 50.0005 67.1073 50.2705C63.8473 50.7405 61.6773 52.0005 61.6773 54.6405C61.6773 57.2805 63.7273 58.5105 66.6373 58.5105Z" fill="#1868DB"/>
<path d="M58.0475 63.3505C55.0975 61.8105 53.2275 58.9705 53.2275 54.8705C53.2275 50.7705 55.1675 48.1805 58.0475 46.7105V63.3505ZM58.0475 40.4405L54.1675 39.7905C54.8675 37.4105 56.1975 35.4605 58.0475 33.9905V40.4405Z" fill="#101214"/>
</svg>
