<svg width="96" height="96" viewBox="0 0 96 96" fill="none" xmlns="http://www.w3.org/2000/svg">
<path d="M37.03 66.999V78.199H21V87.189H74.96V78.199H58.92V66.999H37.03Z" fill="#82B536"/>
<path d="M83.94 24.249H12V66.999H83.94V24.249Z" fill="#1868DB"/>
<path d="M58.91 50.079H37.03V67.009H58.91V50.079Z" fill="#101214"/>
<path d="M37.03 39.309V51.939L47.98 58.259L58.92 51.939V39.309L47.98 32.989L37.03 39.309Z" fill="white"/>
<path d="M35.2899 12.1092C34.7099 12.5592 35.3099 13.4992 35.9499 13.2792C36.8499 12.9492 37.7899 12.5992 38.9899 12.1592C40.3299 11.6192 40.6399 11.3492 41.6099 11.1192C42.4299 10.9592 43.5599 10.8392 44.5599 10.8492C45.5599 10.8492 46.4299 10.9592 46.7599 10.9992C46.8599 11.0192 46.9599 11.0192 47.0599 11.0192C47.7499 10.9692 50.9599 11.0392 53.4799 12.0792C53.9299 12.2492 54.3399 12.3792 54.6899 12.5292C55.0399 12.6892 55.3599 12.8292 55.6299 12.9592C56.1899 13.1992 56.5699 13.4492 56.8399 13.5892C58.1099 14.2992 59.0599 14.8392 60.0099 15.3692C60.5499 15.6492 61.1999 14.9292 60.7799 14.4492C60.0299 13.5592 59.1399 12.7392 57.7499 11.9692C57.2199 11.6692 56.2099 10.7892 54.4899 10.1292C54.2099 10.0192 53.9299 9.92916 53.6299 9.87916C52.9899 9.79916 52.3199 9.64916 51.6599 9.54916C50.9999 9.46916 50.3699 9.32916 49.7999 9.26916C49.2399 9.19916 48.7499 9.13916 48.4099 9.09916C48.0599 9.06916 47.8599 9.05916 47.8599 9.05916C47.8599 9.05916 46.6399 8.94916 45.1599 9.02916C44.4199 9.05916 43.6199 9.14916 42.8799 9.23916C42.1399 9.37916 41.4599 9.46916 40.9599 9.60916C39.4499 9.96916 38.7499 10.2592 38.3099 10.4092C37.0099 10.8992 36.0599 11.4592 35.2499 12.1092H35.2899Z" fill="#101214"/>
<path d="M39.23 15.8492C38.86 16.1892 39.46 17.1292 39.89 17.0192C40.51 16.8592 41.12 16.6592 41.9 16.3792C42.76 16.0092 42.94 15.7592 43.57 15.6192C44.11 15.5092 44.85 15.4592 45.5 15.4992C46.15 15.5392 46.71 15.6392 46.93 15.6792C46.99 15.6892 47.06 15.6992 47.12 15.6992C47.57 15.6492 49.65 15.6392 51.28 16.3392C52.45 16.7392 53.11 17.1292 53.46 17.3192C54.29 17.7692 54.91 18.0992 55.59 18.3792C55.96 18.5292 56.62 17.8092 56.36 17.4592C55.9 16.8092 55.32 16.2192 54.38 15.6992C54.02 15.4992 53.38 14.8292 52.21 14.3592C52.02 14.2792 51.82 14.2292 51.62 14.1992C50.74 14.1192 49.77 13.9592 49.01 13.8692C48.63 13.8192 48.3 13.7792 48.07 13.7592C47.84 13.7392 47.7 13.7292 47.7 13.7292C47.7 13.7292 46.88 13.6592 45.88 13.7092C44.88 13.7492 43.72 13.9292 43.04 14.0992C42.02 14.3492 41.55 14.5392 41.25 14.6392C40.37 14.9792 39.74 15.3792 39.22 15.8692L39.23 15.8492Z" fill="#101214"/>
<path d="M42.6499 19.8392C42.4599 20.0792 43.0599 21.0192 43.3099 21.0092C43.6799 20.9892 44.0099 20.9292 44.4099 20.7892C44.8499 20.5692 44.9099 20.3392 45.2499 20.2692C45.8299 20.1192 46.8099 20.3892 47.0199 20.4792C47.0499 20.4892 47.0899 20.4992 47.1199 20.4892C47.3499 20.4392 48.4498 20.3592 49.2898 20.7592C49.8998 20.9692 50.2399 21.1692 50.4199 21.2692C50.8499 21.4992 51.1999 21.6192 51.6199 21.6892C51.8499 21.7192 52.5099 21.0092 52.3899 20.7692C52.1899 20.3292 51.8699 19.9492 51.3299 19.6392C51.1299 19.5192 50.7999 19.0292 50.1199 18.7392C50.0099 18.6892 49.8899 18.6692 49.7699 18.6692C49.2299 18.6892 48.6699 18.6292 48.2299 18.5892C47.7899 18.5392 47.4699 18.4992 47.4699 18.4992C47.4699 18.4992 46.9999 18.4592 46.4199 18.4892C45.8399 18.5092 45.1699 18.6192 44.7799 18.7092C44.1899 18.8492 43.9199 18.9692 43.7499 19.0292C43.2399 19.2292 42.8898 19.4992 42.6298 19.8392H42.6499Z" fill="#101214"/>
</svg>
