<svg width="96" height="96" viewBox="0 0 96 96" fill="none" xmlns="http://www.w3.org/2000/svg">
<path d="M54.3136 75.1249C54.3136 77.7749 53.2436 80.1849 51.4936 81.9249C49.7536 83.6649 47.3536 84.7349 44.7036 84.7349C42.0536 84.7349 39.6436 83.6649 37.9036 81.9249L35.0936 79.1149L31.1136 75.1349L21.4936 65.5149L8.45361 52.4749L22.0536 38.8749L35.1036 51.9249L44.7136 61.5349L48.6836 65.5049L51.5036 68.3249C53.2536 70.0649 54.3236 72.4649 54.3236 75.1149L54.3136 75.1249Z" fill="#FCA700"/>
<path d="M54.3135 33.4648V75.1248C54.3135 77.6348 53.3535 79.9148 51.7735 81.6348L51.7535 81.6548C51.6735 81.7548 51.5835 81.8348 51.4935 81.9248C51.2735 82.1448 51.0435 82.3448 50.8135 82.5448C50.4535 82.8348 50.0835 83.1048 49.6935 83.3448C49.5035 83.4648 49.3035 83.5648 49.1035 83.6748C48.9535 83.7548 48.8035 83.8248 48.6435 83.8948C48.5835 83.9248 48.5135 83.9548 48.4535 83.9848C48.0935 84.1248 47.7235 84.2648 47.3435 84.3648C47.1335 84.4248 46.9235 84.4748 46.7035 84.5248C46.5235 84.5648 46.3535 84.5948 46.1635 84.6248C46.1135 84.6248 46.0635 84.6448 46.0135 84.6448C45.8335 84.6648 45.6735 84.6848 45.4935 84.7048C45.2335 84.7248 44.9735 84.7348 44.7035 84.7348C42.0435 84.7348 39.6435 83.6648 37.9035 81.9248C36.1635 80.1748 35.0935 77.7748 35.0935 75.1248V33.4648H54.3235H54.3135Z" fill="#BF63F3"/>
<path d="M80.9535 52.4749L67.9135 65.5149L58.3035 75.1349L54.3235 79.1049L51.5035 81.9249C49.7635 83.6649 47.3635 84.7349 44.7135 84.7349C42.0635 84.7349 39.6535 83.6649 37.9135 81.9249C36.1735 80.1749 35.1035 77.7749 35.1035 75.1249C35.1035 72.4749 36.1735 70.0649 37.9135 68.3349L40.7335 65.5149L44.7135 61.5449L54.3235 51.9249L67.3635 38.8849L80.9635 52.4849L80.9535 52.4749Z" fill="#82B536"/>
<path d="M86.3635 65.5149V84.7449H44.7035C42.0435 84.7449 39.6435 83.6749 37.9035 81.9349C36.1635 80.1849 35.0935 77.7849 35.0935 75.1349C35.0935 72.4849 36.1635 70.0749 37.9035 68.3449C39.6435 66.6049 42.0435 65.5249 44.7035 65.5249H86.3635V65.5149Z" fill="#1868DB"/>
<path d="M67.9135 65.5148L58.3035 75.1348L54.3235 79.1048L51.6735 81.7548C51.6735 81.7548 51.7335 81.6848 51.7635 81.6548C51.6835 81.7548 51.5935 81.8348 51.5035 81.9248C51.2835 82.1448 51.0535 82.3448 50.8235 82.5448C50.4635 82.8348 50.0935 83.1048 49.7035 83.3448C49.5135 83.4648 49.3135 83.5648 49.1135 83.6748C48.9635 83.7548 48.8135 83.8248 48.6535 83.8948C48.5935 83.9248 48.5235 83.9548 48.4635 83.9848C48.1035 84.1248 47.7335 84.2648 47.3535 84.3648C47.1435 84.4248 46.9335 84.4748 46.7135 84.5248C46.5335 84.5648 46.3635 84.5948 46.1735 84.6248C46.1235 84.6248 46.0735 84.6448 46.0235 84.6448C45.8435 84.6648 45.6835 84.6848 45.5035 84.7048C45.2435 84.7248 44.9835 84.7348 44.7135 84.7348C42.0535 84.7348 39.6535 83.6648 37.9135 81.9248C36.1735 80.1748 35.1035 77.7748 35.1035 75.1248V51.9248L44.7135 61.5348L54.3235 51.9148V65.5148H67.9235H67.9135Z" fill="#101214"/>
<path d="M47.5735 12.053C47.1835 11.793 46.3535 12.553 46.5835 12.963C46.9035 13.553 47.2935 14.113 47.8835 14.753C48.5935 15.443 48.9335 15.473 49.3635 15.983C49.7435 16.403 50.2035 17.013 50.6035 17.573C50.7935 17.853 50.9835 18.123 51.1335 18.333C51.2735 18.543 51.4235 18.763 51.3635 18.713C51.3735 18.713 51.3935 18.703 51.4335 18.713C51.4735 18.713 51.5335 18.743 51.5035 18.773C51.5035 18.783 51.4835 18.803 51.4635 18.823L51.4335 18.853L51.1335 19.003C50.7235 19.203 50.2935 19.393 49.8735 19.563C48.7035 20.083 47.9635 20.393 47.5835 20.553C46.6735 20.943 46.0335 21.323 45.4435 21.783C45.1135 22.043 45.4735 22.943 45.8835 22.903C46.6435 22.833 47.3735 22.653 48.3035 22.283C48.6635 22.133 49.5135 22.073 50.5835 21.643C50.7535 21.573 50.9235 21.483 51.0735 21.363C51.4035 21.113 51.7735 20.873 52.1335 20.653L52.2735 20.573L52.5035 20.443C52.6535 20.353 52.8135 20.273 52.9535 20.183C53.2535 20.023 53.5135 19.853 53.7635 19.703C54.0035 19.553 54.2335 19.413 54.4335 19.283C54.4535 19.263 54.4935 19.253 54.5035 19.233L54.4535 19.163L54.3535 19.043C54.2935 18.963 54.2335 18.893 54.1735 18.823C53.9635 18.553 53.8335 18.393 53.8335 18.393C53.8335 18.393 51.4835 15.823 50.4835 14.733C49.8235 14.013 49.5035 13.673 49.3035 13.463C48.7035 12.823 48.1835 12.383 47.6235 12.023L47.5735 12.053Z" fill="#101214"/>
<path d="M5.21341 36.973C4.55341 38.283 5.56341 38.783 6.35341 37.693C7.54341 36.143 8.83341 34.543 10.6034 32.603C12.5934 30.383 13.0234 29.733 14.5734 28.413C15.8734 27.293 17.7834 25.973 19.5734 24.973C21.3534 23.953 23.0034 23.263 23.6334 22.983C23.8234 22.913 24.0134 22.833 24.1934 22.743C24.8534 22.433 26.6234 21.533 28.9934 20.773C31.3534 19.993 34.3034 19.343 37.0734 19.093C40.9834 18.703 43.4334 18.863 44.7034 18.923C45.4534 18.973 46.1534 19.013 46.8234 19.063C47.4934 19.123 48.1234 19.183 48.7234 19.243C49.9434 19.323 51.0534 19.473 52.1634 19.573C53.3834 19.683 53.6034 18.733 52.3934 18.393C51.2934 18.083 50.1834 17.763 48.9434 17.573C48.3234 17.463 47.6834 17.343 46.9934 17.263C46.3034 17.203 45.5734 17.143 44.8034 17.073C43.6034 17.003 41.0634 16.603 37.4734 16.873C36.8934 16.933 36.3034 16.973 35.7334 17.113C33.2634 17.593 30.4834 18.323 28.3534 19.013C27.2834 19.363 26.3734 19.683 25.7434 19.943C25.1034 20.183 24.7234 20.333 24.7234 20.333C24.7234 20.333 24.1734 20.583 23.2834 20.973C22.8334 21.163 22.3234 21.433 21.7534 21.723C21.1834 22.003 20.5634 22.343 19.9334 22.713C17.3834 24.153 14.6234 26.213 13.0934 27.573C10.7934 29.613 9.81341 30.723 9.20341 31.383C7.36341 33.423 6.15341 35.213 5.19341 37.013L5.21341 36.973Z" fill="#101214"/>
<path d="M62.1135 26.8029C62.0635 26.6429 61.7535 26.5829 61.4635 26.5429C61.3135 26.5029 61.1535 26.4829 61.0235 26.5529C60.8935 26.6029 60.8035 26.6529 60.7735 26.7429C60.5935 27.2029 60.4935 27.6629 60.4635 28.2629C60.4935 28.9429 60.7235 29.1229 60.6835 29.5829C60.6635 30.3629 60.3235 31.6729 60.2335 31.9829C60.2235 32.0329 60.2135 32.0729 60.2235 32.1229C60.2535 32.4629 60.3835 33.9329 60.2635 35.1929C60.2335 36.0829 60.2035 36.6329 60.1935 36.9229C60.1635 37.5929 60.2535 38.1129 60.4035 38.5729C60.4935 38.7229 61.4135 39.1029 61.5935 38.7429C61.8735 38.2229 62.0135 37.7129 62.0535 37.0229C62.0635 36.7529 62.3635 36.2029 62.4335 35.4229C62.4435 35.2929 62.4335 35.1629 62.3935 35.0329C62.0735 33.9229 62.2135 32.5129 62.2135 32.5129C62.2135 32.5129 62.2735 30.4029 62.2935 29.5029C62.3035 28.8329 62.3135 28.5129 62.3235 28.3129C62.3235 27.7129 62.2535 27.2429 62.1035 26.8029H62.1135Z" fill="#101214"/>
<path d="M66.2834 33.5129C66.4234 33.4729 66.4234 33.1529 66.5334 32.8729C66.5634 32.8029 66.5934 32.7229 66.6234 32.6529C66.6534 32.5829 66.5634 32.4929 66.5634 32.4329C66.5234 32.3029 66.4834 32.2029 66.4134 32.1729C66.0434 31.9729 65.6834 31.8629 65.2034 31.8329C64.6534 31.8529 64.5034 32.0729 64.1334 32.0329C63.5134 32.0029 62.4734 31.6229 62.2334 31.5329C62.1934 31.5229 62.1634 31.5129 62.1234 31.5129C61.8534 31.5429 60.6634 31.6329 59.6634 31.4829C58.9534 31.4329 58.5234 31.4029 58.2934 31.3829C57.7634 31.3429 57.3434 31.4229 56.9834 31.5729C56.8634 31.6629 56.4734 32.5729 56.7634 32.7529C57.1734 33.0429 57.5734 33.1829 58.1334 33.2429C58.3434 33.2629 58.7734 33.5629 59.4034 33.6529C59.5034 33.6629 59.6134 33.6529 59.7134 33.6229C60.6134 33.3229 61.7434 33.4929 61.7434 33.4929C61.7434 33.4929 63.4334 33.5929 64.1434 33.6429C64.6834 33.6729 64.9334 33.6829 65.0934 33.6929C65.5734 33.7129 65.9534 33.6529 66.3034 33.5129H66.2834Z" fill="#101214"/>
<path d="M87.6632 41.363C87.5632 41.183 86.4532 41.003 86.3132 41.303C86.1332 41.653 86.0332 42.003 86.0132 42.463C86.0532 42.983 86.2832 43.113 86.2432 43.463C86.2332 44.053 85.8932 45.043 85.8132 45.283C85.8032 45.323 85.7932 45.353 85.8032 45.393C85.8332 45.653 85.9732 46.773 85.8632 47.723C85.8432 48.393 85.8232 48.813 85.8132 49.033C85.7932 49.533 85.8832 49.933 86.0532 50.273C86.1532 50.363 87.0732 50.733 87.2432 50.443C87.5032 50.043 87.6432 49.653 87.6732 49.123C87.6832 48.923 87.9732 48.503 88.0432 47.913C88.0532 47.813 88.0432 47.713 88.0032 47.623C87.6732 46.783 87.8032 45.703 87.8032 45.703C87.8032 45.703 87.8532 44.103 87.8732 43.423C87.8832 42.913 87.8832 42.673 87.8932 42.523C87.8932 42.073 87.8132 41.713 87.6632 41.383V41.363Z" fill="#101214"/>
<path d="M91.4033 46.063C91.5833 45.953 91.6833 44.833 91.4033 44.713C91.0633 44.553 90.7233 44.463 90.2833 44.463C89.7833 44.523 89.6633 44.753 89.3333 44.733C88.7633 44.743 87.8033 44.443 87.5733 44.373C87.5433 44.363 87.5033 44.363 87.4733 44.373C87.2333 44.413 86.1633 44.603 85.2433 44.523C84.5933 44.523 84.1933 44.523 83.9933 44.523C83.5133 44.523 83.1333 44.623 82.8233 44.813C82.7633 44.923 82.3833 45.833 82.6733 46.003C83.0733 46.253 83.4533 46.373 83.9633 46.393C84.1633 46.393 84.5733 46.673 85.1433 46.713C85.2333 46.713 85.3333 46.703 85.4233 46.663C86.2233 46.303 87.2633 46.383 87.2633 46.383C87.2633 46.383 88.8033 46.363 89.4633 46.363C89.9533 46.353 90.1933 46.343 90.3333 46.343C90.7733 46.333 91.1133 46.233 91.4233 46.073L91.4033 46.063Z" fill="#101214"/>
<path d="M81.3934 16.173C81.3734 16.073 81.2834 15.993 81.1634 15.943C81.1334 15.923 81.1034 15.923 81.0734 15.913C81.0334 15.923 81.0234 15.843 80.9534 15.933C80.8434 15.973 80.8534 15.903 80.8434 15.883L80.8234 15.773L80.7934 15.653V15.593C80.7934 15.593 80.6434 15.593 80.5734 15.683C80.5334 15.723 80.5134 15.783 80.4934 15.803H80.4634L80.4134 15.823C80.3734 15.843 80.3434 15.853 80.3134 15.863C80.1834 15.923 80.0934 16.003 80.0534 16.113C79.8634 16.713 79.7634 17.333 79.7334 18.143C79.7634 19.053 79.9834 19.283 79.9434 19.903C79.9234 20.943 79.5634 22.693 79.4734 23.113C79.4634 23.173 79.4534 23.233 79.4634 23.303C79.4934 23.753 79.6134 25.723 79.4634 27.403C79.4134 28.593 79.3834 29.323 79.3734 29.713C79.3334 30.613 79.4134 31.303 79.5434 31.923C79.6134 32.163 80.5334 32.543 80.7334 32.093C81.0334 31.403 81.1834 30.723 81.2434 29.803C81.2634 29.443 81.5634 28.713 81.6534 27.673C81.6634 27.503 81.6534 27.333 81.6234 27.163C81.3134 25.693 81.4634 23.803 81.4634 23.803C81.4634 23.803 81.5434 20.983 81.5734 19.793C81.5934 18.893 81.6034 18.463 81.6134 18.203C81.6234 17.403 81.5534 16.773 81.4134 16.183L81.3934 16.173Z" fill="#101214"/>
<path d="M87.1134 24.9431C87.3134 24.9031 87.3834 24.6031 87.4534 24.3131C87.4734 24.2331 87.5134 24.1631 87.5234 24.0931C87.5434 24.0231 87.4734 23.9331 87.4634 23.8731C87.4134 23.7431 87.3434 23.6431 87.2434 23.6031C86.6934 23.3831 86.1334 23.2531 85.3934 23.1931C84.5534 23.1931 84.3334 23.4031 83.7634 23.3331C82.8034 23.2631 81.2234 22.8431 80.8334 22.7331C80.7734 22.7131 80.7234 22.7131 80.6634 22.7131C80.2534 22.7231 78.4334 22.7631 76.8934 22.5631C75.8034 22.4731 75.1334 22.4231 74.7734 22.3931C73.9534 22.3231 73.3134 22.3731 72.7334 22.4931C72.4934 22.5631 72.1234 23.4731 72.5234 23.6731C73.1434 23.9931 73.7634 24.1631 74.6034 24.2531C74.9334 24.2831 75.5934 24.6131 76.5434 24.7331C76.7034 24.7531 76.8534 24.7431 77.0134 24.7131C78.3834 24.4531 80.1034 24.6831 80.1034 24.6831C80.1034 24.6831 82.6934 24.8731 83.7834 24.9531C84.6034 25.0131 85.0034 25.0331 85.2434 25.0531C85.9734 25.1031 86.5534 25.0531 87.1034 24.9331L87.1134 24.9431Z" fill="#101214"/>
</svg>
