<svg width="96" height="96" viewBox="0 0 96 96" fill="none" xmlns="http://www.w3.org/2000/svg">
<path d="M54.3136 75.1249C54.3136 77.7749 53.2436 80.1849 51.4936 81.9249C49.7536 83.6649 47.3536 84.7349 44.7036 84.7349C42.0536 84.7349 39.6436 83.6649 37.9036 81.9249L35.0936 79.1149L31.1136 75.1349L21.4936 65.5149L8.45361 52.4749L22.0536 38.8749L35.1036 51.9249L44.7136 61.5349L48.6836 65.5049L51.5036 68.3249C53.2536 70.0649 54.3236 72.4649 54.3236 75.1149L54.3136 75.1249Z" fill="#FCA700"/>
<path d="M54.3135 33.4648V75.1248C54.3135 77.6348 53.3535 79.9148 51.7735 81.6348L51.7535 81.6548C51.6735 81.7548 51.5835 81.8348 51.4935 81.9248C51.2735 82.1448 51.0435 82.3448 50.8135 82.5448C50.4535 82.8348 50.0835 83.1048 49.6935 83.3448C49.5035 83.4648 49.3035 83.5648 49.1035 83.6748C48.9535 83.7548 48.8035 83.8248 48.6435 83.8948C48.5835 83.9248 48.5135 83.9548 48.4535 83.9848C48.0935 84.1248 47.7235 84.2648 47.3435 84.3648C47.1335 84.4248 46.9235 84.4748 46.7035 84.5248C46.5235 84.5648 46.3535 84.5948 46.1635 84.6248C46.1135 84.6248 46.0635 84.6448 46.0135 84.6448C45.8335 84.6648 45.6735 84.6848 45.4935 84.7048C45.2335 84.7248 44.9735 84.7348 44.7035 84.7348C42.0435 84.7348 39.6435 83.6648 37.9035 81.9248C36.1635 80.1748 35.0935 77.7748 35.0935 75.1248V33.4648H54.3235H54.3135Z" fill="#BF63F3"/>
<path d="M80.9535 52.4749L67.9135 65.5149L58.3035 75.1349L54.3235 79.1049L51.5035 81.9249C49.7635 83.6649 47.3635 84.7349 44.7135 84.7349C42.0635 84.7349 39.6535 83.6649 37.9135 81.9249C36.1735 80.1749 35.1035 77.7749 35.1035 75.1249C35.1035 72.4749 36.1735 70.0649 37.9135 68.3349L40.7335 65.5149L44.7135 61.5449L54.3235 51.9249L67.3635 38.8849L80.9635 52.4849L80.9535 52.4749Z" fill="#82B536"/>
<path d="M86.3635 65.5149V84.7449H44.7035C42.0435 84.7449 39.6435 83.6749 37.9035 81.9349C36.1635 80.1849 35.0935 77.7849 35.0935 75.1349C35.0935 72.4849 36.1635 70.0749 37.9035 68.3449C39.6435 66.6049 42.0435 65.5249 44.7035 65.5249H86.3635V65.5149Z" fill="#1868DB"/>
<path d="M67.9135 65.5148L58.3035 75.1348L54.3235 79.1048L51.6735 81.7548C51.6735 81.7548 51.7335 81.6848 51.7635 81.6548C51.6835 81.7548 51.5935 81.8348 51.5035 81.9248C51.2835 82.1448 51.0535 82.3448 50.8235 82.5448C50.4635 82.8348 50.0935 83.1048 49.7035 83.3448C49.5135 83.4648 49.3135 83.5648 49.1135 83.6748C48.9635 83.7548 48.8135 83.8248 48.6535 83.8948C48.5935 83.9248 48.5235 83.9548 48.4635 83.9848C48.1035 84.1248 47.7335 84.2648 47.3535 84.3648C47.1435 84.4248 46.9335 84.4748 46.7135 84.5248C46.5335 84.5648 46.3635 84.5948 46.1735 84.6248C46.1235 84.6248 46.0735 84.6448 46.0235 84.6448C45.8435 84.6648 45.6835 84.6848 45.5035 84.7048C45.2435 84.7248 44.9835 84.7348 44.7135 84.7348C42.0535 84.7348 39.6535 83.6648 37.9135 81.9248C36.1735 80.1748 35.1035 77.7748 35.1035 75.1248V51.9248L44.7135 61.5348L54.3235 51.9148V65.5148H67.9235H67.9135Z" fill="#101214"/>
</svg>
