<svg width="80" height="80" viewBox="0 0 80 80" fill="none" xmlns="http://www.w3.org/2000/svg">
<path d="M27.6098 36.25C34.4198 36.25 39.9598 30.73 39.9598 23.9C39.9598 17.07 34.4298 11.55 27.6098 11.55C20.7898 11.55 15.2598 17.07 15.2598 23.9C15.2598 30.73 20.7898 36.25 27.6098 36.25Z" fill="#DDDEE1"/>
<mask id="mask0_213_29970" style="mask-type:luminance" maskUnits="userSpaceOnUse" x="27" y="9" width="48" height="62">
<path d="M74.1198 41.79H27.0098V70.41H74.1198V41.79ZM69.1198 15.2V34.98H46.8098V15.2H53.9898V9H61.6898V15.2H69.1298H69.1198Z" fill="white"/>
</mask>
<g mask="url(#mask0_213_29970)">
<path d="M128.595 -84.6742L-63.7354 -10.5759L3.11162 162.932L195.441 88.8342L128.595 -84.6742Z" fill="#AF59E1"/>
<path d="M70.4398 -62.2799L-63.7402 -10.5799L-41.9602 45.9501C-16.9202 59.1301 12.5898 62.4401 43.9698 55.9901C50.2498 54.7001 56.5898 53.0301 62.9998 50.9701C66.4698 49.8601 69.9498 48.6301 73.4398 47.2801C82.9798 43.6001 91.8598 39.3401 100.06 34.5501C124.34 20.3601 142.49 1.46006 153.12 -20.9899L128.58 -84.6899L70.4398 -62.2899V-62.2799Z" fill="#1868DB"/>
<path d="M70.44 -62.2799C55 -37.7599 49.33 -8.22993 55.6 24.5801C57.24 33.1601 59.7 41.9701 63 50.9701C63.34 51.8801 63.68 52.8001 64.03 53.7201C67.81 63.5401 72.21 72.5001 77.14 80.6301C87.33 97.4001 99.83 110.57 114.08 120.17L195.43 88.8201L153.12 -20.9799L128.58 -84.6799L70.44 -62.2799Z" fill="#FCA700"/>
<path d="M100.07 34.56C148.18 6.44003 172.24 -40.14 161.38 -96.29C159.72 -104.89 157.24 -113.71 153.9 -122.72C150.81 -121.71 147.71 -120.6 144.6 -119.41C134.65 -115.58 125.41 -111.11 116.91 -106.09C68.9299 -77.77 44.9199 -31.38 55.5999 24.58C57.2399 33.16 59.6999 41.97 62.9999 50.97C66.4699 49.86 69.9499 48.63 73.4399 47.28C82.9799 43.6 91.8599 39.34 100.06 34.55L100.07 34.56Z" fill="#6A9A23"/>
</g>
<path d="M27.02 41.8C14.86 41.8 5 51.66 5 63.82V70.53H27.02H49.04V63.83C49.04 51.67 39.18 41.81 27.02 41.81V41.8Z" fill="#DDDEE1"/>
<path d="M27.02 41.8V70.41H49.04V63.81C49.04 51.65 39.18 41.79 27.02 41.79V41.8Z" fill="#101214"/>
</svg>
