<svg width="96" height="96" viewBox="0 0 96 96" fill="none" xmlns="http://www.w3.org/2000/svg">
<path fill-rule="evenodd" clip-rule="evenodd" d="M57.1187 63.4915C55.5987 73.4815 46.2687 80.3515 36.2787 78.8315C26.2887 77.3115 19.4187 67.9815 20.9387 57.9915C22.4587 48.0015 31.7887 41.1315 41.7787 42.6515C51.7687 44.1715 58.6387 53.5015 57.1187 63.4915ZM37.0287 56.4715C37.2487 55.0415 36.2687 53.7115 34.8387 53.4915C33.4087 53.2715 32.0787 54.2515 31.8587 55.6815C31.6387 57.1115 32.6187 58.4415 34.0487 58.6615C35.4787 58.8815 36.8087 57.9015 37.0287 56.4715ZM47.3687 58.0415C47.5887 56.6115 46.6087 55.2815 45.1787 55.0615C43.7487 54.8415 42.4187 55.8215 42.1987 57.2515C41.9787 58.6815 42.9587 60.0115 44.3887 60.2315C45.8187 60.4515 47.1487 59.4715 47.3687 58.0415ZM33.1587 65.0515L31.9987 63.4715L28.8387 65.7915L29.9987 67.3715C33.6687 72.3515 40.6787 73.4215 45.6687 69.7515L47.2487 68.5915L44.9287 65.4315L43.3487 66.5915C40.1087 68.9715 35.5487 68.2815 33.1687 65.0415L33.1587 65.0515Z" fill="#1868DB"/>
<path fill-rule="evenodd" clip-rule="evenodd" d="M56.0387 27.1915C46.1087 29.0515 39.5587 38.6115 41.4187 48.5515C43.2787 58.4815 52.8387 65.0315 62.7687 63.1715C72.6987 61.3115 79.2587 51.7515 77.3987 41.8215C75.5387 31.8915 65.9687 25.3415 56.0387 27.1915ZM63.3387 37.7915C64.7587 37.5215 66.1187 38.4615 66.3887 39.8815C66.6587 41.3015 65.7187 42.6615 64.2987 42.9315C62.8787 43.2015 61.5187 42.2615 61.2487 40.8415C60.9787 39.4215 61.9187 38.0615 63.3387 37.7915ZM53.0587 39.7115C54.4787 39.4415 55.8387 40.3815 56.1087 41.8015C56.3787 43.2215 55.4387 44.5815 54.0187 44.8515C52.5987 45.1215 51.2387 44.1815 50.9687 42.7615C50.6987 41.3415 51.6387 39.9815 53.0587 39.7115ZM61.7787 57.8615C56.7987 58.7915 52.0187 55.5215 51.0887 50.5615L69.0787 47.1915C70.0087 52.1615 66.7287 56.9315 61.7687 57.8615H61.7787Z" fill="#82B536"/>
<path fill-rule="evenodd" clip-rule="evenodd" d="M57.0487 57.4915C54.0687 56.4515 51.7187 53.8915 51.0987 50.5615L53.8787 50.0415C51.1087 46.1915 46.8487 43.4215 41.7887 42.6515C41.6287 42.6315 41.4587 42.6015 41.2987 42.5915C41.0087 44.5215 41.0387 46.5315 41.4187 48.5515C41.8787 50.9815 42.7887 53.2015 44.0587 55.1515C44.4087 55.0415 44.7987 55.0115 45.1887 55.0715C46.6087 55.2915 47.5987 56.6215 47.3787 58.0515C47.3387 58.3115 47.2587 58.5615 47.1587 58.7815C49.9087 61.2615 53.3887 62.8915 57.1487 63.3515C57.4387 61.3515 57.3887 59.3815 57.0487 57.4915Z" fill="#09326C"/>
<path fill-rule="evenodd" clip-rule="evenodd" d="M57.0487 57.4915C54.0687 56.4515 51.7187 53.8915 51.0987 50.5615L53.8787 50.0415C51.1087 46.1915 46.8487 43.4215 41.7887 42.6515C41.6287 42.6315 41.4587 42.6015 41.2987 42.5915C41.0087 44.5215 41.0387 46.5315 41.4187 48.5515C41.8787 50.9815 42.7887 53.2015 44.0587 55.1515C44.4087 55.0415 44.7987 55.0115 45.1887 55.0715C46.6087 55.2915 47.5987 56.6215 47.3787 58.0515C47.3387 58.3115 47.2587 58.5615 47.1587 58.7815C49.9087 61.2615 53.3887 62.8915 57.1487 63.3515C57.4387 61.3515 57.3887 59.3815 57.0487 57.4915Z" fill="#09326C"/>
<path d="M73.3487 17.5814C75.8387 17.6014 75.9487 16.4914 73.4187 16.2314C72.5187 16.1214 71.6087 16.0914 70.6687 16.0414C69.7287 15.9814 68.7587 16.0014 67.7487 16.0114C65.7287 16.0514 63.5487 16.2314 61.1287 16.6614C58.3787 17.1714 56.7287 17.7714 55.3087 18.2914C53.8987 18.8614 52.6987 19.3414 51.0087 20.1914C48.1287 21.5614 44.4787 24.0414 42.0887 27.2014C40.8887 28.7614 40.0387 30.4814 39.6487 32.0514C39.2387 33.6114 39.3687 35.0314 39.6087 35.7914C39.7087 36.2514 39.9487 36.6914 40.2087 37.1114C40.3487 37.2914 40.4987 37.5114 40.7087 37.7414C40.9487 37.9414 41.1987 38.2214 41.5387 38.4114C42.1987 38.8614 43.0887 39.1414 44.0787 39.2414C45.0887 39.3314 46.2687 39.1214 47.3387 38.5114C48.4187 37.9214 49.3387 36.9114 49.9087 35.6814C50.4587 34.4514 50.6487 32.9114 50.2787 31.5414C49.9887 30.2114 49.4187 28.9014 48.6287 27.7314C47.0487 25.3814 44.6187 23.6614 42.0787 22.7014C38.4387 21.3614 35.1887 21.6514 32.8287 22.2014C30.4487 22.8214 28.8687 23.7314 27.8187 24.3614C25.3887 25.9514 23.6387 27.8214 22.3187 29.6814C20.9887 31.5514 20.0587 33.4414 19.2987 35.3414C18.5087 37.4614 19.4287 37.7814 20.3987 35.8414C21.3287 34.0914 22.3487 32.3814 23.6787 30.7014C25.0087 29.0214 26.6387 27.3714 28.8287 25.9514C29.6887 25.4314 31.0987 24.7014 33.0687 24.2414C35.0187 23.7814 37.5887 23.6414 40.3487 24.4514C41.2487 24.7014 42.1187 25.0514 42.9587 25.4514C44.7687 26.3014 46.4587 27.7814 47.5087 29.5914C48.0187 30.4914 48.3687 31.5014 48.5287 32.4414C48.6587 33.3414 48.5287 34.2514 48.1487 34.9914C47.4187 36.5114 46.0087 37.2014 45.0587 37.3014C44.5687 37.3514 44.1787 37.3214 43.9187 37.2614C43.6487 37.2114 43.5087 37.1814 43.5087 37.1714C43.5487 37.1314 42.5587 37.0514 41.8287 35.9514C41.4887 35.4014 41.2687 34.5714 41.3387 33.5914C41.3987 32.6114 41.7087 31.5114 42.2287 30.4414C42.7387 29.3614 43.4487 28.3014 44.2687 27.3214C45.0987 26.3514 46.0387 25.4614 46.9987 24.6614C48.9387 23.0914 50.9987 21.9714 52.5687 21.2414C54.9487 20.1414 56.8387 19.6314 58.2587 19.2214C58.9787 19.0514 59.5887 18.9014 60.1087 18.7714C60.6387 18.6714 61.0787 18.5914 61.4687 18.5214C66.1187 17.6914 69.8387 17.6114 73.3587 17.5914L73.3487 17.5814Z" fill="#101214"/>
</svg>
