<svg width="275" height="275" viewBox="0 0 275 275" fill="none" xmlns="http://www.w3.org/2000/svg">
<path d="M157.502 99.2504C157.282 99.7804 158.212 100.41 158.622 100C159.212 99.4304 159.752 98.7803 160.362 97.8803C161.002 96.8303 160.982 96.4503 161.472 95.7703C162.252 94.6003 163.842 92.8103 164.222 92.3803C164.282 92.3203 164.332 92.2503 164.372 92.1703C164.672 91.6403 166.022 89.3504 167.362 87.5004C168.262 86.1604 168.822 85.3303 169.112 84.9003C169.792 83.8703 170.212 83.0504 170.542 82.1804C170.722 81.7004 169.922 81.1603 169.542 81.5103C168.862 82.1403 168.252 82.8403 167.552 83.8603C167.282 84.2603 166.502 84.9403 165.682 86.0803C165.552 86.2703 165.432 86.4704 165.342 86.6804C164.542 88.5104 163.032 90.5704 163.032 90.5704C163.032 90.5704 160.902 93.7203 160.002 95.0603C159.332 96.0603 159.002 96.5503 158.802 96.8503C158.202 97.7503 157.802 98.5003 157.492 99.2603L157.502 99.2504Z" fill="#F0F1F2"/>
<path d="M121.584 72.3799C121.984 72.7899 122.924 72.1799 122.714 71.6499C122.424 70.8899 122.034 70.1399 121.464 69.2399C120.754 68.2499 120.394 68.1199 119.974 67.4099C119.214 66.2399 118.194 64.0999 117.954 63.5799C117.914 63.4999 117.874 63.4299 117.824 63.3599C117.464 62.8799 115.884 60.7599 114.714 58.8099C113.844 57.4699 113.294 56.6399 113.014 56.1999C112.344 55.1799 111.744 54.4699 111.084 53.8399C110.714 53.4899 109.904 54.0199 110.074 54.4899C110.384 55.3599 110.784 56.1899 111.444 57.2199C111.704 57.6199 112.014 58.5999 112.734 59.7899C112.854 59.9899 112.994 60.1699 113.154 60.3299C114.524 61.7699 115.814 63.9499 115.814 63.9499C115.814 63.9499 117.864 67.1199 118.734 68.4599C119.394 69.4699 119.704 69.9499 119.904 70.2499C120.494 71.1499 121.024 71.7999 121.594 72.3799H121.584Z" fill="#F0F1F2"/>
<path d="M123.054 98.1C123.634 98.25 124.124 97.25 123.654 96.89C122.984 96.37 122.234 95.91 121.234 95.41C120.074 94.9 119.684 94.96 118.924 94.56C117.614 93.92 115.544 92.5599 115.054 92.2199C114.984 92.1699 114.904 92.13 114.824 92.1C114.244 91.86 111.694 90.8 109.604 89.68C108.104 88.94 107.174 88.49 106.684 88.25C105.534 87.69 104.624 87.3699 103.694 87.1499C103.184 87.0299 102.754 87.8999 103.164 88.2299C103.914 88.8299 104.714 89.36 105.864 89.93C106.314 90.15 107.124 90.85 108.414 91.53C108.624 91.64 108.844 91.7299 109.074 91.7999C111.064 92.3699 113.384 93.63 113.384 93.63C113.384 93.63 116.924 95.3699 118.414 96.1099C119.544 96.6599 120.084 96.93 120.414 97.09C121.424 97.58 122.244 97.88 123.064 98.1H123.054Z" fill="#F0F1F2"/>
<path d="M145.975 84.2699C146.735 86.1299 147.785 85.7699 147.255 83.8399C146.495 81.0899 145.615 78.2299 144.385 74.5799C142.935 70.4699 142.365 69.5199 141.435 66.7099C141.005 65.4599 140.525 63.9699 140.045 62.4399C139.805 61.6699 139.565 60.8999 139.325 60.1399C139.165 59.6299 139.205 59.7199 139.175 59.5999L139.145 59.4099C139.215 59.4299 139.285 59.4599 139.355 59.4799L139.435 59.5099H139.475L139.495 59.5299L139.605 59.5499C140.235 59.6699 140.825 59.7899 141.345 59.8899C142.395 60.0999 143.205 60.2699 143.675 60.3599C143.965 60.4199 144.265 60.4699 144.565 60.5099C145.335 60.6199 147.055 60.8799 149.485 61.2399C150.695 61.4299 152.095 61.6399 153.635 61.8799C155.655 62.1999 157.875 62.5599 160.255 62.9399C159.955 61.8799 159.145 58.9699 158.365 56.1899C156.805 50.6699 155.835 47.2599 155.325 45.4799C154.125 41.2699 153.125 38.1499 152.045 35.1199C151.455 33.4499 150.515 33.7199 150.885 35.4499C151.555 38.5999 152.335 41.7799 153.515 45.9899C153.975 47.6299 154.685 51.1099 156.005 55.9399C156.215 56.7299 156.455 57.5099 156.715 58.2699C156.915 58.8599 157.115 59.4599 157.315 60.0799L157.355 60.1999C157.355 60.1999 157.355 60.2199 157.365 60.2299L157.385 60.2599L157.425 60.3299L157.505 60.5099H157.315H157.205H157.175L157.035 60.4899L156.755 60.4499C156.015 60.3399 155.295 60.2399 154.585 60.1299C153.175 59.9099 151.865 59.6999 150.735 59.5299C148.485 59.1499 146.965 58.8999 146.965 58.8999L136.465 57.1799L140.135 67.9899C141.525 72.0599 142.185 74.0099 142.595 75.2099C143.845 78.8499 144.885 81.6499 145.965 84.2999L145.975 84.2699Z" fill="#F0F1F2"/>
<path d="M56 241.64L56.09 241.81H218.92L219.02 241.64L137.51 91L56 241.64Z" fill="#E56E00"/>
<path d="M141.455 144.939V199.949H134.125V144.939H141.455Z" fill="white"/>
<path d="M137.919 208.915C138.265 208.915 138.608 208.933 138.952 208.972L139.296 209.018L139.312 209.021L139.33 209.023C142.244 209.5 144.668 211.531 145.247 214.776H145.245C145.345 215.316 145.374 215.833 145.374 216.26C145.374 216.596 145.357 216.974 145.304 217.375V217.437L145.246 217.758C144.667 220.981 142.254 223.029 139.33 223.507L139.312 223.51L139.296 223.513C138.837 223.583 138.38 223.615 137.919 223.615C137.487 223.615 136.983 223.585 136.455 223.491V223.493C136.441 223.491 136.426 223.487 136.412 223.484C136.409 223.484 136.405 223.484 136.401 223.483V223.482C133.551 222.978 131.163 220.986 130.571 217.791L130.569 217.792C130.567 217.781 130.566 217.769 130.563 217.758C130.563 217.754 130.562 217.751 130.562 217.747L130.562 217.746C130.464 217.216 130.434 216.72 130.434 216.271C130.434 215.817 130.463 215.292 130.569 214.738H130.57C131.165 211.59 133.501 209.55 136.401 209.048V209.046C136.415 209.043 136.429 209.042 136.442 209.04C136.454 209.038 136.466 209.035 136.478 209.033V209.034C136.997 208.944 137.493 208.915 137.919 208.915ZM137.774 216.25C137.771 216.25 137.767 216.251 137.764 216.251V216.278C137.767 216.279 137.771 216.28 137.774 216.28C137.809 216.283 137.857 216.285 137.919 216.285C137.966 216.285 138.007 216.282 138.043 216.28C138.043 216.274 138.044 216.267 138.044 216.26C138.044 216.256 138.043 216.253 138.043 216.249C138.007 216.247 137.966 216.245 137.919 216.245C137.857 216.245 137.809 216.247 137.774 216.25Z" fill="white"/>
</svg>
