<svg width="275" height="275" viewBox="0 0 275 275" fill="none" xmlns="http://www.w3.org/2000/svg">
<path d="M122.584 71.3799C122.984 71.7899 123.924 71.1799 123.714 70.6499C123.424 69.8899 123.034 69.1399 122.464 68.2399C121.754 67.2499 121.394 67.1199 120.974 66.4099C120.214 65.2399 119.194 63.0999 118.954 62.5799C118.914 62.4999 118.874 62.4299 118.824 62.3599C118.464 61.8799 116.884 59.7599 115.714 57.8099C114.844 56.4699 114.294 55.6399 114.014 55.1999C113.344 54.1799 112.744 53.4699 112.084 52.8399C111.714 52.4899 110.904 53.0199 111.074 53.4899C111.384 54.3599 111.784 55.1899 112.444 56.2199C112.704 56.6199 113.014 57.5999 113.734 58.7899C113.854 58.9899 113.994 59.1699 114.154 59.3299C115.524 60.7699 116.814 62.9499 116.814 62.9499C116.814 62.9499 118.864 66.1199 119.734 67.4599C120.394 68.4699 120.704 68.9499 120.904 69.2499C121.494 70.1499 122.024 70.7999 122.594 71.3799H122.584Z" fill="#1E1F21"/>
<path d="M124.054 97.1C124.634 97.25 125.124 96.25 124.654 95.89C123.984 95.37 123.234 94.91 122.234 94.41C121.074 93.9 120.684 93.96 119.924 93.56C118.614 92.92 116.544 91.5599 116.054 91.2199C115.984 91.1699 115.904 91.13 115.824 91.1C115.244 90.86 112.694 89.8 110.604 88.68C109.104 87.94 108.174 87.49 107.684 87.25C106.534 86.69 105.624 86.3699 104.694 86.1499C104.184 86.0299 103.754 86.8999 104.164 87.2299C104.914 87.8299 105.714 88.36 106.864 88.93C107.314 89.15 108.124 89.85 109.414 90.53C109.624 90.64 109.844 90.7299 110.074 90.7999C112.064 91.3699 114.384 92.63 114.384 92.63C114.384 92.63 117.924 94.3699 119.414 95.1099C120.544 95.6599 121.084 95.93 121.414 96.09C122.424 96.58 123.244 96.88 124.064 97.1H124.054Z" fill="#1E1F21"/>
<path d="M146.975 83.2699C147.735 85.1299 148.785 84.7699 148.255 82.8399C147.495 80.0899 146.615 77.2299 145.385 73.5799C143.935 69.4699 143.365 68.5199 142.435 65.7099C142.005 64.4599 141.525 62.9699 141.045 61.4399C140.805 60.6699 140.565 59.8999 140.325 59.1399C140.165 58.6299 140.205 58.7199 140.175 58.5999L140.145 58.4099C140.215 58.4299 140.285 58.4599 140.355 58.4799L140.435 58.5099H140.475L140.495 58.5299L140.605 58.5499C141.235 58.6699 141.825 58.7899 142.345 58.8899C143.395 59.0999 144.205 59.2699 144.675 59.3599C144.965 59.4199 145.265 59.4699 145.565 59.5099C146.335 59.6199 148.055 59.8799 150.485 60.2399C151.695 60.4299 153.095 60.6399 154.635 60.8799C156.655 61.1999 158.875 61.5599 161.255 61.9399C160.955 60.8799 160.145 57.9699 159.365 55.1899C157.805 49.6699 156.835 46.2599 156.325 44.4799C155.125 40.2699 154.125 37.1499 153.045 34.1199C152.455 32.4499 151.515 32.7199 151.885 34.4499C152.555 37.5999 153.335 40.7799 154.515 44.9899C154.975 46.6299 155.685 50.1099 157.005 54.9399C157.215 55.7299 157.455 56.5099 157.715 57.2699C157.915 57.8599 158.115 58.4599 158.315 59.0799L158.355 59.1999C158.355 59.1999 158.355 59.2199 158.365 59.2299L158.385 59.2599L158.425 59.3299L158.505 59.5099H158.315H158.205H158.175L158.035 59.4899L157.755 59.4499C157.015 59.3399 156.295 59.2399 155.585 59.1299C154.175 58.9099 152.865 58.6999 151.735 58.5299C149.485 58.1499 147.965 57.8999 147.965 57.8999L137.465 56.1799L141.135 66.9899C142.525 71.0599 143.185 73.0099 143.595 74.2099C144.845 77.8499 145.885 80.6499 146.965 83.2999L146.975 83.2699Z" fill="#1E1F21"/>
<path d="M158.502 98.2504C158.282 98.7804 159.212 99.4104 159.622 99.0004C160.212 98.4304 160.752 97.7803 161.362 96.8803C162.002 95.8303 161.982 95.4503 162.472 94.7703C163.252 93.6003 164.842 91.8103 165.222 91.3803C165.282 91.3203 165.332 91.2503 165.372 91.1703C165.672 90.6403 167.022 88.3504 168.362 86.5004C169.262 85.1604 169.822 84.3303 170.112 83.9003C170.792 82.8703 171.212 82.0504 171.542 81.1804C171.722 80.7004 170.922 80.1603 170.542 80.5103C169.862 81.1403 169.252 81.8403 168.552 82.8603C168.282 83.2603 167.502 83.9403 166.682 85.0803C166.552 85.2703 166.432 85.4704 166.342 85.6804C165.542 87.5104 164.032 89.5704 164.032 89.5704C164.032 89.5704 161.902 92.7203 161.002 94.0603C160.332 95.0603 160.002 95.5503 159.802 95.8503C159.202 96.7503 158.802 97.5003 158.492 98.2603L158.502 98.2504Z" fill="#1E1F21"/>
<path d="M56 241.179L56.09 241.349H218.92L219.02 241.179L137.51 90.5391L56 241.179Z" fill="#FCA700"/>
<path d="M141.455 144.479V199.488H134.125V144.479H141.455Z" fill="white"/>
<path d="M137.919 208.454C138.265 208.454 138.608 208.472 138.952 208.511L139.296 208.557L139.312 208.56L139.33 208.562C142.244 209.039 144.668 211.07 145.247 214.315H145.245C145.345 214.855 145.374 215.372 145.374 215.799C145.374 216.135 145.357 216.513 145.304 216.914V216.976L145.246 217.297C144.667 220.52 142.254 222.568 139.33 223.046L139.312 223.049L139.296 223.052C138.837 223.122 138.38 223.154 137.919 223.154C137.487 223.154 136.983 223.124 136.455 223.03V223.032C136.441 223.03 136.426 223.026 136.412 223.023C136.409 223.023 136.405 223.023 136.401 223.022V223.021C133.551 222.518 131.163 220.525 130.571 217.33L130.569 217.331C130.567 217.32 130.566 217.308 130.563 217.297C130.563 217.293 130.562 217.29 130.562 217.286L130.562 217.285C130.464 216.755 130.434 216.259 130.434 215.81C130.434 215.356 130.463 214.831 130.569 214.277H130.57C131.165 211.129 133.501 209.09 136.401 208.587V208.585C136.415 208.582 136.429 208.582 136.442 208.579C136.454 208.577 136.466 208.574 136.478 208.572V208.573C136.997 208.483 137.493 208.454 137.919 208.454ZM137.774 215.789C137.771 215.789 137.767 215.79 137.764 215.79V215.817C137.767 215.818 137.771 215.819 137.774 215.819C137.809 215.822 137.857 215.824 137.919 215.824C137.966 215.824 138.007 215.821 138.043 215.819C138.043 215.813 138.044 215.806 138.044 215.799C138.044 215.795 138.043 215.792 138.043 215.788C138.007 215.786 137.966 215.784 137.919 215.784C137.857 215.784 137.809 215.786 137.774 215.789Z" fill="white"/>
</svg>
