<svg width="96" height="96" viewBox="0 0 96 96" fill="none" xmlns="http://www.w3.org/2000/svg">
<path d="M46.2 39.18C44.88 39.4 43.62 39.93 42.54 40.72C42.2 40.97 41.87 41.25 41.57 41.55C40.77 42.34 40.13 43.27 39.69 44.31C39.25 45.35 39.02 46.46 39.02 47.58C39.02 48.7 39.23 49.82 39.66 50.86C40.09 51.9 40.72 52.84 41.51 53.64C42.3 54.43 43.25 55.06 44.29 55.49C45.33 55.92 46.44 56.13 47.57 56.13C48.69 56.13 49.81 55.9 50.84 55.46C51.88 55.02 52.81 54.38 53.6 53.58C53.9 53.28 54.18 52.96 54.43 52.61C55.23 51.53 55.76 50.28 55.98 48.96C56.2 47.63 56.1 46.26 55.69 44.97C55.28 43.68 54.56 42.51 53.61 41.56C52.65 40.6 51.48 39.89 50.19 39.48C48.9 39.07 47.53 38.97 46.2 39.19V39.18Z" fill="#FCA700"/>
<path d="M22.99 46.45C23.01 46.05 23.04 45.64 23.08 45.24L19.97 42.41C18.19 44.01 16.53 45.73 15 47.56C16.51 49.37 18.14 51.08 19.89 52.66L23.08 49.78C22.98 48.67 22.95 47.55 22.99 46.44V46.45Z" fill="#FCA700"/>
<path d="M80.1801 47.57C78.6701 45.76 77.0401 44.05 75.2901 42.47L72.1001 45.35C72.2401 46.86 72.2401 48.38 72.1001 49.89L75.2101 52.74C76.9901 51.14 78.6501 49.41 80.1801 47.56V47.57Z" fill="#FCA700"/>
<path d="M20.0001 52.78L19.8801 52.67L15.3301 56.79L23.3801 70.8L33.3301 67.63C34.5701 68.51 35.8901 69.27 37.2701 69.9L39.5101 80.09L55.5701 80.12L57.8301 69.93C59.2201 69.3 60.5401 68.53 61.7801 67.65L71.7301 70.81L79.8001 56.93L75.2201 52.73L75.1901 52.76C58.8701 67.43 36.3201 67.43 20.0101 52.76L20.0001 52.78Z" fill="#BF63F3"/>
<path d="M75.1799 42.36L75.2999 42.47L79.8499 38.35L71.7999 24.34L61.8799 27.5C60.6299 26.61 59.2999 25.84 57.9099 25.2L55.6799 15.03L39.6199 15L37.3499 25.21C35.9699 25.84 34.6599 26.6 33.4199 27.47L23.4599 24.31L15.3799 38.21L19.9799 42.43C19.9799 42.43 19.9999 42.4 20.0099 42.4C36.3199 27.71 58.8699 27.71 75.1799 42.38V42.36Z" fill="#BF63F3"/>
<path d="M72.0999 45.35L75.2899 42.47L75.1699 42.36C58.8499 27.69 36.3099 27.69 19.9999 42.36C19.9899 42.36 19.9699 42.38 19.9699 42.39L23.0799 45.24C23.0499 45.64 23.0199 46.04 22.9899 46.45C22.9399 47.56 22.9699 48.68 23.0799 49.79L19.8899 52.67L20.0099 52.78C36.3299 67.45 58.8699 67.45 75.1799 52.78L75.2099 52.75L72.0999 49.9C72.2399 48.39 72.2499 46.87 72.0999 45.36V45.35ZM47.5899 60.62C45.0099 60.62 42.4899 59.85 40.3399 58.42C38.1899 56.99 36.5199 54.95 35.5299 52.56C34.5399 50.18 34.2799 47.55 34.7899 45.02C35.2899 42.49 36.5399 40.16 38.3599 38.34C40.1899 36.51 42.5099 35.27 45.0399 34.77C47.5699 34.27 50.1999 34.52 52.5799 35.51C54.9599 36.5 56.9999 38.17 58.4399 40.32C59.8699 42.47 60.6399 44.99 60.6399 47.57C60.6399 51.03 59.2699 54.35 56.8199 56.8C54.3699 59.25 51.0499 60.62 47.5899 60.62Z" fill="#101214"/>
</svg>
