<svg width="275" height="275" viewBox="0 0 275 275" fill="none" xmlns="http://www.w3.org/2000/svg">
<path d="M202.932 94.8705C202.222 94.8705 201.512 94.8805 200.812 94.9105C190.002 63.9505 167.302 51.0005 133.472 51.0005C84.9616 51.0005 58.3516 78.1205 58.3516 147.71H253.162C247.672 113.1 229.122 94.8805 202.942 94.8805L202.932 94.8705Z" fill="#4B4D51"/>
<path d="M243.792 185.211C244.362 181.731 244.632 178.031 244.582 174.121C244.532 170.161 244.152 166.421 243.462 162.911C239.412 142.021 224.692 129.321 204.242 126.281C200.752 125.761 197.102 125.521 193.302 125.571C189.342 125.621 185.552 125.991 181.942 126.641C161.582 130.331 147.232 143.401 143.752 164.271C143.162 167.801 142.882 171.551 142.942 175.511C142.992 179.421 143.372 183.111 144.042 186.571C148.072 207.311 162.782 220.011 183.272 223.141C186.902 223.691 190.702 223.961 194.662 223.901C198.462 223.851 202.102 223.511 205.572 222.891C225.952 219.291 240.342 206.161 243.782 185.191L243.792 185.211Z" fill="#1558BC"/>
<path d="M63.81 166.201H128.53C122.73 133.501 103.15 116.281 75.52 116.281C49.79 116.281 32.34 129.351 22 166.201H63.82H63.81Z" fill="#4B4D51"/>
<path d="M75.5098 116.281C70.0598 116.281 64.9898 116.871 60.2698 118.151C58.9898 127.001 58.3398 136.841 58.3398 147.701H123.11C114.16 127.051 97.3498 116.281 75.5098 116.281Z" fill="#7E8188"/>
<path d="M237.882 147.701C230.972 135.821 219.132 128.481 204.252 126.271C200.762 125.751 197.112 125.511 193.312 125.561C189.352 125.611 185.552 125.981 181.952 126.631C167.672 129.221 156.362 136.421 149.672 147.691H237.882V147.701Z" fill="#09326C"/>
<path fill-rule="evenodd" clip-rule="evenodd" d="M191.328 202.501V150.171H198.328V202.501H191.328Z" fill="#101214"/>
<path fill-rule="evenodd" clip-rule="evenodd" d="M195.202 142.722L220.059 165.205L215.364 170.397L195.202 152.16L175.039 170.397L170.344 165.205L195.202 142.722Z" fill="#101214"/>
</svg>
