<svg width="96" height="96" viewBox="0 0 96 96" fill="none" xmlns="http://www.w3.org/2000/svg">
<path d="M33.9795 65.22C33.9795 66 33.8295 66.77 33.5295 67.49C33.2295 68.21 32.7996 68.86 32.2396 69.42C31.6896 69.97 31.0295 70.41 30.3095 70.71C29.5895 71.01 28.8196 71.16 28.0396 71.16H73.2796V59.31H28.0495C28.8295 59.31 29.5995 59.46 30.3195 59.76C31.0395 60.06 31.6896 60.49 32.2396 61.04C32.7896 61.59 33.2295 62.24 33.5295 62.96C33.8295 63.68 33.9795 64.45 33.9795 65.23V65.22Z" fill="#FCA700"/>
<path d="M28.0496 71.16V59.31C26.4796 59.31 24.9696 59.93 23.8596 61.05C22.7496 62.16 22.1196 63.67 22.1196 65.24C22.1196 66.81 22.7396 68.32 23.8596 69.43C24.9696 70.54 26.4796 71.17 28.0496 71.17V71.16Z" fill="#BF63F3"/>
<path d="M28.0496 71.16C29.6196 71.16 31.1296 70.54 32.2396 69.43C33.3496 68.32 33.9696 66.81 33.9696 65.24C33.9696 63.67 33.3496 62.16 32.2396 61.05C31.1296 59.94 29.6196 59.32 28.0496 59.32V71.16Z" fill="#101214"/>
<path d="M28.0596 51.49C31.3296 51.49 33.9796 48.84 33.9796 45.57C33.9796 42.3 31.3296 39.65 28.0596 39.65C24.7896 39.65 22.1396 42.3 22.1396 45.57C22.1396 48.84 24.7896 51.49 28.0596 51.49Z" fill="#1868DB"/>
<path d="M61.4497 45.57C61.4497 44 62.0697 42.49 63.1797 41.38C64.2897 40.27 65.7997 39.65 67.3697 39.65H36.7297V51.49H67.3697C65.7997 51.49 64.2897 50.86 63.1797 49.75C62.0697 48.64 61.4497 47.13 61.4497 45.56V45.57Z" fill="#BF63F3"/>
<path d="M67.3696 39.65V51.49C68.1496 51.49 68.9196 51.34 69.6396 51.04C70.3596 50.74 71.0096 50.31 71.5596 49.76C72.1096 49.21 72.5496 48.56 72.8396 47.84C73.1396 47.12 73.2896 46.35 73.2896 45.57C73.2896 44.79 73.1396 44.02 72.8396 43.3C72.5396 42.58 72.1096 41.93 71.5596 41.38C71.0096 40.83 70.3596 40.39 69.6396 40.1C68.9196 39.8 68.1496 39.65 67.3696 39.65Z" fill="#82B536"/>
<path d="M67.3697 39.65C65.7997 39.65 64.2897 40.27 63.1797 41.38C62.0697 42.49 61.4497 44 61.4497 45.57C61.4497 47.14 62.0697 48.65 63.1797 49.76C64.2897 50.87 65.7997 51.49 67.3697 51.49V39.65Z" fill="#101214"/>
<path d="M58.6997 20H36.7297V31.84H58.6997V20Z" fill="#FCA700"/>
<path d="M28.0596 31.84C31.3296 31.84 33.9796 29.19 33.9796 25.92C33.9796 22.65 31.3296 20 28.0596 20C24.7896 20 22.1396 22.65 22.1396 25.92C22.1396 29.19 24.7896 31.84 28.0596 31.84Z" fill="#82B536"/>
<path d="M67.3697 31.84C70.6397 31.84 73.2897 29.19 73.2897 25.92C73.2897 22.65 70.6397 20 67.3697 20C64.0997 20 61.4497 22.65 61.4497 25.92C61.4497 29.19 64.0997 31.84 67.3697 31.84Z" fill="#1868DB"/>
<path d="M18.61 34.6197C16.95 33.6197 16.37 34.5697 17.85 35.7297C18.38 36.1397 18.92 36.5497 19.47 36.9797C19.75 37.1897 20.03 37.3997 20.31 37.6097C20.69 37.8897 21.08 38.1697 21.48 38.4597L21.9 38.7597L22.11 38.9097C22.18 38.9697 22.25 38.8397 22.33 38.8197C22.62 38.6197 22.91 38.4197 23.21 38.2197C23.56 37.9797 23.92 37.7397 24.28 37.4897C24.96 37.0197 25.67 36.5297 26.42 36.0097C26.73 35.7797 27.02 35.5697 27.25 35.3997C27.28 35.3697 27.31 35.3397 27.33 35.3097L27.4 35.3397C27.4 35.3397 27.42 35.3397 27.59 35.4497C27.85 35.6097 28.08 35.7497 28.31 35.8897C28.76 36.1597 29.16 36.3997 29.55 36.6297C29.93 36.8597 30.3 37.0897 30.68 37.3297C30.87 37.4497 31.07 37.5797 31.28 37.7097C31.61 37.9297 31.97 38.1697 32.34 38.4197C32.38 38.3897 32.44 38.3497 32.51 38.3097C33.34 37.7597 34.28 37.1397 35.28 36.4897C35.72 36.2097 36.17 35.9197 36.62 35.6297C36.85 35.4797 37.08 35.3397 37.31 35.1897L37.51 35.0797C37.59 35.1497 37.58 35.1497 37.73 35.2697C37.96 35.4597 38.2 35.6397 38.43 35.8197C38.89 36.1897 39.34 36.5397 39.76 36.8797C40.18 37.2197 40.58 37.5397 40.95 37.8297C41.55 38.2997 42.09 38.7197 42.55 39.0797C43.01 38.7597 43.43 38.4697 43.8 38.2097C44.01 38.0697 44.2 37.9397 44.37 37.8197C44.68 37.6097 44.91 37.4597 45.09 37.3397C45.33 37.1797 45.56 37.0197 45.79 36.8497C46 36.6897 46.34 36.4497 47.73 35.4197C47.73 35.4197 47.74 35.4197 47.76 35.4197C48 35.5897 48.3 35.7997 48.68 36.0597C49.62 36.7397 50.93 37.6797 52.78 39.0097C53.53 38.4697 55.41 37.1197 58.06 35.2097C58.32 35.4097 58.99 35.9297 59.64 36.4397L63.02 38.9897L68.13 35.3597L68.27 35.4497C69.09 35.9997 69.86 36.5097 70.58 36.9997C71.5 37.5997 72.37 38.1697 73.19 38.7097C73.53 38.4797 73.86 38.2497 74.19 38.0197C74.39 37.8697 74.6 37.7297 74.8 37.5897C75.15 37.3297 75.49 37.0797 75.83 36.8397C76.5 36.3397 77.15 35.8497 77.79 35.3597C79.12 34.3397 78.59 33.5297 77.13 34.3597C76.43 34.7597 75.73 35.1697 75.01 35.5897C74.65 35.7997 74.29 36.0197 73.92 36.2497C73.75 36.3497 73.59 36.4497 73.42 36.5497L73.22 36.6597C73.22 36.6597 72.29 35.9697 71.62 35.4997C70.9 34.9997 70.14 34.4797 69.33 33.9197C69.05 33.7197 68.73 33.4997 68.12 33.0797C67.74 33.3397 67.28 33.6397 66.75 33.9997C66.41 34.2197 66.01 34.4697 65.57 34.7597C65.13 35.0397 64.65 35.3597 64.12 35.6997C63.86 35.8697 63.58 36.0497 63.3 36.2397L63.12 36.3597H63.1H63.07V36.3297L63.05 36.3197C62.97 36.2597 62.89 36.1897 62.81 36.1297C62.46 35.8497 62.06 35.5397 61.65 35.2197C61.04 34.7497 60.41 34.2897 59.77 33.8597C59.56 33.7297 58.73 33.1297 58.11 32.6797C56.35 33.9997 54.49 35.3997 52.81 36.6697L52.7 36.5997L52.5 36.4597C52.24 36.2697 51.98 36.0797 51.72 35.8997C51.22 35.5397 50.75 35.1897 50.31 34.8797C49.24 34.0897 48.35 33.4397 47.75 32.9997C46.73 33.7297 46.26 34.0697 46.26 34.0697L42.58 36.7197L37.58 32.9997L32.35 36.4997L32.22 36.4097L27.32 33.1297L25.36 34.5097C24.62 35.0397 23.91 35.5397 23.25 36.0197C22.94 36.2497 22.63 36.4697 22.34 36.6897L22.19 36.8097C22.14 36.8697 22.09 36.7797 22.04 36.7697C22.08 36.8097 21.61 36.4997 21.33 36.3297C21.02 36.1297 20.71 35.9397 20.41 35.7497C19.8 35.3797 19.21 35.0097 18.63 34.6497L18.61 34.6197Z" fill="#101214"/>
<path d="M17.7399 54.9297C17.1899 55.0497 17.1499 56.1697 17.6999 56.2797C18.4699 56.4397 19.2899 56.5197 20.3499 56.5197C21.5499 56.4597 21.8499 56.2197 22.6499 56.2397C24.0099 56.2297 26.3199 56.5197 26.8799 56.5897C26.9599 56.5997 27.0399 56.5997 27.1299 56.5897C27.7199 56.5397 30.2999 56.3497 32.5199 56.4097C34.0899 56.3897 35.0599 56.3797 35.5699 56.3797C36.7699 56.3597 37.6599 56.2397 38.5299 56.0197C39.0099 55.8997 38.9499 54.9297 38.4599 54.8197C37.5699 54.6197 36.6799 54.5097 35.4899 54.5097C35.2599 54.5097 34.8999 54.4497 34.4299 54.3797C33.9599 54.3397 33.3799 54.3697 32.6999 54.3597C32.4799 54.3597 32.2599 54.3597 32.0399 54.3597C31.5699 54.3197 31.0599 54.4597 30.5599 54.4897C30.0599 54.5397 29.5799 54.5597 29.1499 54.5797C28.2999 54.6097 27.6799 54.5797 27.6799 54.5797C27.6799 54.5797 24.0099 54.6097 22.4599 54.6197C21.2899 54.6297 20.7299 54.6397 20.3899 54.6397C19.3399 54.6597 18.5299 54.7497 17.7499 54.9297H17.7399Z" fill="#101214"/>
<path d="M18.46 74.1297C16.94 74.2497 16.9 75.3697 18.42 75.4797C20.57 75.6397 22.82 75.7197 25.73 75.7197C29.03 75.6597 29.85 75.4197 32.08 75.4397C35.85 75.4297 42.21 75.7197 43.74 75.7897C43.97 75.7997 44.19 75.7997 44.42 75.7897C46.04 75.7397 53.16 75.5497 59.3 75.6097C63.63 75.5897 66.31 75.5797 67.71 75.5797C71.02 75.5597 73.48 75.4397 75.9 75.2197C77.23 75.0997 77.17 74.1297 75.83 74.0197C73.4 73.8197 70.93 73.7097 67.63 73.7097C66.35 73.7097 63.67 73.4597 59.9 73.4197C59.29 73.4197 58.67 73.4397 58.07 73.4797C52.83 73.8597 46 73.7797 46 73.7797C46 73.7797 35.82 73.8097 31.52 73.8197C28.28 73.8297 26.73 73.8397 25.77 73.8397C22.87 73.8597 20.62 73.9497 18.46 74.1297Z" fill="#101214"/>
</svg>
