<svg width="96" height="96" viewBox="0 0 96 96" fill="none" xmlns="http://www.w3.org/2000/svg">
<path d="M33.9795 65.22C33.9795 66 33.8295 66.77 33.5295 67.49C33.2295 68.21 32.7996 68.86 32.2396 69.42C31.6896 69.97 31.0295 70.41 30.3095 70.71C29.5895 71.01 28.8196 71.16 28.0396 71.16H73.2796V59.31H28.0495C28.8295 59.31 29.5995 59.46 30.3195 59.76C31.0395 60.06 31.6896 60.49 32.2396 61.04C32.7896 61.59 33.2295 62.24 33.5295 62.96C33.8295 63.68 33.9795 64.45 33.9795 65.23V65.22Z" fill="#FCA700"/>
<path d="M28.0496 71.16V59.31C26.4796 59.31 24.9696 59.93 23.8596 61.05C22.7496 62.16 22.1196 63.67 22.1196 65.24C22.1196 66.81 22.7396 68.32 23.8596 69.43C24.9696 70.54 26.4796 71.17 28.0496 71.17V71.16Z" fill="#BF63F3"/>
<path d="M28.0496 71.16C29.6196 71.16 31.1296 70.54 32.2396 69.43C33.3496 68.32 33.9696 66.81 33.9696 65.24C33.9696 63.67 33.3496 62.16 32.2396 61.05C31.1296 59.94 29.6196 59.32 28.0496 59.32V71.16Z" fill="#101214"/>
<path d="M28.0596 51.49C31.3296 51.49 33.9796 48.84 33.9796 45.57C33.9796 42.3 31.3296 39.65 28.0596 39.65C24.7896 39.65 22.1396 42.3 22.1396 45.57C22.1396 48.84 24.7896 51.49 28.0596 51.49Z" fill="#1868DB"/>
<path d="M61.4497 45.57C61.4497 44 62.0697 42.49 63.1797 41.38C64.2897 40.27 65.7997 39.65 67.3697 39.65H36.7297V51.49H67.3697C65.7997 51.49 64.2897 50.86 63.1797 49.75C62.0697 48.64 61.4497 47.13 61.4497 45.56V45.57Z" fill="#BF63F3"/>
<path d="M67.3696 39.65V51.49C68.1496 51.49 68.9196 51.34 69.6396 51.04C70.3596 50.74 71.0096 50.31 71.5596 49.76C72.1096 49.21 72.5496 48.56 72.8396 47.84C73.1396 47.12 73.2896 46.35 73.2896 45.57C73.2896 44.79 73.1396 44.02 72.8396 43.3C72.5396 42.58 72.1096 41.93 71.5596 41.38C71.0096 40.83 70.3596 40.39 69.6396 40.1C68.9196 39.8 68.1496 39.65 67.3696 39.65Z" fill="#82B536"/>
<path d="M67.3697 39.65C65.7997 39.65 64.2897 40.27 63.1797 41.38C62.0697 42.49 61.4497 44 61.4497 45.57C61.4497 47.14 62.0697 48.65 63.1797 49.76C64.2897 50.87 65.7997 51.49 67.3697 51.49V39.65Z" fill="#101214"/>
<path d="M58.6997 20H36.7297V31.84H58.6997V20Z" fill="#FCA700"/>
<path d="M28.0596 31.84C31.3296 31.84 33.9796 29.19 33.9796 25.92C33.9796 22.65 31.3296 20 28.0596 20C24.7896 20 22.1396 22.65 22.1396 25.92C22.1396 29.19 24.7896 31.84 28.0596 31.84Z" fill="#82B536"/>
<path d="M67.3697 31.84C70.6397 31.84 73.2897 29.19 73.2897 25.92C73.2897 22.65 70.6397 20 67.3697 20C64.0997 20 61.4497 22.65 61.4497 25.92C61.4497 29.19 64.0997 31.84 67.3697 31.84Z" fill="#1868DB"/>
</svg>
