<svg width="96" height="96" viewBox="0 0 96 96" fill="none" xmlns="http://www.w3.org/2000/svg">
<path d="M46.6632 56.67L27.0332 65.77L53.7132 78.14L80.3932 65.77L60.7632 56.67L53.7132 59.94L46.6632 56.67Z" fill="#FCA700"/>
<path d="M60.7732 38.47L53.7232 41.74L46.6732 38.47L27.0432 47.57L46.6732 56.67L53.7232 53.4L60.7732 56.67L80.4032 47.57L60.7732 38.47Z" fill="#82B536"/>
<path d="M46.6631 56.67L53.7131 59.94L60.7631 56.67L53.7131 53.4L46.6631 56.67Z" fill="#101214"/>
<path d="M60.7732 38.47L80.4032 29.37L53.7232 17L27.0432 29.37L46.6732 38.47L53.7232 35.2L60.7732 38.47Z" fill="#1868DB"/>
<path d="M60.7731 38.47L53.7231 35.2L46.6731 38.47L53.7231 41.74L60.7731 38.47Z" fill="#101214"/>
<path d="M37.8031 39.1505C39.0431 39.0405 39.0431 37.9305 37.8131 37.8005C36.0631 37.6205 34.2231 37.5105 31.8531 37.5005C29.1631 37.5405 28.5031 37.7805 26.6731 37.7705C25.8631 37.7705 24.9131 37.7805 23.9231 37.7905C23.2331 37.9205 22.0431 37.6905 22.2731 38.7305C22.2531 39.3505 22.2231 39.9705 22.2031 40.5705C22.1031 42.4005 22.0131 44.0105 21.9831 44.6405C21.9731 44.8205 21.9731 45.0105 21.9831 45.1905C22.0031 45.8205 22.0331 47.4505 22.0931 49.5405C22.1031 50.5905 22.1231 51.7505 22.1331 52.9605C22.1331 54.5005 22.1331 56.1105 22.1331 57.6905C22.3331 57.6905 22.8331 57.6905 23.3231 57.7005C27.0931 57.7005 29.4231 57.7005 30.6431 57.7005C33.3331 57.7005 35.3531 57.5805 37.3231 57.3705C38.4131 57.2505 38.4131 56.2805 37.3231 56.1705C35.3431 55.9605 33.3331 55.8405 30.6431 55.8405C29.5931 55.8405 27.4131 55.5705 24.3431 55.5305C24.3031 55.5305 24.3431 55.5305 24.2931 55.5605H24.2731C24.2731 55.5605 24.2331 55.5605 24.2131 55.5305C24.1931 55.2605 24.1731 54.9905 24.1631 54.7205C24.1331 54.1605 24.1131 53.5905 24.0831 53.0205C24.0431 51.8905 24.0231 50.8005 24.0131 49.8305C23.9931 47.9005 24.0131 46.5105 24.0131 46.5105C24.0131 46.5105 24.0131 44.4305 24.0131 41.9105C24.0131 41.2805 24.0131 40.6205 24.0131 39.9705V39.5605C23.9731 39.4405 24.1331 39.4905 24.2031 39.4705C24.7231 39.4505 25.2231 39.4405 25.6831 39.4305C26.2431 39.4305 26.7531 39.4205 27.1931 39.4105C29.8331 39.4105 31.1031 39.4105 31.8731 39.4005C34.2331 39.4005 36.0731 39.3305 37.8331 39.1805L37.8031 39.1505Z" fill="#101214"/>
<path d="M10.2331 44.5705C9.95311 44.6905 9.91311 45.8105 10.1831 45.9205C10.5731 46.0805 10.9831 46.1605 11.5131 46.1605C12.1231 46.1005 12.2731 45.8605 12.6831 45.8805C13.3731 45.8705 14.5331 46.1605 14.8131 46.2305C14.8531 46.2405 14.8931 46.2405 14.9331 46.2305C15.2331 46.1805 16.5331 45.9905 17.6631 46.0505C18.4531 46.0305 18.9531 46.0205 19.2031 46.0205C19.8131 46.0005 20.2531 45.8805 20.6931 45.6605C20.9331 45.5405 20.8831 44.5705 20.6331 44.4605C20.1831 44.2605 19.7331 44.1505 19.1331 44.1505C18.9031 44.1505 18.4131 43.8905 17.7231 43.8605C17.6131 43.8605 17.5031 43.8705 17.3931 43.9205C16.4531 44.3005 15.2131 44.2205 15.2131 44.2205C15.2131 44.2205 13.3731 44.2505 12.5931 44.2605C12.0031 44.2705 11.7231 44.2805 11.5531 44.2805C11.0331 44.3005 10.6131 44.3905 10.2231 44.5605L10.2331 44.5705Z" fill="#101214"/>
<path d="M10.1732 49.2305C9.97318 49.3505 9.93318 50.4705 10.1232 50.5805C10.3932 50.7405 10.6832 50.8205 11.0532 50.8205C11.4732 50.7605 11.5832 50.5205 11.8732 50.5405C12.3532 50.5305 13.1732 50.8205 13.3632 50.8905C13.3932 50.9005 13.4232 50.9005 13.4532 50.8905C13.6632 50.8405 14.5732 50.6505 15.3632 50.7105C15.9232 50.6905 16.2632 50.6805 16.4432 50.6805C16.8632 50.6605 17.1832 50.5405 17.4832 50.3205C17.6432 50.2005 17.5932 49.2305 17.4232 49.1205C17.1032 48.9105 16.7932 48.8105 16.3732 48.8105C16.2132 48.8105 15.8632 48.5505 15.3932 48.5205C15.3132 48.5205 15.2432 48.5305 15.1632 48.5805C14.5132 48.9605 13.6432 48.8805 13.6432 48.8805C13.6432 48.8805 12.3632 48.9105 11.8232 48.9205C11.4132 48.9305 11.2232 48.9405 11.1032 48.9405C10.7332 48.9605 10.4532 49.0505 10.1732 49.2205V49.2305Z" fill="#101214"/>
<path d="M69.5033 56.0305C68.2633 56.1405 68.2633 57.2505 69.4933 57.3805C71.2433 57.5605 73.0833 57.6705 75.4533 57.6805C78.1433 57.6405 78.8033 57.4005 80.6333 57.4105C81.4433 57.4105 82.3933 57.4005 83.3833 57.3905C84.0733 57.2605 85.2633 57.4905 85.0333 56.4505C85.0533 55.8305 85.0833 55.2105 85.1033 54.6105C85.2033 52.7805 85.2933 51.1705 85.3233 50.5405C85.3333 50.3605 85.3333 50.1705 85.3233 49.9905C85.3033 49.3605 85.2733 47.7305 85.2133 45.6405C85.2033 44.5905 85.1833 43.4305 85.1733 42.2205C85.1733 40.6805 85.1733 39.0705 85.1733 37.4905C84.9733 37.4905 84.4733 37.4905 83.9833 37.4805C80.2133 37.4805 77.8833 37.4805 76.6633 37.4805C73.9733 37.4805 71.9533 37.6005 69.9833 37.8105C68.9033 37.9305 68.9033 38.9005 69.9833 39.0105C71.9633 39.2205 73.9733 39.3405 76.6633 39.3405C77.7133 39.3405 79.8933 39.6105 82.9633 39.6505C83.0033 39.6505 82.9633 39.6505 83.0133 39.6205H83.0333C83.0333 39.6205 83.0733 39.6205 83.0933 39.6505C83.1133 39.9205 83.1233 40.1905 83.1433 40.4605C83.1733 41.0205 83.1933 41.5905 83.2233 42.1605C83.2633 43.2905 83.2833 44.3805 83.2933 45.3505C83.3133 47.2805 83.2933 48.6705 83.2933 48.6705C83.2933 48.6705 83.2933 50.7505 83.2933 53.2705C83.2933 53.9005 83.2933 54.5605 83.2933 55.2105V55.6205C83.3333 55.7405 83.1733 55.6905 83.1033 55.7105C82.5833 55.7305 82.0833 55.7405 81.6233 55.7505C81.0633 55.7505 80.5533 55.7605 80.1133 55.7705C77.4733 55.7705 76.2033 55.7705 75.4333 55.7805C73.0733 55.7805 71.2333 55.8505 69.4733 56.0005L69.5033 56.0305Z" fill="#101214"/>
</svg>
