<svg width="96" height="96" viewBox="0 0 96 96" fill="none" xmlns="http://www.w3.org/2000/svg">
<path d="M46.6632 56.67L27.0332 65.77L53.7132 78.14L80.3932 65.77L60.7632 56.67L53.7132 59.94L46.6632 56.67Z" fill="#FCA700"/>
<path d="M60.7732 38.47L53.7232 41.74L46.6732 38.47L27.0432 47.57L46.6732 56.67L53.7232 53.4L60.7732 56.67L80.4032 47.57L60.7732 38.47Z" fill="#82B536"/>
<path d="M46.6631 56.67L53.7131 59.94L60.7631 56.67L53.7131 53.4L46.6631 56.67Z" fill="#101214"/>
<path d="M60.7732 38.47L80.4032 29.37L53.7232 17L27.0432 29.37L46.6732 38.47L53.7232 35.2L60.7732 38.47Z" fill="#1868DB"/>
<path d="M60.7731 38.47L53.7231 35.2L46.6731 38.47L53.7231 41.74L60.7731 38.47Z" fill="#101214"/>
</svg>
