<svg width="96" height="96" viewBox="0 0 96 96" fill="none" xmlns="http://www.w3.org/2000/svg">
<path d="M15.03 34.6846H10V60.9046H15.03V34.6846Z" fill="#FCA700"/>
<path d="M85.1999 34.6846H80.1499V60.9046H85.1999V34.6846Z" fill="#FCA700"/>
<path d="M69.0798 60.9046L71.2498 64.6746H23.9298L26.1098 60.9046H15.0298V66.5946L47.5998 85.3946L80.1698 66.5946V60.9046H69.0898H69.0798Z" fill="#1868DB"/>
<path d="M47.5898 10.1846L15.0298 28.9946V34.6846H41.2498L47.5998 23.6846L53.9498 34.6846H80.1698V28.9946L47.5898 10.1846Z" fill="#1868DB"/>
<path d="M41.2398 34.6846H15.0298V60.9046H26.1098L41.2498 34.6846H41.2398Z" fill="#101214"/>
<path d="M53.9399 34.6846L69.0799 60.9046H80.1599V34.6846H53.9399Z" fill="#101214"/>
<path d="M47.4299 60.9046C49.6799 60.9046 51.4999 59.0846 51.4999 56.8346C51.4999 54.5846 49.6799 52.7646 47.4299 52.7646C45.1799 52.7646 43.3599 54.5846 43.3599 56.8346C43.3599 59.0846 45.1799 60.9046 47.4299 60.9046Z" fill="#FCA700"/>
<path d="M50.55 34.6846H44.29V50.4246H50.55V34.6846Z" fill="#FCA700"/>
<path d="M25.8304 69.765C25.9504 69.515 25.4904 68.465 24.9704 68.725C24.3904 69.015 23.9004 69.365 23.3604 69.905C22.7804 70.555 22.8104 70.875 22.3804 71.275C21.7004 71.985 20.3304 72.965 20.0004 73.205C19.9504 73.235 19.9104 73.285 19.8704 73.325C19.6104 73.665 18.4604 75.125 17.3104 76.235C16.5404 77.055 16.0704 77.565 15.8204 77.835C15.2404 78.465 14.8804 79.015 14.6104 79.615C14.4604 79.935 15.1504 80.625 15.4804 80.445C16.0704 80.125 16.5904 79.735 17.1904 79.115C17.4204 78.875 18.0904 78.545 18.8004 77.865C18.9104 77.755 19.0104 77.625 19.0904 77.475C19.7604 76.225 21.0604 75.005 21.0604 75.005C21.0604 75.005 22.8904 73.095 23.6704 72.285C24.2604 71.685 24.5404 71.395 24.7104 71.225C25.2304 70.695 25.5904 70.215 25.8604 69.765H25.8304Z" fill="#101214"/>
<path d="M47.6505 68.425C47.5505 67.995 46.4905 67.455 46.3005 68.375C46.1105 69.315 46.0105 70.285 46.0005 71.545C46.0405 72.965 46.2805 73.315 46.2505 74.275C46.2505 75.895 45.9405 78.635 45.8605 79.295C45.8505 79.395 45.8505 79.495 45.8605 79.585C45.9005 80.285 46.0705 83.345 46.0005 85.985C46.0005 87.845 46.0105 89.005 46.0205 89.605C46.0305 91.025 46.1505 92.095 46.3705 93.135C46.4905 93.705 47.4605 93.705 47.5705 93.135C47.7805 92.095 47.8905 91.025 47.8905 89.605C47.8905 89.055 48.1505 87.905 48.2005 86.275C48.2005 86.015 48.1905 85.745 48.1505 85.485C47.7805 83.215 47.8805 80.275 47.8805 80.275C47.8805 80.275 47.8805 75.885 47.8805 74.035C47.8805 72.645 47.8805 71.975 47.8805 71.555C47.8805 70.305 47.8005 69.335 47.6605 68.425H47.6505Z" fill="#101214"/>
<path d="M70.4906 68.855C70.4906 68.855 70.3606 68.805 70.2706 68.795C70.1806 68.795 70.1006 68.805 70.0406 68.845C69.9206 68.905 69.8806 69.115 69.8706 69.165C69.8706 69.165 69.8706 69.245 69.8506 69.395C69.8206 69.575 69.8206 69.575 69.7806 69.665C69.7506 69.725 69.7106 69.775 69.6606 69.795C69.6406 69.805 69.6106 69.815 69.5906 69.815C69.5806 69.815 69.5906 69.855 69.6006 69.875C69.8306 70.305 70.1506 70.785 70.6306 71.295C71.2206 71.845 71.5306 71.845 71.8806 72.265C72.5106 72.955 73.3406 74.335 73.5306 74.665C73.5606 74.715 73.5906 74.755 73.6406 74.795C73.9406 75.065 75.2406 76.275 76.2006 77.465C76.9206 78.265 77.3606 78.765 77.5906 79.025C78.1406 79.635 78.6306 80.025 79.2006 80.335C79.5306 80.525 80.2106 79.835 80.1006 79.535C79.8606 78.945 79.5406 78.405 79.0006 77.785C78.7906 77.545 78.5506 76.865 77.9606 76.135C77.8606 76.015 77.7506 75.915 77.6206 75.825C76.4806 75.085 75.4206 73.745 75.4206 73.745C75.4206 73.745 73.7206 71.855 73.0006 71.055C72.4406 70.465 72.1806 70.175 72.0106 69.995C71.5006 69.465 71.0506 69.115 70.5006 68.835L70.4906 68.855Z" fill="#101214"/>
<path d="M64.1204 30.585C63.9004 30.925 64.3304 32.005 65.0204 31.585C65.7504 31.135 66.4304 30.595 67.2104 29.825C68.0504 28.905 68.1004 28.525 68.7104 27.945C69.7004 26.935 71.6004 25.435 72.0504 25.075C72.1204 25.025 72.1804 24.965 72.2304 24.895C72.6304 24.425 74.3704 22.385 76.0204 20.785C77.1504 19.615 77.8404 18.885 78.2104 18.505C79.0604 17.605 79.6304 16.855 80.1004 16.055C80.3604 15.615 79.6704 14.935 79.2304 15.225C78.4404 15.735 77.7204 16.325 76.8504 17.215C76.5104 17.565 75.6304 18.105 74.6104 19.095C74.4404 19.255 74.3004 19.435 74.1704 19.625C73.0604 21.305 71.2004 23.075 71.2004 23.075C71.2004 23.075 68.5204 25.815 67.3904 26.965C66.5404 27.825 66.1304 28.245 65.8704 28.505C65.1104 29.285 64.5704 29.925 64.1104 30.585H64.1204Z" fill="#101214"/>
<path d="M47.1403 20.455C47.2503 20.725 48.3003 21.255 48.4903 20.515C48.6803 19.815 48.7803 19.105 48.7903 18.175C48.7503 17.135 48.5103 16.875 48.5403 16.165C48.5403 14.975 48.8503 12.965 48.9303 12.475C48.9403 12.405 48.9403 12.335 48.9303 12.265C48.8903 11.755 48.7203 9.505 48.7903 7.565C48.7903 6.195 48.7803 5.355 48.7703 4.905C48.7603 3.865 48.6403 3.085 48.4203 2.315C48.3003 1.895 47.3303 1.895 47.2203 2.315C47.0103 3.085 46.9003 3.865 46.9003 4.905C46.9003 5.315 46.6403 6.155 46.5903 7.345C46.5903 7.535 46.6003 7.735 46.6403 7.925C47.0103 9.585 46.9103 11.745 46.9103 11.745C46.9103 11.745 46.9103 14.965 46.9103 16.325C46.9103 17.345 46.9103 17.835 46.9103 18.145C46.9103 19.055 46.9903 19.775 47.1303 20.435L47.1403 20.455Z" fill="#101214"/>
<path d="M29.5105 30.595C29.5705 30.625 29.6405 30.645 29.7605 30.685C29.8705 30.705 29.9605 30.685 30.0205 30.665C30.1505 30.625 30.2105 30.405 30.2105 30.375L30.2405 30.075C30.2405 29.995 30.2605 29.915 30.2805 29.845C30.3005 29.775 30.3405 29.725 30.3805 29.695C30.3905 29.675 30.4305 29.685 30.4205 29.655C30.4105 29.625 30.3905 29.595 30.3705 29.565C29.9405 28.975 29.4005 28.345 28.6605 27.625C27.7805 26.855 27.4105 26.815 26.8505 26.245C25.8805 25.305 24.4705 23.495 24.1405 23.055C24.0905 22.995 24.0305 22.935 23.9705 22.875C23.5305 22.495 21.5905 20.835 20.0905 19.225C18.9905 18.135 18.3105 17.465 17.9505 17.105C17.1105 16.275 16.4005 15.735 15.6405 15.265C15.2405 15.025 14.5205 15.675 14.7905 16.115C15.2505 16.885 15.8005 17.585 16.6305 18.425C16.9605 18.755 17.4505 19.615 18.3705 20.605C18.5205 20.765 18.6905 20.905 18.8805 21.035C20.4805 22.105 22.1505 23.895 22.1505 23.895C22.1505 23.895 24.7605 26.455 25.8705 27.535C26.7105 28.345 27.1205 28.725 27.3705 28.965C28.1405 29.685 28.7805 30.175 29.5005 30.575L29.5105 30.595Z" fill="#101214"/>
</svg>
