<svg width="96" height="96" viewBox="0 0 96 96" fill="none" xmlns="http://www.w3.org/2000/svg">
<path d="M15.03 34.6846H10V60.9046H15.03V34.6846Z" fill="#FCA700"/>
<path d="M85.1999 34.6846H80.1499V60.9046H85.1999V34.6846Z" fill="#FCA700"/>
<path d="M69.0798 60.9046L71.2498 64.6746H23.9298L26.1098 60.9046H15.0298V66.5946L47.5998 85.3946L80.1698 66.5946V60.9046H69.0898H69.0798Z" fill="#1868DB"/>
<path d="M47.5898 10.1846L15.0298 28.9946V34.6846H41.2498L47.5998 23.6846L53.9498 34.6846H80.1698V28.9946L47.5898 10.1846Z" fill="#1868DB"/>
<path d="M41.2398 34.6846H15.0298V60.9046H26.1098L41.2498 34.6846H41.2398Z" fill="#101214"/>
<path d="M53.9399 34.6846L69.0799 60.9046H80.1599V34.6846H53.9399Z" fill="#101214"/>
<path d="M47.4299 60.9046C49.6799 60.9046 51.4999 59.0846 51.4999 56.8346C51.4999 54.5846 49.6799 52.7646 47.4299 52.7646C45.1799 52.7646 43.3599 54.5846 43.3599 56.8346C43.3599 59.0846 45.1799 60.9046 47.4299 60.9046Z" fill="#FCA700"/>
<path d="M50.55 34.6846H44.29V50.4246H50.55V34.6846Z" fill="#FCA700"/>
</svg>
