<svg width="16" height="16" viewBox="0 0 16 16" fill="none" xmlns="http://www.w3.org/2000/svg">
<g clip-path="url(#clip0_237_6652)">
<g clip-path="url(#clip1_237_6652)">
<path d="M0.926846 13.9882H3.4723V7.80637L-0.164062 5.0791V12.8973C-0.164062 13.5009 0.325028 13.9882 0.926846 13.9882Z" fill="#4285F4"/>
<path d="M12.1992 13.9882H14.7447C15.3483 13.9882 15.8356 13.4991 15.8356 12.8973V5.0791L12.1992 7.80637" fill="#34A853"/>
<path d="M12.1992 3.07936V7.80663L15.8356 5.07936V3.62481C15.8356 2.27572 14.2956 1.50663 13.2174 2.31572" fill="#FBBC04"/>
<path d="M3.47266 7.80637V3.0791L7.83629 6.35183L12.1999 3.0791V7.80637L7.83629 11.0791" fill="#EA4335"/>
<path d="M-0.164062 3.62481V5.07936L3.4723 7.80663V3.07936L2.45412 2.31572C1.37412 1.50663 -0.164062 2.27572 -0.164062 3.62481Z" fill="#C5221F"/>
</g>
</g>
<defs>
<clipPath id="clip0_237_6652">
<rect width="16" height="16" rx="4" fill="white"/>
</clipPath>
<clipPath id="clip1_237_6652">
<rect width="16" height="12" fill="white" transform="translate(-0.164062 1.98828)"/>
</clipPath>
</defs>
</svg>
