<svg width="16" height="16" viewBox="0 0 16 16" fill="none" xmlns="http://www.w3.org/2000/svg">
<mask id="path-1-inside-1_237_6645" fill="white">
<path d="M0 4C0 1.79086 1.79086 0 4 0H12C14.2091 0 16 1.79086 16 4V12C16 14.2091 14.2091 16 12 16H4C1.79086 16 0 14.2091 0 12V4Z"/>
</mask>
<path d="M0 4C0 1.79086 1.79086 0 4 0H12C14.2091 0 16 1.79086 16 4V12C16 14.2091 14.2091 16 12 16H4C1.79086 16 0 14.2091 0 12V4Z" fill="white"/>
<path d="M4 0V1H12V0V-1H4V0ZM16 4H15V12H16H17V4H16ZM12 16V15H4V16V17H12V16ZM0 12H1V4H0H-1V12H0ZM4 16V15C2.34315 15 1 13.6569 1 12H0H-1C-1 14.7614 1.23858 17 4 17V16ZM16 12H15C15 13.6569 13.6569 15 12 15V16V17C14.7614 17 17 14.7614 17 12H16ZM12 0V1C13.6569 1 15 2.34315 15 4H16H17C17 1.23858 14.7614 -1 12 -1V0ZM4 0V-1C1.23858 -1 -1 1.23858 -1 4H0H1C1 2.34315 2.34315 1 4 1V0Z" fill="#0B1228" fill-opacity="0.14" mask="url(#path-1-inside-1_237_6645)"/>
<g clip-path="url(#clip0_237_6645)">
<path d="M3.68182 11.7498H5.27273V7.88619L3 6.18164V11.068C3 11.4453 3.30568 11.7498 3.68182 11.7498Z" fill="#4285F4"/>
<path d="M10.7266 11.7498H12.3175C12.6947 11.7498 12.9993 11.4441 12.9993 11.068V6.18164L10.7266 7.88619" fill="#34A853"/>
<path d="M10.7266 4.9318V7.88634L12.9993 6.1818V5.27271C12.9993 4.42953 12.0368 3.94884 11.3629 4.45453" fill="#FBBC04"/>
<path d="M5.27344 7.88619V4.93164L8.00071 6.9771L10.728 4.93164V7.88619L8.00071 9.93164" fill="#EA4335"/>
<path d="M3 5.27271V6.1818L5.27273 7.88634V4.9318L4.63636 4.45453C3.96136 3.94884 3 4.42953 3 5.27271Z" fill="#C5221F"/>
</g>
<defs>
<clipPath id="clip0_237_6645">
<rect width="10" height="7.5" fill="white" transform="translate(3 4.25)"/>
</clipPath>
</defs>
</svg>
