<svg width="20" height="20" viewBox="0 0 20 20" fill="none" xmlns="http://www.w3.org/2000/svg">
<mask id="path-1-inside-1_237_6638" fill="white">
<path d="M0 5C0 2.23858 2.23858 0 5 0H15C17.7614 0 20 2.23858 20 5V15C20 17.7614 17.7614 20 15 20H5C2.23858 20 0 17.7614 0 15V5Z"/>
</mask>
<path d="M0 5C0 2.23858 2.23858 0 5 0H15C17.7614 0 20 2.23858 20 5V15C20 17.7614 17.7614 20 15 20H5C2.23858 20 0 17.7614 0 15V5Z" fill="white"/>
<path d="M5 0V1H15V0V-1H5V0ZM20 5H19V15H20H21V5H20ZM15 20V19H5V20V21H15V20ZM0 15H1V5H0H-1V15H0ZM5 20V19C2.79086 19 1 17.2091 1 15H0H-1C-1 18.3137 1.68629 21 5 21V20ZM20 15H19C19 17.2091 17.2091 19 15 19V20V21C18.3137 21 21 18.3137 21 15H20ZM15 0V1C17.2091 1 19 2.79086 19 5H20H21C21 1.68629 18.3137 -1 15 -1V0ZM5 0V-1C1.68629 -1 -1 1.68629 -1 5H0H1C1 2.79086 2.79086 1 5 1V0Z" fill="#0B1228" fill-opacity="0.14" mask="url(#path-1-inside-1_237_6638)"/>
<g clip-path="url(#clip0_237_6638)">
<path d="M4.60227 14.6878H6.59091V9.85822L3.75 7.72754V13.8355C3.75 14.3071 4.1321 14.6878 4.60227 14.6878Z" fill="#4285F4"/>
<path d="M13.4082 14.6878H15.3968C15.8684 14.6878 16.2491 14.3057 16.2491 13.8355V7.72754L13.4082 9.85822" fill="#34A853"/>
<path d="M13.4082 6.16426V9.85744L16.2491 7.72676V6.5904C16.2491 5.53642 15.046 4.93557 14.2037 5.56767" fill="#FBBC04"/>
<path d="M6.5918 9.85822V6.16504L10.0009 8.72186L13.41 6.16504V9.85822L10.0009 12.415" fill="#EA4335"/>
<path d="M3.75 6.59137V7.72774L6.59091 9.85842V6.16524L5.79545 5.56865C4.9517 4.93654 3.75 5.5374 3.75 6.59137Z" fill="#C5221F"/>
</g>
<defs>
<clipPath id="clip0_237_6638">
<rect width="12.5" height="9.375" fill="white" transform="translate(3.75 5.3125)"/>
</clipPath>
</defs>
</svg>
