<svg width="24" height="24" viewBox="0 0 24 24" fill="none" xmlns="http://www.w3.org/2000/svg">
<mask id="path-1-inside-1_237_6631" fill="white">
<path d="M0 6.39569C0 2.86345 2.86345 0 6.39569 0H17.6043C21.1366 0 24 2.86345 24 6.39569V17.6043C24 21.1366 21.1366 24 17.6043 24H6.39569C2.86345 24 0 21.1366 0 17.6043V6.39569Z"/>
</mask>
<path d="M0 6.39569C0 2.86345 2.86345 0 6.39569 0H17.6043C21.1366 0 24 2.86345 24 6.39569V17.6043C24 21.1366 21.1366 24 17.6043 24H6.39569C2.86345 24 0 21.1366 0 17.6043V6.39569Z" fill="white"/>
<path d="M6.39569 0V1H17.6043V0V-1H6.39569V0ZM24 6.39569H23V17.6043H24H25V6.39569H24ZM17.6043 24V23H6.39569V24V25H17.6043V24ZM0 17.6043H1V6.39569H0H-1V17.6043H0ZM6.39569 24V23C3.41573 23 1 20.5843 1 17.6043H0H-1C-1 21.6888 2.31116 25 6.39569 25V24ZM24 17.6043H23C23 20.5843 20.5843 23 17.6043 23V24V25C21.6888 25 25 21.6888 25 17.6043H24ZM17.6043 0V1C20.5843 1 23 3.41573 23 6.39569H24H25C25 2.31116 21.6888 -1 17.6043 -1V0ZM6.39569 0V-1C2.31116 -1 -1 2.31116 -1 6.39569H0H1C1 3.41573 3.41573 1 6.39569 1V0Z" fill="#0B1228" fill-opacity="0.14" mask="url(#path-1-inside-1_237_6631)"/>
<g clip-path="url(#clip0_237_6631)">
<path d="M4.88705 17.7879H7.43079V11.6102L3.79688 8.88477V16.6977C3.79688 17.3009 4.28564 17.7879 4.88705 17.7879Z" fill="#4285F4"/>
<path d="M16.1523 17.7879H18.6961C19.2993 17.7879 19.7863 17.2991 19.7863 16.6977V8.88477L16.1523 11.6102" fill="#34A853"/>
<path d="M16.1523 6.88624V11.6103L19.7863 8.88489V7.43132C19.7863 6.08314 18.2473 5.31457 17.1698 6.12311" fill="#FBBC04"/>
<path d="M7.43164 11.6098V6.88574L11.7923 10.1563L16.153 6.88574V11.6098L11.7923 14.8804" fill="#EA4335"/>
<path d="M3.79688 7.43132V8.88489L7.43079 11.6103V6.88624L6.41329 6.12311C5.33402 5.31457 3.79688 6.08314 3.79688 7.43132Z" fill="#C5221F"/>
</g>
<defs>
<clipPath id="clip0_237_6631">
<rect width="15.9892" height="11.9919" fill="white" transform="translate(3.79688 5.7959)"/>
</clipPath>
</defs>
</svg>
