<svg width="32" height="32" viewBox="0 0 32 32" fill="none" xmlns="http://www.w3.org/2000/svg">
<mask id="path-1-inside-1_237_6528" fill="white">
<path d="M0 8C0 3.58172 3.58172 0 8 0H24C28.4183 0 32 3.58172 32 8V24C32 28.4183 28.4183 32 24 32H8C3.58172 32 0 28.4183 0 24V8Z"/>
</mask>
<path d="M0 8C0 3.58172 3.58172 0 8 0H24C28.4183 0 32 3.58172 32 8V24C32 28.4183 28.4183 32 24 32H8C3.58172 32 0 28.4183 0 24V8Z" fill="white"/>
<path d="M8 0V1H24V0V-1H8V0ZM32 8H31V24H32H33V8H32ZM24 32V31H8V32V33H24V32ZM0 24H1V8H0H-1V24H0ZM8 32V31C4.13401 31 1 27.866 1 24H0H-1C-1 28.9706 3.02944 33 8 33V32ZM32 24H31C31 27.866 27.866 31 24 31V32V33C28.9706 33 33 28.9706 33 24H32ZM24 0V1C27.866 1 31 4.13401 31 8H32H33C33 3.02944 28.9706 -1 24 -1V0ZM8 0V-1C3.02944 -1 -1 3.02944 -1 8H0H1C1 4.13401 4.13401 1 8 1V0Z" fill="#0B1228" fill-opacity="0.14" mask="url(#path-1-inside-1_237_6528)"/>
<g clip-path="url(#clip0_237_6528)">
<path d="M7.36364 23.8297H10.5455V16.1025L6 12.6934V22.4661C6 23.2206 6.61136 23.8297 7.36364 23.8297Z" fill="#4285F4"/>
<path d="M21.4551 23.8297H24.6369C25.3914 23.8297 26.0005 23.2184 26.0005 22.4661V12.6934L21.4551 16.1025" fill="#34A853"/>
<path d="M21.4551 10.1937V16.1028L26.0005 12.6937V10.8755C26.0005 9.18913 24.0755 8.22777 22.7278 9.23913" fill="#FBBC04"/>
<path d="M10.5449 16.1025V10.1934L15.9995 14.2843L21.454 10.1934V16.1025L15.9995 20.1934" fill="#EA4335"/>
<path d="M6 10.8755V12.6937L10.5455 16.1028V10.1937L9.27273 9.23913C7.92273 8.22777 6 9.18913 6 10.8755Z" fill="#C5221F"/>
</g>
<defs>
<clipPath id="clip0_237_6528">
<rect width="20" height="15" fill="white" transform="translate(6 8.83008)"/>
</clipPath>
</defs>
</svg>
