<svg width="16" height="16" viewBox="0 0 16 16" fill="none" xmlns="http://www.w3.org/2000/svg">
<path d="M0 4C0 1.79086 1.79086 0 4 0H12C14.2091 0 16 1.79086 16 4V12C16 14.2091 14.2091 16 12 16H4C1.79086 16 0 14.2091 0 12V4Z" fill="#0B5CFE"/>
<path d="M12.8034 7.20801C12.8327 7.22485 12.8669 7.22291 12.8985 7.23003C13.3398 7.3272 13.661 7.7256 13.661 8.17745C13.661 8.68856 13.6606 9.19968 13.6619 9.71112C13.6619 9.74869 13.6519 9.7555 13.6162 9.75161C13.3507 9.72311 13.1604 9.51225 13.16 9.24535C13.16 8.88388 13.1633 8.5224 13.1578 8.16093C13.1539 7.90926 12.9323 7.70585 12.6807 7.71038C12.4223 7.71524 12.2136 7.92383 12.2133 8.17971C12.2126 8.68694 12.2133 9.1945 12.2133 9.70173C12.2133 9.73757 12.196 9.75366 12.1614 9.74999C11.9017 9.72311 11.7107 9.51063 11.7104 9.24762C11.7104 8.8978 11.7104 8.54799 11.7104 8.19818C11.7104 7.95007 11.5493 7.75799 11.3064 7.71589C11.0419 7.67022 10.7775 7.88075 10.7652 8.15024C10.7604 8.25583 10.7636 8.36175 10.7636 8.46766C10.7636 8.72711 10.7636 8.98655 10.7636 9.246C10.7636 9.49249 10.5971 9.69525 10.3558 9.74448C10.2931 9.75722 10.2617 9.73164 10.2617 9.66772C10.2617 9.17344 10.2617 8.67885 10.2617 8.18457C10.2617 7.6971 10.6193 7.28477 11.1012 7.21611C11.1083 7.21513 11.1173 7.21837 11.1206 7.20801H11.3522C11.4688 7.21708 11.5783 7.25076 11.6824 7.30421C11.7739 7.35117 11.856 7.41012 11.9288 7.48203C11.9511 7.50405 11.9735 7.50405 11.9958 7.48203C12.1243 7.35506 12.2767 7.27052 12.4513 7.22485C12.4913 7.21449 12.5325 7.21643 12.5724 7.20833H12.8041L12.8034 7.20801Z" fill="white"/>
<path d="M2.33789 7.24739C2.35206 7.24707 2.36624 7.24609 2.38041 7.24609C2.98411 7.24609 3.58748 7.24609 4.19118 7.24609C4.3487 7.24609 4.47434 7.32642 4.53007 7.46246C4.58612 7.59915 4.55391 7.74523 4.44341 7.85632C3.99209 8.30882 3.54077 8.76163 3.08913 9.21412C3.07914 9.22416 3.06787 9.23258 3.05434 9.24424C3.07238 9.2559 3.08623 9.25202 3.09911 9.25202C3.47376 9.25202 3.84809 9.25202 4.22275 9.25202C4.4811 9.25202 4.70113 9.46385 4.71433 9.72265C4.71594 9.75601 4.69823 9.75342 4.67632 9.75342C4.37254 9.75342 4.06876 9.75342 3.76498 9.75342C3.41224 9.75342 3.05981 9.75342 2.70707 9.75342C2.52409 9.75342 2.40167 9.6624 2.34723 9.4862C2.3453 9.48037 2.34562 9.47324 2.33821 9.47033V9.33105C2.34884 9.24748 2.39459 9.18529 2.4529 9.12732C2.90003 8.68098 3.34555 8.23335 3.7914 7.78604C3.79784 7.77956 3.80493 7.77405 3.81105 7.76401C3.79752 7.75786 3.78367 7.7611 3.77046 7.7611C3.4641 7.7611 3.15774 7.76239 2.85139 7.76045C2.64135 7.75915 2.48543 7.66166 2.38202 7.47963C2.35754 7.43655 2.34884 7.38829 2.33853 7.34035V7.24739H2.33789Z" fill="white"/>
<path d="M10.0015 8.33098C9.92934 7.78779 9.53665 7.35895 9.00157 7.23684C8.95357 7.22582 8.90331 7.22517 8.8566 7.20801H8.58633C8.56152 7.22291 8.53285 7.21999 8.50611 7.22453C7.81029 7.34275 7.33803 8.00805 7.45271 8.70994C7.56578 9.40309 8.21683 9.87955 8.91169 9.77817C9.6072 9.67646 10.0946 9.02963 10.0015 8.33098ZM8.72227 9.28746C8.28996 9.28649 7.93721 8.93246 7.93753 8.49876C7.93753 8.06376 8.29382 7.70779 8.72646 7.71038C9.15974 7.71297 9.51281 8.06764 9.51184 8.49908C9.51088 8.93408 9.1562 9.28811 8.72195 9.28746H8.72227Z" fill="white"/>
<path d="M7.22906 8.34393C7.16527 7.79978 6.76549 7.3583 6.22913 7.23716C6.18113 7.22615 6.13087 7.22582 6.08449 7.20801H5.81421C5.78812 7.22356 5.75816 7.21999 5.73013 7.22485C5.01884 7.35085 4.55077 8.03201 4.6851 8.74233C4.80816 9.39402 5.42635 9.88214 6.13989 9.77687C6.83347 9.67452 7.3112 9.04226 7.22938 8.34393H7.22906ZM5.94854 9.28746C5.51623 9.28713 5.16316 8.93214 5.16413 8.49908C5.16509 8.06246 5.51945 7.70779 5.95209 7.71038C6.38633 7.71297 6.73715 8.06538 6.73682 8.49876C6.7365 8.93505 6.38376 9.28778 5.94854 9.28713V9.28746Z" fill="white"/>
</svg>
