<svg width="20" height="20" viewBox="0 0 20 20" fill="none" xmlns="http://www.w3.org/2000/svg">
<path d="M0 5C0 2.23858 2.23858 0 5 0H15C17.7614 0 20 2.23858 20 5V15C20 17.7614 17.7614 20 15 20H5C2.23858 20 0 17.7614 0 15V5Z" fill="#0B5CFE"/>
<path d="M15.0917 9C15.1227 9.01785 15.1589 9.01579 15.1924 9.02334C15.66 9.1263 16.0003 9.54845 16.0003 10.0272C16.0003 10.5688 16 11.1104 16.0013 11.6523C16.0013 11.6921 15.9908 11.6993 15.9529 11.6952C15.6716 11.665 15.4699 11.4416 15.4695 11.1588C15.4695 10.7758 15.4729 10.3927 15.4671 10.0097C15.463 9.74305 15.2282 9.52751 14.9616 9.53232C14.6878 9.53747 14.4666 9.75849 14.4663 10.0296C14.4656 10.5671 14.4663 11.1049 14.4663 11.6424C14.4663 11.6804 14.448 11.6974 14.4114 11.6935C14.1362 11.665 13.9338 11.4399 13.9335 11.1612C13.9335 10.7905 13.9335 10.4199 13.9335 10.0492C13.9335 9.78629 13.7628 9.58277 13.5054 9.53815C13.2252 9.48976 12.9449 9.71285 12.932 9.9984C12.9268 10.1103 12.9303 10.2225 12.9303 10.3347C12.9303 10.6097 12.9303 10.8846 12.9303 11.1595C12.9303 11.4207 12.7538 11.6355 12.4981 11.6877C12.4317 11.7012 12.3984 11.6741 12.3984 11.6063C12.3984 11.0826 12.3984 10.5585 12.3984 10.0348C12.3984 9.51825 12.7773 9.08134 13.288 9.00858C13.2955 9.00755 13.3051 9.01098 13.3085 9H13.5539C13.6775 9.00961 13.7935 9.0453 13.9038 9.10193C14.0007 9.1517 14.0878 9.21416 14.1649 9.29036C14.1886 9.31369 14.2122 9.31369 14.2359 9.29036C14.3721 9.15582 14.5336 9.06624 14.7186 9.01785C14.7609 9.00686 14.8046 9.00892 14.8469 9.00034H15.0923L15.0917 9Z" fill="white"/>
<path d="M4 9.04141C4.01502 9.04107 4.03004 9.04004 4.04506 9.04004C4.68474 9.04004 5.32408 9.04004 5.96376 9.04004C6.13068 9.04004 6.2638 9.12516 6.32286 9.2693C6.38225 9.41414 6.34812 9.56893 6.23103 9.68665C5.75281 10.1661 5.27458 10.6459 4.79602 11.1254C4.78544 11.136 4.77349 11.1449 4.75915 11.1573C4.77827 11.1697 4.79295 11.1655 4.8066 11.1655C5.20358 11.1655 5.60023 11.1655 5.99721 11.1655C6.27097 11.1655 6.50411 11.39 6.51811 11.6642C6.51981 11.6996 6.50104 11.6968 6.47783 11.6968C6.15594 11.6968 5.83405 11.6968 5.51216 11.6968C5.13839 11.6968 4.76496 11.6968 4.39118 11.6968C4.1973 11.6968 4.06759 11.6004 4.0099 11.4137C4.00785 11.4075 4.00819 11.4 4.00034 11.3969V11.2493C4.01161 11.1607 4.06008 11.0948 4.12186 11.0334C4.59565 10.5605 5.06773 10.0861 5.54015 9.61217C5.54698 9.60531 5.55449 9.59947 5.56097 9.58883C5.54664 9.58231 5.53196 9.58574 5.51796 9.58574C5.19334 9.58574 4.86872 9.58712 4.5441 9.58506C4.32155 9.58368 4.15634 9.48038 4.04676 9.28749C4.02082 9.24185 4.01161 9.19071 4.00068 9.13991V9.04141H4Z" fill="white"/>
<path d="M12.1213 10.1899C12.0448 9.61435 11.6287 9.15994 11.0617 9.03055C11.0109 9.01888 10.9576 9.01819 10.9081 9H10.6217C10.5954 9.01579 10.5651 9.0127 10.5367 9.0175C9.79942 9.14278 9.29901 9.84773 9.42053 10.5915C9.54034 11.3259 10.2302 11.8308 10.9665 11.7234C11.7034 11.6156 12.2199 10.9302 12.1213 10.1899ZM10.7658 11.2034C10.3077 11.2024 9.93391 10.8273 9.93425 10.3677C9.93425 9.90676 10.3118 9.52957 10.7702 9.53232C11.2293 9.53506 11.6034 9.91088 11.6024 10.368C11.6014 10.829 11.2256 11.2041 10.7654 11.2034H10.7658Z" fill="white"/>
<path d="M9.18286 10.2036C9.11527 9.62704 8.69166 9.15925 8.12332 9.03089C8.07246 9.01922 8.01921 9.01888 7.97006 9H7.68367C7.65602 9.01647 7.62427 9.0127 7.59458 9.01785C6.84089 9.15136 6.34491 9.87313 6.48725 10.6258C6.61765 11.3163 7.27269 11.8335 8.02877 11.722C8.76369 11.6135 9.2699 10.9436 9.1832 10.2036H9.18286ZM7.82601 11.2034C7.36792 11.2031 6.99381 10.8269 6.99483 10.368C6.99586 9.90539 7.37134 9.52957 7.82976 9.53232C8.2899 9.53506 8.66162 9.90848 8.66128 10.3677C8.66094 10.83 8.28717 11.2038 7.82601 11.2031V11.2034Z" fill="white"/>
</svg>
