<svg width="24" height="24" viewBox="0 0 24 24" fill="none" xmlns="http://www.w3.org/2000/svg">
<path d="M0 6.39569C0 2.86345 2.86345 0 6.39569 0H17.6043C21.1366 0 24 2.86345 24 6.39569V17.6043C24 21.1366 21.1366 24 17.6043 24H6.39569C2.86345 24 0 21.1366 0 17.6043V6.39569Z" fill="#0B5CFE"/>
<path d="M18.7865 10.7715C18.8279 10.7953 18.8761 10.7925 18.9207 10.8026C19.5443 10.9399 19.9981 11.5028 19.9981 12.1412C19.9981 12.8633 19.9976 13.5855 19.9994 14.3081C19.9994 14.3612 19.9853 14.3708 19.9348 14.3653C19.5598 14.325 19.2908 14.0271 19.2903 13.65C19.2903 13.1393 19.2949 12.6286 19.2871 12.1179C19.2817 11.7623 18.9685 11.4749 18.613 11.4813C18.248 11.4881 17.9531 11.7829 17.9526 12.1444C17.9517 12.8611 17.9526 13.5782 17.9526 14.2948C17.9526 14.3455 17.9282 14.3682 17.8793 14.363C17.5125 14.325 17.2426 14.0248 17.2421 13.6532C17.2421 13.159 17.2421 12.6647 17.2421 12.1705C17.2421 11.8199 17.0145 11.5486 16.6714 11.4891C16.2977 11.4245 15.924 11.722 15.9067 12.1027C15.8999 12.2519 15.9044 12.4016 15.9044 12.5512C15.9044 12.9178 15.9044 13.2844 15.9044 13.6509C15.9044 13.9992 15.6691 14.2857 15.3282 14.3552C15.2396 14.3732 15.1953 14.3371 15.1953 14.2468C15.1953 13.5484 15.1953 12.8496 15.1953 12.1513C15.1953 11.4625 15.7005 10.8799 16.3814 10.7829C16.3914 10.7816 16.4042 10.7861 16.4087 10.7715H16.736C16.9008 10.7843 17.0555 10.8319 17.2025 10.9074C17.3318 10.9738 17.4479 11.057 17.5507 11.1586C17.5823 11.1898 17.6138 11.1898 17.6454 11.1586C17.827 10.9793 18.0423 10.8598 18.289 10.7953C18.3454 10.7806 18.4037 10.7834 18.4601 10.7719H18.7874L18.7865 10.7715Z" fill="white"/>
<path d="M4 10.826C4.02003 10.8256 4.04005 10.8242 4.06008 10.8242C4.91303 10.8242 5.76553 10.8242 6.61848 10.8242C6.84105 10.8242 7.01856 10.9377 7.0973 11.1299C7.1765 11.323 7.13098 11.5294 6.97486 11.6864C6.3372 12.3257 5.69953 12.9655 5.06141 13.6048C5.0473 13.619 5.03137 13.6309 5.01226 13.6474C5.03774 13.6639 5.05731 13.6584 5.07552 13.6584C5.60486 13.6584 6.13375 13.6584 6.66309 13.6584C7.02812 13.6584 7.33898 13.9577 7.35765 14.3233C7.35992 14.3704 7.33489 14.3668 7.30394 14.3668C6.87473 14.3668 6.44552 14.3668 6.01632 14.3668C5.51793 14.3668 5.01999 14.3668 4.5216 14.3668C4.26308 14.3668 4.09012 14.2382 4.0132 13.9892C4.01047 13.981 4.01092 13.9709 4.00046 13.9668V13.77C4.01548 13.652 4.08011 13.5641 4.16249 13.4822C4.79424 12.8515 5.42371 12.2191 6.05364 11.5871C6.06274 11.5779 6.07276 11.5702 6.0814 11.556C6.06229 11.5473 6.04272 11.5519 6.02405 11.5519C5.59121 11.5519 5.15836 11.5537 4.72551 11.5509C4.42875 11.5491 4.20846 11.4114 4.06236 11.1542C4.02776 11.0933 4.01548 11.0251 4.00091 10.9574V10.826H4Z" fill="white"/>
<path d="M14.8266 12.3581C14.7246 11.5907 14.1698 10.9847 13.4138 10.8122C13.346 10.7967 13.275 10.7957 13.209 10.7715H12.8271C12.792 10.7925 12.7515 10.7884 12.7138 10.7948C11.7306 10.9619 11.0634 11.9018 11.2254 12.8935C11.3852 13.8729 12.305 14.5461 13.2868 14.4028C14.2695 14.2591 14.9581 13.3452 14.8266 12.3581ZM13.0192 13.7095C12.4084 13.7081 11.91 13.2079 11.9104 12.5952C11.9104 11.9806 12.4138 11.4776 13.0251 11.4813C13.6373 11.4849 14.1361 11.9861 14.1347 12.5956C14.1334 13.2102 13.6323 13.7104 13.0187 13.7095H13.0192Z" fill="white"/>
<path d="M10.9081 12.3764C10.8179 11.6076 10.2531 10.9838 9.49527 10.8127C9.42745 10.7971 9.35645 10.7967 9.29091 10.7715H8.90904C8.87217 10.7935 8.82984 10.7884 8.79024 10.7953C7.78527 10.9733 7.12394 11.9357 7.31373 12.9393C7.4876 13.8601 8.36104 14.5497 9.36919 14.401C10.3491 14.2564 11.0241 13.3631 10.9085 12.3764H10.9081ZM9.09883 13.7095C8.48802 13.7091 7.98918 13.2075 7.99054 12.5956C7.99191 11.9787 8.49257 11.4776 9.10384 11.4813C9.71738 11.4849 10.213 11.9828 10.2126 12.5952C10.2121 13.2116 9.71374 13.71 9.09883 13.7091V13.7095Z" fill="white"/>
</svg>
