<svg width="32" height="32" viewBox="0 0 32 32" fill="none" xmlns="http://www.w3.org/2000/svg">
<path d="M0 8C0 3.58172 3.58172 0 8 0H24C28.4183 0 32 3.58172 32 8V24C32 28.4183 28.4183 32 24 32H8C3.58172 32 0 28.4183 0 24V8Z" fill="#0B5CFE"/>
<path d="M24.4848 14C24.5366 14.0297 24.5969 14.0263 24.6526 14.0389C25.432 14.2105 25.9992 14.9141 25.9992 15.712C25.9992 16.6147 25.9987 17.5173 26.0009 18.4205C26.0009 18.4869 25.9833 18.4989 25.9201 18.492C25.4514 18.4417 25.1151 18.0693 25.1146 17.598C25.1146 16.9596 25.1203 16.3212 25.1106 15.6829C25.1038 15.2384 24.7124 14.8792 24.268 14.8872C23.8118 14.8958 23.4431 15.2642 23.4425 15.7161C23.4414 16.6118 23.4425 17.5082 23.4425 18.404C23.4425 18.4673 23.412 18.4957 23.351 18.4892C22.8924 18.4417 22.555 18.0665 22.5545 17.602C22.5545 16.9842 22.5545 16.3664 22.5545 15.7487C22.5545 15.3105 22.27 14.9713 21.8411 14.8969C21.374 14.8163 20.9069 15.1881 20.8853 15.664C20.8768 15.8505 20.8825 16.0375 20.8825 16.2246C20.8825 16.6828 20.8825 17.1409 20.8825 17.5991C20.8825 18.0344 20.5883 18.3925 20.1622 18.4795C20.0515 18.502 19.9961 18.4568 19.9961 18.3439C19.9961 17.471 19.9961 16.5975 19.9961 15.7246C19.9961 14.8637 20.6276 14.1356 21.4787 14.0143C21.4912 14.0126 21.5071 14.0183 21.5128 14H21.9219C22.1278 14.016 22.3212 14.0755 22.505 14.1699C22.6666 14.2528 22.8116 14.3569 22.9402 14.4839C22.9796 14.5228 23.0191 14.5228 23.0585 14.4839C23.2855 14.2597 23.5546 14.1104 23.863 14.0297C23.9335 14.0114 24.0063 14.0149 24.0769 14.0006H24.4859L24.4848 14Z" fill="white"/>
<path d="M6 14.0687C6.02503 14.0681 6.05006 14.0664 6.0751 14.0664C7.14123 14.0664 8.2068 14.0664 9.27293 14.0664C9.55113 14.0664 9.77301 14.2083 9.87143 14.4485C9.97042 14.6899 9.91353 14.9479 9.71839 15.1441C8.92135 15.9432 8.12431 16.7429 7.3267 17.542C7.30906 17.5597 7.28915 17.5746 7.26525 17.5952C7.29711 17.6158 7.32158 17.6089 7.34433 17.6089C8.00597 17.6089 8.66705 17.6089 9.32869 17.6089C9.78495 17.6089 10.1735 17.983 10.1968 18.44C10.1997 18.499 10.1684 18.4944 10.1297 18.4944C9.59323 18.4944 9.05675 18.4944 8.52027 18.4944C7.89731 18.4944 7.27493 18.4944 6.65197 18.4944C6.32883 18.4944 6.11264 18.3337 6.0165 18.0225C6.01308 18.0122 6.01365 17.9996 6.00057 17.9944V17.7485C6.01934 17.6009 6.10013 17.4911 6.2031 17.3887C6.99275 16.6004 7.77955 15.8099 8.56692 15.02C8.5783 15.0085 8.59081 14.9988 8.60162 14.9811C8.57773 14.9702 8.55326 14.9759 8.52994 14.9759C7.98891 14.9759 7.44787 14.9782 6.90684 14.9748C6.53591 14.9725 6.26056 14.8003 6.07794 14.4788C6.0347 14.4028 6.01934 14.3175 6.00114 14.2329V14.0687H6Z" fill="white"/>
<path d="M19.5354 15.9832C19.408 15.0239 18.7145 14.2666 17.7695 14.0509C17.6848 14.0315 17.596 14.0303 17.5135 14H17.0362C16.9924 14.0263 16.9418 14.0212 16.8945 14.0292C15.6657 14.238 14.8317 15.4129 15.0342 16.6524C15.2339 17.8766 16.3837 18.718 17.6108 18.539C18.8391 18.3593 19.6998 17.217 19.5354 15.9832ZM17.2763 17.6723C16.5128 17.6706 15.8899 17.0454 15.8904 16.2795C15.8904 15.5113 16.5196 14.8826 17.2837 14.8872C18.0489 14.8918 18.6724 15.5181 18.6707 16.2801C18.669 17.0483 18.0426 17.6735 17.2757 17.6723H17.2763Z" fill="white"/>
<path d="M14.6368 16.0061C14.5242 15.0451 13.8181 14.2654 12.8709 14.0515C12.7861 14.032 12.6974 14.0315 12.6155 14H12.1381C12.0921 14.0275 12.0392 14.0212 11.9897 14.0297C10.7335 14.2523 9.90688 15.4552 10.1441 16.7096C10.3614 17.8605 11.4532 18.7226 12.7133 18.5367C13.9382 18.3559 14.7819 17.2393 14.6374 16.0061H14.6368ZM12.3754 17.6723C11.6119 17.6718 10.9884 17.0448 10.9901 16.2801C10.9918 15.509 11.6176 14.8826 12.3816 14.8872C13.1485 14.8918 13.7681 15.5141 13.7675 16.2795C13.7669 17.05 13.144 17.6729 12.3754 17.6718V17.6723Z" fill="white"/>
</svg>
