<svg width="96" height="96" viewBox="0 0 96 96" fill="none" xmlns="http://www.w3.org/2000/svg">
<path d="M45.8474 54.4599C50.1074 54.4599 53.5674 50.9699 53.5674 46.6599C53.5674 42.3499 50.1074 38.8599 45.8474 38.8599C45.5774 38.8599 45.3174 38.8699 45.0574 38.8999C41.1674 39.2999 38.1274 42.6199 38.1274 46.6599C38.1274 47.1999 38.1774 47.7199 38.2874 48.2299C39.0074 51.7899 42.1174 54.4599 45.8474 54.4599Z" fill="#82B536"/>
<path fill-rule="evenodd" clip-rule="evenodd" d="M45.8474 29.0999C32.8774 29.0999 22.6974 40.8099 18.8374 46.6599C21.4074 52.5099 32.8874 64.2199 45.8474 64.2199C58.8074 64.2199 70.2874 52.5099 72.8574 46.6599C68.9974 40.8099 58.8074 29.0999 45.8474 29.0999ZM45.8474 32.9999C53.3074 32.9999 59.3574 39.1099 59.3574 46.6599C59.3574 54.2099 53.3074 60.3199 45.8474 60.3199C38.3874 60.3199 32.3374 54.2099 32.3374 46.6599C32.3374 39.1099 38.3874 32.9999 45.8474 32.9999Z" fill="#82B536"/>
<path d="M67.4575 69.6199C79.7679 69.6199 89.7475 59.4926 89.7475 46.9999C89.7475 34.5072 79.7679 24.3799 67.4575 24.3799C55.1471 24.3799 45.1675 34.5072 45.1675 46.9999C45.1675 59.4926 55.1471 69.6199 67.4575 69.6199Z" fill="#FCA700"/>
<path d="M52.6374 30.2199C62.3574 33.1899 69.7774 41.8299 72.9474 46.5799C70.7774 51.4499 62.3174 60.4199 51.9574 63.1599C50.8774 62.1199 49.8974 60.9799 49.0374 59.7399C54.9974 58.3199 59.4274 52.9699 59.4274 46.5799C59.4274 40.1899 55.2474 35.1499 49.5574 33.5499C50.4774 32.3399 51.5074 31.2199 52.6474 30.2199H52.6374ZM46.5674 38.8799C50.5174 39.2199 53.6174 42.5399 53.6174 46.5799C53.6174 50.7199 50.3574 54.0999 46.2674 54.2999C45.4774 52.0099 45.0474 49.5599 45.0474 46.9999C45.0474 44.1299 45.5874 41.3999 46.5674 38.8799Z" fill="#101214"/>
<path d="M55.5473 70.5197C55.0873 70.2097 54.5973 70.3197 54.5073 70.6097C54.4473 70.7497 54.4273 70.9197 54.4373 71.0797C54.4373 71.2097 54.5273 71.4097 54.6873 71.5697C55.6273 72.5897 56.6573 73.7297 58.0273 75.1297C59.6173 76.6797 60.1673 76.9297 61.1773 78.0497C61.3173 78.2097 61.4773 78.3697 61.6373 78.5497C61.8073 78.7497 61.9973 78.9497 62.1773 79.1597C62.7373 79.8197 63.3473 80.5097 63.9673 81.2297C64.3873 80.4697 64.8373 79.6897 65.2973 78.9097C65.3673 78.7997 65.4073 78.7297 65.4273 78.6897L65.5273 78.5397L65.7273 78.2397C65.8573 78.0397 65.9873 77.8497 66.1073 77.6697C66.5973 76.9497 66.9973 76.3797 67.2073 76.0997C67.2973 75.9797 67.3773 75.8497 67.4573 75.7197C67.9773 74.7697 70.4173 70.6297 73.1073 67.5297C74.9473 65.2997 76.2073 64.0397 76.8673 63.3897C77.6573 62.6297 78.3273 61.9497 78.9873 61.3697C79.6173 60.7397 80.2273 60.2197 80.8173 59.6697C81.4673 59.0697 80.9573 58.2397 80.1373 58.6797C79.3873 59.0797 78.6373 59.4997 77.9073 60.0697C77.1473 60.5997 76.3873 61.2697 75.5573 62.0597C74.9173 62.6697 73.4273 63.8197 71.6973 65.7897C71.4273 66.1197 71.1673 66.4597 70.9373 66.8097C68.9173 69.8397 66.3273 73.7397 66.3273 73.7397C65.7373 74.6497 65.1773 75.5797 64.6273 76.5097L63.8173 77.9197L63.6173 78.2997L62.0973 76.6697C60.5673 75.0797 59.8273 74.3097 59.3673 73.8397C57.9673 72.4297 56.8173 71.3997 55.5473 70.5497V70.5197Z" fill="#101214"/>
<path d="M33.9173 26.6297C34.1373 26.8797 35.1773 26.4597 35.1773 26.1397C35.1773 25.6797 35.1073 25.2297 34.9273 24.6897C34.6673 24.0897 34.3973 23.9997 34.2873 23.5597C34.0573 22.8397 33.9873 21.5097 33.9673 21.1797C33.9673 21.1297 33.9573 21.0897 33.9373 21.0397C33.7973 20.7297 33.2273 19.3797 32.8773 18.1397C32.5773 17.2897 32.3573 16.7597 32.2473 16.4897C31.9773 15.8397 31.6473 15.4097 31.2373 15.0497C31.0073 14.8497 30.1473 15.2997 30.1573 15.5797C30.1773 16.1097 30.2773 16.5897 30.5173 17.1997C30.6173 17.4397 30.5673 18.0197 30.7673 18.7397C30.7973 18.8597 30.8573 18.9697 30.9373 19.0697C31.6173 19.9497 31.9173 21.3097 31.9173 21.3097C31.9173 21.3097 32.5173 23.3097 32.7773 24.1597C32.9873 24.7997 33.0973 25.1097 33.1573 25.2897C33.3573 25.8597 33.6073 26.2697 33.9273 26.6297H33.9173Z" fill="#101214"/>
<path d="M24.2173 30.4697C24.4873 30.6297 25.4173 29.9997 25.2773 29.6297C25.0873 29.1197 24.7673 28.6497 24.2573 28.1797C23.6373 27.7097 23.3473 27.7897 22.9673 27.4597C22.2873 26.9497 21.3573 25.8897 21.1773 25.6397C21.1473 25.5997 21.1173 25.5697 21.0673 25.5497C20.9273 25.4597 20.5373 25.2197 20.1273 24.8797C19.7073 24.5297 19.1973 24.0097 18.7573 23.4897C18.0873 22.7897 17.6073 22.3597 17.3573 22.1397C17.0873 21.9097 16.6773 21.6397 16.3673 21.5397C16.0573 21.4297 15.7973 21.3897 15.5773 21.3697C15.3773 21.3697 14.6573 22.0397 14.9073 22.3697C15.1173 22.6297 15.3373 22.8297 15.5373 23.0097C15.7273 23.1797 15.9173 23.3597 16.1473 23.5597C16.3473 23.7297 16.5573 24.2797 17.0773 24.8897C17.1573 24.9897 17.2673 25.0697 17.3873 25.1397C17.9073 25.4297 18.4073 25.8797 18.8273 26.2497C19.2373 26.6197 19.5373 26.8897 19.5373 26.8897C19.5373 26.8897 19.9873 27.2697 20.5473 27.6797C21.0873 28.0797 21.7173 28.5497 22.0973 28.8297C22.6473 29.2497 22.8773 29.4597 23.0273 29.5897C23.4773 29.9797 23.8373 30.2397 24.2373 30.4697H24.2173Z" fill="#101214"/>
<path d="M17.2073 36.3797C17.5073 36.3797 18.0173 35.3897 17.7473 35.1397C17.3773 34.7997 16.9173 34.5397 16.3173 34.3697C15.6173 34.2397 15.4073 34.4397 14.9573 34.3097C14.1873 34.1497 12.9773 33.6297 12.7073 33.4897C12.6673 33.4697 12.6273 33.4597 12.5773 33.4597C12.2473 33.4597 10.9273 33.3097 9.75734 32.8397C8.91734 32.5797 8.36734 32.4297 8.07734 32.3597C7.39734 32.1897 6.82734 32.1997 6.28734 32.3397C5.98734 32.4197 5.89734 33.3897 6.13734 33.5297C6.56734 33.7997 6.99734 33.9997 7.60734 34.1697C7.84734 34.2297 8.26734 34.6297 8.97734 34.8997C9.09734 34.9397 9.21734 34.9597 9.34734 34.9597C9.90734 34.9497 10.5273 35.0597 11.0173 35.1697C11.5073 35.2797 11.8573 35.3697 11.8573 35.3697C11.8573 35.3697 13.8773 35.7597 14.7373 35.9297C15.3573 36.0597 15.6473 36.1397 15.8173 36.1797C16.3473 36.3197 16.7673 36.3697 17.1973 36.3797H17.2073Z" fill="#101214"/>
</svg>
