<svg width="96" height="96" viewBox="0 0 96 96" fill="none" xmlns="http://www.w3.org/2000/svg">
<path d="M45.8474 54.4599C50.1074 54.4599 53.5674 50.9699 53.5674 46.6599C53.5674 42.3499 50.1074 38.8599 45.8474 38.8599C45.5774 38.8599 45.3174 38.8699 45.0574 38.8999C41.1674 39.2999 38.1274 42.6199 38.1274 46.6599C38.1274 47.1999 38.1774 47.7199 38.2874 48.2299C39.0074 51.7899 42.1174 54.4599 45.8474 54.4599Z" fill="#82B536"/>
<path fill-rule="evenodd" clip-rule="evenodd" d="M45.8474 29.0999C32.8774 29.0999 22.6974 40.8099 18.8374 46.6599C21.4074 52.5099 32.8874 64.2199 45.8474 64.2199C58.8074 64.2199 70.2874 52.5099 72.8574 46.6599C68.9974 40.8099 58.8074 29.0999 45.8474 29.0999ZM45.8474 32.9999C53.3074 32.9999 59.3574 39.1099 59.3574 46.6599C59.3574 54.2099 53.3074 60.3199 45.8474 60.3199C38.3874 60.3199 32.3374 54.2099 32.3374 46.6599C32.3374 39.1099 38.3874 32.9999 45.8474 32.9999Z" fill="#82B536"/>
<path d="M67.4575 69.6199C79.7679 69.6199 89.7475 59.4926 89.7475 46.9999C89.7475 34.5072 79.7679 24.3799 67.4575 24.3799C55.1471 24.3799 45.1675 34.5072 45.1675 46.9999C45.1675 59.4926 55.1471 69.6199 67.4575 69.6199Z" fill="#FCA700"/>
<path d="M52.6374 30.2199C62.3574 33.1899 69.7774 41.8299 72.9474 46.5799C70.7774 51.4499 62.3174 60.4199 51.9574 63.1599C50.8774 62.1199 49.8974 60.9799 49.0374 59.7399C54.9974 58.3199 59.4274 52.9699 59.4274 46.5799C59.4274 40.1899 55.2474 35.1499 49.5574 33.5499C50.4774 32.3399 51.5074 31.2199 52.6474 30.2199H52.6374ZM46.5674 38.8799C50.5174 39.2199 53.6174 42.5399 53.6174 46.5799C53.6174 50.7199 50.3574 54.0999 46.2674 54.2999C45.4774 52.0099 45.0474 49.5599 45.0474 46.9999C45.0474 44.1299 45.5874 41.3999 46.5674 38.8799Z" fill="#101214"/>
</svg>
