<svg width="16" height="16" viewBox="0 0 16 16" fill="none" xmlns="http://www.w3.org/2000/svg">
<g clip-path="url(#clip0_237_8344)">
<path d="M1.30059 1.01643L10.1537 0.362522C11.2412 0.269244 11.5206 0.332123 12.2044 0.829233L15.0304 2.82007C15.4965 3.16247 15.6517 3.25575 15.6517 3.62854V14.5472C15.6517 15.2315 15.4032 15.6363 14.5333 15.6981L4.25253 16.3208C3.59975 16.3517 3.28887 16.2584 2.94696 15.8227L0.86588 13.1165C0.492608 12.6184 0.337891 12.2457 0.337891 11.8098V2.10441C0.337891 1.5449 0.586366 1.07835 1.30059 1.01643Z" fill="white"/>
<path fill-rule="evenodd" clip-rule="evenodd" d="M10.1537 0.362682L1.30059 1.01659C0.586366 1.07835 0.337891 1.54506 0.337891 2.10441V11.8098C0.337891 12.2455 0.492608 12.6183 0.86588 13.1165L2.94696 15.8225C3.28887 16.2582 3.59975 16.3517 4.25253 16.3206L14.5335 15.6982C15.4027 15.6363 15.6518 15.2315 15.6518 14.5474V3.6287C15.6518 3.27511 15.5122 3.17319 15.101 2.87143L12.2044 0.829233C11.5207 0.332123 11.2412 0.269244 10.1537 0.362522V0.362682ZM4.48501 3.44998C3.64551 3.50646 3.45511 3.51926 2.97832 3.13159L1.76618 2.16745C1.64299 2.04265 1.7049 1.88697 2.0153 1.85593L10.526 1.23403C11.2407 1.17163 11.6129 1.42074 11.8924 1.63834L13.352 2.69592C13.4144 2.72744 13.5696 2.91351 13.3829 2.91351L4.59381 3.44262L4.48501 3.44998ZM3.50631 14.4541V5.18499C3.50631 4.7802 3.63063 4.59348 4.00278 4.56212L14.0976 3.97109C14.44 3.94021 14.5947 4.15781 14.5947 4.56196V13.7693C14.5947 14.1741 14.5323 14.5165 13.9735 14.5474L4.31333 15.1074C3.75446 15.1382 3.50647 14.9522 3.50647 14.4541H3.50631ZM13.0421 5.68194C13.104 5.96193 13.0421 6.24193 12.7621 6.27393L12.2965 6.36625V13.2098C11.8922 13.4274 11.5201 13.5517 11.209 13.5517C10.7119 13.5517 10.5878 13.396 10.2155 12.9298L7.17072 8.13949V12.7741L8.1339 12.9922C8.1339 12.9922 8.1339 13.5522 7.3568 13.5522L5.21444 13.6765C5.15204 13.5517 5.21444 13.2408 5.43155 13.1789L5.99106 13.0237V6.89584L5.2146 6.83296C5.1522 6.55296 5.30739 6.14865 5.74259 6.11729L8.04126 5.96257L11.2092 10.8148V6.52208L10.4017 6.42928C10.3393 6.08641 10.5878 5.8373 10.8982 5.8069L13.0421 5.68194Z" fill="#292A2E"/>
</g>
<defs>
<clipPath id="clip0_237_8344">
<rect width="16" height="16" rx="4" fill="white"/>
</clipPath>
</defs>
</svg>
