<svg width="16" height="16" viewBox="0 0 16 16" fill="none" xmlns="http://www.w3.org/2000/svg">
<mask id="path-1-inside-1_237_8340" fill="white">
<path d="M0 4C0 1.79086 1.79086 0 4 0H12C14.2091 0 16 1.79086 16 4V12C16 14.2091 14.2091 16 12 16H4C1.79086 16 0 14.2091 0 12V4Z"/>
</mask>
<path d="M0 4C0 1.79086 1.79086 0 4 0H12C14.2091 0 16 1.79086 16 4V12C16 14.2091 14.2091 16 12 16H4C1.79086 16 0 14.2091 0 12V4Z" fill="white"/>
<path d="M4 0V1H12V0V-1H4V0ZM16 4H15V12H16H17V4H16ZM12 16V15H4V16V17H12V16ZM0 12H1V4H0H-1V12H0ZM4 16V15C2.34315 15 1 13.6569 1 12H0H-1C-1 14.7614 1.23858 17 4 17V16ZM16 12H15C15 13.6569 13.6569 15 12 15V16V17C14.7614 17 17 14.7614 17 12H16ZM12 0V1C13.6569 1 15 2.34315 15 4H16H17C17 1.23858 14.7614 -1 12 -1V0ZM4 0V-1C1.23858 -1 -1 1.23858 -1 4H0H1C1 2.34315 2.34315 1 4 1V0Z" fill="#0B1228" fill-opacity="0.14" mask="url(#path-1-inside-1_237_8340)"/>
<path d="M4.50292 4.36059L9.12778 4.01899C9.69589 3.97026 9.84182 4.00311 10.1991 4.2628L11.6754 5.30281C11.9188 5.48168 11.9999 5.53041 11.9999 5.72516V11.4291C11.9999 11.7865 11.8701 11.998 11.4157 12.0303L6.04501 12.3556C5.70399 12.3717 5.54159 12.323 5.36298 12.0954L4.27582 10.6817C4.08082 10.4215 4 10.2267 4 9.99906V4.92895C4 4.63666 4.1298 4.39294 4.50292 4.36059Z" fill="white"/>
<path fill-rule="evenodd" clip-rule="evenodd" d="M9.12778 4.01907L4.50291 4.36067C4.1298 4.39294 4 4.63675 4 4.92895V9.99905C4 10.2266 4.08082 10.4214 4.27582 10.6817L5.36298 12.0953C5.54159 12.3229 5.70399 12.3717 6.04501 12.3555L11.4158 12.0304C11.8699 11.998 12 11.7865 12 11.4291V5.72524C12 5.54052 11.927 5.48728 11.7122 5.32964L10.1991 4.2628C9.8419 4.00311 9.69589 3.97026 9.12778 4.01899V4.01907ZM6.16645 5.63188C5.7279 5.66138 5.62843 5.66807 5.37936 5.46555L4.74614 4.96188C4.68178 4.89669 4.71413 4.81536 4.87628 4.79915L9.32227 4.47426C9.69563 4.44167 9.89005 4.5718 10.0361 4.68547L10.7986 5.23795C10.8312 5.25442 10.9123 5.35163 10.8147 5.35163L6.22329 5.62803L6.16645 5.63188ZM5.65518 11.3804V6.53824C5.65518 6.32678 5.72012 6.22924 5.91454 6.21286L11.1881 5.90411C11.3669 5.88797 11.4478 6.00165 11.4478 6.21277V11.0227C11.4478 11.2342 11.4152 11.413 11.1232 11.4291L6.07677 11.7217C5.78482 11.7378 5.65526 11.6406 5.65526 11.3804H5.65518ZM10.6367 6.79785C10.669 6.94412 10.6367 7.09039 10.4904 7.10711L10.2472 7.15533V10.7304C10.036 10.8441 9.84157 10.909 9.67909 10.909C9.4194 10.909 9.35454 10.8277 9.16004 10.5841L7.56947 8.08168V10.5028L8.07263 10.6167C8.07263 10.6167 8.07263 10.9093 7.66667 10.9093L6.54751 10.9742C6.51491 10.909 6.54751 10.7466 6.66093 10.7143L6.95321 10.6332V7.43199L6.54759 7.39914C6.51499 7.25287 6.59607 7.04166 6.82341 7.02528L8.02424 6.94445L9.67917 9.47926V7.23674L9.25733 7.18826C9.22473 7.00915 9.35454 6.87901 9.51669 6.86313L10.6367 6.79785Z" fill="#292A2E"/>
</svg>
