<svg width="20" height="20" viewBox="0 0 20 20" fill="none" xmlns="http://www.w3.org/2000/svg">
<mask id="path-1-inside-1_237_8336" fill="white">
<path d="M0 5C0 2.23858 2.23858 0 5 0H15C17.7614 0 20 2.23858 20 5V15C20 17.7614 17.7614 20 15 20H5C2.23858 20 0 17.7614 0 15V5Z"/>
</mask>
<path d="M0 5C0 2.23858 2.23858 0 5 0H15C17.7614 0 20 2.23858 20 5V15C20 17.7614 17.7614 20 15 20H5C2.23858 20 0 17.7614 0 15V5Z" fill="white"/>
<path d="M5 0V1H15V0V-1H5V0ZM20 5H19V15H20H21V5H20ZM15 20V19H5V20V21H15V20ZM0 15H1V5H0H-1V15H0ZM5 20V19C2.79086 19 1 17.2091 1 15H0H-1C-1 18.3137 1.68629 21 5 21V20ZM20 15H19C19 17.2091 17.2091 19 15 19V20V21C18.3137 21 21 18.3137 21 15H20ZM15 0V1C17.2091 1 19 2.79086 19 5H20H21C21 1.68629 18.3137 -1 15 -1V0ZM5 0V-1C1.68629 -1 -1 1.68629 -1 5H0H1C1 2.79086 2.79086 1 5 1V0Z" fill="#0B1228" fill-opacity="0.14" mask="url(#path-1-inside-1_237_8336)"/>
<path d="M5.62864 5.45074L11.4097 5.02374C12.1199 4.96283 12.3023 5.00389 12.7488 5.3285L14.5942 6.62852C14.8986 6.8521 14.9999 6.91301 14.9999 7.15644V14.2863C14.9999 14.7332 14.8376 14.9975 14.2696 15.0378L7.55626 15.4445C7.12999 15.4646 6.92699 15.4037 6.70372 15.1192L5.34478 13.3521C5.10103 13.0269 5 12.7834 5 12.4988V6.16119C5 5.79583 5.16225 5.49117 5.62864 5.45074Z" fill="white"/>
<path fill-rule="evenodd" clip-rule="evenodd" d="M11.4097 5.02384L5.62864 5.45084C5.16225 5.49117 5 5.79593 5 6.16119V12.4988C5 12.7833 5.10103 13.0267 5.34478 13.3521L6.70372 15.1191C6.92699 15.4036 7.12999 15.4646 7.55626 15.4444L14.2697 15.0379C14.8373 14.9975 15 14.7332 15 14.2864V7.15655C15 6.92565 14.9088 6.8591 14.6403 6.66205L12.7488 5.3285C12.3024 5.00389 12.1199 4.96283 11.4097 5.02374V5.02384ZM7.70807 7.03985C7.15987 7.07673 7.03554 7.08509 6.7242 6.83194L5.93267 6.20235C5.85223 6.12086 5.89266 6.0192 6.09535 5.99893L11.6528 5.59283C12.1195 5.55208 12.3626 5.71475 12.5451 5.85684L13.4982 6.54744C13.539 6.56802 13.6403 6.68953 13.5184 6.68953L7.77911 7.03504L7.70807 7.03985ZM7.06898 14.2255V8.17281C7.06898 7.90848 7.15016 7.78655 7.39317 7.76607L13.9851 7.38013C14.2087 7.35997 14.3097 7.50206 14.3097 7.76597V13.7784C14.3097 14.0427 14.269 14.2663 13.904 14.2864L7.59596 14.6521C7.23102 14.6723 7.06908 14.5508 7.06908 14.2255H7.06898ZM13.2959 8.49731C13.3363 8.68015 13.2959 8.86299 13.113 8.88388L12.809 8.94417V13.413C12.545 13.5551 12.302 13.6363 12.0989 13.6363C11.7742 13.6363 11.6932 13.5346 11.45 13.2302L9.46183 10.1021V13.1285L10.0908 13.2709C10.0908 13.2709 10.0908 13.6366 9.58334 13.6366L8.18438 13.7178C8.14364 13.6363 8.18438 13.4333 8.32616 13.3928L8.69152 13.2915V9.28999L8.18449 9.24893C8.14374 9.06609 8.24508 8.80208 8.52926 8.7816L10.0303 8.68057L12.099 11.8491V9.04593L11.5717 8.98533C11.5309 8.76143 11.6932 8.59876 11.8959 8.57891L13.2959 8.49731Z" fill="#292A2E"/>
</svg>
