<svg width="24" height="24" viewBox="0 0 24 24" fill="none" xmlns="http://www.w3.org/2000/svg">
<mask id="path-1-inside-1_237_8332" fill="white">
<path d="M0 6.39569C0 2.86345 2.86345 0 6.39569 0H17.6043C21.1366 0 24 2.86345 24 6.39569V17.6043C24 21.1366 21.1366 24 17.6043 24H6.39569C2.86345 24 0 21.1366 0 17.6043V6.39569Z"/>
</mask>
<path d="M0 6.39569C0 2.86345 2.86345 0 6.39569 0H17.6043C21.1366 0 24 2.86345 24 6.39569V17.6043C24 21.1366 21.1366 24 17.6043 24H6.39569C2.86345 24 0 21.1366 0 17.6043V6.39569Z" fill="white"/>
<path d="M6.39569 0V1H17.6043V0V-1H6.39569V0ZM24 6.39569H23V17.6043H24H25V6.39569H24ZM17.6043 24V23H6.39569V24V25H17.6043V24ZM0 17.6043H1V6.39569H0H-1V17.6043H0ZM6.39569 24V23C3.41573 23 1 20.5843 1 17.6043H0H-1C-1 21.6888 2.31116 25 6.39569 25V24ZM24 17.6043H23C23 20.5843 20.5843 23 17.6043 23V24V25C21.6888 25 25 21.6888 25 17.6043H24ZM17.6043 0V1C20.5843 1 23 3.41573 23 6.39569H24H25C25 2.31116 21.6888 -1 17.6043 -1V0ZM6.39569 0V-1C2.31116 -1 -1 2.31116 -1 6.39569H0H1C1 3.41573 3.41573 1 6.39569 1V0Z" fill="#0B1228" fill-opacity="0.14" mask="url(#path-1-inside-1_237_8332)"/>
<path d="M6.75437 6.54089L13.6917 6.02848C14.5438 5.95539 14.7627 6.00466 15.2986 6.3942L17.5131 7.95422C17.8783 8.22252 17.9999 8.29561 17.9999 8.58773V17.1436C17.9999 17.6798 17.8052 17.997 17.1235 18.0454L9.06751 18.5334C8.55599 18.5576 8.31239 18.4845 8.04447 18.1431L6.41373 16.0225C6.12124 15.6322 6 15.3401 6 14.9986V7.39343C6 6.95499 6.19471 6.58941 6.75437 6.54089Z" fill="white"/>
<path fill-rule="evenodd" clip-rule="evenodd" d="M13.6917 6.02861L6.75437 6.54101C6.19471 6.5894 6 6.95512 6 7.39343V14.9986C6 15.34 6.12124 15.6321 6.41373 16.0225L8.04447 18.1429C8.31239 18.4843 8.55599 18.5576 9.06751 18.5332L17.1236 18.0455C17.8048 17.997 18 17.6798 18 17.1437V8.58786C18 8.31078 17.8906 8.23092 17.5683 7.99447L15.2986 6.3942C14.7629 6.00466 14.5438 5.95539 13.6917 6.02848V6.02861ZM9.24968 8.44782C8.59185 8.49207 8.44265 8.5021 8.06904 8.19832L7.11921 7.44282C7.02267 7.34503 7.07119 7.22304 7.31442 7.19872L13.9834 6.71139C14.5435 6.6625 14.8351 6.8577 15.0541 7.02821L16.1979 7.85693C16.2468 7.88163 16.3684 8.02744 16.2221 8.02744L9.33494 8.44205L9.24968 8.44782ZM8.48277 17.0706V9.80737C8.48277 9.49017 8.58019 9.34386 8.87181 9.31929L16.7821 8.85616C17.0504 8.83196 17.1717 9.00247 17.1717 9.31916V16.534C17.1717 16.8512 17.1228 17.1195 16.6848 17.1437L9.11516 17.5825C8.67723 17.6067 8.4829 17.4609 8.4829 17.0706H8.48277ZM15.955 10.1968C16.0036 10.4162 15.955 10.6356 15.7356 10.6607L15.3708 10.733V16.0956C15.054 16.2661 14.7624 16.3635 14.5186 16.3635C14.1291 16.3635 14.0318 16.2415 13.7401 15.8762L11.3542 12.1225V15.7542L12.109 15.9251C12.109 15.9251 12.109 16.3639 11.5 16.3639L9.82126 16.4613C9.77236 16.3635 9.82126 16.1199 9.99139 16.0714L10.4298 15.9498V11.148L9.82139 11.0987C9.77249 10.8793 9.8941 10.5625 10.2351 10.5379L12.0364 10.4167L14.5188 14.2189V10.8551L13.886 10.7824C13.8371 10.5137 14.0318 10.3185 14.275 10.2947L15.955 10.1968Z" fill="#292A2E"/>
</svg>
