<svg width="32" height="32" viewBox="0 0 32 32" fill="none" xmlns="http://www.w3.org/2000/svg">
<mask id="path-1-inside-1_237_8328" fill="white">
<path d="M0 8C0 3.58172 3.58172 0 8 0H24C28.4183 0 32 3.58172 32 8V24C32 28.4183 28.4183 32 24 32H8C3.58172 32 0 28.4183 0 24V8Z"/>
</mask>
<path d="M0 8C0 3.58172 3.58172 0 8 0H24C28.4183 0 32 3.58172 32 8V24C32 28.4183 28.4183 32 24 32H8C3.58172 32 0 28.4183 0 24V8Z" fill="white"/>
<path d="M8 0V1H24V0V-1H8V0ZM32 8H31V24H32H33V8H32ZM24 32V31H8V32V33H24V32ZM0 24H1V8H0H-1V24H0ZM8 32V31C4.13401 31 1 27.866 1 24H0H-1C-1 28.9706 3.02944 33 8 33V32ZM32 24H31C31 27.866 27.866 31 24 31V32V33C28.9706 33 33 28.9706 33 24H32ZM24 0V1C27.866 1 31 4.13401 31 8H32H33C33 3.02944 28.9706 -1 24 -1V0ZM8 0V-1C3.02944 -1 -1 3.02944 -1 8H0H1C1 4.13401 4.13401 1 8 1V0Z" fill="#0B1228" fill-opacity="0.14" mask="url(#path-1-inside-1_237_8328)"/>
<path d="M8.13156 7.81133L18.5375 7.04273C19.8157 6.93309 20.1441 7.00699 20.9479 7.5913L24.2696 9.93133C24.8174 10.3338 24.9998 10.4434 24.9998 10.8816V23.7154C24.9998 24.5197 24.7078 24.9955 23.6853 25.0681L11.6013 25.8C10.834 25.8363 10.4686 25.7267 10.0667 25.2146L7.6206 22.0338C7.18185 21.4483 7 21.0101 7 20.4979V9.09014C7 8.43249 7.29206 7.88411 8.13156 7.81133Z" fill="white"/>
<path fill-rule="evenodd" clip-rule="evenodd" d="M18.5375 7.04291L8.13156 7.81152C7.29206 7.88411 7 8.43268 7 9.09014V20.4979C7 21.01 7.18185 21.4481 7.6206 22.0338L10.0667 25.2144C10.4686 25.7265 10.834 25.8363 11.6013 25.7999L23.6855 25.0683C24.7072 24.9955 25 24.5197 25 23.7156V10.8818C25 10.4662 24.8358 10.3464 24.3525 9.9917L20.9479 7.5913C20.1443 7.00699 19.8157 6.93309 18.5375 7.04273V7.04291ZM11.8745 10.6717C10.8878 10.7381 10.664 10.7532 10.1036 10.2975L8.67881 9.16423C8.53401 9.01755 8.60679 8.83456 8.97162 8.79808L18.9751 8.06709C19.8152 7.99375 20.2526 8.28656 20.5812 8.54232L22.2968 9.7854C22.3702 9.82244 22.5526 10.0412 22.3331 10.0412L12.0024 10.6631L11.8745 10.6717ZM10.7242 23.6059V12.711C10.7242 12.2353 10.8703 12.0158 11.3077 11.9789L23.1732 11.2842C23.5756 11.2479 23.7575 11.5037 23.7575 11.9787V22.801C23.7575 23.2768 23.6841 23.6793 23.0272 23.7156L11.6727 24.3738C11.0158 24.4101 10.7243 24.1914 10.7243 23.6059H10.7242ZM21.9326 13.2952C22.0053 13.6243 21.9326 13.9534 21.6034 13.991L21.0562 14.0995V22.1434C20.581 22.3992 20.1435 22.5453 19.7779 22.5453C19.1936 22.5453 19.0477 22.3623 18.6101 21.8143L15.0313 16.1838V21.6313L16.1634 21.8876C16.1634 21.8876 16.1634 22.5458 15.25 22.5458L12.7319 22.692C12.6585 22.5453 12.7319 22.1799 12.9871 22.1071L13.6447 21.9247V14.722L12.7321 14.6481C12.6587 14.319 12.8412 13.8437 13.3527 13.8069L16.0545 13.625L19.7781 19.3283V14.2827L18.829 14.1736C18.7556 13.7706 19.0477 13.4778 19.4125 13.442L21.9326 13.2952Z" fill="#292A2E"/>
</svg>
