<svg width="80" height="80" viewBox="0 0 80 80" fill="none" xmlns="http://www.w3.org/2000/svg">
<mask id="mask0_213_29924" style="mask-type:luminance" maskUnits="userSpaceOnUse" x="20" y="13" width="47" height="47">
<path d="M60.04 53.0473C50.91 62.1773 36.05 62.1773 26.91 53.0473C17.78 43.9173 17.78 29.0573 26.91 19.9173C36.04 10.7873 50.9 10.7873 60.04 19.9173C69.18 29.0473 69.17 43.9073 60.04 53.0473ZM32.87 25.8773C27.03 31.7173 27.03 41.2373 32.87 47.0773C38.71 52.9173 48.23 52.9173 54.07 47.0773C59.91 41.2373 59.91 31.7173 54.07 25.8773C48.23 20.0373 38.71 20.0373 32.87 25.8773Z" fill="white"/>
</mask>
<g mask="url(#mask0_213_29924)">
<path d="M-0.602089 -38.8158L-16.2173 20.8755L43.4741 36.4907L59.0892 -23.2006L-0.602089 -38.8158Z" fill="#E56E00"/>
<path d="M59.0883 -23.2092L43.4731 36.4822L103.164 52.0974L118.78 -7.59397L59.0883 -23.2092Z" fill="#AF59E1"/>
<path d="M43.4716 36.4888L27.8564 96.1802L87.5478 111.795L103.163 52.104L43.4716 36.4888Z" fill="#1558BC"/>
<path d="M-16.2261 20.8624L-31.8413 80.5537L27.85 96.1689L43.4652 36.4776L-16.2261 20.8624Z" fill="#1558BC"/>
</g>
<path d="M40.12 71.5173V33.4073C29.99 28.1373 16.29 23.5973 0 21.4973V59.4573C12.82 61.6073 26.95 65.6073 40.12 71.5173Z" fill="#4B4D51"/>
<path d="M57.8599 46.6074L47.8799 53.8074L64.6499 77.0674L74.6299 69.8674L57.8599 46.6074Z" fill="#1558BC"/>
<path d="M54.4198 12.3274C54.4598 12.6474 55.5498 12.8874 55.7298 12.6674C55.9898 12.3374 56.1798 11.9874 56.3598 11.5174C56.4998 10.9574 56.3598 10.7374 56.5298 10.3674C56.7798 9.72736 57.5898 8.85736 57.7998 8.66736C57.8298 8.63736 57.8498 8.60736 57.8698 8.56736C57.9598 8.29736 58.4698 7.10736 59.1998 6.29736C59.6598 5.68736 59.9798 5.33736 60.1398 5.15736C60.5198 4.72736 60.7498 4.35736 60.9298 3.91736C61.0298 3.67736 60.4198 2.91736 60.1398 3.00736C59.6398 3.15736 59.1998 3.41736 58.7498 3.89736C58.5798 4.07736 58.0198 4.29736 57.5198 4.86736C57.4398 4.95736 57.3798 5.06736 57.3398 5.18736C57.0098 6.22736 56.2598 7.31736 56.2598 7.31736C56.2598 7.31736 55.9998 7.73736 55.7298 8.27736C55.4498 8.80736 55.1598 9.44736 54.9898 9.83736C54.7498 10.4274 54.6498 10.7074 54.5898 10.8874C54.3998 11.4274 54.3598 11.8874 54.4198 12.3274Z" fill="white"/>
<path d="M63.5401 13.1173C63.3401 13.3273 63.6701 14.3973 64.0201 14.3773C64.5101 14.3673 65.0201 14.2273 65.5601 13.9073C66.1501 13.4973 66.1301 13.1873 66.5201 12.9473C67.1501 12.4873 68.3001 11.8373 68.5801 11.6773C68.6201 11.6573 68.6601 11.6273 68.6801 11.5873C68.9001 11.3373 69.7701 10.1973 70.6701 9.42734C71.2601 8.83734 71.6301 8.50734 71.8301 8.33734C72.2901 7.91734 72.5601 7.55734 72.8001 7.12734C72.9301 6.88734 72.3901 6.07734 72.1001 6.14734C71.5701 6.26734 71.0901 6.49734 70.5801 6.93734C70.3801 7.10734 69.8001 7.27734 69.2201 7.77734C69.1301 7.85734 69.0501 7.95734 68.9901 8.07734C68.5001 9.07734 67.5001 9.93734 67.5001 9.93734C67.5001 9.93734 67.1501 10.2873 66.7201 10.6773C66.2901 11.0773 65.7701 11.4973 65.4501 11.7373C64.9701 12.0873 64.7301 12.2373 64.5901 12.3173C64.1501 12.5873 63.8401 12.8373 63.5301 13.1273L63.5401 13.1173Z" fill="white"/>
<path d="M67.2099 20.3473C66.9899 20.5473 67.3499 21.6073 67.6499 21.6273C68.0699 21.6573 68.4899 21.6073 68.9899 21.4473C69.5399 21.2073 69.5999 20.9373 69.9999 20.8273C70.6499 20.6073 71.8399 20.5273 72.1299 20.5073C72.1699 20.5073 72.2099 20.4973 72.2499 20.4773C72.5199 20.3373 73.6799 19.7673 74.7599 19.4773C75.4999 19.2173 75.9599 19.0573 76.1999 18.9773C76.7599 18.7773 77.1499 18.5173 77.4999 18.1773C77.6899 17.9873 77.3799 17.0673 77.1099 17.0373C76.6199 16.9773 76.1599 17.0173 75.5899 17.2073C75.3699 17.2773 74.8199 17.1873 74.1599 17.3673C74.0499 17.3973 73.9499 17.4473 73.8599 17.5273C73.0699 18.1773 71.8699 18.4873 71.8699 18.4873C71.8699 18.4873 70.1199 19.0873 69.3799 19.3373C68.8199 19.5273 68.5599 19.6273 68.3899 19.6773C67.8899 19.8573 67.5299 20.0673 67.2199 20.3573L67.2099 20.3473Z" fill="white"/>
<path d="M32.8701 47.0874C34.9401 49.1574 37.4601 50.4774 40.1201 51.0774V33.4074C37.1901 31.8874 33.9601 30.4274 30.4601 29.0674C27.2001 34.7874 28.0001 42.2174 32.8701 47.0874Z" fill="#4B4D51"/>
<path d="M32.8698 47.0873C27.9998 42.2173 27.1998 34.7873 30.4598 29.0673C27.9198 28.0773 25.2398 27.1473 22.4198 26.2773C18.1998 35.0073 19.6798 45.8173 26.9098 53.0473C30.6198 56.7573 35.2898 58.9373 40.1298 59.6273V51.0773C37.4698 50.4673 34.9398 49.1473 32.8798 47.0873H32.8698Z" fill="#101214"/>
</svg>
