<svg width="16" height="16" viewBox="0 0 16 16" fill="none" xmlns="http://www.w3.org/2000/svg">
<path d="M0 4C0 1.79086 1.79086 0 4 0H12C14.2091 0 16 1.79086 16 4V12C16 14.2091 14.2091 16 12 16H4C1.79086 16 0 14.2091 0 12V4Z" fill="#292A2E"/>
<path d="M8.29262 8.20269C8.18981 7.99908 8.09152 7.80199 7.97548 7.61466C7.82834 7.37699 7.66867 7.14931 7.45052 6.97012C7.28667 6.83559 7.10518 6.75036 6.88621 6.78268C6.6973 6.81059 6.54494 6.91001 6.40778 7.03617C6.33537 7.1028 6.26923 7.17582 6.20854 7.26396C6.24138 7.26838 6.26865 7.27094 6.29557 7.27582C6.49063 7.3114 6.64067 7.42501 6.77586 7.56071C7.00307 7.78896 7.17214 8.05943 7.32357 8.34117C7.6631 8.9728 7.91212 9.64164 8.12517 10.3249C8.12726 10.3315 8.12912 10.3382 8.13388 10.3539C8.9884 8.30989 9.95246 6.33663 11.2807 4.56361L11.296 4.56872C11.296 4.61465 11.296 4.66058 11.296 4.7064C11.296 6.1964 11.2976 7.6864 11.2949 9.17652C11.2941 9.62548 11.2873 10.0747 11.254 10.5228C11.2429 10.6713 11.2277 10.8197 11.1751 10.9609C11.1136 11.1258 10.9959 11.1682 10.8465 11.075C10.7198 10.9959 10.6214 10.8854 10.5387 10.7635C10.3617 10.5029 10.1914 10.238 10.0731 9.94362C10.0656 9.92478 10.0637 9.88188 10.0224 9.92199C9.75299 10.184 9.44002 10.3865 9.11813 10.5749C8.19294 11.1162 7.20382 11.4983 6.16607 11.758C5.7937 11.8512 5.41854 11.9303 5.04071 11.9972C5.00416 12.0037 4.99476 12.0015 5.00253 11.9598C5.05301 11.6871 5.0761 11.4119 5.0761 11.1342C5.07541 8.78001 5.07599 6.42582 5.07425 4.07163C5.07425 4.01267 5.08852 4 5.14619 4C7.1726 4.00163 9.19889 4.0014 11.2253 4.0014H11.2957C10.0526 5.23221 9.0029 6.59105 8.29297 8.2028L8.29262 8.20269Z" fill="white"/>
</svg>
