<svg width="20" height="20" viewBox="0 0 20 20" fill="none" xmlns="http://www.w3.org/2000/svg">
<path d="M0 5C0 2.23858 2.23858 0 5 0H15C17.7614 0 20 2.23858 20 5V15C20 17.7614 17.7614 20 15 20H5C2.23858 20 0 17.7614 0 15V5Z" fill="#292A2E"/>
<path d="M10.1835 10.3397C10.0528 10.0811 9.92795 9.83063 9.78051 9.59263C9.59357 9.29065 9.3907 9.00137 9.11352 8.77371C8.90534 8.60277 8.67475 8.49448 8.39654 8.53555C8.15651 8.57101 7.96293 8.69733 7.78866 8.85762C7.69666 8.94228 7.61262 9.03506 7.53552 9.14704C7.57724 9.15266 7.61189 9.15591 7.64609 9.16211C7.89393 9.20732 8.08456 9.35166 8.25633 9.52408C8.54501 9.81409 8.75982 10.1577 8.95222 10.5157C9.38362 11.3182 9.70001 12.168 9.97071 13.0361C9.97336 13.0446 9.97572 13.053 9.98176 13.0729C11.0675 10.476 12.2924 7.96882 13.9799 5.71609L13.9994 5.72259C13.9994 5.78095 13.9994 5.83931 13.9994 5.89752C13.9994 7.79065 14.0014 9.68378 13.9981 11.5771C13.997 12.1475 13.9883 12.7182 13.946 13.2876C13.932 13.4763 13.9127 13.6648 13.8457 13.8443C13.7676 14.0538 13.6181 14.1075 13.4284 13.9892C13.2674 13.8887 13.1423 13.7482 13.0372 13.5934C12.8124 13.2623 12.5959 12.9258 12.4457 12.5517C12.4361 12.5278 12.4338 12.4732 12.3813 12.5242C12.0389 12.8571 11.6413 13.1144 11.2323 13.3538C10.0568 14.0415 8.80007 14.527 7.48155 14.857C7.00843 14.9754 6.53178 15.0758 6.05173 15.1609C6.00528 15.1692 5.99334 15.1664 6.00322 15.1134C6.06735 14.7669 6.09669 14.4172 6.09669 14.0644C6.09581 11.0733 6.09655 8.08214 6.09433 5.09101C6.09433 5.0161 6.11247 5 6.18574 5C8.76041 5.00207 11.3349 5.00177 13.9096 5.00177H13.9991C12.4196 6.56559 11.0859 8.29208 10.1839 10.3399L10.1835 10.3397Z" fill="white"/>
</svg>
