<svg width="24" height="24" viewBox="0 0 24 24" fill="none" xmlns="http://www.w3.org/2000/svg">
<path d="M0 6.39569C0 2.86345 2.86345 0 6.39569 0H17.6043C21.1366 0 24 2.86345 24 6.39569V17.6043C24 21.1366 21.1366 24 17.6043 24H6.39569C2.86345 24 0 21.1366 0 17.6043V6.39569Z" fill="#292A2E"/>
<path d="M12.0371 12.5104C11.863 12.1657 11.6966 11.832 11.5002 11.5149C11.2511 11.1125 10.9808 10.7271 10.6114 10.4237C10.3341 10.196 10.0268 10.0517 9.65612 10.1064C9.3363 10.1536 9.07837 10.322 8.84617 10.5355C8.72358 10.6483 8.61161 10.772 8.50886 10.9212C8.56446 10.9287 8.61062 10.933 8.6562 10.9413C8.98643 11.0015 9.24044 11.1938 9.4693 11.4235C9.85394 11.81 10.1402 12.2678 10.3965 12.7448C10.9713 13.8141 11.3929 14.9464 11.7536 16.1031C11.7571 16.1144 11.7603 16.1256 11.7683 16.1521C13.215 12.6919 14.8471 9.35127 17.0956 6.34965L17.1215 6.35832C17.1215 6.43607 17.1215 6.51383 17.1215 6.59139C17.1215 9.11387 17.1243 11.6363 17.1198 14.159C17.1184 14.9191 17.1068 15.6795 17.0504 16.4382C17.0318 16.6896 17.006 16.9407 16.9168 17.1799C16.8127 17.4591 16.6135 17.5307 16.3607 17.373C16.1462 17.2392 15.9796 17.052 15.8395 16.8457C15.5399 16.4045 15.2515 15.9561 15.0514 15.4577C15.0386 15.4258 15.0355 15.3531 14.9655 15.421C14.5094 15.8645 13.9795 16.2075 13.4346 16.5264C11.8683 17.4427 10.1938 18.0896 8.43696 18.5293C7.80656 18.687 7.17145 18.8209 6.53181 18.9343C6.46993 18.9453 6.45402 18.9416 6.46718 18.8709C6.55264 18.4093 6.59173 17.9433 6.59173 17.4732C6.59055 13.4877 6.59153 9.50226 6.58859 5.51677C6.58859 5.41696 6.61275 5.39551 6.71038 5.39551C10.141 5.39826 13.5713 5.39787 17.0019 5.39787H17.1211C15.0166 7.48156 13.2395 9.78198 12.0377 12.5106L12.0371 12.5104Z" fill="white"/>
</svg>
