<svg width="32" height="32" viewBox="0 0 32 32" fill="none" xmlns="http://www.w3.org/2000/svg">
<path d="M0 8C0 3.58172 3.58172 0 8 0H24C28.4183 0 32 3.58172 32 8V24C32 28.4183 28.4183 32 24 32H8C3.58172 32 0 28.4183 0 24V8Z" fill="#292A2E"/>
<path d="M16.4084 17.456C16.1771 16.9979 15.9559 16.5545 15.6948 16.133C15.3638 15.5982 15.0045 15.0859 14.5137 14.6828C14.145 14.3801 13.7367 14.1883 13.244 14.261C12.8189 14.3238 12.4761 14.5475 12.1675 14.8314C12.0046 14.9813 11.8558 15.1456 11.7192 15.3439C11.7931 15.3539 11.8545 15.3596 11.915 15.3706C12.3539 15.4507 12.6915 15.7063 12.9957 16.0116C13.5069 16.5252 13.8873 17.1337 14.228 17.7676C14.992 19.1888 15.5523 20.6937 16.0316 22.231C16.0363 22.2459 16.0405 22.2609 16.0512 22.2962C17.9739 17.6973 20.143 13.2574 23.1315 9.26811L23.1659 9.27962C23.1659 9.38297 23.1659 9.48631 23.1659 9.58939C23.1659 12.9419 23.1696 16.2944 23.1636 19.6472C23.1618 20.6573 23.1464 21.668 23.0714 22.6763C23.0466 23.0104 23.0124 23.3443 22.8939 23.6621C22.7555 24.0331 22.4908 24.1284 22.1547 23.9188C21.8696 23.7409 21.6482 23.4921 21.4621 23.2179C21.0639 22.6316 20.6806 22.0356 20.4146 21.3731C20.3976 21.3308 20.3934 21.2342 20.3005 21.3245C19.6942 21.9139 18.9901 22.3697 18.2658 22.7935C16.1841 24.0114 13.9586 24.8711 11.6237 25.4556C10.7858 25.6652 9.94171 25.8431 9.0916 25.9938C9.00936 26.0084 8.98821 26.0035 9.0057 25.9095C9.11928 25.296 9.17123 24.6767 9.17123 24.052C9.16967 18.755 9.17097 13.4581 9.16706 8.16116C9.16706 8.02852 9.19917 8 9.32893 8C13.8884 8.00366 18.4475 8.00314 23.0069 8.00314H23.1654C20.3683 10.7725 18.0065 13.8299 16.4092 17.4563L16.4084 17.456Z" fill="white"/>
</svg>
