<svg width="96" height="96" viewBox="0 0 96 96" fill="none" xmlns="http://www.w3.org/2000/svg">
<path d="M80.8946 35.5646H24.9446V82.4946H80.8946V35.5646Z" fill="#82B536"/>
<path fill-rule="evenodd" clip-rule="evenodd" d="M91.4247 37.5346L54.5847 74.3746L35.5347 54.8046L43.7447 46.8146L54.6947 58.0646L83.3247 29.4346L91.4247 37.5346Z" fill="#1868DB"/>
<path fill-rule="evenodd" clip-rule="evenodd" d="M80.8947 35.5746V48.0646L54.5847 74.3746L35.5347 54.7946L43.7447 46.8046L54.6947 58.0546L77.1847 35.5746H80.8947Z" fill="#09326C"/>
<path d="M33.8446 29.8241C33.9146 30.2741 35.0246 30.3841 35.1846 29.9641C35.4146 29.3641 35.5646 28.7141 35.6546 27.8841C35.6946 26.9241 35.4946 26.6641 35.5846 26.0241C35.6946 24.9341 36.1846 23.1341 36.3046 22.6941C36.3246 22.6341 36.3346 22.5641 36.3346 22.4941C36.3346 22.0241 36.3746 19.9541 36.6346 18.1841C36.7546 16.9341 36.8346 16.1641 36.8746 15.7541C36.9646 14.7941 36.9246 14.0741 36.7846 13.3541C36.7046 12.9541 35.7446 12.8641 35.5846 13.2341C35.3046 13.9141 35.1146 14.6141 35.0146 15.5641C34.9746 15.9341 34.6346 16.6841 34.4746 17.7641C34.4446 17.9441 34.4446 18.1241 34.4746 18.3041C34.6846 19.8641 34.3846 21.8241 34.3846 21.8241C34.3846 21.8241 34.0846 24.7641 33.9546 26.0141C33.8646 26.9541 33.8146 27.4041 33.7946 27.6741C33.7146 28.5141 33.7446 29.1741 33.8446 29.8141V29.8241Z" fill="#101214"/>
<path d="M24.8447 32.6441C25.0647 32.7141 26.2447 32.5041 25.9047 31.8041C25.6247 31.1841 25.2647 30.6241 24.7147 29.9741C24.0447 29.2741 23.7147 29.2441 23.3047 28.7241C22.5847 27.8841 21.5947 26.2741 21.3647 25.8841C21.3347 25.8241 21.2847 25.7741 21.2447 25.7241C20.9047 25.3941 19.4047 23.9241 18.2847 22.5141C17.4547 21.5541 16.9347 20.9641 16.6647 20.6541C16.0247 19.9241 15.4647 19.4541 14.8447 19.0641C14.5647 18.9141 13.7247 19.4041 13.9247 19.8441C14.2247 20.5241 14.6147 21.1441 15.2447 21.8841C15.4947 22.1741 15.8047 22.9341 16.4947 23.8041C16.6047 23.9441 16.7347 24.0741 16.8847 24.1741C18.1747 25.1041 19.4047 26.6841 19.4047 26.6841C19.4047 26.6841 21.3547 28.9441 22.1747 29.9041C22.7947 30.6241 23.0947 30.9641 23.2747 31.1841C23.8247 31.8241 24.3247 32.2741 24.8347 32.6441H24.8447Z" fill="#101214"/>
<path d="M19.7847 40.1941C20.1947 40.1441 20.4847 39.0641 20.1247 38.8841C19.6147 38.6341 19.0447 38.4441 18.3047 38.3141C17.4447 38.2241 17.1847 38.4141 16.6147 38.2941C15.6447 38.1341 14.0647 37.5541 13.6847 37.4141C13.6247 37.3941 13.5747 37.3841 13.5147 37.3741C13.0847 37.3441 11.2147 37.2041 9.64468 36.8641C8.52468 36.6841 7.83468 36.5641 7.47468 36.5041C6.62468 36.3741 5.96468 36.3741 5.32468 36.4841C4.96468 36.5441 4.87468 37.5041 5.20468 37.6841C5.80468 37.9941 6.41468 38.2141 7.25468 38.3641C7.58468 38.4241 8.22468 38.7941 9.17468 39.0041C9.32468 39.0341 9.48468 39.0441 9.64468 39.0341C11.0347 38.8941 12.7547 39.2841 12.7547 39.2841C12.7547 39.2841 15.3447 39.7241 16.4347 39.9041C17.2547 40.0341 17.6547 40.1041 17.8947 40.1441C18.6347 40.2641 19.2247 40.2641 19.8147 40.2041L19.7847 40.1941Z" fill="#101214"/>
</svg>
