<svg width="275" height="275" viewBox="0 0 275 275" fill="none" xmlns="http://www.w3.org/2000/svg">
<path d="M211.22 158.76C212.38 152.26 212.98 145.37 212.98 138.05C212.98 130.73 212.36 123.65 211.19 117.07C204.17 77.93 176.97 53.81 138.84 47.6C132.33 46.55 125.51 46 118.42 46C111.33 46 103.91 46.58 97.15 47.72C59 54.09 31.86 78.16 24.81 117.07C23.62 123.64 23 130.64 23 138.05C23 145.46 23.61 152.26 24.77 158.76C31.76 197.63 58.93 221.74 97.14 228.11C103.9 229.24 111.01 229.83 118.41 229.83C125.81 229.83 132.33 229.29 138.83 228.23C177.02 222.03 204.23 197.85 211.21 158.76H211.22Z" fill="#4B4D51"/>
<path d="M151.019 137.359L224.139 61.1895L251.179 86.2295L144.969 177.399L94.9688 131.329L120.969 101.309L151.009 137.369L151.019 137.359Z" fill="#1558BC"/>
<path d="M211.198 117.07C209.118 105.53 205.288 95.2702 199.938 86.4102L151.028 137.36L120.988 101.3L94.9883 131.32L144.988 177.39L211.708 120.12C211.558 119.09 211.398 118.07 211.218 117.06L211.198 117.07Z" fill="#09326C"/>
</svg>
