<svg width="275" height="275" viewBox="0 0 275 275" fill="none" xmlns="http://www.w3.org/2000/svg">
<path d="M211.22 158.761C212.38 152.261 212.98 145.371 212.98 138.051C212.98 130.731 212.36 123.651 211.19 117.071C204.17 77.931 176.97 53.811 138.84 47.601C132.33 46.551 125.51 46.001 118.42 46.001C111.33 46.001 103.91 46.581 97.15 47.721C59 54.091 31.86 78.161 24.81 117.071C23.62 123.641 23 130.641 23 138.051C23 145.461 23.61 152.261 24.77 158.761C31.76 197.631 58.93 221.741 97.14 228.111C103.9 229.241 111.01 229.831 118.41 229.831C125.81 229.831 132.33 229.291 138.83 228.231C177.02 222.031 204.23 197.851 211.21 158.761H211.22Z" fill="#DDDEE1"/>
<path d="M151.019 137.361L224.139 61.1914L251.179 86.2314L144.969 177.401L94.9688 131.331L120.969 101.311L151.009 137.371L151.019 137.361Z" fill="#1868DB"/>
<path d="M211.198 117.071C209.118 105.531 205.288 95.2711 199.938 86.4111L151.028 137.361L120.988 101.301L94.9883 131.321L144.988 177.391L211.708 120.121C211.558 119.091 211.398 118.071 211.218 117.061L211.198 117.071Z" fill="#09326C"/>
</svg>
