<svg width="16" height="16" viewBox="0 0 16 16" fill="none" xmlns="http://www.w3.org/2000/svg">
<path d="M0 4C0 1.79086 1.79086 0 4 0H12C14.2091 0 16 1.79086 16 4V12C16 14.2091 14.2091 16 12 16H4C1.79086 16 0 14.2091 0 12V4Z" fill="#FD1F3C"/>
<path d="M11.3857 5.90091C10.816 4.96041 9.97681 4.36895 8.91073 4.10539C8.67727 4.04767 8.43923 4.02571 8.20153 4C8.06657 4 7.93162 4.00017 7.79666 4.00034C7.64034 4.01924 7.48182 4.02758 7.32788 4.0584C5.84964 4.3543 4.80678 5.19809 4.27493 6.61479C3.80157 7.87571 3.93737 9.11194 4.69861 10.2206C5.67009 11.6353 7.04576 12.2206 8.73389 11.9256C10.1045 11.686 11.0892 10.8775 11.6456 9.60092C12.1968 8.33625 12.1012 7.08215 11.3857 5.90091ZM8.00961 10.8785C6.4388 10.8778 5.1596 9.59002 5.16011 8.01004C5.16062 6.43075 6.44032 5.14804 8.01486 5.14838C9.58923 5.14889 10.8635 6.43194 10.862 8.01532C10.8606 9.59768 9.58398 10.879 8.00961 10.8785Z" fill="white"/>
</svg>
