<svg width="20" height="20" viewBox="0 0 20 20" fill="none" xmlns="http://www.w3.org/2000/svg">
<path d="M0 5C0 2.23858 2.23858 0 5 0H15C17.7614 0 20 2.23858 20 5V15C20 17.7614 17.7614 20 15 20H5C2.23858 20 0 17.7614 0 15V5Z" fill="#FD1F3C"/>
<path d="M14.2321 7.37614C13.5201 6.20052 12.471 5.46118 11.1384 5.13174C10.8466 5.05959 10.549 5.03214 10.2519 5C10.0832 5 9.91452 5.00021 9.74583 5.00043C9.55043 5.02405 9.35228 5.03448 9.15985 5.073C7.31205 5.44288 6.00848 6.49762 5.34366 8.26849C4.75196 9.84464 4.92171 11.3899 5.87327 12.7758C7.08762 14.5441 8.8072 15.2758 10.9174 14.907C12.6306 14.6076 13.8615 13.5969 14.557 12.0011C15.246 10.4203 15.1265 8.85268 14.2321 7.37614ZM10.012 13.5981C8.0485 13.5973 6.4495 11.9875 6.45014 10.0126C6.45077 8.03843 8.0504 6.43505 10.0186 6.43547C11.9865 6.43611 13.5794 8.03992 13.5775 10.0192C13.5758 11.9971 11.98 13.5988 10.012 13.5981Z" fill="white"/>
</svg>
