<svg width="24" height="24" viewBox="0 0 24 24" fill="none" xmlns="http://www.w3.org/2000/svg">
<path d="M0 6.39569C0 2.86345 2.86345 0 6.39569 0H17.6043C21.1366 0 24 2.86345 24 6.39569V17.6043C24 21.1366 21.1366 24 17.6043 24H6.39569C2.86345 24 0 21.1366 0 17.6043V6.39569Z" fill="#FD1F3C"/>
<path d="M17.2056 8.43491C16.2948 6.93114 14.9529 5.98542 13.2484 5.56402C12.8751 5.47173 12.4945 5.43661 12.1144 5.39551C11.8986 5.39551 11.6828 5.39578 11.4671 5.39605C11.2171 5.42627 10.9636 5.43961 10.7175 5.48888C8.35391 5.96201 6.68647 7.31116 5.83607 9.57636C5.0792 11.5925 5.29634 13.5691 6.51351 15.3418C8.06683 17.6038 10.2664 18.5397 12.9656 18.0679C15.1571 17.6849 16.7315 16.3921 17.6212 14.3509C18.5025 12.3288 18.3496 10.3236 17.2056 8.43491ZM11.8075 16.3937C9.29593 16.3926 7.25059 14.3335 7.25141 11.8073C7.25222 9.28208 9.29837 7.23113 11.8159 7.23167C14.3332 7.23249 16.3707 9.28399 16.3683 11.8157C16.3661 14.3458 14.3248 16.3945 11.8075 16.3937Z" fill="white"/>
</svg>
