<svg width="32" height="32" viewBox="0 0 32 32" fill="none" xmlns="http://www.w3.org/2000/svg">
<path d="M0 8C0 3.58172 3.58172 0 8 0H24C28.4183 0 32 3.58172 32 8V24C32 28.4183 28.4183 32 24 32H8C3.58172 32 0 28.4183 0 24V8Z" fill="#FD1F3C"/>
<path d="M23.6178 11.277C22.3361 9.16093 20.4478 7.83013 18.0491 7.23712C17.5238 7.10726 16.9883 7.05784 16.4534 7C16.1498 7 15.8461 7.00038 15.5425 7.00077C15.1908 7.04329 14.8341 7.06206 14.4877 7.1314C11.1617 7.79718 8.81526 9.69571 7.61859 12.8833C6.55352 15.7204 6.85908 18.5019 8.57188 20.9965C10.7577 24.1794 13.853 25.4965 17.6513 24.8326C20.7351 24.2936 22.9506 22.4744 24.2026 19.6021C25.4428 16.7566 25.2276 13.9348 23.6178 11.277ZM16.0216 22.4767C12.4873 22.4751 9.6091 19.5775 9.61025 16.0226C9.61139 12.4692 12.4907 9.58308 16.0334 9.58385C19.5758 9.585 22.4429 12.4719 22.4395 16.0345C22.4364 19.5948 19.564 22.4778 16.0216 22.4767Z" fill="white"/>
</svg>
