<svg width="275" height="275" viewBox="0 0 275 275" fill="none" xmlns="http://www.w3.org/2000/svg">
<path d="M28 199.63C28 199.63 151.33 214.29 214.8 198.96V46.3295C214.8 46.3295 114.14 70.9895 28 44.9995C28 44.9995 29.36 200.64 28 199.64V199.63Z" fill="#4B4D51"/>
<path d="M246.36 204.87C246.76 202.63 246.97 200.25 246.97 197.73C246.97 195.18 246.76 192.76 246.35 190.5C243.93 177.01 234.55 168.69 221.41 166.55C219.17 166.19 216.82 166 214.37 166C211.82 166 209.37 166.2 207.04 166.59C193.89 168.79 184.53 177.08 182.1 190.5C181.69 192.77 181.48 195.18 181.48 197.73C181.48 200.25 181.69 202.63 182.09 204.87C184.5 218.27 193.86 226.58 207.04 228.78C209.37 229.17 211.82 229.37 214.37 229.37C216.82 229.37 219.17 229.18 221.41 228.82C234.57 226.68 243.96 218.35 246.36 204.87Z" fill="#1558BC"/>
<path d="M214.8 166.01C214.65 166.01 214.51 166.01 214.37 166.01C211.82 166.01 209.37 166.21 207.04 166.6C193.89 168.8 184.53 177.09 182.1 190.51C181.69 192.78 181.48 195.19 181.48 197.74C181.48 199.96 181.65 202.07 181.97 204.08C193.88 202.98 205.05 201.33 214.81 198.98V166.02L214.8 166.01Z" fill="#09326C"/>
<path d="M28 199.63C28 199.63 40.55 201.12 59.68 202.65V52.3295C49.04 50.5295 38.42 48.1395 28 44.9995C28 44.9995 29.36 200.64 28 199.64V199.63Z" fill="#7E8188"/>
<path d="M143.379 106.989H117.969V158.119H143.379V106.989Z" fill="#96999E"/>
<path d="M110.558 124.979H85.1484V158.119H110.558V124.979Z" fill="#7E8188"/>
<path d="M176.898 86.4595H151.488V158.119H176.898V86.4595Z" fill="#7E8188"/>
<path fill-rule="evenodd" clip-rule="evenodd" d="M234.089 203.449H195.449V196.449H234.089V203.449Z" fill="#101214"/>
<path fill-rule="evenodd" clip-rule="evenodd" d="M211.27 219.269V180.629H218.27V219.269H211.27Z" fill="#101214"/>
<path d="M84.6016 173.619H178.362" stroke="#4B4D51" stroke-width="7" stroke-miterlimit="10"/>
</svg>
