<svg width="275" height="275" viewBox="0 0 275 275" fill="none" xmlns="http://www.w3.org/2000/svg">
<path d="M28.0195 201.44C28.0195 201.44 151.35 216.1 214.82 200.77V48.1401C214.82 48.1401 114.16 72.8001 28.0195 46.8101C28.0195 46.8101 29.3795 202.45 28.0195 201.45V201.44Z" fill="#DDDEE1"/>
<path d="M246.38 206.68C246.78 204.44 246.99 202.06 246.99 199.54C246.99 196.99 246.78 194.57 246.37 192.31C243.95 178.82 234.57 170.5 221.43 168.36C219.19 168 216.84 167.81 214.39 167.81C211.84 167.81 209.39 168.01 207.06 168.4C193.91 170.6 184.55 178.89 182.12 192.31C181.71 194.58 181.5 196.99 181.5 199.54C181.5 202.06 181.71 204.44 182.11 206.68C184.52 220.08 193.88 228.39 207.06 230.59C209.39 230.98 211.84 231.18 214.39 231.18C216.84 231.18 219.19 230.99 221.43 230.63C234.59 228.49 243.98 220.16 246.38 206.68Z" fill="#1868DB"/>
<path d="M214.82 167.82C214.67 167.82 214.53 167.82 214.39 167.82C211.84 167.82 209.39 168.02 207.06 168.41C193.91 170.61 184.55 178.9 182.12 192.32C181.71 194.59 181.5 197 181.5 199.55C181.5 201.77 181.67 203.88 181.99 205.89C193.9 204.79 205.07 203.14 214.83 200.79V167.83L214.82 167.82Z" fill="#09326C"/>
<path d="M28.0195 201.44C28.0195 201.44 40.5695 202.93 59.6995 204.46V54.1401C49.0595 52.3401 38.4395 49.9501 28.0195 46.8101C28.0195 46.8101 29.3795 202.45 28.0195 201.45V201.44Z" fill="#B7B9BE"/>
<path d="M143.398 108.8H117.988V159.93H143.398V108.8Z" fill="#8C8F97"/>
<path d="M110.582 126.79H85.1719V159.93H110.582V126.79Z" fill="#B7B9BE"/>
<path d="M176.922 88.27H151.512V159.93H176.922V88.27Z" fill="#B7B9BE"/>
<path fill-rule="evenodd" clip-rule="evenodd" d="M234.109 205.26H195.469V198.26H234.109V205.26Z" fill="white"/>
<path fill-rule="evenodd" clip-rule="evenodd" d="M211.289 221.08V182.44H218.289V221.08H211.289Z" fill="white"/>
<path d="M84.6211 175.43H178.381" stroke="#DDDEE1" stroke-width="7" stroke-miterlimit="10"/>
</svg>
