<svg width="96" height="96" viewBox="0 0 96 96" fill="none" xmlns="http://www.w3.org/2000/svg">
<path d="M35.8685 30.2008H48.2985C48.0185 27.0408 46.8385 24.0308 44.9085 21.5108C42.9785 19.0008 40.3685 17.0908 37.3785 16.0008C34.3985 14.9208 31.1685 14.7108 28.0685 15.3908C24.9685 16.0808 22.1385 17.6308 19.8885 19.8808C17.6485 22.1208 16.0885 24.9608 15.3985 28.0508C14.7085 31.1508 14.9185 34.3708 15.9985 37.3608C17.0785 40.3408 18.9885 42.9508 21.4985 44.8908C24.0085 46.8308 27.0285 48.0008 30.1785 48.2908V35.8608C30.1785 35.1108 30.3285 34.3808 30.6085 33.6908C30.8985 33.0008 31.3085 32.3808 31.8385 31.8508C32.3685 31.3208 32.9885 30.9108 33.6785 30.6208C34.3685 30.3308 35.1085 30.1908 35.8485 30.1908L35.8685 30.2008Z" fill="#1868DB"/>
<path d="M72.9684 51.3608V51.3408H66.5284V60.8708C66.5284 61.6108 66.3784 62.3508 66.0984 63.0408C65.8184 63.7308 65.3984 64.3508 64.8684 64.8808C64.3384 65.4108 63.7184 65.8208 63.0284 66.1108C62.3384 66.3908 61.6084 66.5408 60.8584 66.5408H46.6284L55.4184 81.7408H72.9684L81.7584 66.5408L72.9584 51.3708L72.9684 51.3608Z" fill="#82B536"/>
<path d="M66.5285 51.3408V35.8708C66.5285 35.1308 66.3785 34.3908 66.0985 33.7008C65.8185 33.0108 65.3985 32.3908 64.8685 31.8608C64.3385 31.3308 63.7185 30.9208 63.0285 30.6308C62.3385 30.3508 61.6085 30.2008 60.8585 30.2008H48.2885C48.3285 30.6908 48.3585 31.1808 48.3585 31.6908C48.3585 36.1108 46.5985 40.3608 43.4685 43.4808C40.3385 46.6108 36.0985 48.3608 31.6785 48.3608C31.1785 48.3608 30.6885 48.3308 30.1885 48.2908V60.8608C30.1885 62.3608 30.7885 63.8008 31.8485 64.8708C32.9085 65.9308 34.3485 66.5308 35.8585 66.5308H46.6285L55.4185 51.3308H66.5185L66.5285 51.3408Z" fill="#FCA700"/>
<path d="M48.3685 31.6908C48.3685 31.1908 48.3385 30.7008 48.2985 30.2008H35.8685C35.1185 30.2008 34.3885 30.3408 33.6985 30.6308C33.0085 30.9108 32.3885 31.3308 31.8585 31.8608C31.3285 32.3908 30.9085 33.0108 30.6285 33.7008C30.3385 34.3908 30.1985 35.1308 30.1985 35.8708V48.3008C30.6885 48.3408 31.1785 48.3708 31.6885 48.3708C33.8785 48.3708 36.0485 47.9408 38.0785 47.1008C40.0985 46.2608 41.9385 45.0308 43.4885 43.4908C45.0385 41.9408 46.2685 40.1008 47.1085 38.0808C47.9485 36.0608 48.3785 33.8908 48.3785 31.7008L48.3685 31.6908Z" fill="#101214"/>
<path d="M66.5284 60.8708V51.3408H55.4084L46.6184 66.5408H60.8484C61.5984 66.5408 62.3284 66.4008 63.0184 66.1108C63.7084 65.8308 64.3384 65.4108 64.8684 64.8808C65.3984 64.3508 65.8184 63.7308 66.0984 63.0408C66.3884 62.3508 66.5284 61.6108 66.5284 60.8708Z" fill="#101214"/>
<path d="M50.1687 80.0613C50.3687 79.9413 50.3687 78.8313 50.1687 78.7113C49.8787 78.5413 49.5787 78.4613 49.1887 78.4513C48.7487 78.5013 48.6387 78.7313 48.3387 78.7113C47.8287 78.7113 46.9787 78.4013 46.7787 78.3213C46.7487 78.3113 46.7187 78.3113 46.6887 78.3213C46.4687 78.3613 45.5187 78.5313 44.6887 78.4513C44.1087 78.4513 43.7487 78.4513 43.5587 78.4513C43.1187 78.4513 42.7787 78.5713 42.4587 78.7813C42.2787 78.9013 42.2787 79.8713 42.4587 79.9813C42.7887 80.1913 43.1187 80.3113 43.5587 80.3113C43.7287 80.3113 44.0887 80.5813 44.5987 80.6213C44.6787 80.6213 44.7687 80.6113 44.8487 80.5713C45.5587 80.2113 46.4687 80.3113 46.4687 80.3113C46.4687 80.3113 47.8387 80.3113 48.4187 80.3113C48.8587 80.3113 49.0587 80.3113 49.1887 80.3113C49.5787 80.3113 49.8787 80.2113 50.1687 80.0513V80.0613Z" fill="#101214"/>
<path d="M35.1687 80.0614C35.3687 79.9414 35.3687 78.8314 35.1687 78.7114C34.8787 78.5414 34.5787 78.4614 34.1887 78.4514C33.7487 78.5014 33.6387 78.7314 33.3387 78.7114C32.8287 78.7114 31.9787 78.4014 31.7687 78.3214C31.7387 78.3114 31.7087 78.3114 31.6787 78.3214C31.4287 78.3614 30.5787 78.5414 29.8387 78.3414C29.3187 78.2714 28.9987 78.1814 28.8387 78.1514C28.4487 78.0614 28.1287 78.0714 27.7687 78.1714C27.5787 78.2214 27.2187 79.1314 27.3587 79.3014C27.6087 79.6214 27.9187 79.8414 28.3787 79.9714C28.5587 80.0114 28.8787 80.3714 29.4287 80.5114C29.5187 80.5314 29.6087 80.5314 29.7087 80.5014C30.1187 80.3714 30.5587 80.3414 30.8987 80.3314C31.2487 80.3314 31.4787 80.3414 31.4787 80.3414C31.4787 80.3414 32.8487 80.3414 33.4287 80.3414C33.8687 80.3414 34.0787 80.3414 34.1987 80.3414C34.5887 80.3414 34.8887 80.2414 35.1787 80.0814L35.1687 80.0614Z" fill="#101214"/>
<path d="M21.4687 74.6214C21.6787 74.7414 22.6087 74.1214 22.6087 73.9014C22.6087 73.5914 22.5487 73.3014 22.3887 72.9914C22.1687 72.6614 21.9087 72.6614 21.8287 72.3914C21.6287 71.9514 21.6987 71.1114 21.7387 70.9114C21.7387 70.8814 21.7387 70.8514 21.7287 70.8314C21.6287 70.6614 21.2887 69.8314 21.3287 69.0714C21.2887 68.5614 21.3087 68.2014 21.2987 68.0114C21.2987 67.5714 21.1787 67.2314 20.9687 66.9114C20.8487 66.7314 19.8787 66.7314 19.7687 66.9114C19.5587 67.2414 19.4387 67.5714 19.4387 68.0114C19.4387 68.1814 19.1587 68.5414 19.1487 69.1114C19.1487 69.2014 19.1687 69.2914 19.2187 69.3814C19.6287 70.1214 19.7387 71.0914 19.7387 71.0914C19.7387 71.0914 19.8187 71.4514 19.9487 71.8814C20.0787 72.3114 20.2587 72.8014 20.3887 73.0914C20.5787 73.5214 20.6887 73.7214 20.7487 73.8414C20.9487 74.2114 21.1887 74.4514 21.4987 74.6214H21.4687Z" fill="#101214"/>
<path d="M19.6787 59.6214C19.7987 59.8214 20.9087 59.8214 21.0287 59.6214C21.1987 59.3314 21.2787 59.0314 21.2887 58.6414C21.2387 58.2014 21.0087 58.0914 21.0287 57.7914C21.0287 57.2814 21.3387 56.4314 21.4187 56.2314C21.4287 56.2014 21.4287 56.1714 21.4187 56.1414C21.3787 55.9214 21.2087 54.9714 21.2887 54.1414C21.2887 53.5614 21.2887 53.2014 21.2887 53.0114C21.2887 52.5714 21.1687 52.2314 20.9587 51.9114C20.8387 51.7314 19.8687 51.7314 19.7587 51.9114C19.5487 52.2414 19.4287 52.5714 19.4287 53.0114C19.4287 53.1814 19.1587 53.5414 19.1187 54.0514C19.1187 54.1314 19.1287 54.2214 19.1687 54.3014C19.5287 55.0114 19.4287 55.9214 19.4287 55.9214C19.4287 55.9214 19.4287 57.2914 19.4287 57.8714C19.4287 58.3114 19.4287 58.5114 19.4287 58.6414C19.4287 59.0314 19.5287 59.3314 19.6887 59.6214H19.6787Z" fill="#101214"/>
<path d="M47.4085 17.5013C47.2085 17.6213 47.2085 18.7313 47.4085 18.8513C47.6985 19.0213 47.9985 19.1013 48.3885 19.1113C48.8285 19.0613 48.9385 18.8313 49.2385 18.8513C49.7485 18.8513 50.5985 19.1613 50.7985 19.2413C50.8285 19.2513 50.8585 19.2513 50.8885 19.2413C51.1085 19.2013 52.0585 19.0313 52.8885 19.1113C53.4685 19.1113 53.8285 19.1113 54.0185 19.1113C54.4585 19.1113 54.7985 18.9913 55.1185 18.7813C55.2985 18.6613 55.2985 17.6913 55.1185 17.5813C54.7885 17.3713 54.4585 17.2513 54.0185 17.2513C53.8485 17.2513 53.4885 16.9813 52.9785 16.9413C52.8985 16.9413 52.8085 16.9513 52.7285 16.9913C52.0185 17.3513 51.1085 17.2513 51.1085 17.2513C51.1085 17.2513 49.7385 17.2513 49.1585 17.2513C48.7185 17.2513 48.5185 17.2513 48.3885 17.2513C47.9985 17.2513 47.6985 17.3513 47.4085 17.5113V17.5013Z" fill="#101214"/>
<path d="M62.4085 17.5013C62.2085 17.6213 62.2085 18.7313 62.4085 18.8513C62.6985 19.0213 62.9985 19.1013 63.3885 19.1113C63.8285 19.0613 63.9385 18.8313 64.2385 18.8513C64.7485 18.8513 65.5985 19.1613 65.8085 19.2413C65.8385 19.2513 65.8685 19.2513 65.8985 19.2413C66.0985 19.2013 67.1085 19.0213 67.8585 19.1213C68.3885 19.1413 68.7085 19.1813 68.8785 19.2113C69.2785 19.2613 69.5885 19.2113 69.9385 19.0713C70.1285 19.0013 70.3785 18.0613 70.2285 17.9013C69.9485 17.6113 69.6185 17.4313 69.1485 17.3513C68.9685 17.3213 68.6085 17.0113 68.0485 16.9313C67.9585 16.9213 67.8685 16.9313 67.7785 16.9713C67.3685 17.1413 66.9985 17.2113 66.6685 17.2313C66.3485 17.2513 66.1185 17.2313 66.1185 17.2313C66.1185 17.2313 64.7485 17.2313 64.1685 17.2313C63.7285 17.2313 63.5185 17.2313 63.3985 17.2313C63.0085 17.2313 62.7085 17.3313 62.4185 17.4913L62.4085 17.5013Z" fill="#101214"/>
<path d="M76.5787 21.9213C76.3487 21.8213 75.4987 22.5413 75.5187 22.7613C75.5587 23.0713 75.6487 23.3413 75.8387 23.6513C76.0987 23.9613 76.3487 23.9313 76.4687 24.1913C76.7087 24.6113 76.7387 25.4513 76.7187 25.6513C76.7187 25.6813 76.7187 25.7113 76.7387 25.7313C76.8487 25.8913 77.2887 26.6713 77.3287 27.4313C77.4187 27.9513 77.4487 28.2813 77.4587 28.4513C77.4987 28.8513 77.6087 29.1413 77.8187 29.4813C77.9387 29.6613 78.9087 29.6613 79.0187 29.4813C79.2287 29.1713 79.3487 28.8013 79.3187 28.3213C79.3087 28.1413 79.5487 27.7213 79.4987 27.1613C79.4987 27.0713 79.4587 26.9813 79.3987 26.9013C78.9087 26.2113 78.6887 25.2613 78.6887 25.2613C78.6887 25.2613 78.5687 24.9113 78.3987 24.5013C78.2287 24.0813 77.9887 23.6213 77.8387 23.3513C77.5987 22.9413 77.4787 22.7613 77.3987 22.6413C77.1587 22.2913 76.8887 22.0813 76.5787 21.9513V21.9213Z" fill="#101214"/>
<path d="M79.0886 36.7513C78.9686 36.5513 77.8586 36.5513 77.7386 36.7513C77.5686 37.0413 77.4886 37.3413 77.4786 37.7313C77.5286 38.1713 77.7586 38.2813 77.7386 38.5813C77.7386 39.0913 77.4286 39.9413 77.3486 40.1413C77.3386 40.1713 77.3386 40.2013 77.3486 40.2313C77.3886 40.4513 77.5586 41.4013 77.4786 42.2313C77.4786 42.8113 77.4786 43.1713 77.4786 43.3613C77.4786 43.8013 77.5986 44.1413 77.8086 44.4613C77.9286 44.6413 78.8986 44.6413 79.0086 44.4613C79.2186 44.1313 79.3386 43.8013 79.3386 43.3613C79.3386 43.1913 79.6086 42.8313 79.6486 42.3213C79.6486 42.2413 79.6386 42.1513 79.5986 42.0713C79.2386 41.3613 79.3386 40.4513 79.3386 40.4513C79.3386 40.4513 79.3386 39.0813 79.3386 38.5013C79.3386 38.0613 79.3386 37.8613 79.3386 37.7313C79.3386 37.3413 79.2386 37.0413 79.0786 36.7513H79.0886Z" fill="#101214"/>
<path d="M79.0886 51.6814C78.9686 51.5714 77.8586 51.5714 77.7386 51.6814C77.5686 51.8414 77.4886 52.0014 77.4786 52.2214C77.5286 52.4614 77.7586 52.5214 77.7386 52.6914C77.7386 52.9714 77.4286 53.4414 77.3486 53.5514C77.3386 53.5714 77.3386 53.5814 77.3486 53.6014C77.3886 53.7214 77.5586 54.2414 77.4786 54.6914C77.4786 55.0114 77.4786 55.2114 77.4786 55.3114C77.4786 55.5514 77.5986 55.7414 77.8086 55.9114C77.9286 56.0114 78.8986 56.0114 79.0086 55.9114C79.2186 55.7314 79.3386 55.5514 79.3386 55.3114C79.3386 55.2214 79.6086 55.0214 79.6486 54.7414C79.6486 54.6914 79.6386 54.6514 79.5986 54.6014C79.2386 54.2114 79.3386 53.7114 79.3386 53.7114C79.3386 53.7114 79.3386 52.9614 79.3386 52.6414C79.3386 52.4014 79.3386 52.2914 79.3386 52.2214C79.3386 52.0114 79.2386 51.8414 79.0786 51.6814H79.0886Z" fill="#101214"/>
</svg>
