<svg width="96" height="96" viewBox="0 0 96 96" fill="none" xmlns="http://www.w3.org/2000/svg">
<path d="M35.8685 30.2008H48.2985C48.0185 27.0408 46.8385 24.0308 44.9085 21.5108C42.9785 19.0008 40.3685 17.0908 37.3785 16.0008C34.3985 14.9208 31.1685 14.7108 28.0685 15.3908C24.9685 16.0808 22.1385 17.6308 19.8885 19.8808C17.6485 22.1208 16.0885 24.9608 15.3985 28.0508C14.7085 31.1508 14.9185 34.3708 15.9985 37.3608C17.0785 40.3408 18.9885 42.9508 21.4985 44.8908C24.0085 46.8308 27.0285 48.0008 30.1785 48.2908V35.8608C30.1785 35.1108 30.3285 34.3808 30.6085 33.6908C30.8985 33.0008 31.3085 32.3808 31.8385 31.8508C32.3685 31.3208 32.9885 30.9108 33.6785 30.6208C34.3685 30.3308 35.1085 30.1908 35.8485 30.1908L35.8685 30.2008Z" fill="#1868DB"/>
<path d="M72.9684 51.3608V51.3408H66.5284V60.8708C66.5284 61.6108 66.3784 62.3508 66.0984 63.0408C65.8184 63.7308 65.3984 64.3508 64.8684 64.8808C64.3384 65.4108 63.7184 65.8208 63.0284 66.1108C62.3384 66.3908 61.6084 66.5408 60.8584 66.5408H46.6284L55.4184 81.7408H72.9684L81.7584 66.5408L72.9584 51.3708L72.9684 51.3608Z" fill="#82B536"/>
<path d="M66.5285 51.3408V35.8708C66.5285 35.1308 66.3785 34.3908 66.0985 33.7008C65.8185 33.0108 65.3985 32.3908 64.8685 31.8608C64.3385 31.3308 63.7185 30.9208 63.0285 30.6308C62.3385 30.3508 61.6085 30.2008 60.8585 30.2008H48.2885C48.3285 30.6908 48.3585 31.1808 48.3585 31.6908C48.3585 36.1108 46.5985 40.3608 43.4685 43.4808C40.3385 46.6108 36.0985 48.3608 31.6785 48.3608C31.1785 48.3608 30.6885 48.3308 30.1885 48.2908V60.8608C30.1885 62.3608 30.7885 63.8008 31.8485 64.8708C32.9085 65.9308 34.3485 66.5308 35.8585 66.5308H46.6285L55.4185 51.3308H66.5185L66.5285 51.3408Z" fill="#FCA700"/>
<path d="M48.3685 31.6908C48.3685 31.1908 48.3385 30.7008 48.2985 30.2008H35.8685C35.1185 30.2008 34.3885 30.3408 33.6985 30.6308C33.0085 30.9108 32.3885 31.3308 31.8585 31.8608C31.3285 32.3908 30.9085 33.0108 30.6285 33.7008C30.3385 34.3908 30.1985 35.1308 30.1985 35.8708V48.3008C30.6885 48.3408 31.1785 48.3708 31.6885 48.3708C33.8785 48.3708 36.0485 47.9408 38.0785 47.1008C40.0985 46.2608 41.9385 45.0308 43.4885 43.4908C45.0385 41.9408 46.2685 40.1008 47.1085 38.0808C47.9485 36.0608 48.3785 33.8908 48.3785 31.7008L48.3685 31.6908Z" fill="#101214"/>
<path d="M66.5284 60.8708V51.3408H55.4084L46.6184 66.5408H60.8484C61.5984 66.5408 62.3284 66.4008 63.0184 66.1108C63.7084 65.8308 64.3384 65.4108 64.8684 64.8808C65.3984 64.3508 65.8184 63.7308 66.0984 63.0408C66.3884 62.3508 66.5284 61.6108 66.5284 60.8708Z" fill="#101214"/>
</svg>
