<svg width="16" height="16" viewBox="0 0 16 16" fill="none" xmlns="http://www.w3.org/2000/svg">
<g clip-path="url(#clip0_237_6918)">
<path d="M15.4025 6.15902L15.3809 6.1015L13.2034 0.421442C13.1593 0.309913 13.0809 0.215302 12.9794 0.151305C12.9038 0.102862 12.8178 0.0728218 12.7284 0.0635906C12.6391 0.0543595 12.5488 0.0661951 12.4648 0.0981485C12.3808 0.130102 12.3055 0.181284 12.2448 0.247594C12.1842 0.313903 12.14 0.393495 12.1156 0.479989L10.6458 4.97987H4.69355L3.22372 0.479989C3.1992 0.393624 3.15484 0.314182 3.09418 0.248C3.03352 0.181817 2.95823 0.130725 2.87432 0.0987981C2.79041 0.0668708 2.7002 0.0549915 2.61089 0.0641078C2.52158 0.0732242 2.43563 0.103084 2.3599 0.151305C2.25848 0.215302 2.18006 0.309913 2.13598 0.421442L-0.0405156 6.10253L-0.0631127 6.15902C-0.376465 6.97796 -0.415069 7.87658 -0.173105 8.71938C0.0688592 9.56218 0.578274 10.3035 1.27833 10.8315L1.28654 10.8376L1.30503 10.852L4.61754 13.3346L6.26096 14.5764L7.25933 15.3313C7.37647 15.4198 7.51927 15.4677 7.66608 15.4677C7.81288 15.4677 7.95568 15.4198 8.07282 15.3313L9.0712 14.5764L10.7146 13.3346L14.0507 10.8376L14.06 10.8304C14.76 10.3026 15.2695 9.56158 15.5116 8.719C15.7538 7.87641 15.7155 6.97794 15.4025 6.15902Z" fill="#E24329"/>
<path d="M15.4021 6.15908L15.3805 6.10156C14.3196 6.31927 13.3199 6.76894 12.4532 7.41835L7.67188 11.0339L10.7163 13.3346L14.0524 10.8377L14.0617 10.8305C14.7613 10.3024 15.2704 9.56125 15.5122 8.71868C15.7539 7.87611 15.7153 6.97779 15.4021 6.15908Z" fill="#FC6D26"/>
<path d="M4.61914 13.335L6.26256 14.5768L7.26093 15.3317C7.37807 15.4202 7.52087 15.4681 7.66768 15.4681C7.81448 15.4681 7.95728 15.4202 8.07442 15.3317L9.0728 14.5768L10.7162 13.335L7.67179 11.0342L4.61914 13.335Z" fill="#FCA326"/>
<path d="M2.88579 7.4183C2.01936 6.76921 1.02004 6.31989 -0.0405156 6.10254L-0.0631127 6.15903C-0.376465 6.97797 -0.415069 7.87659 -0.173105 8.71939C0.0688593 9.56219 0.578274 10.3035 1.27833 10.8315L1.28654 10.8376L1.30503 10.852L4.61754 13.3346L7.66402 11.0338L2.88579 7.4183Z" fill="#FC6D26"/>
</g>
<defs>
<clipPath id="clip0_237_6918">
<rect width="16" height="16" rx="4" fill="white"/>
</clipPath>
</defs>
</svg>
