<svg width="16" height="16" viewBox="0 0 16 16" fill="none" xmlns="http://www.w3.org/2000/svg">
<mask id="path-1-inside-1_237_6912" fill="white">
<path d="M0 4C0 1.79086 1.79086 0 4 0H12C14.2091 0 16 1.79086 16 4V12C16 14.2091 14.2091 16 12 16H4C1.79086 16 0 14.2091 0 12V4Z"/>
</mask>
<path d="M0 4C0 1.79086 1.79086 0 4 0H12C14.2091 0 16 1.79086 16 4V12C16 14.2091 14.2091 16 12 16H4C1.79086 16 0 14.2091 0 12V4Z" fill="white"/>
<path d="M4 0V1H12V0V-1H4V0ZM16 4H15V12H16H17V4H16ZM12 16V15H4V16V17H12V16ZM0 12H1V4H0H-1V12H0ZM4 16V15C2.34315 15 1 13.6569 1 12H0H-1C-1 14.7614 1.23858 17 4 17V16ZM16 12H15C15 13.6569 13.6569 15 12 15V16V17C14.7614 17 17 14.7614 17 12H16ZM12 0V1C13.6569 1 15 2.34315 15 4H16H17C17 1.23858 14.7614 -1 12 -1V0ZM4 0V-1C1.23858 -1 -1 1.23858 -1 4H0H1C1 2.34315 2.34315 1 4 1V0Z" fill="#0B1228" fill-opacity="0.14" mask="url(#path-1-inside-1_237_6912)"/>
<path d="M13.1547 6.93005L13.1404 6.8917L11.6886 3.10486C11.6592 3.03051 11.607 2.96743 11.5393 2.92477C11.4889 2.89247 11.4316 2.87244 11.372 2.86629C11.3124 2.86013 11.2522 2.86802 11.1962 2.88933C11.1402 2.91063 11.09 2.94475 11.0496 2.98896C11.0092 3.03317 10.9797 3.08623 10.9634 3.1439L9.98352 6.14392H6.01522L5.0353 3.1439C5.01895 3.08632 4.98938 3.03335 4.94893 2.98923C4.90849 2.94511 4.8583 2.91105 4.80236 2.88976C4.74641 2.86847 4.68627 2.86055 4.62673 2.86663C4.56718 2.87271 4.50988 2.89262 4.4594 2.92477C4.39178 2.96743 4.3395 3.03051 4.31011 3.10486L2.85906 6.89239L2.844 6.93005C2.63509 7.47603 2.60935 8.07513 2.77067 8.63701C2.93198 9.1989 3.27161 9.69311 3.73832 10.0451L3.7438 10.0492L3.75613 10.0588L5.96454 11.7139L7.06019 12.5418L7.7258 13.0451C7.8039 13.1041 7.8991 13.1361 7.99697 13.1361C8.09485 13.1361 8.19005 13.1041 8.26815 13.0451L8.93375 12.5418L10.0294 11.7139L12.2536 10.0492L12.2597 10.0444C12.7264 9.69255 13.0661 9.19851 13.2275 8.63676C13.389 8.07501 13.3634 7.47601 13.1547 6.93005Z" fill="#E24329"/>
<path d="M13.1556 6.92995L13.1412 6.8916C12.4339 7.03675 11.7675 7.33654 11.1896 7.76949L8.00195 10.1799L10.0316 11.7138L12.2558 10.0491L12.262 10.0443C12.7284 9.69227 13.0678 9.19814 13.229 8.63641C13.3902 8.07468 13.3644 7.47577 13.1556 6.92995Z" fill="#FC6D26"/>
<path d="M5.96484 11.7136L7.06049 12.5415L7.7261 13.0448C7.8042 13.1038 7.8994 13.1357 7.99727 13.1357C8.09515 13.1357 8.19035 13.1038 8.26845 13.0448L8.93405 12.5415L10.0297 11.7136L8.00001 10.1797L5.96484 11.7136Z" fill="#FCA326"/>
<path d="M4.81 7.76978C4.23236 7.33704 3.56612 7.03748 2.85906 6.89258L2.844 6.93024C2.63509 7.47622 2.60935 8.07532 2.77067 8.63721C2.93198 9.19909 3.27161 9.6933 3.73832 10.0453L3.7438 10.0494L3.75613 10.059L5.96455 11.7141L7.9956 10.1802L4.81 7.76978Z" fill="#FC6D26"/>
</svg>
