<svg width="20" height="20" viewBox="0 0 20 20" fill="none" xmlns="http://www.w3.org/2000/svg">
<mask id="path-1-inside-1_237_6906" fill="white">
<path d="M0 5C0 2.23858 2.23858 0 5 0H15C17.7614 0 20 2.23858 20 5V15C20 17.7614 17.7614 20 15 20H5C2.23858 20 0 17.7614 0 15V5Z"/>
</mask>
<path d="M0 5C0 2.23858 2.23858 0 5 0H15C17.7614 0 20 2.23858 20 5V15C20 17.7614 17.7614 20 15 20H5C2.23858 20 0 17.7614 0 15V5Z" fill="white"/>
<path d="M5 0V1H15V0V-1H5V0ZM20 5H19V15H20H21V5H20ZM15 20V19H5V20V21H15V20ZM0 15H1V5H0H-1V15H0ZM5 20V19C2.79086 19 1 17.2091 1 15H0H-1C-1 18.3137 1.68629 21 5 21V20ZM20 15H19C19 17.2091 17.2091 19 15 19V20V21C18.3137 21 21 18.3137 21 15H20ZM15 0V1C17.2091 1 19 2.79086 19 5H20H21C21 1.68629 18.3137 -1 15 -1V0ZM5 0V-1C1.68629 -1 -1 1.68629 -1 5H0H1C1 2.79086 2.79086 1 5 1V0Z" fill="#0B1228" fill-opacity="0.14" mask="url(#path-1-inside-1_237_6906)"/>
<path d="M15.7998 8.79667L15.7836 8.75353L14.1504 4.49334C14.1174 4.40969 14.0586 4.33873 13.9825 4.29073C13.9257 4.25439 13.8613 4.23186 13.7942 4.22494C13.7272 4.21802 13.6595 4.22689 13.5965 4.25086C13.5335 4.27482 13.477 4.31321 13.4315 4.36295C13.386 4.41268 13.3529 4.47238 13.3346 4.53725L12.2322 7.91228H7.76785L6.66544 4.53725C6.64705 4.47247 6.61378 4.41289 6.56828 4.36325C6.52279 4.31361 6.46632 4.27529 6.40338 4.25135C6.34045 4.2274 6.27279 4.21849 6.2058 4.22533C6.13882 4.23216 6.07435 4.25456 6.01755 4.29073C5.94149 4.33873 5.88267 4.40969 5.84961 4.49334L4.21718 8.7543L4.20023 8.79667C3.96521 9.4109 3.93625 10.0849 4.11773 10.717C4.29921 11.3491 4.68129 11.9051 5.20635 12.3011L5.21251 12.3057L5.22638 12.3165L7.71085 14.1785L8.94345 15.1099L9.69226 15.6762C9.78012 15.7425 9.88722 15.7784 9.99733 15.7784C10.1074 15.7784 10.2145 15.7425 10.3024 15.6762L11.0512 15.1099L12.2838 14.1785L14.786 12.3057L14.7929 12.3004C15.318 11.9045 15.7001 11.3487 15.8817 10.7167C16.0633 10.0848 16.0346 9.41088 15.7998 8.79667Z" fill="#E24329"/>
<path d="M15.7998 8.79607L15.7836 8.75293C14.9879 8.91622 14.2381 9.25348 13.5881 9.74056L10.002 12.4523L12.2854 14.1779L14.7875 12.3051L14.7945 12.2998C15.3192 11.9037 15.7011 11.3478 15.8824 10.7158C16.0637 10.0839 16.0347 9.41012 15.7998 8.79607Z" fill="#FC6D26"/>
<path d="M7.71094 14.1788L8.94354 15.1102L9.69235 15.6764C9.78021 15.7428 9.88731 15.7787 9.99742 15.7787C10.1075 15.7787 10.2146 15.7428 10.3025 15.6764L11.0513 15.1102L12.2839 14.1788L10.0005 12.4531L7.71094 14.1788Z" fill="#FCA326"/>
<path d="M6.41199 9.74076C5.76214 9.25393 5.01262 8.91692 4.21718 8.75391L4.20023 8.79628C3.96521 9.4105 3.93625 10.0845 4.11773 10.7166C4.29921 11.3487 4.68129 11.9047 5.20635 12.3007L5.21251 12.3054L5.22638 12.3161L7.71085 14.1781L9.99579 12.4525L6.41199 9.74076Z" fill="#FC6D26"/>
</svg>
