<svg width="24" height="24" viewBox="0 0 24 24" fill="none" xmlns="http://www.w3.org/2000/svg">
<mask id="path-1-inside-1_237_6900" fill="white">
<path d="M0 6.39569C0 2.86345 2.86345 0 6.39569 0H17.6043C21.1366 0 24 2.86345 24 6.39569V17.6043C24 21.1366 21.1366 24 17.6043 24H6.39569C2.86345 24 0 21.1366 0 17.6043V6.39569Z"/>
</mask>
<path d="M0 6.39569C0 2.86345 2.86345 0 6.39569 0H17.6043C21.1366 0 24 2.86345 24 6.39569V17.6043C24 21.1366 21.1366 24 17.6043 24H6.39569C2.86345 24 0 21.1366 0 17.6043V6.39569Z" fill="white"/>
<path d="M6.39569 0V1H17.6043V0V-1H6.39569V0ZM24 6.39569H23V17.6043H24H25V6.39569H24ZM17.6043 24V23H6.39569V24V25H17.6043V24ZM0 17.6043H1V6.39569H0H-1V17.6043H0ZM6.39569 24V23C3.41573 23 1 20.5843 1 17.6043H0H-1C-1 21.6888 2.31116 25 6.39569 25V24ZM24 17.6043H23C23 20.5843 20.5843 23 17.6043 23V24V25C21.6888 25 25 21.6888 25 17.6043H24ZM17.6043 0V1C20.5843 1 23 3.41573 23 6.39569H24H25C25 2.31116 21.6888 -1 17.6043 -1V0ZM6.39569 0V-1C2.31116 -1 -1 2.31116 -1 6.39569H0H1C1 3.41573 3.41573 1 6.39569 1V0Z" fill="#0B1228" fill-opacity="0.14" mask="url(#path-1-inside-1_237_6900)"/>
<path d="M18.7662 11.3365L18.7473 11.2861L16.842 6.3158C16.8034 6.21821 16.7348 6.13542 16.646 6.07942C16.5798 6.03703 16.5046 6.01074 16.4264 6.00266C16.3482 5.99459 16.2692 6.00494 16.1957 6.0329C16.1222 6.06086 16.0563 6.10565 16.0032 6.16367C15.9502 6.2217 15.9115 6.29134 15.8902 6.36703L14.604 10.3046H9.39575L8.10962 6.36703C8.08817 6.29146 8.04936 6.22194 7.99627 6.16403C7.94319 6.10612 7.87732 6.06141 7.80389 6.03347C7.73047 6.00553 7.65154 5.99514 7.57339 6.00312C7.49524 6.01109 7.42003 6.03722 7.35377 6.07942C7.26503 6.13542 7.1964 6.21821 7.15784 6.3158L5.25337 11.287L5.2336 11.3365C4.95941 12.0531 4.92563 12.8394 5.13735 13.5769C5.34908 14.3144 5.79482 14.963 6.40738 15.4251L6.41457 15.4304L6.43074 15.443L9.32924 17.6154L10.7673 18.7021L11.6408 19.3627C11.7433 19.4401 11.8683 19.482 11.9968 19.482C12.1252 19.482 12.2502 19.4401 12.3527 19.3627L13.2263 18.7021L14.6643 17.6154L17.5834 15.4304L17.5915 15.4242C18.204 14.9623 18.6498 14.3139 18.8617 13.5766C19.0736 12.8392 19.0401 12.053 18.7662 11.3365Z" fill="#E24329"/>
<path d="M18.768 11.3365L18.7491 11.2861C17.8207 11.4766 16.946 11.8701 16.1876 12.4384L12.0039 15.6021L14.6678 17.6154L17.587 15.4305L17.5951 15.4242C18.2073 14.9621 18.6527 14.3135 18.8643 13.5762C19.0758 12.8389 19.042 12.0529 18.768 11.3365Z" fill="#FC6D26"/>
<path d="M9.33008 17.6158L10.7681 18.7025L11.6417 19.3631C11.7442 19.4405 11.8691 19.4824 11.9976 19.4824C12.126 19.4824 12.251 19.4405 12.3535 19.3631L13.2271 18.7025L14.6651 17.6158L12.0012 15.6025L9.33008 17.6158Z" fill="#FCA326"/>
<path d="M7.81393 12.4385C7.05579 11.8705 6.18137 11.4773 5.25337 11.2871L5.2336 11.3365C4.95941 12.0532 4.92563 12.8395 5.13735 13.577C5.34908 14.3145 5.79482 14.9631 6.40738 15.4251L6.41457 15.4305L6.43074 15.4431L9.32924 17.6155L11.995 15.6022L7.81393 12.4385Z" fill="#FC6D26"/>
</svg>
