<svg width="32" height="32" viewBox="0 0 32 32" fill="none" xmlns="http://www.w3.org/2000/svg">
<mask id="path-1-inside-1_237_6894" fill="white">
<path d="M0 8C0 3.58172 3.58172 0 8 0H24C28.4183 0 32 3.58172 32 8V24C32 28.4183 28.4183 32 24 32H8C3.58172 32 0 28.4183 0 24V8Z"/>
</mask>
<path d="M0 8C0 3.58172 3.58172 0 8 0H24C28.4183 0 32 3.58172 32 8V24C32 28.4183 28.4183 32 24 32H8C3.58172 32 0 28.4183 0 24V8Z" fill="white"/>
<path d="M8 0V1H24V0V-1H8V0ZM32 8H31V24H32H33V8H32ZM24 32V31H8V32V33H24V32ZM0 24H1V8H0H-1V24H0ZM8 32V31C4.13401 31 1 27.866 1 24H0H-1C-1 28.9706 3.02944 33 8 33V32ZM32 24H31C31 27.866 27.866 31 24 31V32V33C28.9706 33 33 28.9706 33 24H32ZM24 0V1C27.866 1 31 4.13401 31 8H32H33C33 3.02944 28.9706 -1 24 -1V0ZM8 0V-1C3.02944 -1 -1 3.02944 -1 8H0H1C1 4.13401 4.13401 1 8 1V0Z" fill="#0B1228" fill-opacity="0.14" mask="url(#path-1-inside-1_237_6894)"/>
<path d="M25.6666 14.6232L25.6397 14.5513L22.9176 7.45113C22.8625 7.31171 22.7645 7.19345 22.6377 7.11345C22.5431 7.0529 22.4357 7.01534 22.3239 7.0038C22.2122 6.99227 22.0993 7.00706 21.9944 7.047C21.8894 7.08695 21.7952 7.15093 21.7194 7.23381C21.6436 7.3167 21.5883 7.41619 21.5579 7.52431L19.7205 13.1493H12.2798L10.4425 7.52431C10.4118 7.41635 10.3564 7.31705 10.2805 7.23432C10.2047 7.15159 10.1106 7.08772 10.0057 7.04782C9.9008 7.00791 9.78804 6.99306 9.67639 7.00445C9.56474 7.01585 9.4573 7.05317 9.36264 7.11345C9.23586 7.19345 9.13783 7.31171 9.08273 7.45113L6.36197 14.5526L6.33372 14.6232C5.94201 15.6469 5.89376 16.7702 6.19623 17.8238C6.4987 18.8773 7.1355 19.8039 8.01061 20.4639L8.02088 20.4716L8.04399 20.4896L12.1848 23.5929L14.2392 25.1452L15.4872 26.0889C15.6337 26.1995 15.8122 26.2593 15.9957 26.2593C16.1792 26.2593 16.3577 26.1995 16.5041 26.0889L17.7522 25.1452L19.8065 23.5929L23.9769 20.4716L23.9885 20.4626C24.8635 19.8029 25.5004 18.8765 25.8031 17.8233C26.1058 16.77 26.0579 15.6469 25.6666 14.6232Z" fill="#E24329"/>
<path d="M25.6652 14.6237L25.6382 14.5518C24.312 14.8239 23.0624 15.386 21.9789 16.1978L16.002 20.7173L19.8077 23.5933L23.9781 20.472L23.9896 20.463C24.8642 19.8029 25.5006 18.8765 25.8028 17.8232C26.105 16.77 26.0567 15.6471 25.6652 14.6237Z" fill="#FC6D26"/>
<path d="M12.1836 23.5928L14.238 25.1451L15.486 26.0888C15.6324 26.1994 15.8109 26.2593 15.9945 26.2593C16.178 26.2593 16.3565 26.1994 16.5029 26.0888L17.7509 25.1451L19.8053 23.5928L15.9996 20.7168L12.1836 23.5928Z" fill="#FCA326"/>
<path d="M10.02 16.1975C8.93694 15.3861 7.68773 14.8244 6.36197 14.5527L6.33372 14.6233C5.94201 15.647 5.89376 16.7703 6.19623 17.8239C6.4987 18.8774 7.1355 19.804 8.01061 20.464L8.02088 20.4717L8.04399 20.4897L12.1848 23.593L15.9931 20.717L10.02 16.1975Z" fill="#FC6D26"/>
</svg>
