<svg width="96" height="96" viewBox="0 0 96 96" fill="none" xmlns="http://www.w3.org/2000/svg">
<path d="M33.52 18.16H12V72.37H41.35V63.37H33.52V18.16Z" fill="#FCA700"/>
<path d="M62.88 18.16V9H33.52V18.16H41.35V63.37H55.05V18.16H62.88Z" fill="#BF63F3"/>
<path d="M41.35 18.16H33.52V63.37H41.35V18.16Z" fill="#101214"/>
<path d="M62.8798 18.16V63.37H55.0498V72.37H84.3998V18.16H62.8798Z" fill="#1868DB"/>
<path d="M62.8798 18.16H55.0498V63.37H62.8798V18.16Z" fill="#101214"/>
<path d="M25.3399 51.98C29.0499 51.98 32.0499 48.98 32.0499 45.27C32.0499 41.56 29.0499 38.56 25.3399 38.56C21.6299 38.56 18.6299 41.56 18.6299 45.27C18.6299 48.98 21.6299 51.98 25.3399 51.98Z" fill="white"/>
<path d="M70.2699 37.88L72.8799 42.66L77.6599 45.27L72.8799 47.88L70.2699 52.66L67.6599 47.88L62.8799 45.27L67.6599 42.66L70.2699 37.88Z" fill="white"/>
<path d="M48.2001 29.34L41.3501 36.19L48.2001 43.04L55.0501 36.19L48.2001 29.34Z" fill="white"/>
<path d="M73.9902 80.7696C73.7402 80.8896 73.7402 81.9996 73.9902 82.1196C74.3502 82.2896 74.7202 82.3696 75.2102 82.3796C75.7602 82.3296 75.8902 82.0996 76.2702 82.1196C76.9002 82.1196 77.9502 82.4296 78.2102 82.5096C78.2502 82.5196 78.2902 82.5196 78.3202 82.5096C78.5902 82.4696 79.7702 82.2996 80.7902 82.3896C81.5102 82.3896 81.9502 82.3896 82.1802 82.3996C82.7202 82.3996 83.1402 82.2996 83.4902 82.1096C83.5302 81.9996 83.9602 81.0796 83.6102 80.9096C83.1802 80.6596 82.7702 80.5396 82.2102 80.5196C81.9902 80.5196 81.5502 80.2396 80.9202 80.1896C80.8202 80.1896 80.7102 80.1896 80.6102 80.2396C79.7302 80.5996 78.5902 80.4896 78.5902 80.4896C78.5902 80.4896 76.8902 80.4896 76.1702 80.4796C75.6302 80.4796 75.3702 80.4796 75.2102 80.4796C74.7302 80.4796 74.3502 80.5796 73.9902 80.7396V80.7696Z" fill="#101214"/>
<path d="M13.5603 80.9496C13.2203 80.9696 12.9103 81.0696 12.7303 81.2296C12.5503 81.3896 12.5203 81.5796 12.5803 81.7196C12.7503 81.9896 12.8903 82.2096 13.5203 82.2996C15.5503 82.4696 17.4703 82.5396 20.0603 82.5396C22.9703 82.4796 23.6803 82.2396 25.6603 82.2596C28.9903 82.2496 34.6303 82.5396 35.9803 82.6096C36.1803 82.6196 36.3803 82.6196 36.5803 82.6096C38.0103 82.5596 44.3003 82.3696 49.7303 82.4296C53.5603 82.4096 55.9303 82.3996 57.1703 82.3996C60.0903 82.3796 62.2803 82.2596 64.4203 82.0396C65.6003 81.9196 65.6003 80.9496 64.4203 80.8396C62.2703 80.6396 60.0803 80.5296 57.1603 80.5296C56.0203 80.5296 53.6503 80.2696 50.3003 80.2396C49.7503 80.2396 49.2103 80.2496 48.6703 80.2996C44.0103 80.6796 37.9503 80.5996 37.9503 80.5996C37.9503 80.5996 28.9103 80.6296 25.0903 80.6396C22.2203 80.6496 20.8303 80.6596 19.9803 80.6596C17.4303 80.6696 15.3603 80.7796 13.5603 80.9396V80.9496Z" fill="#101214"/>
<path d="M27.6004 77.1196C27.4904 76.8896 26.3704 76.8896 26.2504 77.1196C26.0804 77.4396 25.9904 77.7796 25.9704 78.2196C26.0204 78.7196 26.2504 78.8396 26.2204 79.1796C26.2204 79.7496 25.8904 80.6896 25.8104 80.9196C25.8004 80.9496 25.7904 80.9896 25.8104 81.0196C25.8504 81.2596 26.0004 82.3496 25.9104 83.2596C25.9104 83.9096 25.9104 84.3096 25.9104 84.5196C25.9104 85.0196 26.0204 85.3996 26.2304 85.7896C26.3404 85.9996 27.3104 86.1096 27.4304 85.9196C27.6504 85.5696 27.7604 85.1996 27.7804 84.6996C27.7804 84.4996 28.0604 84.1096 28.1104 83.5396C28.1104 83.4496 28.1104 83.3496 28.0604 83.2496C27.7104 82.4096 27.8204 81.3696 27.8204 81.3696C27.8204 81.3696 27.8404 79.7996 27.8504 79.1396C27.8504 78.6396 27.8504 78.3996 27.8504 78.2496C27.8504 77.7996 27.7604 77.4596 27.6004 77.1296V77.1196Z" fill="#101214"/>
<path d="M48.8504 77.1196C48.7404 76.8896 47.6204 76.8896 47.5004 77.1196C47.3304 77.4396 47.2404 77.7796 47.2204 78.2196C47.2704 78.7196 47.5004 78.8396 47.4704 79.1796C47.4704 79.7496 47.1404 80.6896 47.0604 80.9196C47.0504 80.9496 47.0404 80.9896 47.0604 81.0196C47.1004 81.2596 47.2504 82.3496 47.1604 83.2596C47.1604 83.9096 47.1604 84.3096 47.1604 84.5196C47.1604 85.0196 47.2704 85.3996 47.4804 85.7896C47.5904 85.9996 48.5604 86.1096 48.6804 85.9196C48.9004 85.5696 49.0104 85.1996 49.0304 84.6996C49.0304 84.4996 49.3104 84.1096 49.3604 83.5396C49.3604 83.4496 49.3604 83.3496 49.3104 83.2496C48.9604 82.4096 49.0704 81.3696 49.0704 81.3696C49.0704 81.3696 49.0904 79.7996 49.1004 79.1396C49.1004 78.6396 49.1004 78.3996 49.1004 78.2496C49.1004 77.7996 49.0104 77.4596 48.8504 77.1296V77.1196Z" fill="#101214"/>
<path d="M65.8705 77.7396C65.3805 78.4896 66.3705 79.0496 66.8505 78.6696C67.5905 78.1296 68.4505 77.7396 69.6005 77.6796C70.8805 77.6596 71.3205 77.6696 72.1005 78.1796C72.7605 78.6396 73.3705 79.5796 73.4805 80.4996C73.6205 81.4196 73.3405 82.1796 73.2205 82.4296C73.1805 82.5096 73.1705 82.5896 73.1305 82.6696C73.0505 82.9496 72.7505 83.7996 71.8805 84.4596C71.4505 84.7796 70.8905 85.0396 70.2805 85.1296C69.6705 85.2096 69.0205 85.1496 68.4605 84.9196C67.6605 84.6196 67.1305 84.1196 66.7905 83.6996C66.4505 83.2696 66.3105 82.8896 66.2105 82.6296C65.8105 81.3796 65.9005 80.3396 66.2305 79.3396C66.4405 78.8196 65.7105 78.1496 65.1905 78.7296C64.3305 79.7696 63.8305 81.3596 64.4305 83.2396C64.5605 83.5896 64.7105 84.1696 65.1305 84.8496C65.5405 85.5196 66.2405 86.2996 67.3105 86.8096C67.6605 86.9696 68.0305 87.0796 68.4105 87.1296C70.0505 87.3596 71.8805 86.8396 72.9905 85.9796C73.5605 85.5596 73.9605 85.1096 74.2205 84.7696C74.4705 84.4196 74.6005 84.2096 74.6005 84.2096C74.6005 84.2096 74.6405 84.1296 74.7205 83.9796C74.8105 83.8296 74.9005 83.6096 75.0105 83.3196C75.2105 82.7496 75.4105 81.9196 75.3305 80.9996C75.2705 80.0896 74.9605 79.1096 74.4405 78.3396C73.9405 77.5596 73.2705 76.9796 72.7305 76.6496C71.9205 76.1296 71.2105 75.9496 70.6805 75.8596C70.1405 75.7696 69.7705 75.7796 69.4905 75.7796C67.7605 75.8796 66.5405 76.7296 65.8405 77.7096L65.8705 77.7396Z" fill="#101214"/>
</svg>
