<svg width="96" height="96" viewBox="0 0 96 96" fill="none" xmlns="http://www.w3.org/2000/svg">
<path d="M33.52 18.16H12V72.37H41.35V63.37H33.52V18.16Z" fill="#FCA700"/>
<path d="M62.88 18.16V9H33.52V18.16H41.35V63.37H55.05V18.16H62.88Z" fill="#BF63F3"/>
<path d="M41.35 18.16H33.52V63.37H41.35V18.16Z" fill="#101214"/>
<path d="M62.8798 18.16V63.37H55.0498V72.37H84.3998V18.16H62.8798Z" fill="#1868DB"/>
<path d="M62.8798 18.16H55.0498V63.37H62.8798V18.16Z" fill="#101214"/>
<path d="M25.3399 51.98C29.0499 51.98 32.0499 48.98 32.0499 45.27C32.0499 41.56 29.0499 38.56 25.3399 38.56C21.6299 38.56 18.6299 41.56 18.6299 45.27C18.6299 48.98 21.6299 51.98 25.3399 51.98Z" fill="white"/>
<path d="M70.2699 37.88L72.8799 42.66L77.6599 45.27L72.8799 47.88L70.2699 52.66L67.6599 47.88L62.8799 45.27L67.6599 42.66L70.2699 37.88Z" fill="white"/>
<path d="M48.2001 29.34L41.3501 36.19L48.2001 43.04L55.0501 36.19L48.2001 29.34Z" fill="white"/>
</svg>
