<svg width="275" height="275" viewBox="0 0 275 275" fill="none" xmlns="http://www.w3.org/2000/svg">
<path d="M69.3881 107.023C66.7981 107.023 64.2481 106.813 61.8081 106.413C46.7381 103.903 36.5981 94.1132 33.9781 79.5632C33.5481 77.1732 33.3281 74.6432 33.3281 72.0532C33.3281 69.4632 33.5481 66.8632 33.9881 64.4532C36.6181 49.9032 46.7581 40.1132 61.8081 37.6132C66.6081 36.8132 71.8981 36.7932 76.6881 37.5732C91.7581 40.0232 101.918 49.8332 104.548 64.4732C104.978 66.8932 105.208 69.4532 105.208 72.0632C105.208 74.6732 104.988 77.1732 104.568 79.5632C101.958 94.2032 91.7981 104.013 76.6981 106.463C74.3581 106.843 71.8981 107.043 69.3981 107.043L69.3881 107.023ZM69.3681 47.9132C67.4781 47.9132 65.5881 48.0632 63.8281 48.3532C53.3981 50.0932 46.6681 56.5532 44.8581 66.5532C44.5481 68.2832 44.3881 70.1232 44.3881 72.0332C44.3881 73.9432 44.5481 75.7232 44.8481 77.4432C46.6481 87.4332 53.3881 93.9032 63.8281 95.6432C67.3181 96.2232 71.2381 96.2332 74.6981 95.6732C85.1481 93.9732 91.8881 87.5032 93.6881 77.4432C93.9981 75.7332 94.1481 73.9132 94.1481 72.0332C94.1481 70.1532 93.9881 68.2932 93.6781 66.5532C91.8681 56.4932 85.1281 50.0232 74.6981 48.3232C73.0081 48.0532 71.1881 47.9132 69.3681 47.9132Z" fill="#DDDEE1"/>
<path d="M124.55 73.9331H15V183.483H124.55V73.9331Z" fill="#DDDEE1"/>
<path d="M85.4295 129.833C85.6195 128.763 85.7195 127.633 85.7195 126.433C85.7195 125.233 85.6195 124.063 85.4195 122.983C84.2695 116.553 79.7995 112.593 73.5395 111.573C72.4695 111.403 71.3495 111.313 70.1895 111.313C69.0295 111.313 67.8095 111.413 66.6995 111.593C60.4295 112.643 55.9795 116.593 54.8195 122.983C54.6195 124.063 54.5195 125.213 54.5195 126.433C54.5195 127.653 54.6195 128.763 54.8095 129.833C55.9595 136.213 60.4195 140.173 66.6995 141.223C67.8095 141.413 68.9795 141.503 70.1895 141.503C71.3995 141.503 72.4795 141.413 73.5395 141.243C79.8095 140.223 84.2795 136.253 85.4295 129.833Z" fill="white"/>
<path d="M77.16 133.733H63.25V160.033H77.16V133.733Z" fill="white"/>
<path d="M199.61 127.523C199.57 126.903 199.55 126.273 199.55 125.633C199.55 123.733 199.71 121.883 200.02 120.153C201.83 110.153 208.57 103.693 218.99 101.953C220.75 101.663 222.64 101.513 224.53 101.513C226.42 101.513 228.17 101.653 229.86 101.923C240.29 103.623 247.03 110.093 248.84 120.153C249.15 121.883 249.31 123.733 249.31 125.633C249.31 126.273 249.29 126.903 249.25 127.523H260.32C260.35 126.893 260.36 126.263 260.36 125.633C260.36 123.013 260.14 120.463 259.7 118.043C257.07 103.403 246.92 93.603 231.84 91.143C227.05 90.363 221.76 90.383 216.96 91.183C201.92 93.693 191.78 103.473 189.14 118.023C188.7 120.443 188.48 123.003 188.48 125.623C188.48 126.253 188.49 126.883 188.52 127.513H199.59L199.61 127.523Z" fill="#DDDEE1"/>
<path d="M219.23 127.523H109.68V237.073H219.23V127.523Z" fill="#DDDEE1"/>
<path d="M124.55 127.523H109.68V183.483H124.55V127.523Z" fill="#B7B9BE"/>
<path d="M181.781 183.423C181.971 182.353 182.071 181.223 182.071 180.023C182.071 178.823 181.971 177.653 181.771 176.573C180.621 170.143 176.151 166.183 169.891 165.163C168.821 164.993 167.701 164.903 166.541 164.903C165.381 164.903 164.161 165.003 163.051 165.183C156.781 166.233 152.331 170.183 151.171 176.573C150.971 177.653 150.871 178.803 150.871 180.023C150.871 181.243 150.971 182.353 151.161 183.423C152.311 189.803 156.771 193.763 163.051 194.813C164.161 195.003 165.331 195.093 166.541 195.093C167.751 195.093 168.831 195.003 169.891 194.833C176.161 193.813 180.631 189.843 181.781 183.423Z" fill="#1868DB"/>
<path d="M173.512 187.323H159.602V213.623H173.512V187.323Z" fill="#1868DB"/>
</svg>
