<svg width="275" height="275" viewBox="0 0 275 275" fill="none" xmlns="http://www.w3.org/2000/svg">
<path d="M149.499 171.824C127.249 171.824 110.299 160.304 102.979 140.174C101.699 136.704 100.709 132.924 100.029 128.954C99.3392 124.924 98.9992 120.984 99.0292 117.244C99.1992 95.6938 111.429 79.0938 132.569 71.7038C136.219 70.4238 140.099 69.4238 144.079 68.7438C147.859 68.0738 151.689 67.7238 155.439 67.6738C177.809 67.4438 194.929 79.0038 202.339 99.3838C203.639 102.974 204.639 106.794 205.319 110.754C205.949 114.384 206.289 117.984 206.319 121.474L206.339 121.494V122.324C206.199 143.994 193.969 160.624 172.769 167.934C169.289 169.144 165.559 170.094 161.709 170.754C157.709 171.444 153.729 171.804 149.879 171.824C149.759 171.824 149.629 171.824 149.509 171.824H149.499ZM156.069 71.6738C155.869 71.6738 155.679 71.6738 155.479 71.6738C151.939 71.7138 148.339 72.0538 144.759 72.6738C140.989 73.3238 137.329 74.2638 133.889 75.4738C114.149 82.3738 103.189 97.2238 103.029 117.274C102.999 120.784 103.319 124.484 103.969 128.274C104.609 132.014 105.539 135.554 106.739 138.804C113.589 157.644 128.889 167.954 149.849 167.824C153.479 167.804 157.239 167.464 161.019 166.814C164.659 166.194 168.169 165.294 171.449 164.154C190.769 157.494 201.989 142.464 202.319 122.864V122.294C202.339 118.784 202.019 115.134 201.379 111.444C200.739 107.704 199.799 104.114 198.579 100.754C191.849 82.2538 176.369 71.6838 156.069 71.6838V71.6738Z" fill="#4B4D51"/>
<path d="M211.379 172.104C211.659 170.424 211.789 168.634 211.759 166.744C211.729 164.824 211.549 163.024 211.219 161.324C209.259 151.234 202.149 145.094 192.269 143.624C190.579 143.374 188.819 143.254 186.979 143.284C185.069 143.314 183.229 143.484 181.489 143.804C171.649 145.584 164.719 151.904 163.039 161.984C162.759 163.684 162.619 165.504 162.649 167.414C162.679 169.324 162.859 171.084 163.179 172.764C165.129 182.784 172.229 188.924 182.129 190.434C183.879 190.704 185.719 190.824 187.629 190.804C189.459 190.774 191.229 190.614 192.899 190.314C202.749 188.574 209.699 182.224 211.359 172.104H211.379Z" fill="#4B4D51"/>
<path d="M201.469 185.444C201.669 174.234 195.999 170.064 187.329 170.214C179.189 170.354 173.799 174.724 173.989 185.924L174.019 187.834C176.429 189.104 179.149 189.994 182.139 190.444C183.889 190.714 185.729 190.834 187.639 190.814C189.469 190.784 191.239 190.624 192.909 190.324C196.109 189.764 198.989 188.704 201.499 187.194L201.469 185.444Z" fill="#7E8188"/>
<path d="M195.582 162.264C195.682 161.674 195.722 161.054 195.712 160.394C195.702 159.734 195.642 159.094 195.522 158.504C194.842 154.984 192.362 152.844 188.912 152.324C188.322 152.234 187.712 152.194 187.072 152.204C186.432 152.214 185.762 152.274 185.152 152.384C181.722 153.004 179.302 155.214 178.712 158.724C178.612 159.314 178.562 159.954 178.572 160.614C178.582 161.274 178.642 161.894 178.762 162.484C179.442 165.984 181.922 168.124 185.372 168.644C185.982 168.734 186.622 168.784 187.292 168.774C187.962 168.764 188.542 168.704 189.132 168.604C192.572 167.994 194.992 165.784 195.572 162.254L195.582 162.264Z" fill="#7E8188"/>
<path d="M140.66 76.824C140.94 75.144 141.07 73.354 141.04 71.464C141.01 69.544 140.83 67.744 140.5 66.044C138.54 55.954 131.43 49.814 121.55 48.344C119.86 48.094 118.1 47.974 116.26 48.004C114.42 48.034 112.51 48.204 110.77 48.524C100.93 50.304 93.9998 56.624 92.3198 66.704C92.0398 68.404 91.8998 70.224 91.9298 72.134C91.9598 74.044 92.1398 75.804 92.4598 77.484C94.4098 87.504 101.51 93.644 111.41 95.154C113.16 95.424 115 95.544 116.91 95.524C118.74 95.494 120.51 95.334 122.18 95.034C132.03 93.294 138.98 86.944 140.64 76.824H140.66Z" fill="#4B4D51"/>
<path d="M130.75 90.1641C130.95 78.9541 125.28 74.7841 116.61 74.9341C108.47 75.0741 103.08 79.4441 103.27 90.6441L103.3 92.5541C105.71 93.8241 108.43 94.7141 111.42 95.1641C113.17 95.4341 115.01 95.5541 116.92 95.5341C118.75 95.5041 120.52 95.3441 122.19 95.0441C125.39 94.4841 128.27 93.4241 130.78 91.9141L130.75 90.1641Z" fill="#7E8188"/>
<path d="M124.859 66.9839C124.959 66.3939 124.999 65.7739 124.989 65.1139C124.979 64.4539 124.919 63.8139 124.799 63.2239C124.119 59.7039 121.639 57.5639 118.189 57.0439C117.599 56.9539 116.989 56.9139 116.349 56.9239C115.709 56.9339 115.039 56.9939 114.429 57.1039C110.999 57.7239 108.579 59.9339 107.989 63.4439C107.889 64.0339 107.839 64.6739 107.849 65.3339C107.859 65.9939 107.919 66.6139 108.039 67.2039C108.719 70.7039 111.199 72.8439 114.649 73.3639C115.259 73.4539 115.899 73.5039 116.569 73.4939C117.239 73.4839 117.819 73.4239 118.409 73.3239C121.849 72.7139 124.269 70.5039 124.849 66.9739L124.859 66.9839Z" fill="#7E8188"/>
<path d="M225.671 90.284C225.951 88.604 226.081 86.814 226.051 84.924C226.021 83.034 225.841 81.204 225.511 79.504C223.551 69.414 216.441 63.274 206.561 61.804C204.871 61.554 203.111 61.434 201.271 61.464C199.361 61.494 197.521 61.664 195.781 61.984C185.941 63.764 179.011 70.084 177.331 80.164C177.051 81.864 176.911 83.684 176.941 85.594C176.971 87.484 177.151 89.264 177.471 90.944C179.421 100.964 186.521 107.104 196.421 108.614C198.171 108.884 200.011 109.004 201.921 108.984C203.751 108.954 205.521 108.794 207.191 108.494C217.041 106.754 223.991 100.404 225.651 90.284H225.671Z" fill="#7E8188"/>
<path d="M215.758 103.624C215.958 92.414 210.288 88.244 201.618 88.394C193.478 88.534 188.088 92.904 188.278 104.104L188.308 106.014C190.718 107.284 193.438 108.174 196.428 108.624C198.178 108.894 200.018 109.014 201.928 108.994C203.758 108.964 205.528 108.804 207.198 108.504C210.398 107.944 213.278 106.884 215.788 105.374L215.758 103.624Z" fill="#4B4D51"/>
<path d="M209.871 80.4438C209.971 79.8538 210.011 79.2338 210.001 78.5738C209.991 77.9138 209.931 77.2738 209.811 76.6838C209.131 73.1638 206.651 71.0238 203.201 70.5038C202.611 70.4138 202.001 70.3738 201.361 70.3838C200.721 70.3938 200.051 70.4538 199.441 70.5638C196.011 71.1838 193.591 73.3938 193.001 76.9038C192.901 77.4938 192.851 78.1338 192.861 78.7938C192.871 79.4538 192.931 80.0738 193.051 80.6638C193.731 84.1638 196.211 86.3038 199.661 86.8238C200.271 86.9138 200.911 86.9638 201.581 86.9538C202.251 86.9438 202.831 86.8838 203.421 86.7838C206.861 86.1738 209.281 83.9638 209.861 80.4338L209.871 80.4438Z" fill="#4B4D51"/>
<path d="M49 224.004C49 224.004 113.83 231.714 147.2 223.654V106.244C147.2 106.244 94.29 119.204 49 105.544C49 105.544 49.72 224.524 49 224.004Z" fill="#4B4D51"/>
<path d="M62.8984 145.154H133.308" stroke="#101214" stroke-width="7" stroke-miterlimit="10"/>
<path d="M62.8984 162.404H133.308" stroke="#101214" stroke-width="7" stroke-miterlimit="10"/>
<path d="M62.8984 179.654H133.308" stroke="#101214" stroke-width="7" stroke-miterlimit="10"/>
<path d="M62.8984 196.904H133.308" stroke="#101214" stroke-width="7" stroke-miterlimit="10"/>
<path d="M129.34 125.214C126.04 122.294 121.01 122.604 118.1 125.904L113.57 131.034L125.47 141.624L130.04 136.454C132.96 133.164 132.65 128.124 129.35 125.214H129.34Z" fill="#1558BC"/>
<path d="M108.782 136.434L87.9319 160.004V160.014L80.1719 180.804L99.8619 170.564L120.712 146.994L108.782 136.434Z" fill="#1558BC"/>
<path d="M82.9419 173.374L80.1719 180.804L87.2019 177.144L82.9419 173.374Z" fill="#1558BC"/>
</svg>
