<svg width="16" height="16" viewBox="0 0 16 16" fill="none" xmlns="http://www.w3.org/2000/svg">
<path d="M0 4C0 1.79086 1.79086 0 4 0H12C14.2091 0 16 1.79086 16 4V12C16 14.2091 14.2091 16 12 16H4C1.79086 16 0 14.2091 0 12V4Z" fill="#04AB38"/>
<path d="M6.00177 6.43136C6.00184 6.43129 6.00189 6.43118 6.00189 6.43108C6.00189 5.65801 6.00236 4.88493 6.00095 4.11186C6.00095 4.04245 6.00001 3.9993 6.09521 4.00001C7.05191 4.00564 8.00861 3.9986 8.96531 4.01009C9.50673 4.01666 10.0233 4.14539 10.4897 4.43124C11.0609 4.78087 11.3791 5.30169 11.4802 5.95663C11.5885 6.65894 11.4745 7.31763 11.0428 7.89636C10.6756 8.38904 10.164 8.64932 9.56911 8.76423C9.19909 8.83575 8.82462 8.84513 8.45038 8.84794C7.66954 8.85404 6.88847 8.84864 6.1074 8.85287C6.01478 8.85333 5.99954 8.82191 6.00001 8.73914C6.00282 7.97005 6.00165 7.20073 6.00165 6.43164C6.00165 6.43154 6.00169 6.43144 6.00177 6.43136Z" fill="#FEFEFE"/>
<path d="M6.00926 10.9239C6.00926 10.6041 6.0109 10.284 6.00785 9.96416C6.00715 9.89451 6.01582 9.86192 6.1 9.86332C6.43156 9.86895 6.76336 9.86825 7.09492 9.86332C7.17183 9.86215 7.18285 9.88912 7.18262 9.95665C7.18027 10.6083 7.17981 11.26 7.18309 11.9114C7.18356 11.9871 7.15917 12.0005 7.09047 11.9998C6.7589 11.9965 6.42711 11.9956 6.09555 12.0003C6.01864 12.0014 6.00715 11.9747 6.00785 11.9069C6.01113 11.5791 6.00926 11.2515 6.00926 10.9237V10.9239Z" fill="#FEFEFE"/>
<path d="M7.17599 6.39754C7.17599 5.96396 7.17693 5.53061 7.17482 5.09703C7.17459 5.03302 7.18045 4.99995 7.26064 5.00042C7.79574 5.00441 8.33083 4.99386 8.86569 5.00628C9.17076 5.01332 9.46809 5.08226 9.73774 5.23679C10.0918 5.43963 10.2621 5.75737 10.2979 6.15437C10.3244 6.44866 10.3115 6.7392 10.1851 7.01355C9.98348 7.45136 9.60831 7.64833 9.16232 7.744C8.96324 7.78668 8.76064 7.79653 8.55735 7.79653C8.13551 7.7963 7.71367 7.79254 7.29206 7.79934C7.18936 7.80099 7.17271 7.76745 7.17388 7.67483C7.17881 7.24922 7.17599 6.82338 7.17599 6.39777V6.39754Z" fill="#04AB38"/>
</svg>
