<svg width="20" height="20" viewBox="0 0 20 20" fill="none" xmlns="http://www.w3.org/2000/svg">
<path d="M0 5C0 2.23858 2.23858 0 5 0H15C17.7614 0 20 2.23858 20 5V15C20 17.7614 17.7614 20 15 20H5C2.23858 20 0 17.7614 0 15V5Z" fill="#04AB38"/>
<path d="M7.00221 8.0392C7.00231 8.03911 7.00236 8.03898 7.00236 8.03885C7.00236 7.07251 7.00294 6.10617 7.00119 5.13983C7.00119 5.05307 7.00001 4.99913 7.11901 5.00001C8.31489 5.00705 9.51076 4.99825 10.7066 5.01261C11.3834 5.02082 12.0291 5.18174 12.6121 5.53905C13.3261 5.97609 13.7239 6.62711 13.8502 7.44578C13.9856 8.32367 13.8432 9.14704 13.3036 9.87046C12.8446 10.4863 12.205 10.8117 11.4614 10.9553C10.9989 11.0447 10.5308 11.0564 10.063 11.0599C9.08693 11.0675 8.11059 11.0608 7.13426 11.0661C7.01848 11.0667 6.99943 11.0274 7.00001 10.9239C7.00353 9.96256 7.00207 9.00091 7.00206 8.03956C7.00206 8.03942 7.00212 8.0393 7.00221 8.0392Z" fill="#FEFEFE"/>
<path d="M7.00962 13.6549C7.00962 13.2551 7.01167 12.855 7.00786 12.4552C7.00698 12.3681 7.01782 12.3274 7.12305 12.3292C7.5375 12.3362 7.95225 12.3353 8.3667 12.3292C8.46284 12.3277 8.47661 12.3614 8.47632 12.4458C8.47339 13.2604 8.4728 14.075 8.47691 14.8892C8.47749 14.9839 8.44701 15.0006 8.36113 14.9998C7.94668 14.9956 7.53193 14.9945 7.11748 15.0003C7.02134 15.0018 7.00698 14.9684 7.00786 14.8837C7.01196 14.4739 7.00962 14.0644 7.00962 13.6546V13.6549Z" fill="#FEFEFE"/>
<path d="M8.4695 7.9979C8.4695 7.45592 8.47068 6.91424 8.46804 6.37227C8.46775 6.29225 8.47507 6.25092 8.57532 6.2515C9.24418 6.25649 9.91305 6.2433 10.5816 6.25883C10.963 6.26763 11.3346 6.3538 11.6717 6.54697C12.1143 6.80051 12.3271 7.19769 12.3719 7.69394C12.405 8.0618 12.3889 8.42497 12.2309 8.76792C11.9789 9.31517 11.5099 9.56139 10.9524 9.68098C10.7036 9.73433 10.4503 9.74664 10.1962 9.74664C9.6689 9.74635 9.1416 9.74166 8.61459 9.75016C8.48621 9.75221 8.4654 9.71029 8.46687 9.59451C8.47302 9.0625 8.4695 8.5302 8.4695 7.99819V7.9979Z" fill="#04AB38"/>
</svg>
