<svg width="24" height="24" viewBox="0 0 24 24" fill="none" xmlns="http://www.w3.org/2000/svg">
<path d="M0 6.39569C0 2.86345 2.86345 0 6.39569 0H17.6043C21.1366 0 24 2.86345 24 6.39569V17.6043C24 21.1366 21.1366 24 17.6043 24H6.39569C2.86345 24 0 21.1366 0 17.6043V6.39569Z" fill="#04AB38"/>
<path d="M9.00265 9.64704C9.00277 9.64693 9.00283 9.64678 9.00283 9.64662C9.00283 8.48701 9.00353 7.3274 9.00142 6.16779C9.00142 6.06368 9.00002 5.99896 9.14282 6.00001C10.5779 6.00845 12.0129 5.9979 13.448 6.01514C14.2601 6.02499 15.035 6.21809 15.7345 6.64687C16.5914 7.17131 17.0686 7.95253 17.2202 8.93494C17.3827 9.98841 17.2118 10.9764 16.5643 11.8445C16.0135 12.5836 15.246 12.974 14.3537 13.1463C13.7986 13.2536 13.2369 13.2677 12.6756 13.2719C11.5043 13.2811 10.3327 13.273 9.16111 13.2793C9.02217 13.28 8.99931 13.2329 9.00002 13.1087C9.00424 11.9551 9.00248 10.8011 9.00248 9.64747C9.00248 9.64731 9.00254 9.64716 9.00265 9.64704Z" fill="#FEFEFE"/>
<path d="M9.01193 16.3859C9.01193 15.9061 9.01439 15.426 9.00982 14.9462C9.00877 14.8418 9.02178 14.7929 9.14805 14.795C9.64539 14.8034 10.1431 14.8024 10.6404 14.795C10.7558 14.7932 10.7723 14.8337 10.772 14.935C10.7685 15.9125 10.7678 16.89 10.7727 17.8671C10.7734 17.9807 10.7368 18.0008 10.6337 17.9997C10.1364 17.9948 9.63871 17.9934 9.14137 18.0004C9.026 18.0022 9.00877 17.9621 9.00982 17.8604C9.01474 17.3687 9.01193 16.8773 9.01193 16.3856V16.3859Z" fill="#FEFEFE"/>
<path d="M10.765 9.59728C10.765 8.94691 10.7664 8.2969 10.7632 7.64653C10.7629 7.5505 10.7717 7.50091 10.8919 7.50161C11.6946 7.50759 12.4972 7.49176 13.2995 7.5104C13.7571 7.52096 14.2031 7.62437 14.6076 7.85616C15.1387 8.16042 15.3941 8.63703 15.4479 9.23253C15.4876 9.67396 15.4683 10.1098 15.2787 10.5213C14.9762 11.178 14.4134 11.4735 13.7445 11.617C13.4458 11.681 13.1419 11.6958 12.837 11.6958C12.2042 11.6954 11.5715 11.6898 10.9391 11.7C10.785 11.7025 10.76 11.6522 10.7618 11.5132C10.7692 10.8748 10.765 10.236 10.765 9.59764V9.59728Z" fill="#04AB38"/>
</svg>
