<svg width="32" height="32" viewBox="0 0 32 32" fill="none" xmlns="http://www.w3.org/2000/svg">
<path d="M0 8C0 3.58172 3.58172 0 8 0H24C28.4183 0 32 3.58172 32 8V24C32 28.4183 28.4183 32 24 32H8C3.58172 32 0 28.4183 0 24V8Z" fill="#04AB38"/>
<path d="M10.004 12.4706C10.0041 12.4704 10.0042 12.4702 10.0042 12.4699C10.0042 10.7305 10.0053 8.9911 10.0021 7.25169C10.0021 7.09552 10 6.99844 10.2142 7.00002C12.3668 7.01268 14.5194 6.99685 16.6719 7.02271C17.8902 7.03748 19.0524 7.32714 20.1018 7.9703C21.387 8.75697 22.103 9.92879 22.3304 11.4024C22.5741 12.9826 22.3177 14.4647 21.3464 15.7668C20.5202 16.8753 19.369 17.461 18.0305 17.7195C17.198 17.8804 16.3554 17.9015 15.5134 17.9079C13.7565 17.9216 11.9991 17.9094 10.2417 17.9189C10.0333 17.92 9.99897 17.8493 10 17.6631C10.0064 15.9326 10.0037 14.2016 10.0037 12.4712C10.0037 12.471 10.0038 12.4707 10.004 12.4706Z" fill="#FEFEFE"/>
<path d="M10.0208 22.5779C10.0208 21.8582 10.0245 21.138 10.0177 20.4184C10.0161 20.2617 10.0356 20.1883 10.225 20.1915C10.971 20.2042 11.7176 20.2026 12.4636 20.1915C12.6366 20.1889 12.6614 20.2495 12.6609 20.4015C12.6556 21.8677 12.6546 23.334 12.6619 24.7997C12.663 24.9701 12.6081 25.0002 12.4536 24.9986C11.7075 24.9912 10.961 24.9891 10.215 24.9996C10.0419 25.0023 10.0161 24.9421 10.0177 24.7896C10.025 24.052 10.0208 23.315 10.0208 22.5774V22.5779Z" fill="#FEFEFE"/>
<path d="M12.6494 12.3954C12.6494 11.4199 12.6515 10.4449 12.6468 9.4693C12.6462 9.32526 12.6594 9.25087 12.8399 9.25193C14.0438 9.2609 15.2478 9.23715 16.4512 9.26512C17.1376 9.28095 17.8066 9.43606 18.4133 9.78376C19.21 10.2401 19.593 10.9551 19.6738 11.8483C19.7334 12.5105 19.7044 13.1642 19.42 13.7815C18.9663 14.7665 18.1221 15.2097 17.1186 15.425C16.6707 15.521 16.2149 15.5432 15.7574 15.5432C14.8083 15.5426 13.8592 15.5342 12.9106 15.5495C12.6795 15.5532 12.642 15.4777 12.6447 15.2693C12.6557 14.3117 12.6494 13.3536 12.6494 12.396V12.3954Z" fill="#04AB38"/>
</svg>
