<svg width="275" height="275" viewBox="0 0 275 275" fill="none" xmlns="http://www.w3.org/2000/svg">
<path d="M61.25 213.811C61.45 212.671 61.55 211.461 61.55 210.181C61.55 208.901 61.44 207.661 61.23 206.511C59.99 199.651 55.24 195.421 48.55 194.341C47.41 194.151 46.22 194.061 44.97 194.061C43.72 194.061 42.43 194.161 41.25 194.361C34.56 195.471 29.81 199.701 28.57 206.511C28.36 207.661 28.25 208.891 28.25 210.181C28.25 211.471 28.35 212.671 28.57 213.811C29.79 220.621 34.55 224.851 41.25 225.961C42.44 226.161 43.68 226.261 44.97 226.261C46.26 226.261 47.4 226.161 48.55 225.981C55.24 224.901 60 220.661 61.23 213.811H61.24H61.25Z" fill="#505258"/>
<path d="M35.31 176.4C35.42 175.73 35.49 175.02 35.49 174.28C35.49 173.54 35.43 172.8 35.3 172.12C34.58 168.11 31.79 165.64 27.88 164.99C27.21 164.88 26.52 164.83 25.79 164.83C25.06 164.83 24.3 164.89 23.61 165.01C19.7 165.67 16.91 168.13 16.19 172.13C16.06 172.8 16 173.52 16 174.29C16 175.06 16.06 175.75 16.18 176.41C16.9 180.4 19.69 182.87 23.6 183.53C24.29 183.64 25.03 183.71 25.78 183.71C26.53 183.71 27.21 183.66 27.87 183.55C31.79 182.92 34.58 180.43 35.3 176.42H35.31V176.4Z" fill="#505258"/>
<path d="M258.449 102.05C259.009 98.93 259.299 95.63 259.299 92.12C259.299 88.61 259.009 85.21 258.439 82.07C255.069 63.31 242.029 51.74 223.749 48.77C220.629 48.27 217.369 48 213.959 48C210.549 48 207.009 48.28 203.769 48.82C185.479 51.87 172.469 63.4 169.089 82.07C168.519 85.22 168.219 88.58 168.219 92.12C168.219 95.66 168.509 98.93 169.069 102.05C172.429 120.68 185.439 132.24 203.759 135.3C206.999 135.84 210.409 136.12 213.949 136.12C217.489 136.12 220.619 135.86 223.739 135.35C242.039 132.37 255.099 120.79 258.439 102.05H258.449Z" fill="#1558BC"/>
<path d="M216.022 154.971C217.072 149.071 217.622 142.791 217.622 136.151C217.622 129.511 217.062 123.051 215.992 117.071C209.602 81.4909 184.882 59.5609 150.222 53.9209C144.312 52.9609 138.102 52.4609 131.652 52.4609C125.202 52.4609 118.462 52.9909 112.322 54.0209C77.6419 59.8109 52.9619 81.6909 46.5619 117.071C45.4819 123.051 44.9219 129.411 44.9219 136.151C44.9219 142.891 45.4719 149.071 46.5319 154.971C52.8919 190.311 77.5819 212.221 112.322 218.021C118.472 219.051 124.922 219.581 131.652 219.581C138.382 219.581 144.302 219.091 150.222 218.121C184.942 212.481 209.682 190.501 216.022 154.971Z" fill="#505258"/>
<path d="M136.379 220.619C131.449 223.079 131.859 224.119 136.969 221.829C137.879 221.439 138.769 220.989 139.659 220.519C140.549 220.049 141.459 219.579 142.369 219.099C144.179 218.109 145.979 216.979 147.869 215.829C148.779 215.199 149.709 214.559 150.659 213.909C151.129 213.579 151.609 213.249 152.099 212.909C152.559 212.549 153.029 212.179 153.509 211.799C154.459 211.049 155.429 210.279 156.419 209.479C157.369 208.629 158.339 207.759 159.339 206.859C163.739 202.639 166.149 199.669 168.139 197.029C169.089 195.679 170.059 194.489 170.939 193.109C171.389 192.429 171.839 191.719 172.329 190.969C172.809 190.219 173.369 189.449 173.859 188.539C175.629 185.549 177.589 181.959 179.259 178.059C179.679 177.079 180.099 176.099 180.519 175.109C180.919 174.109 181.259 173.079 181.629 172.069C181.979 171.049 182.389 170.049 182.689 169.029C182.989 168.009 183.289 166.989 183.579 165.999C184.219 164.019 184.609 162.039 185.049 160.189C185.509 158.349 185.829 156.599 186.109 155.009C186.659 151.839 186.949 149.319 187.099 147.919C187.189 147.089 187.259 146.249 187.319 145.419C187.509 142.429 187.979 134.349 186.979 124.239C186.729 121.719 186.379 119.069 185.919 116.359C185.479 113.639 184.769 110.889 184.169 108.079C182.699 102.519 180.769 96.9394 178.439 91.7594C175.059 84.4894 171.409 79.0594 168.219 75.0394C167.829 74.5294 167.449 74.0394 167.089 73.5594C166.699 73.1094 166.319 72.6694 165.949 72.2494C165.219 71.4094 164.529 70.6294 163.909 69.9094C162.619 68.4994 161.459 67.4094 160.559 66.4794C160.289 66.2094 160.019 65.9394 159.759 65.6694C159.479 65.4194 159.199 65.1694 158.919 64.9294C158.359 64.4394 157.819 63.9594 157.279 63.4794C156.739 63.0094 156.209 62.5394 155.679 62.0794C155.129 61.6494 154.579 61.2294 154.049 60.8094C152.959 59.9894 151.949 59.1394 150.879 58.4194C149.809 57.6994 148.769 56.9894 147.749 56.2994C146.749 55.5794 145.669 55.0294 144.659 54.4094C143.629 53.8294 142.649 53.1894 141.619 52.6794C139.549 51.6594 137.589 50.5594 135.519 49.7194C131.009 47.7694 130.659 48.6694 135.009 50.8094C137.019 51.7294 138.909 52.8994 140.899 53.9794C141.899 54.5194 142.839 55.1794 143.839 55.7794C144.819 56.4194 145.859 56.9794 146.829 57.7094C147.819 58.4094 148.829 59.1194 149.859 59.8494C150.899 60.5694 151.879 61.4294 152.929 62.2394C153.449 62.6494 153.979 63.0694 154.519 63.4994C155.029 63.9594 155.549 64.4194 156.069 64.8794C156.599 65.3494 157.129 65.8194 157.669 66.3094C157.939 66.5494 158.209 66.7894 158.489 67.0394C158.749 67.2994 159.009 67.5694 159.269 67.8294C160.079 68.6594 161.129 69.6994 162.339 71.0094C162.909 71.6894 163.539 72.4194 164.199 73.2094C164.869 73.9994 165.599 74.8294 166.279 75.7894C166.979 76.7294 167.729 77.7294 168.509 78.7894C169.249 79.8794 169.989 81.0494 170.789 82.2494C171.619 83.4394 172.309 84.7894 173.109 86.1494C173.489 86.8394 173.919 87.5294 174.289 88.2494C174.649 88.9894 175.019 89.7394 175.399 90.4994C175.869 91.4994 176.429 92.4694 176.849 93.4994C177.299 94.5194 177.739 95.5294 178.179 96.5394C178.689 97.6194 179.099 98.7594 179.519 99.9094C179.939 101.059 180.399 102.219 180.779 103.409C181.459 105.819 182.299 108.219 182.799 110.669C184.039 115.529 184.719 120.389 185.139 124.669C185.549 128.949 185.659 132.659 185.669 135.289C185.679 137.919 185.619 139.469 185.619 139.469C185.619 139.469 185.589 141.789 185.319 145.499C185.029 149.199 184.499 154.319 183.269 159.789C182.189 165.289 180.339 171.119 178.179 176.349C177.149 178.989 175.889 181.409 174.789 183.659C174.209 184.769 173.579 185.789 173.029 186.769C172.469 187.749 171.959 188.679 171.399 189.469C170.589 190.689 169.829 191.839 169.119 192.909C168.339 193.929 167.619 194.889 166.949 195.779C166.609 196.229 166.289 196.649 165.969 197.069C165.629 197.459 165.299 197.839 164.989 198.209C164.359 198.939 163.779 199.619 163.229 200.249C162.159 201.519 161.119 202.459 160.289 203.329C159.459 204.199 158.749 204.909 158.089 205.469C150.349 212.599 143.329 216.999 136.389 220.589L136.379 220.619Z" fill="#101214"/>
<path d="M128.199 51.1009C133.149 48.6909 132.749 47.6409 127.619 49.8809C127.169 50.0809 126.709 50.2809 126.249 50.4809C125.799 50.7109 125.359 50.9309 124.909 51.1609C124.009 51.6209 123.099 52.0809 122.179 52.5509C120.349 53.5009 118.549 54.6509 116.639 55.7609C115.719 56.3809 114.789 57.0109 113.829 57.6609C112.869 58.3009 111.889 58.9609 110.949 59.7309C109.989 60.4709 109.019 61.2309 108.009 62.0109C107.039 62.8409 106.069 63.7109 105.059 64.6009C103.899 65.5909 102.959 66.6009 102.069 67.5009C101.199 68.4209 100.349 69.2009 99.6794 70.0209C98.3194 71.6609 97.1094 72.9709 96.1394 74.3009C95.1594 75.6409 94.2294 76.8509 93.2894 78.1809C92.3894 79.5409 91.4394 80.9909 90.3094 82.7109C89.4494 84.2209 88.4494 85.8309 87.5094 87.5709C87.0594 88.4609 86.5994 89.3609 86.1394 90.2909C85.6694 91.2109 85.1794 92.1409 84.7894 93.1309C83.9694 95.0909 83.0294 97.0509 82.3594 99.0909C81.9894 100.101 81.6294 101.111 81.2694 102.121C80.9294 103.131 80.6594 104.151 80.3494 105.141C80.0594 106.141 79.7594 107.121 79.4794 108.081C79.2494 109.051 79.0294 110.011 78.8094 110.931C78.3694 112.781 77.9594 114.511 77.6894 116.101C77.1094 119.261 76.7894 121.781 76.6194 123.181C76.5194 124.011 76.4394 124.851 76.3794 125.681C76.1494 128.661 75.6094 136.751 76.5094 146.871C76.9494 151.921 77.7994 157.471 79.1694 163.051C80.5694 168.621 82.3794 174.251 84.6894 179.441C87.9494 186.771 91.5894 192.211 94.6994 196.281C97.7894 200.381 100.449 203.091 102.269 204.921C103.309 206.041 104.449 207.001 105.509 207.961C106.049 208.441 106.569 208.911 107.099 209.381C107.629 209.841 108.179 210.251 108.709 210.671C109.779 211.501 110.799 212.351 111.849 213.101C112.909 213.831 113.949 214.541 114.959 215.241C115.959 215.961 117.019 216.551 118.029 217.161C119.059 217.761 120.029 218.391 121.059 218.931C122.079 219.461 123.089 219.981 124.099 220.501C124.599 220.751 125.099 221.021 125.599 221.261L127.129 221.941C131.619 223.941 131.979 223.031 127.649 220.861L126.169 220.121C125.679 219.861 125.199 219.571 124.719 219.301C123.749 218.751 122.779 218.201 121.789 217.641C120.799 217.081 119.859 216.421 118.869 215.801C117.889 215.161 116.869 214.571 115.899 213.831C114.919 213.121 113.909 212.411 112.889 211.671C111.879 210.911 110.889 210.071 109.849 209.251C109.339 208.831 108.799 208.421 108.279 207.971C107.769 207.511 107.259 207.041 106.739 206.571C105.699 205.621 104.589 204.681 103.579 203.581C102.779 202.731 101.709 201.711 100.559 200.361C99.9894 199.681 99.3694 198.941 98.7094 198.151C98.3794 197.751 98.0394 197.341 97.6794 196.921C97.3494 196.471 97.0194 196.011 96.6694 195.541C93.7894 191.821 90.6694 186.861 87.7194 180.711L86.9794 179.221C86.7394 178.721 86.5394 178.201 86.3194 177.691C85.8794 176.671 85.4394 175.661 84.9994 174.651C81.3394 165.851 79.0194 155.001 78.3594 146.431C77.9894 142.141 77.9294 138.431 77.9394 135.801C77.9594 133.171 78.0294 131.621 78.0294 131.621C78.0294 131.621 78.0794 129.301 78.3994 125.591C78.7294 121.891 79.2994 116.781 80.5994 111.331C82.7894 100.301 88.3894 88.2009 92.8294 81.7909C95.9994 76.8409 98.9394 73.6009 101.109 71.1009C102.229 69.8809 103.249 68.9209 104.089 68.0509C104.519 67.6309 104.889 67.2209 105.269 66.8809C105.649 66.5409 105.999 66.2309 106.329 65.9409C107.309 65.0709 108.269 64.2209 109.199 63.3909C110.179 62.6209 111.129 61.8709 112.059 61.1309C112.969 60.3709 113.919 59.7109 114.849 59.0709C115.779 58.4209 116.679 57.7809 117.569 57.1609C119.429 56.0409 121.159 54.8709 122.929 53.8709C123.819 53.3809 124.699 52.8909 125.569 52.4109C125.999 52.1709 126.439 51.9309 126.869 51.6909C127.309 51.4709 127.749 51.2609 128.189 51.0409L128.199 51.1009Z" fill="#101214"/>
<path d="M131.861 51.3991C131.741 46.9191 130.631 46.9191 130.511 51.3991C130.341 57.7491 130.261 64.4291 130.251 73.0091C130.301 82.7291 130.531 85.1491 130.511 91.7391C130.511 102.869 130.201 121.649 130.121 126.179C130.111 126.849 130.111 127.519 130.121 128.189C130.161 132.979 130.331 154.009 130.251 172.119C130.251 184.909 130.251 192.829 130.251 196.959C130.251 206.719 130.371 214.019 130.581 221.179C130.701 225.109 131.671 225.109 131.781 221.179C131.991 214.019 132.111 206.719 132.111 196.959C132.111 193.169 132.381 185.259 132.421 174.099C132.421 172.279 132.411 170.459 132.371 168.659C132.011 153.099 132.111 132.899 132.111 132.899C132.111 132.899 132.111 102.759 132.111 90.0291C132.111 80.4491 132.111 75.8391 132.111 73.0091C132.111 64.4291 132.011 57.7591 131.851 51.3991H131.861Z" fill="#101214"/>
<path d="M215.962 136.669C220.442 136.549 220.442 135.439 215.962 135.319C209.612 135.149 202.932 135.069 194.352 135.059C184.632 135.109 182.212 135.339 175.622 135.319C164.492 135.319 145.712 135.009 141.182 134.929C140.512 134.919 139.842 134.919 139.172 134.929C134.372 134.969 113.352 135.139 95.2419 135.059C82.4519 135.059 74.5419 135.059 70.4019 135.059C60.6419 135.059 53.3419 135.179 46.1819 135.389C42.2519 135.509 42.2519 136.479 46.1819 136.589C53.3419 136.799 60.6419 136.919 70.4019 136.919C74.1919 136.919 82.1019 137.189 93.2619 137.229C95.0819 137.229 96.9019 137.219 98.7019 137.179C114.262 136.819 134.462 136.919 134.462 136.919C134.462 136.919 164.602 136.919 177.332 136.919C186.912 136.919 191.522 136.919 194.362 136.919C202.942 136.919 209.612 136.819 215.972 136.659L215.962 136.669Z" fill="#101214"/>
<path d="M210.789 94.6108C214.949 94.4908 214.949 93.3808 210.789 93.2608C204.899 93.0908 198.699 93.0108 190.739 93.0008C181.719 93.0508 179.469 93.2808 173.359 93.2608C163.029 93.2608 145.609 92.9508 141.409 92.8708C140.789 92.8608 140.169 92.8608 139.539 92.8708C135.089 92.9108 115.579 93.0808 98.7787 93.0008C86.9087 93.0008 79.5687 93.0008 75.7387 93.0008C66.6787 93.0008 59.9088 93.1208 53.2688 93.3308C49.6188 93.4508 49.6188 94.4208 53.2688 94.5308C59.9088 94.7408 66.6787 94.8608 75.7387 94.8608C79.2587 94.8608 86.5888 95.1308 96.9488 95.1708C98.6388 95.1708 100.319 95.1608 101.999 95.1208C116.439 94.7608 135.179 94.8608 135.179 94.8608C135.179 94.8608 163.149 94.8608 174.949 94.8608C183.839 94.8608 188.119 94.8608 190.749 94.8608C198.709 94.8608 204.899 94.7608 210.799 94.6008L210.789 94.6108Z" fill="#101214"/>
<path d="M210.789 182.33C214.949 182.21 214.949 181.1 210.789 180.98C204.899 180.81 198.699 180.73 190.739 180.72C181.719 180.77 179.469 181 173.359 180.98C163.029 180.98 145.609 180.67 141.409 180.59C140.789 180.58 140.169 180.58 139.539 180.59C135.089 180.63 115.579 180.8 98.7787 180.72C86.9087 180.72 79.5687 180.72 75.7387 180.72C66.6787 180.72 59.9088 180.84 53.2688 181.05C49.6188 181.17 49.6188 182.14 53.2688 182.25C59.9088 182.46 66.6787 182.58 75.7387 182.58C79.2587 182.58 86.5888 182.85 96.9488 182.89C98.6388 182.89 100.319 182.88 101.999 182.84C116.439 182.48 135.179 182.58 135.179 182.58C135.179 182.58 163.149 182.58 174.949 182.58C183.839 182.58 188.119 182.58 190.749 182.58C198.709 182.58 204.899 182.48 210.799 182.32L210.789 182.33Z" fill="#101214"/>
<path d="M215.851 116.96C211.321 91.7804 197.621 73.4504 177.701 62.9004C173.441 68.0504 170.461 74.4604 169.081 82.0604C168.511 85.2104 168.211 88.5704 168.211 92.1104C168.211 95.6504 168.501 98.9204 169.071 102.04C172.411 120.69 185.441 132.24 203.761 135.29C207.001 135.83 210.411 136.11 213.951 136.11C215.141 136.11 216.311 136.08 217.471 136.01C217.471 129.27 216.911 122.92 215.841 116.95L215.851 116.96Z" fill="#09326C"/>
<path d="M187.66 92.1094H241.4" stroke="white" stroke-width="8.83" stroke-miterlimit="10"/>
<path d="M214.531 65.2402V118.98" stroke="white" stroke-width="8.83" stroke-miterlimit="10"/>
</svg>
