<svg width="275" height="275" viewBox="0 0 275 275" fill="none" xmlns="http://www.w3.org/2000/svg">
<path d="M61.25 213.811C61.45 212.671 61.55 211.461 61.55 210.181C61.55 208.901 61.44 207.661 61.23 206.511C59.99 199.651 55.24 195.421 48.55 194.341C47.41 194.151 46.22 194.061 44.97 194.061C43.72 194.061 42.43 194.161 41.25 194.361C34.56 195.471 29.81 199.701 28.57 206.511C28.36 207.661 28.25 208.891 28.25 210.181C28.25 211.471 28.35 212.671 28.57 213.811C29.79 220.621 34.55 224.851 41.25 225.961C42.44 226.161 43.68 226.261 44.97 226.261C46.26 226.261 47.4 226.161 48.55 225.981C55.24 224.901 60 220.661 61.23 213.811H61.24H61.25Z" fill="#DDDEE1"/>
<path d="M35.31 176.41C35.42 175.74 35.49 175.03 35.49 174.29C35.49 173.55 35.43 172.81 35.3 172.13C34.58 168.12 31.79 165.65 27.88 165C27.21 164.89 26.52 164.84 25.79 164.84C25.06 164.84 24.3 164.9 23.61 165.02C19.7 165.68 16.91 168.14 16.19 172.14C16.06 172.81 16 173.53 16 174.3C16 175.07 16.06 175.76 16.18 176.42C16.9 180.41 19.69 182.88 23.6 183.54C24.29 183.65 25.03 183.72 25.78 183.72C26.53 183.72 27.21 183.67 27.87 183.56C31.79 182.93 34.58 180.44 35.3 176.43H35.31V176.41Z" fill="#DDDEE1"/>
<path d="M258.449 102.05C259.009 98.93 259.299 95.63 259.299 92.12C259.299 88.61 259.009 85.21 258.439 82.07C255.069 63.31 242.029 51.74 223.749 48.77C220.629 48.27 217.369 48 213.959 48C210.549 48 207.009 48.28 203.769 48.82C185.479 51.87 172.469 63.4 169.089 82.07C168.519 85.22 168.219 88.58 168.219 92.12C168.219 95.66 168.509 98.93 169.069 102.05C172.429 120.68 185.439 132.24 203.759 135.3C206.999 135.84 210.409 136.12 213.949 136.12C217.489 136.12 220.619 135.86 223.739 135.35C242.039 132.37 255.099 120.79 258.439 102.05H258.449Z" fill="#1868DB"/>
<path d="M216.022 154.971C217.072 149.071 217.622 142.791 217.622 136.151C217.622 129.511 217.062 123.051 215.992 117.071C209.602 81.4909 184.882 59.5609 150.222 53.9209C144.312 52.9609 138.102 52.4609 131.652 52.4609C125.202 52.4609 118.462 52.9909 112.322 54.0209C77.6419 59.8109 52.9619 81.6909 46.5619 117.071C45.4819 123.051 44.9219 129.411 44.9219 136.151C44.9219 142.891 45.4719 149.071 46.5319 154.971C52.8919 190.311 77.5819 212.221 112.322 218.021C118.472 219.051 124.922 219.581 131.652 219.581C138.382 219.581 144.302 219.091 150.222 218.121C184.942 212.481 209.682 190.501 216.022 154.971Z" fill="#DDDEE1"/>
<path d="M136.379 220.631C131.449 223.091 131.859 224.131 136.969 221.841C137.879 221.451 138.769 221.001 139.659 220.531C140.549 220.061 141.459 219.591 142.369 219.111C144.179 218.121 145.979 216.991 147.869 215.841C148.779 215.211 149.709 214.571 150.659 213.921C151.129 213.591 151.609 213.261 152.099 212.921C152.559 212.561 153.029 212.191 153.509 211.811C154.459 211.061 155.429 210.291 156.419 209.491C157.369 208.641 158.339 207.771 159.339 206.871C163.739 202.651 166.149 199.681 168.139 197.041C169.089 195.691 170.059 194.501 170.939 193.121C171.389 192.441 171.839 191.731 172.329 190.981C172.809 190.231 173.369 189.461 173.859 188.551C175.629 185.561 177.589 181.971 179.259 178.071C179.679 177.091 180.099 176.111 180.519 175.121C180.919 174.121 181.259 173.091 181.629 172.081C181.979 171.061 182.389 170.061 182.689 169.041C182.989 168.021 183.289 167.001 183.579 166.011C184.219 164.031 184.609 162.051 185.049 160.201C185.509 158.361 185.829 156.611 186.109 155.021C186.659 151.851 186.949 149.341 187.099 147.931C187.189 147.101 187.259 146.261 187.319 145.421C187.509 142.431 187.979 134.351 186.979 124.241C186.729 121.721 186.379 119.071 185.919 116.361C185.479 113.641 184.769 110.891 184.169 108.081C182.699 102.521 180.769 96.9409 178.439 91.7609C175.059 84.4909 171.409 79.0609 168.219 75.0409C167.829 74.5309 167.449 74.0409 167.089 73.5609C166.699 73.1109 166.319 72.6709 165.949 72.2509C165.219 71.4109 164.529 70.6309 163.909 69.9109C162.619 68.5009 161.459 67.4109 160.559 66.4809C160.289 66.2109 160.019 65.9409 159.759 65.6709C159.479 65.4209 159.199 65.1709 158.919 64.9309C158.359 64.4409 157.819 63.9609 157.279 63.4809C156.739 63.0109 156.209 62.5409 155.679 62.0809C155.129 61.6509 154.579 61.2309 154.049 60.8109C152.959 59.9909 151.949 59.1409 150.879 58.4209C149.809 57.7009 148.769 56.9909 147.749 56.3009C146.749 55.5809 145.669 55.0309 144.659 54.4109C143.629 53.8309 142.649 53.1909 141.619 52.6809C139.549 51.6609 137.589 50.5609 135.519 49.7209C131.009 47.7709 130.659 48.6709 135.009 50.8109C137.019 51.7309 138.909 52.9009 140.899 53.9809C141.899 54.5209 142.839 55.1809 143.839 55.7809C144.819 56.4209 145.859 56.9809 146.829 57.7109C147.819 58.4109 148.829 59.1209 149.859 59.8509C150.899 60.5709 151.879 61.4309 152.929 62.2409C153.449 62.6509 153.979 63.0709 154.519 63.5009C155.029 63.9609 155.549 64.4209 156.069 64.8909C156.599 65.3609 157.129 65.8309 157.669 66.3209C157.939 66.5609 158.209 66.8009 158.489 67.0509C158.749 67.3109 159.009 67.5809 159.269 67.8409C160.079 68.6709 161.129 69.7109 162.339 71.0209C162.909 71.7009 163.539 72.4309 164.199 73.2209C164.869 74.0109 165.599 74.8409 166.279 75.8009C166.979 76.7409 167.729 77.7409 168.509 78.8009C169.249 79.8809 169.989 81.0609 170.789 82.2609C171.619 83.4509 172.309 84.8009 173.109 86.1609C173.489 86.8509 173.919 87.5409 174.289 88.2609C174.649 89.0009 175.019 89.7509 175.399 90.5109C175.869 91.5109 176.429 92.4809 176.849 93.5109C177.299 94.5309 177.739 95.5409 178.179 96.5509C178.689 97.6309 179.099 98.7709 179.519 99.9209C179.939 101.081 180.399 102.231 180.779 103.421C181.459 105.831 182.299 108.231 182.799 110.681C184.039 115.541 184.719 120.401 185.139 124.681C185.549 128.961 185.659 132.671 185.669 135.301C185.679 137.931 185.619 139.481 185.619 139.481C185.619 139.481 185.589 141.801 185.319 145.511C185.029 149.211 184.499 154.331 183.269 159.801C182.189 165.301 180.339 171.131 178.179 176.361C177.149 179.001 175.889 181.421 174.789 183.671C174.209 184.781 173.579 185.801 173.029 186.781C172.469 187.761 171.959 188.691 171.399 189.481C170.589 190.701 169.829 191.851 169.119 192.921C168.339 193.941 167.619 194.901 166.949 195.791C166.609 196.241 166.289 196.661 165.969 197.081C165.629 197.471 165.299 197.851 164.989 198.221C164.359 198.951 163.779 199.631 163.229 200.261C162.159 201.531 161.119 202.471 160.289 203.341C159.459 204.211 158.749 204.921 158.089 205.481C150.349 212.611 143.329 217.011 136.389 220.601L136.379 220.631Z" fill="white"/>
<path d="M128.203 51.1106C133.153 48.7006 132.753 47.6506 127.623 49.8906C127.173 50.0906 126.713 50.2906 126.253 50.4906C125.803 50.7206 125.363 50.9406 124.913 51.1706C124.013 51.6306 123.103 52.0906 122.183 52.5606C120.353 53.5106 118.553 54.6606 116.643 55.7706C115.723 56.3906 114.793 57.0206 113.833 57.6706C112.873 58.3106 111.893 58.9706 110.953 59.7406C109.993 60.4806 109.023 61.2406 108.013 62.0206C107.043 62.8506 106.073 63.7206 105.063 64.6106C103.903 65.6006 102.963 66.6106 102.073 67.5106C101.203 68.4306 100.353 69.2106 99.6833 70.0306C98.3233 71.6706 97.1133 72.9806 96.1433 74.3106C95.1633 75.6506 94.2333 76.8606 93.2933 78.1906C92.3933 79.5506 91.4433 81.0006 90.3133 82.7206C89.4533 84.2306 88.4533 85.8406 87.5133 87.5806C87.0633 88.4706 86.6033 89.3706 86.1433 90.3006C85.6733 91.2206 85.1833 92.1506 84.7933 93.1406C83.9733 95.1006 83.0333 97.0606 82.3633 99.1006C81.9933 100.111 81.6333 101.121 81.2733 102.131C80.9333 103.141 80.6633 104.161 80.3533 105.151C80.0633 106.151 79.7633 107.131 79.4833 108.091C79.2533 109.061 79.0333 110.021 78.8133 110.941C78.3733 112.791 77.9633 114.521 77.6933 116.111C77.1133 119.271 76.7933 121.791 76.6233 123.191C76.5233 124.021 76.4433 124.861 76.3833 125.691C76.1533 128.671 75.6133 136.761 76.5133 146.881C76.9533 151.931 77.8033 157.481 79.1733 163.061C80.5733 168.631 82.3833 174.261 84.6933 179.451C87.9533 186.781 91.5933 192.221 94.7033 196.291C97.7933 200.391 100.453 203.101 102.273 204.931C103.313 206.051 104.453 207.011 105.513 207.971C106.053 208.451 106.573 208.921 107.103 209.391C107.633 209.851 108.183 210.261 108.713 210.681C109.783 211.511 110.803 212.361 111.853 213.111C112.913 213.841 113.953 214.551 114.963 215.251C115.963 215.971 117.023 216.561 118.033 217.171C119.063 217.771 120.033 218.401 121.063 218.941C122.083 219.471 123.093 219.991 124.103 220.511C124.603 220.761 125.103 221.041 125.603 221.271L127.133 221.951C131.623 223.951 131.983 223.041 127.653 220.871L126.173 220.131C125.683 219.871 125.203 219.581 124.723 219.311C123.753 218.761 122.783 218.211 121.793 217.651C120.803 217.091 119.863 216.431 118.873 215.811C117.893 215.171 116.873 214.581 115.903 213.841C114.923 213.131 113.913 212.421 112.893 211.681C111.883 210.921 110.893 210.081 109.853 209.261C109.343 208.841 108.803 208.431 108.283 207.981C107.773 207.521 107.263 207.051 106.743 206.581C105.703 205.631 104.593 204.691 103.583 203.591C102.783 202.741 101.713 201.721 100.563 200.371C99.9933 199.691 99.3733 198.951 98.7133 198.161C98.3833 197.761 98.0433 197.351 97.6833 196.931C97.3533 196.481 97.0233 196.021 96.6733 195.551C93.7933 191.831 90.6733 186.871 87.7233 180.721L86.9833 179.231C86.7433 178.731 86.5433 178.211 86.3233 177.701C85.8833 176.681 85.4433 175.671 85.0033 174.661C81.3433 165.861 79.0233 155.011 78.3633 146.441C77.9933 142.151 77.9333 138.441 77.9433 135.821C77.9633 133.191 78.0333 131.641 78.0333 131.641C78.0333 131.641 78.0833 129.321 78.4033 125.611C78.7333 121.911 79.3033 116.801 80.6033 111.351C82.7933 100.321 88.3933 88.2206 92.8333 81.8106C96.0033 76.8606 98.9433 73.6206 101.113 71.1206C102.233 69.9006 103.253 68.9406 104.093 68.0806C104.523 67.6606 104.893 67.2506 105.273 66.9106C105.653 66.5706 106.003 66.2606 106.333 65.9706C107.313 65.1006 108.273 64.2506 109.203 63.4206C110.183 62.6506 111.133 61.9006 112.063 61.1606C112.973 60.4006 113.923 59.7406 114.853 59.1006C115.783 58.4506 116.683 57.8106 117.573 57.1906C119.433 56.0706 121.163 54.9006 122.933 53.9006C123.823 53.4106 124.703 52.9206 125.573 52.4406C126.003 52.2006 126.443 51.9606 126.873 51.7206C127.313 51.5006 127.753 51.2906 128.193 51.0706L128.203 51.1106Z" fill="white"/>
<path d="M131.861 51.4108C131.741 46.9308 130.631 46.9308 130.511 51.4108C130.341 57.7608 130.261 64.4408 130.251 73.0208C130.301 82.7408 130.531 85.1608 130.511 91.7508C130.511 102.881 130.201 121.661 130.121 126.191C130.111 126.861 130.111 127.531 130.121 128.201C130.161 132.991 130.331 154.021 130.251 172.131C130.251 184.921 130.251 192.831 130.251 196.971C130.251 206.731 130.371 214.031 130.581 221.191C130.701 225.121 131.671 225.131 131.781 221.191C131.991 214.031 132.111 206.731 132.111 196.971C132.111 193.181 132.381 185.271 132.421 174.111C132.421 172.291 132.411 170.471 132.371 168.671C132.011 153.111 132.111 132.911 132.111 132.911C132.111 132.911 132.111 102.771 132.111 90.0408C132.111 80.4608 132.111 75.8508 132.111 73.0208C132.111 64.4408 132.011 57.7708 131.851 51.4108H131.861Z" fill="white"/>
<path d="M215.962 136.681C220.442 136.561 220.442 135.451 215.962 135.331C209.612 135.161 202.932 135.081 194.352 135.071C184.632 135.121 182.212 135.351 175.622 135.331C164.492 135.331 145.712 135.021 141.182 134.941C140.512 134.931 139.842 134.931 139.172 134.941C134.372 134.981 113.352 135.151 95.2419 135.071C82.4519 135.071 74.5419 135.071 70.4019 135.071C60.6419 135.071 53.3419 135.191 46.1819 135.401C42.2519 135.521 42.2519 136.491 46.1819 136.601C53.3419 136.811 60.6419 136.931 70.4019 136.931C74.1919 136.931 82.1019 137.201 93.2619 137.241C95.0819 137.241 96.9019 137.231 98.7019 137.191C114.262 136.831 134.462 136.931 134.462 136.931C134.462 136.931 164.602 136.931 177.332 136.931C186.912 136.931 191.522 136.931 194.362 136.931C202.942 136.931 209.612 136.831 215.972 136.671L215.962 136.681Z" fill="white"/>
<path d="M210.793 94.6108C214.953 94.4908 214.953 93.3808 210.793 93.2608C204.903 93.0908 198.703 93.0108 190.743 93.0008C181.723 93.0508 179.473 93.2808 173.363 93.2608C163.033 93.2608 145.613 92.9508 141.413 92.8708C140.793 92.8608 140.173 92.8608 139.543 92.8708C135.093 92.9108 115.583 93.0808 98.7827 93.0008C86.9127 93.0008 79.5727 93.0008 75.7427 93.0008C66.6827 93.0008 59.9127 93.1208 53.2727 93.3308C49.6227 93.4508 49.6227 94.4208 53.2727 94.5308C59.9127 94.7408 66.6827 94.8608 75.7427 94.8608C79.2627 94.8608 86.5927 95.1308 96.9527 95.1708C98.6427 95.1708 100.323 95.1608 102.003 95.1208C116.443 94.7608 135.183 94.8608 135.183 94.8608C135.183 94.8608 163.153 94.8608 174.953 94.8608C183.843 94.8608 188.123 94.8608 190.753 94.8608C198.713 94.8608 204.903 94.7608 210.803 94.6008L210.793 94.6108Z" fill="white"/>
<path d="M210.793 182.341C214.953 182.221 214.953 181.111 210.793 180.991C204.903 180.821 198.703 180.741 190.743 180.731C181.723 180.781 179.473 181.011 173.363 180.991C163.033 180.991 145.613 180.681 141.413 180.601C140.793 180.591 140.173 180.591 139.543 180.601C135.093 180.641 115.583 180.811 98.7827 180.731C86.9127 180.731 79.5727 180.731 75.7427 180.731C66.6827 180.731 59.9127 180.851 53.2727 181.061C49.6227 181.181 49.6227 182.151 53.2727 182.261C59.9127 182.471 66.6827 182.591 75.7427 182.591C79.2627 182.591 86.5927 182.861 96.9527 182.901C98.6427 182.901 100.323 182.891 102.003 182.851C116.443 182.491 135.183 182.591 135.183 182.591C135.183 182.591 163.153 182.591 174.953 182.591C183.843 182.591 188.123 182.591 190.753 182.591C198.713 182.591 204.903 182.491 210.803 182.331L210.793 182.341Z" fill="white"/>
<path d="M215.851 116.97C211.321 91.7902 197.621 73.4602 177.701 62.9102C173.441 68.0602 170.461 74.4702 169.081 82.0702C168.511 85.2202 168.211 88.5802 168.211 92.1202C168.211 95.6602 168.501 98.9302 169.071 102.05C172.411 120.7 185.441 132.25 203.761 135.3C207.001 135.84 210.411 136.12 213.951 136.12C215.141 136.12 216.311 136.09 217.471 136.02C217.471 129.28 216.911 122.93 215.841 116.96L215.851 116.97Z" fill="#09326C"/>
<path d="M187.66 92.1113H241.4" stroke="white" stroke-width="8.83" stroke-miterlimit="10"/>
<path d="M214.531 65.2402V118.98" stroke="white" stroke-width="8.83" stroke-miterlimit="10"/>
</svg>
