<svg width="275" height="275" viewBox="0 0 275 275" fill="none" xmlns="http://www.w3.org/2000/svg">
<path d="M56 212.64L56.09 212.82H218.92L219.02 212.64L137.51 62L56 212.64Z" fill="#DDDEE1"/>
<path fill-rule="evenodd" clip-rule="evenodd" d="M134.125 170.96V115.95H141.455V170.96H134.125Z" fill="white"/>
<path fill-rule="evenodd" clip-rule="evenodd" d="M136.441 180.049C136.974 179.953 137.483 179.925 137.919 179.925C138.38 179.925 138.837 179.957 139.296 180.027L139.313 180.03L139.33 180.033C142.237 180.508 144.656 182.531 145.243 185.763C145.346 186.311 145.374 186.837 145.374 187.27C145.374 187.606 145.357 187.984 145.304 188.385V188.446L145.246 188.767C144.667 191.991 142.254 194.039 139.33 194.517L139.313 194.52L139.296 194.522C138.837 194.593 138.38 194.625 137.919 194.625C137.479 194.625 136.966 194.596 136.429 194.499C133.56 194.001 131.152 191.997 130.565 188.779C130.463 188.24 130.434 187.736 130.434 187.28C130.434 186.829 130.463 186.309 130.567 185.759C131.161 182.59 133.518 180.54 136.441 180.049ZM137.764 187.261C137.764 187.267 137.764 187.273 137.764 187.28C137.764 187.283 137.764 187.286 137.764 187.289C137.767 187.289 137.771 187.29 137.774 187.29C137.809 187.293 137.857 187.295 137.919 187.295C137.966 187.295 138.007 187.294 138.044 187.291C138.044 187.285 138.044 187.277 138.044 187.27C138.044 187.266 138.044 187.262 138.044 187.258C138.007 187.256 137.966 187.255 137.919 187.255C137.857 187.255 137.809 187.257 137.774 187.26C137.771 187.26 137.767 187.26 137.764 187.261Z" fill="white"/>
</svg>
