<svg width="16" height="16" viewBox="0 0 16 16" fill="none" xmlns="http://www.w3.org/2000/svg">
<path d="M0 4C0 1.79086 1.79086 0 4 0H12C14.2091 0 16 1.79086 16 4V12C16 14.2091 14.2091 16 12 16H4C1.79086 16 0 14.2091 0 12V4Z" fill="#FFDD33"/>
<path fill-rule="evenodd" clip-rule="evenodd" d="M9.85366 4H8.68292L9.65852 5.71414L7.51218 4H6.34148L7.41465 6.09511L5.17073 4H4L5.17073 6.66684L4 12H5.17073L7.41465 6.28586L6.34148 12H7.51218L9.65852 5.90489L8.68292 12H9.85366L12 5.33317L9.85366 4Z" fill="black"/>
</svg>
