<svg width="20" height="20" viewBox="0 0 20 20" fill="none" xmlns="http://www.w3.org/2000/svg">
<path d="M0 5C0 2.23858 2.23858 0 5 0H15C17.7614 0 20 2.23858 20 5V15C20 17.7614 17.7614 20 15 20H5C2.23858 20 0 17.7614 0 15V5Z" fill="#FFDD33"/>
<path fill-rule="evenodd" clip-rule="evenodd" d="M11.8537 6H10.6829L11.6585 7.71414L9.51218 6H8.34148L9.41465 8.09511L7.17073 6H6L7.17073 8.66684L6 14H7.17073L9.41465 8.28586L8.34148 14H9.51218L11.6585 7.90489L10.6829 14H11.8537L14 7.33317L11.8537 6Z" fill="black"/>
</svg>
