<svg width="24" height="24" viewBox="0 0 24 24" fill="none" xmlns="http://www.w3.org/2000/svg">
<path d="M0 6.39569C0 2.86345 2.86345 0 6.39569 0H17.6043C21.1366 0 24 2.86345 24 6.39569V17.6043C24 21.1366 21.1366 24 17.6043 24H6.39569C2.86345 24 0 21.1366 0 17.6043V6.39569Z" fill="#FFDD33"/>
<path fill-rule="evenodd" clip-rule="evenodd" d="M15.0405 6.46191H13.3246L14.7545 8.97429L11.6087 6.46191H9.89279L11.4657 9.53268L8.17685 6.46191H6.46094L8.17685 10.3706L6.46094 18.1873H8.17685L11.4657 9.81225L9.89279 18.1873H11.6087L14.7545 9.25386L13.3246 18.1873H15.0405L18.1864 8.41591L15.0405 6.46191Z" fill="black"/>
</svg>
