<svg width="32" height="32" viewBox="0 0 32 32" fill="none" xmlns="http://www.w3.org/2000/svg">
<path d="M0 8C0 3.58172 3.58172 0 8 0H24C28.4183 0 32 3.58172 32 8V24C32 28.4183 28.4183 32 24 32H8C3.58172 32 0 28.4183 0 24V8Z" fill="#FFDD33"/>
<path fill-rule="evenodd" clip-rule="evenodd" d="M20.7073 9H18.3658L20.317 12.4283L16.0244 9H13.683L15.8293 13.1902L11.3415 9H9L11.3415 14.3337L9 25H11.3415L15.8293 13.5717L13.683 25H16.0244L20.317 12.8098L18.3658 25H20.7073L25 11.6663L20.7073 9Z" fill="black"/>
</svg>
