<svg width="16" height="16" viewBox="0 0 16 16" fill="none" xmlns="http://www.w3.org/2000/svg">
<path d="M0 4C0 1.79086 1.79086 0 4 0H12C14.2091 0 16 1.79086 16 4V12C16 14.2091 14.2091 16 12 16H4C1.79086 16 0 14.2091 0 12V4Z" fill="#0061FF"/>
<path d="M8.00647 5.66916L5.50324 7.26605L8.00647 8.86294L5.50324 10.4598L3 8.85431L5.50324 7.25742L3 5.66916L5.50324 4.07227L8.00647 5.66916ZM5.49029 10.9734L7.99353 9.37654L10.4968 10.9734L7.99353 12.5703L5.49029 10.9734ZM8.00647 8.85431L10.5097 7.25742L8.00647 5.66916L10.4968 4.07227L13 5.66916L10.4968 7.26605L13 8.86294L10.4968 10.4598L8.00647 8.85431Z" fill="white"/>
</svg>
