<svg width="20" height="20" viewBox="0 0 20 20" fill="none" xmlns="http://www.w3.org/2000/svg">
<path d="M0 5C0 2.23858 2.23858 0 5 0H15C17.7614 0 20 2.23858 20 5V15C20 17.7614 17.7614 20 15 20H5C2.23858 20 0 17.7614 0 15V5Z" fill="#0061FF"/>
<path d="M9.89132 6.87913L6.94566 8.75825L9.89132 10.6374L6.94566 12.5165L4 10.6272L6.94566 8.7481L4 6.87913L6.94566 5L9.89132 6.87913ZM6.93042 13.1209L9.87608 11.2417L12.8217 13.1209L9.87608 15L6.93042 13.1209ZM9.89132 10.6272L12.837 8.7481L9.89132 6.87913L12.8217 5L15.7674 6.87913L12.8217 8.75825L15.7674 10.6374L12.8217 12.5165L9.89132 10.6272Z" fill="white"/>
</svg>
