<svg width="24" height="24" viewBox="0 0 24 24" fill="none" xmlns="http://www.w3.org/2000/svg">
<path d="M0 6.39569C0 2.86345 2.86345 0 6.39569 0H17.6043C21.1366 0 24 2.86345 24 6.39569V17.6043C24 21.1366 21.1366 24 17.6043 24H6.39569C2.86345 24 0 21.1366 0 17.6043V6.39569Z" fill="#0061FF"/>
<path d="M11.8014 7.77859L8.06573 10.1617L11.8014 12.5448L8.06573 14.9279L4.33008 12.5319L8.06573 10.1488L4.33008 7.77859L8.06573 5.39551L11.8014 7.77859ZM8.0464 15.6943L11.7821 13.3112L15.5177 15.6943L11.7821 18.0774L8.0464 15.6943ZM11.8014 12.5319L15.537 10.1488L11.8014 7.77859L15.5177 5.39551L19.2533 7.77859L15.5177 10.1617L19.2533 12.5448L15.5177 14.9279L11.8014 12.5319Z" fill="white"/>
</svg>
