<svg width="32" height="32" viewBox="0 0 32 32" fill="none" xmlns="http://www.w3.org/2000/svg">
<path d="M0 8C0 3.58172 3.58172 0 8 0H24C28.4183 0 32 3.58172 32 8V24C32 28.4183 28.4183 32 24 32H8C3.58172 32 0 28.4183 0 24V8Z" fill="#0061FF"/>
<path d="M16.0117 10.9037L11.5058 13.7781L16.0117 16.6525L11.5058 19.5269L7 16.637L11.5058 13.7626L7 10.9037L11.5058 8.0293L16.0117 10.9037ZM11.4825 20.4514L15.9883 17.577L20.4942 20.4514L15.9883 23.3258L11.4825 20.4514ZM16.0117 16.637L20.5175 13.7626L16.0117 10.9037L20.4942 8.0293L25 10.9037L20.4942 13.7781L25 16.6525L20.4942 19.5269L16.0117 16.637Z" fill="white"/>
</svg>
