<svg width="16" height="16" viewBox="0 0 16 16" fill="none" xmlns="http://www.w3.org/2000/svg">
<path d="M0 4C0 1.79086 1.79086 0 4 0H12C14.2091 0 16 1.79086 16 4V12C16 14.2091 14.2091 16 12 16H4C1.79086 16 0 14.2091 0 12V4Z" fill="#0071F7"/>
<path d="M12.9118 9.79363C13.0367 9.9684 13.0117 10.1931 12.8619 10.3179C12.6871 10.4428 12.4375 10.4178 12.3126 10.268L11.4388 9.14449L10.5899 10.243C10.4651 10.4178 10.2154 10.4178 10.0406 10.293C9.86588 10.1681 9.84091 9.94343 9.96575 9.76866L10.9644 8.47039L9.96575 7.17211C9.84091 6.99735 9.89085 6.74768 10.0406 6.62284C10.2154 6.49801 10.4651 6.54794 10.5899 6.69774L11.4388 7.82125L12.3126 6.74768C12.4375 6.57291 12.6622 6.54794 12.8619 6.67278C13.0367 6.79761 13.0367 7.04728 12.9118 7.22205L11.9381 8.49536L12.9118 9.79363ZM8.36787 9.64383C7.71873 9.64383 7.19443 9.14449 7.19443 8.49536C7.19443 7.87119 7.71873 7.34688 8.36787 7.34688C9.01701 7.34688 9.54131 7.87119 9.54131 8.49536C9.51634 9.14449 8.99204 9.64383 8.36787 9.64383ZM4.92245 9.64383C4.27331 9.64383 3.749 9.14449 3.749 8.49536C3.749 7.87119 4.27331 7.34688 4.92245 7.34688C5.57158 7.34688 6.09589 7.87119 6.09589 8.49536C6.09589 9.14449 5.57158 9.64383 4.92245 9.64383ZM8.36787 6.59788C7.64383 6.59788 6.99469 6.99735 6.67012 7.59655C6.34556 6.99735 5.69642 6.59788 4.94741 6.59788C4.49801 6.59788 4.09854 6.74768 3.77397 6.97238V5.3745C3.77397 5.17477 3.5992 5 3.39947 5C3.17477 5 3 5.17477 3 5.3745V8.52032C3.02497 9.56893 3.87384 10.3928 4.92245 10.3928C5.67145 10.3928 6.32059 9.9684 6.64516 9.3692C6.96973 9.9684 7.61886 10.3928 8.3429 10.3928C9.41648 10.3928 10.2903 9.54396 10.2903 8.47039C10.3153 7.44675 9.44144 6.59788 8.36787 6.59788Z" fill="white"/>
</svg>
