<svg width="20" height="20" viewBox="0 0 20 20" fill="none" xmlns="http://www.w3.org/2000/svg">
<path d="M0 5C0 2.23858 2.23858 0 5 0H15C17.7614 0 20 2.23858 20 5V15C20 17.7614 17.7614 20 15 20H5C2.23858 20 0 17.7614 0 15V5Z" fill="#0071F7"/>
<path d="M15.8942 12.7524C16.044 12.9621 16.014 13.2317 15.8343 13.3815C15.6246 13.5313 15.325 13.5014 15.1752 13.3216L14.1265 11.9734L13.1079 13.2916C12.9581 13.5014 12.6585 13.5014 12.4488 13.3516C12.2391 13.2018 12.2091 12.9321 12.3589 12.7224L13.5573 11.1645L12.3589 9.60654C12.2091 9.39682 12.269 9.09721 12.4488 8.94741C12.6585 8.79761 12.9581 8.85753 13.1079 9.03729L14.1265 10.3855L15.1752 9.09721C15.325 8.88749 15.5946 8.85753 15.8343 9.00733C16.044 9.15713 16.044 9.45674 15.8942 9.66646L14.7258 11.1944L15.8942 12.7524ZM10.4414 12.5726C9.66248 12.5726 9.03331 11.9734 9.03331 11.1944C9.03331 10.4454 9.66248 9.81626 10.4414 9.81626C11.2204 9.81626 11.8496 10.4454 11.8496 11.1944C11.8196 11.9734 11.1904 12.5726 10.4414 12.5726ZM6.30694 12.5726C5.52797 12.5726 4.89881 11.9734 4.89881 11.1944C4.89881 10.4454 5.52797 9.81626 6.30694 9.81626C7.0859 9.81626 7.71506 10.4454 7.71506 11.1944C7.71506 11.9734 7.0859 12.5726 6.30694 12.5726ZM10.4414 8.91745C9.5726 8.91745 8.79363 9.39682 8.40415 10.1159C8.01467 9.39682 7.2357 8.91745 6.3369 8.91745C5.79761 8.91745 5.31825 9.09721 4.92877 9.36686V7.4494C4.92877 7.20972 4.71904 7 4.47936 7C4.20972 7 4 7.20972 4 7.4494V11.2244C4.02996 12.4827 5.04861 13.4714 6.30694 13.4714C7.20574 13.4714 7.98471 12.9621 8.37419 12.243C8.76367 12.9621 9.54264 13.4714 10.4115 13.4714C11.6998 13.4714 12.7484 12.4528 12.7484 11.1645C12.7783 9.9361 11.7297 8.91745 10.4414 8.91745Z" fill="white"/>
</svg>
