<svg width="24" height="24" viewBox="0 0 24 24" fill="none" xmlns="http://www.w3.org/2000/svg">
<path d="M0 6.39569C0 2.86345 2.86345 0 6.39569 0H17.6043C21.1366 0 24 2.86345 24 6.39569V17.6043C24 21.1366 21.1366 24 17.6043 24H6.39569C2.86345 24 0 21.1366 0 17.6043V6.39569Z" fill="#0071F7"/>
<path d="M19.1218 14.681C19.3081 14.9418 19.2708 15.2771 19.0473 15.4634C18.7864 15.6497 18.4139 15.6125 18.2276 15.3889L16.9235 13.7123L15.6567 15.3517C15.4704 15.6125 15.0978 15.6125 14.837 15.4262C14.5762 15.2399 14.539 14.9046 14.7252 14.6437L16.2156 12.7063L14.7252 10.7688C14.539 10.508 14.6135 10.1355 14.837 9.94916C15.0978 9.76286 15.4704 9.83738 15.6567 10.0609L16.9235 11.7376L18.2276 10.1355C18.4139 9.87464 18.7492 9.83738 19.0473 10.0237C19.3081 10.21 19.3081 10.5826 19.1218 10.8434L17.6687 12.7436L19.1218 14.681ZM12.3407 14.4575C11.372 14.4575 10.5895 13.7123 10.5895 12.7436C10.5895 11.8121 11.372 11.0297 12.3407 11.0297C13.3094 11.0297 14.0919 11.8121 14.0919 12.7436C14.0546 13.7123 13.2722 14.4575 12.3407 14.4575ZM7.199 14.4575C6.23027 14.4575 5.44784 13.7123 5.44784 12.7436C5.44784 11.8121 6.23027 11.0297 7.199 11.0297C8.16772 11.0297 8.95015 11.8121 8.95015 12.7436C8.95015 13.7123 8.16772 14.4575 7.199 14.4575ZM12.3407 9.9119C11.2602 9.9119 10.2915 10.508 9.8071 11.4022C9.32274 10.508 8.35401 9.9119 7.23625 9.9119C6.5656 9.9119 5.96946 10.1355 5.4851 10.4708V8.08622C5.4851 7.78815 5.22429 7.52734 4.92622 7.52734C4.59089 7.52734 4.33008 7.78815 4.33008 8.08622V12.7808C4.36734 14.3457 5.63413 15.5752 7.199 15.5752C8.31676 15.5752 9.28548 14.9418 9.76984 14.0476C10.2542 14.9418 11.2229 15.5752 12.3034 15.5752C13.9056 15.5752 15.2096 14.3084 15.2096 12.7063C15.2469 11.1787 13.9428 9.9119 12.3407 9.9119Z" fill="white"/>
</svg>
