<svg width="32" height="32" viewBox="0 0 32 32" fill="none" xmlns="http://www.w3.org/2000/svg">
<path d="M0 8C0 3.58172 3.58172 0 8 0H24C28.4183 0 32 3.58172 32 8V24C32 28.4183 28.4183 32 24 32H8C3.58172 32 0 28.4183 0 24V8Z" fill="#0071F7"/>
<path d="M24.8413 19.6285C25.066 19.9431 25.0211 20.3476 24.7514 20.5723C24.4368 20.797 23.9874 20.752 23.7627 20.4824L22.1898 18.4601L20.6619 20.4375C20.4371 20.752 19.9877 20.752 19.6732 20.5273C19.3586 20.3026 19.3136 19.8982 19.5383 19.5836L21.336 17.2467L19.5383 14.9098C19.3136 14.5952 19.4035 14.1458 19.6732 13.9211C19.9877 13.6964 20.4371 13.7863 20.6619 14.0559L22.1898 16.0783L23.7627 14.1458C23.9874 13.8312 24.3919 13.7863 24.7514 14.011C25.066 14.2357 25.066 14.6851 24.8413 14.9997L23.0886 17.2916L24.8413 19.6285ZM16.6622 19.3589C15.4937 19.3589 14.55 18.4601 14.55 17.2916C14.55 16.1681 15.4937 15.2244 16.6622 15.2244C17.8306 15.2244 18.7744 16.1681 18.7744 17.2916C18.7294 18.4601 17.7857 19.3589 16.6622 19.3589ZM10.4604 19.3589C9.29196 19.3589 8.34821 18.4601 8.34821 17.2916C8.34821 16.1681 9.29196 15.2244 10.4604 15.2244C11.6289 15.2244 12.5726 16.1681 12.5726 17.2916C12.5726 18.4601 11.6289 19.3589 10.4604 19.3589ZM16.6622 13.8762C15.3589 13.8762 14.1904 14.5952 13.6062 15.6738C13.022 14.5952 11.8536 13.8762 10.5053 13.8762C9.69642 13.8762 8.97737 14.1458 8.39315 14.5503V11.6741C8.39315 11.3146 8.07857 11 7.71904 11C7.31458 11 7 11.3146 7 11.6741V17.3366C7.04494 19.2241 8.57291 20.7071 10.4604 20.7071C11.8086 20.7071 12.9771 19.9431 13.5613 18.8646C14.1455 19.9431 15.314 20.7071 16.6172 20.7071C18.5497 20.7071 20.1226 19.1791 20.1226 17.2467C20.1675 15.4041 18.5946 13.8762 16.6622 13.8762Z" fill="white"/>
</svg>
