<svg width="16" height="16" viewBox="0 0 16 16" fill="none" xmlns="http://www.w3.org/2000/svg">
<path d="M0 4C0 1.79086 1.79086 0 4 0H12C14.2091 0 16 1.79086 16 4V12C16 14.2091 14.2091 16 12 16H4C1.79086 16 0 14.2091 0 12V4Z" fill="#292A2E"/>
<path d="M9.25848 4.41051C9.18301 4.28526 9.07645 4.18165 8.94914 4.10972C8.82183 4.0378 8.67809 4 8.53187 4C8.38564 4 8.2419 4.0378 8.11459 4.10972C7.98728 4.18165 7.88072 4.28526 7.80525 4.41051L6.60997 6.45774C7.52312 6.91363 8.30113 7.60045 8.86675 8.45001C9.43238 9.29956 9.76594 10.2823 9.83432 11.3006H8.99508C8.92683 10.4277 8.63182 9.58777 8.13926 8.8639C7.64669 8.14003 6.97365 7.55733 6.18672 7.17345L5.08045 9.08626C5.52284 9.28467 5.90824 9.59111 6.20122 9.97741C6.49421 10.3637 6.68536 10.8175 6.75711 11.297H4.82977C4.80691 11.2954 4.78482 11.2881 4.76548 11.2758C4.74614 11.2635 4.73016 11.2466 4.71898 11.2266C4.70781 11.2066 4.70179 11.1841 4.70147 11.1612C4.70115 11.1383 4.70654 11.1157 4.71715 11.0953L5.25121 10.1871C5.07027 10.0361 4.86348 9.91918 4.64085 9.84194L4.11224 10.7502C4.05721 10.8446 4.02148 10.949 4.00714 11.0573C3.99279 11.1656 4.00012 11.2757 4.02868 11.3812C4.05724 11.4866 4.10648 11.5854 4.17352 11.6716C4.24057 11.7579 4.32409 11.83 4.41923 11.8837C4.54459 11.9544 4.68589 11.9919 4.82977 11.9927H7.46919C7.51821 11.3878 7.41019 10.7805 7.15559 10.2296C6.90099 9.67874 6.50844 9.20293 6.01597 8.8483L6.43559 8.12168C7.0571 8.54856 7.55656 9.13011 7.88468 9.80897C8.2128 10.4878 8.35823 11.2405 8.30662 11.9927H10.5428C10.5948 10.8532 10.3469 9.71998 9.82384 8.70629C9.30074 7.6926 8.52075 6.83394 7.56184 6.21614L8.41016 4.76291C8.42906 4.73124 8.45971 4.70832 8.49543 4.69913C8.53115 4.68995 8.56906 4.69524 8.60089 4.71387C8.69717 4.76655 12.2866 11.03 12.3539 11.1026C12.3657 11.1238 12.3717 11.1478 12.3713 11.1721C12.3709 11.1964 12.3641 11.2202 12.3516 11.241C12.339 11.2619 12.3212 11.279 12.2999 11.2908C12.2786 11.3025 12.2546 11.3084 12.2303 11.3079H11.3657C11.3766 11.5392 11.3766 11.7699 11.3657 12H12.234C12.3442 12.0007 12.4535 11.9795 12.5556 11.9377C12.6576 11.8959 12.7503 11.8343 12.8284 11.7564C12.9064 11.6785 12.9682 11.586 13.0103 11.484C13.0523 11.3821 13.0737 11.2728 13.0732 11.1626C13.0733 11.0169 13.0344 10.8739 12.9606 10.7484L9.25848 4.41051Z" fill="white"/>
</svg>
