<svg width="20" height="20" viewBox="0 0 20 20" fill="none" xmlns="http://www.w3.org/2000/svg">
<path d="M0 5C0 2.23858 2.23858 0 5 0H15C17.7614 0 20 2.23858 20 5V15C20 17.7614 17.7614 20 15 20H5C2.23858 20 0 17.7614 0 15V5Z" fill="#292A2E"/>
<path d="M10.5731 5.51313C10.4788 5.35658 10.3456 5.22706 10.1864 5.13715C10.0273 5.04725 9.84761 5 9.66483 5C9.48205 5 9.30237 5.04725 9.14324 5.13715C8.9841 5.22706 8.8509 5.35658 8.75657 5.51313L7.26247 8.07217C8.4039 8.64204 9.37641 9.50057 10.0834 10.5625C10.7905 11.6244 11.2074 12.8529 11.2929 14.1258H10.2439C10.1585 13.0346 9.78977 11.9847 9.17407 11.0799C8.55837 10.175 7.71706 9.44666 6.7334 8.96682L5.35057 11.3578C5.90355 11.6058 6.3853 11.9889 6.75153 12.4718C7.11776 12.9546 7.3567 13.5219 7.44639 14.1212H5.03721C5.00864 14.1192 4.98102 14.1101 4.95685 14.0947C4.93267 14.0794 4.9127 14.0582 4.89873 14.0332C4.88476 14.0082 4.87724 13.9801 4.87684 13.9515C4.87644 13.9229 4.88317 13.8946 4.89643 13.8692L5.56401 12.7339C5.33784 12.5451 5.07935 12.399 4.80106 12.3024L4.1403 13.4378C4.07151 13.5557 4.02685 13.6862 4.00892 13.8216C3.99099 13.957 4.00014 14.0946 4.03585 14.2265C4.07155 14.3583 4.13309 14.4817 4.2169 14.5896C4.30071 14.6974 4.40511 14.7875 4.52404 14.8547C4.68074 14.9429 4.85736 14.9898 5.03721 14.9909H8.33649C8.39777 14.2348 8.26274 13.4756 7.94449 12.787C7.62624 12.0984 7.13556 11.5037 6.51996 11.0604L7.04448 10.1521C7.82138 10.6857 8.4457 11.4126 8.85585 12.2612C9.266 13.1098 9.44778 14.0506 9.38327 14.9909H12.1785C12.2436 13.5665 11.9337 12.15 11.2798 10.8829C10.6259 9.61574 9.65094 8.54243 8.4523 7.77018L9.5127 5.95364C9.53633 5.91405 9.57464 5.8854 9.61929 5.87392C9.66394 5.86243 9.71132 5.86905 9.75112 5.89233C9.87146 5.95818 14.3583 13.7874 14.4423 13.8783C14.4571 13.9048 14.4646 13.9348 14.4641 13.9652C14.4636 13.9956 14.4551 14.0253 14.4395 14.0513C14.4238 14.0773 14.4015 14.0988 14.3749 14.1134C14.3483 14.1281 14.3183 14.1355 14.2879 14.1349H13.2071C13.2207 14.424 13.2207 14.7124 13.2071 15H14.2925C14.4303 15.0009 14.5669 14.9744 14.6944 14.9222C14.822 14.8699 14.9379 14.7929 15.0354 14.6955C15.133 14.5982 15.2103 14.4824 15.2628 14.355C15.3154 14.2276 15.3421 14.091 15.3415 13.9532C15.3416 13.7712 15.293 13.5924 15.2007 13.4355L10.5731 5.51313Z" fill="white"/>
</svg>
