<svg width="24" height="24" viewBox="0 0 24 24" fill="none" xmlns="http://www.w3.org/2000/svg">
<path d="M0 6.39569C0 2.86345 2.86345 0 6.39569 0H17.6043C21.1366 0 24 2.86345 24 6.39569V17.6043C24 21.1366 21.1366 24 17.6043 24H6.39569C2.86345 24 0 21.1366 0 17.6043V6.39569Z" fill="#292A2E"/>
<path d="M12.8079 5.97424C12.7015 5.79767 12.5513 5.65159 12.3718 5.55019C12.1923 5.44879 11.9897 5.39551 11.7835 5.39551C11.5774 5.39551 11.3747 5.44879 11.1953 5.55019C11.0158 5.65159 10.8656 5.79767 10.7592 5.97424L9.07406 8.86042C10.3614 9.50314 11.4582 10.4714 12.2557 11.6691C13.0531 12.8668 13.5233 14.2523 13.6197 15.6879H12.4366C12.3404 14.4573 11.9245 13.2731 11.23 12.2526C10.5356 11.2321 9.58677 10.4106 8.47736 9.86943L6.91775 12.5661C7.54142 12.8458 8.08476 13.2778 8.49781 13.8224C8.91085 14.3671 9.18034 15.0068 9.2815 15.6828H6.56434C6.53212 15.6805 6.50096 15.6702 6.4737 15.6529C6.44643 15.6356 6.4239 15.6117 6.40815 15.5835C6.3924 15.5553 6.38391 15.5236 6.38346 15.4913C6.38301 15.459 6.3906 15.4271 6.40556 15.3985L7.15848 14.118C6.90339 13.9052 6.61186 13.7403 6.298 13.6315L5.55277 14.9119C5.47519 15.045 5.42482 15.1922 5.4046 15.3449C5.38437 15.4976 5.39469 15.6528 5.43496 15.8015C5.47523 15.9501 5.54464 16.0893 5.63916 16.211C5.73368 16.3326 5.85143 16.4342 5.98557 16.51C6.1623 16.6095 6.36149 16.6624 6.56434 16.6636H10.2854C10.3545 15.8108 10.2022 14.9547 9.84328 14.178C9.48434 13.4014 8.93093 12.7306 8.23663 12.2306L8.82821 11.2062C9.70442 11.808 10.4086 12.6279 10.8711 13.585C11.3337 14.542 11.5387 15.6031 11.466 16.6636H14.6185C14.6919 15.0571 14.3424 13.4595 13.605 12.0304C12.8675 10.6013 11.7679 9.39079 10.416 8.51981L11.612 6.47106C11.6386 6.42641 11.6818 6.39409 11.7322 6.38114C11.7825 6.36819 11.836 6.37566 11.8809 6.40192C12.0166 6.47618 17.077 15.3063 17.1718 15.4087C17.1885 15.4387 17.1969 15.4725 17.1964 15.5068C17.1958 15.541 17.1862 15.5745 17.1685 15.6039C17.1509 15.6333 17.1258 15.6574 17.0957 15.674C17.0657 15.6905 17.0319 15.6989 16.9976 15.6981H15.7786C15.794 16.0242 15.794 16.3495 15.7786 16.6739H17.0027C17.1582 16.6749 17.3123 16.645 17.4561 16.5861C17.6 16.5272 17.7307 16.4403 17.8407 16.3305C17.9508 16.2207 18.0379 16.0902 18.0972 15.9464C18.1564 15.8027 18.1866 15.6487 18.1859 15.4933C18.186 15.2879 18.1312 15.0863 18.0271 14.9094L12.8079 5.97424Z" fill="white"/>
</svg>
