<svg width="32" height="32" viewBox="0 0 32 32" fill="none" xmlns="http://www.w3.org/2000/svg">
<path d="M0 8C0 3.58172 3.58172 0 8 0H24C28.4183 0 32 3.58172 32 8V24C32 28.4183 28.4183 32 24 32H8C3.58172 32 0 28.4183 0 24V8Z" fill="#292A2E"/>
<path d="M17.4321 8.81439C17.2824 8.56592 17.071 8.36037 16.8184 8.21767C16.5659 8.07498 16.2807 8 15.9906 8C15.7005 8 15.4153 8.07498 15.1628 8.21767C14.9102 8.36037 14.6988 8.56592 14.5491 8.81439L12.1778 12.8758C13.9894 13.7802 15.5328 15.1428 16.655 16.8282C17.7771 18.5136 18.4388 20.4632 18.5745 22.4834H16.9096C16.7741 20.7517 16.1889 19.0854 15.2117 17.6493C14.2345 16.2133 12.8993 15.0572 11.3382 14.2957L9.14347 18.0904C10.0211 18.4841 10.7857 19.092 11.3669 19.8584C11.9482 20.6247 12.3274 21.525 12.4697 22.4762H8.64615C8.60081 22.473 8.55697 22.4586 8.5186 22.4342C8.48023 22.4098 8.44853 22.3763 8.42636 22.3366C8.4042 22.2969 8.39226 22.2523 8.39162 22.2068C8.39098 22.1614 8.40167 22.1165 8.42272 22.0762L9.48222 20.2743C9.12327 19.9748 8.71302 19.7428 8.27136 19.5896L7.22267 21.3915C7.1135 21.5787 7.04262 21.7858 7.01416 22.0007C6.9857 22.2156 7.00023 22.434 7.05689 22.6432C7.11356 22.8525 7.21123 23.0483 7.34424 23.2195C7.47726 23.3906 7.64295 23.5337 7.8317 23.6402C8.0804 23.7804 8.36071 23.8548 8.64615 23.8565H13.8824C13.9797 22.6564 13.7654 21.4516 13.2603 20.3587C12.7552 19.2658 11.9764 18.3219 10.9994 17.6184L11.8319 16.1769C13.0649 17.0237 14.0557 18.1774 14.7067 19.5242C15.3576 20.8709 15.6461 22.3642 15.5437 23.8565H19.98C20.0833 21.5958 19.5915 19.3476 18.5537 17.3366C17.5159 15.3256 15.9686 13.6222 14.0662 12.3965L15.7492 9.51352C15.7867 9.45068 15.8475 9.40521 15.9183 9.38698C15.9892 9.36876 16.0644 9.37927 16.1275 9.41622C16.3185 9.52072 23.4396 21.9465 23.5729 22.0906C23.5964 22.1327 23.6083 22.1803 23.6075 22.2285C23.6067 22.2768 23.5932 22.3239 23.5684 22.3652C23.5435 22.4066 23.5082 22.4406 23.4659 22.4639C23.4237 22.4871 23.3761 22.4989 23.3278 22.4978H21.6125C21.6341 22.9567 21.6341 23.4144 21.6125 23.8709H23.3351C23.5538 23.8723 23.7706 23.8303 23.973 23.7474C24.1755 23.6645 24.3594 23.5422 24.5143 23.3877C24.6691 23.2332 24.7918 23.0495 24.8751 22.8473C24.9585 22.645 25.0009 22.4283 25 22.2095C25.0002 21.9206 24.9231 21.6369 24.7766 21.3879L17.4321 8.81439Z" fill="white"/>
</svg>
