<svg width="16" height="16" viewBox="0 0 16 16" fill="none" xmlns="http://www.w3.org/2000/svg">
<path d="M0 4C0 1.79086 1.79086 0 4 0H12C14.2091 0 16 1.79086 16 4V12C16 14.2091 14.2091 16 12 16H4C1.79086 16 0 14.2091 0 12V4Z" fill="#470137"/>
<path d="M8.29017 5.49226L6.87954 7.8794L8.38421 10.4112C8.39362 10.4305 8.39832 10.4498 8.39362 10.4691C8.38892 10.4884 8.37011 10.4739 8.3419 10.4787H7.26511C7.18988 10.4787 7.13815 10.4739 7.10524 10.4257C7.0065 10.2231 6.90305 10.0254 6.8043 9.82287C6.70556 9.62515 6.59741 9.42261 6.48456 9.21524C6.37171 9.00787 6.25886 8.8005 6.14601 8.58831H6.1366C6.03786 8.79568 5.92971 9.00305 5.82156 9.21042C5.71341 9.41778 5.60527 9.62515 5.50182 9.8277C5.39367 10.0302 5.28552 10.2376 5.17737 10.4353C5.15856 10.4836 5.12095 10.4884 5.06922 10.4884H4.03476C4.01595 10.4884 4.00184 10.498 4.00184 10.4739C3.99714 10.4546 4.00184 10.4353 4.01125 10.4209L5.47361 7.96138L4.04887 5.48744C4.03476 5.46815 4.03006 5.44886 4.03946 5.43921C4.04887 5.42474 4.06767 5.41992 4.08648 5.41992H5.15386C5.17737 5.41992 5.20088 5.42474 5.21969 5.42957C5.2385 5.43921 5.25261 5.45368 5.26671 5.47297C5.35605 5.68034 5.4595 5.88771 5.56765 6.09507C5.6805 6.30244 5.78865 6.50499 5.9062 6.70753C6.01905 6.91008 6.1225 7.11262 6.22124 7.31999H6.23065C6.32939 7.1078 6.43284 6.90043 6.53628 6.69789C6.63973 6.49534 6.74788 6.2928 6.85603 6.09025C6.96418 5.88771 7.06762 5.68034 7.17107 5.48261C7.17577 5.46332 7.18518 5.44403 7.19928 5.43439C7.21809 5.42474 7.2369 5.41992 7.26041 5.42474H8.25256C8.27607 5.41992 8.29958 5.43439 8.30428 5.4585C8.30898 5.46332 8.29958 5.48261 8.29017 5.49226Z" fill="#FF61F6"/>
<path d="M10.4622 10.5804C10.1142 10.5852 9.76628 10.5129 9.45123 10.3634C9.155 10.2235 8.91049 9.99205 8.74121 9.70752C8.56724 9.41335 8.4826 9.04684 8.4826 8.60799C8.4779 8.25112 8.56724 7.89908 8.74121 7.59044C8.91989 7.27697 9.17851 7.01656 9.48885 6.84295C9.818 6.65487 10.213 6.56324 10.6785 6.56324C10.702 6.56324 10.7349 6.56324 10.7772 6.56807C10.8553 6.57696 10.923 6.5102 10.923 6.43161V5.0538C10.923 5.02004 10.9371 5.00075 10.97 5.00075H11.8953C11.9147 5.00075 11.9363 4.9956 11.9524 5.00657C11.9593 5.01127 11.9648 5.01806 11.9683 5.02545C11.9711 5.03123 11.9716 5.04415 11.9716 5.04415V9.63518C11.9716 9.72199 11.9763 9.81844 11.981 9.92453C11.9904 10.0258 11.9951 10.1223 11.9998 10.2042C11.9998 10.238 11.9857 10.2669 11.9528 10.2814C11.7082 10.3875 11.4496 10.4647 11.1863 10.5129C10.9465 10.5563 10.7067 10.5804 10.4622 10.5804ZM10.7717 9.64102C10.8644 9.64413 10.923 9.55353 10.923 9.46073V7.62328C10.923 7.54765 10.8712 7.47844 10.796 7.46987C10.7443 7.46505 10.6926 7.46023 10.6409 7.46023C10.4575 7.46023 10.2741 7.49881 10.1095 7.58561C9.94966 7.6676 9.8133 7.78816 9.70985 7.94248C9.6064 8.0968 9.55468 8.30417 9.55468 8.55494C9.54998 8.72373 9.57819 8.89252 9.63462 9.05166C9.68164 9.18187 9.75217 9.29761 9.84621 9.39406C9.93555 9.48086 10.0437 9.54838 10.166 9.58696C10.2929 9.63036 10.4246 9.64965 10.5562 9.64965C10.6202 9.64965 10.6804 9.64568 10.7367 9.64134C10.748 9.64046 10.7603 9.64064 10.7717 9.64102Z" fill="#FF61F6"/>
</svg>
