<svg width="20" height="20" viewBox="0 0 20 20" fill="none" xmlns="http://www.w3.org/2000/svg">
<path d="M0 5C0 2.23858 2.23858 0 5 0H15C17.7614 0 20 2.23858 20 5V15C20 17.7614 17.7614 20 15 20H5C2.23858 20 0 17.7614 0 15V5Z" fill="#470137"/>
<path d="M10.4369 6.73937L8.32108 10.3202L10.578 14.1181C10.5921 14.147 10.5992 14.176 10.5921 14.2049C10.5851 14.2339 10.5568 14.2122 10.5145 14.2194H8.89942C8.78658 14.2194 8.70899 14.2122 8.65962 14.1398C8.51151 13.836 8.35635 13.5394 8.20824 13.2356C8.06013 12.939 7.89791 12.6351 7.72864 12.3241C7.55937 12.013 7.3901 11.7019 7.22083 11.3836H7.20673C7.05862 11.6947 6.8964 12.0058 6.73419 12.3168C6.57197 12.6279 6.40975 12.939 6.25459 13.2428C6.09237 13.5466 5.93016 13.8577 5.76794 14.1543C5.73973 14.2266 5.68331 14.2339 5.60572 14.2339H4.05409C4.02588 14.2339 4.00472 14.2483 4.00472 14.2122C3.99767 14.1832 4.00472 14.1543 4.01883 14.1326L6.21227 10.4432L4.07525 6.73214C4.05409 6.7032 4.04704 6.67426 4.06114 6.6598C4.07525 6.63809 4.10346 6.63086 4.13167 6.63086H5.73268C5.76794 6.63086 5.80321 6.63809 5.83142 6.64533C5.85963 6.6598 5.88079 6.6815 5.90195 6.71043C6.03595 7.0215 6.19111 7.33256 6.35333 7.64363C6.5226 7.95469 6.68482 8.25852 6.86114 8.56235C7.03041 8.86618 7.18557 9.17001 7.33368 9.48108H7.34779C7.4959 9.16278 7.65106 8.85172 7.80622 8.54789C7.96139 8.24405 8.1236 7.94022 8.28582 7.63639C8.44804 7.33256 8.6032 7.0215 8.75836 6.7249C8.76542 6.69597 8.77952 6.66703 8.80068 6.65256C8.82889 6.63809 8.8571 6.63086 8.89237 6.63809H10.3805C10.4158 6.63086 10.4511 6.65256 10.4581 6.68873C10.4652 6.69597 10.4511 6.7249 10.4369 6.73937Z" fill="#FF61F6"/>
<path d="M13.6961 14.3709C13.1742 14.3782 12.6523 14.2697 12.1797 14.0454C11.7354 13.8356 11.3686 13.4884 11.1147 13.0616C10.8538 12.6203 10.7268 12.0705 10.7268 11.4122C10.7198 10.8769 10.8538 10.3488 11.1147 9.88581C11.3827 9.4156 11.7707 9.02496 12.2361 8.76454C12.7298 8.48241 13.3223 8.34496 14.0205 8.34496C14.0558 8.34496 14.1052 8.34496 14.1686 8.35219C14.2858 8.36554 14.3873 8.26541 14.3873 8.14752V6.0807C14.3873 6.03006 14.4084 6.00112 14.4578 6.00112H15.8457C15.8748 6.00112 15.9072 5.9934 15.9313 6.00986C15.9416 6.01691 15.9499 6.02709 15.9552 6.03817C15.9593 6.04684 15.9601 6.06623 15.9601 6.06623V12.9531C15.9601 13.0833 15.9671 13.228 15.9742 13.3871C15.9883 13.539 15.9953 13.6837 16.0024 13.8067C16.0024 13.8573 15.9812 13.9007 15.9319 13.9224C15.5651 14.0816 15.1772 14.1973 14.7822 14.2697C14.4225 14.3348 14.0628 14.3709 13.6961 14.3709ZM14.1603 12.9618C14.2994 12.9665 14.3873 12.8306 14.3873 12.6914V9.93507C14.3873 9.82162 14.3096 9.71781 14.1968 9.70496C14.1193 9.69773 14.0417 9.6905 13.9641 9.6905C13.689 9.6905 13.414 9.74837 13.1671 9.87858C12.9273 10.0016 12.7228 10.1824 12.5676 10.4139C12.4125 10.6454 12.3349 10.9565 12.3349 11.3326C12.3278 11.5858 12.3701 11.839 12.4548 12.0777C12.5253 12.2731 12.6311 12.4467 12.7722 12.5914C12.9062 12.7216 13.0684 12.8228 13.2518 12.8807C13.4422 12.9458 13.6397 12.9748 13.8371 12.9748C13.9332 12.9748 14.0234 12.9688 14.1078 12.9623C14.1248 12.961 14.1432 12.9612 14.1603 12.9618Z" fill="#FF61F6"/>
</svg>
