<svg width="24" height="24" viewBox="0 0 24 24" fill="none" xmlns="http://www.w3.org/2000/svg">
<path d="M0 6.39569C0 2.86345 2.86345 0 6.39569 0H17.6043C21.1366 0 24 2.86345 24 6.39569V17.6043C24 21.1366 21.1366 24 17.6043 24H6.39569C2.86345 24 0 21.1366 0 17.6043V6.39569Z" fill="#470137"/>
<path d="M12.435 8.73937L10.3191 12.3202L12.5761 16.1181C12.5902 16.147 12.5972 16.176 12.5902 16.2049C12.5831 16.2339 12.5549 16.2122 12.5126 16.2194H10.8975C10.7846 16.2194 10.707 16.2122 10.6577 16.1398C10.5096 15.836 10.3544 15.5394 10.2063 15.2356C10.0582 14.939 9.89596 14.6351 9.72669 14.3241C9.55742 14.013 9.38815 13.7019 9.21888 13.3836H9.20478C9.05667 13.6947 8.89445 14.0058 8.73223 14.3168C8.57002 14.6279 8.4078 14.939 8.25264 15.2428C8.09042 15.5466 7.9282 15.8577 7.76599 16.1543C7.73778 16.2266 7.68135 16.2339 7.60377 16.2339H6.05214C6.02393 16.2339 6.00277 16.2483 6.00277 16.2122C5.99571 16.1832 6.00277 16.1543 6.01687 16.1326L8.21032 12.4432L6.0733 8.73214C6.05214 8.7032 6.04508 8.67426 6.05919 8.6598C6.0733 8.63809 6.10151 8.63086 6.12972 8.63086H7.73072C7.76599 8.63086 7.80125 8.63809 7.82946 8.64533C7.85768 8.6598 7.87883 8.6815 7.89999 8.71043C8.034 9.0215 8.18916 9.33256 8.35138 9.64363C8.52065 9.95469 8.68286 10.2585 8.85918 10.5624C9.02845 10.8662 9.18362 11.17 9.33173 11.4811H9.34583C9.49394 11.1628 9.64911 10.8517 9.80427 10.5479C9.95944 10.2441 10.1217 9.94022 10.2839 9.63639C10.4461 9.33256 10.6012 9.0215 10.7564 8.7249C10.7635 8.69597 10.7776 8.66703 10.7987 8.65256C10.8269 8.63809 10.8552 8.63086 10.8904 8.63809H12.3786C12.4138 8.63086 12.4491 8.65256 12.4562 8.68873C12.4632 8.69597 12.4491 8.7249 12.435 8.73937Z" fill="#FF61F6"/>
<path d="M15.6941 16.3709C15.1722 16.3782 14.6503 16.2697 14.1778 16.0454C13.7334 15.8356 13.3667 15.4884 13.1128 15.0616C12.8518 14.6203 12.7249 14.0705 12.7249 13.4122C12.7178 12.8769 12.8518 12.3488 13.1128 11.8858C13.3808 11.4156 13.7687 11.025 14.2342 10.7645C14.7279 10.4824 15.3203 10.345 16.0186 10.345C16.0538 10.345 16.1032 10.345 16.1667 10.3522C16.2838 10.3655 16.3853 10.2654 16.3853 10.1475V8.0807C16.3853 8.03006 16.4065 8.00112 16.4558 8.00112H17.8437C17.8729 8.00112 17.9053 7.9934 17.9294 8.00986C17.9397 8.01691 17.9479 8.02709 17.9532 8.03817C17.9574 8.04684 17.9581 8.06623 17.9581 8.06623V14.9531C17.9581 15.0833 17.9652 15.228 17.9722 15.3871C17.9863 15.539 17.9934 15.6837 18.0004 15.8067C18.0004 15.8573 17.9793 15.9007 17.9299 15.9224C17.5632 16.0816 17.1752 16.1973 16.7803 16.2697C16.4206 16.3348 16.0609 16.3709 15.6941 16.3709ZM16.1584 14.9618C16.2975 14.9665 16.3853 14.8306 16.3853 14.6914V11.9351C16.3853 11.8216 16.3076 11.7178 16.1949 11.705C16.1173 11.6977 16.0397 11.6905 15.9621 11.6905C15.6871 11.6905 15.412 11.7484 15.1652 11.8786C14.9254 12.0016 14.7208 12.1824 14.5657 12.4139C14.4105 12.6454 14.3329 12.9565 14.3329 13.3326C14.3259 13.5858 14.3682 13.839 14.4528 14.0777C14.5234 14.2731 14.6292 14.4467 14.7702 14.5914C14.9042 14.7216 15.0664 14.8228 15.2498 14.8807C15.4402 14.9458 15.6377 14.9748 15.8352 14.9748C15.9312 14.9748 16.0214 14.9688 16.1058 14.9623C16.1229 14.961 16.1413 14.9612 16.1584 14.9618Z" fill="#FF61F6"/>
</svg>
