<svg width="32" height="32" viewBox="0 0 32 32" fill="none" xmlns="http://www.w3.org/2000/svg">
<path d="M0 8C0 3.58172 3.58172 0 8 0H24C28.4183 0 32 3.58172 32 8V24C32 28.4183 28.4183 32 24 32H8C3.58172 32 0 28.4183 0 24V8Z" fill="#470137"/>
<path d="M16.6526 11.1081L13.4788 16.4792L16.8642 22.1758C16.8853 22.2192 16.8959 22.2626 16.8853 22.306C16.8748 22.3494 16.8324 22.3168 16.769 22.3277H14.3463C14.177 22.3277 14.0606 22.3168 13.9866 22.2083C13.7644 21.7526 13.5317 21.3077 13.3095 20.852C13.0873 20.4071 12.844 19.9514 12.5901 19.4848C12.3362 19.0182 12.0823 18.5516 11.8284 18.0742H11.8072C11.585 18.5408 11.3417 19.0074 11.0984 19.474C10.8551 19.9405 10.6117 20.4071 10.379 20.8628C10.1357 21.3186 9.89233 21.7852 9.64901 22.23C9.60669 22.3385 9.52205 22.3494 9.40568 22.3494H7.07821C7.03589 22.3494 7.00415 22.3711 7.00415 22.3168C6.99357 22.2734 7.00415 22.23 7.02531 22.1975L10.3155 16.6636L7.10994 11.0972C7.07821 11.0538 7.06763 11.0104 7.08879 10.9887C7.10994 10.9562 7.15226 10.9453 7.19458 10.9453H9.59611C9.64901 10.9453 9.7019 10.9562 9.74422 10.967C9.78654 10.9887 9.81828 11.0213 9.85002 11.0647C10.051 11.5312 10.2838 11.9978 10.5271 12.4644C10.781 12.931 11.0243 13.3867 11.2888 13.8424C11.5427 14.2982 11.7755 14.7539 11.9976 15.2205H12.0188C12.241 14.7431 12.4737 14.2765 12.7065 13.8207C12.9392 13.365 13.1825 12.9093 13.4259 12.4536C13.6692 11.9978 13.9019 11.5312 14.1347 11.0864C14.1453 11.043 14.1664 10.9996 14.1982 10.9779C14.2405 10.9562 14.2828 10.9453 14.3357 10.9562H16.568C16.6209 10.9453 16.6737 10.9779 16.6843 11.0321C16.6949 11.043 16.6737 11.0864 16.6526 11.1081Z" fill="#FF61F6"/>
<path d="M21.5403 22.5559C20.7574 22.5668 19.9745 22.404 19.2657 22.0677C18.5992 21.753 18.0491 21.2321 17.6682 20.592C17.2768 19.9301 17.0863 19.1054 17.0863 18.118C17.0758 17.3151 17.2768 16.523 17.6682 15.8285C18.0702 15.1232 18.6521 14.5373 19.3503 14.1466C20.0909 13.7235 20.9796 13.5173 22.0269 13.5173C22.0798 13.5173 22.1539 13.5173 22.2491 13.5282C22.4248 13.5482 22.5771 13.398 22.5771 13.2211V10.121C22.5771 10.0451 22.6088 10.0017 22.6829 10.0017H24.7647C24.8084 10.0017 24.857 9.9901 24.8931 10.0148C24.9086 10.0254 24.921 10.0406 24.9289 10.0573C24.9352 10.0703 24.9363 10.0993 24.9363 10.0993V20.4292C24.9363 20.6245 24.9469 20.8415 24.9574 21.0802C24.9786 21.3081 24.9892 21.5251 24.9997 21.7096C24.9997 21.7855 24.968 21.8506 24.894 21.8832C24.3438 22.1219 23.762 22.2955 23.1695 22.404C22.63 22.5017 22.0904 22.5559 21.5403 22.5559ZM22.2366 20.4423C22.4453 20.4493 22.5771 20.2455 22.5771 20.0367V15.9024C22.5771 15.7322 22.4605 15.5765 22.2914 15.5572C22.175 15.5464 22.0587 15.5355 21.9423 15.5355C21.5297 15.5355 21.1171 15.6223 20.7468 15.8177C20.3871 16.0021 20.0803 16.2734 19.8476 16.6206C19.6148 16.9678 19.4984 17.4344 19.4984 17.9986C19.4879 18.3784 19.5513 18.7582 19.6783 19.1163C19.7841 19.4092 19.9428 19.6697 20.1544 19.8867C20.3554 20.082 20.5987 20.2339 20.8738 20.3207C21.1594 20.4183 21.4556 20.4618 21.7519 20.4618C21.8959 20.4618 22.0312 20.4528 22.1578 20.4431C22.1834 20.4411 22.211 20.4415 22.2366 20.4423Z" fill="#FF61F6"/>
</svg>
