<svg width="96" height="96" viewBox="0 0 96 96" fill="none" xmlns="http://www.w3.org/2000/svg">
<path d="M37.6702 39.2296C39.2902 39.6696 41.0702 39.8696 42.9302 39.8696C44.7902 39.8696 46.4002 39.6697 47.9802 39.2397C51.3602 38.3297 54.1102 36.3796 55.5002 33.1596C56.1202 31.7096 56.4802 30.0196 56.4802 28.0396C56.4802 26.0596 56.1202 24.3196 55.4902 22.8496C54.1002 19.6296 51.3502 17.6796 47.9802 16.7696C46.4102 16.3396 44.7002 16.1396 42.9302 16.1396C41.0702 16.1396 39.3002 16.3496 37.6702 16.7896C34.2602 17.7096 31.5302 19.6496 30.1502 22.8496C29.5202 24.3096 29.1602 26.0296 29.1602 28.0396C29.1602 30.0496 29.5102 31.7096 30.1402 33.1596C31.5202 36.3596 34.2502 38.2997 37.6702 39.2197V39.2296Z" fill="#FCA700"/>
<path d="M60.7302 43.6296H47.2602V28.6996C47.2602 26.2496 45.2702 24.2596 42.8202 24.2596C40.3702 24.2596 38.3802 26.2496 38.3802 28.6996V55.3096L33.3402 50.2696C31.6102 48.5396 28.8002 48.5396 27.0602 50.2696C25.3302 51.9996 25.3302 54.8096 27.0602 56.5496L40.8902 70.3796V80.3296H67.6002V50.5096C67.6002 46.7096 64.5202 43.6296 60.7202 43.6296H60.7302Z" fill="#82B536"/>
<path d="M47.2601 28.6896V39.4096C45.8901 39.7196 44.4301 39.8696 42.9201 39.8696C41.4101 39.8696 39.8101 39.7196 38.3801 39.3896V28.6896C38.3801 26.2396 40.3701 24.2596 42.8201 24.2596C45.2701 24.2596 47.2601 26.2396 47.2601 28.6896Z" fill="#AE2A19"/>
<path d="M26.9402 9.21039C27.8902 10.4804 28.1602 12.5804 28.6502 14.0604C28.8902 14.7904 30.3902 18.5504 30.3402 18.5904" fill="#101214"/>
<path d="M27.5302 9.03042C27.2602 8.84042 26.4002 9.56042 26.4102 9.79042C26.4302 10.1204 26.4902 10.4304 26.6402 10.8304C26.8602 11.2704 27.1202 11.3304 27.1902 11.6804C27.3602 12.2604 27.3102 13.3704 27.3102 13.6604C27.3102 13.7004 27.3102 13.7404 27.3302 13.7804C27.3902 13.9204 27.5502 14.2904 27.7602 14.7504C27.9602 15.1804 28.1802 15.6904 28.3302 16.1904C28.5902 16.8704 28.7602 17.2804 28.8402 17.5004C29.0402 18.0104 29.3002 18.3604 29.6202 18.6404C29.6402 18.6504 29.6702 18.6604 29.7102 18.6704C29.7302 18.6704 29.7502 18.6704 29.7802 18.6704C29.8102 18.6704 29.8302 18.6704 29.8402 18.5904C29.8602 18.5304 29.9002 18.4704 29.9502 18.4404C30.0102 18.4104 30.1202 18.4404 30.1702 18.4704C30.2802 18.5304 30.3202 18.5804 30.3202 18.5804C30.2902 18.5404 30.3502 18.6204 30.4102 18.6304C30.4702 18.6504 30.5602 18.6104 30.6002 18.5104C30.6802 18.3504 30.7602 18.3504 30.7602 18.2604C30.8202 17.7804 30.7802 17.3604 30.5902 16.8304C30.5102 16.6304 30.6002 16.1104 30.4202 15.5004C30.3902 15.4004 30.3402 15.3104 30.2602 15.2304C29.9302 14.8804 29.6902 14.4304 29.5402 14.0804C29.3902 13.7404 29.3402 13.4804 29.3402 13.4804C29.3402 13.4804 29.2302 13.0804 29.1002 12.6004C28.9802 12.1004 28.8202 11.5004 28.7102 11.1304C28.5402 10.5804 28.4402 10.3104 28.3702 10.1504C28.1702 9.65042 27.8802 9.29042 27.5102 9.04042L27.5302 9.03042Z" fill="#101214"/>
<path d="M36.6301 1.06036C37.7101 5.11036 38.6001 10.2004 38.7901 14.1504Z" fill="#101214"/>
<path d="M37.2602 1.16039C37.0602 0.860389 35.9802 1.16039 35.9602 1.50039C35.9202 2.00039 35.9602 2.50039 36.0902 3.12039C36.3102 3.81039 36.5702 3.94039 36.6502 4.42039C36.8302 5.23039 36.7902 6.67039 36.7702 7.01039C36.7702 7.06039 36.7702 7.11039 36.7902 7.16039C36.8902 7.50039 37.3302 9.02039 37.4202 10.3704C37.5402 11.3104 37.6002 11.8904 37.6302 12.2004C37.7102 12.9204 37.8602 13.4404 38.1002 13.9604C38.2302 14.2404 39.2002 14.2004 39.3002 13.8904C39.4802 13.3304 39.5602 12.7604 39.4902 12.0104C39.4602 11.7204 39.6702 11.0904 39.6102 10.2304C39.6102 10.0904 39.5602 9.95039 39.5002 9.82039C38.9902 8.69039 38.8302 7.15039 38.8302 7.15039C38.8302 7.15039 38.4302 4.89039 38.2102 3.94039C38.0502 3.23039 37.9702 2.88039 37.9202 2.67039C37.7602 2.03039 37.5502 1.56039 37.2702 1.13039L37.2602 1.16039Z" fill="#101214"/>
<path d="M52.8102 4.77039C52.4202 6.47039 51.8302 8.13039 51.4902 9.85039C51.2402 11.1504 51.1302 12.6104 50.7502 13.8404" fill="#101214"/>
<path d="M53.3402 5.08039C53.2802 4.82039 52.1902 4.57039 52.0302 4.77039C51.7902 5.05039 51.6202 5.35039 51.5002 5.78039C51.4202 6.28039 51.6002 6.47039 51.4802 6.80039C51.3202 7.36039 50.7502 8.26039 50.6202 8.49039C50.6002 8.52039 50.5902 8.56039 50.5902 8.59039C50.5602 8.84039 50.4702 10.0604 50.2702 11.0004C50.1702 11.6504 50.1102 12.0604 50.0802 12.2704C50.0002 12.7504 50.0402 13.1104 50.1402 13.5004C50.2002 13.7104 51.1202 14.0204 51.3002 13.8404C51.6202 13.5104 51.8202 13.1204 51.9202 12.6004C51.9602 12.4004 52.2902 12.0104 52.4202 11.4304C52.4402 11.3404 52.4402 11.2404 52.4102 11.1404C52.1602 10.2804 52.4902 9.31039 52.4902 9.31039C52.4902 9.31039 52.5902 8.93039 52.7002 8.48039C52.8302 8.02039 52.9802 7.48039 53.0702 7.16039C53.2102 6.67039 53.2702 6.43039 53.3102 6.28039C53.4202 5.83039 53.4302 5.46039 53.3502 5.08039H53.3402Z" fill="#101214"/>
<path d="M58.1702 21.2604C59.8102 19.6704 61.1802 17.8404 62.9102 16.3304C64.3602 15.0604 65.8202 13.7904 67.2402 12.5004" fill="#101214"/>
<path d="M57.9202 20.6804C57.7802 20.9804 58.5502 21.7904 58.8702 21.6404C59.3202 21.4304 59.7302 21.1304 60.1602 20.6704C60.6002 20.1104 60.5402 19.8304 60.8802 19.5004C61.4102 18.9004 62.5402 18.1604 62.8102 18.0104C62.8502 17.9904 62.8902 17.9604 62.9102 17.9204C63.0102 17.7904 63.2902 17.4504 63.6802 17.0504C64.0902 16.6304 64.6002 16.1504 65.1202 15.7504C65.8102 15.1404 66.2302 14.7604 66.4502 14.5604C66.9702 14.0904 67.2902 13.6504 67.5302 13.1604C67.6602 12.8904 67.0102 12.1704 66.7202 12.2704C66.1902 12.4504 65.7302 12.7104 65.2002 13.1704C65.0002 13.3504 64.4002 13.5204 63.7702 14.0204C63.6702 14.1004 63.5802 14.2004 63.5102 14.3204C63.2102 14.8204 62.7802 15.3004 62.4202 15.6404C62.0502 15.9904 61.7502 16.2404 61.7502 16.2404C61.7502 16.2404 61.3402 16.6304 60.8702 17.1104C60.4002 17.5904 59.8802 18.1704 59.5802 18.5104C59.1202 19.0204 58.9002 19.2604 58.7702 19.4104C58.3702 19.8604 58.1102 20.2604 57.9102 20.6904L57.9202 20.6804Z" fill="#101214"/>
<path d="M61.7703 30.0204C65.0603 29.8004 68.2403 27.7004 71.3503 26.7204Z" fill="#101214"/>
<path d="M61.9103 29.4204C61.6803 29.5604 61.7403 30.6804 62.0303 30.7604C62.4403 30.8904 62.8803 30.9204 63.4103 30.8104C64.0003 30.6304 64.0703 30.3504 64.4603 30.2704C65.1103 30.0804 66.2603 29.9604 66.5403 29.9304C66.5803 29.9304 66.6203 29.9104 66.6503 29.8904C66.9003 29.7504 67.9803 29.1004 68.9503 28.7504C69.6203 28.4704 70.0303 28.2904 70.2403 28.2004C70.7403 27.9904 71.0803 27.7504 71.3903 27.4204C71.5603 27.2404 71.2803 26.3104 71.0203 26.2804C70.5503 26.2104 70.0903 26.2504 69.5503 26.4604C69.3403 26.5404 68.8003 26.4704 68.1803 26.6904C68.0803 26.7304 67.9903 26.7804 67.9103 26.8704C67.2303 27.5704 66.1303 27.9304 66.1303 27.9304C66.1303 27.9304 64.5603 28.5704 63.8903 28.7404C63.3903 28.8904 63.1503 28.9404 63.0003 28.9704C62.5503 29.0704 62.2203 29.2104 61.8903 29.4104L61.9103 29.4204Z" fill="#101214"/>
</svg>
