<svg width="96" height="96" viewBox="0 0 96 96" fill="none" xmlns="http://www.w3.org/2000/svg">
<path d="M38.22 38.98C39.84 39.42 41.62 39.62 43.48 39.62C45.34 39.62 46.95 39.42 48.53 38.99C51.91 38.08 54.66 36.13 56.05 32.91C56.67 31.46 57.03 29.77 57.03 27.79C57.03 25.81 56.67 24.07 56.04 22.6C54.65 19.38 51.9 17.43 48.53 16.52C46.96 16.09 45.25 15.89 43.48 15.89C41.62 15.89 39.85 16.1 38.22 16.54C34.81 17.46 32.08 19.4 30.7 22.6C30.07 24.06 29.71 25.78 29.71 27.79C29.71 29.8 30.06 31.46 30.69 32.91C32.07 36.11 34.8 38.05 38.22 38.97V38.98Z" fill="#FCA700"/>
<path d="M61.28 43.38H47.81V28.45C47.81 26 45.82 24.01 43.37 24.01C40.92 24.01 38.93 26 38.93 28.45V43.38V55.06L33.89 50.02C32.16 48.29 29.35 48.29 27.61 50.02C25.88 51.75 25.88 54.56 27.61 56.3L41.44 70.13V80.08H68.15V50.26C68.15 46.46 65.07 43.38 61.27 43.38H61.28Z" fill="#82B536"/>
<path d="M47.8099 28.44V39.16C46.4399 39.47 44.9799 39.62 43.4699 39.62C41.9599 39.62 40.3599 39.47 38.9299 39.14V28.44C38.9299 25.99 40.9199 24.01 43.3699 24.01C45.8199 24.01 47.8099 25.99 47.8099 28.44Z" fill="#AE2A19"/>
</svg>
