<svg width="96" height="96" viewBox="0 0 96 96" fill="none" xmlns="http://www.w3.org/2000/svg">
<path fill-rule="evenodd" clip-rule="evenodd" d="M74.695 21.81V43.38H26.845V21.81H74.695Z" fill="#1868DB"/>
<path fill-rule="evenodd" clip-rule="evenodd" d="M74.695 37.51V69.66H26.845V37.51H74.695Z" fill="#BF63F3"/>
<path d="M40.295 15H33.455V32.09H40.295V15Z" fill="#BF63F3"/>
<path d="M40.305 21.81H33.465V32.09H40.305V21.81Z" fill="#09326C"/>
<path d="M54.195 15H47.355V32.09H54.195V15Z" fill="#BF63F3"/>
<path d="M54.195 21.81H47.355V32.09H54.195V21.81Z" fill="#09326C"/>
<path d="M68.085 15H61.245V32.09H68.085V15Z" fill="#BF63F3"/>
<path d="M68.085 21.81H61.245V32.09H68.085V21.81Z" fill="#09326C"/>
<path d="M74.685 37.51H26.845V43.38H74.685V37.51Z" fill="#09326C"/>
<path d="M41.465 41.4002C41.435 41.1702 41.305 40.8702 41.175 40.7702C41.055 40.6402 40.855 40.6602 40.775 40.6902C40.565 40.7702 40.475 40.8702 40.335 40.9902C40.215 41.1302 40.135 41.1702 40.105 41.4502C39.985 42.8602 39.905 44.3702 39.915 46.2902C39.985 48.4802 40.215 49.0202 40.195 50.5002C40.195 53.0102 39.895 57.2302 39.805 58.2502C39.795 58.4002 39.785 58.5502 39.805 58.7002C39.845 59.7802 39.995 64.5102 39.885 68.5902C39.855 71.4702 39.845 73.2502 39.835 74.1802C39.805 76.3702 39.905 78.0202 40.035 79.6102C40.045 79.7402 40.065 79.7702 40.105 79.8202C40.145 79.8702 40.185 79.9202 40.245 79.9802C40.365 80.1002 40.435 80.1802 40.625 80.2902C40.665 80.3102 40.855 80.3502 40.955 80.2502C41.075 80.1802 41.205 79.9002 41.235 79.6802C41.525 78.0502 41.655 76.4102 41.705 74.2102C41.715 73.3502 42.005 71.5702 42.075 69.0602C42.085 68.6502 42.075 68.2402 42.035 67.8302C41.695 64.3202 41.815 59.7702 41.815 59.7702C41.815 59.7702 41.815 52.9802 41.815 50.1102C41.805 47.9502 41.795 46.9102 41.795 46.2702C41.775 44.3302 41.675 42.8302 41.465 41.3902V41.4002Z" fill="#101214"/>
<path d="M59.915 57.4602C60.145 57.4302 60.445 57.3002 60.545 57.1702C60.675 57.0502 60.655 56.8502 60.625 56.7702C60.545 56.5602 60.445 56.4702 60.325 56.3302C60.185 56.2102 60.145 56.1302 59.865 56.1002C58.455 55.9802 56.945 55.9002 55.025 55.9102C52.835 55.9802 52.295 56.2102 50.815 56.1902C48.305 56.1902 44.085 55.8902 43.065 55.8002C42.915 55.7902 42.765 55.7902 42.615 55.8002C41.535 55.8402 36.805 55.9902 32.725 55.8802C29.845 55.8502 28.065 55.8402 27.135 55.8302C24.945 55.8002 23.295 55.9002 21.705 56.0302C21.575 56.0402 21.545 56.0602 21.495 56.1002C21.445 56.1402 21.395 56.1802 21.335 56.2402C21.215 56.3602 21.135 56.4202 21.025 56.6202C21.005 56.6602 20.965 56.8502 21.065 56.9502C21.135 57.0702 21.415 57.2002 21.635 57.2302C23.265 57.5202 24.905 57.6502 27.105 57.7002C27.955 57.7102 29.745 58.0002 32.255 58.0702C32.665 58.0802 33.075 58.0702 33.485 58.0302C36.995 57.6902 41.545 57.8102 41.545 57.8102C41.545 57.8102 48.335 57.8102 51.205 57.8102C53.365 57.8002 54.405 57.7902 55.045 57.7902C56.985 57.7702 58.485 57.6702 59.925 57.4602H59.915Z" fill="#101214"/>
</svg>
