<svg width="96" height="96" viewBox="0 0 96 96" fill="none" xmlns="http://www.w3.org/2000/svg">
<path fill-rule="evenodd" clip-rule="evenodd" d="M68.52 20L77.34 75.85H67.77L65.9 63.98H44.33L46.21 75.85H36.65L27.83 20H68.52Z" fill="#1868DB"/>
<path fill-rule="evenodd" clip-rule="evenodd" d="M27.82 20L19 75.85H28.57L30.44 63.98H52.01L50.13 75.85H59.69L68.51 20H27.82Z" fill="#82B536"/>
<path fill-rule="evenodd" clip-rule="evenodd" d="M44.33 63.98H61.57L68.51 20H27.83L34.77 63.98H44.33Z" fill="#164B35"/>
<path fill-rule="evenodd" clip-rule="evenodd" d="M63.17 36.7999L46.69 53.1899L38.17 44.4799L41.84 40.9199L46.74 45.9299L59.55 33.1899L63.17 36.7899V36.7999Z" fill="white"/>
<path d="M24.8701 21.689C24.6901 19.439 23.5801 19.509 23.5201 21.719C23.4301 24.889 23.4101 28.209 23.4801 32.489C23.6201 37.329 23.8801 38.529 23.9001 41.819C24.0001 47.369 23.8201 56.729 23.7501 58.979C23.7501 59.309 23.7501 59.649 23.7501 59.979C23.7601 60.579 23.7901 61.679 23.8201 63.129C23.8201 63.859 23.8401 64.669 23.8501 65.559C23.8501 65.999 23.8501 66.459 23.8501 66.929C23.8501 67.259 23.8501 67.589 23.8401 67.919C23.8201 68.379 23.8101 68.839 23.7901 69.309V69.479V69.569C23.7901 69.589 23.8401 69.569 23.8701 69.579H24.2201L24.9301 69.609C25.3701 69.609 25.8101 69.609 26.2601 69.609C26.7901 69.609 27.3301 69.609 27.8801 69.599C28.9801 69.599 30.1101 69.599 31.2501 69.589C33.5401 69.589 35.8901 69.599 38.1401 69.609C44.5101 69.609 48.4601 69.609 50.5201 69.609C55.3901 69.609 59.0201 69.489 62.5901 69.279C64.5501 69.159 64.5501 68.189 62.5901 68.079C59.0201 67.869 55.3801 67.749 50.5201 67.749C48.6301 67.749 44.6901 67.479 39.1301 67.439C38.2201 67.439 37.3201 67.449 36.4201 67.489C34.4801 67.579 32.4001 67.639 30.3601 67.679C29.3401 67.699 28.3401 67.709 27.3701 67.729C26.9201 67.729 26.4801 67.729 26.0401 67.739H25.8501C25.7901 67.739 25.7101 67.759 25.7401 67.679V67.499C25.7401 67.359 25.7501 67.229 25.7501 67.089C25.7501 66.679 25.7501 66.299 25.7601 65.929C25.7601 65.199 25.7601 64.559 25.7601 64.019C25.7601 62.949 25.7601 62.319 25.7601 62.319C25.7601 62.319 25.7201 58.559 25.6801 54.009C25.6101 49.459 25.5301 44.119 25.4901 40.949C25.4001 36.179 25.3601 33.879 25.3301 32.469C25.2401 28.189 25.0901 24.869 24.8501 21.709L24.8701 21.689Z" fill="#101214"/>
</svg>
