<svg width="24" height="24" viewBox="0 0 24 24" fill="none" xmlns="http://www.w3.org/2000/svg">
<mask id="path-1-inside-1_237_7948" fill="white">
<path d="M0 6.39569C0 2.86345 2.86345 0 6.39569 0H17.6043C21.1366 0 24 2.86345 24 6.39569V17.6043C24 21.1366 21.1366 24 17.6043 24H6.39569C2.86345 24 0 21.1366 0 17.6043V6.39569Z"/>
</mask>
<path d="M0 6.39569C0 2.86345 2.86345 0 6.39569 0H17.6043C21.1366 0 24 2.86345 24 6.39569V17.6043C24 21.1366 21.1366 24 17.6043 24H6.39569C2.86345 24 0 21.1366 0 17.6043V6.39569Z" fill="white"/>
<path d="M6.39569 0V1H17.6043V0V-1H6.39569V0ZM24 6.39569H23V17.6043H24H25V6.39569H24ZM17.6043 24V23H6.39569V24V25H17.6043V24ZM0 17.6043H1V6.39569H0H-1V17.6043H0ZM6.39569 24V23C3.41573 23 1 20.5843 1 17.6043H0H-1C-1 21.6888 2.31116 25 6.39569 25V24ZM24 17.6043H23C23 20.5843 20.5843 23 17.6043 23V24V25C21.6888 25 25 21.6888 25 17.6043H24ZM17.6043 0V1C20.5843 1 23 3.41573 23 6.39569H24H25C25 2.31116 21.6888 -1 17.6043 -1V0ZM6.39569 0V-1C2.31116 -1 -1 2.31116 -1 6.39569H0H1C1 3.41573 3.41573 1 6.39569 1V0Z" fill="#0B1228" fill-opacity="0.14" mask="url(#path-1-inside-1_237_7948)"/>
<path d="M5.13672 18.8964C11.5616 19.5376 16.7205 15.7124 18.0075 14.0734C19.2945 12.4341 17.343 4.61426 17.343 4.61426C15.228 9.84458 11.3821 17.7718 5.13672 18.8991V18.8964Z" fill="url(#paint0_linear_237_7948)"/>
<path d="M8.10742 16.8092C11.8974 16.9496 14.782 14.5509 15.4774 13.5564C16.1727 12.5619 15.108 8.08301 15.108 8.08301C14.0548 11.1857 11.1243 15.7066 8.10742 16.809V16.8092Z" fill="url(#paint1_linear_237_7948)"/>
<defs>
<linearGradient id="paint0_linear_237_7948" x1="16.432" y1="5.71658" x2="9.22189" y2="19.6452" gradientUnits="userSpaceOnUse">
<stop stop-color="#2B3990"/>
<stop offset="0.16" stop-color="#1E62A7"/>
<stop offset="0.32" stop-color="#1485BC"/>
<stop offset="0.49" stop-color="#0BA1CC"/>
<stop offset="0.66" stop-color="#05B4D7"/>
<stop offset="0.83" stop-color="#01C0DE"/>
<stop offset="1" stop-color="#00C4E0"/>
</linearGradient>
<linearGradient id="paint1_linear_237_7948" x1="-752.803" y1="-1320.36" x2="-408.848" y2="-865.362" gradientUnits="userSpaceOnUse">
<stop stop-color="#2B3990"/>
<stop offset="0.16" stop-color="#1E62A7"/>
<stop offset="0.32" stop-color="#1485BC"/>
<stop offset="0.49" stop-color="#0BA1CC"/>
<stop offset="0.66" stop-color="#05B4D7"/>
<stop offset="0.83" stop-color="#01C0DE"/>
<stop offset="1" stop-color="#00C4E0"/>
</linearGradient>
</defs>
</svg>
