<svg width="80" height="80" viewBox="0 0 80 80" fill="none" xmlns="http://www.w3.org/2000/svg">
<path d="M57.89 33.3999C57.89 41.4399 53.57 48.4599 47.13 52.2799L44.5 65.9199H27.39L24.76 52.2799C18.32 48.4699 14 41.4399 14 33.3999C14 21.2799 23.82 11.4399 35.95 11.4399C48.08 11.4399 57.91 21.2699 57.91 33.3999H57.89Z" fill="#4B4D51"/>
<path d="M48.5596 58.8L47.9396 63.3901L46.4896 74.05H25.3996L23.3096 58.8H48.5596Z" fill="#1558BC"/>
<path d="M45.8798 58.8L44.4998 65.9201H27.3898L26.0098 58.8H45.8898H45.8798Z" fill="#6A9A23"/>
<path d="M45.8798 58.8L44.4998 65.9201H27.3898L26.0098 58.8H45.8898H45.8798Z" fill="#101214"/>
<path d="M33.0598 55.68C33.1998 57.97 34.3098 57.97 34.4098 55.66C34.5198 52.38 34.4898 48.93 34.0998 44.51C33.8298 42.01 33.5898 40.47 33.2598 39.07C33.0898 38.38 32.8898 37.73 32.5898 37.05C32.2698 36.39 31.8998 35.6 30.9898 34.95C30.1898 34.41 29.1898 34.23 28.1398 34.48C27.6098 34.61 27.0598 34.95 26.6998 35.44C26.3298 35.93 26.1698 36.49 26.0898 37.01C26.0198 37.54 26.0298 38.04 26.0898 38.55C26.1598 39.06 26.3198 39.6 26.5398 40.07C26.9798 41.03 27.6698 41.79 28.3798 42.41C31.3098 44.86 34.6798 45.3 35.9498 45.35C36.3298 45.37 36.7098 45.35 37.0898 45.33C37.7598 45.25 39.0098 45.11 40.5498 44.54C42.0698 43.98 43.9198 43.01 45.4998 41.31C46.2798 40.46 46.9898 39.43 47.4398 38.22C47.8898 37.01 48.1098 35.76 48.0098 34.37C47.9498 33.68 47.7898 32.96 47.4298 32.28C47.0698 31.61 46.5098 31 45.8798 30.61C44.5998 29.83 43.0998 29.58 41.6398 29.99C41.1298 30.14 40.6398 30.42 40.2198 30.76C39.8098 31.12 39.4998 31.53 39.2798 31.95C38.8298 32.79 38.6798 33.59 38.5698 34.31C38.3798 35.75 38.3898 36.97 38.3898 38.04C38.4098 40.14 38.4298 41.69 38.4498 42.76C38.5098 47.76 38.6498 51.5 38.8998 55.18C39.0398 57.2 40.0098 57.2 40.0998 55.18C40.2798 51.5 40.3598 47.75 40.3198 42.74C40.3098 41.77 40.3698 40.25 40.4098 38.3C40.4398 37.33 40.4698 36.24 40.6098 35.12C40.7498 34.02 41.0598 32.83 41.7298 32.39C42.1398 32.07 42.8298 31.92 43.5298 31.99C44.2798 32.06 45.0598 32.39 45.4898 32.97C45.9598 33.53 46.1398 34.43 46.0998 35.34C46.0698 36.26 45.8498 37.22 45.4998 38.01C45.1398 38.82 44.6198 39.52 44.0598 40.12C42.9298 41.32 41.6198 42.02 40.6998 42.43C39.7598 42.84 39.1698 42.97 39.1698 42.97C39.1698 42.97 38.9498 43.03 38.5598 43.13C38.1598 43.21 37.5898 43.32 36.8698 43.37C35.4498 43.47 33.4198 43.24 31.4498 42.28C29.4898 41.37 27.5998 39.66 27.7398 37.65C27.7398 37.16 27.8598 36.73 28.0398 36.49C28.2098 36.25 28.4798 36.11 28.8398 36.06C29.1898 36.02 29.5898 36.07 29.8598 36.2C30.1398 36.31 30.3698 36.52 30.5598 36.77C31.1498 37.52 31.4098 38.54 31.5898 39.38C31.7698 40.25 31.8598 41.03 31.9398 41.71C32.0998 43.08 32.1998 44.02 32.2598 44.74C32.6598 49.09 32.8698 52.49 33.0898 55.74L33.0598 55.68Z" fill="white"/>
<mask id="mask0_213_29727" style="mask-type:luminance" maskUnits="userSpaceOnUse" x="42" y="5" width="32" height="30">
<path d="M72.9201 23.18C73.1101 22.13 73.2001 21.02 73.2001 19.84C73.2001 18.66 73.1001 17.52 72.9101 16.46C71.7801 10.15 67.3901 6.26 61.2501 5.26C60.2001 5.09 59.1001 5 57.9601 5C56.8201 5 55.6201 5.09 54.5301 5.28C48.3801 6.31 44.0101 10.18 42.8701 16.46C42.6801 17.52 42.5801 18.65 42.5801 19.84C42.5801 21.03 42.6801 22.13 42.8701 23.18C44.0001 29.45 48.3801 33.33 54.5301 34.36C55.6201 34.54 56.7601 34.64 57.9601 34.64C59.1601 34.64 60.2001 34.55 61.2501 34.38C67.4101 33.38 71.7901 29.48 72.9201 23.18Z" fill="white"/>
</mask>
<g mask="url(#mask0_213_29727)">
<path d="M111.441 -29.3875L10.833 -30.9504L9.42294 59.8186L110.031 61.3815L111.441 -29.3875Z" fill="#1558BC"/>
<path d="M81.0301 -29.85L10.8301 -30.95L10.3701 -1.37995C19.3001 9.16005 32.0601 16.05 47.4401 18.86C50.5201 19.42 53.7001 19.8301 56.9701 20.0601C58.7401 20.1901 60.5401 20.27 62.3701 20.3C67.3601 20.38 72.1601 20.07 76.7501 19.4C90.3401 17.41 102 12.17 110.92 3.94005L111.44 -29.38L81.0201 -29.85H81.0301Z" fill="#E56E00"/>
<path d="M81.0297 -29.8499C69.5597 -21.5699 61.5997 -9.22985 58.4497 6.77015C57.6297 10.9601 57.1297 15.3901 56.9797 20.0701C56.9697 20.5501 56.9497 21.0201 56.9497 21.5001C56.8697 26.6401 57.2197 31.5001 57.9697 36.0801C59.5197 45.5301 62.7797 53.7801 67.4797 60.7301L110.04 61.3902L110.93 3.95015L111.45 -29.3699L81.0297 -29.8399V-29.8499Z" fill="#1558BC"/>
<path d="M76.7595 19.4001C103.679 15.4501 123.079 -1.23992 128.409 -28.6499C129.229 -32.8499 129.709 -37.2899 129.849 -41.9799C128.269 -42.0899 126.659 -42.1499 125.039 -42.1799C119.829 -42.2599 114.839 -41.9299 110.069 -41.2099C83.1795 -37.1499 63.8295 -20.5299 58.4495 6.76007C57.6295 10.9501 57.1295 15.3801 56.9795 20.0601C58.7495 20.1901 60.5495 20.2701 62.3795 20.3001C67.3695 20.3801 72.1695 20.0701 76.7595 19.4001Z" fill="#AF59E1"/>
</g>
<path d="M43.9501 12.96C43.4701 14.03 43.1001 15.19 42.8701 16.45C42.6801 17.51 42.5801 18.64 42.5801 19.83C42.5801 21.02 42.6801 22.12 42.8701 23.17C44.0001 29.44 48.3801 33.32 54.5301 34.35C55.5901 34.53 56.7001 34.62 57.8501 34.62C57.8701 34.21 57.8901 33.81 57.8901 33.4C57.8901 24.11 52.1101 16.16 43.9501 12.96Z" fill="#101214"/>
<path d="M48.8604 19.8201H68.9104" stroke="white" stroke-width="3.29" stroke-miterlimit="10"/>
<path d="M57.9297 9.79004V29.84" stroke="white" stroke-width="3.29" stroke-miterlimit="10"/>
<mask id="mask1_213_29727" style="mask-type:luminance" maskUnits="userSpaceOnUse" x="23" y="58" width="26" height="17">
<path d="M48.5596 58.8L47.9396 63.3901L46.4896 74.05H25.3996L23.3096 58.8H48.5596Z" fill="white"/>
</mask>
<g mask="url(#mask1_213_29727)">
<path d="M70.6794 62.44C57.9994 61.71 45.4694 65.78 34.1994 75.13C31.2494 77.58 28.3894 80.38 25.6394 83.56C25.3594 83.88 25.0794 84.21 24.7994 84.54C21.8294 88.07 19.3194 91.65 17.2494 95.27C12.9694 102.73 10.5594 110.31 9.89941 117.81L39.1494 142.39L72.3294 102.91L91.5794 80.01L70.6794 62.44Z" fill="#E56E00"/>
</g>
</svg>
