<svg width="275" height="275" viewBox="0 0 275 275" fill="none" xmlns="http://www.w3.org/2000/svg">
<path d="M52 210.151C52 210.151 144.58 221.161 192.23 209.651V42.001C192.23 42.001 116.67 60.511 52 41.001C52 41.001 53.02 210.911 52 210.161V210.151Z" fill="#DDDEE1"/>
<path fill-rule="evenodd" clip-rule="evenodd" d="M172.4 88.501H71.8398V81.501H172.4V88.501Z" fill="white"/>
<path fill-rule="evenodd" clip-rule="evenodd" d="M172.4 113.131H71.8398V106.131H172.4V113.131Z" fill="white"/>
<path fill-rule="evenodd" clip-rule="evenodd" d="M172.4 137.771H71.8398V130.771H172.4V137.771Z" fill="white"/>
<path fill-rule="evenodd" clip-rule="evenodd" d="M172.4 162.401H71.8398V155.401H172.4V162.401Z" fill="white"/>
<path d="M222.091 210.221C222.491 207.981 222.701 205.601 222.701 203.081C222.701 200.561 222.491 198.111 222.081 195.851C219.661 182.361 210.281 174.041 197.141 171.901C194.901 171.541 192.551 171.351 190.101 171.351C187.551 171.351 185.101 171.551 182.771 171.941C169.621 174.141 160.261 182.431 157.831 195.851C157.421 198.121 157.211 200.531 157.211 203.081C157.211 205.631 157.421 207.981 157.821 210.221C160.231 223.621 169.591 231.931 182.771 234.131C185.101 234.521 187.551 234.721 190.101 234.721C192.551 234.721 194.901 234.531 197.141 234.171C210.301 232.031 219.691 223.701 222.091 210.221Z" fill="#1868DB"/>
<path d="M192.229 171.411C191.529 171.381 190.819 171.361 190.089 171.361C187.539 171.361 185.089 171.561 182.759 171.951C169.609 174.141 160.249 182.441 157.819 195.861C157.409 198.131 157.199 200.541 157.199 203.091C157.199 205.611 157.409 207.991 157.809 210.231C158.059 211.601 158.389 212.901 158.779 214.171C171.009 213.411 182.539 212.001 192.219 209.661V171.411H192.229Z" fill="#09326C"/>
<path fill-rule="evenodd" clip-rule="evenodd" d="M211.95 207.301H169.5V200.301H211.95V207.301Z" fill="white"/>
<path fill-rule="evenodd" clip-rule="evenodd" d="M187.23 225.021V182.581H194.23V225.021H187.23Z" fill="white"/>
</svg>
