<svg width="16" height="16" viewBox="0 0 16 16" fill="none" xmlns="http://www.w3.org/2000/svg">
<g clip-path="url(#clip0_237_7544)">
<path d="M1.50391 3.73242V11.7324L8.35273 15.7294V13.7338L3.21611 10.7288V4.73025L1.50391 3.73242Z" fill="#F96B13"/>
<path d="M13.4883 4.73025V12.7302L15.2005 11.7324V3.73242L13.4883 4.73025Z" fill="#CC4E00"/>
<path d="M6.64062 0.72732L13.4895 4.73017L15.2017 3.73234L8.35283 -0.270508L6.64062 0.72732Z" fill="#FFCA73"/>
<path d="M1.50391 3.73211L3.21611 4.72994L4.92832 3.73211L3.21611 2.72852L1.50391 3.73211Z" fill="#FFCA73"/>
<path d="M3.21484 4.73025V10.7288L4.92705 9.7309V3.73242L3.21484 4.73025Z" fill="#CC4E00"/>
<path d="M8.35156 13.7341V15.7297L10.0638 14.7319V12.7305L8.35156 13.7341Z" fill="#CC4E00"/>
<path d="M3.21484 10.7283L8.35146 13.7333L10.0637 12.7297L4.92705 9.73047L3.21484 10.7283Z" fill="#FFCA73"/>
<path d="M6.64062 0.727539V2.72896L11.7772 5.72824V11.7325L13.4895 12.7303V4.73038L6.64062 0.727539Z" fill="#F96B13"/>
</g>
<defs>
<clipPath id="clip0_237_7544">
<path d="M0 4C0 1.79086 1.79086 0 4 0H12C14.2091 0 16 1.79086 16 4V12C16 14.2091 14.2091 16 12 16H4C1.79086 16 0 14.2091 0 12V4Z" fill="white"/>
</clipPath>
</defs>
</svg>
