<svg width="16" height="16" viewBox="0 0 16 16" fill="none" xmlns="http://www.w3.org/2000/svg">
<mask id="path-1-inside-1_237_7534" fill="white">
<path d="M0 4C0 1.79086 1.79086 0 4 0H12C14.2091 0 16 1.79086 16 4V12C16 14.2091 14.2091 16 12 16H4C1.79086 16 0 14.2091 0 12V4Z"/>
</mask>
<path d="M0 4C0 1.79086 1.79086 0 4 0H12C14.2091 0 16 1.79086 16 4V12C16 14.2091 14.2091 16 12 16H4C1.79086 16 0 14.2091 0 12V4Z" fill="white"/>
<path d="M4 0V1H12V0V-1H4V0ZM16 4H15V12H16H17V4H16ZM12 16V15H4V16V17H12V16ZM0 12H1V4H0H-1V12H0ZM4 16V15C2.34315 15 1 13.6569 1 12H0H-1C-1 14.7614 1.23858 17 4 17V16ZM16 12H15C15 13.6569 13.6569 15 12 15V16V17C14.7614 17 17 14.7614 17 12H16ZM12 0V1C13.6569 1 15 2.34315 15 4H16H17C17 1.23858 14.7614 -1 12 -1V0ZM4 0V-1C1.23858 -1 -1 1.23858 -1 4H0H1C1 2.34315 2.34315 1 4 1V0Z" fill="#0B1228" fill-opacity="0.14" mask="url(#path-1-inside-1_237_7534)"/>
<path d="M3.43359 5.33594V10.6692L7.99948 13.3339V12.0035L4.57506 10.0002V6.00116L3.43359 5.33594Z" fill="#F96B13"/>
<path d="M11.4238 6.00116V11.3344L12.5653 10.6692V5.33594L11.4238 6.00116Z" fill="#CC4E00"/>
<path d="M6.85742 3.33221L11.4233 6.00078L12.5648 5.33556L7.99889 2.66699L6.85742 3.33221Z" fill="#FFCA73"/>
<path d="M3.43359 5.33508L4.57506 6.0003L5.71654 5.33508L4.57506 4.66602L3.43359 5.33508Z" fill="#FFCA73"/>
<path d="M4.57422 6.00116V10.0002L5.71569 9.33492V5.33594L4.57422 6.00116Z" fill="#CC4E00"/>
<path d="M8 12.0031V13.3335L9.14147 12.6683V11.334L8 12.0031Z" fill="#CC4E00"/>
<path d="M4.57422 10.0002L7.99863 12.0035L9.1401 11.3345L5.71569 9.33496L4.57422 10.0002Z" fill="#FFCA73"/>
<path d="M6.85742 3.33203V4.66631L10.2818 6.66583V10.6687L11.4233 11.3339V6.00059L6.85742 3.33203Z" fill="#F96B13"/>
</svg>
