<svg width="20" height="20" viewBox="0 0 20 20" fill="none" xmlns="http://www.w3.org/2000/svg">
<mask id="path-1-inside-1_237_7524" fill="white">
<path d="M0 5C0 2.23858 2.23858 0 5 0H15C17.7614 0 20 2.23858 20 5V15C20 17.7614 17.7614 20 15 20H5C2.23858 20 0 17.7614 0 15V5Z"/>
</mask>
<path d="M0 5C0 2.23858 2.23858 0 5 0H15C17.7614 0 20 2.23858 20 5V15C20 17.7614 17.7614 20 15 20H5C2.23858 20 0 17.7614 0 15V5Z" fill="white"/>
<path d="M5 0V1H15V0V-1H5V0ZM20 5H19V15H20H21V5H20ZM15 20V19H5V20V21H15V20ZM0 15H1V5H0H-1V15H0ZM5 20V19C2.79086 19 1 17.2091 1 15H0H-1C-1 18.3137 1.68629 21 5 21V20ZM20 15H19C19 17.2091 17.2091 19 15 19V20V21C18.3137 21 21 18.3137 21 15H20ZM15 0V1C17.2091 1 19 2.79086 19 5H20H21C21 1.68629 18.3137 -1 15 -1V0ZM5 0V-1C1.68629 -1 -1 1.68629 -1 5H0H1C1 2.79086 2.79086 1 5 1V0Z" fill="#0B1228" fill-opacity="0.14" mask="url(#path-1-inside-1_237_7524)"/>
<path d="M4.29297 6.66895V13.3357L10.0002 16.6667V15.0036L5.71978 12.4994V7.50049L4.29297 6.66895Z" fill="#F96B13"/>
<path d="M14.2812 7.50049V14.1672L15.7081 13.3357V6.66895L14.2812 7.50049Z" fill="#CC4E00"/>
<path d="M8.57422 4.16455L14.2814 7.50033L15.7083 6.66879L10.001 3.33301L8.57422 4.16455Z" fill="#FFCA73"/>
<path d="M4.29297 6.66838L5.71978 7.49993L7.14658 6.66838L5.71978 5.83203L4.29297 6.66838Z" fill="#FFCA73"/>
<path d="M5.7207 7.50049V12.4994L7.14751 11.6678V6.66895L5.7207 7.50049Z" fill="#CC4E00"/>
<path d="M10 15.0033V16.6664L11.4268 15.8349V14.167L10 15.0033Z" fill="#CC4E00"/>
<path d="M5.7207 12.4986L10.0011 15.0028L11.4279 14.1664L7.14751 11.667L5.7207 12.4986Z" fill="#FFCA73"/>
<path d="M8.57422 4.16406V5.83195L12.8546 8.33141V13.3351L14.2814 14.1666V7.49984L8.57422 4.16406Z" fill="#F96B13"/>
</svg>
