<svg width="24" height="24" viewBox="0 0 24 24" fill="none" xmlns="http://www.w3.org/2000/svg">
<mask id="path-1-inside-1_237_7514" fill="white">
<path d="M0 6.39569C0 2.86345 2.86345 0 6.39569 0H17.6043C21.1366 0 24 2.86345 24 6.39569V17.6043C24 21.1366 21.1366 24 17.6043 24H6.39569C2.86345 24 0 21.1366 0 17.6043V6.39569Z"/>
</mask>
<path d="M0 6.39569C0 2.86345 2.86345 0 6.39569 0H17.6043C21.1366 0 24 2.86345 24 6.39569V17.6043C24 21.1366 21.1366 24 17.6043 24H6.39569C2.86345 24 0 21.1366 0 17.6043V6.39569Z" fill="white"/>
<path d="M6.39569 0V1H17.6043V0V-1H6.39569V0ZM24 6.39569H23V17.6043H24H25V6.39569H24ZM17.6043 24V23H6.39569V24V25H17.6043V24ZM0 17.6043H1V6.39569H0H-1V17.6043H0ZM6.39569 24V23C3.41573 23 1 20.5843 1 17.6043H0H-1C-1 21.6888 2.31116 25 6.39569 25V24ZM24 17.6043H23C23 20.5843 20.5843 23 17.6043 23V24V25C21.6888 25 25 21.6888 25 17.6043H24ZM17.6043 0V1C20.5843 1 23 3.41573 23 6.39569H24H25C25 2.31116 21.6888 -1 17.6043 -1V0ZM6.39569 0V-1C2.31116 -1 -1 2.31116 -1 6.39569H0H1C1 3.41573 3.41573 1 6.39569 1V0Z" fill="#0B1228" fill-opacity="0.14" mask="url(#path-1-inside-1_237_7514)"/>
<path d="M5.15234 8.00293V16.0029L12.0012 19.9999V18.0043L6.86455 14.9993V9.00076L5.15234 8.00293Z" fill="#F96B13"/>
<path d="M17.1387 9.00076V17.0007L18.8509 16.0029V8.00293L17.1387 9.00076Z" fill="#CC4E00"/>
<path d="M10.2891 4.99783L17.1379 9.00068L18.8501 8.00285L12.0013 4L10.2891 4.99783Z" fill="#FFCA73"/>
<path d="M5.15234 8.00262L6.86455 9.00045L8.57676 8.00262L6.86455 6.99902L5.15234 8.00262Z" fill="#FFCA73"/>
<path d="M6.86523 9.00076V14.9993L8.57744 14.0014V8.00293L6.86523 9.00076Z" fill="#CC4E00"/>
<path d="M12.002 18.0046V20.0002L13.7142 19.0024V17.001L12.002 18.0046Z" fill="#CC4E00"/>
<path d="M6.86523 14.9988L12.0019 18.0038L13.7141 17.0002L8.57744 14.001L6.86523 14.9988Z" fill="#FFCA73"/>
<path d="M10.2891 4.99805V6.99947L15.4257 9.99875V16.003L17.1379 17.0008V9.00089L10.2891 4.99805Z" fill="#F96B13"/>
</svg>
