<svg width="32" height="32" viewBox="0 0 32 32" fill="none" xmlns="http://www.w3.org/2000/svg">
<mask id="path-1-inside-1_237_7504" fill="white">
<path d="M0 8C0 3.58172 3.58172 0 8 0H24C28.4183 0 32 3.58172 32 8V24C32 28.4183 28.4183 32 24 32H8C3.58172 32 0 28.4183 0 24V8Z"/>
</mask>
<path d="M0 8C0 3.58172 3.58172 0 8 0H24C28.4183 0 32 3.58172 32 8V24C32 28.4183 28.4183 32 24 32H8C3.58172 32 0 28.4183 0 24V8Z" fill="white"/>
<path d="M8 0V1H24V0V-1H8V0ZM32 8H31V24H32H33V8H32ZM24 32V31H8V32V33H24V32ZM0 24H1V8H0H-1V24H0ZM8 32V31C4.13401 31 1 27.866 1 24H0H-1C-1 28.9706 3.02944 33 8 33V32ZM32 24H31C31 27.866 27.866 31 24 31V32V33C28.9706 33 33 28.9706 33 24H32ZM24 0V1C27.866 1 31 4.13401 31 8H32H33C33 3.02944 28.9706 -1 24 -1V0ZM8 0V-1C3.02944 -1 -1 3.02944 -1 8H0H1C1 4.13401 4.13401 1 8 1V0Z" fill="#0B1228" fill-opacity="0.14" mask="url(#path-1-inside-1_237_7504)"/>
<path d="M6.86914 10.6709V21.3375L16.0009 26.6669V24.006L9.15208 19.9993V12.0013L6.86914 10.6709Z" fill="#F96B13"/>
<path d="M22.8496 12.0013V22.6679L25.1326 21.3375V10.6709L22.8496 12.0013Z" fill="#CC4E00"/>
<path d="M13.7168 6.66442L22.8486 12.0016L25.1315 10.6711L15.9997 5.33398L13.7168 6.66442Z" fill="#FFCA73"/>
<path d="M6.86914 10.6711L9.15208 12.0016L11.435 10.6711L9.15208 9.33301L6.86914 10.6711Z" fill="#FFCA73"/>
<path d="M9.15234 12.0013V19.9993L11.4353 18.6689V10.6709L9.15234 12.0013Z" fill="#CC4E00"/>
<path d="M16 24.0061V26.667L18.2829 25.3366V22.668L16 24.0061Z" fill="#CC4E00"/>
<path d="M9.15234 19.9994L16.0012 24.0061L18.2841 22.668L11.4353 18.6689L9.15234 19.9994Z" fill="#FFCA73"/>
<path d="M13.7168 6.66406V9.33262L20.5656 13.3317V21.3374L22.8486 22.6678V12.0012L13.7168 6.66406Z" fill="#F96B13"/>
</svg>
