<svg width="96" height="96" viewBox="0 0 96 96" fill="none" xmlns="http://www.w3.org/2000/svg">
<path d="M33.84 80.3402C30.29 80.3402 26.81 79.2902 23.86 77.3102C20.91 75.3402 18.6 72.5302 17.24 69.2502C15.88 65.9702 15.52 62.3602 16.22 58.8702C16.91 55.3902 18.62 52.1802 21.14 49.6702C23.65 47.1602 26.85 45.4502 30.34 44.7502C33.82 44.0602 37.44 44.4102 40.72 45.7702C44 47.1302 46.81 49.4302 48.78 52.3902C50.75 55.3402 51.81 58.8202 51.81 62.3702C51.81 67.1302 49.91 71.7002 46.54 75.0702C43.17 78.4402 38.61 80.3302 33.84 80.3402ZM33.84 53.0402C31.99 53.0402 30.18 53.5802 28.64 54.6102C27.1 55.6402 25.9 57.1002 25.19 58.8002C24.48 60.5102 24.3 62.3902 24.66 64.2002C25.02 66.0102 25.91 67.6802 27.22 68.9902C28.53 70.3002 30.19 71.1902 32.01 71.5502C33.82 71.9102 35.7 71.7202 37.41 71.0102C39.12 70.3002 40.58 69.1002 41.6 67.5602C42.63 66.0202 43.17 64.2102 43.17 62.3602C43.17 59.8902 42.18 57.5102 40.43 55.7602C38.68 54.0102 36.31 53.0202 33.83 53.0202L33.84 53.0402Z" fill="#FCA700"/>
<path d="M15.8799 16.1602V39.5202H56.6899V28.8402H80.0399V16.1602H15.8799Z" fill="#FCA700"/>
<path d="M80.0502 39.5102H56.7002V80.3202H80.0502V39.5102Z" fill="#1868DB"/>
<path d="M80.0502 28.8402H56.7002V39.5202H80.0502V28.8402Z" fill="#101214"/>
<path d="M16.88 78.34C16.05 79.36 16.99 79.99 17.84 79.29C19.17 78.2 20.52 77 22.19 75.38C24.04 73.5 24.34 72.88 25.64 71.65C27.8 69.54 31.65 66.21 32.59 65.41C32.73 65.29 32.86 65.17 32.99 65.04C33.89 64.1 37.84 60 41.4 56.61C43.86 54.17 45.38 52.65 46.18 51.86C48.04 49.97 49.36 48.5 50.54 46.89C51.35 45.65 50.22 45.6 49.64 46.09C48.2 47.35 46.71 48.67 44.85 50.53C44.12 51.25 42.42 52.58 40.24 54.66C39.88 55 39.55 55.36 39.23 55.73C36.48 58.94 32.5 62.7 32.5 62.7C32.5 62.7 26.66 68.4 24.19 70.81C22.34 72.63 21.44 73.5 20.89 74.04C19.23 75.67 18 77 16.9 78.34H16.88Z" fill="#101214"/>
<path d="M17.8602 45.91C16.8402 45.08 16.2102 46.02 16.9102 46.87C18.0002 48.2 19.2002 49.55 20.8202 51.22C22.7002 53.07 23.3202 53.37 24.5502 54.67C26.6602 56.83 29.9902 60.68 30.7902 61.61C30.9102 61.75 31.0302 61.88 31.1602 62.01C32.1002 62.91 36.2002 66.86 39.5902 70.41C42.0302 72.87 43.5502 74.39 44.3402 75.19C46.2302 77.05 47.7002 78.37 49.3102 79.55C50.5502 80.36 50.6002 79.23 50.1102 78.65C48.8502 77.21 47.5302 75.72 45.6702 73.86C44.9502 73.13 43.6202 71.43 41.5402 69.25C41.2002 68.89 40.8402 68.56 40.4702 68.24C37.2602 65.49 33.5002 61.51 33.5002 61.51C33.5002 61.51 27.8002 55.67 25.3902 53.2C23.5702 51.35 22.7002 50.45 22.1602 49.9C20.5302 48.24 19.2002 47.01 17.8602 45.91Z" fill="#101214"/>
<path d="M37.43 40.1C39.81 39.98 39.81 38.87 37.43 38.75C34.06 38.58 30.52 38.5 25.97 38.49C23.39 38.52 21.78 38.59 20.38 38.65C19.68 38.68 19.03 38.7 18.34 38.73C17.99 38.73 17.64 38.74 17.26 38.75C17.09 38.75 16.9 38.75 16.7 38.75H16.64C16.66 37.5 16.67 36.05 16.69 34.54C16.73 32.75 16.77 30.9 16.8 29.15C16.9 25.66 16.99 22.61 17.02 21.42C17.03 21.07 17.03 20.71 17.02 20.35C17.02 20.02 17.02 19.48 16.99 17.29C16.99 17.29 17 17.27 17.03 17.27C17.51 17.27 18.08 17.25 18.72 17.24C20 17.23 21.58 17.21 23.33 17.19C26.83 17.16 31.03 17.16 34.97 17.19H38.17V25.1C38.17 30.28 38.29 34.15 38.5 37.95C38.62 40.04 39.59 40.04 39.7 37.95C39.91 34.15 40.03 30.28 40.03 25.1C40.03 24.31 40.07 23.17 40.13 21.69C40.16 20.95 40.18 20.12 40.21 19.19C40.22 18.73 40.24 18.25 40.25 17.74C40.26 16.88 40.27 15.98 40.29 15.05C39.27 15.04 37.69 15.02 36 15C35.04 15 34.07 15.01 33.12 15.05C29.96 15.19 26.44 15.26 23.31 15.29C21.75 15.3 20.28 15.31 19 15.32C17.39 15.32 16.01 15.32 15 15.32C15 16.97 15 17.85 15 17.85V40.37H16.85C21.97 40.37 24.43 40.37 25.95 40.37C30.5 40.37 34.04 40.27 37.41 40.11L37.43 40.1Z" fill="#101214"/>
</svg>
