<svg width="96" height="96" viewBox="0 0 96 96" fill="none" xmlns="http://www.w3.org/2000/svg">
<path d="M33.84 80.3402C30.29 80.3402 26.81 79.2902 23.86 77.3102C20.91 75.3402 18.6 72.5302 17.24 69.2502C15.88 65.9702 15.52 62.3602 16.22 58.8702C16.91 55.3902 18.62 52.1802 21.14 49.6702C23.65 47.1602 26.85 45.4502 30.34 44.7502C33.82 44.0602 37.44 44.4102 40.72 45.7702C44 47.1302 46.81 49.4302 48.78 52.3902C50.75 55.3402 51.81 58.8202 51.81 62.3702C51.81 67.1302 49.91 71.7002 46.54 75.0702C43.17 78.4402 38.61 80.3302 33.84 80.3402ZM33.84 53.0402C31.99 53.0402 30.18 53.5802 28.64 54.6102C27.1 55.6402 25.9 57.1002 25.19 58.8002C24.48 60.5102 24.3 62.3902 24.66 64.2002C25.02 66.0102 25.91 67.6802 27.22 68.9902C28.53 70.3002 30.19 71.1902 32.01 71.5502C33.82 71.9102 35.7 71.7202 37.41 71.0102C39.12 70.3002 40.58 69.1002 41.6 67.5602C42.63 66.0202 43.17 64.2102 43.17 62.3602C43.17 59.8902 42.18 57.5102 40.43 55.7602C38.68 54.0102 36.31 53.0202 33.83 53.0202L33.84 53.0402Z" fill="#FCA700"/>
<path d="M15.8799 16.1602V39.5202H56.6899V28.8402H80.0399V16.1602H15.8799Z" fill="#FCA700"/>
<path d="M80.0502 39.5102H56.7002V80.3202H80.0502V39.5102Z" fill="#1868DB"/>
<path d="M80.0502 28.8401H56.7002V39.5201H80.0502V28.8401Z" fill="#101214"/>
</svg>
