<svg width="16" height="16" viewBox="0 0 16 16" fill="none" xmlns="http://www.w3.org/2000/svg">
<path d="M0 4C0 1.79086 1.79086 0 4 0H12C14.2091 0 16 1.79086 16 4V12C16 14.2091 14.2091 16 12 16H4C1.79086 16 0 14.2091 0 12V4Z" fill="#B2E522"/>
<path fill-rule="evenodd" clip-rule="evenodd" d="M10.4932 5.75182C10.4309 5.73105 10.3583 5.74143 10.2856 5.7622L10.0052 5.85566V3.24922C10.0052 3.11423 9.89097 3 9.75597 3H6.06957C5.93458 3 5.82035 3.11423 5.82035 3.24922V5.86604L5.53998 5.77259C5.46729 5.75182 5.3946 5.74143 5.33229 5.7622C5.22845 5.78297 5 5.88681 5 6.2918V8.47248C5.03115 8.6594 5.15576 8.87747 5.43614 8.87747H6.37072C6.46417 8.99169 6.69263 9.17861 7.12876 9.20976C7.13915 9.53167 7.32606 9.80166 7.60644 9.91589V10.5286C7.60644 10.5389 7.59605 10.5493 7.58567 10.5493C6.27726 10.5909 5.44652 11.0062 5.20768 11.1412C5.06231 11.2243 5.03115 11.4008 5.03115 11.5151V11.9927C5.04154 12.1589 5.17653 12.2939 5.35306 12.2939C5.50883 12.2939 5.64382 12.1589 5.65421 12.0031C5.66459 11.8474 5.56075 11.7227 5.41537 11.6812C5.40498 11.6812 5.3946 11.6708 5.3946 11.6604V11.4839C5.3946 11.4424 5.41537 11.4008 5.45691 11.3801C5.80997 11.1828 6.7134 11.0893 7.39875 11.0478H7.59605C7.60644 11.0478 7.61682 11.0582 7.61682 11.0685C7.64797 11.6189 7.71028 12.0862 7.73105 12.3769H7.71028C7.59605 12.3769 7.49221 12.5119 7.49221 12.6885C7.49221 12.865 7.59605 13 7.71028 13H8.12565C8.23988 13 8.34372 12.865 8.34372 12.6885C8.34372 12.5119 8.23988 12.3769 8.12565 12.3769H8.10488C8.10488 12.3769 8.17757 11.6189 8.21911 11.0685C8.21911 11.0582 8.22949 11.0478 8.23988 11.0478H8.43717C9.12253 11.0789 10.026 11.1828 10.379 11.3801C10.4206 11.4008 10.4413 11.4424 10.4413 11.4839V11.6604C10.4413 11.6708 10.4309 11.6812 10.4206 11.6812C10.2752 11.7124 10.1713 11.8474 10.1817 12.0031C10.1921 12.1589 10.3271 12.2939 10.4829 12.2939C10.649 12.2939 10.7944 12.1693 10.8048 11.9927V11.5151C10.8048 11.4008 10.7736 11.2347 10.6282 11.1412C10.3894 11.0062 9.54829 10.5909 8.25026 10.5389C8.23987 10.5389 8.22949 10.5286 8.22949 10.5182V9.9055C8.50986 9.79128 8.69678 9.52129 8.70716 9.19938C9.13292 9.16822 9.36137 8.97092 9.46521 8.86708H10.3998C10.6802 8.86708 10.8048 8.64901 10.8359 8.4621V6.28141C10.8255 5.87643 10.5971 5.78297 10.4932 5.75182ZM5.82035 8.01558L5.3946 8.33749C5.38422 8.34787 5.37383 8.33749 5.37383 8.3271V6.28141C5.37383 6.19834 5.38422 6.0945 5.42575 6.10488L5.79958 6.22949C5.80997 6.22949 5.82035 6.25026 5.82035 6.26064V8.01558ZM10.4413 8.33749L10.0156 8.01558V6.27103C10.0156 6.26064 10.026 6.25026 10.0363 6.23988L10.4102 6.11526C10.4621 6.10488 10.4621 6.20872 10.4621 6.2918V8.33749C10.4621 8.33749 10.4517 8.34787 10.4413 8.33749Z" fill="white"/>
</svg>
