<svg width="20" height="20" viewBox="0 0 20 20" fill="none" xmlns="http://www.w3.org/2000/svg">
<path d="M0 5C0 2.23858 2.23858 0 5 0H15C17.7614 0 20 2.23858 20 5V15C20 17.7614 17.7614 20 15 20H5C2.23858 20 0 17.7614 0 15V5Z" fill="#B2E522"/>
<path fill-rule="evenodd" clip-rule="evenodd" d="M12.5919 7.30218C12.5171 7.27726 12.4299 7.28972 12.3427 7.31464L12.0062 7.42679V4.29907C12.0062 4.13707 11.8692 4 11.7072 4H7.28349C7.1215 4 6.98442 4.13707 6.98442 4.29907V7.43925L6.64797 7.3271C6.56075 7.30218 6.47352 7.28972 6.39875 7.31464C6.27414 7.33956 6 7.46417 6 7.95016V10.567C6.03738 10.7913 6.18692 11.053 6.52336 11.053H7.64486C7.75701 11.19 8.03115 11.4143 8.55452 11.4517C8.56698 11.838 8.79128 12.162 9.12773 12.2991V13.0343C9.12773 13.0467 9.11526 13.0592 9.1028 13.0592C7.53271 13.109 6.53583 13.6075 6.24922 13.7695C6.07477 13.8692 6.03738 14.081 6.03738 14.2181V14.7913C6.04984 14.9907 6.21184 15.1526 6.42368 15.1526C6.61059 15.1526 6.77259 14.9907 6.78505 14.8037C6.79751 14.6168 6.6729 14.4673 6.49844 14.4174C6.48598 14.4174 6.47352 14.405 6.47352 14.3925V14.1807C6.47352 14.1308 6.49844 14.081 6.54829 14.0561C6.97196 13.8193 8.05607 13.7072 8.8785 13.6573H9.11526C9.12773 13.6573 9.14019 13.6698 9.14019 13.6822C9.17757 14.3427 9.25234 14.9034 9.27726 15.2523H9.25234C9.11526 15.2523 8.99065 15.4143 8.99065 15.6262C8.99065 15.838 9.11526 16 9.25234 16H9.75078C9.88785 16 10.0125 15.838 10.0125 15.6262C10.0125 15.4143 9.88785 15.2523 9.75078 15.2523H9.72586C9.72586 15.2523 9.81308 14.3427 9.86293 13.6822C9.86293 13.6698 9.87539 13.6573 9.88785 13.6573H10.1246C10.947 13.6947 12.0312 13.8193 12.4548 14.0561C12.5047 14.081 12.5296 14.1308 12.5296 14.1807V14.3925C12.5296 14.405 12.5171 14.4174 12.5047 14.4174C12.3302 14.4548 12.2056 14.6168 12.2181 14.8037C12.2305 14.9907 12.3925 15.1526 12.5794 15.1526C12.7788 15.1526 12.9533 15.0031 12.9657 14.7913V14.2181C12.9657 14.081 12.9283 13.8816 12.7539 13.7695C12.4673 13.6075 11.4579 13.109 9.90031 13.0467C9.88785 13.0467 9.87539 13.0343 9.87539 13.0218V12.2866C10.2118 12.1495 10.4361 11.8255 10.4486 11.4393C10.9595 11.4019 11.2336 11.1651 11.3583 11.0405H12.4798C12.8162 11.0405 12.9657 10.7788 13.0031 10.5545V7.93769C12.9907 7.45171 12.7165 7.33956 12.5919 7.30218ZM6.98442 10.0187L6.47352 10.405C6.46106 10.4174 6.4486 10.405 6.4486 10.3925V7.93769C6.4486 7.83801 6.46106 7.7134 6.5109 7.72586L6.9595 7.87539C6.97196 7.87539 6.98442 7.90031 6.98442 7.91277V10.0187ZM12.5296 10.405L12.0187 10.0187V7.92523C12.0187 7.91277 12.0312 7.90031 12.0436 7.88785L12.4922 7.73832C12.5545 7.72586 12.5545 7.85047 12.5545 7.95016V10.405C12.5545 10.405 12.5421 10.4174 12.5296 10.405Z" fill="white"/>
</svg>
