<svg width="24" height="24" viewBox="0 0 24 24" fill="none" xmlns="http://www.w3.org/2000/svg">
<path d="M0 6.39569C0 2.86345 2.86345 0 6.39569 0H17.6043C21.1366 0 24 2.86345 24 6.39569V17.6043C24 21.1366 21.1366 24 17.6043 24H6.39569C2.86345 24 0 21.1366 0 17.6043V6.39569Z" fill="#B2E522"/>
<path fill-rule="evenodd" clip-rule="evenodd" d="M15.5542 8.35109C15.4632 8.32074 15.3569 8.33592 15.2507 8.36626L14.841 8.50283V4.69425C14.841 4.49699 14.6741 4.33008 14.4769 4.33008H9.09023C8.89297 4.33008 8.72606 4.49699 8.72606 4.69425V8.518L8.31637 8.38144C8.21016 8.35109 8.10394 8.33592 8.0129 8.36626C7.86116 8.39661 7.52734 8.54835 7.52734 9.14012V12.3266C7.57286 12.5997 7.75495 12.9184 8.16464 12.9184H9.53026C9.66683 13.0853 10.0006 13.3584 10.6379 13.4039C10.6531 13.8743 10.9262 14.2688 11.3359 14.4357V15.331C11.3359 15.3461 11.3208 15.3613 11.3056 15.3613C9.3937 15.422 8.17981 16.0289 7.83082 16.2262C7.61839 16.3476 7.57286 16.6055 7.57286 16.7725V17.4704C7.58804 17.7132 7.7853 17.9105 8.04325 17.9105C8.27085 17.9105 8.46811 17.7132 8.48328 17.4856C8.49846 17.258 8.34672 17.0759 8.13429 17.0152C8.11912 17.0152 8.10394 17.0001 8.10394 16.9849V16.7269C8.10394 16.6662 8.13429 16.6055 8.19498 16.5752C8.71089 16.2869 10.031 16.1503 11.0325 16.0896H11.3208C11.3359 16.0896 11.3511 16.1048 11.3511 16.12C11.3966 16.9242 11.4877 17.607 11.518 18.0319H11.4877C11.3208 18.0319 11.169 18.2291 11.169 18.4871C11.169 18.745 11.3208 18.9423 11.4877 18.9423H12.0946C12.2615 18.9423 12.4133 18.745 12.4133 18.4871C12.4133 18.2291 12.2615 18.0319 12.0946 18.0319H12.0643C12.0643 18.0319 12.1705 16.9242 12.2312 16.12C12.2312 16.1048 12.2463 16.0896 12.2615 16.0896H12.5498C13.5513 16.1352 14.8714 16.2869 15.3873 16.5752C15.448 16.6055 15.4783 16.6662 15.4783 16.7269V16.9849C15.4783 17.0001 15.4632 17.0152 15.448 17.0152C15.2355 17.0608 15.0838 17.258 15.099 17.4856C15.1142 17.7132 15.3114 17.9105 15.539 17.9105C15.7818 17.9105 15.9942 17.7284 16.0094 17.4704V16.7725C16.0094 16.6055 15.9639 16.3628 15.7515 16.2262C15.4025 16.0289 14.1734 15.422 12.2767 15.3461C12.2615 15.3461 12.2463 15.331 12.2463 15.3158V14.4205C12.656 14.2536 12.9292 13.8591 12.9443 13.3887C13.5664 13.3432 13.9003 13.0549 14.052 12.9032H15.4176C15.8273 12.9032 16.0094 12.5845 16.0549 12.3114V9.12495C16.0398 8.53317 15.7059 8.39661 15.5542 8.35109ZM8.72606 11.6589L8.10394 12.1293C8.08877 12.1445 8.07359 12.1293 8.07359 12.1142V9.12495C8.07359 9.00356 8.08877 8.85182 8.14946 8.86699L8.69571 9.04908C8.71089 9.04908 8.72606 9.07942 8.72606 9.0946V11.6589ZM15.4783 12.1293L14.8562 11.6589V9.10977C14.8562 9.0946 14.8714 9.07943 14.8866 9.06425L15.4328 8.88217C15.5087 8.86699 15.5087 9.01873 15.5087 9.14012V12.1293C15.5087 12.1293 15.4935 12.1445 15.4783 12.1293Z" fill="white"/>
</svg>
