<svg width="32" height="32" viewBox="0 0 32 32" fill="none" xmlns="http://www.w3.org/2000/svg">
<path d="M0 8C0 3.58172 3.58172 0 8 0H24C28.4183 0 32 3.58172 32 8V24C32 28.4183 28.4183 32 24 32H8C3.58172 32 0 28.4183 0 24V8Z" fill="#B2E522"/>
<path fill-rule="evenodd" clip-rule="evenodd" d="M20.8879 11.9533C20.7757 11.9159 20.6449 11.9346 20.514 11.972L20.0093 12.1402V7.4486C20.0093 7.20561 19.8037 7 19.5607 7H12.9252C12.6822 7 12.4766 7.20561 12.4766 7.4486V12.1589L11.972 11.9907C11.8411 11.9533 11.7103 11.9346 11.5981 11.972C11.4112 12.0093 11 12.1963 11 12.9252V16.8505C11.0561 17.1869 11.2804 17.5794 11.785 17.5794H13.4673C13.6355 17.785 14.0467 18.1215 14.8318 18.1776C14.8505 18.757 15.1869 19.243 15.6916 19.4486V20.5514C15.6916 20.5701 15.6729 20.5888 15.6542 20.5888C13.2991 20.6635 11.8037 21.4112 11.3738 21.6542C11.1121 21.8037 11.0561 22.1215 11.0561 22.3271V23.1869C11.0748 23.486 11.3178 23.729 11.6355 23.729C11.9159 23.729 12.1589 23.486 12.1776 23.2056C12.1963 22.9252 12.0093 22.7009 11.7477 22.6262C11.729 22.6262 11.7103 22.6075 11.7103 22.5888V22.271C11.7103 22.1963 11.7477 22.1215 11.8224 22.0841C12.4579 21.729 14.0841 21.5607 15.3178 21.486H15.6729C15.6916 21.486 15.7103 21.5047 15.7103 21.5234C15.7664 22.514 15.8785 23.3551 15.9159 23.8785H15.8785C15.6729 23.8785 15.486 24.1215 15.486 24.4393C15.486 24.757 15.6729 25 15.8785 25H16.6262C16.8318 25 17.0187 24.757 17.0187 24.4393C17.0187 24.1215 16.8318 23.8785 16.6262 23.8785H16.5888C16.5888 23.8785 16.7196 22.514 16.7944 21.5234C16.7944 21.5047 16.8131 21.486 16.8318 21.486H17.1869C18.4206 21.5421 20.0467 21.729 20.6822 22.0841C20.757 22.1215 20.7944 22.1963 20.7944 22.271V22.5888C20.7944 22.6075 20.7757 22.6262 20.757 22.6262C20.4953 22.6822 20.3084 22.9252 20.3271 23.2056C20.3458 23.486 20.5888 23.729 20.8692 23.729C21.1682 23.729 21.4299 23.5047 21.4486 23.1869V22.3271C21.4486 22.1215 21.3925 21.8224 21.1308 21.6542C20.7009 21.4112 19.1869 20.6636 16.8505 20.5701C16.8318 20.5701 16.8131 20.5514 16.8131 20.5327V19.4299C17.3178 19.2243 17.6542 18.7383 17.6729 18.1589C18.4393 18.1028 18.8505 17.7477 19.0374 17.5607H20.7196C21.2243 17.5607 21.4486 17.1682 21.5047 16.8318V12.9065C21.486 12.1776 21.0748 12.0093 20.8879 11.9533ZM12.4766 16.028L11.7103 16.6075C11.6916 16.6262 11.6729 16.6075 11.6729 16.5888V12.9065C11.6729 12.757 11.6916 12.5701 11.7664 12.5888L12.4393 12.8131C12.4579 12.8131 12.4766 12.8505 12.4766 12.8692V16.028ZM20.7944 16.6075L20.028 16.028V12.8879C20.028 12.8692 20.0467 12.8505 20.0654 12.8318L20.7383 12.6075C20.8318 12.5888 20.8318 12.7757 20.8318 12.9252V16.6075C20.8318 16.6075 20.8131 16.6262 20.7944 16.6075Z" fill="white"/>
</svg>
