<svg width="96" height="96" viewBox="0 0 96 96" fill="none" xmlns="http://www.w3.org/2000/svg">
<path d="M58.1574 62.7407C69.2174 62.7407 78.1874 53.7707 78.1874 42.7107C78.1874 31.6507 69.2174 22.6807 58.1574 22.6807C47.0974 22.6807 38.1274 31.6507 38.1274 42.7107C38.1274 53.7707 47.0974 62.7407 58.1574 62.7407Z" fill="#FCA700"/>
<path d="M78.8475 80.2607L68.4875 52.4107H47.8275L37.4675 80.2607L53.6775 86.2907L58.1575 74.2407L62.6375 86.2907L78.8475 80.2607Z" fill="#1868DB"/>
<path d="M70.6974 58.3307C67.2574 61.0907 62.8974 62.7407 58.1574 62.7407C53.4174 62.7407 49.0674 61.0907 45.6274 58.3407L47.8274 52.4107H68.5074L70.7074 58.3307H70.6974Z" fill="#09326C"/>
<path d="M44.6676 24.9009C44.7176 25.0109 44.8376 25.0909 44.9776 25.1309C45.1176 25.1509 45.2776 25.0909 45.4176 25.0309C45.5576 24.9709 45.6676 24.8809 45.7776 24.8209C45.8976 24.7809 45.9676 24.7209 45.9876 24.6409C46.0576 24.1309 46.0876 23.5109 46.0176 22.7509C45.8876 21.8909 45.6376 21.6909 45.6076 21.0909C45.5176 20.0909 45.6976 18.3709 45.7476 17.9509C45.7476 17.8909 45.7476 17.8309 45.7476 17.7709C45.6676 17.3409 45.3576 15.4509 45.3076 13.8009C45.2076 12.6409 45.1376 11.9209 45.1076 11.5409C45.0076 10.6409 44.8376 10.0109 44.4876 9.31085C44.4376 9.22085 44.3276 9.12085 44.1876 9.08085C44.0876 9.01085 44.0576 9.05085 43.9076 9.00085C43.7676 8.99085 43.7276 9.07085 43.7276 9.13085C43.7276 9.20085 43.7276 9.28085 43.6976 9.27085C43.6976 9.27085 43.5576 9.39085 43.4876 9.39085C43.3876 9.45085 43.3176 9.49085 43.3076 9.58085C43.2076 10.1809 43.1576 10.8609 43.2376 11.7309C43.2676 12.0709 43.0676 12.8009 43.1076 13.8109C43.1076 13.9709 43.1476 14.1409 43.1976 14.3009C43.6776 15.6709 43.7076 17.5109 43.7076 17.5109C43.7076 17.5109 43.9176 20.2409 44.0076 21.3909C44.0876 22.2609 44.1276 22.6809 44.1476 22.9409C44.2376 23.7309 44.3776 24.3209 44.6576 24.9209L44.6676 24.9009Z" fill="#101214"/>
<path d="M35.6577 30.1009C35.7477 30.1309 35.9777 30.1509 36.0677 30.0609C36.1777 30.0009 36.2477 29.8009 36.2677 29.7409C36.3077 29.5709 36.3377 29.4008 36.3777 29.2608C36.3977 29.2008 36.4177 29.1409 36.4277 29.1009C36.4577 29.0709 36.4677 29.0409 36.4177 28.9909C36.0477 28.5409 35.5977 28.0909 34.9577 27.6109C34.1977 27.1109 33.8777 27.1609 33.3977 26.7709C32.5677 26.1509 31.3477 24.8409 31.0577 24.5209C31.0177 24.4709 30.9677 24.4309 30.9077 24.4009C30.5277 24.1609 28.8477 23.1109 27.5377 22.0309C26.5677 21.3209 25.9677 20.8709 25.6577 20.6409C24.9077 20.1009 24.2977 19.7909 23.5777 19.5709C22.7277 19.2909 23.0377 20.4609 22.9277 20.5809C23.3377 21.1009 23.8277 21.6109 24.5477 22.1509C24.8277 22.3609 25.2677 23.0109 26.0777 23.6809C26.2077 23.7909 26.3577 23.8709 26.5177 23.9409C27.8977 24.5209 29.3477 25.7409 29.3477 25.7409C29.3477 25.7409 31.6077 27.4409 32.5577 28.1609C33.2777 28.7009 33.6277 28.9509 33.8377 29.1109C34.4877 29.5909 35.0477 29.8909 35.6477 30.1009H35.6577Z" fill="#101214"/>
<path d="M33.6177 39.7809C33.8177 39.6609 34.3177 38.6009 33.6577 38.4309C33.0577 38.2509 32.4577 38.1609 31.6777 38.1609C30.7977 38.2209 30.5777 38.4509 29.9777 38.4309C28.9677 38.4309 27.2677 38.1409 26.8577 38.0709C26.7977 38.0609 26.7377 38.0609 26.6777 38.0709C26.2477 38.1209 24.3377 38.3109 22.6977 38.2409C21.5377 38.2609 20.8277 38.2609 20.4477 38.2709C19.5677 38.2909 18.9077 38.4109 18.2677 38.6209C18.0177 38.7309 17.8177 39.7009 18.2677 39.8209C18.9277 40.0309 19.5877 40.1409 20.4677 40.1409C20.8077 40.1409 21.5277 40.4009 22.5377 40.4309C22.6977 40.4309 22.8677 40.4209 23.0277 40.3709C24.4377 39.9909 26.2577 40.0709 26.2577 40.0709C26.2577 40.0709 28.9877 40.0509 30.1377 40.0409C31.0077 40.0409 31.4177 40.0309 31.6777 40.0309C32.4477 40.0309 33.0577 39.9309 33.6177 39.7809Z" fill="#101214"/>
</svg>
