<svg width="96" height="96" viewBox="0 0 96 96" fill="none" xmlns="http://www.w3.org/2000/svg">
<path d="M58.1574 62.7407C69.2174 62.7407 78.1874 53.7707 78.1874 42.7107C78.1874 31.6507 69.2174 22.6807 58.1574 22.6807C47.0974 22.6807 38.1274 31.6507 38.1274 42.7107C38.1274 53.7707 47.0974 62.7407 58.1574 62.7407Z" fill="#FCA700"/>
<path d="M78.8475 80.2607L68.4875 52.4107H47.8275L37.4675 80.2607L53.6775 86.2907L58.1575 74.2407L62.6375 86.2907L78.8475 80.2607Z" fill="#1868DB"/>
<path d="M70.6974 58.3307C67.2574 61.0907 62.8974 62.7407 58.1574 62.7407C53.4174 62.7407 49.0674 61.0907 45.6274 58.3407L47.8274 52.4107H68.5074L70.7074 58.3307H70.6974Z" fill="#09326C"/>
</svg>
