<svg width="43" height="48" viewBox="0 0 43 48" fill="none" xmlns="http://www.w3.org/2000/svg">
<path d="M19.01 0.922148C20.24 0.212148 21.76 0.212148 23 0.922148L40 10.6921C41.24 11.4021 42.01 12.7321 42.01 14.1621V33.6721C42.01 35.1021 41.24 36.4221 40 37.1421L23 46.9121C21.77 47.6221 20.25 47.6221 19.01 46.9121L2.01 37.1321C0.77 36.4221 0 35.0921 0 33.6621V14.1621C0 12.7321 0.77 11.4121 2.01 10.6921L19.01 0.922148Z" fill="#1868DB"/>
<path d="M36.4814 19.2523C36.9414 20.0823 38.0514 19.8423 37.7014 18.6823C37.1214 17.1523 36.1614 15.6423 34.3914 14.2823C33.3614 13.5523 32.5914 13.2623 31.9114 13.0723C31.2314 12.8923 30.6514 12.7723 29.7714 12.6923C29.5814 12.6823 29.3914 12.6723 29.1914 12.6623C28.9914 12.6623 28.7814 12.6923 28.5714 12.7123C28.1414 12.7223 27.7014 12.8623 27.2514 12.9823C26.8114 13.1123 26.3914 13.3423 25.9714 13.5323L25.4014 13.9123C25.2014 14.0623 25.0514 14.1123 24.8014 14.3623C24.3514 14.7923 24.1114 15.3523 24.0114 15.8623C23.9214 16.3723 23.9514 16.8623 24.0514 17.2923C24.2514 18.1523 24.8214 18.8123 25.2614 19.0623C25.5014 19.2323 25.8114 19.3323 26.1114 19.3823C26.2414 19.3923 26.4114 19.4023 26.6014 19.3923C26.7814 19.3723 26.9714 19.3323 27.1914 19.2823C27.3814 19.2123 27.5814 19.1223 27.7914 19.0123C27.9714 18.8923 28.1714 18.7623 28.3714 18.6023C28.7514 18.2423 29.1514 17.7423 29.3114 17.1323C29.4814 16.5323 29.5114 15.8823 29.4014 15.3023C28.9414 12.9423 27.3214 10.9723 25.6314 9.42231C23.1514 7.29231 21.0714 6.73231 20.0414 6.47231C17.5214 5.90231 15.4214 6.52231 13.9214 7.58231C13.0914 8.21231 13.7114 8.97231 14.5014 8.64231C15.9914 8.09231 17.5614 7.83231 19.6214 8.30231C20.4214 8.48231 22.0114 9.24231 23.8614 10.8023C24.1614 11.0623 24.4714 11.3023 24.7714 11.5523C26.1014 12.5823 27.3514 14.2923 27.5214 15.6223C27.7414 16.9823 26.8614 17.2123 26.8914 17.2423C26.9114 17.2423 26.6014 17.4123 26.3814 17.3923C26.2814 17.3823 26.1414 17.3023 26.0014 17.0623C25.8714 16.8323 25.7814 16.4623 25.8314 16.1323C25.8714 15.9723 25.9014 15.8123 25.9914 15.7023C26.0214 15.6323 26.0814 15.6023 26.1214 15.5423C26.1814 15.4823 26.3114 15.4023 26.4014 15.3323C26.6014 15.1923 26.7914 15.0223 27.0014 14.9123C27.2114 14.8023 27.4314 14.7023 27.6314 14.5923C28.4914 14.2523 29.3614 14.2423 30.0014 14.3123C31.9414 14.6823 32.7614 15.4323 33.2514 15.7523C34.7514 16.8723 35.6914 18.0523 36.4614 19.2223L36.4814 19.2523Z" fill="#8FB8F6"/>
<path fill-rule="evenodd" clip-rule="evenodd" d="M26.5109 23.2326L30.0009 23.1426L31.1809 26.0426L34.2609 25.4526L36.0909 28.4326L34.1609 30.9026L36.2109 33.2726L34.5409 36.3426L31.4409 35.9126L30.4209 38.8726L26.9309 38.9626L25.7509 36.0626L22.6709 36.6526L20.8409 33.6726L22.7609 31.2026L20.7109 28.8326L22.3809 25.7626L25.4809 26.1926L26.5009 23.2326H26.5109Z" fill="#101214"/>
<path d="M31.8121 32.2927C31.4721 33.1827 30.7621 33.7427 29.8721 34.0227C29.4621 34.1527 29.0321 34.2227 28.5421 34.2427C28.0521 34.2627 27.5821 34.2127 27.1421 34.1127C26.2321 33.8927 25.4821 33.3827 25.0921 32.5127C24.9121 32.1227 24.8121 31.6727 24.7921 31.1227C24.7721 30.5727 24.8521 30.1027 25.0021 29.6927C25.3421 28.8027 26.0421 28.2527 26.9421 27.9627C27.3721 27.8327 27.8321 27.7627 28.3321 27.7427C28.8021 27.7327 29.2521 27.7727 29.6721 27.8727C30.5721 28.0927 31.3221 28.6027 31.7121 29.4727C31.8921 29.8727 32.0021 30.3427 32.0221 30.8827C32.0421 31.4227 31.9521 31.8927 31.8021 32.2927H31.8121Z" fill="#1868DB"/>
<path fill-rule="evenodd" clip-rule="evenodd" d="M20.3092 26.4823L24.4292 24.8023L24.2892 19.8323L20.0792 18.3823L20.6892 13.9723L16.3192 11.6123L12.9592 14.5323L9.44922 11.8023L5.21922 14.4123L6.06922 18.7823L1.94922 20.4623L2.08922 25.4323L6.29922 26.8723L5.68922 31.2823L10.0592 33.6423L13.4192 30.7123L15.3492 32.2223L16.9292 33.4523L21.1592 30.8423L20.8192 29.0923L20.3092 26.4623V26.4823Z" fill="white"/>
<path d="M18.4277 25.0626C17.8677 26.4326 16.7477 27.2726 15.3677 27.6726C14.7177 27.8626 14.0577 27.9526 13.2977 27.9626C12.5377 27.9626 11.8077 27.8926 11.1377 27.7126C9.72766 27.3326 8.59766 26.5226 8.01766 25.1726C7.75766 24.5626 7.60766 23.8626 7.59766 23.0026C7.59766 22.1526 7.72766 21.4226 7.97766 20.7926C8.52766 19.4326 9.63766 18.5926 11.0377 18.1826C11.7077 17.9926 12.4277 17.8926 13.1877 17.8926C13.9177 17.8926 14.6177 17.9626 15.2677 18.1426C16.6577 18.5126 17.7977 19.3326 18.3777 20.6926C18.6477 21.3126 18.7977 22.0526 18.8077 22.8926C18.8077 23.7326 18.6677 24.4526 18.4277 25.0726V25.0626Z" fill="#8FB8F6"/>
<path d="M15.6211 20.9323C15.9711 21.3423 17.0611 20.9923 16.7711 20.2223C16.3511 19.2123 15.3911 18.1923 13.8211 17.8523C12.9211 17.7123 12.3411 17.8723 11.8811 18.0423C11.4111 18.2323 11.0711 18.4323 10.5911 18.7223C9.78115 19.2223 8.83115 20.1623 8.39115 21.3023C7.95115 22.4123 7.92115 23.4323 7.93115 23.8523C7.93115 23.9723 7.95115 24.0923 7.98115 24.2123C8.08115 24.6123 8.38115 25.8823 9.55115 26.9223C10.6811 27.9523 12.4711 28.4723 14.0811 28.2423C15.1811 28.0423 16.0211 27.6523 16.6311 27.2023C17.2311 26.7523 17.5911 26.3023 17.7911 25.9823C18.2911 25.2223 18.4811 24.4523 18.5311 23.7823C18.5711 23.1023 18.4711 22.4923 18.2811 21.9223C18.0511 21.2923 17.1111 21.5823 17.0911 22.0923C17.0011 23.0523 16.8411 24.0123 16.2311 24.9423C15.9711 25.3123 15.2411 25.8123 13.9511 26.0323C13.7511 26.0623 13.5611 26.1123 13.3611 26.1623C12.5011 26.4123 11.3911 26.0823 10.8211 25.5223C10.5311 25.2523 10.3411 24.9623 10.2411 24.7423C10.1311 24.5223 10.1011 24.3823 10.1011 24.3823C10.1011 24.3823 10.0211 24.1823 9.95115 23.8223C9.89115 23.4723 9.86115 22.9623 9.95115 22.4023C10.0611 21.3023 10.9711 20.3023 11.6411 19.9723C12.5911 19.4623 13.1511 19.6523 13.4511 19.6823C14.4011 19.8823 15.0711 20.3423 15.6211 20.9223V20.9323Z" fill="#101214"/>
</svg>
