<svg width="96" height="96" viewBox="0 0 96 96" fill="none" xmlns="http://www.w3.org/2000/svg">
<path d="M46.5475 64.6387C46.5475 64.6387 34.6475 54.0787 31.6675 49.6187C28.6875 45.1587 28.6875 43.5587 28.6875 40.9987C28.6875 39.4087 28.9375 37.9487 29.4475 36.6287C29.9675 35.2987 30.6775 34.1487 31.5875 33.1787C32.4975 32.2087 33.5575 31.4587 34.7675 30.9287C35.9775 30.3987 37.2875 30.1387 38.7075 30.1387C40.4675 30.1387 42.0175 30.5887 43.3475 31.4887C44.6775 32.3887 45.7475 33.5787 46.5475 35.0487C47.3675 33.5587 48.4375 32.3787 49.7675 31.4887C51.0975 30.5887 52.6375 30.1387 54.3875 30.1387C55.7975 30.1387 57.1175 30.3987 58.3275 30.9287C59.5475 31.4587 60.6075 32.2087 61.5075 33.1787C62.4175 34.1487 63.1275 35.2987 63.6275 36.6287C64.1475 37.9487 64.3975 39.3987 64.3975 40.9987C64.3975 43.5487 64.3175 45.1487 61.4175 49.6187C58.3575 54.0787 46.5375 64.6387 46.5375 64.6387H46.5475Z" fill="#1868DB"/>
<path d="M66.7374 75.1987C66.7374 75.1987 54.8374 64.6387 51.8574 60.1787C48.8774 55.7187 48.8774 54.1187 48.8774 51.5587C48.8774 49.9687 49.1274 48.5087 49.6374 47.1887C50.1574 45.8587 50.8674 44.7087 51.7774 43.7387C52.6874 42.7687 53.7474 42.0187 54.9574 41.4887C56.1674 40.9587 57.4774 40.6987 58.8974 40.6987C60.6574 40.6987 62.2074 41.1487 63.5374 42.0487C64.8674 42.9487 65.9374 44.1387 66.7374 45.6087C67.5574 44.1187 68.6274 42.9387 69.9574 42.0487C71.2874 41.1487 72.8274 40.6987 74.5774 40.6987C75.9874 40.6987 77.3074 40.9587 78.5174 41.4887C79.7374 42.0187 80.7974 42.7687 81.6974 43.7387C82.6074 44.7087 83.3174 45.8587 83.8174 47.1887C84.3374 48.5087 84.5874 49.9587 84.5874 51.5587C84.5874 54.1087 84.5074 55.7087 81.6074 60.1787C78.5474 64.6387 66.7274 75.1987 66.7274 75.1987H66.7374Z" fill="#BF63F3"/>
<path d="M64.3474 42.6686C64.2074 44.4486 63.6474 46.1886 61.4274 49.6186C59.7174 52.1086 55.2674 56.5086 51.6774 59.8986C48.8774 55.6486 48.8774 54.0686 48.8774 51.5686C48.8774 49.9686 49.1374 48.5186 49.6374 47.1986C50.1574 45.8686 50.8674 44.7186 51.7774 43.7486C52.6874 42.7686 53.7474 42.0286 54.9574 41.4986C56.1674 40.9686 57.4874 40.7086 58.8974 40.7086C60.6574 40.7086 62.2074 41.1586 63.5374 42.0586C63.8174 42.2486 64.0874 42.4486 64.3474 42.6686Z" fill="#09326C"/>
<path d="M20.0775 22.5986C19.9575 22.2086 18.8375 22.2886 18.7275 22.5986C18.5575 23.0486 18.4275 23.5286 18.3475 24.1886C18.3175 24.9486 18.4975 25.1986 18.4575 25.7186C18.4275 26.6086 18.0575 28.0986 17.9675 28.4586C17.9575 28.5086 17.9475 28.5686 17.9575 28.6186C18.0075 29.0086 18.0375 30.7086 18.0175 32.1586C18.0375 33.1886 18.0475 33.8186 18.0475 34.1486C18.0675 34.9286 18.1875 35.5086 18.4075 36.0786C18.5275 36.3886 19.4975 36.3386 19.6075 36.0186C19.8075 35.4486 19.9175 34.8686 19.9175 34.0986C19.9175 33.7986 20.1775 33.1786 20.2075 32.3086C20.2075 32.1686 20.1975 32.0286 20.1475 31.8786C19.9475 31.2686 19.8875 30.5686 19.9075 30.0186C19.9075 29.4686 19.9475 29.0786 19.9475 29.0786C19.9475 29.0786 20.0375 26.7186 20.0775 25.7286C20.1275 24.9986 20.1875 24.6386 20.2075 24.4086C20.2775 23.7186 20.2475 23.1486 20.0775 22.6086V22.5986Z" fill="#101214"/>
<path d="M12.2775 29.1385C11.9075 29.2585 11.9075 30.3785 12.2775 30.4885C12.8075 30.6485 13.3675 30.7285 14.0775 30.7185C14.8875 30.6485 15.0875 30.4185 15.6375 30.4385C16.5675 30.4185 18.1275 30.6985 18.5075 30.7785C18.5675 30.7885 18.6175 30.7985 18.6775 30.7985C19.0775 30.7685 20.8275 30.6785 22.3275 30.8185C23.3875 30.8585 24.0475 30.8785 24.3875 30.8985C25.0775 30.9185 25.8375 30.9385 26.5675 30.5885C27.0075 30.3585 26.5675 29.4685 26.3375 29.4085C25.8375 29.2885 25.3575 29.0885 24.4475 29.0285C24.1275 29.0185 23.4775 28.7185 22.5375 28.6385C22.3875 28.6285 22.2275 28.6385 22.0775 28.6685C20.7675 28.9785 19.0775 28.8085 19.0775 28.8085C19.0775 28.8085 18.4475 28.7685 17.6875 28.7985C16.9275 28.8085 16.0275 28.8285 15.4975 28.8285C14.6975 28.8485 14.3075 28.8485 14.0775 28.8585C13.3575 28.8785 12.8075 28.9785 12.2675 29.1485L12.2775 29.1385Z" fill="#101214"/>
<path d="M45.5275 21.2185C45.4075 20.8885 44.2875 20.9685 44.1775 21.2185C44.0075 21.5785 43.8875 21.9585 43.8175 22.4985C43.7975 23.1185 43.9875 23.3385 43.9575 23.7585C43.9275 24.4885 43.5675 25.7085 43.4775 26.0085C43.4675 26.0485 43.4575 26.0985 43.4675 26.1385C43.5175 26.4585 43.5675 27.8585 43.5375 29.0485C43.5475 29.8885 43.5575 30.4085 43.5675 30.6885C43.5875 31.3285 43.7075 31.8085 43.9275 32.2685C44.0475 32.5185 45.0175 32.4685 45.1275 32.2085C45.3375 31.7385 45.4375 31.2685 45.4375 30.6385C45.4375 30.3985 45.6975 29.8785 45.7375 29.1685C45.7375 29.0485 45.7275 28.9385 45.6775 28.8185C45.4775 28.3185 45.4275 27.7485 45.4275 27.2985C45.4275 26.8485 45.4675 26.5285 45.4675 26.5285C45.4675 26.5285 45.5475 24.5985 45.5775 23.7885C45.6175 23.1885 45.6675 22.8985 45.6875 22.7085C45.7475 22.1485 45.6975 21.6685 45.5375 21.2085L45.5275 21.2185Z" fill="#101214"/>
<path d="M39.0175 26.4685C38.7075 26.5885 38.7075 27.7085 39.0175 27.8185C39.4475 27.9785 39.9075 28.0585 40.4975 28.0585C41.1575 27.9985 41.3275 27.7585 41.7775 27.7785C42.5375 27.7685 43.8175 28.0485 44.1275 28.1285C44.1775 28.1385 44.2175 28.1485 44.2675 28.1385C44.5975 28.1085 46.0275 27.9985 47.2575 28.1285C48.1275 28.1585 48.6675 28.1785 48.9475 28.1885C49.4875 28.2085 50.1375 28.1985 50.7675 27.8685C51.1475 27.6485 50.7075 26.7685 50.5375 26.6885C50.1475 26.5485 49.7775 26.3685 49.0075 26.3185C48.7475 26.3085 48.2075 26.0185 47.4475 25.9385C47.3275 25.9285 47.1975 25.9385 47.0675 25.9785C45.9875 26.2985 44.6075 26.1385 44.6075 26.1385C44.6075 26.1385 44.0875 26.1085 43.4675 26.1285C42.8475 26.1285 42.1075 26.1485 41.6775 26.1585C41.0175 26.1685 40.7075 26.1785 40.5075 26.1885C39.9175 26.2085 39.4675 26.2985 39.0275 26.4785L39.0175 26.4685Z" fill="#101214"/>
<path d="M40.0275 48.1785C39.9075 47.8485 38.7875 47.9285 38.6775 48.1785C38.5075 48.5385 38.3875 48.9185 38.3175 49.4585C38.2975 50.0785 38.4875 50.2885 38.4575 50.7185C38.4275 51.4485 38.0675 52.6685 37.9775 52.9685C37.9675 53.0085 37.9575 53.0585 37.9675 53.0985C38.0075 53.4185 38.0675 54.8185 38.0375 56.0085C38.0475 56.8485 38.0575 57.3685 38.0675 57.6485C38.0875 58.2885 38.2075 58.7685 38.4275 59.2285C38.5475 59.4785 39.5175 59.4285 39.6275 59.1685C39.8375 58.6985 39.9375 58.2285 39.9375 57.5985C39.9375 57.3585 40.1975 56.8385 40.2275 56.1285C40.2275 56.0085 40.2175 55.8985 40.1675 55.7785C39.9675 55.2785 39.9175 54.7085 39.9175 54.2585C39.9175 53.8085 39.9575 53.4885 39.9575 53.4885C39.9575 53.4885 40.0375 51.5585 40.0675 50.7485C40.1075 50.1485 40.1575 49.8585 40.1775 49.6685C40.2375 49.1085 40.1875 48.6185 40.0275 48.1685V48.1785Z" fill="#101214"/>
<path d="M33.5275 53.4285C33.2175 53.5485 33.2175 54.6685 33.5275 54.7785C33.9575 54.9385 34.4175 55.0185 35.0075 55.0185C35.6675 54.9585 35.8375 54.7185 36.2875 54.7385C37.0475 54.7285 38.3275 55.0085 38.6375 55.0885C38.6875 55.0985 38.7275 55.1085 38.7775 55.0985C39.1075 55.0685 40.5375 54.9585 41.7675 55.0885C42.6375 55.1185 43.1775 55.1385 43.4575 55.1485C44.0075 55.1685 44.6475 55.1585 45.2775 54.8285C45.6575 54.6085 45.2175 53.7285 45.0475 53.6485C44.6575 53.5085 44.2875 53.3285 43.5175 53.2785C43.2575 53.2685 42.7175 52.9785 41.9575 52.8985C41.8375 52.8885 41.7075 52.8985 41.5775 52.9385C40.4975 53.2585 39.1175 53.0985 39.1175 53.0985C39.1175 53.0985 38.5975 53.0685 37.9775 53.0885C37.3575 53.0885 36.6175 53.1085 36.1875 53.1185C35.5275 53.1285 35.2175 53.1385 35.0175 53.1485C34.4275 53.1685 33.9775 53.2585 33.5375 53.4385L33.5275 53.4285Z" fill="#101214"/>
<path d="M63.5076 33.8286C63.3876 33.4686 62.2676 33.5486 62.1576 33.8286C61.9876 34.2386 61.8676 34.6586 61.7876 35.2686C61.7676 35.9586 61.9476 36.1886 61.9076 36.6586C61.8776 37.4686 61.5176 38.8186 61.4176 39.1486C61.4076 39.1986 61.3976 39.2486 61.4076 39.2986C61.4576 39.6486 61.4976 41.1986 61.4776 42.5186C61.4976 43.4486 61.5076 44.0286 61.5076 44.3286C61.5276 45.0386 61.6476 45.5686 61.8676 46.0786C61.9876 46.3586 62.9576 46.3086 63.0676 46.0186C63.2776 45.4986 63.3776 44.9686 63.3776 44.2786C63.3776 44.0086 63.6376 43.4386 63.6676 42.6486C63.6676 42.5186 63.6576 42.3886 63.6076 42.2586C63.4076 41.7086 63.3476 41.0686 63.3576 40.5686C63.3576 40.0686 63.3976 39.7086 63.3976 39.7086C63.3976 39.7086 63.4876 37.5686 63.5176 36.6686C63.5576 36.0086 63.6176 35.6786 63.6376 35.4686C63.7076 34.8486 63.6576 34.3186 63.4976 33.8186L63.5076 33.8286Z" fill="#101214"/>
<path d="M56.3575 39.7185C56.0175 39.8385 56.0175 40.9585 56.3575 41.0685C56.8375 41.2285 57.3475 41.3085 57.9975 41.2985C58.7375 41.2385 58.9175 40.9985 59.4175 41.0185C60.2575 41.0085 61.6875 41.2885 62.0275 41.3585C62.0775 41.3685 62.1275 41.3785 62.1775 41.3685C62.5375 41.3385 64.1275 41.2385 65.4975 41.3685C66.4675 41.4085 67.0575 41.4285 67.3775 41.4385C67.9975 41.4585 68.6975 41.4685 69.3775 41.1285C69.7875 40.9085 69.3475 40.0185 69.1475 39.9485C68.7075 39.8185 68.2775 39.6285 67.4375 39.5685C67.1475 39.5585 66.5575 39.2685 65.7075 39.1885C65.5675 39.1785 65.4275 39.1885 65.2875 39.2285C64.0875 39.5485 62.5575 39.3785 62.5575 39.3785C62.5575 39.3785 61.9775 39.3385 61.2875 39.3685C60.5975 39.3785 59.7775 39.3885 59.2975 39.3985C58.5675 39.4185 58.2175 39.4185 58.0075 39.4285C57.3575 39.4485 56.8475 39.5485 56.3675 39.7185H56.3575Z" fill="#101214"/>
</svg>
