<svg width="96" height="96" viewBox="0 0 96 96" fill="none" xmlns="http://www.w3.org/2000/svg">
<path d="M46.5475 64.6387C46.5475 64.6387 34.6475 54.0787 31.6675 49.6187C28.6875 45.1587 28.6875 43.5587 28.6875 40.9987C28.6875 39.4087 28.9375 37.9487 29.4475 36.6287C29.9675 35.2987 30.6775 34.1487 31.5875 33.1787C32.4975 32.2087 33.5575 31.4587 34.7675 30.9287C35.9775 30.3987 37.2875 30.1387 38.7075 30.1387C40.4675 30.1387 42.0175 30.5887 43.3475 31.4887C44.6775 32.3887 45.7475 33.5787 46.5475 35.0487C47.3675 33.5587 48.4375 32.3787 49.7675 31.4887C51.0975 30.5887 52.6375 30.1387 54.3875 30.1387C55.7975 30.1387 57.1175 30.3987 58.3275 30.9287C59.5475 31.4587 60.6075 32.2087 61.5075 33.1787C62.4175 34.1487 63.1275 35.2987 63.6275 36.6287C64.1475 37.9487 64.3975 39.3987 64.3975 40.9987C64.3975 43.5487 64.3175 45.1487 61.4175 49.6187C58.3575 54.0787 46.5375 64.6387 46.5375 64.6387H46.5475Z" fill="#1868DB"/>
<path d="M66.7374 75.1987C66.7374 75.1987 54.8374 64.6387 51.8574 60.1787C48.8774 55.7187 48.8774 54.1187 48.8774 51.5587C48.8774 49.9687 49.1274 48.5087 49.6374 47.1887C50.1574 45.8587 50.8674 44.7087 51.7774 43.7387C52.6874 42.7687 53.7474 42.0187 54.9574 41.4887C56.1674 40.9587 57.4774 40.6987 58.8974 40.6987C60.6574 40.6987 62.2074 41.1487 63.5374 42.0487C64.8674 42.9487 65.9374 44.1387 66.7374 45.6087C67.5574 44.1187 68.6274 42.9387 69.9574 42.0487C71.2874 41.1487 72.8274 40.6987 74.5774 40.6987C75.9874 40.6987 77.3074 40.9587 78.5174 41.4887C79.7374 42.0187 80.7974 42.7687 81.6974 43.7387C82.6074 44.7087 83.3174 45.8587 83.8174 47.1887C84.3374 48.5087 84.5874 49.9587 84.5874 51.5587C84.5874 54.1087 84.5074 55.7087 81.6074 60.1787C78.5474 64.6387 66.7274 75.1987 66.7274 75.1987H66.7374Z" fill="#BF63F3"/>
<path d="M64.3474 42.6687C64.2074 44.4487 63.6474 46.1887 61.4274 49.6187C59.7174 52.1087 55.2674 56.5087 51.6774 59.8987C48.8774 55.6487 48.8774 54.0687 48.8774 51.5687C48.8774 49.9687 49.1374 48.5187 49.6374 47.1987C50.1574 45.8687 50.8674 44.7187 51.7774 43.7487C52.6874 42.7687 53.7474 42.0287 54.9574 41.4987C56.1674 40.9687 57.4874 40.7087 58.8974 40.7087C60.6574 40.7087 62.2074 41.1587 63.5374 42.0587C63.8174 42.2487 64.0874 42.4487 64.3474 42.6687Z" fill="#09326C"/>
</svg>
