<svg width="16" height="16" viewBox="0 0 16 16" fill="none" xmlns="http://www.w3.org/2000/svg">
<g clip-path="url(#clip0_237_7618)">
<path d="M11.1605 5.91797H15.2933C15.6838 5.91797 16.0003 6.24032 16.0003 6.63796V10.4717C16.0003 11.9332 14.837 13.1179 13.402 13.1179H13.3897C11.9547 13.1181 10.7912 11.9336 10.791 10.4721C10.791 10.472 10.791 10.4719 10.791 10.4717V6.29426C10.791 6.08644 10.9564 5.91797 11.1605 5.91797Z" fill="#5059C9"/>
<path d="M13.9557 5.15952C14.8804 5.15952 15.6301 4.39606 15.6301 3.45427C15.6301 2.51249 14.8804 1.74902 13.9557 1.74902C13.0309 1.74902 12.2812 2.51249 12.2812 3.45427C12.2812 4.39606 13.0309 5.15952 13.9557 5.15952Z" fill="#5059C9"/>
<path d="M8.74476 5.15968C10.0805 5.15968 11.1633 4.05689 11.1633 2.69654C11.1633 1.33618 10.0805 0.233398 8.74476 0.233398C7.40901 0.233398 6.32617 1.33618 6.32617 2.69654C6.32617 4.05689 7.40901 5.15968 8.74476 5.15968Z" fill="#7B83EB"/>
<path d="M11.9699 5.91797H5.14804C4.76224 5.92769 4.45705 6.25376 4.466 6.64668V11.0193C4.41213 13.3772 6.24383 15.3339 8.55899 15.3916C10.8742 15.3339 12.7059 13.3772 12.652 11.0193V6.64668C12.6609 6.25376 12.3557 5.92769 11.9699 5.91797Z" fill="#7B83EB"/>
<path opacity="0.1" d="M8.93012 5.91797V12.0455C8.92827 12.3265 8.76107 12.5789 8.50594 12.6859C8.42471 12.7209 8.3374 12.7389 8.2492 12.739H4.79248C4.74411 12.6139 4.69946 12.4889 4.66225 12.36C4.532 11.9252 4.46554 11.4732 4.46504 11.0186V6.64554C4.45609 6.25325 4.76078 5.92769 5.14596 5.91797H8.93012Z" fill="black"/>
<path opacity="0.2" d="M8.55803 5.91797V12.4244C8.55802 12.5143 8.5403 12.6032 8.50594 12.6859C8.40089 12.9457 8.15302 13.116 7.87711 13.1179H4.96736C4.90411 12.9929 4.84457 12.8678 4.79248 12.739C4.74038 12.6101 4.69946 12.4889 4.66225 12.36C4.532 11.9252 4.46554 11.4732 4.46504 11.0186V6.64554C4.45609 6.25325 4.76078 5.92769 5.14596 5.91797H8.55803Z" fill="black"/>
<path opacity="0.2" d="M8.55803 5.91797V11.6666C8.55519 12.0483 8.25199 12.3571 7.8771 12.36H4.66225C4.532 11.9252 4.46554 11.4732 4.46504 11.0186V6.64554C4.45609 6.25325 4.76078 5.92769 5.14596 5.91797H8.55803Z" fill="black"/>
<path opacity="0.2" d="M8.18593 5.91797V11.6666C8.1831 12.0483 7.8799 12.3571 7.50501 12.36H4.66225C4.532 11.9252 4.46554 11.4732 4.46504 11.0186V6.64554C4.45609 6.25325 4.76078 5.92769 5.14596 5.91797H8.18593Z" fill="black"/>
<path opacity="0.1" d="M8.93219 3.95811V5.15178C8.86893 5.15557 8.8094 5.15936 8.74614 5.15936C8.68288 5.15936 8.62335 5.15558 8.5601 5.15178C8.4345 5.1433 8.30994 5.123 8.18801 5.09115C7.43452 4.90943 6.81202 4.37127 6.5136 3.64359C6.46225 3.52139 6.42239 3.3945 6.39453 3.26465H8.25126C8.62673 3.2661 8.93076 3.57572 8.93219 3.95811Z" fill="black"/>
<path opacity="0.2" d="M8.55821 4.33799V5.15272C8.43261 5.14424 8.30805 5.12394 8.18612 5.0921C7.43264 4.91037 6.81014 4.37221 6.51172 3.64453H7.87729C8.25276 3.64598 8.55678 3.95561 8.55821 4.33799Z" fill="black"/>
<path opacity="0.2" d="M8.55821 4.33799V5.15272C8.43261 5.14424 8.30805 5.12394 8.18612 5.0921C7.43264 4.91037 6.81014 4.37221 6.51172 3.64453H7.87729C8.25276 3.64598 8.55678 3.95561 8.55821 4.33799Z" fill="black"/>
<path opacity="0.2" d="M8.18612 4.338V5.0921C7.43264 4.91037 6.81014 4.37221 6.51172 3.64453H7.5052C7.88067 3.64599 8.18469 3.95561 8.18612 4.338Z" fill="black"/>
<path d="M0.682037 3.64453H7.50393C7.88061 3.64453 8.18597 3.95552 8.18597 4.33913V11.2867C8.18597 11.6703 7.88061 11.9813 7.50393 11.9813H0.682037C0.305355 11.9813 0 11.6703 0 11.2867V4.33913C0 3.95552 0.305363 3.64453 0.682037 3.64453Z" fill="url(#paint0_linear_237_7618)"/>
<path d="M5.88875 6.28832H4.52504V10.0702H3.65621V6.28832H2.29883V5.55469H5.88875V6.28832Z" fill="white"/>
</g>
<defs>
<linearGradient id="paint0_linear_237_7618" x1="1.42207" y1="3.10178" x2="6.9115" y2="12.4373" gradientUnits="userSpaceOnUse">
<stop stop-color="#5A62C3"/>
<stop offset="0.5" stop-color="#4D55BD"/>
<stop offset="1" stop-color="#3940AB"/>
</linearGradient>
<clipPath id="clip0_237_7618">
<path d="M0 4C0 1.79086 1.79086 0 4 0H12C14.2091 0 16 1.79086 16 4V12C16 14.2091 14.2091 16 12 16H4C1.79086 16 0 14.2091 0 12V4Z" fill="white"/>
</clipPath>
</defs>
</svg>
