<svg width="16" height="16" viewBox="0 0 16 16" fill="none" xmlns="http://www.w3.org/2000/svg">
<mask id="path-1-inside-1_237_7602" fill="white">
<path d="M0 4C0 1.79086 1.79086 0 4 0H12C14.2091 0 16 1.79086 16 4V12C16 14.2091 14.2091 16 12 16H4C1.79086 16 0 14.2091 0 12V4Z"/>
</mask>
<path d="M0 4C0 1.79086 1.79086 0 4 0H12C14.2091 0 16 1.79086 16 4V12C16 14.2091 14.2091 16 12 16H4C1.79086 16 0 14.2091 0 12V4Z" fill="white"/>
<path d="M4 0V1H12V0V-1H4V0ZM16 4H15V12H16H17V4H16ZM12 16V15H4V16V17H12V16ZM0 12H1V4H0H-1V12H0ZM4 16V15C2.34315 15 1 13.6569 1 12H0H-1C-1 14.7614 1.23858 17 4 17V16ZM16 12H15C15 13.6569 13.6569 15 12 15V16V17C14.7614 17 17 14.7614 17 12H16ZM12 0V1C13.6569 1 15 2.34315 15 4H16H17C17 1.23858 14.7614 -1 12 -1V0ZM4 0V-1C1.23858 -1 -1 1.23858 -1 4H0H1C1 2.34315 2.34315 1 4 1V0Z" fill="#0B1228" fill-opacity="0.14" mask="url(#path-1-inside-1_237_7602)"/>
<path d="M9.64109 6.88574H12.2241C12.4681 6.88574 12.6659 7.08721 12.6659 7.33574V9.73185C12.6659 10.6453 11.9389 11.3857 11.042 11.3857H11.0343C10.1375 11.3858 9.41029 10.6455 9.41016 9.73209C9.41016 9.73201 9.41016 9.73193 9.41016 9.73185V7.12093C9.41016 6.99104 9.51355 6.88574 9.64109 6.88574Z" fill="#5059C9"/>
<path d="M11.3883 6.41184C11.9663 6.41184 12.4348 5.93467 12.4348 5.34606C12.4348 4.75744 11.9663 4.28027 11.3883 4.28027C10.8103 4.28027 10.3418 4.75744 10.3418 5.34606C10.3418 5.93467 10.8103 6.41184 11.3883 6.41184Z" fill="#5059C9"/>
<path d="M8.13076 6.41194C8.9656 6.41194 9.64238 5.7227 9.64238 4.87247C9.64238 4.02225 8.9656 3.33301 8.13076 3.33301C7.29592 3.33301 6.61914 4.02225 6.61914 4.87247C6.61914 5.7227 7.29592 6.41194 8.13076 6.41194Z" fill="#7B83EB"/>
<path d="M10.1477 6.88574H5.88403C5.6429 6.89182 5.45216 7.09561 5.45776 7.34119V10.0741C5.42408 11.5478 6.5689 12.7707 8.01588 12.8068C9.46286 12.7707 10.6077 11.5478 10.574 10.0741V7.34119C10.5796 7.09561 10.3888 6.89182 10.1477 6.88574Z" fill="#7B83EB"/>
<path opacity="0.1" d="M8.24783 6.88574V10.7155C8.24668 10.8911 8.14218 11.0488 7.98272 11.1157C7.93195 11.1376 7.87738 11.1489 7.82226 11.1489H5.6618C5.63157 11.0707 5.60367 10.9926 5.58041 10.912C5.499 10.6403 5.45747 10.3577 5.45715 10.0736V7.34048C5.45156 7.09529 5.64199 6.89182 5.88273 6.88574H8.24783Z" fill="black"/>
<path opacity="0.2" d="M8.01528 6.88574V10.9523C8.01527 11.0084 8.0042 11.064 7.98272 11.1157C7.91706 11.2781 7.76214 11.3845 7.5897 11.3857H5.77111C5.73157 11.3076 5.69436 11.2294 5.6618 11.1489C5.62924 11.0683 5.60367 10.9926 5.58041 10.912C5.499 10.6403 5.45747 10.3577 5.45715 10.0736V7.34048C5.45156 7.09529 5.64199 6.89182 5.88273 6.88574H8.01528Z" fill="black"/>
<path opacity="0.2" d="M8.01528 6.88574V10.4786C8.0135 10.7172 7.824 10.9102 7.5897 10.912H5.58041C5.499 10.6403 5.45747 10.3577 5.45715 10.0736V7.34048C5.45156 7.09529 5.64199 6.89182 5.88273 6.88574H8.01528Z" fill="black"/>
<path opacity="0.2" d="M7.78272 6.88574V10.4786C7.78094 10.7172 7.59144 10.9102 7.35714 10.912H5.58041C5.499 10.6403 5.45747 10.3577 5.45715 10.0736V7.34048C5.45156 7.09529 5.64199 6.89182 5.88273 6.88574H7.78272Z" fill="black"/>
<path opacity="0.1" d="M8.24815 5.66095V6.407C8.20861 6.40937 8.1714 6.41174 8.13187 6.41174C8.09233 6.41174 8.05512 6.40937 8.01559 6.407C7.93709 6.4017 7.85924 6.38901 7.78303 6.36911C7.3121 6.25553 6.92304 5.91918 6.73653 5.46438C6.70444 5.388 6.67952 5.3087 6.66211 5.22754H7.82257C8.05724 5.22844 8.24726 5.42196 8.24815 5.66095Z" fill="black"/>
<path opacity="0.2" d="M8.01539 5.89826V6.40747C7.93689 6.40216 7.85904 6.38948 7.78283 6.36957C7.3119 6.25599 6.92284 5.91964 6.73633 5.46484H7.58981C7.82448 5.46575 8.01449 5.65927 8.01539 5.89826Z" fill="black"/>
<path opacity="0.2" d="M8.01539 5.89826V6.40747C7.93689 6.40216 7.85904 6.38948 7.78283 6.36957C7.3119 6.25599 6.92284 5.91964 6.73633 5.46484H7.58981C7.82448 5.46575 8.01449 5.65927 8.01539 5.89826Z" fill="black"/>
<path opacity="0.2" d="M7.78283 5.89826V6.36957C7.3119 6.25599 6.92284 5.91964 6.73633 5.46484H7.35725C7.59193 5.46575 7.78194 5.65927 7.78283 5.89826Z" fill="black"/>
<path d="M3.09229 5.46484H7.35598C7.59141 5.46484 7.78225 5.65921 7.78225 5.89897V10.2412C7.78225 10.481 7.5914 10.6753 7.35598 10.6753H3.09229C2.85686 10.6753 2.66602 10.481 2.66602 10.2412V5.89897C2.66602 5.65921 2.85687 5.46484 3.09229 5.46484Z" fill="url(#paint0_linear_237_7602)"/>
<path d="M6.34722 7.1177H5.4949V9.48137H4.95188V7.1177H4.10352V6.65918H6.34722V7.1177Z" fill="white"/>
<defs>
<linearGradient id="paint0_linear_237_7602" x1="3.55481" y1="5.12562" x2="6.98571" y2="10.9603" gradientUnits="userSpaceOnUse">
<stop stop-color="#5A62C3"/>
<stop offset="0.5" stop-color="#4D55BD"/>
<stop offset="1" stop-color="#3940AB"/>
</linearGradient>
</defs>
</svg>
