<svg width="20" height="20" viewBox="0 0 20 20" fill="none" xmlns="http://www.w3.org/2000/svg">
<mask id="path-1-inside-1_237_7586" fill="white">
<path d="M0 5C0 2.23858 2.23858 0 5 0H15C17.7614 0 20 2.23858 20 5V15C20 17.7614 17.7614 20 15 20H5C2.23858 20 0 17.7614 0 15V5Z"/>
</mask>
<path d="M0 5C0 2.23858 2.23858 0 5 0H15C17.7614 0 20 2.23858 20 5V15C20 17.7614 17.7614 20 15 20H5C2.23858 20 0 17.7614 0 15V5Z" fill="white"/>
<path d="M5 0V1H15V0V-1H5V0ZM20 5H19V15H20H21V5H20ZM15 20V19H5V20V21H15V20ZM0 15H1V5H0H-1V15H0ZM5 20V19C2.79086 19 1 17.2091 1 15H0H-1C-1 18.3137 1.68629 21 5 21V20ZM20 15H19C19 17.2091 17.2091 19 15 19V20V21C18.3137 21 21 18.3137 21 15H20ZM15 0V1C17.2091 1 19 2.79086 19 5H20H21C21 1.68629 18.3137 -1 15 -1V0ZM5 0V-1C1.68629 -1 -1 1.68629 -1 5H0H1C1 2.79086 2.79086 1 5 1V0Z" fill="#0B1228" fill-opacity="0.14" mask="url(#path-1-inside-1_237_7586)"/>
<path d="M11.6739 8.9082H14.5151C14.7835 8.9082 15.0011 9.1298 15.0011 9.40317V12.0387C15.0011 13.0434 14.2014 13.8579 13.2149 13.8579H13.2064C12.2199 13.858 11.4201 13.0437 11.4199 12.039C11.4199 12.0389 11.4199 12.0388 11.4199 12.0387V9.16689C11.4199 9.02402 11.5336 8.9082 11.6739 8.9082Z" fill="#5059C9"/>
<path d="M13.5944 8.38657C14.2302 8.38657 14.7455 7.86172 14.7455 7.21428C14.7455 6.56684 14.2302 6.04199 13.5944 6.04199C12.9587 6.04199 12.4434 6.56684 12.4434 7.21428C12.4434 7.86172 12.9587 8.38657 13.5944 8.38657Z" fill="#5059C9"/>
<path d="M10.0123 8.38662C10.9306 8.38662 11.675 7.6285 11.675 6.69331C11.675 5.75812 10.9306 5 10.0123 5C9.09402 5 8.34961 5.75812 8.34961 6.69331C8.34961 7.6285 9.09402 8.38662 10.0123 8.38662Z" fill="#7B83EB"/>
<path d="M12.2278 8.9082H7.53803C7.27281 8.91489 7.063 9.13905 7.06916 9.40916V12.4152C7.03212 14.0361 8.29134 15.3813 9.88292 15.4209C11.4745 15.3813 12.7337 14.0361 12.6967 12.4152V9.40916C12.7028 9.13905 12.493 8.91489 12.2278 8.9082Z" fill="#7B83EB"/>
<path opacity="0.1" d="M10.1381 8.9082V13.1206C10.1368 13.3138 10.0218 13.4873 9.84645 13.5609C9.79061 13.585 9.73059 13.5974 9.66995 13.5974H7.2936C7.26034 13.5114 7.22965 13.4254 7.20407 13.3369C7.11452 13.0379 7.06884 12.7272 7.06849 12.4147V9.40838C7.06234 9.1387 7.2718 8.91489 7.5366 8.9082H10.1381Z" fill="black"/>
<path opacity="0.2" d="M9.88226 8.9082V13.3811C9.88225 13.4429 9.87008 13.504 9.84645 13.5609C9.77423 13.7395 9.60383 13.8566 9.41416 13.8579H7.41382C7.37033 13.7719 7.32941 13.6859 7.2936 13.5974C7.25778 13.5088 7.22965 13.4254 7.20407 13.3369C7.11452 13.0379 7.06884 12.7272 7.06849 12.4147V9.40838C7.06234 9.1387 7.2718 8.91489 7.5366 8.9082H9.88226Z" fill="black"/>
<path opacity="0.2" d="M9.88226 8.9082V12.8601C9.88031 13.1226 9.67187 13.3349 9.41415 13.3369H7.20407C7.11452 13.0379 7.06884 12.7272 7.06849 12.4147V9.40838C7.06234 9.1387 7.2718 8.91489 7.5366 8.9082H9.88226Z" fill="black"/>
<path opacity="0.2" d="M9.62646 8.9082V12.8601C9.62451 13.1226 9.41607 13.3349 9.15835 13.3369H7.20407C7.11452 13.0379 7.06884 12.7272 7.06849 12.4147V9.40838C7.06234 9.1387 7.2718 8.91489 7.5366 8.9082H9.62646Z" fill="black"/>
<path opacity="0.1" d="M10.141 7.56071V8.38131C10.0975 8.38392 10.0566 8.38653 10.0131 8.38653C9.96964 8.38653 9.92871 8.38392 9.88522 8.38131C9.79888 8.37548 9.71325 8.36153 9.62943 8.33963C9.11144 8.21471 8.68349 7.84474 8.47834 7.34449C8.44304 7.26048 8.41564 7.17325 8.39648 7.08398H9.67291C9.93103 7.08498 10.14 7.29783 10.141 7.56071Z" fill="black"/>
<path opacity="0.2" d="M9.88344 7.82145V8.38155C9.7971 8.37571 9.71147 8.36176 9.62765 8.33987C9.10966 8.21494 8.68171 7.84497 8.47656 7.34473H9.41534C9.67346 7.34572 9.88246 7.55858 9.88344 7.82145Z" fill="black"/>
<path opacity="0.2" d="M9.88344 7.82145V8.38155C9.7971 8.37571 9.71147 8.36176 9.62765 8.33987C9.10966 8.21494 8.68171 7.84497 8.47656 7.34473H9.41534C9.67346 7.34572 9.88246 7.55858 9.88344 7.82145Z" fill="black"/>
<path opacity="0.2" d="M9.62765 7.82146V8.33987C9.10966 8.21494 8.68171 7.84497 8.47656 7.34473H9.15954C9.41767 7.34573 9.62667 7.55858 9.62765 7.82146Z" fill="black"/>
<path d="M4.46887 7.34473H9.15865C9.41761 7.34473 9.62753 7.55852 9.62753 7.82224V12.5984C9.62753 12.8621 9.4176 13.0759 9.15865 13.0759H4.46887C4.20992 13.0759 4 12.8621 4 12.5984V7.82224C4 7.55852 4.20992 7.34473 4.46887 7.34473Z" fill="url(#paint0_linear_237_7586)"/>
<path d="M8.04801 9.16255H7.11051V11.7624H6.51323V9.16255H5.58008V8.6582H8.04801V9.16255Z" fill="white"/>
<defs>
<linearGradient id="paint0_linear_237_7586" x1="4.97762" y1="6.97161" x2="8.75138" y2="13.3894" gradientUnits="userSpaceOnUse">
<stop stop-color="#5A62C3"/>
<stop offset="0.5" stop-color="#4D55BD"/>
<stop offset="1" stop-color="#3940AB"/>
</linearGradient>
</defs>
</svg>
