<svg width="24" height="24" viewBox="0 0 24 24" fill="none" xmlns="http://www.w3.org/2000/svg">
<mask id="path-1-inside-1_237_7570" fill="white">
<path d="M0 6.39569C0 2.86345 2.86345 0 6.39569 0H17.6043C21.1366 0 24 2.86345 24 6.39569V17.6043C24 21.1366 21.1366 24 17.6043 24H6.39569C2.86345 24 0 21.1366 0 17.6043V6.39569Z"/>
</mask>
<path d="M0 6.39569C0 2.86345 2.86345 0 6.39569 0H17.6043C21.1366 0 24 2.86345 24 6.39569V17.6043C24 21.1366 21.1366 24 17.6043 24H6.39569C2.86345 24 0 21.1366 0 17.6043V6.39569Z" fill="white"/>
<path d="M6.39569 0V1H17.6043V0V-1H6.39569V0ZM24 6.39569H23V17.6043H24H25V6.39569H24ZM17.6043 24V23H6.39569V24V25H17.6043V24ZM0 17.6043H1V6.39569H0H-1V17.6043H0ZM6.39569 24V23C3.41573 23 1 20.5843 1 17.6043H0H-1C-1 21.6888 2.31116 25 6.39569 25V24ZM24 17.6043H23C23 20.5843 20.5843 23 17.6043 23V24V25C21.6888 25 25 21.6888 25 17.6043H24ZM17.6043 0V1C20.5843 1 23 3.41573 23 6.39569H24H25C25 2.31116 21.6888 -1 17.6043 -1V0ZM6.39569 0V-1C2.31116 -1 -1 2.31116 -1 6.39569H0H1C1 3.41573 3.41573 1 6.39569 1V0Z" fill="#0B1228" fill-opacity="0.14" mask="url(#path-1-inside-1_237_7570)"/>
<path d="M14.4616 10.3291H18.3361C18.7022 10.3291 18.9989 10.6313 18.9989 11.0041V14.5983C18.9989 15.9684 17.9083 17.0791 16.563 17.0791H16.5515C15.2062 17.0792 14.1154 15.9687 14.1152 14.5986C14.1152 14.5985 14.1152 14.5984 14.1152 14.5983V10.6819C14.1152 10.487 14.2703 10.3291 14.4616 10.3291Z" fill="#5059C9"/>
<path d="M17.0815 9.61825C17.9484 9.61825 18.6512 8.9025 18.6512 8.01957C18.6512 7.13665 17.9484 6.4209 17.0815 6.4209C16.2145 6.4209 15.5117 7.13665 15.5117 8.01957C15.5117 8.9025 16.2145 9.61825 17.0815 9.61825Z" fill="#5059C9"/>
<path d="M12.1971 9.61839C13.4494 9.61839 14.4645 8.58453 14.4645 7.3092C14.4645 6.03386 13.4494 5 12.1971 5C10.9448 5 9.92969 6.03386 9.92969 7.3092C9.92969 8.58453 10.9448 9.61839 12.1971 9.61839Z" fill="#7B83EB"/>
<path d="M15.2196 10.3291H8.82409C8.4624 10.3382 8.17629 10.6439 8.18468 11.0123V15.1116C8.13417 17.3221 9.85139 19.1565 12.0219 19.2106C14.1923 19.1565 15.9096 17.3221 15.8591 15.1116V11.0123C15.8674 10.6439 15.5813 10.3382 15.2196 10.3291Z" fill="#7B83EB"/>
<path opacity="0.1" d="M12.3718 10.3291V16.0737C12.37 16.3371 12.2133 16.5738 11.9741 16.6741C11.8979 16.7069 11.8161 16.7238 11.7334 16.7238H8.49271C8.44736 16.6066 8.4055 16.4893 8.37061 16.3685C8.2485 15.9609 8.1862 15.5371 8.18573 15.1109V11.0112C8.17734 10.6434 8.46299 10.3382 8.82409 10.3291H12.3718Z" fill="black"/>
<path opacity="0.2" d="M12.0229 10.3291V16.4289C12.0229 16.5131 12.0063 16.5965 11.9741 16.6741C11.8756 16.9177 11.6432 17.0773 11.3846 17.0791H8.65666C8.59736 16.9618 8.54154 16.8446 8.49271 16.7238C8.44387 16.603 8.4055 16.4893 8.37061 16.3685C8.2485 15.9609 8.1862 15.5371 8.18573 15.1109V11.0112C8.17734 10.6434 8.46299 10.3382 8.82409 10.3291H12.0229Z" fill="black"/>
<path opacity="0.2" d="M12.0229 10.3291V15.7184C12.0203 16.0763 11.736 16.3658 11.3845 16.3685H8.37061C8.2485 15.9609 8.1862 15.5371 8.18573 15.1109V11.0112C8.17734 10.6434 8.46299 10.3382 8.82409 10.3291H12.0229Z" fill="black"/>
<path opacity="0.2" d="M11.6741 10.3291V15.7184C11.6714 16.0763 11.3872 16.3658 11.0357 16.3685H8.37061C8.2485 15.9609 8.1862 15.5371 8.18573 15.1109V11.0112C8.17734 10.6434 8.46299 10.3382 8.82409 10.3291H11.6741Z" fill="black"/>
<path opacity="0.1" d="M12.3712 8.49192V9.61099C12.3119 9.61454 12.2561 9.6181 12.1968 9.6181C12.1375 9.6181 12.0817 9.61455 12.0224 9.61099C11.9047 9.60303 11.7879 9.584 11.6736 9.55415C10.9672 9.38378 10.3836 8.87925 10.1038 8.19706C10.0557 8.08249 10.0183 7.96354 9.99219 7.8418H11.7329C12.0849 7.84315 12.3699 8.13342 12.3712 8.49192Z" fill="black"/>
<path opacity="0.2" d="M12.0221 8.84739V9.6112C11.9044 9.60324 11.7876 9.58422 11.6733 9.55436C10.9669 9.38399 10.3833 8.87946 10.1035 8.19727H11.3837C11.7357 8.19862 12.0208 8.4889 12.0221 8.84739Z" fill="black"/>
<path opacity="0.2" d="M12.0221 8.84739V9.6112C11.9044 9.60324 11.7876 9.58422 11.6733 9.55436C10.9669 9.38399 10.3833 8.87946 10.1035 8.19727H11.3837C11.7357 8.19862 12.0208 8.4889 12.0221 8.84739Z" fill="black"/>
<path opacity="0.2" d="M11.6733 8.84739V9.55436C10.9669 9.38399 10.3833 8.87946 10.1035 8.19727H11.0349C11.3869 8.19863 11.6719 8.48891 11.6733 8.84739Z" fill="black"/>
<path d="M4.63941 8.19727H11.0349C11.3881 8.19727 11.6744 8.48882 11.6744 8.84846V15.3618C11.6744 15.7214 11.3881 16.013 11.0349 16.013H4.63941C4.28627 16.013 4 15.7214 4 15.3618V8.84846C4 8.48882 4.28628 8.19727 4.63941 8.19727Z" fill="url(#paint0_linear_237_7570)"/>
<path d="M9.51986 10.6761H8.24137V14.2216H7.42685V10.6761H6.1543V9.98828H9.51986V10.6761Z" fill="white"/>
<defs>
<linearGradient id="paint0_linear_237_7570" x1="5.33319" y1="7.68844" x2="10.4795" y2="16.4405" gradientUnits="userSpaceOnUse">
<stop stop-color="#5A62C3"/>
<stop offset="0.5" stop-color="#4D55BD"/>
<stop offset="1" stop-color="#3940AB"/>
</linearGradient>
</defs>
</svg>
