<svg width="32" height="32" viewBox="0 0 32 32" fill="none" xmlns="http://www.w3.org/2000/svg">
<mask id="path-1-inside-1_237_7554" fill="white">
<path d="M0 8C0 3.58172 3.58172 0 8 0H24C28.4183 0 32 3.58172 32 8V24C32 28.4183 28.4183 32 24 32H8C3.58172 32 0 28.4183 0 24V8Z"/>
</mask>
<path d="M0 8C0 3.58172 3.58172 0 8 0H24C28.4183 0 32 3.58172 32 8V24C32 28.4183 28.4183 32 24 32H8C3.58172 32 0 28.4183 0 24V8Z" fill="white"/>
<path d="M8 0V1H24V0V-1H8V0ZM32 8H31V24H32H33V8H32ZM24 32V31H8V32V33H24V32ZM0 24H1V8H0H-1V24H0ZM8 32V31C4.13401 31 1 27.866 1 24H0H-1C-1 28.9706 3.02944 33 8 33V32ZM32 24H31C31 27.866 27.866 31 24 31V32V33C28.9706 33 33 28.9706 33 24H32ZM24 0V1C27.866 1 31 4.13401 31 8H32H33C33 3.02944 28.9706 -1 24 -1V0ZM8 0V-1C3.02944 -1 -1 3.02944 -1 8H0H1C1 4.13401 4.13401 1 8 1V0Z" fill="#0B1228" fill-opacity="0.14" mask="url(#path-1-inside-1_237_7554)"/>
<path d="M19.7806 14H24.1431C24.5553 14 24.8894 14.3403 24.8894 14.76V18.8068C24.8894 20.3495 23.6614 21.6001 22.1467 21.6001H22.1337C20.619 21.6003 19.3908 20.3499 19.3906 18.8072C19.3906 18.8071 19.3906 18.807 19.3906 18.8068V14.3972C19.3906 14.1778 19.5652 14 19.7806 14Z" fill="#5059C9"/>
<path d="M22.7284 13.1996C23.7045 13.1996 24.4958 12.3937 24.4958 11.3996C24.4958 10.4055 23.7045 9.59961 22.7284 9.59961C21.7523 9.59961 20.9609 10.4055 20.9609 11.3996C20.9609 12.3937 21.7523 13.1996 22.7284 13.1996Z" fill="#5059C9"/>
<path d="M17.2307 13.2C18.6407 13.2 19.7837 12.036 19.7837 10.6C19.7837 9.16407 18.6407 8 17.2307 8C15.8207 8 14.6777 9.16407 14.6777 10.6C14.6777 12.036 15.8207 13.2 17.2307 13.2Z" fill="#7B83EB"/>
<path d="M20.6351 14H13.4341C13.0268 14.0103 12.7047 14.3545 12.7141 14.7692V19.3848C12.6572 21.8738 14.5907 23.9392 17.0346 24.0001C19.4784 23.9392 21.4119 21.8738 21.355 19.3848V14.7692C21.3644 14.3545 21.0423 14.0103 20.6351 14Z" fill="#7B83EB"/>
<path opacity="0.1" d="M17.4263 14V20.468C17.4244 20.7647 17.2479 21.0311 16.9786 21.1441C16.8928 21.181 16.8007 21.2 16.7075 21.2001H13.0587C13.0077 21.0681 12.9605 20.9361 12.9213 20.8001C12.7838 20.3411 12.7136 19.8639 12.7131 19.384V14.768C12.7037 14.3539 13.0253 14.0103 13.4319 14H17.4263Z" fill="black"/>
<path opacity="0.2" d="M17.0335 14V20.868C17.0335 20.9629 17.0148 21.0567 16.9786 21.144C16.8677 21.4183 16.606 21.5981 16.3148 21.6001H13.2433C13.1766 21.4681 13.1137 21.3361 13.0587 21.2001C13.0037 21.0641 12.9605 20.9361 12.9213 20.8001C12.7838 20.3411 12.7136 19.8639 12.7131 19.384V14.768C12.7037 14.3539 13.0253 14.0103 13.4319 14H17.0335Z" fill="black"/>
<path opacity="0.2" d="M17.0335 14V20.068C17.0305 20.4711 16.7105 20.797 16.3148 20.8001H12.9213C12.7838 20.3411 12.7136 19.8639 12.7131 19.384V14.768C12.7037 14.3539 13.0253 14.0103 13.4319 14H17.0335Z" fill="black"/>
<path opacity="0.2" d="M16.6408 14V20.068C16.6378 20.4711 16.3177 20.797 15.922 20.8001H12.9213C12.7838 20.3411 12.7136 19.8639 12.7131 19.384V14.768C12.7037 14.3539 13.0253 14.0103 13.4319 14H16.6408Z" fill="black"/>
<path opacity="0.1" d="M17.4287 11.9322V13.1922C17.3619 13.1962 17.2991 13.2002 17.2323 13.2002C17.1655 13.2002 17.1027 13.1962 17.0359 13.1922C16.9033 13.1832 16.7718 13.1618 16.6431 13.1282C15.8478 12.9364 15.1907 12.3683 14.8757 11.6002C14.8215 11.4712 14.7794 11.3373 14.75 11.2002H16.7099C17.1063 11.2017 17.4272 11.5286 17.4287 11.9322Z" fill="black"/>
<path opacity="0.2" d="M17.0352 12.3326V13.1926C16.9026 13.1836 16.7712 13.1622 16.6425 13.1286C15.8471 12.9368 15.19 12.3687 14.875 11.6006H16.3165C16.7128 11.6021 17.0337 11.9289 17.0352 12.3326Z" fill="black"/>
<path opacity="0.2" d="M17.0352 12.3326V13.1926C16.9026 13.1836 16.7712 13.1622 16.6425 13.1286C15.8471 12.9368 15.19 12.3687 14.875 11.6006H16.3165C16.7128 11.6021 17.0337 11.9289 17.0352 12.3326Z" fill="black"/>
<path opacity="0.2" d="M16.6425 12.3326V13.1286C15.8471 12.9368 15.19 12.3687 14.875 11.6006H15.9237C16.32 11.6021 16.6409 11.929 16.6425 12.3326Z" fill="black"/>
<path d="M8.71994 11.6006H15.9209C16.3186 11.6006 16.6409 11.9289 16.6409 12.3338V19.6674C16.6409 20.0724 16.3185 20.4006 15.9209 20.4006H8.71994C8.32232 20.4006 8 20.0724 8 19.6674V12.3338C8 11.9289 8.32233 11.6006 8.71994 11.6006Z" fill="url(#paint0_linear_237_7554)"/>
<path d="M14.2152 14.3906H12.7757V18.3826H11.8586V14.3906H10.4258V13.6162H14.2152V14.3906Z" fill="white"/>
<defs>
<linearGradient id="paint0_linear_237_7554" x1="9.5011" y1="11.0277" x2="15.2956" y2="20.882" gradientUnits="userSpaceOnUse">
<stop stop-color="#5A62C3"/>
<stop offset="0.5" stop-color="#4D55BD"/>
<stop offset="1" stop-color="#3940AB"/>
</linearGradient>
</defs>
</svg>
