<svg width="96" height="96" viewBox="0 0 96 96" fill="none" xmlns="http://www.w3.org/2000/svg">
<path fill-rule="evenodd" clip-rule="evenodd" d="M26.91 43.65H21V75.19H64.37V43.65H58.46V35.77C58.46 27.06 51.4 20 42.69 20C33.98 20 26.92 27.06 26.92 35.77V43.65H26.91ZM34.79 43.65V35.77C34.79 31.42 38.32 27.89 42.67 27.89C47.02 27.89 50.55 31.42 50.55 35.77V43.65H34.78H34.79Z" fill="#FCA700"/>
<path d="M42.6799 59.1C46.0099 59.1 48.7099 56.4 48.7099 53.07C48.7099 49.74 46.0099 47.04 42.6799 47.04C39.3499 47.04 36.6499 49.74 36.6499 53.07C36.6499 56.4 39.3499 59.1 42.6799 59.1Z" fill="#AE2A19"/>
<path fill-rule="evenodd" clip-rule="evenodd" d="M50.7199 70.16V75.19H34.6399V70.16C34.6399 65.73 38.2499 62.12 42.6799 62.12C47.1099 62.12 50.7199 65.73 50.7199 70.16Z" fill="#AE2A19"/>
<path d="M72.87 36.9801C72.85 38.1101 73.04 38.7201 73.35 38.7801C73.65 38.8301 74.08 38.2901 74.22 37.0601C74.39 35.3401 74.39 33.5401 73.98 31.6201C73.6 29.7001 72.8 27.6301 71.26 25.7301C70.38 24.6601 69.49 23.9501 68.7 23.4201C67.91 22.8801 67.18 22.5401 66.51 22.2501C65.15 21.7001 63.94 21.3601 62.17 21.0501C59.19 20.5601 55.03 20.6501 51.56 22.0801C49.84 22.7701 48.34 23.7601 47.28 24.7801C46.2 25.7801 45.55 26.7501 45.19 27.2901C45 27.6201 44.79 27.9401 44.63 28.3001C44.34 28.9201 43.84 30.0901 43.5 31.7001C43.15 33.3101 43.01 35.3401 43.22 37.5701C43.44 39.8001 44.11 42.2901 45.52 44.4901C46.92 46.7001 49.07 48.4601 51.4 49.5001C54.73 50.9201 57.66 51.0201 59.88 50.9301C62.13 50.8201 63.77 50.3801 64.86 50.0301C67.46 49.1901 69.49 47.7001 70.93 46.0101C72.35 44.2901 73.18 42.3801 73.58 40.4601C73.8 39.4001 73.59 38.8301 73.34 38.7901C73.06 38.7501 72.73 39.2101 72.42 40.1501C71.31 43.5501 68.89 46.7101 64.27 48.2601C63.38 48.5401 61.95 48.8701 60.03 48.9101C58.12 48.9501 55.7 48.7801 53.17 47.8601C52.36 47.5401 51.54 47.2101 50.8 46.7801C49.16 45.9001 47.68 44.4501 46.7 42.7201C45.73 40.9801 45.23 39.0401 45.09 37.3001C44.93 35.5501 45.05 34.0301 45.23 32.9901C45.33 32.4701 45.42 32.0601 45.48 31.7801C45.56 31.5001 45.6 31.3601 45.6 31.3601C45.6 31.3601 45.8 30.4401 46.46 29.1101C47.11 27.7901 48.34 26.1101 50.19 24.8601C52.03 23.5801 54.43 22.8401 56.72 22.5701C59.02 22.3001 61.19 22.4801 62.73 22.8201C65.06 23.3301 66.61 24.1801 67.68 24.9501C68.74 25.7301 69.36 26.4001 69.8 26.9301C71.12 28.5501 71.86 30.3201 72.29 32.0201C72.74 33.7201 72.87 35.3901 72.87 37.0001V36.9801Z" fill="#101214"/>
<path d="M53.4399 36.1501C52.9799 35.9501 52.3399 36.8701 52.6299 37.2201C53.0299 37.7401 53.4699 38.2201 54.0699 38.8101C54.4299 39.1201 54.6799 39.3001 54.8999 39.4501C55.0099 39.5301 55.1099 39.6001 55.2099 39.6901C55.3399 39.8101 55.5199 40.0201 55.6799 40.2401C56.0299 40.6901 56.4299 41.3001 56.8899 42.0101C57.3599 41.3401 57.8599 40.6301 58.2899 40.0301C58.3499 39.9501 58.4099 39.8701 58.4599 39.7901C58.5199 39.7101 58.5899 39.6201 58.6099 39.6001C58.6699 39.5301 58.7299 39.4701 58.7899 39.4101C58.8999 39.2901 58.9799 39.2001 59.0399 39.1401C59.0899 39.0901 59.1299 39.0401 59.1599 38.9801C59.3799 38.5601 60.4799 36.7201 61.7699 35.4201C62.6299 34.4601 63.1999 33.9001 63.4999 33.6101C64.1999 32.9201 64.6799 32.3501 65.0999 31.7201C65.3299 31.3701 64.7199 30.6201 64.3299 30.8001C63.6099 31.1201 62.9499 31.5501 62.1999 32.2601C61.9099 32.5401 61.1199 32.9401 60.2799 33.8001C60.1399 33.9401 60.0299 34.1001 59.9299 34.2701C59.0899 35.7501 57.7799 37.4301 57.7799 37.4301L57.3299 38.0801L56.9599 38.6501C56.8899 38.7601 56.8099 38.8901 56.7399 38.9901C56.6699 38.8901 56.5899 38.7901 56.5199 38.7001C56.3899 38.5601 56.2899 38.4301 56.1899 38.3201C56.0599 38.1701 55.9399 38.0501 55.8399 37.9401C55.6299 37.7301 55.4899 37.5901 55.3799 37.4801C54.7099 36.8301 54.0899 36.4301 53.4399 36.1501Z" fill="#101214"/>
</svg>
