<svg width="96" height="96" viewBox="0 0 96 96" fill="none" xmlns="http://www.w3.org/2000/svg">
<path fill-rule="evenodd" clip-rule="evenodd" d="M26.91 43.65H21V75.19H64.37V43.65H58.46V35.77C58.46 27.06 51.4 20 42.69 20C33.98 20 26.92 27.06 26.92 35.77V43.65H26.91ZM34.79 43.65V35.77C34.79 31.42 38.32 27.89 42.67 27.89C47.02 27.89 50.55 31.42 50.55 35.77V43.65H34.78H34.79Z" fill="#FCA700"/>
<path d="M42.6799 59.1C46.0099 59.1 48.7099 56.4 48.7099 53.07C48.7099 49.74 46.0099 47.04 42.6799 47.04C39.3499 47.04 36.6499 49.74 36.6499 53.07C36.6499 56.4 39.3499 59.1 42.6799 59.1Z" fill="#AE2A19"/>
<path fill-rule="evenodd" clip-rule="evenodd" d="M50.7199 70.16V75.19H34.6399V70.16C34.6399 65.73 38.2499 62.12 42.6799 62.12C47.1099 62.12 50.7199 65.73 50.7199 70.16Z" fill="#AE2A19"/>
</svg>
