<svg width="275" height="275" viewBox="0 0 275 275" fill="none" xmlns="http://www.w3.org/2000/svg">
<g clip-path="url(#clip0_225_7100)">
<path d="M252.19 144H241.86L236.89 131.48H208.9C209.34 105.59 211.98 81.61 216.72 60H80.86C80.46 63.92 80.1 67.89 79.76 71.88H40.59L45.56 84.41H95.07L100.04 96.94H78.05C78.05 97.1 78.03 97.26 78.02 97.42L77.83 96.94H18L22.97 109.47H40.6L45.57 122H77.19C77.08 127.4 77.02 132.83 77.02 138.32C77.02 156.29 77.57 173.69 78.62 190.53H55.04L60.01 203.06H45.06L50.03 215.59H216.38C214.05 204.77 212.26 193.36 211 181.4H189.24L184.27 168.87H201.65L196.68 156.34L257.17 156.52L252.2 143.99L252.19 144Z" fill="#4B4D51"/>
<path d="M77.1797 122H106L101.03 109.47H77.1797V122Z" fill="#7E8188"/>
<path d="M81.1087 215.6H109.929L104.959 203.06H80.2188L81.1087 215.6Z" fill="#7E8188"/>
<path d="M208.171 143.83H189.891L194.861 156.37H199.441H208.171V143.83Z" fill="#7E8188"/>
<path d="M161.942 117.29C159.602 115.22 156.032 115.44 153.962 117.78L150.742 121.42L159.192 128.94L162.442 125.27C164.512 122.93 164.292 119.36 161.952 117.29H161.942Z" fill="#101214"/>
<path d="M147.341 125.25L132.541 141.99L127.031 156.75L141.011 149.48V149.49L155.821 132.75L147.341 125.25Z" fill="#101214"/>
<path d="M129.001 151.479L127.031 156.749L132.021 154.149L129.001 151.479Z" fill="#101214"/>
<path d="M124.07 113.84L168.95 158.72" stroke="#101214" stroke-width="5.94" stroke-miterlimit="10"/>
<path d="M177.579 143.5C177.979 141.26 178.189 138.88 178.189 136.36C178.189 133.84 177.979 131.39 177.569 129.13C175.149 115.64 165.769 107.32 152.629 105.18C150.389 104.82 148.039 104.63 145.589 104.63C143.039 104.63 140.589 104.83 138.259 105.22C125.109 107.42 115.749 115.71 113.319 129.13C112.909 131.4 112.699 133.81 112.699 136.36C112.699 138.91 112.909 141.26 113.309 143.5C115.719 156.9 125.079 165.21 138.259 167.41C140.589 167.8 143.039 168 145.589 168C148.039 168 150.389 167.81 152.629 167.45C165.789 165.31 175.179 156.98 177.579 143.5Z" stroke="#101214" stroke-width="5.94" stroke-miterlimit="10"/>
</g>
<defs>
<clipPath id="clip0_225_7100">
<rect width="275" height="275" fill="white"/>
</clipPath>
</defs>
</svg>
