<svg width="16" height="16" viewBox="0 0 16 16" fill="none" xmlns="http://www.w3.org/2000/svg">
<g clip-path="url(#clip0_237_8094)">
<g clip-path="url(#clip1_237_8094)">
<path d="M13.4966 7.71216C13.4966 10.8811 10.891 13.4526 7.67496 13.4526C4.45891 13.4526 1.85352 10.8811 1.85352 7.71216C1.85352 4.54322 4.45916 1.97168 7.6752 1.97168C10.8913 1.97168 13.4969 4.54298 13.4969 7.71216" fill="#D33833"/>
<path d="M2.09219 9.13273C2.09219 9.13273 1.66971 3.14778 7.39275 2.97583L6.9937 2.33301L3.89036 3.33803L3.00299 4.32046L2.22833 5.75095L1.78711 7.41687L1.91856 8.53058" fill="#EF3D3A"/>
<path d="M3.68976 3.79556C2.67118 4.80511 2.03734 6.19492 2.03734 7.73432C2.03734 9.27349 2.67118 10.6633 3.69 11.6728C4.71352 12.6824 6.11733 13.3026 7.67603 13.3026C9.23473 13.3026 10.6385 12.6824 11.6621 11.6728C12.6809 10.6633 13.3147 9.27349 13.3147 7.73432C13.3147 6.19516 12.6809 4.80534 11.6621 3.7958C10.6385 2.79078 9.23473 2.16603 7.67603 2.16603C6.12202 2.16603 4.71352 2.78626 3.69 3.7958L3.68976 3.79556ZM3.43154 11.9128C2.34711 10.8443 1.67578 9.3641 1.67578 7.73432C1.67578 6.10455 2.34711 4.62412 3.43154 3.55132C4.51597 2.48304 6.01843 1.81738 7.67554 1.81738C9.33288 1.81738 10.8351 2.4828 11.9195 3.55132C13.004 4.61961 13.6753 6.10003 13.6753 7.73432C13.6753 9.3641 13.004 10.8445 11.9195 11.9128C10.8351 12.9858 9.33264 13.6467 7.67554 13.6467C6.01819 13.6467 4.51597 12.9858 3.43154 11.9128Z" fill="#231F20"/>
<path d="M10.1266 7.74324L9.23921 7.87L8.04207 8.00127L7.26741 8.01935L6.51149 7.99675L5.93413 7.82481L5.42237 7.29067L5.02333 6.19955L4.93405 5.96411L4.40355 5.79217L4.09378 5.29869L3.87305 4.59237L4.11721 3.97214L4.69457 3.77736L5.15947 3.99021L5.3802 4.46109L5.64779 4.42043L5.73707 4.31174L5.64779 3.81827L5.62436 3.19804L5.75582 2.34236L5.75113 1.85341L6.15486 1.22866L6.86368 0.735182L8.10299 0.223633L9.47869 0.418407L10.6758 1.25149L11.2298 2.10716L11.5866 2.72739L11.6759 4.26656L11.4083 5.59311L10.92 6.77008L10.4598 7.39935" fill="#F0D6B7"/>
<path d="M9.37541 11.4425L6.20647 11.5692V12.0808L6.47406 13.878L6.34261 14.0273L4.12664 13.2984L3.97176 13.0404L3.75103 10.6229L3.2299 9.17437L3.11719 8.83024L4.89193 7.65328L5.44586 7.44043L5.93419 8.01999L6.35666 8.38219L6.84499 8.53154L7.06572 8.59504L7.33332 9.70875L7.53531 9.94419L8.04706 9.77225L7.69019 10.4377L9.61513 11.3159L9.37566 11.4427" fill="#335061"/>
<path d="M4.11613 3.98147L4.69349 3.78669L5.15839 3.99954L5.37912 4.47042L5.64671 4.42975L5.71256 4.17172L5.58111 3.67825L5.71256 2.50128L5.59985 1.85845L5.9989 1.41017L6.86284 0.749266L6.61868 0.427734L5.39811 1.0073L4.88635 1.39209L4.60002 1.98973L4.1588 2.5693L4.02734 3.25279L4.11662 3.9817" fill="#6D6B6D"/>
<path d="M5.02909 1.97114C5.02909 1.97114 5.36253 1.17897 6.69112 0.794176C8.01972 0.409385 6.75697 0.518068 6.75697 0.518068L5.31567 1.05221L4.76174 1.58635L4.51758 2.01181L5.02933 1.97114" fill="#DCD9D8"/>
<path d="M4.36079 3.83266C4.36079 3.83266 3.89589 2.33416 5.67064 2.12132L5.60479 1.86328L4.38422 2.13939L4.02734 3.2531L4.11662 3.98201L4.36079 3.83266Z" fill="#DCD9D8"/>
<path d="M5.07031 5.81944L5.36133 5.54785C5.36133 5.54785 5.49279 5.56141 5.51622 5.71076C5.53965 5.86011 5.6055 7.20926 6.55847 7.93365C6.64775 8.00167 5.84966 7.82497 5.84966 7.82497L5.14085 6.75669" fill="#F7E4CD"/>
<path d="M9.14934 5.41189C9.14934 5.41189 9.20088 4.76454 9.38413 4.81425C9.56738 4.86395 9.56713 5.04065 9.56713 5.04065C9.56713 5.04065 9.12591 5.31224 9.14934 5.41189Z" fill="#F7E4CD"/>
<path d="M10.9907 3.04004C10.9907 3.04004 10.6244 3.11257 10.5916 3.42483C10.5588 3.73709 10.9907 3.48833 11.0565 3.4655" fill="#F7E4CD"/>
<path d="M8.31059 3.0625C8.31059 3.0625 7.82227 3.126 7.82227 3.4247C7.82227 3.7234 8.3762 3.70081 8.53108 3.57405" fill="#F7E4CD"/>
<path d="M5.29482 4.45226C5.29482 4.45226 4.45455 3.95879 4.36527 4.42967C4.27599 4.90055 4.07893 5.23992 4.49673 5.7334L4.21039 5.6473L3.9428 4.98641L3.85352 4.34358L4.36527 3.83203L4.94263 3.8727L5.27607 4.13073L5.29482 4.45226Z" fill="#F7E4CD"/>
<path d="M5.69377 3.1032C5.69377 3.1032 6.06939 1.21991 7.97534 0.857708C9.54341 0.559007 10.3696 0.921205 10.6796 1.26509C10.6796 1.26509 9.2805 -0.337572 7.95191 0.151385C6.62332 0.644859 5.64667 1.5412 5.67034 2.11625C5.70783 3.1032 5.69377 3.1032 5.69377 3.1032Z" fill="#F7E4CD"/>
<path d="M10.8346 1.47767C10.8346 1.47767 10.1914 1.45507 10.168 2.01181C10.168 2.01181 10.168 2.0979 10.2101 2.18375C10.2101 2.18375 10.7219 1.62702 11.0317 1.92572" fill="#F7E4CD"/>
<path d="M8.02241 2.24302C8.02241 2.24302 7.9097 1.39186 7.15847 1.88534C6.67014 2.20687 6.71725 2.65492 6.80159 2.74101C6.89087 2.8271 6.86744 2.99904 6.93305 2.88132C6.9989 2.7636 6.97991 2.37881 7.22407 2.27013C7.46355 2.16144 7.86728 2.04372 8.02216 2.24302" fill="#F7E4CD"/>
<path d="M5.9398 8.01951L3.85529 8.91586C3.85529 8.91586 4.71923 12.2296 4.27777 13.2572L3.968 13.1486L3.94457 11.8855L3.36721 9.49518L3.12305 8.83428L5.29684 7.42188L5.94005 8.01951" fill="#49728B"/>
<path d="M6.14943 9.85254L6.44514 10.2012V11.4823H6.09295C6.09295 11.4823 6.05078 10.586 6.05078 10.4773C6.05078 10.3686 6.09295 9.98381 6.09295 9.98381" fill="#49728B"/>
<path d="M6.16024 11.6777L5.16016 11.7184L5.44649 11.9132L6.15531 12.0219" fill="#49728B"/>
<path d="M9.57227 11.465L10.3938 11.4424L10.5958 13.4072L9.75551 13.5159L9.57251 11.4652" fill="#335061"/>
<path d="M9.79346 11.4644L11.0328 11.4009C11.0328 11.4009 11.5445 10.1605 11.5445 10.0972C11.5445 10.034 11.9858 8.30001 11.9858 8.30001L10.9857 7.29499L10.7837 7.12305L10.2532 7.6346V9.62205L9.79297 11.4647" fill="#335061"/>
<path d="M10.3469 11.3154L9.57227 11.4648L9.68498 12.0624C9.97131 12.1892 10.4596 11.8496 10.4596 11.8496" fill="#49728B"/>
<path d="M10.3711 7.57146L11.9251 8.68517L11.9673 8.17362L10.7936 7.12793L10.3711 7.5717" fill="#49728B"/>
<path d="M6.92898 15.6748L6.46876 13.8776L6.23866 12.5511L6.20117 11.5686L8.281 11.46H9.5721L9.45471 13.7054L9.6567 15.4394L9.63327 15.7609L7.9478 15.8877L6.92898 15.6748Z" fill="white"/>
<path d="M9.28701 11.4422C9.28701 11.4422 9.1743 13.6651 9.50775 15.2494C9.50775 15.2494 8.84111 15.6568 7.86914 15.761L9.73292 15.6977L9.95365 15.571L9.68606 12.0669L9.61552 11.3154" fill="#DCD9D8"/>
<path d="M10.6288 13.2393L11.4928 13.0039L13.1314 12.9178L13.3755 12.1889L12.9343 10.9258L12.4226 10.8623L11.7138 11.0752L11.0377 11.3967L10.6762 11.3332L10.3945 11.4419" fill="white"/>
<path d="M10.6133 12.8092C10.6133 12.8092 11.1906 12.5511 11.2799 12.5737L11.0358 11.3968L11.3221 11.2881C11.3221 11.2881 11.5241 12.4018 11.5241 12.5286C11.5241 12.5286 12.7634 12.5918 12.8761 12.5918C12.8761 12.5918 13.1437 12.0983 13.0781 11.5868L13.3223 12.2703L13.3457 12.6551L12.9888 13.1666L12.5898 13.2527L11.9231 13.2301L11.7024 12.954L10.9277 13.0627L10.6836 13.1488" fill="#DCD9D8"/>
<path d="M9.74227 11.2928L9.25394 10.0978L8.74219 9.39147C8.74219 9.39147 8.8549 9.09277 9.00978 9.09277H9.52154L10.0099 9.26472L9.96769 10.0569L9.74227 11.2928Z" fill="white"/>
<path d="M9.84052 10.8846C9.84052 10.8846 9.22074 9.73024 9.22074 9.55806C9.22074 9.55806 9.33345 9.30003 9.48833 9.36329C9.64322 9.42678 9.97666 9.59873 9.97666 9.59873V9.19134L9.22074 9.04199L8.70898 9.10549L9.57293 11.0794L9.75124 11.102" fill="#DCD9D8"/>
<path d="M7.12605 8.06454L6.51095 8.00104L5.93359 7.8291V8.02388L6.21524 8.32258L7.10262 8.70737" fill="white"/>
<path d="M6.13538 8.12793C6.13538 8.12793 6.82077 8.40404 7.04619 8.34078L7.06962 8.59881L6.44984 8.47205L6.07422 8.21402L6.13514 8.12793" fill="#DCD9D8"/>
<path d="M10.6288 9.16458C10.2532 9.15554 9.91063 9.11036 9.61467 9.02878C9.63341 8.91106 9.59593 8.79786 9.62873 8.71177C9.71332 8.65303 9.84946 8.65303 9.97623 8.63924C9.86821 8.58953 9.71332 8.5667 9.59124 8.59857C9.58656 8.517 9.54907 8.46729 9.52539 8.4038C9.73675 8.33126 10.2342 7.8561 10.5161 8.00997C10.6522 8.08702 10.7085 8.51248 10.7181 8.72533C10.7275 8.89727 10.6993 9.06945 10.6288 9.16434" fill="#D33833"/>
<path d="M10.6288 9.16458C10.2532 9.15554 9.91063 9.11036 9.61467 9.02878C9.63341 8.91106 9.59593 8.79786 9.62873 8.71177C9.71332 8.65303 9.84946 8.65303 9.97623 8.63924C9.86821 8.58953 9.71332 8.5667 9.59124 8.59857C9.58656 8.517 9.54907 8.46729 9.52539 8.4038C9.73675 8.33126 10.2342 7.8561 10.5161 8.00997C10.6522 8.08702 10.7085 8.51248 10.7181 8.72533C10.7275 8.89727 10.6993 9.06945 10.6288 9.16434V9.16458Z" fill="black"/>
<path d="M10.6529 9.21069L10.6277 9.20998C10.2447 9.2007 9.89965 9.15456 9.60172 9.07252L9.56152 9.06158L9.56793 9.02186C9.57558 8.97335 9.57287 8.92435 9.57015 8.87679C9.56645 8.81258 9.563 8.75217 9.58446 8.69605L9.58939 8.68297L9.60098 8.67488C9.63058 8.65443 9.66461 8.64016 9.70111 8.6297C9.66659 8.63065 9.63329 8.63493 9.60345 8.64254L9.54722 8.65705L9.54401 8.60092C9.5413 8.55241 9.52502 8.51745 9.50603 8.47702C9.4974 8.4587 9.48852 8.43968 9.48087 8.41899L9.46484 8.37594L9.50948 8.36072C9.56843 8.34051 9.66091 8.27986 9.75907 8.21565C10.0082 8.05251 10.3182 7.84941 10.5394 7.97022C10.7347 8.08057 10.7641 8.697 10.7653 8.72316C10.7759 8.91865 10.7394 9.09344 10.6674 9.19071L10.6529 9.21045V9.21069ZM9.66609 8.99522C9.94035 9.06681 10.2555 9.10819 10.6035 9.11841C10.6538 9.03423 10.6795 8.88797 10.6709 8.72792C10.658 8.43659 10.5877 8.10364 10.4923 8.04966C10.3231 7.95714 10.0279 8.15049 9.81234 8.29152C9.72652 8.34764 9.65006 8.39782 9.58668 8.42803C9.58841 8.43183 9.59038 8.43587 9.5921 8.43992C9.60641 8.47036 9.62195 8.50365 9.63107 8.54432C9.74699 8.52791 9.88732 8.54789 9.99658 8.5983L10.1458 8.66727L9.98129 8.68487C9.95736 8.68749 9.93344 8.68939 9.90927 8.69153C9.81604 8.69962 9.7275 8.70723 9.66881 8.741C9.65919 8.77714 9.66165 8.82138 9.66461 8.8718C9.66683 8.90985 9.6693 8.9517 9.66609 8.99522Z" fill="#D33833"/>
<path d="M8.83016 8.57178C8.83016 8.59889 8.83016 8.626 8.82547 8.65335C8.70808 8.72588 8.52039 8.72588 8.38894 8.78914C8.57662 8.79818 8.72707 8.84337 8.85852 8.90234C8.85384 8.97036 8.85384 9.04266 8.84915 9.11067C8.6331 9.25099 8.43605 9.46384 8.18251 9.59963C8.06043 9.66313 7.64264 9.82603 7.51587 9.7944C7.44533 9.77633 7.43596 9.69024 7.40785 9.60891C7.34693 9.43696 7.20586 9.1561 7.1918 8.89355C7.17774 8.56298 7.14025 8.00624 7.51094 8.07402C7.81133 8.12824 8.15883 8.25952 8.38894 8.38176C8.53445 8.46333 8.61436 8.5537 8.83016 8.57201" fill="#D33833"/>
<path d="M8.83016 8.57178C8.83016 8.59889 8.83016 8.626 8.82547 8.65335C8.70808 8.72588 8.52039 8.72588 8.38894 8.78914C8.57662 8.79818 8.72707 8.84337 8.85852 8.90234C8.85384 8.97036 8.85384 9.04266 8.84915 9.11067C8.6331 9.25099 8.43605 9.46384 8.18251 9.59963C8.06043 9.66313 7.64264 9.82603 7.51587 9.7944C7.44533 9.77633 7.43596 9.69024 7.40785 9.60891C7.34693 9.43696 7.20586 9.1561 7.1918 8.89355C7.17774 8.56298 7.14025 8.00624 7.51094 8.07402C7.81133 8.12824 8.15883 8.25952 8.38894 8.38176C8.53445 8.46333 8.61436 8.5537 8.83016 8.57201V8.57178Z" fill="black"/>
<path d="M7.5549 9.84355C7.53566 9.84355 7.51865 9.84188 7.50409 9.83831C7.42147 9.81715 7.39829 9.73867 7.37782 9.6697C7.37313 9.65424 7.3687 9.63855 7.36327 9.62309C7.34946 9.58456 7.33096 9.53842 7.31148 9.48967C7.24242 9.3182 7.15635 9.10464 7.145 8.8956L7.14352 8.8604C7.13168 8.59095 7.11541 8.22186 7.28558 8.08012C7.34699 8.02899 7.42591 8.01163 7.52037 8.02899C7.7998 8.0794 8.14977 8.20236 8.41243 8.34172C8.45017 8.36265 8.48223 8.38357 8.5133 8.40355C8.6048 8.46253 8.68372 8.51366 8.83491 8.52627L8.87807 8.52983V8.57169C8.87807 8.60023 8.87807 8.62972 8.87264 8.66063L8.86919 8.68061L8.85143 8.69155C8.78262 8.73388 8.69556 8.75338 8.61072 8.7717C8.70099 8.7912 8.78903 8.82069 8.87881 8.86088L8.90816 8.87396L8.90594 8.90511C8.90372 8.93841 8.90248 8.9736 8.90125 9.00761C8.90002 9.04257 8.89878 9.07848 8.89656 9.1132L8.89509 9.13556L8.87585 9.14816C8.78805 9.20524 8.70395 9.27421 8.61467 9.34722C8.48839 9.45067 8.35768 9.55769 8.20576 9.63902C8.12733 9.67969 7.74407 9.84331 7.55515 9.84331L7.5549 9.84355ZM7.45206 8.11365C7.41013 8.11365 7.37535 8.1253 7.34699 8.14908C7.21135 8.26205 7.22713 8.61973 7.23749 8.85636L7.23897 8.89108C7.24933 9.0849 7.33244 9.29086 7.39903 9.45614C7.41901 9.50584 7.438 9.55269 7.4523 9.59336C7.45822 9.61048 7.4634 9.62761 7.46833 9.64402C7.48634 9.70466 7.49867 9.742 7.52777 9.74961C7.63086 9.77553 8.02448 9.62903 8.15988 9.55888C8.30317 9.48206 8.43019 9.37813 8.55301 9.27754C8.63785 9.20809 8.71825 9.14222 8.80309 9.08514C8.80457 9.05851 8.80556 9.03116 8.8063 9.00452C8.80704 8.98026 8.80802 8.95529 8.80926 8.93056C8.67065 8.87206 8.5355 8.84138 8.38653 8.83424L8.2065 8.82568L8.36754 8.74791C8.43364 8.71605 8.51034 8.6994 8.58458 8.68346C8.65783 8.66753 8.72738 8.65255 8.78139 8.62496C8.78164 8.62068 8.78213 8.6164 8.78213 8.61212C8.6344 8.5919 8.54931 8.53697 8.45978 8.47918C8.42994 8.45991 8.39911 8.43994 8.36508 8.42091C8.11154 8.28631 7.77267 8.1674 7.50212 8.11841C7.48436 8.11508 7.46759 8.11341 7.45181 8.11341L7.45206 8.11365Z" fill="#D33833"/>
<path d="M9.04177 8.96589C9.00897 8.78491 8.97123 8.73496 8.98554 8.57658C9.48792 8.25504 9.5772 9.12879 9.04177 8.96589Z" fill="#D33833"/>
<path d="M9.04177 8.96589C9.00897 8.78491 8.97123 8.73496 8.98554 8.57658C9.48792 8.25504 9.5772 9.12879 9.04177 8.96589Z" fill="black"/>
<path d="M9.16848 9.03257C9.12779 9.03257 9.08117 9.02592 9.0279 9.00974L9.00053 9.00142L8.99559 8.97407C8.98524 8.91723 8.97438 8.87347 8.96501 8.83495C8.9438 8.74957 8.92851 8.68797 8.93887 8.57311L8.94084 8.55123L8.95983 8.5391C9.1818 8.39712 9.31424 8.48107 9.36085 8.52364C9.46049 8.61473 9.48219 8.78596 9.40919 8.90558C9.38256 8.9491 9.31251 9.03305 9.16873 9.03305L9.16848 9.03257ZM9.08364 8.93007C9.1966 8.95742 9.28267 8.93269 9.3278 8.85897C9.37886 8.77549 9.3643 8.65206 9.29599 8.58952C9.23482 8.53363 9.1416 8.53839 9.03185 8.60307C9.02667 8.68916 9.03925 8.73982 9.0575 8.81378C9.06564 8.84708 9.07501 8.88417 9.08389 8.93007H9.08364Z" fill="#D33833"/>
<path d="M9.76577 9.11085C9.76577 9.11085 9.61089 8.898 9.7236 8.83474C9.83631 8.77148 9.94433 8.83474 10.0099 8.72605C10.0755 8.61737 10.0099 8.55411 10.0334 8.42735C10.0568 8.3006 10.1648 8.278 10.2775 8.25541C10.3902 8.23282 10.7 8.19191 10.7424 8.29608L10.611 7.91129L10.3434 7.8252L9.50311 8.29608L9.46094 8.53152V9.0024" fill="#EF3D3A"/>
<path d="M7.43718 9.81625C7.40906 9.48117 7.38094 9.15083 7.35258 8.81575C7.30572 8.31775 7.47466 8.40384 7.92526 8.40384C7.99579 8.40384 8.34773 8.4809 8.37116 8.5306C8.49324 8.77056 8.16917 8.7161 8.51199 8.89732C8.79832 9.04667 9.31008 8.80671 9.19268 8.46734C9.12683 8.39029 8.85455 8.44475 8.75615 8.39481C8.58252 8.30872 8.40865 8.22286 8.23502 8.13677C8.01429 8.02809 7.50722 7.86518 7.27267 8.01905C6.67632 8.40836 7.31016 9.38628 7.52152 9.79366" fill="#EF3D3A"/>
<path d="M8.0229 2.2432C7.41718 2.10741 7.11678 2.48768 6.93378 2.88151C6.76953 2.84536 6.83513 2.62799 6.87755 2.51931C6.98558 2.23416 7.42211 1.84937 7.77898 1.90359C7.92918 1.92167 8.13586 2.05746 8.02315 2.2432" fill="#231F20"/>
<path d="M10.9673 2.90356H10.9955C11.1316 3.17515 11.249 3.46481 11.4226 3.70929C11.3052 3.97184 10.5493 4.19825 10.5587 3.7364C10.7229 3.66838 11.0046 3.72285 11.1503 3.63224C11.0658 3.41035 10.9484 3.22033 10.9673 2.90332" fill="#231F20"/>
<path d="M8.32747 2.91332C8.45892 3.14425 8.50109 3.38421 8.68434 3.55615C8.76893 3.6332 8.9285 3.72809 8.84859 3.94546C8.82985 3.99516 8.69371 4.10837 8.6138 4.13096C8.32747 4.21253 7.65614 4.14903 7.88131 3.80039C8.12079 3.80943 8.43993 3.94974 8.61849 3.78232C8.48235 3.57399 8.23819 3.15756 8.32747 2.91309" fill="#231F20"/>
<path d="M10.8587 5.23984C10.4269 5.50691 9.94326 5.80109 9.22976 5.73331C9.07956 5.60655 9.0184 5.32141 9.16884 5.13567C9.24406 5.26243 9.19696 5.49787 9.413 5.53402C9.81673 5.60203 10.2863 5.29406 10.5773 5.18989C10.7557 4.89571 10.5633 4.79155 10.399 4.60129C10.0656 4.2165 9.62436 3.73658 9.63842 3.16177C9.77456 3.06664 9.78393 3.3066 9.80268 3.34727C9.9763 3.73658 10.4131 4.23909 10.7275 4.57418C10.8074 4.65575 10.9342 4.73709 10.9483 4.79155C10.9904 4.94542 10.8402 5.13567 10.859 5.23984" fill="#231F20"/>
<path d="M5.1409 4.95928C5.00476 4.88223 4.97196 4.55642 4.81214 4.54738C4.58204 4.53383 4.62446 4.97284 4.62446 5.23087C4.46958 5.09508 4.44146 4.66962 4.55392 4.45225C4.42247 4.38876 4.36624 4.52027 4.29102 4.56545C4.38967 3.90907 5.2911 4.26224 5.1409 4.95928Z" fill="#231F20"/>
<path d="M11.1311 5.51562C10.9291 5.88686 10.6428 6.29425 10.0514 6.3078C10.0373 6.19008 10.028 6.00458 10.0514 5.93205C10.5067 5.88686 10.7886 5.66498 11.1311 5.51562Z" fill="#231F20"/>
<path d="M8.29492 5.75586C8.67054 5.94611 9.36529 5.96871 9.88174 5.95515C9.90985 6.06384 9.90985 6.19963 9.90985 6.33091C9.2479 6.35802 8.46855 6.19963 8.29492 5.75586Z" fill="#231F20"/>
<path d="M8.22503 6.10938C8.48794 6.74316 9.38468 6.67063 10.1406 6.65255C10.1078 6.73413 10.0373 6.83353 9.9433 6.8654C9.69913 6.96053 9.03249 7.03283 8.69437 6.86088C8.483 6.7522 8.34218 6.5032 8.22478 6.35837C8.17324 6.29036 7.89134 6.11389 8.22478 6.10938" fill="#231F20"/>
<path d="M10.8256 9.59898C10.5205 10.106 10.2246 10.6266 9.86328 11.0704C10.0135 10.6404 10.0793 9.91599 10.1028 9.36354C10.4219 9.21871 10.6944 9.39517 10.8259 9.59898" fill="#81B0C4"/>
<path d="M12.4729 11.4189C12.1301 11.487 11.8909 11.8083 11.5527 11.7857C11.7404 11.5367 12.0598 11.428 12.4729 11.4189Z" fill="#231F20"/>
<path d="M12.6245 11.9354C12.3428 11.9625 12.0141 12.0079 11.7324 11.9851C11.8686 11.7858 12.385 11.8583 12.6245 11.9354Z" fill="#231F20"/>
<path d="M12.7235 12.3836C12.4091 12.3882 12.0194 12.3836 11.7188 12.361C11.8971 12.1755 12.5215 12.293 12.7235 12.3836Z" fill="#231F20"/>
<path d="M10.2336 13.606C10.2804 13.9862 10.4355 14.371 10.4166 14.7875C10.2429 14.8417 10.1443 14.8916 9.90949 14.8916C9.89543 14.5385 9.84364 13.9953 9.85794 13.6557C9.97065 13.6647 10.1396 13.5786 10.2336 13.606Z" fill="#DCD9D8"/>
<path d="M9.72682 7.99219C9.56725 8.09183 9.4358 8.21407 9.28092 8.32276C8.94279 8.34083 8.75979 8.30016 8.51562 8.11443C8.52031 8.10087 8.54374 8.10539 8.54374 8.08732C8.9053 8.24118 9.36526 8.02382 9.72682 7.99219Z" fill="#F0D6B7"/>
<path d="M7.84009 10.3606C7.93874 9.94865 8.32842 9.73129 8.68036 9.50488C9.04192 9.94865 9.2624 10.5189 9.50657 11.0712C8.92921 10.9037 8.34223 10.6367 7.83984 10.3603" fill="#81B0C4"/>
<path d="M9.85919 13.6604C9.84513 14 9.89199 14.5387 9.91073 14.8963C10.1455 14.8963 10.2442 14.8466 10.4178 14.7922C10.4365 14.3757 10.2817 13.991 10.2348 13.6107C10.1408 13.5791 9.9719 13.6649 9.85919 13.6604ZM6.23472 11.7407C6.38961 13.1034 6.61034 14.2442 7.01876 15.4528C7.92487 15.7199 9.01399 15.7425 9.81677 15.5025C9.67126 14.8236 9.73217 13.995 9.64783 13.2661C9.58198 12.7184 9.61502 12.1705 9.52574 11.6137C8.55402 11.4189 7.18301 11.5685 6.23472 11.7405V11.7407ZM9.75585 11.6232C9.74648 12.2073 9.78397 12.7866 9.83107 13.3707C10.0659 13.3391 10.2207 13.3165 10.4368 13.2666C10.3663 12.7053 10.3759 12.0668 10.2301 11.569C10.0659 11.5735 9.92035 11.569 9.75585 11.6232ZM10.9342 11.5281C10.8215 11.5055 10.6948 11.5281 10.5914 11.5281C10.643 12.0035 10.7604 12.5286 10.8028 13.0311C10.967 13.0356 11.0563 12.9586 11.1925 12.936C11.2018 12.497 11.155 11.8903 10.9342 11.5281ZM12.723 13.1034C13.0705 13.0218 13.2864 12.6145 13.1879 12.1935C13.1221 11.9129 13.0096 11.3788 12.8829 11.1975C12.7936 11.0663 12.5447 10.8898 12.343 11.012C12.0192 11.2113 11.4509 11.2701 11.2161 11.51C11.3335 11.8903 11.371 12.4064 11.4181 12.8863C11.8219 12.9089 12.3149 12.7776 12.6528 12.9179C12.418 12.9905 12.1176 12.9905 11.9156 13.0989C12.0845 13.176 12.4695 13.1622 12.723 13.1034ZM9.50231 11.0708C9.25815 10.5186 9.03742 9.94803 8.67611 9.5045C8.32392 9.7309 7.93893 9.94827 7.83584 10.3602C8.34291 10.6363 8.92964 10.9033 9.50256 11.071L9.50231 11.0708ZM10.1034 9.36418C10.0799 9.9164 10.0141 10.6408 9.86387 11.071C10.2254 10.6227 10.5211 10.1067 10.8262 9.59962C10.6948 9.39581 10.4225 9.21935 10.1031 9.36418H10.1034ZM9.42241 9.13326C9.28627 9.11971 9.16887 9.28713 8.99056 9.21483C8.94839 9.26002 8.91065 9.30544 8.86848 9.35063C9.26284 9.81247 9.44584 10.4643 9.75116 11.003C9.91542 10.4824 9.89668 9.9164 9.93416 9.35063C9.70874 9.35967 9.58198 9.14682 9.42241 9.13326ZM8.98587 8.57629C8.97182 8.73468 9.0093 8.78462 9.0421 8.9656C9.57729 9.1285 9.48801 8.25476 8.98587 8.57629ZM8.38952 8.38627C8.15942 8.26403 7.81216 8.13276 7.51152 8.07853C7.14059 8.01052 7.17808 8.56749 7.19238 8.89806C7.20644 9.16061 7.34727 9.43672 7.40843 9.61342C7.43655 9.69499 7.44592 9.78084 7.51646 9.79892C7.64322 9.82603 8.0657 9.66764 8.18309 9.60414C8.43663 9.47287 8.63369 9.26002 8.84973 9.11519C8.85442 9.04717 8.85442 8.97487 8.85911 8.90686C8.72765 8.84336 8.58214 8.80269 8.38952 8.79366C8.51629 8.73016 8.70866 8.73016 8.82606 8.65786C8.82606 8.63075 8.82606 8.60364 8.83074 8.57629C8.6147 8.5537 8.53503 8.46309 8.38952 8.38603V8.38627ZM6.18293 8.00148C5.99056 8.19173 6.7228 8.44525 6.95291 8.45881C6.95291 8.34109 7.02344 8.22788 7.00914 8.14179C6.73217 8.09661 6.37061 8.12824 6.18293 8.00148ZM8.54934 8.08757C8.54934 8.10564 8.52591 8.10113 8.52122 8.11468C8.77007 8.30018 8.95307 8.34109 9.28651 8.32301C9.43671 8.21885 9.57285 8.09209 9.73242 7.99244C9.36618 8.02407 8.90621 8.24144 8.54934 8.08757ZM10.7182 8.72136C10.7088 8.51303 10.6523 8.08305 10.5162 8.006C10.2346 7.84761 9.73686 8.32753 9.5255 8.39983C9.54893 8.46332 9.58642 8.51303 9.59135 8.5946C9.71812 8.56297 9.86831 8.58556 9.97634 8.63527C9.84957 8.64882 9.71343 8.64882 9.62884 8.7078C9.60072 8.79389 9.63821 8.90709 9.61478 9.02482C9.91049 9.10639 10.2533 9.14705 10.6289 9.16061C10.6995 9.07 10.7276 8.89806 10.7182 8.7216V8.72136ZM5.85911 8.18246C5.79819 8.14179 5.38952 7.63024 5.33329 7.65284C4.59612 7.93346 3.90605 8.4179 3.29095 8.87975C3.87768 10.0976 4.11716 11.5868 4.15958 13.0221C4.83091 13.3253 5.42257 13.7646 6.33806 13.8097C6.23004 13.0899 6.13607 12.4425 6.07515 11.7635C5.84505 11.6684 5.51654 11.7681 5.30049 11.7364C5.30049 11.4874 5.62925 11.6277 5.65736 11.4603C5.67611 11.3336 5.47436 11.3245 5.53997 11.1252C5.70891 11.184 5.79819 11.3155 5.9765 11.3652C6.14076 11.0211 5.9765 10.4099 5.99993 10.1202C6.00462 10.066 6.02805 9.82151 6.15481 9.86218C6.26752 9.89833 6.15013 10.5186 6.1595 10.7901C6.16887 11.0437 6.1267 11.2836 6.23472 11.442C7.11741 11.3243 8.01415 11.2518 8.97182 11.2246C8.76045 11.1386 8.5116 11.0572 8.23933 10.9076C8.08913 10.8261 7.62423 10.6586 7.58206 10.5228C7.51152 10.3055 7.76037 10.1923 7.80279 10.0068C7.35689 10.2422 7.27229 9.78037 7.16427 9.45907C7.0703 9.16489 7.01407 8.94301 6.99064 8.77558C6.60097 8.58533 6.18786 8.40886 5.85911 8.18246ZM10.3285 7.71182C10.9436 7.42667 11.0563 8.78486 10.8122 9.22387C10.8497 9.35515 10.9764 9.40485 11.0282 9.52257C10.6854 10.1157 10.3051 10.6679 9.95315 11.252C10.2114 11.0936 10.587 11.2249 10.8921 11.1072C11.0048 11.0665 11.0844 10.8175 11.169 10.6182C11.4038 10.075 11.648 9.38678 11.7558 8.87071C11.7792 8.75299 11.8497 8.49495 11.831 8.39079C11.8029 8.20053 11.54 8.06022 11.4038 7.94702C11.155 7.72965 11.0001 7.54415 10.7372 7.34034C10.6385 7.48969 10.4134 7.58934 10.3288 7.71158L10.3285 7.71182ZM4.45529 2.45577C4.16427 2.76803 4.22519 3.34759 4.25799 3.76402C4.78849 3.44248 5.48793 3.79113 5.48324 4.33454C5.73678 4.33003 5.57721 4.03133 5.5301 3.83655C5.3799 3.20728 5.78364 2.52831 5.54885 1.95326C5.09357 1.98941 4.72264 2.16611 4.45504 2.45577H4.45529ZM6.54917 0.649298C5.88722 0.830278 5.03734 1.29664 4.76506 1.87169C4.97642 1.84006 5.12193 1.74041 5.32836 1.72686C5.40827 1.72234 5.51136 1.75849 5.60064 1.73589C5.77895 1.69071 5.93408 1.3014 6.07022 1.15633C6.20167 1.01602 6.36124 0.952517 6.46927 0.82576C6.5398 0.79413 6.64289 0.79413 6.64758 0.694483C6.61946 0.662853 6.58666 0.640261 6.54893 0.649298H6.54917ZM10 0.821479C9.30994 0.445724 8.14561 0.165098 7.41312 0.518259C6.82145 0.803405 6.02336 1.27429 5.75108 1.86741C6.00462 2.44245 5.67586 2.96756 5.65243 3.55141C5.64306 3.86366 5.80263 4.13097 5.81669 4.47034C5.72741 4.61065 5.4645 4.62421 5.2815 4.61517C5.22058 4.31647 5.11256 3.98138 4.79317 3.94523C4.34258 3.89553 4.00914 4.25749 3.99039 4.63325C3.96696 5.07702 4.34258 5.81021 4.87777 5.76051C5.08444 5.74243 5.13599 5.54314 5.36141 5.54314C5.48349 5.77858 5.17372 5.85088 5.14067 6.01854C5.1313 6.06373 5.1641 6.23139 5.18753 6.31272C5.28619 6.69752 5.50199 7.20003 5.71335 7.49421C5.98563 7.86997 6.51613 7.92419 7.08905 7.96057C7.19238 7.74773 7.568 7.7658 7.81216 7.82026C7.51646 7.70706 7.24418 7.43547 7.01876 7.19551C6.76054 6.9194 6.49763 6.62498 6.48357 6.26302C6.97658 6.9194 7.38032 7.49445 8.27237 7.78411C8.94839 8.00148 9.73711 7.68447 10.2582 7.3313C10.4743 7.18647 10.601 6.95103 10.7559 6.7427C11.3286 5.94601 11.5962 4.81423 11.54 3.71407C11.5165 3.26127 11.5165 2.8087 11.357 2.50524C11.1927 2.18823 10.6339 1.89856 10.3053 2.18823C10.2444 1.87597 10.5776 1.68571 10.9673 1.79892C10.6903 1.45027 10.3993 1.03837 10.0003 0.821003L10 0.821479ZM11.2864 11.0572C11.8263 10.7992 12.8311 10.3647 13.1643 11.0572C13.291 11.3153 13.4365 11.7452 13.4977 12.0125C13.587 12.3838 13.3991 13.1714 13 13.2937C12.6478 13.4024 12.2394 13.3978 11.8169 13.3163C11.7654 13.2756 11.7136 13.2076 11.6714 13.1353C11.371 13.1262 11.0847 13.1488 10.8499 13.2711C10.8733 13.4884 10.7231 13.5201 10.5776 13.5653C10.4743 13.9681 10.789 14.4932 10.7138 14.8554C10.6622 15.118 10.3288 15.1586 10.0846 15.2041C10.0752 15.3489 10.094 15.4711 10.1127 15.5934C10.0565 15.7927 9.80764 15.9056 9.56817 15.933C8.78413 16.0236 7.59636 16.0643 6.84513 15.8017C6.63377 15.3037 6.46951 14.7016 6.29589 14.1358C5.5634 14.2128 4.96729 13.8326 4.40868 13.5791C4.21631 13.493 3.94847 13.4433 3.87349 13.2939C3.80296 13.1491 3.83132 12.873 3.81257 12.6149C3.7704 11.9495 3.72798 11.3067 3.54967 10.6275C3.46976 10.3197 3.32425 10.0524 3.22584 9.75825C3.13188 9.48666 2.97231 9.14705 2.93013 8.87547C2.86922 8.4726 3.26358 8.45001 3.51218 8.27331C3.90185 8.00172 4.20694 7.85237 4.62966 7.60789C4.75643 7.53535 5.13204 7.35437 5.17422 7.26828C5.25881 7.10086 5.0287 6.86542 4.96754 6.73414C4.86889 6.52581 4.81734 6.34935 4.80328 6.14554C4.4511 6.09132 4.17882 5.8875 4.01925 5.6611C3.75166 5.28083 3.56397 4.57902 3.79852 4.0494C3.81726 4.00873 3.90654 3.92264 3.9206 3.85914C3.94871 3.73239 3.86905 3.56496 3.86437 3.42917C3.84094 2.73664 3.98645 2.139 4.47009 1.93067C4.66739 1.17464 5.37152 0.925644 6.03347 0.549889C6.28232 0.409576 6.5546 0.318967 6.83625 0.219321C7.84571 -0.13836 9.39972 -0.0703433 10.24 0.540852C10.5969 0.798886 11.1648 1.34658 11.3668 1.74517C11.9067 2.79086 11.8645 4.54287 11.4889 5.81949C11.4374 5.99143 11.3668 6.24043 11.2635 6.44876C11.193 6.59359 10.9725 6.87873 10.9959 7.00549C11.024 7.13677 11.503 7.48541 11.6063 7.58054C11.7893 7.75248 12.1415 7.97889 12.1696 8.19625C12.2024 8.42718 12.0663 8.74395 11.996 8.96584C11.7706 9.70831 11.5454 10.3918 11.2872 11.0575L11.2864 11.0572Z" fill="#231F20"/>
<path d="M7.69509 5.91489C7.7232 5.87874 7.88277 5.81976 8.10819 5.92392C8.10819 5.92392 7.8406 5.96459 7.86403 6.39481L7.75132 6.37221C7.756 6.37673 7.63861 5.98742 7.69509 5.91489Z" fill="#F7E4CD"/>
<path d="M9.63869 9.59038C9.63869 9.65387 9.58246 9.7081 9.51661 9.7081C9.45076 9.7081 9.39453 9.65387 9.39453 9.59038C9.39453 9.52688 9.45076 9.47266 9.51661 9.47266C9.58715 9.47266 9.63869 9.52688 9.63869 9.59038Z" fill="#1D1919"/>
<path d="M9.75979 10.1382C9.75979 10.2017 9.70356 10.2559 9.63771 10.2559C9.57186 10.2559 9.51562 10.2017 9.51562 10.1382C9.51562 10.0747 9.57186 10.0205 9.63771 10.0205C9.70824 10.0205 9.75979 10.0702 9.75979 10.1382Z" fill="#1D1919"/>
</g>
</g>
<defs>
<clipPath id="clip0_237_8094">
<path d="M0 4C0 1.79086 1.79086 0 4 0H12C14.2091 0 16 1.79086 16 4V12C16 14.2091 14.2091 16 12 16H4C1.79086 16 0 14.2091 0 12V4Z" fill="white"/>
</clipPath>
<clipPath id="clip1_237_8094">
<rect width="12" height="16" fill="white" transform="translate(1.67578 0.00195312)"/>
</clipPath>
</defs>
</svg>
