<svg width="16" height="16" viewBox="0 0 16 16" fill="none" xmlns="http://www.w3.org/2000/svg">
<mask id="path-1-inside-1_237_8026" fill="white">
<path d="M0 4C0 1.79086 1.79086 0 4 0H12C14.2091 0 16 1.79086 16 4V12C16 14.2091 14.2091 16 12 16H4C1.79086 16 0 14.2091 0 12V4Z"/>
</mask>
<path d="M0 4C0 1.79086 1.79086 0 4 0H12C14.2091 0 16 1.79086 16 4V12C16 14.2091 14.2091 16 12 16H4C1.79086 16 0 14.2091 0 12V4Z" fill="white"/>
<path d="M4 0V1H12V0V-1H4V0ZM16 4H15V12H16H17V4H16ZM12 16V15H4V16V17H12V16ZM0 12H1V4H0H-1V12H0ZM4 16V15C2.34315 15 1 13.6569 1 12H0H-1C-1 14.7614 1.23858 17 4 17V16ZM16 12H15C15 13.6569 13.6569 15 12 15V16V17C14.7614 17 17 14.7614 17 12H16ZM12 0V1C13.6569 1 15 2.34315 15 4H16H17C17 1.23858 14.7614 -1 12 -1V0ZM4 0V-1C1.23858 -1 -1 1.23858 -1 4H0H1C1 2.34315 2.34315 1 4 1V0Z" fill="#0B1228" fill-opacity="0.14" mask="url(#path-1-inside-1_237_8026)"/>
<g clip-path="url(#clip0_237_8026)">
<path d="M11.8812 8.13949C11.8812 10.2521 10.1441 11.9665 8.0001 11.9665C5.85607 11.9665 4.11914 10.2521 4.11914 8.13949C4.11914 6.02686 5.85623 4.3125 8.00027 4.3125C10.1443 4.3125 11.8814 6.0267 11.8814 8.13949" fill="#D33833"/>
<path d="M4.27761 9.08784C4.27761 9.08784 3.99595 5.09787 7.81131 4.98324L7.54528 4.55469L5.47639 5.2247L4.88481 5.87966L4.36837 6.83331L4.07422 7.94393L4.16185 8.6864" fill="#EF3D3A"/>
<path d="M5.34265 5.52875C4.6636 6.20178 4.24104 7.12832 4.24104 8.15459C4.24104 9.1807 4.6636 10.1072 5.34281 10.7803C6.02516 11.4533 6.96103 11.8668 8.00016 11.8668C9.0393 11.8668 9.97517 11.4533 10.6575 10.7803C11.3367 10.1072 11.7593 9.1807 11.7593 8.15459C11.7593 7.12848 11.3367 6.20193 10.6575 5.52891C9.97517 4.85889 9.0393 4.44239 8.00016 4.44239C6.96416 4.44239 6.02516 4.85588 5.34281 5.52891L5.34265 5.52875ZM5.1705 10.9402C4.44755 10.2279 4 9.2411 4 8.15459C4 7.06807 4.44755 6.08112 5.1705 5.36592C5.89346 4.65373 6.8951 4.20996 7.99984 4.20996C9.10474 4.20996 10.1062 4.65357 10.8292 5.36592C11.5521 6.07811 11.9997 7.06506 11.9997 8.15459C11.9997 9.2411 11.5521 10.2281 10.8292 10.9402C10.1062 11.6556 9.10457 12.0962 7.99984 12.0962C6.89494 12.0962 5.89346 11.6556 5.1705 10.9402Z" fill="#231F20"/>
<path d="M9.63387 8.16053L9.04229 8.24504L8.24419 8.33255L7.72775 8.3446L7.2238 8.32954L6.8389 8.21491L6.49773 7.85882L6.2317 7.13141L6.17218 6.97445L5.81851 6.85982L5.612 6.53083L5.46484 6.05995L5.62762 5.64646L6.01253 5.51662L6.32246 5.65851L6.46961 5.97244L6.64801 5.94532L6.70753 5.87287L6.64801 5.54389L6.63239 5.1304L6.72002 4.55995L6.7169 4.23398L6.98605 3.81748L7.4586 3.48849L8.2848 3.14746L9.20194 3.27731L10 3.8327L10.3693 4.40315L10.6072 4.81663L10.6668 5.84274L10.4884 6.72711L10.1628 7.51176L9.856 7.93127" fill="#F0D6B7"/>
<path d="M9.13309 10.627L7.02046 10.7115V11.0525L7.19885 12.2507L7.11122 12.3502L5.63391 11.8643L5.53065 11.6923L5.3835 10.0806L5.03608 9.11494L4.96094 8.88553L6.1441 8.10088L6.51339 7.95898L6.83894 8.34536L7.12059 8.58683L7.44614 8.68639L7.5933 8.72873L7.77169 9.4712L7.90635 9.62816L8.24752 9.51353L8.00961 9.95714L9.2929 10.5427L9.13325 10.6272" fill="#335061"/>
<path d="M5.62755 5.65236L6.01246 5.52251L6.32239 5.66441L6.46954 5.97833L6.64794 5.95122L6.69184 5.77919L6.6042 5.45021L6.69184 4.66557L6.6167 4.23702L6.88273 3.93816L7.45869 3.49756L7.29592 3.2832L6.4822 3.66958L6.14103 3.92611L5.95014 4.32453L5.656 4.71091L5.56836 5.16657L5.62788 5.65252" fill="#6D6B6D"/>
<path d="M6.23554 4.31312C6.23554 4.31312 6.45783 3.785 7.34356 3.52847C8.22929 3.27195 7.38746 3.3444 7.38746 3.3444L6.42659 3.7005L6.05731 4.05659L5.89453 4.34023L6.2357 4.31312" fill="#DCD9D8"/>
<path d="M5.79065 5.55316C5.79065 5.55316 5.48072 4.55416 6.66389 4.41226L6.61999 4.24023L5.80627 4.42431L5.56836 5.16678L5.62788 5.65272L5.79065 5.55316Z" fill="#DCD9D8"/>
<path d="M6.26172 6.87833L6.45573 6.69727C6.45573 6.69727 6.54337 6.7063 6.55899 6.80587C6.57461 6.90544 6.61851 7.80487 7.25383 8.2878C7.31335 8.33314 6.78128 8.21534 6.78128 8.21534L6.30874 7.50316" fill="#F7E4CD"/>
<path d="M8.98302 6.6063C8.98302 6.6063 9.01739 6.17473 9.13955 6.20787C9.26171 6.24101 9.26155 6.35881 9.26155 6.35881C9.26155 6.35881 8.9674 6.53987 8.98302 6.6063Z" fill="#F7E4CD"/>
<path d="M10.2086 5.02539C10.2086 5.02539 9.96446 5.07375 9.94259 5.28192C9.92072 5.49009 10.2086 5.32425 10.2525 5.30903" fill="#F7E4CD"/>
<path d="M8.42321 5.04004C8.42321 5.04004 8.09766 5.08237 8.09766 5.2815C8.09766 5.48064 8.46694 5.46558 8.5702 5.38107" fill="#F7E4CD"/>
<path d="M6.41399 5.9672C6.41399 5.9672 5.85382 5.63822 5.7943 5.95214C5.73478 6.26606 5.6034 6.4923 5.88193 6.82129L5.69104 6.76389L5.51264 6.32329L5.45312 5.89474L5.7943 5.55371L6.1792 5.58082L6.4015 5.75284L6.41399 5.9672Z" fill="#F7E4CD"/>
<path d="M6.67801 5.06684C6.67801 5.06684 6.92842 3.81132 8.19906 3.56985C9.24444 3.37072 9.79524 3.61218 10.0019 3.84144C10.0019 3.84144 9.06916 2.773 8.18344 3.09897C7.29771 3.42795 6.64661 4.02551 6.66239 4.40888C6.68738 5.06684 6.67801 5.06684 6.67801 5.06684Z" fill="#F7E4CD"/>
<path d="M10.1065 3.98348C10.1065 3.98348 9.67773 3.96842 9.66211 4.33958C9.66211 4.33958 9.66211 4.39697 9.69023 4.45421C9.69023 4.45421 10.0314 4.08305 10.2379 4.28218" fill="#F7E4CD"/>
<path d="M8.23239 4.49437C8.23239 4.49437 8.15725 3.92693 7.65642 4.25591C7.33087 4.47027 7.36228 4.76897 7.41851 4.82636C7.47803 4.88376 7.46241 4.99839 7.50615 4.91991C7.55005 4.84143 7.53738 4.5849 7.70016 4.51244C7.85981 4.43999 8.12897 4.36151 8.23222 4.49437" fill="#F7E4CD"/>
<path d="M6.84268 8.34472L5.45301 8.94228C5.45301 8.94228 6.02897 11.1515 5.73466 11.8365L5.52815 11.7641L5.51253 10.922L5.12762 9.32849L4.96484 8.88789L6.41404 7.94629L6.84284 8.34472" fill="#49728B"/>
<path d="M6.98374 9.56738L7.18088 9.79981V10.6539H6.94608C6.94608 10.6539 6.91797 10.0563 6.91797 9.98388C6.91797 9.91143 6.94608 9.6549 6.94608 9.6549" fill="#49728B"/>
<path d="M6.98899 10.7832L6.32227 10.8103L6.51316 10.9402L6.9857 11.0126" fill="#49728B"/>
<path d="M9.26367 10.642L9.81135 10.627L9.94601 11.9369L9.38584 12.0093L9.26384 10.6422" fill="#335061"/>
<path d="M9.41244 10.6413L10.2386 10.599C10.2386 10.599 10.5798 9.77202 10.5798 9.72985C10.5798 9.68768 10.874 8.53171 10.874 8.53171L10.2072 7.8617L10.0726 7.74707L9.71892 8.0881V9.41307L9.41211 10.6415" fill="#335061"/>
<path d="M9.78011 10.542L9.26367 10.6416L9.33881 11.04C9.5297 11.1245 9.85525 10.8981 9.85525 10.8981" fill="#49728B"/>
<path d="M9.79688 8.04666L10.8329 8.78914L10.861 8.4481L10.0785 7.75098L9.79688 8.04682" fill="#49728B"/>
<path d="M7.50278 13.4486L7.19597 12.2505L7.04257 11.3661L7.01758 10.7111L8.40413 10.6387H9.26486L9.1866 12.1357L9.32126 13.2916L9.30564 13.506L8.182 13.5905L7.50278 13.4486Z" fill="white"/>
<path d="M9.07415 10.6265C9.07415 10.6265 8.99901 12.1084 9.22131 13.1647C9.22131 13.1647 8.77688 13.4363 8.12891 13.5057L9.37142 13.4635L9.51858 13.379L9.34019 11.043L9.29316 10.542" fill="#DCD9D8"/>
<path d="M9.9687 11.8249L10.5447 11.6679L11.6371 11.6105L11.7998 11.1246L11.5057 10.2826L11.1645 10.2402L10.692 10.3821L10.2413 10.5965L10.0003 10.5542L9.8125 10.6266" fill="white"/>
<path d="M9.95898 11.5385C9.95898 11.5385 10.3439 11.3665 10.4034 11.3815L10.2406 10.5969L10.4315 10.5244C10.4315 10.5244 10.5662 11.2669 10.5662 11.3514C10.5662 11.3514 11.3924 11.3936 11.4675 11.3936C11.4675 11.3936 11.6459 11.0646 11.6022 10.7235L11.765 11.1792L11.7806 11.4357L11.5427 11.7768L11.2766 11.8342L10.8322 11.8191L10.6851 11.635L10.1686 11.7075L10.0058 11.7649" fill="#DCD9D8"/>
<path d="M9.37766 10.5273L9.05211 9.73056L8.71094 9.25968C8.71094 9.25968 8.78608 9.06055 8.88933 9.06055H9.2305L9.55605 9.17518L9.52794 9.70329L9.37766 10.5273Z" fill="white"/>
<path d="M9.44186 10.2558C9.44186 10.2558 9.02867 9.48618 9.02867 9.37139C9.02867 9.37139 9.10381 9.19937 9.20707 9.24154C9.31032 9.28387 9.53262 9.3985 9.53262 9.3985V9.12691L9.02867 9.02734L8.6875 9.06968L9.26346 10.3856L9.38234 10.4007" fill="#DCD9D8"/>
<path d="M7.63286 8.37473L7.2228 8.3324L6.83789 8.21777V8.34762L7.02566 8.54676L7.61724 8.80328" fill="white"/>
<path d="M6.97437 8.41797C6.97437 8.41797 7.43129 8.60204 7.58157 8.55987L7.59719 8.73189L7.184 8.64739L6.93359 8.47536L6.97421 8.41797" fill="#DCD9D8"/>
<path d="M9.96803 9.10842C9.71762 9.10239 9.48925 9.07227 9.29194 9.01789C9.30444 8.93941 9.27945 8.86394 9.30131 8.80655C9.35771 8.76739 9.44847 8.76739 9.53298 8.75819C9.46097 8.72505 9.35771 8.70983 9.27632 8.73108C9.2732 8.6767 9.24821 8.64356 9.23242 8.60123C9.37333 8.55287 9.70496 8.2361 9.8929 8.33868C9.98366 8.39005 10.0211 8.67368 10.0276 8.81558C10.0338 8.93021 10.0151 9.045 9.96803 9.10826" fill="#D33833"/>
<path d="M9.96803 9.10842C9.71762 9.10239 9.48925 9.07227 9.29194 9.01789C9.30444 8.93941 9.27945 8.86394 9.30131 8.80655C9.35771 8.76739 9.44847 8.76739 9.53298 8.75819C9.46097 8.72505 9.35771 8.70983 9.27632 8.73108C9.2732 8.6767 9.24821 8.64356 9.23242 8.60123C9.37333 8.55287 9.70496 8.2361 9.8929 8.33868C9.98366 8.39005 10.0211 8.67368 10.0276 8.81558C10.0338 8.93021 10.0151 9.045 9.96803 9.10826V9.10842Z" fill="black"/>
<path d="M9.98342 9.13948L9.96664 9.13901C9.7113 9.13282 9.48128 9.10207 9.28266 9.04737L9.25586 9.04007L9.26013 9.0136C9.26523 8.98125 9.26342 8.94859 9.26161 8.91688C9.25915 8.87408 9.25685 8.83381 9.27115 8.79639L9.27444 8.78767L9.28217 8.78228C9.3019 8.76864 9.32459 8.75913 9.34892 8.75215C9.3259 8.75279 9.3037 8.75564 9.28381 8.76072L9.24632 8.77039L9.24418 8.73297C9.24238 8.70063 9.23152 8.67732 9.21886 8.65037C9.21311 8.63816 9.20719 8.62548 9.20209 8.61168L9.19141 8.58299L9.22117 8.57284C9.26046 8.55936 9.32212 8.51893 9.38756 8.47613C9.55362 8.36736 9.7603 8.23196 9.90778 8.31251C10.038 8.38607 10.0576 8.79702 10.0584 8.81446C10.0655 8.94479 10.0411 9.06132 9.99312 9.12616L9.98342 9.13932V9.13948ZM9.32557 8.99584C9.50841 9.04356 9.71854 9.07115 9.95053 9.07797C9.98407 9.02184 10.0012 8.92434 9.99542 8.81763C9.98687 8.62341 9.94001 8.40145 9.87638 8.36546C9.76359 8.30379 9.56678 8.43268 9.42307 8.5267C9.36586 8.56412 9.31489 8.59757 9.27263 8.61771C9.27378 8.62024 9.2751 8.62294 9.27625 8.62563C9.28578 8.64593 9.29614 8.66812 9.30222 8.69524C9.3795 8.6843 9.47306 8.69761 9.54589 8.73123L9.64537 8.7772L9.5357 8.78894C9.51975 8.79068 9.5038 8.79195 9.48769 8.79338C9.42554 8.79877 9.36651 8.80384 9.32738 8.82635C9.32097 8.85045 9.32261 8.87994 9.32459 8.91355C9.32607 8.93892 9.32771 8.96683 9.32557 8.99584Z" fill="#D33833"/>
<path d="M8.76958 8.71354C8.76958 8.73161 8.76959 8.74969 8.76646 8.76792C8.6882 8.81628 8.56307 8.81628 8.47544 8.85845C8.60056 8.86448 8.70086 8.8946 8.78849 8.93392C8.78537 8.97926 8.78537 9.02746 8.78225 9.07281C8.63821 9.16635 8.50684 9.30825 8.33782 9.39878C8.25643 9.44111 7.9779 9.54971 7.89339 9.52863C7.84637 9.51658 7.84012 9.45918 7.82138 9.40496C7.78077 9.29033 7.68672 9.10309 7.67735 8.92805C7.66797 8.70767 7.64298 8.33652 7.8901 8.3817C8.09037 8.41785 8.32203 8.50537 8.47544 8.58686C8.57245 8.64124 8.62572 8.70149 8.76958 8.7137" fill="#D33833"/>
<path d="M8.76958 8.71256C8.76958 8.73064 8.76959 8.74871 8.76646 8.76695C8.6882 8.8153 8.56307 8.8153 8.47544 8.85747C8.60056 8.8635 8.70086 8.89362 8.78849 8.93294C8.78537 8.97829 8.78537 9.02649 8.78225 9.07183C8.63821 9.16537 8.50684 9.30727 8.33782 9.3978C8.25643 9.44013 7.9779 9.54874 7.89339 9.52765C7.84637 9.5156 7.84012 9.45821 7.82138 9.40398C7.78077 9.28935 7.68672 9.10211 7.67735 8.92708C7.66797 8.7067 7.64298 8.33554 7.8901 8.38073C8.09037 8.41688 8.32203 8.50439 8.47544 8.58589C8.57245 8.64027 8.62572 8.70051 8.76958 8.71272V8.71256Z" fill="black"/>
<path d="M7.91941 9.56074C7.90659 9.56074 7.89524 9.55963 7.88554 9.55725C7.83046 9.54314 7.81501 9.49082 7.80136 9.44484C7.79824 9.43453 7.79528 9.42407 7.79166 9.41376C7.78245 9.38808 7.77012 9.35732 7.75713 9.32482C7.71109 9.21051 7.65371 9.06813 7.64615 8.92877L7.64516 8.90531C7.63727 8.72567 7.62642 8.47961 7.73987 8.38512C7.78081 8.35103 7.83342 8.33946 7.89639 8.35103C8.08268 8.38464 8.31599 8.46661 8.4911 8.55952C8.51626 8.57347 8.53763 8.58742 8.55835 8.60074C8.61935 8.64006 8.67196 8.67415 8.77275 8.68255L8.80152 8.68493V8.71283C8.80152 8.73186 8.80152 8.75152 8.79791 8.77213L8.7956 8.78545L8.78377 8.79274C8.73789 8.82096 8.67985 8.83396 8.62329 8.84617C8.68347 8.85917 8.74217 8.87883 8.80202 8.90562L8.82158 8.91434L8.8201 8.93511C8.81862 8.95731 8.8178 8.98077 8.81698 9.00345C8.81616 9.02675 8.81534 9.05069 8.81386 9.07384L8.81287 9.08874L8.80004 9.09715C8.74151 9.1352 8.68544 9.18118 8.62592 9.22985C8.54174 9.29882 8.4546 9.37016 8.35332 9.42439C8.30103 9.4515 8.04552 9.56058 7.91958 9.56058L7.91941 9.56074ZM7.85085 8.40747C7.8229 8.40747 7.79972 8.41524 7.78081 8.4311C7.69038 8.5064 7.7009 8.74486 7.7078 8.90261L7.70879 8.92576C7.7157 9.05497 7.77111 9.19228 7.8155 9.30247C7.82882 9.3356 7.84148 9.36683 7.85101 9.39395C7.85496 9.40536 7.85841 9.41678 7.8617 9.42772C7.8737 9.46815 7.88193 9.49304 7.90133 9.49811C7.97005 9.51539 8.23247 9.41773 8.32273 9.37096C8.41826 9.31975 8.50294 9.25046 8.58482 9.1834C8.64138 9.1371 8.69498 9.09318 8.75154 9.05513C8.75253 9.03738 8.75318 9.01914 8.75368 9.00139C8.75417 8.98521 8.75483 8.96857 8.75565 8.95208C8.66325 8.91308 8.57314 8.89262 8.47384 8.88787L8.35381 8.88216L8.46118 8.83031C8.50524 8.80907 8.55637 8.79797 8.60586 8.78735C8.6547 8.77673 8.70106 8.76674 8.73707 8.74835C8.73724 8.74549 8.73756 8.74264 8.73756 8.73978C8.63908 8.72631 8.58235 8.68968 8.52267 8.65116C8.50277 8.63832 8.48222 8.625 8.45953 8.61231C8.29051 8.52258 8.0646 8.4433 7.88423 8.41064C7.87239 8.40842 7.86121 8.40731 7.85069 8.40731L7.85085 8.40747Z" fill="#D33833"/>
<path d="M8.91066 8.9753C8.88879 8.85465 8.86364 8.82136 8.87317 8.71576C9.20809 8.50141 9.26761 9.08391 8.91066 8.9753Z" fill="#D33833"/>
<path d="M8.91066 8.97628C8.88879 8.85563 8.86364 8.82233 8.87317 8.71674C9.20809 8.50239 9.26761 9.08488 8.91066 8.97628Z" fill="black"/>
<path d="M8.99513 9.02041C8.968 9.02041 8.93693 9.01597 8.90141 9.00519L8.88316 8.99964L8.87987 8.98141C8.87297 8.94352 8.86574 8.91435 8.85949 8.88866C8.84535 8.83174 8.83515 8.79068 8.84206 8.7141L8.84337 8.69952L8.85603 8.69143C9.00401 8.59678 9.09231 8.65275 9.12338 8.68113C9.18981 8.74185 9.20427 8.856 9.15561 8.93575C9.13785 8.96476 9.09115 9.02073 8.9953 9.02073L8.99513 9.02041ZM8.93857 8.95208C9.01388 8.97031 9.07126 8.95382 9.10135 8.90468C9.13538 8.84903 9.12568 8.76674 9.08014 8.72504C9.03936 8.68778 8.97721 8.69096 8.90404 8.73408C8.90059 8.79147 8.90898 8.82524 8.92114 8.87455C8.92657 8.89675 8.93282 8.92148 8.93874 8.95208H8.93857Z" fill="#D33833"/>
<path d="M9.39268 9.07292C9.39268 9.07292 9.28942 8.93102 9.36456 8.88885C9.4397 8.84668 9.51172 8.88885 9.55545 8.81639C9.59919 8.74394 9.55545 8.70176 9.57107 8.61726C9.58669 8.53275 9.65871 8.51769 9.73385 8.50263C9.80899 8.48757 10.0155 8.4603 10.0438 8.52974L9.95614 8.27321L9.77775 8.21582L9.21757 8.52974L9.18945 8.6867V9.00062" fill="#EF3D3A"/>
<path d="M7.84028 9.54287C7.82153 9.31948 7.80279 9.09925 7.78388 8.87586C7.75264 8.54387 7.86527 8.60126 8.16566 8.60126C8.21269 8.60126 8.44732 8.65263 8.46294 8.68577C8.54432 8.84574 8.32828 8.80943 8.55682 8.93024C8.74771 9.02981 9.08888 8.86984 9.01062 8.64359C8.96672 8.59222 8.7852 8.62853 8.71959 8.59524C8.60384 8.53784 8.48793 8.48061 8.37218 8.42321C8.22502 8.35076 7.88697 8.24215 7.73061 8.34473C7.33304 8.60427 7.7556 9.25621 7.89651 9.5278" fill="#EF3D3A"/>
<path d="M8.23206 4.49351C7.82825 4.40298 7.62799 4.6565 7.50599 4.91905C7.39648 4.89495 7.44022 4.75004 7.4685 4.67759C7.54051 4.48749 7.83154 4.23096 8.06945 4.26711C8.16958 4.27916 8.30737 4.36969 8.23223 4.49351" fill="#231F20"/>
<path d="M10.1944 4.93473H10.2131C10.3039 5.11579 10.3821 5.3089 10.4979 5.47188C10.4196 5.64692 9.91568 5.79785 9.92193 5.48996C10.0314 5.44461 10.2192 5.48092 10.3164 5.42051C10.26 5.27259 10.1817 5.14591 10.1944 4.93457" fill="#231F20"/>
<path d="M8.43511 4.94059C8.52274 5.09454 8.55086 5.25451 8.67302 5.36914C8.72942 5.42051 8.8358 5.48377 8.78253 5.62868C8.77003 5.66181 8.67927 5.73728 8.626 5.75234C8.43511 5.80673 7.98756 5.76439 8.13767 5.53197C8.29732 5.53799 8.51008 5.63153 8.62912 5.51992C8.53836 5.38103 8.37559 5.10342 8.43511 4.94043" fill="#231F20"/>
<path d="M10.122 6.49192C9.83408 6.66997 9.51165 6.86609 9.03598 6.8209C8.93585 6.7364 8.89508 6.5463 8.99537 6.42248C9.04552 6.50698 9.01412 6.66394 9.15815 6.68804C9.4273 6.73339 9.74036 6.52807 9.93437 6.45863C10.0532 6.26251 9.925 6.19306 9.8155 6.06623C9.5932 5.8097 9.29905 5.48975 9.30843 5.10655C9.39919 5.04313 9.40543 5.2031 9.41793 5.23021C9.53368 5.48975 9.82487 5.82476 10.0345 6.04815C10.0878 6.10253 10.1723 6.15676 10.1817 6.19306C10.2098 6.29564 10.1096 6.42248 10.1221 6.49192" fill="#231F20"/>
<path d="M6.30878 6.30489C6.21802 6.25352 6.19615 6.03631 6.08961 6.03029C5.9362 6.02125 5.96448 6.31392 5.96448 6.48595C5.86123 6.39542 5.84248 6.11178 5.91746 5.96687C5.82982 5.92453 5.79234 6.01221 5.74219 6.04233C5.80796 5.60475 6.40891 5.84019 6.30878 6.30489Z" fill="#231F20"/>
<path d="M10.3036 6.67578C10.1689 6.92327 9.97801 7.19486 9.58373 7.2039C9.57436 7.12542 9.56811 7.00175 9.58373 6.9534C9.88725 6.92327 10.0752 6.77535 10.3036 6.67578Z" fill="#231F20"/>
<path d="M8.41406 6.83594C8.66447 6.96277 9.12764 6.97784 9.47194 6.9688C9.49068 7.04125 9.49068 7.13178 9.49068 7.2193C9.04938 7.23738 8.52981 7.13178 8.41406 6.83594Z" fill="#231F20"/>
<path d="M8.36682 7.07129C8.54209 7.49381 9.13992 7.44546 9.64386 7.43341C9.622 7.48779 9.57497 7.55406 9.51233 7.57531C9.34955 7.63873 8.90513 7.68692 8.67971 7.57229C8.5388 7.49984 8.44492 7.33384 8.36665 7.23729C8.33229 7.19194 8.14436 7.0743 8.36665 7.07129" fill="#231F20"/>
<path d="M10.1005 9.39834C9.89716 9.73636 9.69986 10.0834 9.45898 10.3793C9.55912 10.0926 9.60302 9.60969 9.61864 9.24138C9.8314 9.14483 10.0131 9.26247 10.1007 9.39834" fill="#81B0C4"/>
<path d="M11.1974 10.6113C10.9689 10.6567 10.8094 10.8709 10.584 10.8558C10.7091 10.6898 10.922 10.6174 11.1974 10.6113Z" fill="#231F20"/>
<path d="M11.2978 10.956C11.1101 10.974 10.8909 11.0043 10.7031 10.9891C10.7939 10.8562 11.1382 10.9046 11.2978 10.956Z" fill="#231F20"/>
<path d="M11.3652 11.2545C11.1555 11.2575 10.8957 11.2545 10.6953 11.2394C10.8142 11.1157 11.2305 11.1941 11.3652 11.2545Z" fill="#231F20"/>
<path d="M9.70519 12.069C9.73643 12.3225 9.83985 12.5791 9.82718 12.8567C9.71143 12.8928 9.64567 12.9261 9.48914 12.9261C9.47977 12.6907 9.44524 12.3286 9.45477 12.1022C9.52991 12.1082 9.64254 12.0508 9.70519 12.069Z" fill="#DCD9D8"/>
<path d="M9.36801 8.32715C9.26163 8.39358 9.174 8.47507 9.07074 8.54753C8.84532 8.55958 8.72332 8.53247 8.56055 8.40864C8.56367 8.3996 8.57929 8.40262 8.57929 8.39057C8.82033 8.49315 9.12697 8.34824 9.36801 8.32715Z" fill="#F0D6B7"/>
<path d="M8.10954 9.90541C8.17531 9.63081 8.43509 9.4859 8.66972 9.33496C8.91076 9.63081 9.05775 10.011 9.22052 10.3791C8.83562 10.2675 8.4443 10.0895 8.10938 9.90525" fill="#81B0C4"/>
<path d="M9.4556 12.1056C9.44623 12.332 9.47747 12.6911 9.48997 12.9296C9.6465 12.9296 9.71226 12.8964 9.82801 12.8601C9.84051 12.5825 9.73725 12.326 9.70602 12.0725C9.64337 12.0514 9.53074 12.1086 9.4556 12.1056ZM7.03929 10.8258C7.14255 11.7343 7.2897 12.4949 7.56198 13.3006C8.16606 13.4786 8.89214 13.4937 9.42732 13.3337C9.33032 12.8811 9.37093 12.3287 9.3147 11.8428C9.2708 11.4776 9.29283 11.1123 9.23331 10.7412C8.5855 10.6113 7.67149 10.7111 7.03929 10.8257V10.8258ZM9.38671 10.7475C9.38046 11.1369 9.40546 11.5231 9.43686 11.9125C9.59339 11.8914 9.69664 11.8764 9.84067 11.8431C9.79365 11.4689 9.80006 11.0432 9.70289 10.7114C9.59339 10.7144 9.49638 10.7114 9.38671 10.7475ZM10.1723 10.6841C10.0972 10.669 10.0127 10.6841 9.94377 10.6841C9.97813 11.001 10.0564 11.3511 10.0847 11.6861C10.1942 11.6891 10.2537 11.6378 10.3445 11.6227C10.3507 11.33 10.3195 10.9256 10.1723 10.6841ZM11.3648 11.7343C11.5965 11.6799 11.7404 11.4083 11.6748 11.1277C11.6309 10.9406 11.5559 10.5845 11.4714 10.4637C11.4119 10.3762 11.246 10.2586 11.1115 10.3401C10.8956 10.4729 10.5168 10.5121 10.3602 10.672C10.4385 10.9256 10.4635 11.2696 10.4949 11.5896C10.7641 11.6046 11.0927 11.5171 11.318 11.6106C11.1615 11.659 10.9612 11.659 10.8265 11.7313C10.9392 11.7827 11.1958 11.7735 11.3648 11.7343ZM9.21769 10.3792C9.05491 10.0111 8.90776 9.63072 8.66688 9.33503C8.43209 9.48596 8.17543 9.63088 8.10671 9.90548C8.44475 10.0895 8.83591 10.2676 9.21785 10.3794L9.21769 10.3792ZM9.61838 9.24149C9.60276 9.60963 9.55886 10.0926 9.45873 10.3794C9.69977 10.0805 9.89691 9.73647 10.1003 9.39845C10.0127 9.26257 9.83114 9.14493 9.61822 9.24149H9.61838ZM9.16442 9.08754C9.07366 9.0785 8.99539 9.19012 8.87652 9.14192C8.8484 9.17204 8.82325 9.20233 8.79513 9.23245C9.05804 9.54035 9.18004 9.97492 9.38359 10.334C9.49309 9.98697 9.4806 9.60963 9.50559 9.23245C9.35531 9.23847 9.2708 9.09658 9.16442 9.08754ZM8.87339 8.71622C8.86402 8.82181 8.88901 8.85511 8.91088 8.97576C9.26767 9.08437 9.20815 8.50187 8.87339 8.71622ZM8.47583 8.58954C8.32242 8.50805 8.09092 8.42053 7.89049 8.38439C7.64321 8.33904 7.6682 8.71036 7.67773 8.93074C7.68711 9.10577 7.78099 9.28984 7.82177 9.40764C7.84051 9.46202 7.84676 9.51926 7.89378 9.53131C7.97829 9.54938 8.25994 9.44379 8.33821 9.40146C8.50723 9.31394 8.6386 9.17204 8.78263 9.07549C8.78576 9.03014 8.78576 8.98195 8.78888 8.9366C8.70125 8.89427 8.60424 8.86716 8.47583 8.86113C8.56034 8.8188 8.68859 8.8188 8.76685 8.7706C8.76685 8.75253 8.76685 8.73446 8.76997 8.71622C8.62594 8.70116 8.57284 8.64076 8.47583 8.58939V8.58954ZM7.00477 8.33302C6.87652 8.45985 7.36468 8.62886 7.51808 8.6379C7.51808 8.55942 7.56511 8.48395 7.55557 8.42656C7.37093 8.39644 7.12989 8.41752 7.00477 8.33302ZM8.58237 8.39041C8.58237 8.40246 8.56675 8.39945 8.56363 8.40848C8.72953 8.53215 8.85153 8.55942 9.07382 8.54737C9.17395 8.47793 9.26471 8.39342 9.37109 8.32699C9.12693 8.34808 8.82029 8.49299 8.58237 8.39041ZM10.0283 8.81294C10.022 8.67405 9.98438 8.3874 9.89362 8.33603C9.70585 8.23044 9.37405 8.55038 9.23314 8.59858C9.24876 8.64091 9.27376 8.67405 9.27704 8.72843C9.36156 8.70734 9.46169 8.72241 9.5337 8.75554C9.44919 8.76458 9.35843 8.76458 9.30204 8.8039C9.28329 8.86129 9.30828 8.93676 9.29266 9.01524C9.4898 9.06962 9.71835 9.09673 9.96876 9.10577C10.0158 9.04536 10.0345 8.93074 10.0283 8.81309V8.81294ZM6.78888 8.45367C6.74827 8.42656 6.47583 8.08553 6.43834 8.10059C5.94689 8.28767 5.48684 8.61063 5.07678 8.91853C5.46794 9.73044 5.62759 10.7233 5.65587 11.6801C6.10342 11.8822 6.49786 12.1751 7.10819 12.2052C7.03617 11.7253 6.97353 11.2937 6.93291 10.8411C6.77951 10.7776 6.5605 10.8441 6.41647 10.823C6.41647 10.657 6.63564 10.7505 6.65439 10.6389C6.66688 10.5544 6.53239 10.5484 6.57612 10.4155C6.68875 10.4547 6.74827 10.5424 6.86715 10.5755C6.97665 10.3461 6.86715 9.93861 6.88277 9.7455C6.88589 9.70936 6.90151 9.54637 6.98602 9.57348C7.06116 9.59758 6.9829 10.0111 6.98915 10.1921C6.99539 10.3611 6.96728 10.5211 7.03929 10.6267C7.62775 10.5482 8.22558 10.4999 8.86402 10.4818C8.72311 10.4244 8.55722 10.3702 8.3757 10.2705C8.27556 10.2161 7.96563 10.1045 7.93752 10.0139C7.89049 9.86901 8.05639 9.79354 8.08467 9.66988C7.7874 9.82684 7.73101 9.51894 7.65899 9.30475C7.59635 9.10862 7.55886 8.9607 7.54324 8.84908C7.28346 8.72225 7.00805 8.60461 6.78888 8.45367ZM9.76849 8.13991C10.1786 7.94981 10.2537 8.85527 10.0909 9.14794C10.1159 9.23546 10.2004 9.2686 10.235 9.34708C10.0064 9.74249 9.75287 10.1106 9.51825 10.5C9.6904 10.3944 9.94081 10.482 10.1442 10.4035C10.2193 10.3764 10.2724 10.2104 10.3288 10.0775C10.4854 9.71538 10.6481 9.25655 10.72 8.9125C10.7356 8.83402 10.7826 8.662 10.7701 8.59256C10.7514 8.46572 10.5761 8.37218 10.4854 8.29671C10.3195 8.1518 10.2162 8.02813 10.0409 7.89226C9.97517 7.99183 9.82505 8.05826 9.76866 8.13975L9.76849 8.13991ZM5.85301 4.63588C5.65899 4.84405 5.6996 5.23043 5.72147 5.50804C6.07514 5.29369 6.54143 5.52612 6.53831 5.88839C6.70733 5.88538 6.60095 5.68625 6.56955 5.5564C6.46942 5.13689 6.73857 4.68424 6.58204 4.30087C6.27852 4.32497 6.03124 4.44277 5.85284 4.63588H5.85301ZM7.24893 3.43156C6.80763 3.55222 6.24104 3.86313 6.05952 4.24649C6.20042 4.2254 6.29743 4.15897 6.43505 4.14994C6.48832 4.14692 6.55705 4.17102 6.61657 4.15596C6.73545 4.12584 6.83887 3.8663 6.92963 3.76958C7.01726 3.67604 7.12364 3.63371 7.19566 3.5492C7.24268 3.52812 7.31141 3.52812 7.31453 3.46169C7.29579 3.4406 7.27392 3.42554 7.24876 3.43156H7.24893ZM9.54949 3.54635C9.08944 3.29585 8.31322 3.10876 7.82489 3.3442C7.43045 3.5343 6.89839 3.84822 6.71687 4.24364C6.88589 4.627 6.66672 4.97707 6.6511 5.3663C6.64485 5.57447 6.75123 5.75268 6.7606 5.97892C6.70108 6.07247 6.52581 6.0815 6.40381 6.07548C6.3632 5.87634 6.29118 5.65295 6.07826 5.62885C5.77787 5.59572 5.55557 5.83703 5.54308 6.08753C5.52746 6.38338 5.77787 6.87217 6.13466 6.83904C6.27244 6.82699 6.3068 6.69413 6.45708 6.69413C6.53847 6.85109 6.33196 6.89928 6.30993 7.01106C6.30368 7.04118 6.32555 7.15296 6.34117 7.20718C6.40694 7.46371 6.5508 7.79872 6.69171 7.99484C6.87323 8.24534 7.2269 8.28149 7.60884 8.30575C7.67773 8.16385 7.92815 8.1759 8.09092 8.2122C7.89378 8.13674 7.71226 7.95568 7.56198 7.7957C7.38984 7.61163 7.21456 7.41535 7.20519 7.17404C7.53387 7.61163 7.80302 7.995 8.39773 8.18811C8.8484 8.33302 9.37422 8.12167 9.72164 7.88623C9.86567 7.78968 9.95018 7.63272 10.0534 7.49383C10.4352 6.9627 10.6136 6.20818 10.5761 5.47475C10.5605 5.17288 10.5605 4.87116 10.4541 4.66886C10.3446 4.45752 9.97205 4.26441 9.75304 4.45752C9.71243 4.24934 9.93456 4.12251 10.1943 4.19798C10.0097 3.96555 9.81568 3.69094 9.54965 3.54603L9.54949 3.54635ZM10.4071 10.3702C10.767 10.1982 11.4369 9.90849 11.659 10.3702C11.7435 10.5422 11.8405 10.8289 11.8813 11.0071C11.9408 11.2545 11.8155 11.7797 11.5495 11.8611C11.3147 11.9336 11.0424 11.9306 10.7608 11.8762C10.7264 11.8491 10.6919 11.8037 10.6638 11.7556C10.4635 11.7495 10.2726 11.7646 10.1161 11.8461C10.1317 11.991 10.0316 12.0121 9.93456 12.0422C9.86567 12.3108 10.0755 12.6609 10.0253 12.9023C9.99095 13.0774 9.76866 13.1045 9.60588 13.1347C9.59964 13.2313 9.61213 13.3128 9.62463 13.3943C9.58714 13.5271 9.42124 13.6025 9.26159 13.6207C8.7389 13.6811 7.94705 13.7082 7.44623 13.5332C7.30532 13.2012 7.19582 12.7997 7.08007 12.4226C6.59174 12.4739 6.19434 12.2204 5.82193 12.0514C5.69368 11.994 5.51512 11.9609 5.46514 11.8613C5.41812 11.7647 5.43702 11.5807 5.42453 11.4087C5.39641 10.965 5.36813 10.5365 5.24926 10.0837C5.19599 9.87852 5.09898 9.70032 5.03337 9.5042C4.97073 9.32314 4.86435 9.09673 4.83624 8.91567C4.79562 8.6471 5.05853 8.63203 5.22427 8.51423C5.48405 8.33318 5.68744 8.23361 5.96925 8.07062C6.05376 8.02227 6.30417 7.90161 6.33229 7.84422C6.38869 7.7326 6.23528 7.57564 6.19451 7.48812C6.12874 7.34924 6.09437 7.2316 6.085 7.09572C5.85021 7.05957 5.66869 6.9237 5.56231 6.77276C5.38392 6.51925 5.25879 6.05138 5.41516 5.6983C5.42765 5.67119 5.48717 5.61379 5.49654 5.57146C5.51529 5.48696 5.46218 5.37534 5.45906 5.28481C5.44344 4.82312 5.54044 4.4247 5.86287 4.28581C5.99441 3.78179 6.46382 3.61579 6.90513 3.36529C7.07103 3.27175 7.25255 3.21134 7.44031 3.14491C8.11328 2.90646 9.14929 2.9518 9.70947 3.35927C9.94738 3.53129 10.326 3.89642 10.4607 4.16214C10.8206 4.85927 10.7925 6.02728 10.5421 6.87836C10.5077 6.99298 10.4607 7.15898 10.3918 7.29787C10.3448 7.39442 10.1978 7.58452 10.2134 7.66903C10.2322 7.75654 10.5515 7.98897 10.6204 8.05239C10.7424 8.16702 10.9771 8.31796 10.9959 8.46287C11.0178 8.61681 10.927 8.828 10.8801 8.97592C10.7299 9.4709 10.5797 9.92656 10.4076 10.3703L10.4071 10.3702Z" fill="#231F20"/>
<path d="M8.01222 6.94131C8.03096 6.91721 8.13734 6.87789 8.28762 6.94733C8.28762 6.94733 8.10923 6.97444 8.12485 7.26125L8.04971 7.24619C8.05283 7.2492 7.97457 6.98966 8.01222 6.94131Z" fill="#F7E4CD"/>
<path d="M9.30926 9.39196C9.30926 9.43429 9.27177 9.47044 9.22787 9.47044C9.18397 9.47044 9.14648 9.43429 9.14648 9.39196C9.14648 9.34962 9.18397 9.31348 9.22787 9.31348C9.2749 9.31348 9.30926 9.34962 9.30926 9.39196Z" fill="#1D1919"/>
<path d="M9.38934 9.75719C9.38934 9.79952 9.35185 9.83567 9.30795 9.83567C9.26405 9.83567 9.22656 9.79952 9.22656 9.75719C9.22656 9.71486 9.26405 9.67871 9.30795 9.67871C9.35497 9.67871 9.38934 9.71185 9.38934 9.75719Z" fill="#1D1919"/>
</g>
<defs>
<clipPath id="clip0_237_8026">
<rect width="8" height="10.6667" fill="white" transform="translate(4 3)"/>
</clipPath>
</defs>
</svg>
