<svg width="20" height="20" viewBox="0 0 20 20" fill="none" xmlns="http://www.w3.org/2000/svg">
<mask id="path-1-inside-1_237_7954" fill="white">
<path d="M0 5C0 2.23858 2.23858 0 5 0H15C17.7614 0 20 2.23858 20 5V15C20 17.7614 17.7614 20 15 20H5C2.23858 20 0 17.7614 0 15V5Z"/>
</mask>
<path d="M0 5C0 2.23858 2.23858 0 5 0H15C17.7614 0 20 2.23858 20 5V15C20 17.7614 17.7614 20 15 20H5C2.23858 20 0 17.7614 0 15V5Z" fill="white"/>
<path d="M5 0V1H15V0V-1H5V0ZM20 5H19V15H20H21V5H20ZM15 20V19H5V20V21H15V20ZM0 15H1V5H0H-1V15H0ZM5 20V19C2.79086 19 1 17.2091 1 15H0H-1C-1 18.3137 1.68629 21 5 21V20ZM20 15H19C19 17.2091 17.2091 19 15 19V20V21C18.3137 21 21 18.3137 21 15H20ZM15 0V1C17.2091 1 19 2.79086 19 5H20H21C21 1.68629 18.3137 -1 15 -1V0ZM5 0V-1C1.68629 -1 -1 1.68629 -1 5H0H1C1 2.79086 2.79086 1 5 1V0Z" fill="#0B1228" fill-opacity="0.14" mask="url(#path-1-inside-1_237_7954)"/>
<g clip-path="url(#clip0_237_7954)">
<path d="M13.8652 9.7829C13.8652 12.1596 11.9109 14.0883 9.49889 14.0883C7.08686 14.0883 5.13281 12.1596 5.13281 9.7829C5.13281 7.40619 7.08704 5.47754 9.49908 5.47754C11.9111 5.47754 13.8653 7.40602 13.8653 9.7829" fill="#D33833"/>
<path d="M5.31279 10.8488C5.31279 10.8488 4.99594 6.3601 9.28821 6.23114L8.98893 5.74902L6.66143 6.50279L5.9959 7.23961L5.4149 8.31248L5.08398 9.56192L5.18257 10.3972" fill="#EF3D3A"/>
<path d="M6.51048 6.84594C5.74655 7.6031 5.27117 8.64546 5.27117 9.80001C5.27117 10.9544 5.74655 11.9967 6.51067 12.7539C7.2783 13.5111 8.33116 13.9762 9.50019 13.9762C10.6692 13.9762 11.7221 13.5111 12.4897 12.7539C13.2538 11.9967 13.7292 10.9544 13.7292 9.80001C13.7292 8.64564 13.2538 7.60327 12.4897 6.84612C11.7221 6.09235 10.6692 5.62379 9.50019 5.62379C8.33468 5.62379 7.2783 6.08896 6.51067 6.84612L6.51048 6.84594ZM6.31682 12.9339C5.50349 12.1325 5 11.0223 5 9.80001C5 8.57768 5.50349 7.46736 6.31682 6.66276C7.13014 5.86155 8.25699 5.3623 9.49982 5.3623C10.7428 5.3623 11.8695 5.86137 12.6828 6.66276C13.4961 7.46397 13.9996 8.57429 13.9996 9.80001C13.9996 11.0223 13.4961 12.1327 12.6828 12.9339C11.8695 13.7387 10.7426 14.2343 9.49982 14.2343C8.2568 14.2343 7.13014 13.7387 6.31682 12.9339Z" fill="#231F20"/>
<path d="M11.3386 9.8067L10.6731 9.90176L9.77521 10.0002L9.19421 10.0138L8.62727 9.99683L8.19425 9.86788L7.81043 9.46727L7.51115 8.64893L7.44419 8.47235L7.04631 8.34339L6.81399 7.97329L6.64844 7.44355L6.83156 6.97837L7.26458 6.83229L7.61325 6.99193L7.7788 7.34509L7.9795 7.31459L8.04646 7.23308L7.9795 6.86297L7.96192 6.3978L8.06051 5.75604L8.057 5.38932L8.3598 4.92076L8.89141 4.55065L9.82089 4.16699L10.8527 4.31307L11.7505 4.93788L12.166 5.57964L12.4336 6.04481L12.5006 7.19919L12.2999 8.1941L11.9336 9.07683L11.5885 9.54878" fill="#F0D6B7"/>
<path d="M10.7757 12.5806L8.39899 12.6757V13.0593L8.59969 14.4072L8.5011 14.5193L6.83912 13.9726L6.72296 13.779L6.55741 11.966L6.16656 10.8796L6.08203 10.6215L7.41309 9.73874L7.82854 9.5791L8.19478 10.0138L8.51164 10.2854L8.87788 10.3974L9.04343 10.4451L9.24413 11.2803L9.39562 11.4569L9.77944 11.328L9.51178 11.827L10.9555 12.4857L10.7759 12.5808" fill="#335061"/>
<path d="M6.83221 6.98463L7.26523 6.83855L7.61391 6.99819L7.77946 7.35135L7.98015 7.32085L8.02954 7.12733L7.93095 6.75722L8.02954 5.87449L7.94501 5.39238L8.24429 5.05616L8.89225 4.56048L8.70913 4.31934L7.7937 4.75401L7.40988 5.0426L7.19513 5.49083L6.86422 5.92551L6.76562 6.43813L6.83258 6.98481" fill="#6D6B6D"/>
<path d="M7.51449 5.47738C7.51449 5.47738 7.76457 4.88325 8.76102 4.59466C9.75746 4.30606 8.81041 4.38757 8.81041 4.38757L7.72943 4.78818L7.31398 5.18879L7.13086 5.50788L7.51468 5.47738" fill="#DCD9D8"/>
<path d="M7.01571 6.87254C7.01571 6.87254 6.66703 5.74867 7.99809 5.58903L7.94871 5.39551L7.03328 5.60259L6.76562 6.43787L6.83258 6.98456L7.01571 6.87254Z" fill="#DCD9D8"/>
<path d="M7.54688 8.36385L7.76514 8.16016C7.76514 8.16016 7.86373 8.17032 7.8813 8.28234C7.89888 8.39435 7.94826 9.40621 8.663 9.94951C8.72996 10.0005 8.13139 9.868 8.13139 9.868L7.59978 9.06678" fill="#F7E4CD"/>
<path d="M10.6061 8.05769C10.6061 8.05769 10.6448 7.57219 10.7822 7.60946C10.9197 7.64674 10.9195 7.77927 10.9195 7.77927C10.9195 7.77927 10.5886 7.98296 10.6061 8.05769Z" fill="#F7E4CD"/>
<path d="M11.9881 6.27832C11.9881 6.27832 11.7134 6.33272 11.6888 6.56691C11.6642 6.80111 11.9881 6.61454 12.0375 6.59741" fill="#F7E4CD"/>
<path d="M9.97562 6.2959C9.97562 6.2959 9.60938 6.34352 9.60938 6.56755C9.60938 6.79157 10.0248 6.77463 10.141 6.67956" fill="#F7E4CD"/>
<path d="M7.71574 7.33822C7.71574 7.33822 7.08554 6.96811 7.01858 7.32128C6.95162 7.67444 6.80383 7.92896 7.11717 8.29907L6.90242 8.2345L6.70173 7.73883L6.63477 7.25671L7.01858 6.87305L7.4516 6.90355L7.70168 7.09707L7.71574 7.33822Z" fill="#F7E4CD"/>
<path d="M8.01398 6.32544C8.01398 6.32544 8.29569 4.91298 9.72516 4.64133C10.9012 4.4173 11.5209 4.68895 11.7534 4.94687C11.7534 4.94687 10.704 3.74487 9.70759 4.11159C8.71114 4.48169 7.97865 5.15395 7.99641 5.58523C8.02453 6.32544 8.01398 6.32544 8.01398 6.32544Z" fill="#F7E4CD"/>
<path d="M11.8711 5.10752C11.8711 5.10752 11.3887 5.09057 11.3711 5.50812C11.3711 5.50812 11.3711 5.57269 11.4027 5.63708C11.4027 5.63708 11.7865 5.21953 12.0189 5.44356" fill="#F7E4CD"/>
<path d="M9.76046 5.68055C9.76046 5.68055 9.67593 5.04219 9.1125 5.41229C8.74626 5.65344 8.78159 5.98948 8.84485 6.05405C8.91181 6.11862 8.89423 6.24757 8.94344 6.15928C8.99282 6.07099 8.97858 5.7824 9.1617 5.70089C9.34131 5.61937 9.64411 5.53108 9.76027 5.68055" fill="#F7E4CD"/>
<path d="M8.1985 10.0137L6.63512 10.6859C6.63512 10.6859 7.28308 13.1712 6.95198 13.942L6.71965 13.8604L6.70208 12.9132L6.26906 11.1204L6.08594 10.6247L7.71628 9.56543L8.19869 10.0137" fill="#49728B"/>
<path d="M8.35719 11.3887L8.57897 11.6502V12.611H8.31483C8.31483 12.611 8.2832 11.9387 8.2832 11.8572C8.2832 11.7757 8.31483 11.4871 8.31483 11.4871" fill="#49728B"/>
<path d="M8.36334 12.7568L7.61328 12.7873L7.82803 12.9334L8.35964 13.0149" fill="#49728B"/>
<path d="M10.9219 12.597L11.538 12.5801L11.6895 14.0537L11.0593 14.1352L10.9221 12.5972" fill="#335061"/>
<path d="M11.0883 12.5969L12.0177 12.5492C12.0177 12.5492 12.4016 11.6189 12.4016 11.5714C12.4016 11.524 12.7325 10.2235 12.7325 10.2235L11.9824 9.46978L11.8309 9.34082L11.433 9.72448V11.2151L11.0879 12.597" fill="#335061"/>
<path d="M11.5029 12.4854L10.9219 12.5974L11.0064 13.0456C11.2212 13.1407 11.5874 12.886 11.5874 12.886" fill="#49728B"/>
<path d="M11.5215 9.67738L12.687 10.5127L12.7186 10.129L11.8383 9.34473L11.5215 9.67755" fill="#49728B"/>
<path d="M8.94038 15.7549L8.59523 14.407L8.42265 13.4121L8.39453 12.6753L9.9544 12.5938H10.9227L10.8347 14.2779L10.9862 15.5783L10.9686 15.8195L9.7045 15.9145L8.94038 15.7549Z" fill="white"/>
<path d="M10.7079 12.5804C10.7079 12.5804 10.6234 14.2476 10.8735 15.4359C10.8735 15.4359 10.3735 15.7414 9.64453 15.8195L11.0424 15.7721L11.2079 15.677L11.0072 13.049L10.9543 12.4854" fill="#DCD9D8"/>
<path d="M11.7148 13.9283L12.3627 13.7517L13.5917 13.6871L13.7748 13.1404L13.4439 12.1931L13.0601 12.1455L12.5285 12.3051L12.0215 12.5463L11.7503 12.4987L11.5391 12.5802" fill="white"/>
<path d="M11.7031 13.6057C11.7031 13.6057 12.1361 13.4121 12.2031 13.4291L12.02 12.5464L12.2347 12.4648C12.2347 12.4648 12.3862 13.3001 12.3862 13.3952C12.3862 13.3952 13.3157 13.4426 13.4002 13.4426C13.4002 13.4426 13.6009 13.0725 13.5517 12.6889L13.7349 13.2015L13.7524 13.4901L13.4848 13.8737L13.1855 13.9383L12.6855 13.9214L12.52 13.7143L11.939 13.7958L11.7558 13.8604" fill="#DCD9D8"/>
<path d="M11.0489 12.4684L10.6826 11.5721L10.2988 11.0424C10.2988 11.0424 10.3834 10.8184 10.4995 10.8184H10.8833L11.2496 10.9473L11.218 11.5414L11.0489 12.4684Z" fill="white"/>
<path d="M11.124 12.1622C11.124 12.1622 10.6592 11.2965 10.6592 11.1673C10.6592 11.1673 10.7437 10.9738 10.8599 11.0212C10.9761 11.0689 11.2261 11.1978 11.2261 11.1978V10.8923L10.6592 10.7803L10.2754 10.8279L10.9233 12.3083L11.0571 12.3253" fill="#DCD9D8"/>
<path d="M9.08965 10.0477L8.62833 10.0001L8.19531 9.87109V10.0172L8.40655 10.2412L9.07208 10.5298" fill="white"/>
<path d="M8.3447 10.0947C8.3447 10.0947 8.85874 10.3018 9.0278 10.2544L9.04538 10.4479L8.58054 10.3528L8.29883 10.1593L8.34452 10.0947" fill="#DCD9D8"/>
<path d="M11.7143 10.8722C11.4326 10.8654 11.1756 10.8315 10.9537 10.7704C10.9677 10.6821 10.9396 10.5972 10.9642 10.5326C11.0277 10.4886 11.1298 10.4886 11.2248 10.4782C11.1438 10.4409 11.0277 10.4238 10.9361 10.4477C10.9326 10.3865 10.9045 10.3492 10.8867 10.3016C11.0452 10.2472 11.4183 9.89085 11.6298 10.0063C11.7319 10.064 11.774 10.3831 11.7812 10.5428C11.7883 10.6717 11.7672 10.8009 11.7143 10.872" fill="#D33833"/>
<path d="M11.7162 10.8722C11.4345 10.8654 11.1776 10.8315 10.9556 10.7704C10.9697 10.6821 10.9416 10.5972 10.9662 10.5326C11.0296 10.4886 11.1317 10.4886 11.2268 10.4782C11.1458 10.4409 11.0296 10.4238 10.9381 10.4477C10.9345 10.3865 10.9064 10.3492 10.8887 10.3016C11.0472 10.2472 11.4203 9.89085 11.6317 10.0063C11.7338 10.064 11.776 10.3831 11.7832 10.5428C11.7902 10.6717 11.7691 10.8009 11.7162 10.872V10.8722Z" fill="black"/>
<path d="M11.7348 10.907L11.7159 10.9065C11.4286 10.8995 11.1699 10.8649 10.9464 10.8034L10.9163 10.7952L10.9211 10.7654C10.9268 10.729 10.9248 10.6923 10.9227 10.6566C10.92 10.6085 10.9174 10.5632 10.9335 10.5211L10.9372 10.5112L10.9459 10.5052C10.9681 10.4898 10.9936 10.4791 11.021 10.4713C10.9951 10.472 10.9701 10.4752 10.9477 10.4809L10.9055 10.4918L10.9031 10.4497C10.9011 10.4133 10.8889 10.3871 10.8746 10.3568C10.8682 10.3431 10.8615 10.3288 10.8558 10.3133L10.8438 10.281L10.8772 10.2696C10.9214 10.2544 10.9908 10.2089 11.0644 10.1608C11.2512 10.0384 11.4838 9.88608 11.6497 9.97669C11.7962 10.0595 11.8182 10.5218 11.8191 10.5414C11.8271 10.688 11.7997 10.8191 11.7457 10.8921L11.7348 10.9069V10.907ZM10.9947 10.7454C11.2004 10.7991 11.4368 10.8302 11.6978 10.8378C11.7355 10.7747 11.7547 10.665 11.7483 10.545C11.7386 10.3265 11.6859 10.0768 11.6143 10.0363C11.4875 9.96688 11.266 10.1119 11.1044 10.2177C11.04 10.2598 10.9827 10.2974 10.9351 10.32C10.9364 10.3229 10.9379 10.3259 10.9392 10.329C10.9499 10.3518 10.9616 10.3768 10.9684 10.4073C11.0554 10.395 11.1606 10.4099 11.2425 10.4478L11.3545 10.4995L11.2311 10.5127C11.2131 10.5146 11.1952 10.5161 11.1771 10.5177C11.1072 10.5237 11.0407 10.5294 10.9967 10.5548C10.9895 10.5819 10.9914 10.6151 10.9936 10.6529C10.9952 10.6814 10.9971 10.7128 10.9947 10.7454Z" fill="#D33833"/>
<path d="M10.3677 10.4274C10.3677 10.4477 10.3677 10.468 10.3642 10.4885C10.2762 10.5429 10.1354 10.5429 10.0368 10.5904C10.1776 10.5972 10.2904 10.6311 10.389 10.6753C10.3855 10.7263 10.3855 10.7805 10.382 10.8315C10.2199 10.9368 10.0722 11.0964 9.882 11.1983C9.79044 11.2459 9.4771 11.3681 9.38202 11.3443C9.32912 11.3308 9.32209 11.2662 9.301 11.2052C9.25531 11.0763 9.14951 10.8656 9.13897 10.6687C9.12842 10.4208 9.10031 10.0032 9.37832 10.0541C9.60362 10.0947 9.86424 10.1932 10.0368 10.2849C10.146 10.346 10.2059 10.4138 10.3677 10.4275" fill="#D33833"/>
<path d="M10.3677 10.4274C10.3677 10.4477 10.3677 10.468 10.3642 10.4885C10.2762 10.5429 10.1354 10.5429 10.0368 10.5904C10.1776 10.5972 10.2904 10.6311 10.389 10.6753C10.3855 10.7263 10.3855 10.7805 10.382 10.8315C10.2199 10.9368 10.0722 11.0964 9.882 11.1983C9.79044 11.2459 9.4771 11.3681 9.38202 11.3443C9.32912 11.3308 9.32209 11.2662 9.301 11.2052C9.25531 11.0763 9.14951 10.8656 9.13897 10.6687C9.12842 10.4208 9.10031 10.0032 9.37832 10.0541C9.60362 10.0947 9.86424 10.1932 10.0368 10.2849C10.146 10.346 10.2059 10.4138 10.3677 10.4275V10.4274Z" fill="black"/>
<path d="M9.41129 11.3814C9.39686 11.3814 9.3841 11.3802 9.37319 11.3775C9.31122 11.3616 9.29384 11.3028 9.27848 11.2511C9.27497 11.2395 9.27164 11.2277 9.26757 11.2161C9.25721 11.1872 9.24334 11.1526 9.22873 11.116C9.17693 10.9874 9.11238 10.8273 9.10387 10.6705L9.10276 10.6441C9.09388 10.442 9.08167 10.1652 9.2093 10.0589C9.25536 10.0205 9.31455 10.0075 9.3854 10.0205C9.59497 10.0583 9.85745 10.1505 10.0544 10.2551C10.0827 10.2708 10.1068 10.2865 10.1301 10.3014C10.1987 10.3457 10.2579 10.384 10.3713 10.3935L10.4037 10.3962V10.4275C10.4037 10.449 10.4037 10.4711 10.3996 10.4943L10.397 10.5092L10.3837 10.5174C10.3321 10.5492 10.2668 10.5638 10.2032 10.5776C10.2709 10.5922 10.3369 10.6143 10.4042 10.6444L10.4262 10.6542L10.4246 10.6776C10.4229 10.7026 10.422 10.729 10.4211 10.7545C10.4201 10.7807 10.4192 10.8076 10.4175 10.8337L10.4164 10.8504L10.402 10.8599C10.3362 10.9027 10.2731 10.9544 10.2061 11.0092C10.1114 11.0868 10.0134 11.167 9.89943 11.228C9.84061 11.2585 9.55317 11.3813 9.41148 11.3813L9.41129 11.3814ZM9.33416 10.084C9.30271 10.084 9.27663 10.0928 9.25536 10.1106C9.15363 10.1953 9.16546 10.4636 9.17323 10.641L9.17434 10.6671C9.18211 10.8125 9.24445 10.9669 9.29439 11.0909C9.30937 11.1282 9.32362 11.1633 9.33434 11.1938C9.33878 11.2066 9.34267 11.2195 9.34637 11.2318C9.35987 11.2773 9.36912 11.3053 9.39095 11.311C9.46826 11.3304 9.76348 11.2206 9.86503 11.1679C9.9725 11.1103 10.0678 11.0324 10.1599 10.9569C10.2235 10.9048 10.2838 10.8554 10.3474 10.8126C10.3485 10.7927 10.3493 10.7721 10.3498 10.7522C10.3504 10.734 10.3511 10.7152 10.3521 10.6967C10.2481 10.6528 10.1467 10.6298 10.035 10.6245L9.89999 10.618L10.0208 10.5597C10.0703 10.5358 10.1279 10.5233 10.1836 10.5114C10.2385 10.4994 10.2906 10.4882 10.3312 10.4675C10.3313 10.4643 10.3317 10.4611 10.3317 10.4579C10.2209 10.4427 10.1571 10.4015 10.09 10.3582C10.0676 10.3437 10.0445 10.3287 10.0189 10.3145C9.82877 10.2135 9.57462 10.1243 9.37171 10.0876C9.35839 10.0851 9.34581 10.0838 9.33397 10.0838L9.33416 10.084Z" fill="#D33833"/>
<path d="M10.525 10.7227C10.5004 10.587 10.4721 10.5495 10.4828 10.4307C10.8596 10.1896 10.9266 10.8449 10.525 10.7227Z" fill="#D33833"/>
<path d="M10.525 10.7237C10.5004 10.5879 10.4721 10.5505 10.4828 10.4317C10.8596 10.1906 10.9266 10.8459 10.525 10.7237Z" fill="black"/>
<path d="M10.62 10.7732C10.5895 10.7732 10.5545 10.7682 10.5146 10.7561L10.494 10.7498L10.4903 10.7293C10.4826 10.6867 10.4744 10.6539 10.4674 10.625C10.4515 10.561 10.44 10.5148 10.4478 10.4286L10.4493 10.4122L10.4635 10.4031C10.63 10.2966 10.7293 10.3596 10.7643 10.3915C10.839 10.4598 10.8553 10.5882 10.8005 10.678C10.7806 10.7106 10.728 10.7736 10.6202 10.7736L10.62 10.7732ZM10.5564 10.6963C10.6411 10.7168 10.7057 10.6983 10.7395 10.643C10.7778 10.5804 10.7669 10.4878 10.7156 10.4409C10.6698 10.399 10.5999 10.4026 10.5175 10.4511C10.5137 10.5157 10.5231 10.5536 10.5368 10.6091C10.5429 10.6341 10.5499 10.6619 10.5566 10.6963H10.5564Z" fill="#D33833"/>
<path d="M11.0665 10.8314C11.0665 10.8314 10.9504 10.6718 11.0349 10.6243C11.1194 10.5769 11.2004 10.6243 11.2496 10.5428C11.2988 10.4613 11.2496 10.4139 11.2672 10.3188C11.2848 10.2237 11.3658 10.2068 11.4503 10.1898C11.5349 10.1729 11.7672 10.1422 11.799 10.2203L11.7004 9.93176L11.4997 9.86719L10.8695 10.2203L10.8379 10.3969V10.7501" fill="#EF3D3A"/>
<path d="M9.32007 11.361C9.29898 11.1097 9.2779 10.8619 9.25662 10.6106C9.22148 10.2371 9.34818 10.3017 9.68613 10.3017C9.73903 10.3017 10.003 10.3595 10.0206 10.3967C10.1121 10.5767 9.86907 10.5359 10.1262 10.6718C10.3409 10.7838 10.7247 10.6038 10.6367 10.3493C10.5873 10.2915 10.3831 10.3323 10.3093 10.2949C10.1791 10.2303 10.0487 10.1659 9.91845 10.1014C9.7529 10.0198 9.3726 9.89767 9.19669 10.0131C8.74943 10.3051 9.22481 11.0385 9.38333 11.344" fill="#EF3D3A"/>
<path d="M9.76131 5.68045C9.30702 5.5786 9.08173 5.86381 8.94448 6.15918C8.82129 6.13207 8.87049 5.96904 8.9023 5.88753C8.98332 5.67367 9.31072 5.38508 9.57838 5.42574C9.69103 5.4393 9.84603 5.54114 9.7615 5.68045" fill="#231F20"/>
<path d="M11.9687 6.17694H11.9898C12.0919 6.38063 12.1799 6.59788 12.3101 6.78123C12.2221 6.97815 11.6551 7.14795 11.6622 6.80157C11.7854 6.75056 11.9966 6.7914 12.1059 6.72344C12.0425 6.55703 11.9544 6.41452 11.9687 6.17676" fill="#231F20"/>
<path d="M9.98974 6.18377C10.0883 6.35696 10.12 6.53693 10.2574 6.66589C10.3208 6.72368 10.4405 6.79485 10.3806 6.95787C10.3665 6.99515 10.2644 7.08005 10.2045 7.097C9.98974 7.15818 9.48625 7.11055 9.65513 6.84907C9.83473 6.85585 10.0741 6.96108 10.208 6.83552C10.1059 6.67927 9.92278 6.36695 9.98974 6.18359" fill="#231F20"/>
<path d="M11.8872 7.92866C11.5633 8.12896 11.2006 8.3496 10.6655 8.29876C10.5528 8.20369 10.507 7.98984 10.6198 7.85053C10.6762 7.9456 10.6409 8.12218 10.8029 8.14929C11.1057 8.20031 11.4579 7.96932 11.6762 7.8912C11.8099 7.67056 11.6656 7.59244 11.5424 7.44975C11.2924 7.16115 10.9614 6.80121 10.972 6.37011C11.0741 6.29876 11.0811 6.47873 11.0952 6.50923C11.2254 6.80121 11.553 7.1781 11.7888 7.42941C11.8487 7.49059 11.9438 7.55159 11.9544 7.59244C11.986 7.70784 11.8733 7.85053 11.8874 7.92866" fill="#231F20"/>
<path d="M7.59835 7.71824C7.49625 7.66045 7.47165 7.41609 7.35178 7.40931C7.1792 7.39915 7.21102 7.72841 7.21102 7.92193C7.09486 7.82009 7.07377 7.50099 7.15812 7.33797C7.05953 7.29035 7.01735 7.38898 6.96094 7.42287C7.03493 6.93058 7.711 7.19546 7.59835 7.71824Z" fill="#231F20"/>
<path d="M12.092 8.13574C11.9405 8.41417 11.7258 8.71971 11.2822 8.72987C11.2716 8.64158 11.2646 8.50246 11.2822 8.44806C11.6236 8.41417 11.8351 8.24776 12.092 8.13574Z" fill="#231F20"/>
<path d="M9.96484 8.31543C10.2466 8.45812 10.7676 8.47507 11.155 8.4649C11.176 8.54641 11.176 8.64826 11.176 8.74671C10.6796 8.76705 10.0951 8.64826 9.96484 8.31543Z" fill="#231F20"/>
<path d="M9.91145 8.58105C10.1086 9.0564 10.7812 9.002 11.3481 8.98844C11.3235 9.04962 11.2706 9.12417 11.2001 9.14808C11.017 9.21942 10.517 9.27364 10.2635 9.14469C10.1049 9.06317 9.99931 8.87643 9.91126 8.7678C9.8726 8.71679 9.66118 8.58444 9.91126 8.58105" fill="#231F20"/>
<path d="M11.8624 11.1987C11.6336 11.579 11.4116 11.9695 11.1406 12.3023C11.2533 11.9798 11.3027 11.4365 11.3202 11.0222C11.5596 10.9135 11.764 11.0459 11.8626 11.1987" fill="#81B0C4"/>
<path d="M13.0983 12.5635C12.8412 12.6145 12.6618 12.8555 12.4082 12.8385C12.549 12.6518 12.7885 12.5703 13.0983 12.5635Z" fill="#231F20"/>
<path d="M13.212 12.9498C13.0008 12.9702 12.7542 13.0042 12.543 12.9871C12.6451 12.8376 13.0324 12.892 13.212 12.9498Z" fill="#231F20"/>
<path d="M13.2848 13.287C13.049 13.2904 12.7567 13.287 12.5312 13.2701C12.665 13.1309 13.1333 13.219 13.2848 13.287Z" fill="#231F20"/>
<path d="M11.4203 14.2033C11.4554 14.4885 11.5718 14.7771 11.5575 15.0894C11.4273 15.13 11.3533 15.1675 11.1772 15.1675C11.1667 14.9026 11.1278 14.4952 11.1386 14.2405C11.2231 14.2473 11.3498 14.1827 11.4203 14.2033Z" fill="#DCD9D8"/>
<path d="M11.0393 9.99316C10.9196 10.0679 10.821 10.1596 10.7048 10.2411C10.4512 10.2546 10.314 10.2241 10.1309 10.0848C10.1344 10.0747 10.1519 10.0781 10.1519 10.0645C10.4231 10.1799 10.7681 10.0169 11.0393 9.99316Z" fill="#F0D6B7"/>
<path d="M9.62519 11.7687C9.69917 11.4598 9.99143 11.2968 10.2554 11.127C10.5266 11.4598 10.6919 11.8875 10.875 12.3017C10.442 12.1761 10.0018 11.9758 9.625 11.7685" fill="#81B0C4"/>
<path d="M11.1371 14.2438C11.1265 14.4985 11.1617 14.9025 11.1757 15.1708C11.3518 15.1708 11.4258 15.1335 11.556 15.0927C11.5701 14.7803 11.4539 14.4918 11.4188 14.2065C11.3483 14.1828 11.2216 14.2472 11.1371 14.2438ZM8.41872 12.8041C8.53488 13.8261 8.70043 14.6817 9.00674 15.5882C9.68633 15.7885 10.5032 15.8054 11.1053 15.6254C10.9961 15.1162 11.0418 14.4948 10.9785 13.9481C10.9292 13.5373 10.9539 13.1264 10.887 12.7088C10.1582 12.5627 9.12993 12.6749 8.41872 12.8039V12.8041ZM11.0596 12.716C11.0525 13.154 11.0807 13.5885 11.116 14.0266C11.2921 14.0029 11.4082 13.9859 11.5703 13.9485C11.5174 13.5275 11.5246 13.0486 11.4153 12.6753C11.2921 12.6787 11.1829 12.6753 11.0596 12.716ZM11.9434 12.6446C11.8588 12.6277 11.7638 12.6446 11.6862 12.6446C11.7249 13.0012 11.813 13.395 11.8448 13.7719C11.968 13.7753 12.0349 13.7175 12.137 13.7005C12.1441 13.3713 12.1089 12.9163 11.9434 12.6446ZM13.285 13.8261C13.5456 13.7649 13.7074 13.4594 13.6336 13.1437C13.5842 12.9332 13.4999 12.5326 13.4048 12.3967C13.3379 12.2982 13.1512 12.1659 12.9999 12.2576C12.7571 12.407 12.3309 12.4511 12.1548 12.6311C12.2428 12.9163 12.2709 13.3033 12.3063 13.6632C12.6091 13.6802 12.9788 13.5817 13.2322 13.687C13.0562 13.7414 12.8309 13.7414 12.6794 13.8227C12.8061 13.8805 13.0948 13.8702 13.285 13.8261ZM10.8694 12.3016C10.6863 11.8875 10.5207 11.4596 10.2498 11.1269C9.98562 11.2967 9.69687 11.4597 9.61956 11.7687C9.99986 11.9757 10.4399 12.176 10.8696 12.3018L10.8694 12.3016ZM11.3202 11.0217C11.3026 11.4358 11.2532 11.9791 11.1406 12.3018C11.4118 11.9656 11.6335 11.5785 11.8623 11.1983C11.7638 11.0454 11.5595 10.913 11.32 11.0217H11.3202ZM10.8095 10.8485C10.7074 10.8383 10.6193 10.9639 10.4856 10.9097C10.454 10.9435 10.4257 10.9776 10.394 11.0115C10.6898 11.3579 10.8271 11.8468 11.056 12.2508C11.1792 11.8603 11.1652 11.4358 11.1933 11.0115C11.0242 11.0183 10.9292 10.8586 10.8095 10.8485ZM10.4821 10.4308C10.4715 10.5495 10.4997 10.587 10.5243 10.7227C10.9256 10.8449 10.8587 10.1896 10.4821 10.4308ZM10.0348 10.2882C9.86224 10.1966 9.6018 10.0981 9.37632 10.0574C9.09812 10.0064 9.12624 10.4242 9.13696 10.6721C9.14751 10.869 9.25313 11.0761 9.299 11.2086C9.32009 11.2698 9.32712 11.3342 9.38002 11.3477C9.47509 11.3681 9.79195 11.2493 9.88 11.2016C10.0701 11.1032 10.2179 10.9435 10.38 10.8349C10.3835 10.7839 10.3835 10.7297 10.387 10.6787C10.2884 10.6311 10.1793 10.6006 10.0348 10.5938C10.1299 10.5462 10.2742 10.5462 10.3622 10.4919C10.3622 10.4716 10.3622 10.4513 10.3657 10.4308C10.2037 10.4138 10.144 10.3458 10.0348 10.2881V10.2882ZM8.37987 9.99964C8.2356 10.1423 8.78478 10.3325 8.95736 10.3426C8.95736 10.2543 9.01026 10.1694 8.99953 10.1049C8.79181 10.071 8.52064 10.0947 8.37987 9.99964ZM10.1547 10.0642C10.1547 10.0778 10.1371 10.0744 10.1336 10.0845C10.3202 10.2237 10.4575 10.2543 10.7076 10.2408C10.8202 10.1627 10.9223 10.0676 11.042 9.99287C10.7673 10.0166 10.4223 10.1796 10.1547 10.0642ZM11.7813 10.5396C11.7743 10.3833 11.7319 10.0608 11.6298 10.003C11.4186 9.88424 11.0453 10.2442 10.8868 10.2984C10.9044 10.346 10.9325 10.3833 10.9362 10.4445C11.0313 10.4208 11.1439 10.4377 11.2249 10.475C11.1299 10.4852 11.0277 10.4852 10.9643 10.5294C10.9432 10.594 10.9713 10.6789 10.9538 10.7671C11.1755 10.8283 11.4327 10.8588 11.7144 10.869C11.7673 10.801 11.7884 10.6721 11.7813 10.5397V10.5396ZM8.137 10.1354C8.09132 10.1049 7.78482 9.72122 7.74264 9.73816C7.18976 9.94863 6.67221 10.312 6.21089 10.6583C6.65094 11.5717 6.83055 12.6887 6.86236 13.7651C7.36586 13.9925 7.8096 14.3219 8.49622 14.3558C8.4152 13.8159 8.34473 13.3304 8.29904 12.8212C8.12646 12.7498 7.88008 12.8246 7.71804 12.8009C7.71804 12.6141 7.96461 12.7193 7.9857 12.5938C7.99976 12.4987 7.84845 12.4919 7.89765 12.3425C8.02436 12.3865 8.09132 12.4852 8.22505 12.5224C8.34824 12.2643 8.22505 11.8059 8.24262 11.5887C8.24614 11.548 8.26371 11.3647 8.35879 11.3952C8.44332 11.4223 8.35527 11.8875 8.3623 12.0911C8.36933 12.2813 8.3377 12.4613 8.41872 12.58C9.08073 12.4918 9.75329 12.4374 10.4715 12.417C10.313 12.3524 10.1264 12.2914 9.92217 12.1793C9.80952 12.1181 9.46085 11.9925 9.42922 11.8907C9.37632 11.7276 9.56295 11.6427 9.59477 11.5036C9.26034 11.6802 9.19689 11.3338 9.11588 11.0928C9.0454 10.8722 9.00323 10.7058 8.98566 10.5802C8.6934 10.4375 8.38357 10.3052 8.137 10.1354ZM11.4891 9.7824C11.9504 9.56854 12.0349 10.5872 11.8518 10.9164C11.8799 11.0149 11.975 11.0522 12.0138 11.1405C11.7567 11.5853 11.4715 11.9995 11.2075 12.4375C11.4012 12.3187 11.6829 12.4172 11.9117 12.3289C11.9963 12.2984 12.056 12.1117 12.1195 11.9622C12.2955 11.5548 12.4787 11.0386 12.5595 10.6516C12.5771 10.5633 12.63 10.3697 12.6159 10.2916C12.5948 10.1489 12.3977 10.0437 12.2955 9.9588C12.1089 9.79577 11.9927 9.65665 11.7956 9.50379C11.7216 9.6158 11.5527 9.69054 11.4893 9.78222L11.4891 9.7824ZM7.08414 5.84036C6.86588 6.07456 6.91156 6.50923 6.93617 6.82155C7.33404 6.5804 7.85862 6.84188 7.85511 7.24944C8.04526 7.24605 7.92558 7.02203 7.89025 6.87595C7.7776 6.404 8.0804 5.89477 7.90431 5.46348C7.56285 5.49059 7.28465 5.62312 7.08396 5.84036H7.08414ZM8.65456 4.48551C8.15809 4.62124 7.52068 4.97102 7.31647 5.4023C7.47499 5.37858 7.58412 5.30384 7.73894 5.29368C7.79888 5.29029 7.87619 5.3174 7.94315 5.30046C8.07689 5.26657 8.19324 4.97458 8.29534 4.86578C8.39393 4.76055 8.51361 4.71292 8.59463 4.61785C8.64753 4.59413 8.72485 4.59413 8.72836 4.5194C8.70727 4.49568 8.68267 4.47873 8.65437 4.48551H8.65456ZM11.2427 4.61464C10.7251 4.33283 9.85188 4.12236 9.30251 4.38723C8.85877 4.60109 8.2602 4.95425 8.05599 5.39909C8.24614 5.83038 7.99957 6.2242 7.982 6.66209C7.97497 6.89628 8.09465 7.09676 8.10519 7.35129C8.03823 7.45652 7.84105 7.46669 7.7038 7.45991C7.65811 7.23589 7.57709 6.98457 7.33756 6.95746C6.99961 6.92018 6.74953 7.19165 6.73547 7.47347C6.7179 7.8063 6.99961 8.35619 7.401 8.31892C7.55601 8.30536 7.59467 8.15589 7.76373 8.15589C7.85529 8.33247 7.62297 8.38669 7.59818 8.51244C7.59115 8.54633 7.61575 8.67208 7.63333 8.73308C7.70731 9.02167 7.86917 9.39856 8.02769 9.61919C8.2319 9.90101 8.62977 9.94168 9.05946 9.96897C9.13696 9.80933 9.41868 9.82288 9.6018 9.86373C9.38002 9.77883 9.17581 9.57514 9.00674 9.39517C8.81308 9.18809 8.6159 8.96727 8.60535 8.6958C8.97511 9.18809 9.27791 9.61937 9.94696 9.83662C10.454 9.99964 11.0455 9.76188 11.4364 9.49701C11.5984 9.38839 11.6935 9.21181 11.8096 9.05556C12.2391 8.45804 12.4398 7.6092 12.3977 6.78409C12.3801 6.44448 12.3801 6.10506 12.2604 5.87746C12.1372 5.6397 11.7181 5.42246 11.4717 5.6397C11.426 5.40551 11.6759 5.26282 11.9681 5.34772C11.7604 5.08624 11.5422 4.77731 11.2429 4.61429L11.2427 4.61464ZM12.2075 12.2914C12.6124 12.0979 13.366 11.7721 13.6159 12.2914C13.711 12.485 13.8201 12.8075 13.866 13.0079C13.9329 13.2864 13.792 13.8771 13.4927 13.9688C13.2285 14.0503 12.9222 14.0469 12.6054 13.9857C12.5667 13.9552 12.5279 13.9042 12.4962 13.85C12.2709 13.8432 12.0562 13.8602 11.8801 13.9518C11.8977 14.1149 11.785 14.1386 11.6759 14.1725C11.5984 14.4746 11.8344 14.8685 11.778 15.1401C11.7393 15.337 11.4893 15.3675 11.3061 15.4016C11.2991 15.5102 11.3132 15.6019 11.3272 15.6936C11.285 15.843 11.0984 15.9278 10.9188 15.9483C10.3308 16.0162 9.43995 16.0467 8.87652 15.8498C8.718 15.4763 8.59481 15.0247 8.46459 14.6004C7.91522 14.6582 7.46815 14.373 7.04918 14.1828C6.90491 14.1183 6.70403 14.081 6.64779 13.969C6.59489 13.8603 6.61616 13.6533 6.60211 13.4597C6.57048 12.9607 6.53866 12.4786 6.40493 11.9691C6.345 11.7383 6.23586 11.5379 6.16206 11.3172C6.09158 11.1135 5.97191 10.8588 5.94028 10.6551C5.89459 10.353 6.19036 10.336 6.37681 10.2035C6.66907 9.99982 6.89788 9.88781 7.21492 9.70445C7.30999 9.65005 7.59171 9.51431 7.62334 9.44975C7.68678 9.32418 7.5142 9.1476 7.46833 9.04914C7.39434 8.89289 7.35568 8.76055 7.34514 8.60769C7.081 8.56702 6.87679 8.41416 6.75711 8.24436C6.55642 7.95916 6.41565 7.4328 6.59156 7.03558C6.60562 7.00508 6.67258 6.94052 6.68312 6.89289C6.70421 6.79782 6.64447 6.67226 6.64095 6.57041C6.62338 6.05101 6.73251 5.60278 7.09524 5.44654C7.24322 4.87952 7.77131 4.69277 8.26778 4.41095C8.45442 4.30572 8.65863 4.23776 8.86986 4.16303C9.62695 3.89477 10.7925 3.94578 11.4227 4.40417C11.6903 4.5977 12.1163 5.00847 12.2678 5.30741C12.6727 6.09168 12.6411 7.40569 12.3594 8.36315C12.3207 8.49211 12.2678 8.67886 12.1903 8.8351C12.1374 8.94373 11.972 9.15759 11.9896 9.25265C12.0107 9.35111 12.3699 9.61259 12.4474 9.68394C12.5847 9.8129 12.8488 9.9827 12.8699 10.1457C12.8945 10.3189 12.7924 10.5565 12.7397 10.7229C12.5706 11.2798 12.4017 11.7924 12.2081 12.2916L12.2075 12.2914Z" fill="#231F20"/>
<path d="M9.5135 8.4347C9.53459 8.40759 9.65427 8.36336 9.82333 8.44148C9.82333 8.44148 9.62264 8.47198 9.64021 8.79464L9.55568 8.7777C9.55919 8.78108 9.47114 8.4891 9.5135 8.4347Z" fill="#F7E4CD"/>
<path d="M10.9722 11.1918C10.9722 11.2394 10.93 11.2801 10.8806 11.2801C10.8312 11.2801 10.7891 11.2394 10.7891 11.1918C10.7891 11.1442 10.8312 11.1035 10.8806 11.1035C10.9335 11.1035 10.9722 11.1442 10.9722 11.1918Z" fill="#1D1919"/>
<path d="M11.064 11.6029C11.064 11.6506 11.0218 11.6912 10.9724 11.6912C10.923 11.6912 10.8809 11.6506 10.8809 11.6029C10.8809 11.5553 10.923 11.5146 10.9724 11.5146C11.0253 11.5146 11.064 11.5519 11.064 11.6029Z" fill="#1D1919"/>
</g>
<defs>
<clipPath id="clip0_237_7954">
<rect width="9" height="12" fill="white" transform="translate(5 4)"/>
</clipPath>
</defs>
</svg>
