<svg width="24" height="24" viewBox="0 0 24 24" fill="none" xmlns="http://www.w3.org/2000/svg">
<mask id="path-1-inside-1_237_7882" fill="white">
<path d="M0 6.39569C0 2.86345 2.86345 0 6.39569 0H17.6043C21.1366 0 24 2.86345 24 6.39569V17.6043C24 21.1366 21.1366 24 17.6043 24H6.39569C2.86345 24 0 21.1366 0 17.6043V6.39569Z"/>
</mask>
<path d="M0 6.39569C0 2.86345 2.86345 0 6.39569 0H17.6043C21.1366 0 24 2.86345 24 6.39569V17.6043C24 21.1366 21.1366 24 17.6043 24H6.39569C2.86345 24 0 21.1366 0 17.6043V6.39569Z" fill="white"/>
<path d="M6.39569 0V1H17.6043V0V-1H6.39569V0ZM24 6.39569H23V17.6043H24H25V6.39569H24ZM17.6043 24V23H6.39569V24V25H17.6043V24ZM0 17.6043H1V6.39569H0H-1V17.6043H0ZM6.39569 24V23C3.41573 23 1 20.5843 1 17.6043H0H-1C-1 21.6888 2.31116 25 6.39569 25V24ZM24 17.6043H23C23 20.5843 20.5843 23 17.6043 23V24V25C21.6888 25 25 21.6888 25 17.6043H24ZM17.6043 0V1C20.5843 1 23 3.41573 23 6.39569H24H25C25 2.31116 21.6888 -1 17.6043 -1V0ZM6.39569 0V-1C2.31116 -1 -1 2.31116 -1 6.39569H0H1C1 3.41573 3.41573 1 6.39569 1V0Z" fill="#0B1228" fill-opacity="0.14" mask="url(#path-1-inside-1_237_7882)"/>
<g clip-path="url(#clip0_237_7882)">
<path d="M18.3839 11.4624C18.3839 15.0515 15.4328 17.9639 11.7905 17.9639C8.14805 17.9639 5.19727 15.0515 5.19727 11.4624C5.19727 7.87338 8.14833 4.96094 11.7907 4.96094C15.4331 4.96094 18.3842 7.87311 18.3842 11.4624" fill="#D33833"/>
<path d="M5.46857 13.0723C5.46857 13.0723 4.99009 6.29388 11.4718 6.09914L11.0199 5.37109L7.50513 6.50935L6.50012 7.62202L5.62276 9.24215L5.12305 11.1289L5.27193 12.3903" fill="#EF3D3A"/>
<path d="M7.27706 7.02656C6.12345 8.16994 5.40558 9.744 5.40558 11.4875C5.40558 13.2307 6.12345 14.8048 7.27734 15.9481C8.43654 17.0915 10.0265 17.794 11.7918 17.794C13.5571 17.794 15.147 17.0915 16.3062 15.9481C17.4601 14.8048 18.178 13.2307 18.178 11.4875C18.178 9.74427 17.4601 8.17021 16.3062 7.02683C15.147 5.88857 13.5571 5.181 11.7918 5.181C10.0318 5.181 8.43654 5.88345 7.27734 7.02683L7.27706 7.02656ZM6.98461 16.2199C5.75642 15.0097 4.99609 13.3333 4.99609 11.4875C4.99609 9.64165 5.75642 7.96496 6.98461 6.74994C8.2128 5.54003 9.91445 4.78613 11.7912 4.78613C13.6683 4.78613 15.3697 5.53977 16.5979 6.74994C17.826 7.95985 18.5864 9.63653 18.5864 11.4875C18.5864 13.3333 17.826 15.01 16.5979 16.2199C15.3697 17.4352 13.668 18.1837 11.7912 18.1837C9.91417 18.1837 8.2128 17.4352 6.98461 16.2199Z" fill="#231F20"/>
<path d="M14.5669 11.4979L13.5619 11.6415L12.2061 11.7902L11.3287 11.8106L10.4726 11.785L9.81869 11.5903L9.23909 10.9854L8.78715 9.74959L8.68603 9.48294L8.0852 9.2882L7.73437 8.7293L7.48438 7.92935L7.76091 7.22689L8.41481 7.00629L8.94133 7.24736L9.19133 7.78067L9.4944 7.73461L9.59551 7.61152L9.4944 7.05262L9.46786 6.35017L9.61674 5.38106L9.61143 4.82728L10.0687 4.1197L10.8715 3.56081L12.2751 2.98145L13.8332 3.20204L15.189 4.14556L15.8164 5.11467L16.2205 5.81713L16.3217 7.56034L16.0186 9.06276L15.4655 10.3958L14.9443 11.1084" fill="#F0D6B7"/>
<path d="M13.7148 15.6869L10.1258 15.8304V16.4098L10.4288 18.4452L10.28 18.6144L7.77023 17.7888L7.59481 17.4966L7.34482 14.7587L6.7546 13.1181L6.62695 12.7284L8.63698 11.3954L9.26434 11.1543L9.8174 11.8107L10.2959 12.2209L10.8489 12.3901L11.0989 12.462L11.402 13.7233L11.6308 13.99L12.2104 13.7952L11.8062 14.5489L13.9863 15.5436L13.7151 15.6871" fill="#335061"/>
<path d="M7.76071 7.23676L8.41461 7.01617L8.94114 7.25723L9.19114 7.79054L9.4942 7.74448L9.56878 7.45224L9.4199 6.89335L9.56878 5.56035L9.44113 4.8323L9.89308 4.32459L10.8716 3.57607L10.595 3.21191L9.21264 3.86831L8.63304 4.30412L8.30875 4.98098L7.80904 5.63738L7.66016 6.41148L7.76127 7.23703" fill="#6D6B6D"/>
<path d="M8.79221 4.96058C8.79221 4.96058 9.16986 4.06338 10.6746 3.62758C12.1793 3.19178 10.7492 3.31487 10.7492 3.31487L9.11679 3.91982L8.48942 4.52477L8.21289 5.00663L8.79249 4.96058" fill="#DCD9D8"/>
<path d="M8.0378 7.06835C8.0378 7.06835 7.51128 5.3712 9.5213 5.13013L9.44672 4.83789L8.06434 5.1506L7.66016 6.41195L7.76127 7.2375L8.0378 7.06835Z" fill="#DCD9D8"/>
<path d="M8.83984 9.31931L9.16945 9.01172C9.16945 9.01172 9.31833 9.02707 9.34486 9.19622C9.3714 9.36537 9.44598 10.8934 10.5253 11.7138C10.6264 11.7908 9.72251 11.5907 9.72251 11.5907L8.91973 10.3808" fill="#F7E4CD"/>
<path d="M13.46 8.85769C13.46 8.85769 13.5184 8.12452 13.7259 8.18082C13.9335 8.23711 13.9332 8.43724 13.9332 8.43724C13.9332 8.43724 13.4335 8.74483 13.46 8.85769Z" fill="#F7E4CD"/>
<path d="M15.5458 6.1709C15.5458 6.1709 15.131 6.25305 15.0938 6.6067C15.0567 6.96035 15.5458 6.67862 15.6203 6.65276" fill="#F7E4CD"/>
<path d="M12.5081 6.19629C12.5081 6.19629 11.9551 6.2682 11.9551 6.6065C11.9551 6.9448 12.5824 6.91922 12.7579 6.77565" fill="#F7E4CD"/>
<path d="M9.09527 7.77082C9.09527 7.77082 8.14361 7.21192 8.04249 7.74523C7.94137 8.27853 7.71819 8.66289 8.19137 9.22179L7.86707 9.12428L7.56401 8.37577L7.46289 7.64772L8.04249 7.06836L8.69639 7.11442L9.07404 7.40666L9.09527 7.77082Z" fill="#F7E4CD"/>
<path d="M9.54654 6.24217C9.54654 6.24217 9.97196 4.10921 12.1306 3.699C13.9065 3.3607 14.8423 3.77091 15.1934 4.16039C15.1934 4.16039 13.6088 2.34526 12.104 2.89904C10.5993 3.45793 9.49319 4.4731 9.52001 5.12438C9.56247 6.24217 9.54654 6.24217 9.54654 6.24217Z" fill="#F7E4CD"/>
<path d="M15.3683 4.40151C15.3683 4.40151 14.6398 4.37592 14.6133 5.00646C14.6133 5.00646 14.6133 5.10397 14.661 5.2012C14.661 5.2012 15.2406 4.57066 15.5915 4.90896" fill="#F7E4CD"/>
<path d="M12.1855 5.26884C12.1855 5.26884 12.0578 4.30485 11.207 4.86375C10.654 5.2279 10.7073 5.73535 10.8028 5.83286C10.9039 5.93036 10.8774 6.1251 10.9517 5.99177C11.0263 5.85844 11.0048 5.42264 11.2813 5.29955C11.5525 5.17646 12.0098 5.04313 12.1852 5.26884" fill="#F7E4CD"/>
<path d="M9.82494 11.8107L7.46408 12.8258C7.46408 12.8258 8.44256 16.5789 7.94256 17.7428L7.59173 17.6197L7.5652 16.1892L6.9113 13.482L6.63477 12.7334L9.09674 11.1338L9.82522 11.8107" fill="#49728B"/>
<path d="M10.0629 13.8877L10.3978 14.2826V15.7335H9.99894C9.99894 15.7335 9.95117 14.7184 9.95117 14.5953C9.95117 14.4722 9.99894 14.0364 9.99894 14.0364" fill="#49728B"/>
<path d="M10.0741 15.9541L8.94141 16.0002L9.2657 16.2208L10.0685 16.3438" fill="#49728B"/>
<path d="M13.9395 15.7131L14.8699 15.6875L15.0987 17.9128L14.147 18.0359L13.9397 15.7134" fill="#335061"/>
<path d="M14.1881 15.7128L15.5917 15.6409C15.5917 15.6409 16.1713 14.236 16.1713 14.1643C16.1713 14.0927 16.671 12.1289 16.671 12.1289L15.5383 10.9906L15.3095 10.7959L14.7087 11.3753V13.6262L14.1875 15.7131" fill="#335061"/>
<path d="M14.8168 15.5439L13.9395 15.7131L14.0671 16.39C14.3914 16.5335 14.9445 16.1489 14.9445 16.1489" fill="#49728B"/>
<path d="M14.8438 11.3031L16.6038 12.5645L16.6515 11.9851L15.3222 10.8008L14.8438 11.3034" fill="#49728B"/>
<path d="M10.9454 20.4816L10.4242 18.4462L10.1636 16.9438L10.1211 15.8311L12.4766 15.708H13.9389L13.8059 18.2512L14.0347 20.215L14.0082 20.5791L12.0993 20.7227L10.9454 20.4816Z" fill="white"/>
<path d="M13.6137 15.6875C13.6137 15.6875 13.486 18.2051 13.8636 19.9995C13.8636 19.9995 13.1086 20.4609 12.0078 20.5788L14.1187 20.5072L14.3687 20.3636L14.0656 16.3951L13.9857 15.5439" fill="#DCD9D8"/>
<path d="M15.1365 17.7224L16.1149 17.4557L17.9708 17.3582L18.2473 16.5327L17.7476 15.1022L17.168 15.0303L16.3652 15.2713L15.5996 15.6355L15.1901 15.5636L14.8711 15.6867" fill="white"/>
<path d="M15.1191 17.2354C15.1191 17.2354 15.773 16.9432 15.8742 16.9688L15.5976 15.6358L15.9219 15.5127C15.9219 15.5127 16.1507 16.774 16.1507 16.9176C16.1507 16.9176 17.5543 16.9893 17.6819 16.9893C17.6819 16.9893 17.985 16.4304 17.9107 15.851L18.1872 16.6251L18.2138 17.0609L17.8096 17.6403L17.3576 17.7378L16.6026 17.7122L16.3526 17.3995L15.4753 17.5226L15.1987 17.6201" fill="#DCD9D8"/>
<path d="M14.1307 15.5181L13.5776 14.1646L12.998 13.3647C12.998 13.3647 13.1257 13.0264 13.3011 13.0264H13.8807L14.4338 13.2211L14.386 14.1183L14.1307 15.5181Z" fill="white"/>
<path d="M14.2425 15.0566C14.2425 15.0566 13.5405 13.7492 13.5405 13.5542C13.5405 13.5542 13.6682 13.262 13.8436 13.3336C14.019 13.4055 14.3967 13.6003 14.3967 13.6003V13.1389L13.5405 12.9697L12.9609 13.0416L13.9394 15.2772L14.1414 15.3028" fill="#DCD9D8"/>
<path d="M11.1689 11.8624L10.4723 11.7904L9.81836 11.5957V11.8163L10.1373 12.1546L11.1424 12.5904" fill="white"/>
<path d="M10.0478 11.9336C10.0478 11.9336 10.824 12.2463 11.0793 12.1747L11.1059 12.4669L10.4039 12.3233L9.97852 12.0311L10.0475 11.9336" fill="#DCD9D8"/>
<path d="M15.1345 13.1078C14.7091 13.0976 14.3211 13.0464 13.9859 12.954C14.0071 12.8207 13.9647 12.6925 14.0018 12.595C14.0976 12.5285 14.2518 12.5285 14.3954 12.5128C14.273 12.4565 14.0976 12.4307 13.9593 12.4668C13.954 12.3744 13.9116 12.3181 13.8848 12.2462C14.1241 12.164 14.6875 11.6259 15.0068 11.8001C15.161 11.8874 15.2247 12.3693 15.2356 12.6103C15.2462 12.8051 15.2144 13.0001 15.1345 13.1075" fill="#D33833"/>
<path d="M15.1345 13.1078C14.7091 13.0976 14.3211 13.0464 13.9859 12.954C14.0071 12.8207 13.9647 12.6925 14.0018 12.595C14.0976 12.5285 14.2518 12.5285 14.3954 12.5128C14.273 12.4565 14.0976 12.4307 13.9593 12.4668C13.954 12.3744 13.9116 12.3181 13.8848 12.2462C14.1241 12.164 14.6875 11.6259 15.0068 11.8001C15.161 11.8874 15.2247 12.3693 15.2356 12.6103C15.2462 12.8051 15.2144 13.0001 15.1345 13.1075V13.1078Z" fill="black"/>
<path d="M15.1619 13.1603L15.1334 13.1595C14.6996 13.149 14.3089 13.0967 13.9714 13.0038L13.9259 12.9914L13.9332 12.9464C13.9418 12.8915 13.9388 12.836 13.9357 12.7821C13.9315 12.7094 13.9276 12.641 13.9519 12.5774L13.9575 12.5626L13.9706 12.5534C14.0041 12.5303 14.0427 12.5141 14.084 12.5023C14.0449 12.5033 14.0072 12.5082 13.9734 12.5168L13.9097 12.5332L13.9061 12.4697C13.903 12.4147 13.8846 12.3751 13.8631 12.3293C13.8533 12.3086 13.8432 12.287 13.8346 12.2636L13.8164 12.2149L13.867 12.1976C13.9337 12.1747 14.0385 12.106 14.1496 12.0333C14.4318 11.8485 14.7829 11.6185 15.0334 11.7554C15.2547 11.8803 15.2879 12.5785 15.2893 12.6081C15.3013 12.8295 15.26 13.0275 15.1784 13.1376L15.1619 13.16V13.1603ZM14.0443 12.9162C14.3549 12.9973 14.7119 13.0442 15.106 13.0558C15.163 12.9604 15.1921 12.7948 15.1823 12.6135C15.1678 12.2835 15.0882 11.9065 14.9801 11.8453C14.7885 11.7405 14.4541 11.9595 14.21 12.1192C14.1128 12.1828 14.0262 12.2396 13.9544 12.2738C13.9563 12.2782 13.9586 12.2827 13.9605 12.2873C13.9767 12.3218 13.9943 12.3595 14.0047 12.4056C14.136 12.387 14.2949 12.4096 14.4186 12.4667L14.5876 12.5448L14.4013 12.5647C14.3742 12.5677 14.3471 12.5699 14.3197 12.5723C14.2142 12.5814 14.1139 12.5901 14.0474 12.6283C14.0365 12.6692 14.0393 12.7193 14.0427 12.7764C14.0452 12.8195 14.048 12.8669 14.0443 12.9162Z" fill="#D33833"/>
<path d="M13.0992 12.4364C13.0992 12.4671 13.0992 12.4978 13.0939 12.5288C12.961 12.6109 12.7484 12.6109 12.5995 12.6825C12.8121 12.6928 12.9825 12.744 13.1313 12.8108C13.126 12.8878 13.126 12.9697 13.1207 13.0467C12.876 13.2056 12.6529 13.4467 12.3657 13.6005C12.2275 13.6724 11.7543 13.8569 11.6107 13.8211C11.5308 13.8006 11.5202 13.7031 11.4884 13.611C11.4194 13.4162 11.2596 13.0982 11.2437 12.8008C11.2277 12.4264 11.1853 11.7959 11.6051 11.8726C11.9453 11.934 12.3389 12.0827 12.5995 12.2212C12.7643 12.3135 12.8548 12.4159 13.0992 12.4366" fill="#D33833"/>
<path d="M13.0992 12.4364C13.0992 12.4671 13.0992 12.4978 13.0939 12.5288C12.961 12.6109 12.7484 12.6109 12.5995 12.6825C12.8121 12.6928 12.9825 12.744 13.1313 12.8108C13.126 12.8878 13.126 12.9697 13.1207 13.0467C12.876 13.2056 12.6529 13.4467 12.3657 13.6005C12.2275 13.6724 11.7543 13.8569 11.6107 13.8211C11.5308 13.8006 11.5202 13.7031 11.4884 13.611C11.4194 13.4162 11.2596 13.0982 11.2437 12.8008C11.2277 12.4264 11.1853 11.7959 11.6051 11.8726C11.9453 11.934 12.3389 12.0827 12.5995 12.2212C12.7643 12.3135 12.8548 12.4159 13.0992 12.4366V12.4364Z" fill="black"/>
<path d="M11.6553 13.877C11.6335 13.877 11.6142 13.8751 11.5977 13.871C11.5041 13.8471 11.4779 13.7582 11.4547 13.6801C11.4494 13.6626 11.4444 13.6448 11.4382 13.6273C11.4226 13.5836 11.4016 13.5314 11.3796 13.4762C11.3014 13.282 11.2039 13.0401 11.191 12.8033L11.1893 12.7635C11.1759 12.4583 11.1575 12.0403 11.3502 11.8798C11.4198 11.8218 11.5092 11.8022 11.6162 11.8218C11.9326 11.8789 12.329 12.0182 12.6265 12.176C12.6692 12.1997 12.7055 12.2234 12.7407 12.2461C12.8443 12.3129 12.9337 12.3708 13.105 12.385L13.1538 12.3891V12.4365C13.1538 12.4688 13.1538 12.5022 13.1477 12.5372L13.1438 12.5599L13.1237 12.5722C13.0457 12.6202 12.9471 12.6423 12.8511 12.663C12.9533 12.6851 13.053 12.7185 13.1547 12.764L13.1879 12.7788L13.1854 12.8141C13.1829 12.8518 13.1815 12.8917 13.1801 12.9302C13.1787 12.9698 13.1773 13.0105 13.1748 13.0498L13.1731 13.0751L13.1513 13.0894C13.0519 13.154 12.9566 13.2321 12.8555 13.3148C12.7125 13.432 12.5645 13.5532 12.3924 13.6453C12.3036 13.6914 11.8695 13.8767 11.6555 13.8767L11.6553 13.877ZM11.5388 11.9177C11.4913 11.9177 11.4519 11.9309 11.4198 11.9579C11.2662 12.0858 11.284 12.4909 11.2958 12.7589L11.2974 12.7982C11.3092 13.0177 11.4033 13.251 11.4787 13.4382C11.5014 13.4945 11.5229 13.5475 11.5391 13.5936C11.5458 13.613 11.5516 13.6324 11.5572 13.651C11.5776 13.7197 11.5916 13.7619 11.6245 13.7706C11.7413 13.7999 12.1871 13.634 12.3404 13.5546C12.5027 13.4676 12.6466 13.3498 12.7857 13.2359C12.8818 13.1573 12.9728 13.0827 13.0689 13.018C13.0706 12.9878 13.0717 12.9569 13.0726 12.9267C13.0734 12.8992 13.0745 12.8709 13.0759 12.8429C12.9189 12.7767 12.7659 12.7419 12.5971 12.7339L12.3932 12.7242L12.5756 12.6361C12.6505 12.6 12.7374 12.5811 12.8214 12.5631C12.9044 12.545 12.9832 12.5281 13.0443 12.4968C13.0446 12.492 13.0452 12.4871 13.0452 12.4823C12.8779 12.4594 12.7815 12.3972 12.6801 12.3317C12.6463 12.3099 12.6114 12.2873 12.5728 12.2657C12.2857 12.1133 11.9019 11.9786 11.5955 11.9231C11.5754 11.9193 11.5564 11.9175 11.5385 11.9175L11.5388 11.9177Z" fill="#D33833"/>
<path d="M13.3387 12.8825C13.3016 12.6775 13.2588 12.6209 13.275 12.4415C13.844 12.0774 13.9451 13.067 13.3387 12.8825Z" fill="#D33833"/>
<path d="M13.3387 12.8825C13.3016 12.6775 13.2588 12.6209 13.275 12.4415C13.844 12.0774 13.9451 13.067 13.3387 12.8825Z" fill="black"/>
<path d="M13.4806 12.9581C13.4345 12.9581 13.3817 12.9506 13.3214 12.9322L13.2904 12.9228L13.2848 12.8918C13.2731 12.8275 13.2608 12.7779 13.2502 12.7343C13.2261 12.6376 13.2088 12.5678 13.2206 12.4377L13.2228 12.4129L13.2443 12.3992C13.4957 12.2384 13.6457 12.3335 13.6985 12.3817C13.8113 12.4849 13.8359 12.6788 13.7532 12.8143C13.7231 12.8636 13.6437 12.9586 13.4809 12.9586L13.4806 12.9581ZM13.3845 12.842C13.5125 12.873 13.6099 12.845 13.6611 12.7615C13.7189 12.6669 13.7024 12.5271 13.625 12.4563C13.5557 12.393 13.4502 12.3984 13.3259 12.4717C13.32 12.5692 13.3342 12.6265 13.3549 12.7103C13.3641 12.748 13.3747 12.79 13.3848 12.842H13.3845Z" fill="#D33833"/>
<path d="M14.1577 13.0469C14.1577 13.0469 13.9823 12.8058 14.11 12.7342C14.2376 12.6626 14.36 12.7342 14.4343 12.6111C14.5086 12.488 14.4343 12.4164 14.4608 12.2728C14.4873 12.1292 14.6097 12.1037 14.7373 12.0781C14.865 12.0525 15.2158 12.0062 15.2639 12.1241L15.115 11.6883L14.8119 11.5908L13.8603 12.1241L13.8125 12.3908V12.9241" fill="#EF3D3A"/>
<path d="M11.5194 13.8461C11.4875 13.4666 11.4557 13.0924 11.4236 12.7129C11.3705 12.1489 11.5618 12.2464 12.0722 12.2464C12.152 12.2464 12.5506 12.3337 12.5772 12.39C12.7154 12.6617 12.3484 12.6001 12.7367 12.8053C13.061 12.9745 13.6406 12.7027 13.5076 12.3183C13.433 12.2311 13.1246 12.2927 13.0132 12.2362C12.8166 12.1387 12.6196 12.0414 12.423 11.9439C12.173 11.8208 11.5987 11.6363 11.3331 11.8106C10.6577 12.2515 11.3755 13.3591 11.6149 13.8205" fill="#EF3D3A"/>
<path d="M12.1852 5.2684C11.4992 5.1146 11.159 5.54529 10.9517 5.99132C10.7657 5.95038 10.84 5.7042 10.888 5.58111C11.0104 5.25816 11.5048 4.82236 11.9089 4.88377C12.0791 4.90424 12.3131 5.05804 12.1855 5.2684" fill="#231F20"/>
<path d="M15.5176 6.01687H15.5495C15.7037 6.32446 15.8366 6.65253 16.0333 6.92942C15.9003 7.22678 15.0442 7.48319 15.0548 6.96012C15.2408 6.88309 15.5598 6.94477 15.7249 6.84215C15.6291 6.59085 15.4961 6.37564 15.5176 6.0166" fill="#231F20"/>
<path d="M12.5293 6.02761C12.6782 6.28915 12.726 6.56092 12.9335 6.75566C13.0293 6.84293 13.2101 6.9504 13.1196 7.19658C13.0983 7.25287 12.9441 7.38108 12.8536 7.40667C12.5293 7.49905 11.769 7.42714 12.024 7.03228C12.2953 7.04251 12.6567 7.20143 12.8589 7.01181C12.7048 6.77586 12.4282 6.30423 12.5293 6.02734" fill="#231F20"/>
<path d="M15.3951 8.66279C14.906 8.96526 14.3582 9.29845 13.5501 9.22168C13.38 9.07812 13.3107 8.75517 13.4811 8.54481C13.5663 8.68838 13.513 8.95503 13.7577 8.99597C14.2149 9.073 14.7467 8.7242 15.0764 8.60622C15.2783 8.27304 15.0604 8.15507 14.8744 7.93959C14.4968 7.50379 13.997 6.96025 14.013 6.30924C14.1672 6.2015 14.1778 6.47327 14.199 6.51933C14.3956 6.96025 14.8903 7.52938 15.2465 7.90889C15.337 8.00127 15.4805 8.09339 15.4965 8.15507C15.5442 8.32934 15.3741 8.54481 15.3953 8.66279" fill="#231F20"/>
<path d="M8.91959 8.34469C8.7654 8.25743 8.72825 7.88842 8.54724 7.87819C8.28663 7.86283 8.33468 8.36005 8.33468 8.65229C8.15926 8.49849 8.12742 8.01663 8.25479 7.77045C8.10591 7.69853 8.04223 7.84748 7.95703 7.89866C8.06876 7.15526 9.08969 7.55524 8.91959 8.34469Z" fill="#231F20"/>
<path d="M15.7039 8.97559C15.4751 9.39604 15.1508 9.85743 14.481 9.87278C14.4651 9.73945 14.4545 9.52936 14.481 9.44721C14.9966 9.39604 15.3159 9.14474 15.7039 8.97559Z" fill="#231F20"/>
<path d="M12.4922 9.24707C12.9176 9.46255 13.7045 9.48814 14.2894 9.47278C14.3212 9.59587 14.3212 9.74967 14.3212 9.89835C13.5715 9.92906 12.6888 9.74967 12.4922 9.24707Z" fill="#231F20"/>
<path d="M12.4123 9.64746C12.7101 10.3653 13.7257 10.2831 14.5819 10.2626C14.5447 10.355 14.4648 10.4676 14.3584 10.5037C14.0819 10.6115 13.3268 10.6933 12.9439 10.4986C12.7045 10.3755 12.545 10.0935 12.4121 9.92947C12.3537 9.85243 12.0344 9.65258 12.4121 9.64746" fill="#231F20"/>
<path d="M15.3595 13.6001C15.0139 14.1744 14.6787 14.764 14.2695 15.2666C14.4396 14.7796 14.5142 13.9591 14.5408 13.3335C14.9022 13.1694 15.2109 13.3693 15.3597 13.6001" fill="#81B0C4"/>
<path d="M17.2258 15.6611C16.8375 15.7382 16.5665 16.1021 16.1836 16.0765C16.3962 15.7945 16.7579 15.6714 17.2258 15.6611Z" fill="#231F20"/>
<path d="M17.3951 16.2457C17.0761 16.2764 16.7038 16.3278 16.3848 16.302C16.539 16.0762 17.1239 16.1584 17.3951 16.2457Z" fill="#231F20"/>
<path d="M17.5071 16.7532C17.151 16.7583 16.7096 16.7532 16.3691 16.7276C16.5711 16.5175 17.2783 16.6506 17.5071 16.7532Z" fill="#231F20"/>
<path d="M14.6899 18.1379C14.743 18.5686 14.9187 19.0044 14.8972 19.4761C14.7005 19.5375 14.5888 19.594 14.3229 19.594C14.307 19.194 14.2483 18.5789 14.2645 18.1942C14.3922 18.2045 14.5835 18.107 14.6899 18.1379Z" fill="#DCD9D8"/>
<path d="M14.1159 11.7803C13.9352 11.8931 13.7863 12.0316 13.6109 12.1547C13.2279 12.1751 13.0207 12.1291 12.7441 11.9187C12.7494 11.9034 12.776 11.9085 12.776 11.888C13.1855 12.0623 13.7064 11.8161 14.1159 11.7803Z" fill="#F0D6B7"/>
<path d="M11.9768 14.4623C12.0886 13.9958 12.5299 13.7496 12.9285 13.4932C13.338 13.9958 13.5877 14.6417 13.8642 15.2671C13.2103 15.0775 12.5455 14.775 11.9766 14.462" fill="#81B0C4"/>
<path d="M14.2649 18.1996C14.249 18.5842 14.3021 19.1943 14.3233 19.5994C14.5892 19.5994 14.701 19.5431 14.8976 19.4814C14.9188 19.0098 14.7434 18.574 14.6903 18.1433C14.5839 18.1075 14.3926 18.2047 14.2649 18.1996ZM10.16 16.0254C10.3354 17.5688 10.5854 18.8608 11.0479 20.2297C12.0742 20.5321 13.3077 20.5577 14.2169 20.286C14.0521 19.517 14.1211 18.5786 14.0256 17.753C13.951 17.1327 13.9884 16.5121 13.8873 15.8816C12.7867 15.661 11.234 15.8304 10.16 16.0252V16.0254ZM14.1479 15.8924C14.1373 16.5539 14.1797 17.21 14.2331 17.8715C14.499 17.8357 14.6744 17.8101 14.9191 17.7536C14.8392 17.1179 14.8501 16.3947 14.685 15.831C14.499 15.8361 14.3342 15.831 14.1479 15.8924ZM15.4825 15.7846C15.3549 15.759 15.2113 15.7846 15.0942 15.7846C15.1526 16.3231 15.2856 16.9178 15.3336 17.4869C15.5197 17.492 15.6208 17.4047 15.775 17.3792C15.7856 16.8819 15.7325 16.1948 15.4825 15.7846ZM17.5085 17.5688C17.902 17.4764 18.1464 17.015 18.035 16.5383C17.9604 16.2204 17.833 15.6155 17.6895 15.4102C17.5883 15.2616 17.3065 15.0617 17.078 15.2001C16.7113 15.4259 16.0677 15.4924 15.8018 15.7642C15.9347 16.1948 15.9772 16.7793 16.0305 17.3229C16.4878 17.3485 17.0462 17.1998 17.4288 17.3587C17.1629 17.4408 16.8227 17.4408 16.5939 17.5637C16.7853 17.6509 17.2213 17.6353 17.5085 17.5688ZM13.8607 15.2667C13.5842 14.6413 13.3342 13.9951 12.925 13.4928C12.5261 13.7492 12.0901 13.9954 11.9734 14.4619C12.5476 14.7746 13.2122 15.0771 13.861 15.2669L13.8607 15.2667ZM14.5415 13.3338C14.5149 13.9593 14.4403 14.7797 14.2702 15.2669C14.6797 14.7592 15.0146 14.1747 15.3602 13.6005C15.2113 13.3697 14.9029 13.1698 14.5412 13.3338H14.5415ZM13.7702 13.0723C13.6161 13.057 13.4831 13.2466 13.2811 13.1647C13.2334 13.2159 13.1906 13.2673 13.1429 13.3185C13.5895 13.8416 13.7968 14.5798 14.1426 15.1899C14.3286 14.6003 14.3074 13.9593 14.3498 13.3185C14.0945 13.3287 13.951 13.0877 13.7702 13.0723ZM13.2758 12.4415C13.2599 12.6209 13.3024 12.6774 13.3395 12.8824C13.9457 13.0669 13.8445 12.0773 13.2758 12.4415ZM12.6004 12.2263C12.3398 12.0878 11.9465 11.9392 11.606 11.8778C11.1859 11.8007 11.2284 12.4315 11.2446 12.8059C11.2605 13.1033 11.42 13.416 11.4893 13.6161C11.5211 13.7085 11.5317 13.8057 11.6116 13.8262C11.7552 13.8569 12.2337 13.6775 12.3666 13.6056C12.6538 13.4569 12.877 13.2159 13.1217 13.0518C13.127 12.9748 13.127 12.8929 13.1323 12.8159C12.9834 12.744 12.8186 12.6979 12.6004 12.6877C12.744 12.6158 12.9619 12.6158 13.0948 12.5339C13.0948 12.5032 13.0948 12.4725 13.1001 12.4415C12.8555 12.4159 12.7652 12.3133 12.6004 12.226V12.2263ZM10.1013 11.7905C9.88344 12.006 10.7128 12.2931 10.9734 12.3084C10.9734 12.1751 11.0533 12.0469 11.0371 11.9494C10.7234 11.8982 10.3139 11.934 10.1013 11.7905ZM12.7814 11.888C12.7814 11.9085 12.7549 11.9033 12.7496 11.9187C13.0314 12.1288 13.2387 12.1751 13.6163 12.1546C13.7864 12.0367 13.9406 11.8931 14.1214 11.7803C13.7066 11.8161 13.1856 12.0623 12.7814 11.888ZM15.2378 12.6058C15.2272 12.3699 15.1632 11.8829 15.0091 11.7956C14.6901 11.6162 14.1264 12.1598 13.887 12.2416C13.9135 12.3136 13.956 12.3699 13.9616 12.4622C14.1052 12.4264 14.2753 12.452 14.3976 12.5083C14.254 12.5236 14.0999 12.5236 14.004 12.5904C13.9722 12.688 14.0147 12.8162 13.9881 12.9495C14.323 13.0419 14.7113 13.0879 15.1367 13.1033C15.2166 13.0007 15.2484 12.8059 15.2378 12.6061V12.6058ZM9.73456 11.9955C9.66557 11.9494 9.20273 11.37 9.13904 11.3956C8.30414 11.7135 7.52259 12.2621 6.82595 12.7852C7.49047 14.1645 7.76169 15.8512 7.80973 17.4767C8.57006 17.8201 9.24016 18.3176 10.277 18.3687C10.1547 17.5534 10.0482 16.8203 9.97925 16.0513C9.71864 15.9435 9.34658 16.0564 9.10189 16.0206C9.10189 15.7386 9.47423 15.8975 9.50607 15.7079C9.5273 15.5643 9.29881 15.5541 9.37311 15.3284C9.56445 15.3949 9.66557 15.5438 9.86752 15.6001C10.0536 15.2104 9.86752 14.5182 9.89406 14.1901C9.89936 14.1287 9.9259 13.8518 10.0695 13.8979C10.1971 13.9388 10.0642 14.6413 10.0748 14.9488C10.0854 15.236 10.0376 15.5077 10.16 15.6871C11.1597 15.5538 12.1753 15.4716 13.2599 15.4409C13.0205 15.3434 12.7387 15.2513 12.4303 15.0819C12.2602 14.9895 11.7337 14.7999 11.6859 14.6461C11.606 14.3999 11.8879 14.2717 11.9359 14.0616C11.4309 14.3283 11.3351 13.8052 11.2127 13.4413C11.1063 13.1081 11.0426 12.8568 11.0161 12.6672C10.5748 12.4517 10.1069 12.2519 9.73456 11.9955ZM14.7965 11.4624C15.4931 11.1395 15.6208 12.6777 15.3442 13.1749C15.3867 13.3236 15.5303 13.3799 15.5889 13.5132C15.2007 14.185 14.77 14.8104 14.3714 15.4719C14.6638 15.2925 15.0892 15.4412 15.4347 15.3079C15.5624 15.2618 15.6526 14.9798 15.7484 14.7541C16.0143 14.1389 16.2909 13.3594 16.4129 12.7749C16.4395 12.6416 16.5194 12.3494 16.4981 12.2314C16.4663 12.0159 16.1685 11.857 16.0143 11.7288C15.7325 11.4826 15.5571 11.2725 15.2593 11.0417C15.1476 11.2109 14.8926 11.3237 14.7968 11.4622L14.7965 11.4624ZM8.14464 5.50959C7.81504 5.86324 7.88403 6.51964 7.92118 6.99127C8.52201 6.62711 9.31418 7.02197 9.30887 7.63743C9.59602 7.63231 9.41529 7.29401 9.36194 7.07342C9.19183 6.36073 9.64909 5.59174 9.38317 4.94046C8.86754 4.9814 8.44743 5.18153 8.14436 5.50959H8.14464ZM10.5161 3.46363C9.7664 3.6686 8.80385 4.19679 8.49548 4.84807C8.73486 4.81225 8.89966 4.69939 9.13345 4.68404C9.22396 4.67892 9.34071 4.71986 9.44183 4.69428C9.64378 4.6431 9.81948 4.20218 9.97366 4.03788C10.1225 3.87896 10.3033 3.80705 10.4256 3.66349C10.5055 3.62766 10.6223 3.62766 10.6276 3.51481C10.5957 3.47898 10.5586 3.4534 10.5158 3.46363H10.5161ZM14.4244 3.65864C13.6429 3.23307 12.3242 2.91524 11.4946 3.31522C10.8245 3.63817 9.92059 4.17147 9.61222 4.84323C9.89936 5.49451 9.52702 6.08922 9.50049 6.75047C9.48987 7.10412 9.6706 7.40687 9.68652 7.79123C9.5854 7.95014 9.28764 7.96549 9.08038 7.95526C9.01139 7.61696 8.88904 7.23745 8.52732 7.19651C8.01699 7.14021 7.63935 7.55016 7.61812 7.97573C7.59158 8.47833 8.01699 9.30873 8.62313 9.25243C8.8572 9.23196 8.91558 9.00625 9.17088 9.00625C9.30915 9.2729 8.95832 9.35478 8.92089 9.54467C8.91027 9.59585 8.94742 9.78574 8.97396 9.87785C9.08569 10.3137 9.3301 10.8828 9.56948 11.216C9.87786 11.6415 10.4787 11.7029 11.1276 11.7442C11.2446 11.5031 11.67 11.5236 11.9465 11.5852C11.6116 11.457 11.3033 11.1494 11.0479 10.8777C10.7555 10.565 10.4577 10.2315 10.4418 9.82156C11.0002 10.565 11.4574 11.2162 12.4678 11.5443C13.2334 11.7905 14.1267 11.4314 14.7169 11.0315C14.9616 10.8674 15.1051 10.6008 15.2806 10.3648C15.9292 9.46252 16.2322 8.1807 16.1685 6.9347C16.142 6.42187 16.142 5.9093 15.9613 5.56561C15.7752 5.20657 15.1423 4.87851 14.7702 5.20657C14.7012 4.85292 15.0786 4.63744 15.5199 4.76565C15.2063 4.37079 14.8767 3.90428 14.4247 3.6581L14.4244 3.65864ZM15.8814 15.2513C16.4928 14.9591 17.6308 14.467 18.0082 15.2513C18.1517 15.5436 18.3165 16.0305 18.3858 16.3333C18.4869 16.7537 18.2741 17.6458 17.8221 17.7843C17.4233 17.9074 16.9607 17.9022 16.4822 17.8098C16.4238 17.7638 16.3652 17.6868 16.3174 17.6049C15.9772 17.5946 15.6529 17.6202 15.387 17.7587C15.4135 18.0049 15.2434 18.0407 15.0786 18.0919C14.9616 18.5481 15.318 19.1428 15.2328 19.5531C15.1744 19.8504 14.7968 19.8965 14.5202 19.9479C14.5096 20.112 14.5308 20.2504 14.5521 20.3888C14.4884 20.6146 14.2066 20.7425 13.9353 20.7735C13.0474 20.8761 11.7021 20.9221 10.8513 20.6248C10.6119 20.0608 10.4259 19.3788 10.2292 18.738C9.39965 18.8253 8.72452 18.3946 8.09185 18.1075C7.87398 18.01 7.57063 17.9537 7.48572 17.7845C7.40583 17.6205 7.43795 17.3078 7.41672 17.0155C7.36896 16.2619 7.32091 15.5339 7.11896 14.7646C7.02846 14.4161 6.86366 14.1133 6.75221 13.7802C6.64579 13.4726 6.46506 13.0879 6.4173 12.7803C6.34831 12.3241 6.79495 12.2985 7.07651 12.0983C7.51784 11.7908 7.86336 11.6216 8.34213 11.3447C8.4857 11.2626 8.91111 11.0576 8.95888 10.9601C9.05468 10.7705 8.79407 10.5038 8.7248 10.3551C8.61307 10.1192 8.55469 9.91933 8.53877 9.6885C8.1399 9.62709 7.83152 9.39626 7.6508 9.13985C7.34773 8.70916 7.13516 7.91432 7.4008 7.31448C7.42203 7.26842 7.52315 7.17092 7.53907 7.099C7.57091 6.95544 7.48069 6.76582 7.47538 6.61203C7.44885 5.82769 7.61365 5.15082 8.1614 4.91487C8.38486 4.05862 9.18234 3.77661 9.93204 3.35104C10.2139 3.19213 10.5223 3.08951 10.8412 2.97665C11.9845 2.57155 13.7445 2.64859 14.6962 3.34081C15.1004 3.63305 15.7437 4.25336 15.9724 4.70478C16.5839 5.8891 16.5361 7.87338 16.1107 9.31923C16.0523 9.51397 15.9724 9.79597 15.8554 10.0319C15.7755 10.196 15.5258 10.5189 15.5523 10.6625C15.5842 10.8111 16.1266 11.206 16.2437 11.3137C16.4509 11.5085 16.8498 11.7649 16.8816 12.0111C16.9188 12.2726 16.7646 12.6314 16.685 12.8827C16.4297 13.7236 16.1747 14.4977 15.8822 15.2516L15.8814 15.2513Z" fill="#231F20"/>
<path d="M11.8124 9.42635C11.8442 9.38541 12.0249 9.31861 12.2802 9.43659C12.2802 9.43659 11.9772 9.48265 12.0037 9.96989L11.876 9.94431C11.8814 9.94942 11.7484 9.5085 11.8124 9.42635Z" fill="#F7E4CD"/>
<path d="M14.0129 13.5904C14.0129 13.6623 13.9492 13.7237 13.8746 13.7237C13.8 13.7237 13.7363 13.6623 13.7363 13.5904C13.7363 13.5184 13.8 13.457 13.8746 13.457C13.9545 13.457 14.0129 13.5184 14.0129 13.5904Z" fill="#1D1919"/>
<path d="M14.1515 14.2105C14.1515 14.2824 14.0878 14.3438 14.0133 14.3438C13.9387 14.3438 13.875 14.2824 13.875 14.2105C13.875 14.1386 13.9387 14.0771 14.0133 14.0771C14.0932 14.0771 14.1515 14.1334 14.1515 14.2105Z" fill="#1D1919"/>
</g>
<defs>
<clipPath id="clip0_237_7882">
<rect width="13.5908" height="18.1211" fill="white" transform="translate(4.99609 2.73047)"/>
</clipPath>
</defs>
</svg>
