<svg width="32" height="32" viewBox="0 0 32 32" fill="none" xmlns="http://www.w3.org/2000/svg">
<mask id="path-1-inside-1_237_7810" fill="white">
<path d="M0 8C0 3.58172 3.58172 0 8 0H24C28.4183 0 32 3.58172 32 8V24C32 28.4183 28.4183 32 24 32H8C3.58172 32 0 28.4183 0 24V8Z"/>
</mask>
<path d="M0 8C0 3.58172 3.58172 0 8 0H24C28.4183 0 32 3.58172 32 8V24C32 28.4183 28.4183 32 24 32H8C3.58172 32 0 28.4183 0 24V8Z" fill="white"/>
<path d="M8 0V1H24V0V-1H8V0ZM32 8H31V24H32H33V8H32ZM24 32V31H8V32V33H24V32ZM0 24H1V8H0H-1V24H0ZM8 32V31C4.13401 31 1 27.866 1 24H0H-1C-1 28.9706 3.02944 33 8 33V32ZM32 24H31C31 27.866 27.866 31 24 31V32V33C28.9706 33 33 28.9706 33 24H32ZM24 0V1C27.866 1 31 4.13401 31 8H32H33C33 3.02944 28.9706 -1 24 -1V0ZM8 0V-1C3.02944 -1 -1 3.02944 -1 8H0H1C1 4.13401 4.13401 1 8 1V0Z" fill="#0B1228" fill-opacity="0.14" mask="url(#path-1-inside-1_237_7810)"/>
<g clip-path="url(#clip0_237_7810)">
<path d="M24.2464 15.5884C24.2464 20.0777 20.5551 23.7207 15.999 23.7207C11.4429 23.7207 7.75195 20.0777 7.75195 15.5884C7.75195 11.0991 11.4433 7.45605 15.9993 7.45605C20.5554 7.45605 24.2467 11.0987 24.2467 15.5884" fill="#D33833"/>
<path d="M8.09235 17.6017C8.09235 17.6017 7.49385 9.12301 15.6015 8.87942L15.0362 7.96875L10.6398 9.39253L9.38266 10.7843L8.28522 12.8108L7.66016 15.1709L7.84638 16.7486" fill="#EF3D3A"/>
<path d="M10.3531 10.0407C8.91014 11.4709 8.01221 13.4398 8.01221 15.6206C8.01221 17.8011 8.91014 19.77 10.3535 21.2002C11.8035 22.6304 13.7922 23.509 16.0003 23.509C18.2085 23.509 20.1972 22.6304 21.6472 21.2002C23.0906 19.77 23.9885 17.8011 23.9885 15.6206C23.9885 13.4401 23.0906 11.4712 21.6472 10.041C20.1972 8.61726 18.2085 7.73219 16.0003 7.73219C13.7988 7.73219 11.8035 8.61085 10.3535 10.041L10.3531 10.0407ZM9.98732 21.5401C8.45104 20.0264 7.5 17.9295 7.5 15.6206C7.5 13.3118 8.45104 11.2145 9.98732 9.6947C11.5236 8.18129 13.6521 7.23828 15.9997 7.23828C18.3476 7.23828 20.4757 8.18096 22.012 9.6947C23.5483 11.2081 24.4993 13.3054 24.4993 15.6206C24.4993 17.9295 23.5483 20.0267 22.012 21.5401C20.4757 23.0603 18.3472 23.9965 15.9997 23.9965C13.6517 23.9965 11.5236 23.0603 9.98732 21.5401Z" fill="#231F20"/>
<path d="M19.4705 15.6332L18.2134 15.8128L16.5174 15.9988L15.42 16.0244L14.3491 15.9924L13.5312 15.7488L12.8062 14.9921L12.2409 13.4464L12.1144 13.1128L11.3629 12.8692L10.924 12.1701L10.6113 11.1695L10.9572 10.2909L11.7752 10.0149L12.4338 10.3165L12.7465 10.9835L13.1256 10.9259L13.252 10.772L13.1256 10.0729L13.0924 9.19421L13.2786 7.982L13.2719 7.28932L13.8439 6.40425L14.8481 5.70516L16.6037 4.98047L18.5527 5.2564L20.2486 6.4366L21.0333 7.6488L21.5389 8.52746L21.6654 10.7079L21.2863 12.5872L20.5945 14.2546L19.9425 15.1461" fill="#F0D6B7"/>
<path d="M18.4088 20.8727L13.9194 21.0522V21.7769L14.2985 24.323L14.1123 24.5345L10.973 23.5019L10.7536 23.1364L10.4409 19.7117L9.70264 17.6595L9.54297 17.172L12.0572 15.5047L12.8419 15.2031L13.5337 16.0242L14.1322 16.5373L14.824 16.7489L15.1367 16.8388L15.5158 18.4166L15.802 18.7501L16.527 18.5065L16.0214 19.4492L18.7484 20.6934L18.4091 20.873" fill="#335061"/>
<path d="M10.9578 10.303L11.7757 10.0271L12.4343 10.3286L12.747 10.9957L13.1261 10.9381L13.2194 10.5725L13.0332 9.87345L13.2194 8.20608L13.0598 7.29541L13.6251 6.66033L14.849 5.72406L14.5031 5.26855L12.774 6.08961L12.049 6.63473L11.6433 7.48138L11.0183 8.30243L10.832 9.27071L10.9585 10.3033" fill="#6D6B6D"/>
<path d="M12.25 7.45554C12.25 7.45554 12.7224 6.33329 14.6046 5.78817C16.4868 5.24305 14.6979 5.39702 14.6979 5.39702L12.656 6.15372L11.8713 6.91042L11.5254 7.51315L12.2504 7.45554" fill="#DCD9D8"/>
<path d="M11.3044 10.0917C11.3044 10.0917 10.6458 7.96884 13.16 7.66731L13.0667 7.30176L11.3376 7.69291L10.832 9.27066L10.9585 10.3033L11.3044 10.0917Z" fill="#DCD9D8"/>
<path d="M12.3086 12.9072L12.7209 12.5225C12.7209 12.5225 12.9071 12.5417 12.9403 12.7532C12.9735 12.9648 13.0668 14.8761 14.4168 15.9023C14.5433 15.9987 13.4127 15.7484 13.4127 15.7484L12.4085 14.235" fill="#F7E4CD"/>
<path d="M18.0892 12.33C18.0892 12.33 18.1622 11.4129 18.4218 11.4833C18.6814 11.5538 18.681 11.8041 18.681 11.8041C18.681 11.8041 18.056 12.1888 18.0892 12.33Z" fill="#F7E4CD"/>
<path d="M20.6967 8.96973C20.6967 8.96973 20.1779 9.07248 20.1314 9.51485C20.085 9.95721 20.6967 9.6048 20.79 9.57246" fill="#F7E4CD"/>
<path d="M16.8988 9.00195C16.8988 9.00195 16.207 9.09191 16.207 9.51507C16.207 9.93823 16.9918 9.90622 17.2112 9.72665" fill="#F7E4CD"/>
<path d="M12.6278 10.9705C12.6278 10.9705 11.4374 10.2714 11.3109 10.9385C11.1844 11.6055 10.9053 12.0863 11.4972 12.7854L11.0915 12.6634L10.7124 11.7272L10.5859 10.8165L11.3109 10.0918L12.1289 10.1494L12.6012 10.515L12.6278 10.9705Z" fill="#F7E4CD"/>
<path d="M13.192 9.05928C13.192 9.05928 13.7241 6.39129 16.4242 5.87817C18.6456 5.45501 19.8161 5.96813 20.2553 6.4553C20.2553 6.4553 18.2732 4.18486 16.391 4.87755C14.5088 5.57664 13.1253 6.84645 13.1588 7.6611C13.2119 9.05928 13.192 9.05928 13.192 9.05928Z" fill="#F7E4CD"/>
<path d="M20.4757 6.75702C20.4757 6.75702 19.5644 6.72501 19.5312 7.51372C19.5312 7.51372 19.5313 7.63568 19.591 7.7573C19.591 7.7573 20.316 6.9686 20.7548 7.39176" fill="#F7E4CD"/>
<path d="M16.4909 7.84094C16.4909 7.84094 16.3312 6.63513 15.267 7.33422C14.5752 7.78973 14.6419 8.42447 14.7614 8.54643C14.8879 8.66839 14.8547 8.91198 14.9476 8.7452C15.0409 8.57843 15.014 8.03331 15.3599 7.87935C15.6992 7.72538 16.2711 7.55861 16.4905 7.84094" fill="#F7E4CD"/>
<path d="M13.5392 16.0244L10.5862 17.2942C10.5862 17.2942 11.8101 21.9887 11.1847 23.4445L10.7458 23.2905L10.7127 21.5012L9.89473 18.1149L9.54883 17.1786L12.6284 15.1777L13.5396 16.0244" fill="#49728B"/>
<path d="M13.837 18.6221L14.2559 19.116V20.9309H13.757C13.757 20.9309 13.6973 19.6611 13.6973 19.5071C13.6973 19.3532 13.757 18.808 13.757 18.808" fill="#49728B"/>
<path d="M13.8504 21.2061L12.4336 21.2637L12.8392 21.5396L13.8434 21.6936" fill="#49728B"/>
<path d="M18.6855 20.9051L19.8494 20.873L20.1355 23.6566L18.9451 23.8106L18.6859 20.9054" fill="#335061"/>
<path d="M18.9987 20.9052L20.7544 20.8152C20.7544 20.8152 21.4794 19.0579 21.4794 18.9683C21.4794 18.8787 22.1045 16.4223 22.1045 16.4223L20.6877 14.9985L20.4016 14.7549L19.65 15.4796V18.2951L18.998 20.9055" fill="#335061"/>
<path d="M19.783 20.6934L18.6855 20.9049L18.8452 21.7516C19.2509 21.9312 19.9427 21.4501 19.9427 21.4501" fill="#49728B"/>
<path d="M19.8184 15.3891L22.0199 16.9668L22.0796 16.2421L20.4169 14.7607L19.8184 15.3894" fill="#49728B"/>
<path d="M14.9432 26.8695L14.2912 24.3235L13.9652 22.4442L13.9121 21.0524L16.8585 20.8984H18.6876L18.5213 24.0795L18.8074 26.536L18.7742 26.9915L16.3865 27.171L14.9432 26.8695Z" fill="white"/>
<path d="M18.2801 20.8729C18.2801 20.8729 18.1205 24.022 18.5928 26.2665C18.5928 26.2665 17.6484 26.8437 16.2715 26.9912L18.9118 26.9016L19.2245 26.722L18.8455 21.758L18.7455 20.6934" fill="#DCD9D8"/>
<path d="M20.1835 23.4192L21.4074 23.0856L23.7288 22.9637L24.0747 21.931L23.4496 20.1417L22.7246 20.0518L21.7205 20.3533L20.7628 20.8088L20.2506 20.7188L19.8516 20.8728" fill="white"/>
<path d="M20.1621 22.8092C20.1621 22.8092 20.98 22.4436 21.1065 22.4756L20.7606 20.8083L21.1663 20.6543C21.1663 20.6543 21.4524 22.232 21.4524 22.4116C21.4524 22.4116 23.2081 22.5012 23.3678 22.5012C23.3678 22.5012 23.7469 21.8022 23.6539 21.0775L23.9998 22.0457L24.033 22.5909L23.5274 23.3156L22.9621 23.4375L22.0177 23.4055L21.705 23.0144L20.6076 23.1683L20.2617 23.2903" fill="#DCD9D8"/>
<path d="M18.9265 20.6617L18.2348 18.9687L17.5098 17.9681C17.5098 17.9681 17.6694 17.5449 17.8889 17.5449H18.6138L19.3056 17.7885L19.2459 18.9108L18.9265 20.6617Z" fill="white"/>
<path d="M19.0659 20.084C19.0659 20.084 18.1879 18.4487 18.1879 18.2047C18.1879 18.2047 18.3476 17.8392 18.567 17.9288C18.7864 18.0188 19.2588 18.2623 19.2588 18.2623V17.6852L18.1879 17.4736L17.4629 17.5636L18.6868 20.3599L18.9394 20.392" fill="#DCD9D8"/>
<path d="M15.2206 16.0884L14.3492 15.9985L13.5312 15.7549V16.0308L13.9303 16.454L15.1874 16.9991" fill="white"/>
<path d="M13.8191 16.1787C13.8191 16.1787 14.79 16.5699 15.1094 16.4802L15.1426 16.8458L14.2645 16.6662L13.7324 16.3007L13.8187 16.1787" fill="#DCD9D8"/>
<path d="M20.1843 17.6466C19.6521 17.6338 19.1668 17.5698 18.7476 17.4543C18.7741 17.2875 18.721 17.1271 18.7675 17.0052C18.8873 16.922 19.0802 16.922 19.2598 16.9024C19.1067 16.832 18.8873 16.7997 18.7144 16.8448C18.7077 16.7292 18.6546 16.6588 18.6211 16.5689C18.9205 16.4661 19.6252 15.793 20.0246 16.0109C20.2175 16.1201 20.2971 16.7228 20.3108 17.0244C20.324 17.268 20.2842 17.5119 20.1843 17.6463" fill="#D33833"/>
<path d="M20.1823 17.6476C19.6502 17.6348 19.1649 17.5708 18.7456 17.4552C18.7722 17.2885 18.7191 17.1281 18.7655 17.0061C18.8854 16.9229 19.0782 16.9229 19.2578 16.9034C19.1048 16.833 18.8854 16.8006 18.7124 16.8458C18.7058 16.7302 18.6527 16.6598 18.6191 16.5698C18.9186 16.4671 19.6233 15.7939 20.0226 16.0119C20.2155 16.1211 20.2952 16.7238 20.3088 17.0254C20.3221 17.2689 20.2822 17.5129 20.1823 17.6473V17.6476Z" fill="black"/>
<path d="M20.2162 17.7125L20.1806 17.7115C19.638 17.6984 19.1492 17.633 18.7271 17.5168L18.6702 17.5013L18.6792 17.445C18.6901 17.3763 18.6862 17.3069 18.6824 17.2395C18.6772 17.1485 18.6723 17.063 18.7027 16.9835L18.7096 16.9649L18.7261 16.9535C18.768 16.9245 18.8162 16.9043 18.8679 16.8895C18.819 16.8908 18.7718 16.8969 18.7296 16.9077L18.6499 16.9282L18.6454 16.8487C18.6415 16.78 18.6185 16.7304 18.5916 16.6732C18.5793 16.6472 18.5667 16.6203 18.5559 16.591L18.5332 16.53L18.5964 16.5084C18.6799 16.4798 18.811 16.3939 18.95 16.3029C19.3029 16.0718 19.7421 15.7841 20.0555 15.9552C20.3322 16.1115 20.3738 16.9848 20.3755 17.0219C20.3906 17.2988 20.3389 17.5464 20.2368 17.6842L20.2162 17.7122V17.7125ZM18.8183 17.4073C19.2068 17.5087 19.6534 17.5673 20.1463 17.5818C20.2176 17.4626 20.254 17.2554 20.2417 17.0286C20.2236 16.6159 20.124 16.1442 19.9888 16.0677C19.7491 15.9367 19.3309 16.2106 19.0255 16.4104C18.9039 16.4899 18.7956 16.561 18.7058 16.6038C18.7082 16.6092 18.711 16.6149 18.7135 16.6206C18.7338 16.6637 18.7558 16.7109 18.7687 16.7685C18.9329 16.7453 19.1317 16.7736 19.2865 16.845L19.4979 16.9427L19.2648 16.9676C19.2309 16.9713 19.197 16.974 19.1628 16.9771C19.0307 16.9885 18.9053 16.9993 18.8221 17.0471C18.8085 17.0984 18.812 17.161 18.8162 17.2324C18.8194 17.2863 18.8228 17.3456 18.8183 17.4073Z" fill="#D33833"/>
<path d="M17.6354 16.8069C17.6354 16.8453 17.6354 16.8837 17.6287 16.9225C17.4624 17.0252 17.1965 17.0252 17.0103 17.1149C17.2762 17.1277 17.4893 17.1917 17.6755 17.2752C17.6689 17.3716 17.6689 17.474 17.6623 17.5704C17.3562 17.7691 17.077 18.0707 16.7179 18.2631C16.5449 18.353 15.953 18.5838 15.7735 18.539C15.6735 18.5134 15.6603 18.3914 15.6204 18.2762C15.5341 18.0326 15.3343 17.6347 15.3144 17.2628C15.2944 16.7945 15.2413 16.0058 15.7665 16.1018C16.192 16.1786 16.6843 16.3646 17.0103 16.5377C17.2164 16.6533 17.3296 16.7813 17.6354 16.8073" fill="#D33833"/>
<path d="M17.6354 16.8069C17.6354 16.8453 17.6354 16.8837 17.6287 16.9225C17.4624 17.0252 17.1965 17.0252 17.0103 17.1149C17.2762 17.1277 17.4893 17.1917 17.6755 17.2752C17.6689 17.3716 17.6689 17.474 17.6623 17.5704C17.3562 17.7691 17.077 18.0707 16.7179 18.2631C16.5449 18.353 15.953 18.5838 15.7735 18.539C15.6735 18.5134 15.6603 18.3914 15.6204 18.2762C15.5341 18.0326 15.3343 17.6347 15.3144 17.2628C15.2944 16.7945 15.2413 16.0058 15.7665 16.1018C16.192 16.1786 16.6843 16.3646 17.0103 16.5377C17.2164 16.6533 17.3296 16.7813 17.6354 16.8073V16.8069Z" fill="black"/>
<path d="M15.8288 18.6082C15.8015 18.6082 15.7774 18.6058 15.7568 18.6008C15.6397 18.5708 15.6069 18.4596 15.5779 18.3619C15.5713 18.34 15.565 18.3178 15.5573 18.2959C15.5377 18.2413 15.5115 18.1759 15.4839 18.1069C15.3861 17.864 15.2641 17.5614 15.2481 17.2653L15.246 17.2154C15.2292 16.8337 15.2061 16.3108 15.4472 16.11C15.5342 16.0376 15.646 16.013 15.7798 16.0376C16.1757 16.109 16.6715 16.2832 17.0436 16.4806C17.097 16.5102 17.1425 16.5399 17.1865 16.5682C17.3161 16.6518 17.4279 16.7242 17.6421 16.742L17.7032 16.7471V16.8064C17.7032 16.8468 17.7032 16.8886 17.6956 16.9324L17.6907 16.9607L17.6655 16.9762C17.568 17.0362 17.4447 17.0638 17.3245 17.0897C17.4524 17.1174 17.5771 17.1591 17.7043 17.2161L17.7459 17.2346L17.7427 17.2787C17.7396 17.3259 17.7378 17.3758 17.7361 17.424C17.7343 17.4735 17.7326 17.5244 17.7294 17.5735L17.7273 17.6052L17.7001 17.6231C17.5757 17.7039 17.4566 17.8016 17.3301 17.9051C17.1512 18.0516 16.966 18.2032 16.7508 18.3184C16.6397 18.3761 16.0967 18.6079 15.8291 18.6079L15.8288 18.6082ZM15.6831 16.1575C15.6237 16.1575 15.5744 16.174 15.5342 16.2077C15.3421 16.3677 15.3644 16.8745 15.3791 17.2097L15.3812 17.2589C15.3959 17.5334 15.5136 17.8252 15.6079 18.0594C15.6362 18.1298 15.6631 18.1961 15.6834 18.2538C15.6918 18.278 15.6991 18.3023 15.7061 18.3255C15.7316 18.4114 15.7491 18.4643 15.7903 18.4751C15.9364 18.5118 16.494 18.3043 16.6858 18.2049C16.8888 18.0961 17.0687 17.9489 17.2427 17.8063C17.3629 17.708 17.4768 17.6146 17.597 17.5338C17.5991 17.4961 17.6005 17.4573 17.6016 17.4196C17.6026 17.3852 17.604 17.3498 17.6058 17.3148C17.4094 17.2319 17.2179 17.1885 17.0069 17.1783L16.7518 17.1662L16.98 17.056C17.0736 17.0109 17.1823 16.9873 17.2875 16.9647C17.3912 16.9422 17.4898 16.9209 17.5663 16.8819C17.5666 16.8758 17.5673 16.8697 17.5673 16.8637C17.358 16.835 17.2375 16.7572 17.1107 16.6753C17.0684 16.648 17.0247 16.6197 16.9765 16.5928C16.6173 16.4021 16.1373 16.2336 15.754 16.1642C15.7288 16.1595 15.7051 16.1572 15.6827 16.1572L15.6831 16.1575Z" fill="#D33833"/>
<path d="M17.9356 17.364C17.8892 17.1076 17.8357 17.0369 17.856 16.8125C18.5677 16.357 18.6942 17.5948 17.9356 17.364Z" fill="#D33833"/>
<path d="M17.9337 17.364C17.8872 17.1076 17.8338 17.0369 17.854 16.8125C18.5657 16.357 18.6922 17.5948 17.9337 17.364Z" fill="black"/>
<path d="M18.1132 17.4587C18.0555 17.4587 17.9895 17.4492 17.914 17.4263L17.8753 17.4145L17.8683 17.3758C17.8536 17.2953 17.8382 17.2333 17.8249 17.1787C17.7949 17.0577 17.7732 16.9705 17.7879 16.8078L17.7907 16.7768L17.8176 16.7596C18.1321 16.5584 18.3197 16.6774 18.3857 16.7377C18.5269 16.8667 18.5576 17.1093 18.4542 17.2788C18.4165 17.3404 18.3172 17.4593 18.1135 17.4593L18.1132 17.4587ZM17.993 17.3135C18.153 17.3522 18.275 17.3172 18.3389 17.2127C18.4112 17.0945 18.3906 16.9196 18.2938 16.831C18.2072 16.7518 18.0751 16.7586 17.9196 16.8502C17.9123 16.9722 17.9301 17.0439 17.956 17.1487C17.9675 17.1959 17.9808 17.2484 17.9934 17.3135H17.993Z" fill="#D33833"/>
<path d="M18.9592 17.5704C18.9592 17.5704 18.7398 17.2688 18.8994 17.1792C19.0591 17.0896 19.2122 17.1792 19.3051 17.0252C19.398 16.8713 19.3051 16.7817 19.3383 16.6021C19.3715 16.4225 19.5245 16.3905 19.6842 16.3585C19.8439 16.3265 20.2827 16.2685 20.3428 16.4161L20.1566 15.871L19.7775 15.749L18.5871 16.4161L18.5273 16.7496V17.4167" fill="#EF3D3A"/>
<path d="M15.6603 18.5699C15.6205 18.0951 15.5807 17.6272 15.5405 17.1525C15.4741 16.447 15.7135 16.5689 16.3518 16.5689C16.4517 16.5689 16.9503 16.6781 16.9835 16.7485C17.1564 17.0885 16.6973 17.0113 17.183 17.268C17.5886 17.4796 18.3136 17.1397 18.1473 16.6589C18.054 16.5497 17.6683 16.6269 17.5289 16.5561C17.2829 16.4342 17.0366 16.3125 16.7906 16.1906C16.4779 16.0366 15.7596 15.8058 15.4273 16.0238C14.5825 16.5753 15.4804 17.9607 15.7798 18.5378" fill="#EF3D3A"/>
<path d="M16.4934 7.84095C15.6353 7.64858 15.2097 8.1873 14.9505 8.74522C14.7178 8.69401 14.8107 8.38607 14.8708 8.23211C15.0238 7.82815 15.6423 7.28303 16.1478 7.35985C16.3606 7.38545 16.6534 7.57783 16.4937 7.84095" fill="#231F20"/>
<path d="M20.663 8.7767H20.7029C20.8957 9.16146 21.0621 9.57181 21.308 9.91816C21.1417 10.2901 20.0708 10.6108 20.0841 9.95656C20.3168 9.86021 20.7158 9.93736 20.9223 9.809C20.8025 9.49466 20.6361 9.22547 20.663 8.77637" fill="#231F20"/>
<path d="M16.9248 8.79038C17.1111 9.11752 17.1708 9.45746 17.4304 9.70104C17.5503 9.8102 17.7763 9.94463 17.6631 10.2526C17.6366 10.323 17.4437 10.4834 17.3305 10.5154C16.9248 10.6309 15.9738 10.541 16.2928 10.0471C16.6321 10.0599 17.0842 10.2586 17.3371 10.0214C17.1443 9.72631 16.7984 9.13638 16.9248 8.79004" fill="#231F20"/>
<path d="M20.5092 12.0866C19.8974 12.4649 19.2123 12.8817 18.2015 12.7857C17.9887 12.6061 17.902 12.2022 18.1152 11.939C18.2217 12.1186 18.155 12.4521 18.4611 12.5034C19.033 12.5997 19.6983 12.1634 20.1105 12.0158C20.3632 11.5991 20.0906 11.4515 19.8579 11.182C19.3856 10.6369 18.7605 9.95698 18.7804 9.14267C18.9733 9.0079 18.9865 9.34785 19.0131 9.40546C19.2591 9.95698 19.8778 10.6689 20.3233 11.1436C20.4365 11.2591 20.6161 11.3744 20.636 11.4515C20.6958 11.6695 20.483 11.939 20.5095 12.0866" fill="#231F20"/>
<path d="M12.4071 11.6891C12.2143 11.58 12.1678 11.1184 11.9414 11.1056C11.6154 11.0864 11.6755 11.7083 11.6755 12.0739C11.4561 11.8815 11.4163 11.2788 11.5756 10.9709C11.3894 10.8809 11.3097 11.0672 11.2031 11.1312C11.3429 10.2013 12.6199 10.7017 12.4071 11.6891Z" fill="#231F20"/>
<path d="M20.8956 12.4775C20.6094 13.0035 20.2038 13.5806 19.3659 13.5998C19.346 13.433 19.3327 13.1702 19.3659 13.0675C20.0109 13.0035 20.4103 12.6891 20.8956 12.4775Z" fill="#231F20"/>
<path d="M16.877 12.8174C17.4091 13.0869 18.3933 13.1189 19.1249 13.0997C19.1648 13.2537 19.1648 13.4461 19.1648 13.632C18.227 13.6704 17.1229 13.4461 16.877 12.8174Z" fill="#231F20"/>
<path d="M16.7783 13.3184C17.1507 14.2162 18.4211 14.1135 19.492 14.0879C19.4455 14.2034 19.3456 14.3443 19.2125 14.3894C18.8666 14.5242 17.9222 14.6266 17.4432 14.383C17.1437 14.229 16.9442 13.8763 16.7779 13.6711C16.7049 13.5747 16.3055 13.3248 16.7779 13.3184" fill="#231F20"/>
<path d="M20.4629 18.2631C20.0307 18.9814 19.6115 19.7189 19.0996 20.3476C19.3124 19.7384 19.4057 18.7122 19.4389 17.9296C19.891 17.7244 20.2771 17.9744 20.4633 18.2631" fill="#81B0C4"/>
<path d="M22.7977 20.8408C22.3121 20.9372 21.9732 21.3923 21.4941 21.3603C21.76 21.0076 22.2125 20.8536 22.7977 20.8408Z" fill="#231F20"/>
<path d="M23.0098 21.5718C22.6108 21.6102 22.1451 21.6746 21.7461 21.6422C21.939 21.3599 22.6706 21.4627 23.0098 21.5718Z" fill="#231F20"/>
<path d="M23.15 22.2065C22.7045 22.2129 22.1525 22.2065 21.7266 22.1745C21.9792 21.9117 22.8638 22.0781 23.15 22.2065Z" fill="#231F20"/>
<path d="M19.6235 23.9383C19.6899 24.477 19.9097 25.0221 19.8828 25.6121C19.6368 25.6889 19.497 25.7596 19.1644 25.7596C19.1445 25.2593 19.0711 24.4898 19.0914 24.0087C19.2511 24.0215 19.4904 23.8996 19.6235 23.9383Z" fill="#DCD9D8"/>
<path d="M18.9053 15.9863C18.6793 16.1275 18.493 16.3007 18.2736 16.4546C17.7946 16.4802 17.5354 16.4226 17.1895 16.1595C17.1961 16.1403 17.2293 16.1467 17.2293 16.1211C17.7415 16.3391 18.3931 16.0311 18.9053 15.9863Z" fill="#F0D6B7"/>
<path d="M16.2328 19.3401C16.3725 18.7566 16.9246 18.4487 17.4231 18.1279C17.9354 18.7566 18.2477 19.5645 18.5936 20.3468C17.7757 20.1096 16.9441 19.7313 16.2324 19.3398" fill="#81B0C4"/>
<path d="M19.0927 24.0155C19.0728 24.4966 19.1391 25.2597 19.1657 25.7664C19.4983 25.7664 19.6381 25.696 19.884 25.6188C19.9106 25.0289 19.6912 24.4838 19.6248 23.945C19.4917 23.9002 19.2523 24.0219 19.0927 24.0155ZM13.958 21.2959C14.1774 23.2264 14.4901 24.8426 15.0687 26.5548C16.3524 26.9331 17.8953 26.9651 19.0326 26.6252C18.8264 25.6633 18.9127 24.4895 18.7932 23.4569C18.7 22.681 18.7468 21.9047 18.6203 21.116C17.2437 20.8401 15.3014 21.052 13.958 21.2956V21.2959ZM18.9463 21.1295C18.933 21.9569 18.9861 22.7777 19.0528 23.6051C19.3855 23.5603 19.6049 23.5283 19.9109 23.4575C19.811 22.6624 19.8246 21.7578 19.6182 21.0527C19.3855 21.0591 19.1793 21.0527 18.9463 21.1295ZM20.6157 20.9947C20.456 20.9627 20.2764 20.9947 20.13 20.9947C20.203 21.6682 20.3693 22.4121 20.4294 23.124C20.6621 23.1304 20.7886 23.0212 20.9815 22.9892C20.9948 22.3673 20.9284 21.5078 20.6157 20.9947ZM23.1498 23.2264C23.6421 23.1109 23.9478 22.5337 23.8084 21.9374C23.7151 21.5398 23.5558 20.7831 23.3762 20.5264C23.2497 20.3404 22.8972 20.0905 22.6114 20.2636C22.1526 20.546 21.3476 20.6292 21.015 20.9691C21.1813 21.5078 21.2344 22.2389 21.3012 22.9188C21.8731 22.9508 22.5716 22.7649 23.0502 22.9636C22.7176 23.0664 22.292 23.0664 22.0059 23.22C22.2452 23.3292 22.7906 23.3096 23.1498 23.2264ZM18.5871 20.3468C18.2412 19.5645 17.9285 18.7563 17.4166 18.128C16.9177 18.4487 16.3723 18.7566 16.2263 19.3402C16.9446 19.7313 17.7758 20.1097 18.5874 20.3472L18.5871 20.3468ZM19.4386 17.9292C19.4054 18.7115 19.3121 19.7377 19.0993 20.3472C19.6115 19.7121 20.0304 18.981 20.4626 18.2627C20.2764 17.974 19.8907 17.724 19.4382 17.9292H19.4386ZM18.4739 17.602C18.281 17.5828 18.1147 17.82 17.8621 17.7176C17.8024 17.7816 17.7489 17.846 17.6892 17.91C18.2478 18.5643 18.5071 19.4877 18.9396 20.2508C19.1723 19.5133 19.1458 18.7115 19.1989 17.91C18.8795 17.9228 18.7 17.6212 18.4739 17.602ZM17.8555 16.813C17.8356 17.0374 17.8887 17.1081 17.9351 17.3645C18.6933 17.5953 18.5668 16.3575 17.8555 16.813ZM17.0106 16.5438C16.6847 16.3706 16.1927 16.1847 15.7668 16.1078C15.2413 16.0115 15.2944 16.8005 15.3147 17.2688C15.3346 17.6408 15.5341 18.0319 15.6208 18.2823C15.6606 18.3978 15.6739 18.5194 15.7738 18.545C15.9534 18.5835 16.5519 18.3591 16.7182 18.2691C17.0774 18.0831 17.3565 17.7816 17.6626 17.5764C17.6692 17.4801 17.6692 17.3777 17.6759 17.2813C17.4897 17.1913 17.2835 17.1337 17.0106 17.1209C17.1902 17.031 17.4628 17.031 17.6291 16.9286C17.6291 16.8901 17.6291 16.8517 17.6357 16.813C17.3296 16.781 17.2168 16.6526 17.0106 16.5435V16.5438ZM13.8846 15.9987C13.6121 16.2682 14.6495 16.6274 14.9754 16.6466C14.9754 16.4798 15.0754 16.3194 15.0551 16.1975C14.6627 16.1334 14.1505 16.1783 13.8846 15.9987ZM17.2371 16.1206C17.2371 16.1462 17.2039 16.1398 17.1972 16.159C17.5498 16.4218 17.809 16.4798 18.2814 16.4542C18.4942 16.3066 18.687 16.127 18.9131 15.9859C18.3942 16.0307 17.7426 16.3386 17.2371 16.1206ZM20.3096 17.0185C20.2963 16.7234 20.2163 16.1142 20.0234 16.0051C19.6244 15.7807 18.9194 16.4606 18.6199 16.563C18.6531 16.653 18.7062 16.7234 18.7132 16.8389C18.8928 16.7941 19.1056 16.8261 19.2586 16.8965C19.079 16.9157 18.8862 16.9157 18.7663 16.9993C18.7265 17.1213 18.7796 17.2816 18.7464 17.4484C19.1653 17.564 19.651 17.6216 20.1831 17.6408C20.283 17.5124 20.3229 17.2688 20.3096 17.0188V17.0185ZM13.4259 16.2551C13.3396 16.1975 12.7606 15.4728 12.681 15.5048C11.6367 15.9023 10.6591 16.5886 9.78767 17.2429C10.6189 18.9682 10.9581 21.0779 11.0182 23.1112C11.9693 23.5408 12.8075 24.163 14.1044 24.227C13.9514 23.2072 13.8183 22.2901 13.732 21.3283C13.406 21.1935 12.9406 21.3347 12.6345 21.2899C12.6345 20.9371 13.1003 21.1359 13.1401 20.8987C13.1666 20.7191 12.8808 20.7063 12.9738 20.424C13.2131 20.5072 13.3396 20.6935 13.5922 20.7639C13.8249 20.2764 13.5922 19.4106 13.6254 19.0002C13.632 18.9234 13.6652 18.5771 13.8448 18.6347C14.0045 18.6859 13.8382 19.5645 13.8514 19.9493C13.8647 20.3084 13.805 20.6484 13.958 20.8728C15.2085 20.706 16.4789 20.6032 17.8356 20.5648C17.5361 20.4429 17.1836 20.3276 16.7979 20.1157C16.5851 20.0002 15.9265 19.763 15.8667 19.5706C15.7668 19.2627 16.1193 19.1023 16.1794 18.8395C15.5477 19.173 15.4279 18.5188 15.2749 18.0636C15.1417 17.6468 15.0621 17.3325 15.0289 17.0953C14.4769 16.8258 13.8916 16.5758 13.4259 16.2551ZM19.7576 15.5883C20.6289 15.1844 20.7886 17.1085 20.4427 17.7304C20.4958 17.9164 20.6754 17.9868 20.7488 18.1536C20.2631 18.9938 19.7244 19.7761 19.2258 20.6036C19.5916 20.3792 20.1237 20.5652 20.5559 20.3984C20.7156 20.3408 20.8284 19.988 20.9483 19.7057C21.2809 18.9362 21.6268 17.9612 21.7795 17.2301C21.8127 17.0633 21.9126 16.6978 21.8861 16.5502C21.8462 16.2807 21.4738 16.0819 21.2809 15.9215C20.9284 15.6136 20.709 15.3508 20.3365 15.0621C20.1967 15.2736 19.8778 15.4148 19.7579 15.588L19.7576 15.5883ZM11.4371 8.14226C11.0249 8.58462 11.1112 9.40567 11.1576 9.9956C11.9092 9.5401 12.9001 10.034 12.8934 10.8039C13.2526 10.7975 13.0265 10.3743 12.9598 10.0984C12.747 9.2069 13.319 8.24502 12.9864 7.43037C12.3414 7.48158 11.8159 7.7319 11.4368 8.14226H11.4371ZM14.4035 5.58309C13.4657 5.83948 12.2617 6.50016 11.876 7.31481C12.1754 7.27 12.3816 7.12883 12.674 7.10963C12.7872 7.10323 12.9332 7.15444 13.0597 7.12243C13.3123 7.05842 13.5321 6.5069 13.725 6.30138C13.9112 6.1026 14.1372 6.01265 14.2903 5.83307C14.3902 5.78827 14.5363 5.78827 14.5429 5.6471C14.5031 5.60229 14.4566 5.57028 14.4031 5.58309H14.4035ZM19.2922 5.82701C18.3146 5.29469 16.6651 4.89714 15.6274 5.39745C14.7892 5.80141 13.6586 6.46849 13.2729 7.30874C13.632 8.12339 13.1663 8.86729 13.1331 9.69441C13.1198 10.1368 13.3459 10.5155 13.3658 10.9962C13.2393 11.195 12.8669 11.2142 12.6076 11.2014C12.5213 10.7782 12.3683 10.3035 11.9158 10.2523C11.2775 10.1819 10.8051 10.6947 10.7785 11.227C10.7454 11.8557 11.2775 12.8944 12.0357 12.824C12.3284 12.7984 12.4015 12.516 12.7208 12.516C12.8938 12.8496 12.4549 12.952 12.4081 13.1895C12.3948 13.2535 12.4413 13.4911 12.4745 13.6063C12.6143 14.1514 12.92 14.8633 13.2194 15.28C13.6051 15.8124 14.3567 15.8892 15.1683 15.9407C15.3147 15.6392 15.8468 15.6648 16.1927 15.742C15.7738 15.5816 15.3881 15.1968 15.0687 14.8569C14.7029 14.4657 14.3305 14.0486 14.3105 13.5359C15.009 14.4657 15.5809 15.2804 16.8447 15.6907C17.8024 15.9987 18.9197 15.5496 19.658 15.0493C19.9641 14.8441 20.1436 14.5105 20.3631 14.2154C21.1743 13.0868 21.5534 11.4834 21.4738 9.92485C21.4406 9.28338 21.4406 8.64224 21.2145 8.21234C20.9818 7.76324 20.1901 7.35288 19.7247 7.76324C19.6384 7.32087 20.1104 7.05134 20.6625 7.21171C20.2701 6.7178 19.8578 6.13427 19.2925 5.82634L19.2922 5.82701ZM21.1146 20.3276C21.8794 19.9621 23.3028 19.3466 23.7749 20.3276C23.9545 20.6932 24.1606 21.3023 24.2472 21.681C24.3737 22.2069 24.1075 23.3228 23.5422 23.4959C23.0432 23.6499 22.4646 23.6435 21.8661 23.528C21.7931 23.4703 21.7197 23.374 21.66 23.2716C21.2344 23.2588 20.8288 23.2908 20.4962 23.4639C20.5294 23.7719 20.3166 23.8167 20.1104 23.8807C19.9641 24.4514 20.4099 25.1953 20.3033 25.7084C20.2303 26.0804 19.7579 26.138 19.412 26.2023C19.3987 26.4075 19.4253 26.5807 19.4518 26.7539C19.3722 27.0362 19.0196 27.1962 18.6804 27.235C17.5697 27.3633 15.887 27.421 14.8228 27.049C14.5233 26.3435 14.2906 25.4905 14.0447 24.6889C13.007 24.7981 12.1625 24.2594 11.3711 23.9002C11.0986 23.7783 10.7192 23.7079 10.6129 23.4963C10.513 23.2911 10.5532 22.9 10.5266 22.5344C10.4669 21.5917 10.4068 20.6811 10.1542 19.7188C10.041 19.2829 9.83484 18.9042 9.69543 18.4874C9.56231 18.1027 9.33626 17.6216 9.27651 17.2368C9.19021 16.6661 9.74889 16.6341 10.1011 16.3838C10.6531 15.999 11.0853 15.7874 11.6842 15.4411C11.8638 15.3383 12.3959 15.0819 12.4556 14.96C12.5755 14.7228 12.2495 14.3893 12.1628 14.2033C12.0231 13.9081 11.9501 13.6582 11.9301 13.3694C11.4312 13.2926 11.0455 13.0039 10.8194 12.6831C10.4403 12.1444 10.1744 11.1502 10.5067 10.3999C10.5333 10.3423 10.6598 10.2203 10.6797 10.1304C10.7195 9.9508 10.6066 9.71361 10.6 9.52123C10.5668 8.54015 10.773 7.69349 11.4581 7.39836C11.7376 6.32732 12.7351 5.97458 13.6729 5.44226C14.0254 5.24348 14.4112 5.11512 14.8102 4.97395C16.2402 4.46724 18.4418 4.5636 19.6321 5.42946C20.1377 5.795 20.9423 6.57091 21.2285 7.13557C21.9933 8.61697 21.9336 11.099 21.4014 12.9075C21.3284 13.1511 21.2285 13.5039 21.0821 13.799C20.9822 14.0042 20.6698 14.4081 20.703 14.5877C20.7428 14.7737 21.4214 15.2676 21.5678 15.4023C21.827 15.6459 22.3259 15.9667 22.3658 16.2746C22.4122 16.6017 22.2194 17.0505 22.1198 17.3648C21.8005 18.4167 21.4815 19.385 21.1156 20.328L21.1146 20.3276Z" fill="#231F20"/>
<path d="M16.0257 13.042C16.0656 12.9908 16.2916 12.9073 16.611 13.0548C16.611 13.0548 16.2319 13.1124 16.2651 13.7219L16.1054 13.6899C16.112 13.6963 15.9457 13.1448 16.0257 13.042Z" fill="#F7E4CD"/>
<path d="M18.7795 18.2498C18.7795 18.3397 18.6998 18.4165 18.6065 18.4165C18.5133 18.4165 18.4336 18.3397 18.4336 18.2498C18.4336 18.1598 18.5133 18.083 18.6065 18.083C18.7065 18.083 18.7795 18.1598 18.7795 18.2498Z" fill="#1D1919"/>
<path d="M18.9533 19.0261C18.9533 19.1161 18.8737 19.1929 18.7804 19.1929C18.6871 19.1929 18.6074 19.1161 18.6074 19.0261C18.6074 18.9362 18.6871 18.8594 18.7804 18.8594C18.8803 18.8594 18.9533 18.9298 18.9533 19.0261Z" fill="#1D1919"/>
</g>
<defs>
<clipPath id="clip0_237_7810">
<rect width="17" height="22.6667" fill="white" transform="translate(7.5 4.66602)"/>
</clipPath>
</defs>
</svg>
