<svg width="16" height="16" viewBox="0 0 16 16" fill="none" xmlns="http://www.w3.org/2000/svg">
<g clip-path="url(#clip0_237_7476)">
<rect width="16" height="16" rx="4" fill="#7D2AE7"/>
<rect width="16" height="16" rx="4" fill="url(#paint0_radial_237_7476)"/>
<rect width="16" height="16" rx="4" fill="url(#paint1_radial_237_7476)"/>
<rect width="16" height="16" rx="4" fill="url(#paint2_radial_237_7476)"/>
<rect width="16" height="16" rx="4" fill="url(#paint3_radial_237_7476)"/>
<path d="M10.8834 9.26232C10.8326 9.26232 10.788 9.30519 10.7415 9.39882C10.2164 10.4635 9.30959 11.2168 8.2602 11.2168C7.04681 11.2168 6.29539 10.1214 6.29539 8.60822C6.29539 6.04497 7.72356 4.56295 8.97798 4.56295C9.56415 4.56295 9.92212 4.93131 9.92212 5.51751C9.92212 6.21324 9.52685 6.58161 9.52685 6.82698C9.52685 6.93712 9.59536 7.00381 9.73122 7.00381C10.277 7.00381 10.9177 6.37662 10.9177 5.49059C10.9177 4.63148 10.1699 4 8.91556 4C6.84243 4 5 5.92198 5 8.58128C5 10.6397 6.17546 12 7.98913 12C9.91415 12 11.0272 10.0847 11.0272 9.46306C11.0272 9.32539 10.9569 9.26232 10.8834 9.26232Z" fill="white"/>
</g>
<defs>
<radialGradient id="paint0_radial_237_7476" cx="0" cy="0" r="1" gradientUnits="userSpaceOnUse" gradientTransform="translate(3.0906 14.1811) rotate(-49.416) scale(12.3747)">
<stop stop-color="#6420FF"/>
<stop offset="1" stop-color="#6420FF" stop-opacity="0"/>
</radialGradient>
<radialGradient id="paint1_radial_237_7476" cx="0" cy="0" r="1" gradientUnits="userSpaceOnUse" gradientTransform="translate(4.23576 1.81891) rotate(54.703) scale(13.9547)">
<stop stop-color="#00C4CC"/>
<stop offset="1" stop-color="#00C4CC" stop-opacity="0"/>
</radialGradient>
<radialGradient id="paint2_radial_237_7476" cx="0" cy="0" r="1" gradientUnits="userSpaceOnUse" gradientTransform="translate(3.09053 14.1811) rotate(-45.1954) scale(12.2248 5.62237)">
<stop stop-color="#6420FF"/>
<stop offset="1" stop-color="#6420FF" stop-opacity="0"/>
</radialGradient>
<radialGradient id="paint3_radial_237_7476" cx="0" cy="0" r="1" gradientUnits="userSpaceOnUse" gradientTransform="translate(6.54316 2.15579) rotate(66.5198) scale(12.5967 21.1023)">
<stop stop-color="#00C4CC" stop-opacity="0.725916"/>
<stop offset="0.0001" stop-color="#00C4CC"/>
<stop offset="1" stop-color="#00C4CC" stop-opacity="0"/>
</radialGradient>
<clipPath id="clip0_237_7476">
<path d="M0 4C0 1.79086 1.79086 0 4 0H12C14.2091 0 16 1.79086 16 4V12C16 14.2091 14.2091 16 12 16H4C1.79086 16 0 14.2091 0 12V4Z" fill="white"/>
</clipPath>
</defs>
</svg>
