<svg width="20" height="20" viewBox="0 0 20 20" fill="none" xmlns="http://www.w3.org/2000/svg">
<g clip-path="url(#clip0_237_7468)">
<rect width="20" height="20" rx="5" fill="#7D2AE7"/>
<rect width="20" height="20" rx="5" fill="url(#paint0_radial_237_7468)"/>
<rect width="20" height="20" rx="5" fill="url(#paint1_radial_237_7468)"/>
<rect width="20" height="20" rx="5" fill="url(#paint2_radial_237_7468)"/>
<rect width="20" height="20" rx="5" fill="url(#paint3_radial_237_7468)"/>
<path d="M13.3543 11.5779C13.2908 11.5779 13.235 11.6315 13.1768 11.7485C12.5205 13.0793 11.387 14.021 10.0753 14.021C8.55851 14.021 7.61923 12.6518 7.61923 10.7603C7.61923 7.55621 9.40445 5.70368 10.9725 5.70368C11.7052 5.70368 12.1526 6.16414 12.1526 6.89689C12.1526 7.76655 11.6586 8.22701 11.6586 8.53372C11.6586 8.6714 11.7442 8.75477 11.914 8.75477C12.5963 8.75477 13.3971 7.97078 13.3971 6.86323C13.3971 5.78935 12.4624 5 10.8944 5C8.30304 5 6 7.40247 6 10.7266C6 13.2997 7.46932 15 9.73642 15C12.1427 15 13.5341 12.6059 13.5341 11.8288C13.5341 11.6567 13.4461 11.5779 13.3543 11.5779Z" fill="white"/>
</g>
<defs>
<radialGradient id="paint0_radial_237_7468" cx="0" cy="0" r="1" gradientUnits="userSpaceOnUse" gradientTransform="translate(3.86325 17.7264) rotate(-49.416) scale(15.4683)">
<stop stop-color="#6420FF"/>
<stop offset="1" stop-color="#6420FF" stop-opacity="0"/>
</radialGradient>
<radialGradient id="paint1_radial_237_7468" cx="0" cy="0" r="1" gradientUnits="userSpaceOnUse" gradientTransform="translate(5.2947 2.27364) rotate(54.703) scale(17.4434)">
<stop stop-color="#00C4CC"/>
<stop offset="1" stop-color="#00C4CC" stop-opacity="0"/>
</radialGradient>
<radialGradient id="paint2_radial_237_7468" cx="0" cy="0" r="1" gradientUnits="userSpaceOnUse" gradientTransform="translate(3.86316 17.7263) rotate(-45.1954) scale(15.2811 7.02796)">
<stop stop-color="#6420FF"/>
<stop offset="1" stop-color="#6420FF" stop-opacity="0"/>
</radialGradient>
<radialGradient id="paint3_radial_237_7468" cx="0" cy="0" r="1" gradientUnits="userSpaceOnUse" gradientTransform="translate(8.17895 2.69474) rotate(66.5198) scale(15.7459 26.3779)">
<stop stop-color="#00C4CC" stop-opacity="0.725916"/>
<stop offset="0.0001" stop-color="#00C4CC"/>
<stop offset="1" stop-color="#00C4CC" stop-opacity="0"/>
</radialGradient>
<clipPath id="clip0_237_7468">
<path d="M0 5C0 2.23858 2.23858 0 5 0H15C17.7614 0 20 2.23858 20 5V15C20 17.7614 17.7614 20 15 20H5C2.23858 20 0 17.7614 0 15V5Z" fill="white"/>
</clipPath>
</defs>
</svg>
