<svg width="32" height="32" viewBox="0 0 32 32" fill="none" xmlns="http://www.w3.org/2000/svg">
<g clip-path="url(#clip0_237_7452)">
<rect width="32" height="32" rx="8" fill="#7D2AE7"/>
<rect width="32" height="32" rx="8" fill="url(#paint0_radial_237_7452)"/>
<rect width="32" height="32" rx="8" fill="url(#paint1_radial_237_7452)"/>
<rect width="32" height="32" rx="8" fill="url(#paint2_radial_237_7452)"/>
<rect width="32" height="32" rx="8" fill="url(#paint3_radial_237_7452)"/>
<path d="M21.7668 18.5246C21.6653 18.5246 21.5759 18.6104 21.4829 18.7976C20.4329 20.9269 18.6192 22.4336 16.5204 22.4336C14.0936 22.4336 12.5908 20.2429 12.5908 17.2164C12.5908 12.0899 15.4471 9.1259 17.956 9.1259C19.1283 9.1259 19.8442 9.86262 19.8442 11.035C19.8442 12.4265 19.0537 13.1632 19.0537 13.654C19.0537 13.8742 19.1907 14.0076 19.4624 14.0076C20.5541 14.0076 21.8353 12.7532 21.8353 10.9812C21.8353 9.26296 20.3399 8 17.8311 8C13.6849 8 10 11.844 10 17.1626C10 21.2795 12.3509 24 15.9783 24C19.8283 24 22.0545 20.1694 22.0545 18.9261C22.0545 18.6508 21.9137 18.5246 21.7668 18.5246Z" fill="white"/>
</g>
<defs>
<radialGradient id="paint0_radial_237_7452" cx="0" cy="0" r="1" gradientUnits="userSpaceOnUse" gradientTransform="translate(6.1812 28.3623) rotate(-49.416) scale(24.7493)">
<stop stop-color="#6420FF"/>
<stop offset="1" stop-color="#6420FF" stop-opacity="0"/>
</radialGradient>
<radialGradient id="paint1_radial_237_7452" cx="0" cy="0" r="1" gradientUnits="userSpaceOnUse" gradientTransform="translate(8.47152 3.63783) rotate(54.703) scale(27.9094)">
<stop stop-color="#00C4CC"/>
<stop offset="1" stop-color="#00C4CC" stop-opacity="0"/>
</radialGradient>
<radialGradient id="paint2_radial_237_7452" cx="0" cy="0" r="1" gradientUnits="userSpaceOnUse" gradientTransform="translate(6.18105 28.3621) rotate(-45.1954) scale(24.4497 11.2447)">
<stop stop-color="#6420FF"/>
<stop offset="1" stop-color="#6420FF" stop-opacity="0"/>
</radialGradient>
<radialGradient id="paint3_radial_237_7452" cx="0" cy="0" r="1" gradientUnits="userSpaceOnUse" gradientTransform="translate(13.0863 4.31158) rotate(66.5198) scale(25.1934 42.2046)">
<stop stop-color="#00C4CC" stop-opacity="0.725916"/>
<stop offset="0.0001" stop-color="#00C4CC"/>
<stop offset="1" stop-color="#00C4CC" stop-opacity="0"/>
</radialGradient>
<clipPath id="clip0_237_7452">
<path d="M0 8C0 3.58172 3.58172 0 8 0H24C28.4183 0 32 3.58172 32 8V24C32 28.4183 28.4183 32 24 32H8C3.58172 32 0 28.4183 0 24V8Z" fill="white"/>
</clipPath>
</defs>
</svg>
