<svg width="80" height="80" viewBox="0 0 80 80" fill="none" xmlns="http://www.w3.org/2000/svg">
<path d="M57.9117 10H9.72168V70.26H57.9117V10Z" fill="#4B4D51"/>
<mask id="mask0_213_29851" style="mask-type:luminance" maskUnits="userSpaceOnUse" x="38" y="15" width="42" height="28">
<path d="M79.8824 27.4501L73.3724 15.3L61.0124 21.93L44.4424 30.8101L38.9824 41.5601L50.9524 42.96L67.5224 34.0801L79.8824 27.4501Z" fill="white"/>
</mask>
<g mask="url(#mask0_213_29851)">
<path d="M59.7857 -16.2579L41.4883 13.8362L71.5823 32.1336L89.8798 2.03961L59.7857 -16.2579Z" fill="#AF59E1"/>
<path d="M89.8658 2.04341L71.5684 32.1375L101.662 50.4349L119.96 20.3409L89.8658 2.04341Z" fill="#E56E00"/>
<path d="M71.5689 32.1325L53.2715 62.2266L83.3655 80.524L101.663 50.43L71.5689 32.1325Z" fill="#6A9A23"/>
<path d="M41.4889 13.841L23.1914 43.9351L53.2854 62.2325L71.5829 32.1385L41.4889 13.841Z" fill="#1558BC"/>
</g>
<path d="M44.4424 30.8101L38.9824 41.5601L50.9524 42.9601L57.9224 39.2301V23.5801L44.4424 30.8101Z" fill="#101214"/>
<path d="M3.65204 35.85C3.27204 35.99 3.02204 36.26 3.00204 36.58C2.97204 36.87 3.27204 37.24 3.93204 37.17C4.85204 37.06 5.66204 36.6 6.36204 36.13C7.08204 35.64 7.68204 35.15 8.46204 34.79C9.42204 34.27 9.96204 34.02 10.332 33.94C10.522 33.9 10.582 33.89 10.682 33.93C10.772 33.97 10.832 34.04 10.922 34.32C10.992 34.57 11.002 34.8 11.082 35.3C11.162 35.89 11.522 36.51 12.162 36.72C12.842 36.95 13.382 36.91 13.902 36.8C14.422 36.68 14.872 36.45 15.242 36.22C15.992 35.76 16.532 35.32 16.962 35.1C17.172 34.99 17.342 34.93 17.472 34.89C17.632 34.84 17.802 34.81 17.892 34.79L18.002 34.77C18.002 34.77 18.022 34.73 18.052 34.75C18.092 34.83 18.172 35.25 18.292 35.72C18.362 35.97 18.432 36.23 18.632 36.59C18.842 36.95 19.162 37.28 19.562 37.46C19.982 37.66 20.372 37.7 20.682 37.71C20.972 37.73 21.372 37.68 21.752 37.59C22.452 37.38 22.952 37.03 23.442 36.69C24.372 36 25.162 35.24 25.932 34.7C26.452 34.3 26.952 34.09 27.132 34.1C27.222 34.1 27.262 34.12 27.342 34.17C27.432 34.21 27.582 34.37 27.702 34.5C27.942 34.78 28.182 35.15 28.532 35.5C28.882 35.86 29.342 36.12 29.712 36.22C30.612 36.45 31.262 36.27 31.812 36.14C32.372 35.98 32.852 35.78 33.292 35.55C34.172 35.08 34.902 34.56 35.542 33.86C35.892 33.47 35.842 33.07 35.622 32.91C35.402 32.75 35.072 32.74 34.742 32.96C34.112 33.37 33.382 33.71 32.602 34C32.212 34.15 31.792 34.28 31.372 34.37C30.952 34.47 30.492 34.5 30.242 34.42C30.032 34.37 29.902 34.18 29.322 33.28C29.172 33.07 28.982 32.83 28.732 32.6C28.432 32.36 28.042 32.08 27.542 32C26.532 31.82 25.702 32.24 25.072 32.62C24.642 32.88 24.302 33.18 23.992 33.49C23.332 34.15 22.672 34.84 22.012 35.32C21.682 35.56 21.352 35.74 21.122 35.77C21.032 35.81 20.812 35.81 20.682 35.8C20.532 35.79 20.452 35.77 20.412 35.75C20.242 35.77 20.112 35.09 20.022 34.57C20.002 34.44 19.962 34.29 19.932 34.17C19.882 34.03 19.842 33.88 19.792 33.78C19.702 33.57 19.632 33.47 19.632 33.47C19.632 33.47 19.542 33.3 19.302 33.08C19.062 32.86 18.602 32.65 18.002 32.7C17.332 32.79 17.062 32.89 16.472 33.14C15.952 33.39 15.502 33.74 15.082 34.07C14.662 34.4 14.262 34.72 13.882 34.92C13.692 35.03 13.512 35.08 13.342 35.13C13.202 35.16 12.942 35.16 12.912 35.15C12.842 35.15 12.772 35.11 12.732 35.05C12.692 34.97 12.692 34.98 12.662 34.8C12.602 34.36 12.542 33.82 12.282 33.32C12.092 32.93 11.752 32.56 11.382 32.4C11.002 32.21 10.602 32.17 10.322 32.19C9.73204 32.22 9.33204 32.36 8.99204 32.48C8.33204 32.73 7.94204 32.94 7.65204 33.08C6.65204 33.55 5.92204 34.23 5.34204 34.72C4.74204 35.22 4.23204 35.62 3.67204 35.82L3.65204 35.85Z" fill="white"/>
<path d="M3.65204 45.2499C3.27204 45.3899 3.02204 45.6599 3.00204 45.9799C2.97204 46.2699 3.27204 46.6399 3.93204 46.5699C4.85204 46.4599 5.66204 45.9999 6.36204 45.5299C7.08204 45.0399 7.68204 44.5499 8.46204 44.1899C9.42204 43.6699 9.96204 43.4199 10.332 43.3399C10.522 43.2999 10.582 43.2899 10.682 43.3299C10.772 43.3699 10.832 43.4399 10.922 43.7199C10.992 43.9699 11.002 44.1999 11.082 44.6999C11.162 45.2899 11.522 45.9099 12.162 46.1199C12.842 46.3499 13.382 46.3099 13.902 46.1999C14.422 46.0799 14.872 45.8499 15.242 45.6199C15.992 45.1599 16.532 44.7199 16.962 44.4999C17.172 44.3899 17.342 44.3299 17.472 44.2899C17.632 44.2399 17.802 44.2099 17.892 44.1899L18.002 44.1699C18.002 44.1699 18.022 44.1299 18.052 44.1499C18.092 44.2299 18.172 44.6499 18.292 45.1199C18.362 45.3699 18.432 45.6299 18.632 45.9899C18.842 46.3499 19.162 46.6799 19.562 46.8599C19.982 47.0599 20.372 47.0999 20.682 47.1099C20.972 47.1299 21.372 47.0799 21.752 46.9899C22.452 46.7799 22.952 46.4299 23.442 46.0899C24.372 45.3999 25.162 44.6399 25.932 44.0999C26.452 43.6999 26.952 43.4899 27.132 43.4999C27.222 43.4999 27.262 43.5199 27.342 43.5699C27.432 43.6099 27.582 43.7699 27.702 43.8999C27.942 44.1799 28.182 44.5499 28.532 44.8999C28.882 45.2599 29.342 45.5199 29.712 45.6199C30.612 45.8499 31.262 45.6699 31.812 45.5399C32.372 45.3799 32.852 45.1799 33.292 44.9499C34.172 44.4799 34.902 43.9599 35.542 43.2599C35.892 42.8699 35.842 42.4699 35.622 42.3099C35.402 42.1499 35.072 42.1399 34.742 42.3599C34.112 42.7699 33.382 43.1099 32.602 43.3999C32.212 43.5499 31.792 43.6799 31.372 43.7699C30.952 43.8699 30.492 43.8999 30.242 43.8199C30.032 43.7699 29.902 43.5799 29.322 42.6799C29.172 42.4699 28.982 42.2299 28.732 41.9999C28.432 41.7599 28.042 41.4799 27.542 41.3999C26.532 41.2199 25.702 41.6399 25.072 42.0199C24.642 42.2799 24.302 42.5799 23.992 42.8899C23.332 43.5499 22.672 44.2399 22.012 44.7199C21.682 44.9599 21.352 45.1399 21.122 45.1699C21.032 45.2099 20.812 45.2099 20.682 45.1999C20.532 45.1899 20.452 45.1699 20.412 45.1499C20.242 45.1699 20.112 44.4899 20.022 43.9699C20.002 43.8399 19.962 43.6899 19.932 43.5699C19.882 43.4299 19.842 43.2799 19.792 43.1799C19.702 42.9699 19.632 42.8699 19.632 42.8699C19.632 42.8699 19.542 42.6999 19.302 42.4799C19.062 42.2599 18.602 42.0499 18.002 42.0999C17.332 42.1899 17.062 42.2899 16.472 42.5399C15.952 42.7899 15.502 43.1399 15.082 43.4699C14.662 43.7999 14.262 44.1199 13.882 44.3199C13.692 44.4299 13.512 44.4799 13.342 44.5299C13.202 44.5599 12.942 44.5599 12.912 44.5499C12.842 44.5499 12.772 44.5099 12.732 44.4499C12.692 44.3699 12.692 44.3799 12.662 44.1999C12.602 43.7599 12.542 43.2199 12.282 42.7199C12.092 42.3299 11.752 41.9599 11.382 41.7999C11.002 41.6099 10.602 41.5699 10.322 41.5899C9.73204 41.6199 9.33204 41.7599 8.99204 41.8799C8.33204 42.1299 7.94204 42.3399 7.65204 42.4799C6.65204 42.9499 5.92204 43.6299 5.34204 44.1199C4.74204 44.6199 4.23204 45.0199 3.67204 45.2199L3.65204 45.2499Z" fill="white"/>
</svg>
