<svg width="32" height="32" viewBox="0 0 32 32" fill="none" xmlns="http://www.w3.org/2000/svg">
<path d="M0 8C0 3.58172 3.58172 0 8 0H24C28.4183 0 32 3.58172 32 8V24C32 28.4183 28.4183 32 24 32H8C3.58172 32 0 28.4183 0 24V8Z" fill="url(#paint0_linear_237_7740)"/>
<path d="M25 10.3711V21.3151L20.5 25L13.525 22.4607V24.9781L9.57657 19.8186L21.085 20.7186V10.8636L25 10.3711ZM21.1634 10.9214L14.7066 7V9.57271L8.77686 11.3149L7 13.5957V18.7759L9.54314 19.8983V13.2601L21.1634 10.9214Z" fill="white"/>
<defs>
<linearGradient id="paint0_linear_237_7740" x1="16" y1="31.8994" x2="16" y2="0.0594281" gradientUnits="userSpaceOnUse">
<stop stop-color="#0078D4"/>
<stop offset="0.16" stop-color="#1380DA"/>
<stop offset="0.53" stop-color="#3C91E5"/>
<stop offset="0.82" stop-color="#559CEC"/>
<stop offset="1" stop-color="#5EA0EF"/>
</linearGradient>
</defs>
</svg>
