<svg width="16" height="16" viewBox="0 0 16 16" fill="none" xmlns="http://www.w3.org/2000/svg">
<path d="M0 4C0 1.79086 1.79086 0 4 0H12C14.2091 0 16 1.79086 16 4V12C16 14.2091 14.2091 16 12 16H4C1.79086 16 0 14.2091 0 12V4Z" fill="#292A2E"/>
<path fill-rule="evenodd" clip-rule="evenodd" d="M4.01537 8.75918C3.99488 8.771 3.99488 8.8006 4.01537 8.81244L5.94619 9.92751C5.96521 9.93849 5.97693 9.95881 5.97693 9.98078V12.2103C5.97693 12.234 6.00256 12.2488 6.02308 12.2369L7.95388 11.1219C7.9729 11.1109 7.98463 11.0906 7.98463 11.0686V8.82131C7.98463 8.79934 7.9729 8.77903 7.95386 8.76805L5.97693 7.62695L4.01537 8.75918Z" fill="white"/>
<path fill-rule="evenodd" clip-rule="evenodd" d="M4.01537 4.12271C3.99488 4.13456 3.99488 4.16415 4.01537 4.17598L5.94619 5.29105C5.96521 5.30204 5.97693 5.32234 5.97693 5.34431V7.62713L7.98463 6.46767V4.18487C7.98463 4.16289 7.9729 4.14258 7.95386 4.13158L6.00768 3.00825C5.98866 2.99725 5.96521 2.99725 5.94619 3.00825L4.01537 4.12271Z" fill="white"/>
<path fill-rule="evenodd" clip-rule="evenodd" d="M7.98633 6.46771L9.96326 7.60941C9.9823 7.62039 9.99402 7.6407 9.99402 7.66268V9.89221C9.99402 9.91589 10.0197 9.93067 10.0401 9.91884L11.9709 8.80377C11.99 8.79278 12.0017 8.77248 12.0017 8.75051V6.50321C12.0017 6.48124 11.99 6.46092 11.9709 6.44995L10.0248 5.32659C10.0057 5.31561 9.9823 5.31561 9.96326 5.32659L7.98633 6.46771Z" fill="white"/>
</svg>
