<svg width="20" height="20" viewBox="0 0 20 20" fill="none" xmlns="http://www.w3.org/2000/svg">
<path d="M0 5C0 2.23858 2.23858 0 5 0H15C17.7614 0 20 2.23858 20 5V15C20 17.7614 17.7614 20 15 20H5C2.23858 20 0 17.7614 0 15V5Z" fill="#292A2E"/>
<path fill-rule="evenodd" clip-rule="evenodd" d="M5.01922 11.1984C4.99359 11.2132 4.99359 11.2502 5.01922 11.265L7.43267 12.6588C7.45644 12.6725 7.47109 12.6979 7.47109 12.7254V15.5122C7.47109 15.5418 7.50313 15.5603 7.52878 15.5455L9.94221 14.1517C9.96598 14.138 9.98065 14.1126 9.98065 14.0852V11.2761C9.98065 11.2486 9.96598 11.2233 9.94218 11.2095L7.47109 9.7832L5.01922 11.1984Z" fill="white"/>
<path fill-rule="evenodd" clip-rule="evenodd" d="M5.01922 5.40335C4.99359 5.41816 4.99359 5.45514 5.01922 5.46993L7.43267 6.86373C7.45644 6.87748 7.47109 6.90284 7.47109 6.93031V9.78375L9.98065 8.33446V5.48104C9.98065 5.45357 9.96598 5.42818 9.94218 5.41444L7.50953 4.01031C7.48576 3.99656 7.45644 3.99656 7.43267 4.01031L5.01922 5.40335Z" fill="white"/>
<path fill-rule="evenodd" clip-rule="evenodd" d="M9.98047 8.33411L12.4516 9.7612C12.4754 9.77492 12.49 9.80031 12.49 9.82778V12.6146C12.49 12.6442 12.522 12.6627 12.5477 12.6479L14.9611 11.2541C14.9849 11.2404 14.9995 11.215 14.9995 11.1875V8.37848C14.9995 8.35102 14.9849 8.32563 14.9611 8.3119L12.5284 6.90775C12.5047 6.89403 12.4754 6.89403 12.4516 6.90775L9.98047 8.33411Z" fill="white"/>
</svg>
