<svg width="24" height="24" viewBox="0 0 24 24" fill="none" xmlns="http://www.w3.org/2000/svg">
<path d="M0 6.39569C0 2.86345 2.86345 0 6.39569 0H17.6043C21.1366 0 24 2.86345 24 6.39569V17.6043C24 21.1366 21.1366 24 17.6043 24H6.39569C2.86345 24 0 21.1366 0 17.6043V6.39569Z" fill="#292A2E"/>
<path fill-rule="evenodd" clip-rule="evenodd" d="M7.02306 13.6388C6.99231 13.6565 6.99231 13.7009 7.02306 13.7187L9.91929 15.3913C9.94781 15.4077 9.96539 15.4382 9.96539 15.4712V18.8155C9.96539 18.851 10.0038 18.8732 10.0346 18.8554L12.9308 17.1828C12.9593 17.1663 12.9769 17.1359 12.9769 17.1029V13.732C12.9769 13.699 12.9593 13.6685 12.9308 13.6521L9.96539 11.9404L7.02306 13.6388Z" fill="white"/>
<path fill-rule="evenodd" clip-rule="evenodd" d="M7.02306 6.68406C6.99231 6.70184 6.99231 6.74622 7.02306 6.76396L9.91929 8.43657C9.94781 8.45307 9.96539 8.48351 9.96539 8.51647V11.9407L12.9769 10.2015V6.7773C12.9769 6.74434 12.9593 6.71387 12.9308 6.69737L10.0115 5.01237C9.983 4.99588 9.94781 4.99588 9.91929 5.01237L7.02306 6.68406Z" fill="white"/>
<path fill-rule="evenodd" clip-rule="evenodd" d="M12.9785 10.2006L15.9439 11.9131C15.9725 11.9296 15.99 11.9601 15.99 11.993V15.3373C15.99 15.3729 16.0285 15.395 16.0592 15.3773L18.9554 13.7047C18.984 13.6882 19.0016 13.6577 19.0016 13.6248V10.2538C19.0016 10.2209 18.984 10.1904 18.9554 10.1739L16.0362 8.48891C16.0076 8.47245 15.9725 8.47245 15.9439 8.48891L12.9785 10.2006Z" fill="white"/>
</svg>
