<svg width="32" height="32" viewBox="0 0 32 32" fill="none" xmlns="http://www.w3.org/2000/svg">
<path d="M0 8C0 3.58172 3.58172 0 8 0H24C28.4183 0 32 3.58172 32 8V24C32 28.4183 28.4183 32 24 32H8C3.58172 32 0 28.4183 0 24V8Z" fill="#292A2E"/>
<path fill-rule="evenodd" clip-rule="evenodd" d="M8.02994 18.218C7.99002 18.2411 7.99002 18.2987 8.02994 18.3218L11.7908 20.4937C11.8278 20.5151 11.8507 20.5547 11.8507 20.5975V24.9402C11.8507 24.9863 11.9006 25.0151 11.9406 24.992L15.7014 22.8201C15.7384 22.7987 15.7613 22.7592 15.7613 22.7164V18.3391C15.7613 18.2963 15.7384 18.2567 15.7014 18.2353L11.8507 16.0127L8.02994 18.218Z" fill="white"/>
<path fill-rule="evenodd" clip-rule="evenodd" d="M8.02994 9.18682C7.99002 9.2099 7.99002 9.26753 8.02994 9.29057L11.7908 11.4625C11.8278 11.4839 11.8507 11.5235 11.8507 11.5663V16.0128L15.7613 13.7543V9.30789C15.7613 9.26509 15.7384 9.22552 15.7014 9.2041L11.9106 7.01607C11.8735 6.99464 11.8278 6.99464 11.7908 7.01607L8.02994 9.18682Z" fill="white"/>
<path fill-rule="evenodd" clip-rule="evenodd" d="M15.7617 13.7534L19.6124 15.9772C19.6495 15.9986 19.6723 16.0381 19.6723 16.0809V20.4236C19.6723 20.4697 19.7222 20.4985 19.7622 20.4755L23.523 18.3036C23.5601 18.2821 23.5829 18.2426 23.5829 18.1998V13.8225C23.5829 13.7797 23.5601 13.7401 23.523 13.7188L19.7322 11.5307C19.6951 11.5093 19.6495 11.5093 19.6124 11.5307L15.7617 13.7534Z" fill="white"/>
</svg>
