<svg width="16" height="16" viewBox="0 0 16 16" fill="none" xmlns="http://www.w3.org/2000/svg">
<path d="M0 4C0 1.79086 1.79086 0 4 0H12C14.2091 0 16 1.79086 16 4V12C16 14.2091 14.2091 16 12 16H4C1.79086 16 0 14.2091 0 12V4Z" fill="#292A2E"/>
<path d="M5.00536 8.80313C5.00536 7.79619 5.00804 6.78953 5.00215 5.7826C5.00134 5.64009 5.04369 5.56095 5.17129 5.48875C6.00227 5.01844 6.82762 4.53824 7.65485 4.06124C7.81971 3.96606 7.82802 3.97034 7.82802 4.15643C7.82802 6.14329 7.82802 8.13015 7.82802 10.1173C7.82802 10.1574 7.8307 10.1978 7.82775 10.2376C7.82051 10.3387 7.85616 10.3555 7.94221 10.305C8.20008 10.1539 8.45983 10.0058 8.71878 9.85658C9.29859 9.52236 9.8784 9.18788 10.4585 8.85393C10.596 8.77478 10.6115 8.78361 10.6115 8.94564C10.6121 9.87663 10.6121 10.8079 10.6115 11.7389C10.6115 11.9116 10.6014 11.9215 10.4301 11.9218C9.60819 11.9231 8.78633 11.9212 7.96473 11.9271C7.8315 11.9282 7.78486 11.8902 7.78754 11.7533C7.79558 11.3614 7.79076 10.9694 7.79022 10.5772C7.79022 10.4373 7.78754 10.4346 7.6645 10.5055C6.83272 10.9836 6.00174 11.4632 5.16968 11.941C5.12572 11.9662 5.08095 12.0239 5.02734 11.9892C4.98338 11.9608 5.00563 11.898 5.00563 11.8507C5.00483 10.8349 5.00483 9.81915 5.00483 8.80339L5.00536 8.80313Z" fill="white"/>
</svg>
