<svg width="20" height="20" viewBox="0 0 20 20" fill="none" xmlns="http://www.w3.org/2000/svg">
<path d="M0 5C0 2.23858 2.23858 0 5 0H15C17.7614 0 20 2.23858 20 5V15C20 17.7614 17.7614 20 15 20H5C2.23858 20 0 17.7614 0 15V5Z" fill="#292A2E"/>
<path d="M6.00764 10.847C6.00764 9.4116 6.01146 7.97656 6.00306 6.54115C6.00191 6.338 6.06229 6.22518 6.24418 6.12227C7.42877 5.45182 8.60534 4.76728 9.78458 4.0873C10.0196 3.95161 10.0314 3.95771 10.0314 4.22299C10.0314 7.05532 10.0314 9.88765 10.0314 12.7204C10.0314 12.7775 10.0353 12.8351 10.031 12.8919C10.0207 13.036 10.0716 13.06 10.1942 12.9879C10.5618 12.7726 10.9321 12.5614 11.3012 12.3487C12.1278 11.8723 12.9543 11.3955 13.7812 10.9194C13.9773 10.8066 13.9994 10.8192 13.9994 11.0502C14.0002 12.3773 14.0002 13.7049 13.9994 15.032C13.9994 15.2783 13.9849 15.2924 13.7407 15.2928C12.5691 15.2947 11.3975 15.292 10.2263 15.3004C10.0364 15.3019 9.96991 15.2478 9.97373 15.0526C9.98519 14.4939 9.97831 13.9351 9.97755 13.3759C9.97755 13.1766 9.97373 13.1728 9.79833 13.2738C8.6126 13.9553 7.42801 14.6391 6.24189 15.3202C6.17922 15.356 6.1154 15.4383 6.03898 15.3888C5.97631 15.3484 6.00803 15.2588 6.00803 15.1914C6.00688 13.7434 6.00688 12.2954 6.00688 10.8474L6.00764 10.847Z" fill="white"/>
</svg>
