<svg width="24" height="24" viewBox="0 0 24 24" fill="none" xmlns="http://www.w3.org/2000/svg">
<path d="M0 6.39569C0 2.86345 2.86345 0 6.39569 0H17.6043C21.1366 0 24 2.86345 24 6.39569V17.6043C24 21.1366 21.1366 24 17.6043 24H6.39569C2.86345 24 0 21.1366 0 17.6043V6.39569Z" fill="#292A2E"/>
<path d="M7.53592 13.0753C7.53592 11.4653 7.5402 9.85575 7.53077 8.24574C7.52949 8.01788 7.59721 7.89134 7.80122 7.77591C9.1299 7.02392 10.4496 6.25611 11.7722 5.49343C12.0358 5.34124 12.0491 5.34808 12.0491 5.64562C12.0491 8.82246 12.0491 11.9993 12.0491 15.1765C12.0491 15.2407 12.0534 15.3052 12.0487 15.3689C12.0371 15.5305 12.0941 15.5575 12.2317 15.4767C12.644 15.2351 13.0593 14.9983 13.4734 14.7597C14.4004 14.2253 15.3275 13.6905 16.255 13.1566C16.4749 13.03 16.4998 13.0441 16.4998 13.3032C16.5006 14.7918 16.5006 16.2808 16.4998 17.7694C16.4998 18.0456 16.4835 18.0614 16.2096 18.0618C14.8955 18.064 13.5814 18.061 12.2677 18.0704C12.0547 18.0721 11.9801 18.0114 11.9844 17.7925C11.9973 17.1658 11.9895 16.539 11.9887 15.9119C11.9887 15.6883 11.9844 15.684 11.7877 15.7973C10.4577 16.5617 9.12904 17.3286 7.79865 18.0926C7.72836 18.1328 7.65678 18.2251 7.57106 18.1695C7.50077 18.1242 7.53635 18.0238 7.53635 17.9481C7.53506 16.324 7.53506 14.6999 7.53506 13.0758L7.53592 13.0753Z" fill="white"/>
</svg>
