<svg width="32" height="32" viewBox="0 0 32 32" fill="none" xmlns="http://www.w3.org/2000/svg">
<path d="M0 8C0 3.58172 3.58172 0 8 0H24C28.4183 0 32 3.58172 32 8V24C32 28.4183 28.4183 32 24 32H8C3.58172 32 0 28.4183 0 24V8Z" fill="#292A2E"/>
<path d="M10.0121 17.807C10.0121 15.5414 10.0181 13.2764 10.0048 11.0108C10.003 10.6902 10.0983 10.5121 10.3854 10.3497C12.2551 9.2915 14.1122 8.21104 15.9734 7.1378C16.3443 6.92363 16.363 6.93326 16.363 7.35196C16.363 11.8224 16.363 16.2928 16.363 20.7639C16.363 20.8541 16.3691 20.9449 16.3624 21.0346C16.3462 21.262 16.4264 21.2999 16.62 21.1862C17.2002 20.8463 17.7846 20.513 18.3672 20.1773C19.6718 19.4253 20.9764 18.6727 22.2816 17.9213C22.591 17.7433 22.626 17.7631 22.626 18.1277C22.6272 20.2224 22.6272 22.3178 22.626 24.4125C22.626 24.8011 22.603 24.8234 22.2176 24.824C20.3684 24.827 18.5192 24.8228 16.6706 24.836C16.3709 24.8384 16.2659 24.753 16.272 24.445C16.2901 23.5631 16.2792 22.6811 16.278 21.7986C16.278 21.484 16.272 21.4779 15.9951 21.6374C14.1236 22.713 12.2539 23.7923 10.3818 24.8673C10.2829 24.9239 10.1821 25.0538 10.0615 24.9756C9.96261 24.9118 10.0127 24.7705 10.0127 24.664C10.0109 22.3785 10.0109 20.0931 10.0109 17.8076L10.0121 17.807Z" fill="white"/>
</svg>
